<?xml version="1.0" standalone="no"?>
<!DOCTYPE svg PUBLIC "-//W3C//DTD SVG 1.1//EN" "http://www.w3.org/Graphics/SVG/1.1/DTD/svg11.dtd" >
<svg>
<metadata>
Created by FontForge 20090622 at Wed Sep 16 19:02:50 2015
 By deploy user
Copyright (c) 2013 by Jasper de Waard. All rights reserved.
</metadata>
<defs>
<font id="ProzaLibre" horiz-adv-x="1100" >
  <font-face 
    font-family="Proza Libre"
    font-weight="400"
    font-stretch="normal"
    units-per-em="2048"
    panose-1="2 0 5 3 6 0 0 2 0 4"
    ascent="1638"
    descent="-410"
    x-height="1060"
    cap-height="1465"
    bbox="-466 -558 2601 2008"
    underline-thickness="50"
    underline-position="-50"
    unicode-range="U+000D-U+F002"
  />
<missing-glyph horiz-adv-x="452" 
 />
    <glyph glyph-name=".notdef" horiz-adv-x="452" 
 />
    <glyph glyph-name="NULL" horiz-adv-x="0" 
 />
    <glyph glyph-name="NULL" horiz-adv-x="0" 
 />
    <glyph glyph-name="nonmarkingreturn" unicode="&#xd;" horiz-adv-x="452" 
 />
    <glyph glyph-name="space" unicode=" " horiz-adv-x="452" 
 />
    <glyph glyph-name="slash" unicode="/" horiz-adv-x="846" 
d="M634 1578h152l-534 -1886h-152z" />
    <glyph glyph-name="quotesingle" unicode="'" horiz-adv-x="496" 
d="M70 889q34 37 64.5 78t54.5 83t41 82t24 75q-11 10 -27.5 21.5t-35.5 21.5t-39 17.5t-38 11.5q-8 14 -11 33t-3 33q0 24 9.5 50t27.5 48t45.5 36t63.5 14q28 0 55.5 -10.5t49.5 -33.5t35.5 -59.5t13.5 -88.5q0 -48 -15 -103t-47.5 -113.5t-83.5 -119t-122 -120.5z" />
    <glyph glyph-name="hyphen" unicode="-" horiz-adv-x="958" 
d="M817 654v-135h-687v135h687z" />
    <glyph glyph-name="semicolon" unicode=";" horiz-adv-x="632" 
d="M320 672q-32 0 -59 12t-46.5 32.5t-31 47.5t-11.5 56q0 30 11.5 57.5t31 48.5t46.5 33.5t59 12.5q31 0 58.5 -12.5t47 -33.5t31 -48.5t11.5 -57.5q0 -29 -11.5 -56t-31 -47.5t-47 -32.5t-58.5 -12zM148 -324q34 37 64.5 78t54.5 83t41 82t24 75q-11 10 -27.5 21.5
t-35.5 21.5t-39 17.5t-38 11.5q-8 14 -11 33t-3 33q0 24 9.5 50t27.5 48t45.5 36t63.5 14q28 0 55.5 -10.5t49.5 -33.5t35.5 -59.5t13.5 -88.5q0 -48 -15 -103t-47.5 -113.5t-83.5 -119t-122 -120.5z" />
    <glyph glyph-name="equal" unicode="=" horiz-adv-x="1312" 
d="M1133 454v-135h-973v135h973zM1133 864v-135h-973v135h973z" />
    <glyph glyph-name="bracketleft" unicode="[" horiz-adv-x="838" 
d="M256 1552h514v-135h-379v-1640h379v-135h-514v1910z" />
    <glyph glyph-name="asciitilde" unicode="~" horiz-adv-x="1297" 
d="M825 480q37 0 70 22t57 65.5t37 108t10 148.5h135q6 -135 -25.5 -225.5t-83 -144.5t-114.5 -77t-119 -23q-55 0 -98 25.5t-79.5 63.5t-68 83t-63.5 83t-66 63.5t-75 25.5q-37 0 -70 -23t-57 -66.5t-36.5 -108t-9.5 -146.5h-135q-4 88 9 157.5t38 121.5t59.5 88.5t72.5 59
t77.5 33t74.5 10.5q60 0 106 -25.5t83 -63.5t68.5 -83t62.5 -83t64.5 -63.5t75.5 -25.5z" />
    <glyph glyph-name="eacute" unicode="&#xe9;" 
d="M993 90q-38 -27 -87.5 -47.5t-102.5 -34.5t-106.5 -21t-99.5 -7q-102 0 -194 34t-161 100t-110 163.5t-41 224.5q0 131 43.5 238t116.5 182.5t168.5 116.5t200.5 41q85 0 158.5 -28.5t128 -85.5t85.5 -142.5t31 -199.5q0 -23 -2 -55t-8 -67h-724q0 -86 30.5 -153.5
t86 -114t132.5 -70.5t170 -24q23 0 56 2t71 8t79 17.5t79 30.5v-108zM843 620q0 75 -21 132.5t-57 96.5t-83.5 59t-101.5 20q-60 0 -113 -24.5t-92.5 -66.5t-62.5 -98t-23 -119h554zM488 1222l108 170.5t94 169.5l196 -34q-62 -95 -132.5 -179.5t-151.5 -156.5z" />
    <glyph glyph-name="quoteleft" unicode="&#x2018;" horiz-adv-x="588" 
d="M460 1516q-37 -42 -63 -83t-43 -81t-26.5 -79.5t-13.5 -78.5q21 -21 46 -35t58 -23q15 -27 19.5 -49t4.5 -39q0 -31 -12.5 -59t-33.5 -49t-49.5 -33.5t-60.5 -12.5q-26 0 -54 10.5t-51 33.5t-38 60t-15 90q0 47 12.5 105t42.5 121t79.5 128t123.5 126z" />
    <glyph glyph-name="quotedblbase" unicode="&#x201e;" horiz-adv-x="1098" 
d="M70 -324q34 37 64.5 78t54.5 83t41 82t24 75q-11 10 -27.5 21.5t-35.5 21.5t-39 17.5t-38 11.5q-8 14 -11 33t-3 33q0 24 9.5 50t27.5 48t45.5 36t63.5 14q28 0 55.5 -10.5t49.5 -33.5t35.5 -59.5t13.5 -88.5q0 -48 -15 -103t-47.5 -113.5t-83.5 -119t-122 -120.5z
M502 -324q34 37 64.5 78t54.5 83t41 82t24 75q-11 10 -27.5 21.5t-35.5 21.5t-39 17.5t-38 11.5q-8 14 -11 33t-3 33q0 24 9.5 50t27.5 48t45.5 36t63.5 14q28 0 55.5 -10.5t49.5 -33.5t35.5 -59.5t13.5 -88.5q0 -48 -15 -103t-47.5 -113.5t-83.5 -119t-122 -120.5z" />
    <glyph glyph-name="trademark" unicode="&#x2122;" horiz-adv-x="1730" 
d="M264 800q1 46 2.5 95t2 97l1 93t0.5 85q0 71 -1 140t-3 140q-32 -1 -61 -1.5t-57.5 -2l-56.5 -3t-59 -3.5l18 110q81 -3 162 -3.5t150 -0.5q72 0 150 0.5t166 3.5l-16 -110q-54 5 -110 7.5t-112 2.5q-3 -71 -3.5 -141.5t-0.5 -138.5q0 -40 0.5 -85l1 -93l1 -97t1.5 -95
h-176zM732 798q15 103 28.5 206.5t25.5 207.5l36 334l180 6l128 -328q8 -20 17.5 -46.5t18.5 -55t17 -56.5t13 -52h8q7 24 16 52l18.5 56.5t19.5 55l18 46.5l124 322l182 6l82 -752h-192q-2 98 -6 200t-10 200q-1 16 -2 39.5t-2.5 49t-2 49.5t0.5 42h-10q-9 -44 -23 -91.5
t-31 -92.5l-140 -390l-132 -8l-134 372q-10 26 -19.5 56l-18.5 59l-16.5 55t-11.5 46h-8q0 -17 -1 -45t-2.5 -58.5t-2.5 -60t-2 -50.5l-22 -372z" />
    <glyph glyph-name="greater" unicode="&#x3e;" horiz-adv-x="1055" 
d="M989 554l-813 -484v156l633 376l-633 376v156l813 -484v-96z" />
    <glyph glyph-name="ellipsis" unicode="&#x2026;" horiz-adv-x="1726" 
d="M308 -20q-32 0 -59 12t-46.5 32.5t-31 47.5t-11.5 56q0 30 11.5 57.5t31 48.5t46.5 33.5t59 12.5q31 0 58.5 -12.5t47 -33.5t31 -48.5t11.5 -57.5q0 -29 -11.5 -56t-31 -47.5t-47 -32.5t-58.5 -12zM854 -20q-32 0 -59 12t-46.5 32.5t-31 47.5t-11.5 56q0 30 11.5 57.5
t31 48.5t46.5 33.5t59 12.5q31 0 58.5 -12.5t47 -33.5t31 -48.5t11.5 -57.5q0 -29 -11.5 -56t-31 -47.5t-47 -32.5t-58.5 -12zM1400 -20q-32 0 -59 12t-46.5 32.5t-31 47.5t-11.5 56q0 30 11.5 57.5t31 48.5t46.5 33.5t59 12.5q31 0 58.5 -12.5t47 -33.5t31 -48.5
t11.5 -57.5q0 -29 -11.5 -56t-31 -47.5t-47 -32.5t-58.5 -12z" />
    <glyph glyph-name="c" unicode="c" horiz-adv-x="1038" 
d="M918 90q-62 -48 -147.5 -79t-186.5 -31q-108 0 -195.5 37.5t-149.5 104.5t-95.5 160.5t-33.5 204.5q0 129 44 238t120.5 188t180.5 123t223 44q28 0 60.5 -2.5t64.5 -8.5t62 -14.5t53 -20.5l-40 -166l-22 -10q-20 15 -45.5 28t-54 22t-59 14.5t-59.5 5.5
q-67 0 -126.5 -26.5t-104.5 -77t-71 -124t-26 -167.5q0 -96 27.5 -169t75.5 -123t114 -75.5t143 -25.5q46 0 111 11.5t137 46.5v-108z" />
    <glyph glyph-name="h" unicode="h" horiz-adv-x="1258" 
d="M176 1602h190v-714q36 32 80 66t95 62t107 46t116 18q72 0 130.5 -27.5t100.5 -77t64.5 -119t22.5 -154.5v-702h-190v686q0 58 -16.5 102t-45 73.5t-68.5 44t-86 14.5q-84 0 -159 -44t-151 -116v-760h-190v1602z" />
    <glyph glyph-name="i" unicode="i" horiz-adv-x="544" 
d="M175 1060h190v-1060h-190v1060zM271 1290q-25 0 -47 9t-38 25t-25 37.5t-9 47.5t10 49t26.5 40t39 26.5t47.5 9.5q24 0 45.5 -9.5t37.5 -26.5t25 -39.5t9 -47.5q0 -27 -10 -49.5t-26.5 -38t-38.5 -24.5t-46 -9z" />
    <glyph glyph-name="j" unicode="j" horiz-adv-x="542" 
d="M-57 -478q73 58 118.5 125.5t71 138.5t34 143.5t8.5 140.5v990h190v-952q0 -92 -19 -186.5t-62.5 -182.5t-115 -164.5t-175.5 -132.5zM270 1290q-25 0 -47 9t-38 25t-25 37.5t-9 47.5t10 49t26.5 40t39 26.5t47.5 9.5q24 0 45.5 -9.5t37.5 -26.5t25 -39.5t9 -47.5
q0 -27 -10 -49.5t-26.5 -38t-38.5 -24.5t-46 -9z" />
    <glyph glyph-name="l" unicode="l" horiz-adv-x="542" 
d="M176 1602h190v-1602h-190v1602z" />
    <glyph glyph-name="m" unicode="m" horiz-adv-x="1924" 
d="M176 1060h148l30 -184q34 32 78.5 68t95 66t105 50t109.5 20q45 0 89 -15t81.5 -42t67 -65.5t46.5 -85.5l81 69.5t93.5 67.5t105.5 51t118 20q73 0 131.5 -28.5t99.5 -79.5t63 -120.5t22 -151.5v-700h-190v684q0 54 -14.5 97.5t-41.5 74.5t-65.5 47.5t-86.5 16.5
q-41 0 -77.5 -12t-72 -33.5t-71 -51.5t-72.5 -65q2 -14 2.5 -27.5t0.5 -30.5v-700h-190v684q0 54 -15 97.5t-42.5 74.5t-66.5 47.5t-86 16.5q-40 0 -76 -12t-70.5 -33.5t-69 -51t-70.5 -63.5v-760h-190v1060z" />
    <glyph glyph-name="p" unicode="p" horiz-adv-x="1280" 
d="M366 180q28 -14 59.5 -23t63 -14.5t60.5 -8t50 -2.5q82 0 150.5 31t117.5 86t76 129.5t27 161.5q0 77 -21.5 146t-61 121t-95 82.5t-122.5 30.5q-83 0 -159.5 -44.5t-144.5 -115.5v-580zM354 876q35 34 77.5 70t92.5 66t108 49t124 19q97 0 173.5 -42.5t130 -113t82 -162
t28.5 -189.5q0 -129 -47.5 -238t-128.5 -188t-189.5 -123t-230.5 -44q-50 0 -107 7t-101 19v-542h-190v1596h144z" />
    <glyph glyph-name="q" unicode="q" horiz-adv-x="1280" 
d="M700 1080q45 0 86 -5.5t75.5 -14t61 -19.5t43.5 -21l138 60v-1616h-190v708q-46 -41 -92.5 -76.5t-95.5 -61t-100.5 -40t-106.5 -14.5q-96 0 -171.5 42.5t-128.5 113t-81 161.5t-28 188q0 123 44 231.5t122 189t186.5 127.5t237.5 47zM914 872q-62 27 -122.5 41.5
t-117.5 14.5q-91 0 -159 -35t-113.5 -91.5t-68.5 -128.5t-23 -147q0 -71 19 -140.5t56 -124t91.5 -88t125.5 -33.5q78 0 157.5 42t154.5 120v570z" />
    <glyph glyph-name="u" unicode="u" horiz-adv-x="1224" 
d="M172 1060h190v-672q0 -55 15.5 -100.5t43 -78.5t66 -51t85.5 -18q41 0 80.5 14t76 36.5t69 52t60.5 61.5v756h190v-1060h-148l-32 182l-79 -69.5t-89.5 -65t-100.5 -48.5t-111 -19q-68 0 -125.5 27t-100 76.5t-66.5 119t-24 153.5v704z" />
    <glyph glyph-name="z" unicode="z" horiz-adv-x="1058" 
d="M114 76l478 692l98 128v20l-190 -8h-363l40 152h751v-76l-472 -678l-108 -142v-20l176 8h434l-40 -152h-804v76z" />
    <glyph glyph-name="period" unicode="." horiz-adv-x="616" 
d="M308 -20q-32 0 -59 12t-46.5 32.5t-31 47.5t-11.5 56q0 30 11.5 57.5t31 48.5t46.5 33.5t59 12.5q31 0 58.5 -12.5t47 -33.5t31 -48.5t11.5 -57.5q0 -29 -11.5 -56t-31 -47.5t-47 -32.5t-58.5 -12z" />
    <glyph glyph-name="section" unicode="&#xa7;" horiz-adv-x="1272" 
d="M805 298q27 14 53 35.5t47 48.5t34 59t13 68q0 55 -31 93t-82 66t-115.5 50.5l-132.5 46t-132.5 52t-115.5 68.5t-82 96t-31 135q0 81 35 149t99.5 116.5t157 76t208.5 27.5q63 0 149.5 -10t176.5 -38l-37 -165l-22 -12q-79 38 -160.5 55t-156.5 17q-130 0 -200.5 -47
t-70.5 -131q0 -57 31.5 -97t82.5 -70.5t116.5 -54.5l134 -48t134 -51.5t116.5 -65t82.5 -88.5t31.5 -122q0 -54 -18.5 -102t-50 -88.5t-72.5 -74.5t-86 -60zM225 -137l19 11q43 -24 96 -44t109 -34t111 -22t102 -8q120 0 185 48.5t65 127.5q0 56 -31 95.5t-82 69
t-115.5 53.5l-132.5 48t-132.5 51.5t-115.5 65.5t-82 89t-31 123q0 52 17 96t47.5 82.5t73 72.5t93.5 66l123 -65q-28 -12 -58.5 -31.5t-56.5 -45.5t-43 -59t-17 -72q0 -53 31.5 -90.5t82.5 -65.5t116.5 -51l134 -47t134 -52.5t116.5 -68.5t82.5 -94t31.5 -129
q0 -76 -33.5 -143t-95.5 -117.5t-150 -80t-197 -29.5q-48 0 -105 6t-115.5 16.5t-114 26t-99.5 33.5z" />
    <glyph glyph-name="degree" unicode="&#xb0;" horiz-adv-x="720" 
d="M6 1233q0 88 31.5 160t85 123t125 78.5t152.5 27.5t151 -27.5t121.5 -78.5t81.5 -123t30 -160t-31.5 -160t-85 -123t-125 -78.5t-152.5 -27.5t-151 27.5t-121.5 78.5t-81.5 123t-30 160zM155 1233q0 -50 18 -96t50 -81t77 -56t99 -21t97.5 21t73.5 56t46.5 81t16.5 96
t-18 96t-50 81t-77 56t-99 21t-97.5 -21t-73.5 -56t-46.5 -81t-16.5 -96z" />
    <glyph glyph-name="quoteright" unicode="&#x2019;" horiz-adv-x="588" 
d="M128 948q73 84 106.5 163t39.5 159q-21 20 -45.5 34t-56.5 22q-17 29 -21.5 52t-4.5 38q0 31 12.5 58.5t34 48.5t50.5 33t61 12q25 0 53 -10t50.5 -32.5t37.5 -59.5t15 -90q0 -47 -12.5 -105.5t-42 -121.5t-79 -128.5t-122.5 -126.5z" />
    <glyph glyph-name="f" unicode="f" horiz-adv-x="857" 
d="M269 908h-214l16 108l202 44v52q0 103 30.5 196t89.5 162.5t144 110.5t195 41q41 0 86 -6t87 -20l-38 -154l-20 -10q-33 17 -71.5 27.5t-82.5 10.5q-63 0 -107.5 -24.5t-72.5 -66.5t-41 -99t-13 -122v-98h362l-40 -152h-322v-908h-190v908z" />
    <glyph glyph-name="k" unicode="k" horiz-adv-x="1159" 
d="M176 1602h190v-1602h-190v1602zM868 0l-434 566l428 494h206l-436 -479l472 -581h-236z" />
    <glyph glyph-name="v" unicode="v" horiz-adv-x="1110" 
d="M60 1060h214l236 -734l44 -174h20l42 174l238 734h196l-398 -1060h-196z" />
    <glyph glyph-name="w" unicode="w" horiz-adv-x="1751" 
d="M280 1060l194 -742l30 -168h20l34 166l212 712h217l210 -710l36 -168h20l32 166l196 744h192l-336 -1060h-209l-202 656l-46 184h-20l-46 -184l-206 -656h-208l-330 1060h210z" />
    <glyph glyph-name="x" unicode="x" horiz-adv-x="1114" 
d="M40 0l400 549l-367 511h222l168 -262l78 -146h20l84 146l180 262h196l-379 -502l412 -558h-222l-200 298l-85 154h-20l-85 -150l-206 -302h-196z" />
    <glyph glyph-name="quotedbl" unicode="&#x22;" horiz-adv-x="904" 
d="M70 889q34 37 64.5 78t54.5 83t41 82t24 75q-11 10 -27.5 21.5t-35.5 21.5t-39 17.5t-38 11.5q-8 14 -11 33t-3 33q0 24 9.5 50t27.5 48t45.5 36t63.5 14q28 0 55.5 -10.5t49.5 -33.5t35.5 -59.5t13.5 -88.5q0 -48 -15 -103t-47.5 -113.5t-83.5 -119t-122 -120.5z
M502 889q34 37 64.5 78t54.5 83t41 82t24 75q-11 10 -27.5 21.5t-35.5 21.5t-39 17.5t-38 11.5q-8 14 -11 33t-3 33q0 24 9.5 50t27.5 48t45.5 36t63.5 14q28 0 55.5 -10.5t49.5 -33.5t35.5 -59.5t13.5 -88.5q0 -48 -15 -103t-47.5 -113.5t-83.5 -119t-122 -120.5z" />
    <glyph glyph-name="question" unicode="?" horiz-adv-x="913" 
d="M446 1331q-27 0 -62 -5.5t-75.5 -19.5t-86 -37t-91.5 -59l-16 8l-42 156q109 58 210.5 84.5t204.5 26.5q92 0 160 -19.5t112.5 -55t66.5 -85t22 -109.5q0 -73 -28.5 -128.5t-71.5 -103t-92.5 -91.5t-92.5 -92.5t-71.5 -106.5t-28.5 -134q0 -12 0.5 -27.5t2.5 -27.5h-144
q-5 23 -7.5 43t-2.5 45q0 76 25 136t62.5 108.5t81.5 90l81.5 80t62.5 78.5t25 86q0 37 -16.5 66.5t-44.5 50t-65.5 31.5t-78.5 11zM398 -20q-31 0 -58 12t-46.5 32.5t-31 47.5t-11.5 56t11.5 56t31 47.5t46.5 33t58 12.5t58 -12.5t46.5 -33t30.5 -47.5t11 -56t-11 -56
t-30.5 -47.5t-46.5 -32.5t-58 -12z" />
    <glyph glyph-name="A" unicode="A" horiz-adv-x="1457" 
d="M1033 398h-632l-137 -398h-185l545 1465h208l546 -1465h-206zM978 551l-194 572l-57 204h-20l-57 -204l-196 -572h524z" />
    <glyph glyph-name="B" unicode="B" horiz-adv-x="1297" 
d="M877 808q61 -17 115.5 -48t95.5 -73.5t65.5 -97t24.5 -118.5q0 -51 -16.5 -106t-49.5 -107.5t-82 -99t-114 -82t-145.5 -56t-176.5 -20.5h-376v1465h412q121 0 211 -28t150 -73t90 -102t30 -116q0 -50 -20 -98.5t-52.5 -92t-74.5 -81t-87 -66.5zM414 155h202
q100 0 168 25.5t110 66t60 91t18 101.5q0 64 -25.5 110.5t-72.5 77t-113 45.5t-147 15h-200v-532zM758 842q72 50 114.5 112t42.5 137q0 101 -82 160t-237 59h-182v-468h344z" />
    <glyph glyph-name="C" unicode="C" horiz-adv-x="1443" 
d="M1325 141q-56 -49 -122 -80.5t-133 -49.5t-128.5 -24.5t-108.5 -6.5q-145 0 -270 51.5t-217.5 145.5t-145 226.5t-52.5 295.5q0 122 30 228t84 193t128 155t163 114.5t189 71t205 24.5q69 0 166 -12.5t208 -45.5l-34 -174l-20 -10q-110 50 -204.5 68.5t-160.5 18.5
q-120 0 -221 -46.5t-174 -127t-114 -187.5t-41 -228q0 -116 36.5 -224.5t107.5 -192t175 -134t239 -50.5q39 0 86 5t100 18.5t111 36t118 58.5v-117z" />
    <glyph glyph-name="D" unicode="D" horiz-adv-x="1643" 
d="M218 1465h495q194 0 340.5 -53.5t244.5 -145.5t147.5 -217t49.5 -267q0 -92 -21 -185.5t-64.5 -180.5t-109.5 -163t-156.5 -132t-206 -88.5t-256.5 -32.5h-463v1465zM414 155h303q145 0 253 46.5t178.5 126t105.5 186t35 227.5q0 132 -40.5 237.5t-118 179t-191 113
t-258.5 39.5h-267v-1155z" />
    <glyph glyph-name="E" unicode="E" horiz-adv-x="1224" 
d="M218 0v1465h859l-30 -155h-633v-468h564l-30 -155h-534v-532h679l-30 -155h-845z" />
    <glyph glyph-name="F" unicode="F" horiz-adv-x="1176" 
d="M218 0v1465h859l-30 -155h-633v-468h564l-30 -155h-534v-687h-196z" />
    <glyph glyph-name="G" unicode="G" horiz-adv-x="1582" 
d="M1374 75q-139 -54 -262 -74.5t-222 -20.5q-167 0 -304 50.5t-234.5 144t-150.5 226t-53 295.5q0 123 30 229.5t84 194t129.5 155.5t166 114.5t193.5 71t213 24.5q72 0 169 -12.5t207 -45.5l-33 -172l-20 -10q-110 50 -204 67.5t-161 17.5q-128 0 -233 -46.5t-180 -127
t-116 -189t-41 -231.5q0 -117 38 -225.5t110.5 -192t178.5 -133.5t243 -50q60 0 130.5 11t145.5 34v506h176v-611z" />
    <glyph glyph-name="H" unicode="H" horiz-adv-x="1616" 
d="M218 0v1465h196v-623h788v623h196v-1465h-196v687h-788v-687h-196z" />
    <glyph glyph-name="I" unicode="I" horiz-adv-x="632" 
d="M414 0h-196v1465h196v-1465z" />
    <glyph glyph-name="J" unicode="J" horiz-adv-x="630" 
d="M-63 -359q95 61 150.5 127t84 139t36.5 154t8 171v1233h196v-1170q0 -117 -16 -225t-60.5 -204.5t-124.5 -179t-209 -147.5z" />
    <glyph glyph-name="K" unicode="K" horiz-adv-x="1461" 
d="M414 0h-196v1465h196v-1465zM1141 0l-634 740l604 725h220l-630 -700l690 -765h-250z" />
    <glyph glyph-name="L" unicode="L" 
d="M218 0v1465h196v-1310h606l-30 -155h-772z" />
    <glyph glyph-name="M" unicode="M" horiz-adv-x="2006" 
d="M173 0l111 1465h294l362 -1023l56 -191h20l55 191l363 1023h295l111 -1465h-193l-78 1150l-8 210h-19l-58 -200l-396 -1130h-177l-400 1128l-60 202h-19l-6 -208l-78 -1152h-175z" />
    <glyph glyph-name="N" unicode="N" horiz-adv-x="1677" 
d="M208 0v1465h285l691 -1000l100 -180h20l-14 204v976h179v-1465h-166l-820 1180l-90 174h-20l14 -204v-1150h-179z" />
    <glyph glyph-name="O" unicode="O" horiz-adv-x="1762" 
d="M888 135q115 0 210.5 46t164.5 126.5t107 188.5t38 233q0 131 -41.5 241.5t-114 190.5t-170 124.5t-209.5 44.5q-117 0 -212.5 -47.5t-163.5 -128.5t-105.5 -189.5t-37.5 -231.5q0 -131 41 -240.5t113 -189t169.5 -124t210.5 -44.5zM854 -20q-140 0 -268 50t-225.5 143
t-155 225.5t-57.5 297.5q0 114 28.5 216.5t79.5 190t121.5 158.5t155.5 120.5t180.5 76.5t197.5 27q91 0 178.5 -22t166 -64t144 -104t113.5 -141t74.5 -175.5t26.5 -208.5q0 -113 -27.5 -216t-78 -190.5t-120 -158.5t-154 -121t-181 -77t-199.5 -27z" />
    <glyph glyph-name="P" unicode="P" horiz-adv-x="1261" 
d="M414 0h-196v1465h400q116 0 215.5 -29.5t173 -86.5t115.5 -141.5t42 -195.5q0 -79 -21 -146.5t-58.5 -122.5t-87.5 -97.5t-108 -71.5t-121 -44t-126 -15q-12 0 -26 0.5t-34 3.5l14 150q18 -3 31 -3.5t26 -0.5q64 0 120.5 19.5t99 59.5t67 100.5t24.5 143.5
q0 85 -26.5 146t-76 100t-121 57.5t-160.5 18.5h-166v-1310z" />
    <glyph glyph-name="Q" unicode="Q" horiz-adv-x="1746" 
d="M843 -20q-96 0 -184.5 24t-165.5 69.5t-140.5 109.5t-109 144.5t-70.5 174.5t-25 199q0 112 28.5 214t79.5 189t121.5 157.5t155.5 120t180.5 76.5t197.5 27q91 0 178.5 -22t166 -64t144 -104t113.5 -141t74.5 -175t26.5 -207q0 -140 -41.5 -262t-113 -219t-167.5 -167
t-205 -107l814 -301l-117 -155zM887 135q115 0 211 46.5t165 126.5t107 188.5t38 233.5q0 131 -41.5 241t-114 190t-170.5 124.5t-210 44.5q-116 0 -211.5 -47t-163.5 -128.5t-105.5 -190t-37.5 -231.5q0 -131 41 -240.5t113 -189t169.5 -124t209.5 -44.5z" />
    <glyph glyph-name="R" unicode="R" horiz-adv-x="1325" 
d="M414 584v-584h-196v1465h414q108 0 198 -30t154 -82.5t99.5 -123.5t35.5 -153q0 -72 -26 -134.5t-68 -115t-95.5 -94.5t-107.5 -73l431 -659h-235l-335 584h-269zM414 739h325q42 23 75.5 56t56.5 72.5t35.5 83.5t12.5 90q0 57 -20 106.5t-60.5 85.5t-101.5 56.5
t-143 20.5h-180v-571z" />
    <glyph glyph-name="S" unicode="S" horiz-adv-x="1249" 
d="M607 135q66 0 122 17.5t96 50t62.5 77.5t22.5 100q0 65 -30.5 110t-80 79t-113.5 60.5l-130 54t-130 59.5t-113.5 78t-80 108.5t-30.5 151.5q0 94 36 169t100.5 127.5t153 80t194.5 27.5q65 0 163 -12.5t208 -45.5l-33 -174l-20 -10q-55 25 -107 42t-98 27t-85 14t-68 4
q-59 0 -106.5 -14.5t-81 -42t-52 -67t-18.5 -89.5q0 -67 30.5 -114t81 -83t114.5 -64l130.5 -56t130.5 -60t114.5 -74.5t81 -100.5t30.5 -139q0 -89 -38.5 -169.5t-108 -142t-167 -98t-215.5 -36.5q-50 0 -104.5 7t-109.5 19.5t-108.5 30.5t-101.5 40l34 175l20 10
q102 -59 206.5 -93t198.5 -34z" />
    <glyph glyph-name="T" unicode="T" horiz-adv-x="1291" 
d="M735 0h-196v1310h-486l30 155h1158l-30 -155h-476v-1310z" />
    <glyph glyph-name="U" unicode="U" horiz-adv-x="1540" 
d="M404 1465v-910q0 -109 36 -188.5t93.5 -131t128.5 -76t142 -24.5q72 0 137 25.5t113.5 76t77.5 126t29 176.5v926h180v-924q0 -61 -15 -126.5t-45.5 -127.5t-77.5 -118t-111 -98t-146 -66.5t-183 -24.5q-123 0 -225 38.5t-175.5 112t-114 181t-40.5 244.5v909h196z" />
    <glyph glyph-name="V" unicode="V" horiz-adv-x="1458" 
d="M1188 1465h200l-550 -1465h-216l-549 1465h216l382 -1122l58 -204h19l58 204z" />
    <glyph glyph-name="W" unicode="W" horiz-adv-x="2170" 
d="M1206 1358l293 -1015l48 -204h19l48 204l285 1122h192l-423 -1465h-228l-282 925l-57 245h-20l-57 -245l-283 -925h-226l-426 1465h208l287 -1122l42 -204h19l50 204l293 1015h218z" />
    <glyph glyph-name="X" unicode="X" horiz-adv-x="1422" 
d="M69 0l547 740l-501 725h228l279 -443l89 -165h20l97 163l297 445h200l-514 -712l531 -753h-227l-305 465l-92 158h-20l-98 -154l-331 -469h-200z" />
    <glyph glyph-name="Y" unicode="Y" horiz-adv-x="1350" 
d="M760 642v-642h-196v640l-485 825h224l281 -528l89 -196h20l95 194l287 530h196z" />
    <glyph glyph-name="Z" unicode="Z" horiz-adv-x="1303" 
d="M917 1298v19l-189 -7h-582l30 155h962v-85l-701 -1087l-97 -126v-20l188 8h673l-30 -155h-1058v77l707 1094z" />
    <glyph glyph-name="b" unicode="b" horiz-adv-x="1280" 
d="M176 1602h190v-714q46 42 91 77t92.5 60.5t97.5 40t106 14.5q98 0 175.5 -42.5t131 -113.5t82 -163.5t28.5 -192.5q0 -122 -42 -229t-123 -186.5t-198.5 -126t-267.5 -46.5q-79 0 -172.5 15t-190.5 51v1556zM366 184q60 -27 120.5 -39.5t113.5 -12.5q92 0 161.5 33
t116 88.5t69.5 127.5t23 151q0 73 -19.5 142.5t-57.5 124t-93 88t-127 33.5q-64 0 -140.5 -34t-166.5 -124v-578z" />
    <glyph glyph-name="n" unicode="n" horiz-adv-x="1258" 
d="M176 1060h148l30 -184q35 33 80 69t97.5 66t111.5 49.5t121 19.5q73 0 131.5 -28t100 -78.5t64 -120t22.5 -151.5v-702h-190v684q0 58 -16.5 102.5t-45.5 74t-69 44.5t-87 15q-83 0 -157 -44t-151 -116v-760h-190v1060z" />
    <glyph glyph-name="d" unicode="d" horiz-adv-x="1280" 
d="M914 878q-74 32 -133 41t-97 9q-89 0 -158.5 -29.5t-117.5 -82.5t-73 -127t-25 -163q0 -78 21 -148t60 -123t94 -84t123 -31q81 0 157.5 43.5t148.5 118.5v576zM914 1602h190v-1602h-148l-30 184q-34 -32 -76 -67.5t-93 -66t-110.5 -50.5t-126.5 -20q-96 0 -172 42.5
t-129 113t-81 161.5t-28 189q0 129 46.5 238t127.5 188t190 123.5t234 44.5q60 0 112.5 -8.5t93.5 -17.5v548z" />
    <glyph glyph-name="g" unicode="g" horiz-adv-x="1235" 
d="M454 -60q-26 -13 -55.5 -32t-54.5 -42.5t-42 -52t-17 -59.5q0 -32 19.5 -60.5t57 -49.5t92.5 -33.5t126 -12.5q81 0 145 16t108 44t67 64.5t23 77.5q0 37 -18 63.5t-48.5 43.5t-71 25t-84.5 8h-247zM317 -40q-31 10 -58 25t-47 33.5t-31.5 42t-11.5 50.5q0 33 16.5 62.5
t43 57t60 52t68.5 47.5q-111 54 -162.5 142t-51.5 191q0 64 18.5 120t51.5 102.5t77 82.5t95 61t106.5 38t110.5 13q66 0 128 -17t104 -44q16 9 39.5 17t49.5 13t52.5 8t49.5 3h180l-40 -150h-236q7 -4 20.5 -22.5t27 -48t24 -68.5t10.5 -83q0 -81 -38.5 -152.5t-101 -124.5
t-143 -84t-164.5 -31q-22 0 -44 2t-47 5q-18 -11 -38.5 -25t-37 -30.5t-27.5 -35t-11 -38.5q0 -32 29.5 -52t80.5 -20h283q72 0 136 -18.5t111.5 -53t75.5 -82.5t28 -106q0 -68 -39 -138.5t-113 -128.5t-181.5 -94.5t-245.5 -36.5q-91 0 -169.5 17t-136 48t-90.5 75t-33 98
q0 33 12.5 64t32 58t44 51t49 43.5t47 35zM323 694q0 -54 19 -101t52.5 -81.5t80.5 -54t103 -19.5q53 0 99 18t80.5 50t54 77.5t19.5 101.5q0 54 -19 100.5t-53 80t-81 53t-103 19.5q-53 0 -98.5 -17.5t-80 -49t-54 -77t-19.5 -100.5z" />
    <glyph glyph-name="r" unicode="r" horiz-adv-x="876" 
d="M176 1060h148l30 -318l27.5 51.5l29 51.5l28.5 47l25 38q22 31 49.5 58.5t59.5 48t68 32t77 11.5q29 0 55 -6.5t43 -21.5l-20 -178q-18 5 -35.5 6.5t-34.5 1.5q-71 0 -123.5 -23t-94 -62.5t-75 -92.5t-67.5 -114v-590h-190v1060z" />
    <glyph glyph-name="e" unicode="e" horiz-adv-x="1162" 
d="M1012 90q-38 -27 -87.5 -47.5t-102.5 -34.5t-106.5 -21t-99.5 -7q-102 0 -194 34t-161 100t-110 163.5t-41 224.5q0 131 43.5 238t116.5 182.5t168.5 116.5t200.5 41q85 0 158.5 -28.5t128 -85.5t85.5 -142.5t31 -199.5q0 -23 -2 -55t-8 -67h-724q0 -86 30.5 -153.5
t86 -114t132.5 -70.5t170 -24q23 0 56 2t71 8t79 17.5t79 30.5v-108zM862 620q0 75 -21 132.5t-57 96.5t-83.5 59t-101.5 20q-60 0 -113 -24.5t-92.5 -66.5t-62.5 -98t-23 -119h554z" />
    <glyph glyph-name="o" unicode="o" horiz-adv-x="1284" 
d="M606 -20q-118 0 -210 42t-155.5 113t-97 165.5t-33.5 199.5q0 120 42.5 225.5t118 184.5t179.5 124.5t226 45.5q119 0 212 -42.5t156.5 -114.5t96.5 -166.5t33 -198.5q0 -121 -43 -226.5t-119 -183.5t-180 -123t-226 -45zM648 132q73 0 132.5 29.5t102 80.5t66 120.5
t23.5 149.5q0 79 -23 153.5t-66.5 133t-106.5 94t-142 35.5q-73 0 -132.5 -29.5t-102 -81t-66 -121.5t-23.5 -150q0 -79 23 -153.5t66.5 -132.5t106 -93t142.5 -35z" />
    <glyph glyph-name="a" unicode="a" horiz-adv-x="1149" 
d="M748 158l-60.5 -51.5t-80 -58.5t-97 -48t-111.5 -20q-53 0 -103.5 18.5t-89.5 55t-62.5 90.5t-23.5 124q0 43 10.5 87t35.5 84.5t65.5 76t100 62t140.5 41.5t186 15h90v92q0 46 -16 83t-44.5 63.5t-68 41t-87.5 14.5q-36 0 -76.5 -8t-81 -23t-77.5 -35t-65 -44l-18 10
l-40 146q58 32 112 52.5t103.5 32.5t94.5 16.5t86 4.5q187 0 277.5 -77.5t90.5 -232.5v-522q0 -13 2 -31.5t9.5 -35.5t22 -29t39.5 -12q14 0 37 4.5t46 15.5v-106q-48 -33 -96.5 -53.5t-93.5 -20.5q-41 0 -67.5 16.5t-44 42.5t-27.5 57.5t-17 61.5zM748 518h-76
q-117 0 -186.5 -16.5t-106 -44t-48 -63.5t-11.5 -75q0 -42 12 -75t33.5 -56.5t51.5 -35.5t65 -12q27 0 55.5 6.5t61 23t69 44.5t80.5 72v232z" />
    <glyph glyph-name="y" unicode="y" 
d="M60 1060h214l232 -716l48 -194h20l48 194l232 716h196l-596 -1596h-184l222 536h-36z" />
    <glyph glyph-name="bar" unicode="|" horiz-adv-x="598" 
d="M229 1602h135v-2138h-135v2138z" />
    <glyph glyph-name="percent" unicode="%" horiz-adv-x="1894" 
d="M1337 1464h179l-948 -1464h-177zM460 686q-84 0 -147 30.5t-105 83t-63 121t-21 145.5q0 91 27.5 168t77.5 132.5t119.5 87t153.5 31.5q82 0 145 -30t105.5 -81t64 -119.5t21.5 -145.5q0 -89 -26.5 -166t-76 -134t-119.5 -90t-156 -33zM484 826q38 0 70 17.5t55.5 50.5
t37 80.5t13.5 106.5q0 57 -13 105t-36.5 83.5t-57 55t-75.5 19.5q-37 0 -69 -16.5t-56 -48.5t-37.5 -78.5t-13.5 -107.5q0 -59 13 -108t37 -84t57.5 -55t74.5 -20zM1404 -21q-84 0 -147 30.5t-105 83t-63 121t-21 145.5q0 91 27.5 168t77.5 132.5t119.5 87t153.5 31.5
q82 0 145 -30t105.5 -81t64 -119.5t21.5 -145.5q0 -89 -26.5 -166t-76 -134t-119.5 -90t-156 -33zM1428 119q38 0 70 17.5t55.5 50.5t37 80.5t13.5 106.5q0 57 -13 105t-36.5 83.5t-57 55t-75.5 19.5q-37 0 -69 -16.5t-56 -48.5t-37.5 -78.5t-13.5 -107.5q0 -59 13 -108
t37 -84t57.5 -55t74.5 -20z" />
    <glyph glyph-name="zero" unicode="0" horiz-adv-x="1464" 
d="M1110 723q0 143 -28 256t-78.5 191t-121 119t-156.5 41q-81 0 -149.5 -37.5t-118 -111t-77.5 -182.5t-28 -252t28 -256.5t79 -192.5t122 -121t157 -42q81 0 149.5 38.5t117.5 113t76.5 184t27.5 252.5zM1316 761q0 -116 -21.5 -219t-61 -189.5t-95 -156t-123.5 -117.5
t-147 -73.5t-164 -25.5q-126 0 -228.5 54t-175.5 151t-112.5 230t-39.5 291q0 176 48 319.5t130.5 245.5t193.5 158t238 56q125 0 228 -54t176.5 -150t113.5 -229t40 -291z" />
    <glyph glyph-name="one" unicode="1" horiz-adv-x="946" 
d="M510 0v1194h-420v105q97 0 175.5 11t141.5 32t112 52t88 71h99v-1465h-196z" />
    <glyph glyph-name="two" unicode="2" horiz-adv-x="1223" 
d="M120 65q132 123 234.5 229t179 198.5t129 173t85 151t47 133t14.5 119.5q0 71 -23.5 120t-61.5 79t-86 43.5t-98 13.5q-39 0 -84 -7.5t-90 -20.5t-88 -31t-79 -40v117q87 67 192.5 104.5t209.5 37.5q86 0 161.5 -26.5t131.5 -75.5t88.5 -118.5t32.5 -155.5
q0 -191 -159 -425.5t-472 -528.5h679l-29 -155h-914v65z" />
    <glyph glyph-name="three" unicode="3" horiz-adv-x="1191" 
d="M991 1191q0 -54 -20.5 -101t-60.5 -90t-100.5 -84t-139.5 -84v-10q88 -14 153.5 -46t109.5 -77t66 -100t22 -113q0 -53 -18.5 -109.5t-59.5 -110.5t-106.5 -102t-160 -84.5t-220 -58t-286.5 -21.5v155q166 0 287.5 21.5t201 62t118 98.5t38.5 130q0 49 -16.5 87
t-45.5 65.5t-68.5 46t-84.5 29t-94.5 12.5t-98.5 -2v117q38 13 81 31t85.5 40.5t81 50t68 60t47 69t17.5 78.5q0 45 -21 78t-55.5 54t-80.5 31.5t-95 10.5q-41 0 -87 -7.5t-92.5 -21.5t-90.5 -33.5t-80 -43.5v116q84 66 188.5 108t219.5 42q87 0 160 -24.5t126 -65
t82.5 -93.5t29.5 -111z" />
    <glyph glyph-name="four" unicode="4" horiz-adv-x="1297" 
d="M100 525l591 940h269v-895h247l-39 -153h-208v-417h-188v417h-672v108zM772 570v555l10 229h-20l-107 -202l-358 -582h475z" />
    <glyph glyph-name="five" unicode="5" horiz-adv-x="1110" 
d="M247 1465h691l-26 -155h-523l-38 -345q137 0 246 -30.5t185.5 -85.5t117 -132t40.5 -170q0 -56 -16.5 -118.5t-53 -123t-95 -116t-142 -97.5t-193.5 -67t-251 -25v155q159 0 265.5 29.5t170 79t90.5 113.5t27 132q0 77 -30 133.5t-85.5 93.5t-135.5 55t-180 18h-132z" />
    <glyph glyph-name="six" unicode="6" horiz-adv-x="1313" 
d="M571 794q50 32 101.5 49.5t108.5 17.5q73 0 142 -29.5t123 -81.5t86.5 -124.5t32.5 -157.5q0 -92 -38.5 -179.5t-108 -156t-165.5 -110.5t-210 -42q-123 0 -216 49t-155 130.5t-93 187t-31 218.5q0 103 25.5 210t76.5 207t126 188t173.5 153.5t220.5 103.5t267 38h23
v-155h-14q-134 0 -237.5 -30.5t-180.5 -83t-129.5 -122.5t-85 -149t-46.5 -162t-14 -162q0 -101 21 -186.5t62 -147.5t101 -97t137 -35q64 0 116.5 23.5t90 64.5t58 95.5t20.5 116.5q0 55 -17 104t-50 86.5t-82.5 59.5t-113.5 22t-125 -22v109z" />
    <glyph glyph-name="seven" unicode="7" horiz-adv-x="1067" 
d="M100 1310l26 155h859l-1 -65l-155 -365.5l-144 -349.5l-132.5 -342t-121.5 -343h-201l135 339.5l137.5 327l142.5 321l150 322.5h-695z" />
    <glyph glyph-name="nine" unicode="9" horiz-adv-x="1313" 
d="M742 671q-50 -32 -101.5 -49.5t-108.5 -17.5q-73 0 -142 29.5t-123 81.5t-86.5 124t-32.5 158q0 61 17.5 121t50 114t79 100.5t104.5 80.5t126.5 53t144.5 19q123 0 216 -49t155 -130.5t93 -187t31 -218.5q0 -103 -25.5 -210t-76.5 -207t-126 -188t-173.5 -153.5
t-221 -103.5t-266.5 -38h-23v155h14q134 0 237.5 30.5t180.5 83t129.5 122.5t85 149t46.5 162t14 162q0 101 -21 186.5t-62 147.5t-101 97t-137 35q-64 0 -116.5 -23.5t-90 -64.5t-58 -95.5t-20.5 -116.5q0 -55 17 -104t50 -86.5t82 -59.5t114 -22q64 0 125 22v-109z" />
    <glyph glyph-name="eight" unicode="8" horiz-adv-x="1333" 
d="M511 761q-46 25 -94.5 59.5t-88 78t-64.5 96.5t-25 116q0 76 37 144t100.5 119t147.5 81t179 30q94 0 170.5 -29t130.5 -76t83 -106.5t29 -120.5q0 -60 -26.5 -112t-69 -97t-96.5 -83t-108 -68q73 -37 136 -76t110 -85t74 -100t27 -121q0 -77 -36 -154t-104.5 -138.5
t-166.5 -100t-221 -38.5q-118 0 -205.5 35t-145 89t-86 120t-28.5 128q0 66 29 125t76.5 110t109 94.5t126.5 79.5zM607 706q-57 -34 -102 -67.5t-76.5 -70t-48 -77t-16.5 -87.5q0 -60 23.5 -110t65.5 -85t98.5 -54.5t122.5 -19.5q65 0 119.5 19t93.5 52t60.5 78.5
t21.5 98.5q0 59 -28 103t-77 80.5t-115 69.5zM721 847q107 63 155 126t48 138q0 58 -22 100t-57.5 68t-80.5 38.5t-90 12.5q-47 0 -90.5 -12.5t-77.5 -37.5t-54.5 -62t-20.5 -86q0 -53 23.5 -93.5t63.5 -73.5t92.5 -61.5t110.5 -56.5z" />
    <glyph glyph-name="at" unicode="@" horiz-adv-x="2226" 
d="M1262 210q-44 -68 -86 -112.5t-81.5 -70.5t-77 -36.5t-73.5 -10.5q-70 0 -130 32t-104 86.5t-69 128t-25 156.5q0 106 41.5 206.5t115.5 178.5t176.5 124t224.5 42q65 -2 137 -17t143 -37v-736q98 33 168.5 88t115.5 122t66.5 141t21.5 146q0 147 -52.5 258.5t-143 186.5
t-213 113t-261.5 38q-180 0 -335.5 -57t-270.5 -165.5t-180.5 -265.5t-65.5 -356q0 -160 45.5 -296t139 -235t237 -155t340.5 -56q65 0 143.5 9t159.5 28.5t160 49.5t147 71v-108q-62 -45 -142 -79.5t-169 -58t-181.5 -36t-178.5 -12.5q-130 0 -246.5 28.5t-214 82
t-175.5 129.5t-132.5 171t-83.5 207t-29 237q0 150 41 283t114 244t173 199.5t218.5 149.5t250 93.5t267.5 32.5q114 0 216 -23t189 -66t156 -103.5t118 -135.5t75 -162.5t26 -183.5q0 -78 -18 -159t-54.5 -157t-92 -145t-130 -124t-169 -93t-208.5 -52zM1264 757
q-36 11 -74 18.5t-76 7.5q-76 0 -132 -30.5t-93.5 -79.5t-56 -110.5t-18.5 -124.5q0 -59 12.5 -111.5t36 -91.5t57 -62t75.5 -23q30 0 65 15t70.5 43.5t70 71t63.5 98.5v379z" />
    <glyph glyph-name="underscore" unicode="_" horiz-adv-x="1070" 
d="M1023 0v-135h-987v135h987z" />
    <glyph glyph-name="braceleft" unicode="{" horiz-adv-x="856" 
d="M90 538v120q49 16 95.5 36.5t81.5 49t56.5 66t21.5 88.5v257q0 102 28.5 176.5t79.5 123.5t121 73t153 24h132v-135h-142q-52 0 -95.5 -14t-75 -44t-49 -76.5t-17.5 -112.5v-248q0 -58 -15 -109t-44.5 -93t-74 -73.5t-102.5 -49.5q58 -18 102.5 -49.5t74 -73.5t44.5 -93
t15 -109v-248q0 -66 17.5 -112.5t49 -76.5t75 -44t95.5 -14h142v-135h-132q-83 0 -153 24t-121 73t-79.5 123.5t-28.5 176.5v257q0 51 -21.5 88.5t-56.5 66t-81.5 48.5t-95.5 37v2z" />
    <glyph glyph-name="braceright" unicode="}" horiz-adv-x="931" 
d="M859 536q-50 -17 -96 -37t-81 -48.5t-56.5 -66t-21.5 -88.5v-257q0 -102 -29 -176.5t-80 -123.5t-121 -73t-152 -24h-132v135h142q52 0 95.5 14t75 44t49 76.5t17.5 112.5v248q0 58 15 109t44.5 93t73.5 73.5t103 49.5q-59 18 -103 49.5t-73.5 73.5t-44.5 93t-15 109v248
q0 66 -17.5 112.5t-49 76.5t-75 44t-95.5 14h-142v135h132q82 0 152 -24t121 -73t80 -123.5t29 -176.5v-257q0 -51 21.5 -88.5t56.5 -66t81 -49t96 -36.5v-120v-2z" />
    <glyph glyph-name="less" unicode="&#x3c;" horiz-adv-x="1055" 
d="M106 650l813 484v-156l-633 -376l633 -376v-156l-813 484v96z" />
    <glyph glyph-name="Euro" unicode="&#x20ac;" horiz-adv-x="1420" 
d="M65 830v135h202q39 123 111 219.5t167.5 163.5t208.5 102t235 35q33 0 74.5 -3t87 -9.5t94 -18t96.5 -27.5l-64 -161l-20 -10q-40 21 -82 35t-82.5 23t-78 12.5t-67.5 3.5q-87 0 -163 -27t-137 -75.5t-106.5 -115.5t-72.5 -147h688l-47 -135h-1044zM1035 625l-47 -135
h-514q27 -75 70.5 -139t103.5 -111t136.5 -73.5t169.5 -26.5q36 0 79 5t92.5 18.5t104.5 36t115 58.5v-117q-56 -49 -119 -80.5t-125.5 -49.5t-120.5 -24.5t-103 -6.5q-116 0 -217.5 35.5t-183 101.5t-139.5 160.5t-86 212.5h-186v135h970z" />
    <glyph glyph-name="dagger" unicode="&#x2020;" horiz-adv-x="1188" 
d="M531 1465h135v-2001h-135v2001zM1097 1022v-135h-997v135h997z" />
    <glyph glyph-name="daggerdbl" unicode="&#x2021;" horiz-adv-x="1274" 
d="M531 1465h135v-2001h-135v2001zM1097 1022v-135h-997v135h997zM1097 52v-135h-997v135h997z" />
    <glyph glyph-name="florin" unicode="&#x192;" horiz-adv-x="1053" 
d="M269 771h-214l16 108l202 44v52q0 103 30.5 196t89.5 162.5t144 110.5t195 41q41 0 86 -6t87 -20l-38 -154l-20 -10q-33 17 -71.5 27.5t-82.5 10.5q-63 0 -107.5 -24.5t-72.5 -66.5t-41 -99t-13 -122v-98h362l-40 -152h-322v-1307h-190v1307z" />
    <glyph glyph-name="guilsinglleft" unicode="&#x2039;" horiz-adv-x="656" 
d="M86 544l6 34l324 428l112 -116l-76 -96q-48 -60 -93.5 -111t-90.5 -95v-14q45 -45 89.5 -95l92.5 -109l78 -94l-142 -126z" />
    <glyph glyph-name="guillemotleft" unicode="&#xab;" horiz-adv-x="1126" 
d="M86 544l6 34l324 428l112 -116l-76 -96q-48 -60 -93.5 -111t-90.5 -95v-14q45 -45 89.5 -95l92.5 -109l78 -94l-142 -126zM554 544l4 34l324 428l116 -116l-78 -96q-48 -60 -93 -111t-93 -95v-14q45 -44 90.5 -94.5t93.5 -109.5l80 -94l-144 -126z" />
    <glyph glyph-name="guilsinglright" unicode="&#x203a;" horiz-adv-x="656" 
d="M572 612l-4 -34l-324 -428l-116 116l78 96l93 110.5t93 95.5v14q-45 44 -90.5 94.5t-93.5 109.5l-80 94l144 126z" />
    <glyph glyph-name="guillemotright" unicode="&#xbb;" horiz-adv-x="1126" 
d="M572 612l-4 -34l-324 -428l-116 116l78 96l93 110.5t93 95.5v14q-45 44 -90.5 94.5t-93.5 109.5l-80 94l144 126zM1040 612l-6 -34l-324 -428l-112 116l76 96l93.5 110.5t90.5 95.5v14q-45 45 -89.5 95l-92.5 109l-78 94l142 126z" />
    <glyph glyph-name="germandbls" unicode="&#xdf;" horiz-adv-x="1250" 
d="M1060 1290q0 -63 -19.5 -111.5t-48 -87.5t-62.5 -72.5t-62.5 -66.5t-48 -68.5t-19.5 -79.5q0 -54 29 -90.5t72 -66t94 -56.5t94 -62.5t72 -84t29 -120.5q0 -76 -32.5 -139.5t-87 -109.5t-125.5 -71.5t-147 -25.5q-29 0 -64.5 3.5t-72.5 9.5t-72 14.5t-63 18.5l38 154
l20 12q26 -14 58 -26t65 -20.5t63.5 -13t53.5 -4.5q36 0 66.5 11.5t53 32.5t35.5 51t13 67q0 56 -27 92t-67.5 63t-87.5 52t-87.5 59.5t-67.5 83.5t-27 126q0 63 17.5 108t44 80.5t57.5 66t57.5 64.5t44 74.5t17.5 96.5q0 55 -17 95.5t-45.5 67.5t-66.5 40t-81 13
q-56 0 -102 -24.5t-78.5 -71t-50 -114.5t-17.5 -156v-1104h-204v910h-164l16 96l152 26v38q0 115 39 215.5t106.5 174t159 116t197.5 42.5q85 0 150 -27t109.5 -72t67.5 -104.5t23 -124.5z" />
    <glyph glyph-name="bullet" unicode="&#x2022;" horiz-adv-x="702" 
d="M346 390q-36 0 -67.5 15t-55.5 40.5t-37.5 59t-13.5 71.5q0 35 13.5 67.5t37.5 57.5t55.5 40t67.5 15q39 0 72.5 -15t58.5 -40t39 -57.5t14 -67.5q0 -38 -14 -71.5t-39 -59t-58.5 -40.5t-72.5 -15z" />
    <glyph glyph-name="exclamdown" unicode="&#xa1;" horiz-adv-x="622" 
d="M400 555l33 -960h-210l32 960h145zM326 1080q31 0 58 -12t46.5 -32.5t31 -47t11.5 -55.5q0 -30 -11.5 -57t-31 -47.5t-46.5 -33t-58 -12.5t-58 12.5t-46.5 33t-30.5 47.5t-11 57q0 29 11 55.5t30.5 47t46.5 32.5t58 12z" />
    <glyph glyph-name="questiondown" unicode="&#xbf;" horiz-adv-x="848" 
d="M466 -306q33 0 72 8t80.5 24.5t83.5 41t82 56.5l14 -10l38 -144q-56 -36 -113.5 -60t-112 -38t-103.5 -20t-89 -6q-85 0 -151 22t-111 61t-68.5 92t-23.5 115q0 58 19.5 106.5t51.5 92t72 83.5l80 79t77 80t63 86.5t36.5 98t-1.5 114.5l148 14q15 -71 8.5 -129.5
t-27.5 -108.5t-53.5 -93t-68.5 -81.5l-72.5 -74.5t-65.5 -72t-47 -74t-18 -81q0 -41 16 -74.5t43 -57.5t63.5 -37t77.5 -13zM524 1088q28 0 53.5 -11.5t45 -31t30.5 -45.5t11 -54q0 -29 -11 -55t-30.5 -45.5t-45 -30.5t-53.5 -11q-29 0 -54 11t-44.5 30.5t-30.5 45.5t-11 55
q0 28 11 54t30.5 45.5t44.5 31t54 11.5z" />
    <glyph glyph-name="cent" unicode="&#xa2;" horiz-adv-x="1012" 
d="M918 90q-62 -48 -147.5 -79t-186.5 -31q-108 0 -195.5 37.5t-149.5 104.5t-95.5 160.5t-33.5 204.5q0 129 44 238t120.5 188t180.5 123t223 44q28 0 60.5 -2.5t64.5 -8.5t62 -14.5t53 -20.5l-40 -166l-22 -10q-20 15 -45.5 28t-54 22t-59 14.5t-59.5 5.5
q-67 0 -126.5 -26.5t-104.5 -77t-71 -124t-26 -167.5q0 -96 27.5 -169t75.5 -123t114 -75.5t143 -25.5q46 0 111 11.5t137 46.5v-108zM504 1415h135v-418h-135v418zM504 63h135v-418h-135v418z" />
    <glyph glyph-name="yen" unicode="&#xa5;" horiz-adv-x="1332" 
d="M754 399v-399h-196v399h196zM532 684l-459 781h224l281 -528l89 -196h20l95 194l287 530h196l-485 -781h-248zM1137 775v-135h-962v135h417l89 -72l95 72h361zM175 349v135h962v-135h-962z" />
    <glyph glyph-name="plusminus" unicode="&#xb1;" horiz-adv-x="1286" 
d="M561 1350h135v-1021h-135v1021zM1127 907v-135h-997v135h997zM1127 135v-135h-997v135h997z" />
    <glyph glyph-name="brokenbar" unicode="&#xa6;" horiz-adv-x="612" 
d="M229 702v900h135v-900h-135zM364 364v-900h-135v900h135z" />
    <glyph glyph-name="sterling" unicode="&#xa3;" horiz-adv-x="1170" 
d="M755 1333q-123 0 -194 -81.5t-71 -241.5v-510q0 -45 -4.5 -89.5t-17.5 -87t-37 -82.5t-63 -77v-20l191 8h478l-39 -152h-884v76q58 34 93 70t54.5 74t26 79t6.5 87v610q0 118 41.5 209.5t111.5 153.5t160 94t188 32q28 0 60.5 -2.5t64.5 -8.5t62 -14.5t53 -20.5l-40 -166
l-22 -10q-20 15 -45.5 28t-54 22t-59 14.5t-59.5 5.5zM932 794l-35 -135h-800l35 135h800z" />
    <glyph glyph-name="currency" unicode="&#xa4;" horiz-adv-x="1218" 
d="M274 762q0 -73 24.5 -134t67.5 -105t102 -68.5t128 -24.5t128 24.5t102.5 68.5t68 105t24.5 134t-24.5 134t-68 105t-102.5 69t-128 25t-128 -25t-102 -69t-67.5 -105t-24.5 -134zM129 762q0 100 38 186t103.5 148.5t152 98t182.5 35.5q97 0 181 -35.5t145.5 -98
t97 -147.5t35.5 -183q0 -103 -38.5 -189.5t-103.5 -149t-152 -97.5t-183 -35q-97 0 -181 35.5t-145.5 97.5t-96.5 147.5t-35 186.5zM273 992l-263 262l95 95l263 -262zM939 517l245 -245l-96 -95l-245 244zM350 421l-244 -244l-96 95l245 244zM816 1076l273 273l95 -95
l-273 -273z" />
    <glyph glyph-name="periodcentered" unicode="&#xb7;" horiz-adv-x="618" 
d="M308 396q-34 0 -63 13t-50 35t-33 51t-12 61t12 61t33 50.5t50 34t63 12.5t63 -12.5t50.5 -34t34 -50.5t12.5 -61t-12.5 -61t-34 -51t-50.5 -35t-63 -13z" />
    <glyph glyph-name="s" unicode="s" horiz-adv-x="986" 
d="M150 208l18 12q38 -21 80 -37.5t83 -27.5t80.5 -17t73.5 -6q47 0 86 11t66.5 31t43 48t15.5 62q0 43 -24 71.5t-63 49t-89 35.5l-102 31t-102 36t-89 50.5t-63 74t-24 106.5q0 70 31 132.5t87 109t134.5 73.5t174.5 27q23 0 55 -2t68 -6.5t73.5 -12t72.5 -18.5l-40 -156
l-24 -14q-28 15 -61.5 26t-68 17.5t-67.5 10t-58 3.5q-46 0 -83.5 -10t-64.5 -28.5t-42 -45t-15 -60.5q0 -44 24 -73t64 -49.5t90.5 -35.5l103.5 -31t103.5 -36t90.5 -51t64 -75.5t24 -108.5q0 -75 -33.5 -138t-92 -109t-137 -71.5t-168.5 -25.5q-77 0 -164.5 18t-170.5 50z
" />
    <glyph glyph-name="quotedblright" unicode="&#x201d;" horiz-adv-x="1056" 
d="M128 948q73 84 106.5 163t39.5 159q-21 20 -45.5 34t-56.5 22q-17 29 -21.5 52t-4.5 38q0 31 12.5 58.5t34 48.5t50.5 33t61 12q25 0 53 -10t50.5 -32.5t37.5 -59.5t15 -90q0 -47 -12.5 -105.5t-42 -121.5t-79 -128.5t-122.5 -126.5zM598 948q37 42 62.5 82.5t42.5 80.5
t26 79.5t13 79.5q-21 20 -45.5 34t-56.5 22q-17 29 -21.5 52t-4.5 38q0 31 12.5 58.5t33.5 48.5t49.5 33t60.5 12q25 0 53 -10t50.5 -32.5t37.5 -59.5t15 -90q0 -47 -12 -105.5t-41.5 -121.5t-78.5 -128.5t-122 -126.5z" />
    <glyph glyph-name="quotedblleft" unicode="&#x201c;" horiz-adv-x="1056" 
d="M598 1088q0 47 12 105t41.5 121t79 128t123.5 126l72 -52q-72 -85 -104 -164.5t-38 -157.5q21 -21 44.5 -35t55.5 -23q17 -27 22.5 -49t5.5 -39q0 -31 -13 -59t-34.5 -49t-50.5 -33.5t-60 -12.5q-26 0 -54 10.5t-50.5 33.5t-37 60t-14.5 90zM128 1088q0 47 12.5 105
t42.5 121t79.5 128t123.5 126l74 -52q-37 -42 -63 -83t-43 -81t-26.5 -79.5t-13.5 -78.5q21 -21 46 -35t58 -23q15 -27 19.5 -49t4.5 -39q0 -31 -12.5 -59t-33.5 -49t-49.5 -33.5t-60.5 -12.5q-26 0 -54 10.5t-51 33.5t-38 60t-15 90z" />
    <glyph glyph-name="ampersand" unicode="&#x26;" horiz-adv-x="1487" 
d="M1002 1201q0 -57 -18.5 -115.5t-58 -116t-101.5 -112.5t-149 -103q42 -50 81.5 -92.5l80 -84.5l84.5 -85l95 -94q29 42 53.5 91t44.5 99t35 98t25 90h157q-38 -127 -91.5 -244.5t-110.5 -212.5q68 -59 134 -107t142 -97l-95 -135q-75 46 -142.5 94t-137.5 110
q-87 -97 -195.5 -150.5t-247.5 -53.5q-100 0 -184.5 28t-145.5 78t-95.5 118.5t-34.5 148.5q0 70 26.5 130t71.5 112t106 97.5t130 87.5l-71.5 89t-60.5 91.5t-42 94.5t-16 98q0 69 30.5 129.5t84.5 105.5t128 71t161 26q75 0 135 -20t103 -56.5t66 -89t23 -118.5zM925 263
l-102 99l-95 95t-94 101.5l-99 118.5q-58 -35 -98 -69.5t-65 -70.5t-36 -73t-11 -76q0 -62 24.5 -109.5t66.5 -79.5t98.5 -48t121.5 -16q84 0 156.5 28.5t132.5 99.5zM449 1155q0 -38 15 -79t38.5 -80.5t51 -76t52.5 -64.5q58 30 100.5 66t71 74.5t42.5 78.5t14 78
q0 40 -14 72.5t-39.5 56t-60.5 36.5t-77 13q-45 0 -80.5 -14.5t-61 -38.5t-39 -55.5t-13.5 -66.5z" />
    <glyph glyph-name="perthousand" unicode="&#x2030;" horiz-adv-x="2756" 
d="M1337 1464h179l-948 -1464h-177zM460 686q-84 0 -147 30.5t-105 83t-63 121t-21 145.5q0 91 27.5 168t77.5 132.5t119.5 87t153.5 31.5q82 0 145 -30t105.5 -81t64 -119.5t21.5 -145.5q0 -89 -26.5 -166t-76 -134t-119.5 -90t-156 -33zM484 826q38 0 70 17.5t55.5 50.5
t37 80.5t13.5 106.5q0 57 -13 105t-36.5 83.5t-57 55t-75.5 19.5q-37 0 -69 -16.5t-56 -48.5t-37.5 -78.5t-13.5 -107.5q0 -59 13 -108t37 -84t57.5 -55t74.5 -20zM1404 -21q-84 0 -147 30.5t-105 83t-63 121t-21 145.5q0 91 27.5 168t77.5 132.5t119.5 87t153.5 31.5
q82 0 145 -30t105.5 -81t64 -119.5t21.5 -145.5q0 -89 -26.5 -166t-76 -134t-119.5 -90t-156 -33zM1428 119q38 0 70 17.5t55.5 50.5t37 80.5t13.5 106.5q0 57 -13 105t-36.5 83.5t-57 55t-75.5 19.5q-37 0 -69 -16.5t-56 -48.5t-37.5 -78.5t-13.5 -107.5q0 -59 13 -108
t37 -84t57.5 -55t74.5 -20zM2223 -21q-84 0 -147 30.5t-105 83t-63 121t-21 145.5q0 91 27.5 168t77.5 132.5t119.5 87t153.5 31.5q82 0 145 -30t105.5 -81t64 -119.5t21.5 -145.5q0 -89 -26.5 -166t-76 -134t-119.5 -90t-156 -33zM2247 119q38 0 70 17.5t55.5 50.5t37 80.5
t13.5 106.5q0 57 -13 105t-36.5 83.5t-57 55t-75.5 19.5q-37 0 -69 -16.5t-56 -48.5t-37.5 -78.5t-13.5 -107.5q0 -59 13 -108t37 -84t57.5 -55t74.5 -20z" />
    <glyph glyph-name="comma" unicode="," horiz-adv-x="630" 
d="M130 -324q34 37 64.5 78t54.5 83t41 82t24 75q-11 10 -27.5 21.5t-35.5 21.5t-39 17.5t-38 11.5q-8 14 -11 33t-3 33q0 24 9.5 50t27.5 48t45.5 36t63.5 14q28 0 55.5 -10.5t49.5 -33.5t35.5 -59.5t13.5 -88.5q0 -48 -15 -103t-47.5 -113.5t-83.5 -119t-122 -120.5z" />
    <glyph glyph-name="t" unicode="t" horiz-adv-x="953" 
d="M269 908h-214l16 98q78 16 125 40.5t77.5 61.5t51 89.5t46.5 125.5h88v-263h384l-40 -152h-344v-592q0 -48 14.5 -81.5t40.5 -54.5t63 -30.5t82 -9.5q46 0 91.5 8.5t86.5 23.5v-108q-63 -41 -132.5 -62.5t-141.5 -21.5q-67 0 -121 19t-92.5 55t-59.5 89.5t-21 122.5v642z
" />
    <glyph glyph-name="colon" unicode=":" horiz-adv-x="618" 
d="M308 -20q-32 0 -59 12t-46.5 32.5t-31 47.5t-11.5 56q0 30 11.5 57.5t31 48.5t46.5 33.5t59 12.5q31 0 58.5 -12.5t47 -33.5t31 -48.5t11.5 -57.5q0 -29 -11.5 -56t-31 -47.5t-47 -32.5t-58.5 -12zM308 672q-32 0 -59 12t-46.5 32.5t-31 47.5t-11.5 56q0 30 11.5 57.5
t31 48.5t46.5 33.5t59 12.5q31 0 58.5 -12.5t47 -33.5t31 -48.5t11.5 -57.5q0 -29 -11.5 -56t-31 -47.5t-47 -32.5t-58.5 -12z" />
    <glyph glyph-name="exclam" unicode="!" horiz-adv-x="653" 
d="M253 505l-33 960h210l-32 -960h-145zM327 -20q-31 0 -58 12t-46.5 32.5t-31 47t-11.5 55.5q0 30 11.5 57t31 47.5t46.5 33t58 12.5t58 -12.5t46.5 -33t30.5 -47.5t11 -57q0 -29 -11 -55.5t-30.5 -47t-46.5 -32.5t-58 -12z" />
    <glyph glyph-name="copyright" unicode="&#xa9;" horiz-adv-x="1854" 
d="M150 722q0 110 25.5 212t73 191t117 162t157.5 125.5t193.5 81t225.5 28.5q121 0 224.5 -29t188.5 -81.5t150 -125t109 -159t67 -185t23 -201.5q0 -164 -56 -309.5t-159.5 -254t-250 -171.5t-327.5 -63q-182 0 -324 63.5t-239 171t-147.5 248.5t-50.5 296zM296 741
q0 -133 41 -253t122 -210.5t201 -144t277 -53.5q156 0 273 52.5t194 141.5t115.5 205.5t38.5 244.5q0 134 -41.5 254.5t-122.5 211t-201 144t-276 53.5t-273 -53t-194 -142t-115.5 -206t-38.5 -245zM1209 407q-31 -24 -67 -42t-74 -30t-76.5 -18t-74.5 -6q-80 0 -150 29
t-122 82.5t-82.5 128t-30.5 166.5q0 105 39 188t103.5 141.5t148.5 89.5t173 31q34 0 92.5 -6.5t123.5 -27.5l-24 -143l-10 -4q-56 24 -106.5 35t-89.5 11q-56 0 -104.5 -21t-84.5 -58.5t-56.5 -90.5t-20.5 -117q0 -60 18.5 -112.5t53.5 -91t84.5 -61t111.5 -22.5
q18 0 45.5 2.5t58 8.5t62 16t58.5 26z" />
    <glyph glyph-name="registered" unicode="&#xae;" horiz-adv-x="1854" 
d="M150 712q0 170 56 318t159 257.5t249 172t325 62.5q122 0 226 -29.5t189 -81.5t150.5 -124t109.5 -158t67 -181.5t23 -195.5q0 -170 -56 -317.5t-159.5 -257t-249 -172t-325.5 -62.5q-122 0 -226.5 29.5t-189 81.5t-149.5 124t-109.5 157.5t-67 181t-22.5 195.5zM296 729
q0 -127 41.5 -244.5t122.5 -207.5t201.5 -143.5t278.5 -53.5q155 0 271 52.5t193 142t115.5 209t38.5 253.5q0 128 -41.5 245.5t-123 207.5t-202 143.5t-277.5 53.5q-155 0 -271 -52.5t-193 -142.5t-115.5 -209.5t-38.5 -253.5zM647 324v838h269q73 0 131 -17t97.5 -48.5
t60.5 -75t21 -95.5q0 -39 -14 -74.5t-34.5 -65.5t-44 -53t-42.5 -37l213 -372h-198l-150 298h-142q0 -47 0.5 -81.5l1 -67t1.5 -67.5t3 -82h-173zM988 757q35 27 55.5 65t20.5 80q0 54 -40 89.5t-128 35.5h-80q-1 -39 -1.5 -71t-0.5 -63v-63.5v-72.5h174z" />
    <glyph glyph-name="onesuperior" unicode="&#xb9;" horiz-adv-x="520" 
d="M240 1302l-208 -22l-22 90q41 11 94 28.5t107 37.5t104 42t85 42l48 -4q-5 -53 -7.5 -108t-2.5 -106v-652h-198v652z" />
    <glyph glyph-name="twosuperior" unicode="&#xb2;" horiz-adv-x="736" 
d="M60 686q105 110 176 194.5t114 150.5t61.5 118t18.5 99q0 39 -11.5 67t-31 46t-44 26.5t-49.5 8.5q-30 0 -72 -12t-90 -42l-34 88q85 60 159 81t127 21q54 0 100.5 -15.5t81 -45.5t54.5 -73.5t20 -99.5q0 -53 -18.5 -110.5t-58 -122t-101 -137t-146.5 -154.5l2 -6l358 18
l-22 -136h-580l-14 36v0z" />
    <glyph glyph-name="threesuperior" unicode="&#xb3;" horiz-adv-x="670" 
d="M332 1530q56 0 100.5 -14.5t75 -40t46.5 -59.5t16 -72q0 -54 -36 -107.5t-114 -92.5v-4q46 -8 79.5 -27t55.5 -46t32.5 -59t10.5 -66q0 -32 -10.5 -68t-35 -71t-64 -67t-98.5 -55t-138 -34t-182 -5l-12 104q94 -2 157 13.5t101.5 41t55 57.5t16.5 64q0 65 -53.5 98
t-144.5 22l-14 94l59.5 23t61 31t48 44t19.5 64q0 44 -33 68t-87 24q-32 0 -68 -9t-80 -33l-36 90q78 52 148.5 72t123.5 20z" />
    <glyph glyph-name="fraction" unicode="&#x2044;" horiz-adv-x="300" 
d="M552 1504l162 -20l-1018 -1572l-162 22z" />
    <glyph glyph-name="threequarters" unicode="&#xbe;" horiz-adv-x="1736" 
d="M892 282l390 578l206 6v-502l140 6l-20 -126h-120q0 -35 0.5 -64.5t2 -58t2.5 -58t3 -63.5h-208q1 35 2 64.5t1.5 57.5t0.5 57.5v64.5h-380zM1292 364v120q0 48 2 105.5t4 102.5l-14 2q-21 -47 -47.5 -92.5t-52.5 -83.5l-114 -160zM1254 1504l162 -20l-1018 -1572
l-162 22zM380 1530q56 0 100.5 -14.5t75 -40t46.5 -59.5t16 -72q0 -54 -35 -107.5t-115 -92.5v-4q46 -8 79.5 -27t55.5 -46t32.5 -59t10.5 -66q0 -32 -10.5 -68t-35 -71t-64 -67t-98 -55t-137.5 -34t-181 -5l-14 104q94 -2 157.5 13.5t102 41t54.5 57.5t16 64q0 65 -52.5 98
t-143.5 22l-16 94q28 10 61 23t61.5 31t48 44t19.5 64q0 44 -33 68t-87 24q-33 0 -68.5 -9t-79.5 -33l-36 90q78 53 147.5 72.5t122.5 19.5z" />
    <glyph glyph-name="onequarter" unicode="&#xbc;" horiz-adv-x="1678" 
d="M834 282l390 578l206 6v-502l140 6l-20 -126h-120q0 -35 0.5 -64.5t2 -58t2.5 -58t3 -63.5h-208q1 35 2 64.5t1.5 57.5t0.5 57.5v64.5h-380zM1234 364v120q0 24 1 51t2.5 54.5t2.5 53.5t2 49l-16 2q-20 -47 -47 -95.5t-53 -84.5l-114 -156zM1196 1504l162 -20
l-1018 -1572l-162 22zM336 1302l-208 -22l-22 90q41 11 94 28.5t107 37.5t104 42t85 42l48 -4q-3 -53 -6.5 -108t-3.5 -106v-652h-198v652z" />
    <glyph glyph-name="onehalf" unicode="&#xbd;" horiz-adv-x="1704" 
d="M980 36q105 110 176 194t114 150t61.5 118.5t18.5 99.5q0 38 -11.5 65.5t-31 45t-44 25.5t-49.5 8q-30 0 -71 -10t-91 -40l-34 86q84 61 158.5 82.5t127.5 21.5q54 0 100.5 -15.5t81 -45.5t54.5 -73.5t20 -99.5q0 -53 -18.5 -111t-58 -122.5t-101 -136.5t-146.5 -154
l4 -8l356 18l-20 -134h-580zM1198 1504l164 -20l-1020 -1572l-162 22zM336 1302l-208 -22l-22 90q41 11 94 28.5t107 37.5t104 42t85 42l48 -4q-3 -53 -6.5 -108t-3.5 -106v-652h-198v652z" />
    <glyph glyph-name="dollar" unicode="$" horiz-adv-x="1162" 
d="M546 155q62 0 116.5 15.5t95 44.5t64 72t23.5 97q0 63 -30.5 107t-80 78t-112.5 60.5l-129 54.5t-129.5 60.5t-113 77.5t-79.5 107t-30 148q0 80 27.5 144.5t76.5 112.5t116.5 79t147.5 44v357h164v-349q63 -3 146.5 -16.5t176.5 -41.5l-34 -174l-20 -10
q-55 25 -106.5 42t-98 27t-85.5 14t-68 4q-55 0 -102 -13.5t-81.5 -39.5t-54 -64.5t-19.5 -87.5q0 -63 30.5 -108t80.5 -79.5t114 -62l131 -55.5t131 -60t114 -75t80.5 -101t30.5 -138q0 -71 -25.5 -136t-73 -118t-115.5 -92.5t-152 -60.5v-369h-164v349q-51 0 -105 7
t-108.5 19.5t-107.5 30.5t-101 40l34 175l20 10q99 -57 203.5 -91.5t201.5 -34.5z" />
    <glyph glyph-name="infinity" unicode="&#x221e;" horiz-adv-x="1740" 
d="M1654 612q0 -80 -34 -156.5t-92.5 -136.5t-137.5 -96.5t-170 -36.5q-67 0 -119 20t-93 53t-73 75t-57 86h-20q-40 -51 -81.5 -94t-88 -74t-101 -48.5t-119.5 -17.5q-84 0 -154 30t-121 81t-79 118t-28 141q0 80 33 157t92.5 137t142 97t180.5 37q62 0 114 -15t94 -43
t76 -67.5t60 -88.5h22q43 52 85 92t86.5 67t93.5 41t105 14q84 0 154.5 -30t121.5 -81t79.5 -118.5t28.5 -142.5zM792 540q-23 65 -57.5 120.5t-76.5 96t-89.5 63t-96.5 22.5q-48 0 -85.5 -22.5t-63.5 -58.5t-39.5 -80.5t-13.5 -88.5q0 -54 20.5 -102t55 -84t79.5 -57
t93 -21q41 0 81 15.5t75.5 43.5t65.5 67t52 86zM1468 576q0 49 -17 96.5t-47.5 85t-74 61t-95.5 23.5q-40 0 -80.5 -14.5t-78 -41.5t-70.5 -65.5t-57 -86.5q29 -66 65.5 -122t77 -97t85 -64t90.5 -23q45 0 82 21.5t64 56t41.5 79t14.5 91.5z" />
    <glyph glyph-name="approxequal" unicode="&#x2248;" horiz-adv-x="1290" 
d="M430 380q-30 0 -57.5 -8t-54.5 -24.5t-55.5 -41t-60.5 -58.5l-74 90q36 53 80.5 91.5t92.5 63.5t96.5 37t92.5 12q53 0 100 -16t91.5 -35t88 -35t90.5 -16q29 0 56 8.5t54 25t56 41.5t62 59l74 -90q-74 -106 -157.5 -155t-174.5 -49q-55 0 -107 15.5t-102 34.5
t-97.5 34.5t-93.5 15.5zM430 764q-30 0 -57.5 -8t-54.5 -24.5t-55.5 -41t-60.5 -58.5l-74 90q36 52 80.5 89.5t92.5 62t96.5 36.5t92.5 12q53 0 100 -15.5t91.5 -34.5t88 -34.5t90.5 -15.5q29 0 56 8t54 24.5t56 41.5t62 60l74 -92q-74 -104 -157.5 -153t-174.5 -49
q-55 0 -107 16t-102 35t-97.5 35t-93.5 16z" />
    <glyph glyph-name="notequal" unicode="&#x2260;" horiz-adv-x="1312" 
d="M182 864l490 12l182 422l162 -22l-172 -396l308 8l-38 -176h-954zM182 480l970 22l-38 -174h-478l-194 -442l-162 24l184 418h-304z" />
    <glyph glyph-name="lessequal" unicode="&#x2264;" horiz-adv-x="1058" 
d="M908 160l-32 -160h-752l18 136zM118 742l10 36l630 450l106 -128l-230 -154l-69.5 -44.5l-76 -47l-75 -45l-65.5 -37.5v-12q28 -14 64.5 -34l75.5 -42.5l76.5 -46t69.5 -45.5l230 -156l-116 -140z" />
    <glyph glyph-name="greaterequal" unicode="&#x2265;" horiz-adv-x="1058" 
d="M934 160l-34 -160h-750l16 136zM940 778l-12 -36l-628 -446l-108 128l232 154l69 43.5l76 46l74 43.5l65 37v12q-28 14 -64 34l-74.5 42.5l-76.5 46t-69 45.5l-232 156l116 144z" />
    <glyph glyph-name="uni2219" unicode="&#x2219;" horiz-adv-x="618" 
d="M308 390q-34 0 -63 12.5t-50 34t-33 50.5t-12 61t12 61t33 51t50 35t63 13t63 -13t50.5 -35t34 -51t12.5 -61t-12.5 -61t-34 -50.5t-50.5 -34t-63 -12.5z" />
    <glyph glyph-name="uni2215" unicode="&#x2215;" horiz-adv-x="300" 
d="M552 1504l162 -20l-1018 -1572l-162 22z" />
    <glyph glyph-name="quotesinglbase" unicode="&#x201a;" horiz-adv-x="630" 
d="M130 -324q34 37 64.5 78t54.5 83t41 82t24 75q-11 10 -27.5 21.5t-35.5 21.5t-39 17.5t-38 11.5q-8 14 -11 33t-3 33q0 24 9.5 50t27.5 48t45.5 36t63.5 14q28 0 55.5 -10.5t49.5 -33.5t35.5 -59.5t13.5 -88.5q0 -48 -15 -103t-47.5 -113.5t-83.5 -119t-122 -120.5z" />
    <glyph glyph-name="parenright" unicode=")" horiz-adv-x="724" 
d="M42 -322q149 175 217.5 407t68.5 511q0 278 -68.5 512t-217.5 408l102 76q97 -102 169 -211.5t120 -229.5t71.5 -253.5t23.5 -283.5q0 -302 -94.5 -554.5t-289.5 -457.5z" />
    <glyph glyph-name="parenleft" unicode="(" horiz-adv-x="722" 
d="M678 1516q-74 -86 -127.5 -189t-88 -219.5t-51.5 -245t-17 -266.5q0 -278 68.5 -511t215.5 -407l-96 -76q-96 102 -168.5 211.5t-121.5 229.5t-73.5 253.5t-24.5 283.5q0 302 97.5 554.5t290.5 457.5z" />
    <glyph glyph-name="egrave" unicode="&#xe8;" 
d="M993 90q-38 -27 -87.5 -47.5t-102.5 -34.5t-106.5 -21t-99.5 -7q-102 0 -194 34t-161 100t-110 163.5t-41 224.5q0 131 43.5 238t116.5 182.5t168.5 116.5t200.5 41q85 0 158.5 -28.5t128 -85.5t85.5 -142.5t31 -199.5q0 -23 -2 -55t-8 -67h-724q0 -86 30.5 -153.5
t86 -114t132.5 -70.5t170 -24q23 0 56 2t71 8t79 17.5t79 30.5v-108zM843 620q0 75 -21 132.5t-57 96.5t-83.5 59t-101.5 20q-60 0 -113 -24.5t-92.5 -66.5t-62.5 -98t-23 -119h554zM580 1190l-63.5 79l-64.5 78l-68.5 79l-75.5 82l188 76q63 -75 118 -167t94 -187z" />
    <glyph glyph-name="ecircumflex" unicode="&#xea;" 
d="M993 90q-38 -27 -87.5 -47.5t-102.5 -34.5t-106.5 -21t-99.5 -7q-102 0 -194 34t-161 100t-110 163.5t-41 224.5q0 131 43.5 238t116.5 182.5t168.5 116.5t200.5 41q85 0 158.5 -28.5t128 -85.5t85.5 -142.5t31 -199.5q0 -23 -2 -55t-8 -67h-724q0 -86 30.5 -153.5
t86 -114t132.5 -70.5t170 -24q23 0 56 2t71 8t79 17.5t79 30.5v-108zM843 620q0 75 -21 132.5t-57 96.5t-83.5 59t-101.5 20q-60 0 -113 -24.5t-92.5 -66.5t-62.5 -98t-23 -119h554zM784 1190q-47 65 -98 122.5t-104 107.5l-46 -57l-52 -60t-55.5 -58.5t-56.5 -52.5l-108 30
q75 91 129 167.5t101 150.5l176 20q67 -78 124 -157t114 -173z" />
    <glyph glyph-name="edieresis" unicode="&#xeb;" 
d="M993 90q-38 -27 -87.5 -47.5t-102.5 -34.5t-106.5 -21t-99.5 -7q-102 0 -194 34t-161 100t-110 163.5t-41 224.5q0 131 43.5 238t116.5 182.5t168.5 116.5t200.5 41q85 0 158.5 -28.5t128 -85.5t85.5 -142.5t31 -199.5q0 -23 -2 -55t-8 -67h-724q0 -86 30.5 -153.5
t86 -114t132.5 -70.5t170 -24q23 0 56 2t71 8t79 17.5t79 30.5v-108zM843 620q0 75 -21 132.5t-57 96.5t-83.5 59t-101.5 20q-60 0 -113 -24.5t-92.5 -66.5t-62.5 -98t-23 -119h554zM806 1320q-27 0 -49 10t-38 26.5t-24.5 39t-8.5 48.5q0 27 10.5 50.5t28 40.5t40.5 27
t49 10q53 0 86.5 -33.5t33.5 -90.5q0 -26 -9.5 -49t-26 -40.5t-40.5 -28t-52 -10.5zM386 1320q-29 0 -51.5 10t-38 26.5t-24 39t-8.5 48.5q0 27 10 50.5t27 40.5t40 27t49 10q53 0 87.5 -33.5t34.5 -90.5q0 -26 -9.5 -49t-26.5 -40.5t-40 -28t-50 -10.5z" />
    <glyph glyph-name="circumflex" unicode="&#x2c6;" 
d="M784 1190q-47 65 -98 122.5t-104 107.5l-46 -57l-52 -60t-55.5 -58.5t-56.5 -52.5l-108 30q75 91 129 167.5t101 150.5l176 20q67 -78 124 -157t114 -173z" />
    <glyph glyph-name="acute" unicode="&#xb4;" 
d="M488 1222l108 170.5t94 169.5l196 -34q-62 -95 -132.5 -179.5t-151.5 -156.5z" />
    <glyph glyph-name="grave" unicode="`" 
d="M580 1190l-63.5 79l-64.5 78l-68.5 79l-75.5 82l188 76q63 -75 118 -167t94 -187z" />
    <glyph glyph-name="dieresis" unicode="&#xa8;" 
d="M806 1320q-27 0 -49 10t-38 26.5t-24.5 39t-8.5 48.5q0 27 10.5 50.5t28 40.5t40.5 27t49 10q53 0 86.5 -33.5t33.5 -90.5q0 -26 -9.5 -49t-26 -40.5t-40.5 -28t-52 -10.5zM386 1320q-29 0 -51.5 10t-38 26.5t-24 39t-8.5 48.5q0 27 10 50.5t27 40.5t40 27t49 10
q53 0 87.5 -33.5t34.5 -90.5q0 -26 -9.5 -49t-26.5 -40.5t-40 -28t-50 -10.5z" />
    <glyph glyph-name="agrave" unicode="&#xe0;" horiz-adv-x="1070" 
d="M723 158l-60.5 -51.5t-80 -58.5t-97 -48t-111.5 -20q-53 0 -103.5 18.5t-89.5 55t-62.5 90.5t-23.5 124q0 43 10.5 87t35.5 84.5t65.5 76t100 62t140.5 41.5t186 15h90v92q0 46 -16 83t-44.5 63.5t-68 41t-87.5 14.5q-36 0 -76.5 -8t-81 -23t-77.5 -35t-65 -44l-18 10
l-40 146q58 32 112 52.5t103.5 32.5t94.5 16.5t86 4.5q187 0 277.5 -77.5t90.5 -232.5v-522q0 -13 2 -31.5t9.5 -35.5t22 -29t39.5 -12q14 0 37 4.5t46 15.5v-106q-48 -33 -96.5 -53.5t-93.5 -20.5q-41 0 -67.5 16.5t-44 42.5t-27.5 57.5t-17 61.5zM723 518h-76
q-117 0 -186.5 -16.5t-106 -44t-48 -63.5t-11.5 -75q0 -42 12 -75t33.5 -56.5t51.5 -35.5t65 -12q27 0 55.5 6.5t61 23t69 44.5t80.5 72v232zM441 1190l-63.5 79l-64.5 78l-68.5 79l-75.5 82l188 76q63 -75 118 -167t94 -187z" />
    <glyph glyph-name="aacute" unicode="&#xe1;" horiz-adv-x="1070" 
d="M723 158l-60.5 -51.5t-80 -58.5t-97 -48t-111.5 -20q-53 0 -103.5 18.5t-89.5 55t-62.5 90.5t-23.5 124q0 43 10.5 87t35.5 84.5t65.5 76t100 62t140.5 41.5t186 15h90v92q0 46 -16 83t-44.5 63.5t-68 41t-87.5 14.5q-36 0 -76.5 -8t-81 -23t-77.5 -35t-65 -44l-18 10
l-40 146q58 32 112 52.5t103.5 32.5t94.5 16.5t86 4.5q187 0 277.5 -77.5t90.5 -232.5v-522q0 -13 2 -31.5t9.5 -35.5t22 -29t39.5 -12q14 0 37 4.5t46 15.5v-106q-48 -33 -96.5 -53.5t-93.5 -20.5q-41 0 -67.5 16.5t-44 42.5t-27.5 57.5t-17 61.5zM723 518h-76
q-117 0 -186.5 -16.5t-106 -44t-48 -63.5t-11.5 -75q0 -42 12 -75t33.5 -56.5t51.5 -35.5t65 -12q27 0 55.5 6.5t61 23t69 44.5t80.5 72v232zM395 1222l108 170.5t94 169.5l196 -34q-62 -95 -132.5 -179.5t-151.5 -156.5z" />
    <glyph glyph-name="acircumflex" unicode="&#xe2;" horiz-adv-x="1070" 
d="M723 158l-60.5 -51.5t-80 -58.5t-97 -48t-111.5 -20q-53 0 -103.5 18.5t-89.5 55t-62.5 90.5t-23.5 124q0 43 10.5 87t35.5 84.5t65.5 76t100 62t140.5 41.5t186 15h90v92q0 46 -16 83t-44.5 63.5t-68 41t-87.5 14.5q-36 0 -76.5 -8t-81 -23t-77.5 -35t-65 -44l-18 10
l-40 146q58 32 112 52.5t103.5 32.5t94.5 16.5t86 4.5q187 0 277.5 -77.5t90.5 -232.5v-522q0 -13 2 -31.5t9.5 -35.5t22 -29t39.5 -12q14 0 37 4.5t46 15.5v-106q-48 -33 -96.5 -53.5t-93.5 -20.5q-41 0 -67.5 16.5t-44 42.5t-27.5 57.5t-17 61.5zM723 518h-76
q-117 0 -186.5 -16.5t-106 -44t-48 -63.5t-11.5 -75q0 -42 12 -75t33.5 -56.5t51.5 -35.5t65 -12q27 0 55.5 6.5t61 23t69 44.5t80.5 72v232zM693 1190q-47 65 -98 122.5t-104 107.5l-46 -57l-52 -60t-55.5 -58.5t-56.5 -52.5l-108 30q75 91 129 167.5t101 150.5l176 20
q67 -78 124 -157t114 -173z" />
    <glyph glyph-name="adieresis" unicode="&#xe4;" horiz-adv-x="1070" 
d="M723 158l-60.5 -51.5t-80 -58.5t-97 -48t-111.5 -20q-53 0 -103.5 18.5t-89.5 55t-62.5 90.5t-23.5 124q0 43 10.5 87t35.5 84.5t65.5 76t100 62t140.5 41.5t186 15h90v92q0 46 -16 83t-44.5 63.5t-68 41t-87.5 14.5q-36 0 -76.5 -8t-81 -23t-77.5 -35t-65 -44l-18 10
l-40 146q58 32 112 52.5t103.5 32.5t94.5 16.5t86 4.5q187 0 277.5 -77.5t90.5 -232.5v-522q0 -13 2 -31.5t9.5 -35.5t22 -29t39.5 -12q14 0 37 4.5t46 15.5v-106q-48 -33 -96.5 -53.5t-93.5 -20.5q-41 0 -67.5 16.5t-44 42.5t-27.5 57.5t-17 61.5zM723 518h-76
q-117 0 -186.5 -16.5t-106 -44t-48 -63.5t-11.5 -75q0 -42 12 -75t33.5 -56.5t51.5 -35.5t65 -12q27 0 55.5 6.5t61 23t69 44.5t80.5 72v232zM721 1320q-27 0 -49 10t-38 26.5t-24.5 39t-8.5 48.5q0 27 10.5 50.5t28 40.5t40.5 27t49 10q53 0 86.5 -33.5t33.5 -90.5
q0 -26 -9.5 -49t-26 -40.5t-40.5 -28t-52 -10.5zM301 1320q-29 0 -51.5 10t-38 26.5t-24 39t-8.5 48.5q0 27 10 50.5t27 40.5t40 27t49 10q53 0 87.5 -33.5t34.5 -90.5q0 -26 -9.5 -49t-26.5 -40.5t-40 -28t-50 -10.5z" />
    <glyph glyph-name="igrave" unicode="&#xec;" horiz-adv-x="544" 
d="M213 1190l-63.5 79l-64.5 78l-68.5 79l-75.5 82l188 76q63 -75 118 -167t94 -187zM166 706q0 52 -1 94t-3 81t-4.5 76.5l-5.5 80.5l220 46v-1084h-206v706z" />
    <glyph glyph-name="iacute" unicode="&#xed;" horiz-adv-x="544" 
d="M167 1222l108 170.5t94 169.5l196 -34q-62 -95 -132.5 -179.5t-151.5 -156.5zM166 706q0 52 -1 94t-3 81t-4.5 76.5l-5.5 80.5l220 46v-1084h-206v706z" />
    <glyph glyph-name="icircumflex" unicode="&#xee;" horiz-adv-x="544" 
d="M166 706q0 52 -1 94t-3 81t-4.5 76.5l-5.5 80.5l220 46v-1084h-206v706zM467 1190q-47 65 -98 122.5t-104 107.5l-46 -57l-52 -60t-55.5 -58.5t-56.5 -52.5l-108 30q75 91 129 167.5t101 150.5l176 20q67 -78 124 -157t114 -173z" />
    <glyph glyph-name="idieresis" unicode="&#xef;" horiz-adv-x="544" 
d="M479 1320q-27 0 -49 10t-38 26.5t-24.5 39t-8.5 48.5q0 27 10.5 50.5t28 40.5t40.5 27t49 10q53 0 86.5 -33.5t33.5 -90.5q0 -26 -9.5 -49t-26 -40.5t-40.5 -28t-52 -10.5zM59 1320q-29 0 -51.5 10t-38 26.5t-24 39t-8.5 48.5q0 27 10 50.5t27 40.5t40 27t49 10
q53 0 87.5 -33.5t34.5 -90.5q0 -26 -9.5 -49t-26.5 -40.5t-40 -28t-50 -10.5zM166 706q0 52 -1 94t-3 81t-4.5 76.5l-5.5 80.5l220 46v-1084h-206v706z" />
    <glyph glyph-name="ograve" unicode="&#xf2;" horiz-adv-x="1232" 
d="M581 -20q-118 0 -210 42t-155.5 113t-97 165.5t-33.5 199.5q0 120 42.5 225.5t118 184.5t179.5 124.5t226 45.5q119 0 212 -42.5t156.5 -114.5t96.5 -166.5t33 -198.5q0 -121 -43 -226.5t-119 -183.5t-180 -123t-226 -45zM623 132q73 0 132.5 29.5t102 80.5t66 120.5
t23.5 149.5q0 79 -23 153.5t-66.5 133t-106.5 94t-142 35.5q-73 0 -132.5 -29.5t-102 -81t-66 -121.5t-23.5 -150q0 -79 23 -153.5t66.5 -132.5t106 -93t142.5 -35zM588 1190l-63.5 79l-64.5 78l-68.5 79l-75.5 82l188 76q63 -75 118 -167t94 -187z" />
    <glyph glyph-name="oacute" unicode="&#xf3;" horiz-adv-x="1232" 
d="M581 -20q-118 0 -210 42t-155.5 113t-97 165.5t-33.5 199.5q0 120 42.5 225.5t118 184.5t179.5 124.5t226 45.5q119 0 212 -42.5t156.5 -114.5t96.5 -166.5t33 -198.5q0 -121 -43 -226.5t-119 -183.5t-180 -123t-226 -45zM623 132q73 0 132.5 29.5t102 80.5t66 120.5
t23.5 149.5q0 79 -23 153.5t-66.5 133t-106.5 94t-142 35.5q-73 0 -132.5 -29.5t-102 -81t-66 -121.5t-23.5 -150q0 -79 23 -153.5t66.5 -132.5t106 -93t142.5 -35zM508 1222l108 170.5t94 169.5l196 -34q-62 -95 -132.5 -179.5t-151.5 -156.5z" />
    <glyph glyph-name="ocircumflex" unicode="&#xf4;" horiz-adv-x="1232" 
d="M581 -20q-118 0 -210 42t-155.5 113t-97 165.5t-33.5 199.5q0 120 42.5 225.5t118 184.5t179.5 124.5t226 45.5q119 0 212 -42.5t156.5 -114.5t96.5 -166.5t33 -198.5q0 -121 -43 -226.5t-119 -183.5t-180 -123t-226 -45zM623 132q73 0 132.5 29.5t102 80.5t66 120.5
t23.5 149.5q0 79 -23 153.5t-66.5 133t-106.5 94t-142 35.5q-73 0 -132.5 -29.5t-102 -81t-66 -121.5t-23.5 -150q0 -79 23 -153.5t66.5 -132.5t106 -93t142.5 -35zM812 1190q-47 65 -98 122.5t-104 107.5l-46 -57l-52 -60t-55.5 -58.5t-56.5 -52.5l-108 30q75 91 129 167.5
t101 150.5l176 20q67 -78 124 -157t114 -173z" />
    <glyph glyph-name="odieresis" unicode="&#xf6;" horiz-adv-x="1232" 
d="M581 -20q-118 0 -210 42t-155.5 113t-97 165.5t-33.5 199.5q0 120 42.5 225.5t118 184.5t179.5 124.5t226 45.5q119 0 212 -42.5t156.5 -114.5t96.5 -166.5t33 -198.5q0 -121 -43 -226.5t-119 -183.5t-180 -123t-226 -45zM623 132q73 0 132.5 29.5t102 80.5t66 120.5
t23.5 149.5q0 79 -23 153.5t-66.5 133t-106.5 94t-142 35.5q-73 0 -132.5 -29.5t-102 -81t-66 -121.5t-23.5 -150q0 -79 23 -153.5t66.5 -132.5t106 -93t142.5 -35zM826 1320q-27 0 -49 10t-38 26.5t-24.5 39t-8.5 48.5q0 27 10.5 50.5t28 40.5t40.5 27t49 10
q53 0 86.5 -33.5t33.5 -90.5q0 -26 -9.5 -49t-26 -40.5t-40.5 -28t-52 -10.5zM406 1320q-29 0 -51.5 10t-38 26.5t-24 39t-8.5 48.5q0 27 10 50.5t27 40.5t40 27t49 10q53 0 87.5 -33.5t34.5 -90.5q0 -26 -9.5 -49t-26.5 -40.5t-40 -28t-50 -10.5z" />
    <glyph glyph-name="ugrave" unicode="&#xf9;" horiz-adv-x="1194" 
d="M155 1060h190v-672q0 -55 15.5 -100.5t43 -78.5t66 -51t85.5 -18q41 0 80.5 14t76 36.5t69 52t60.5 61.5v756h190v-1060h-148l-32 182l-79 -69.5t-89.5 -65t-100.5 -48.5t-111 -19q-68 0 -125.5 27t-100 76.5t-66.5 119t-24 153.5v704zM561 1190l-63.5 79l-64.5 78
l-68.5 79l-75.5 82l188 76q63 -75 118 -167t94 -187z" />
    <glyph glyph-name="uacute" unicode="&#xfa;" horiz-adv-x="1194" 
d="M155 1060h190v-672q0 -55 15.5 -100.5t43 -78.5t66 -51t85.5 -18q41 0 80.5 14t76 36.5t69 52t60.5 61.5v756h190v-1060h-148l-32 182l-79 -69.5t-89.5 -65t-100.5 -48.5t-111 -19q-68 0 -125.5 27t-100 76.5t-66.5 119t-24 153.5v704zM514 1222l108 170.5t94 169.5
l196 -34q-62 -95 -132.5 -179.5t-151.5 -156.5z" />
    <glyph glyph-name="ucircumflex" unicode="&#xfb;" horiz-adv-x="1194" 
d="M155 1060h190v-672q0 -55 15.5 -100.5t43 -78.5t66 -51t85.5 -18q41 0 80.5 14t76 36.5t69 52t60.5 61.5v756h190v-1060h-148l-32 182l-79 -69.5t-89.5 -65t-100.5 -48.5t-111 -19q-68 0 -125.5 27t-100 76.5t-66.5 119t-24 153.5v704zM798 1190q-47 65 -98 122.5
t-104 107.5l-46 -57l-52 -60t-55.5 -58.5t-56.5 -52.5l-108 30q75 91 129 167.5t101 150.5l176 20q67 -78 124 -157t114 -173z" />
    <glyph glyph-name="udieresis" unicode="&#xfc;" horiz-adv-x="1194" 
d="M155 1060h190v-672q0 -55 15.5 -100.5t43 -78.5t66 -51t85.5 -18q41 0 80.5 14t76 36.5t69 52t60.5 61.5v756h190v-1060h-148l-32 182l-79 -69.5t-89.5 -65t-100.5 -48.5t-111 -19q-68 0 -125.5 27t-100 76.5t-66.5 119t-24 153.5v704zM814 1320q-27 0 -49 10t-38 26.5
t-24.5 39t-8.5 48.5q0 27 10.5 50.5t28 40.5t40.5 27t49 10q53 0 86.5 -33.5t33.5 -90.5q0 -26 -9.5 -49t-26 -40.5t-40.5 -28t-52 -10.5zM394 1320q-29 0 -51.5 10t-38 26.5t-24 39t-8.5 48.5q0 27 10 50.5t27 40.5t40 27t49 10q53 0 87.5 -33.5t34.5 -90.5q0 -26 -9.5 -49
t-26.5 -40.5t-40 -28t-50 -10.5z" />
    <glyph glyph-name="yacute" unicode="&#xfd;" horiz-adv-x="1048" 
d="M39 1060h214l232 -716l48 -194h20l48 194l232 716h196l-596 -1596h-184l222 536h-36zM453 1222l108 170.5t94 169.5l196 -34q-62 -95 -132.5 -179.5t-151.5 -156.5z" />
    <glyph glyph-name="ydieresis" unicode="&#xff;" horiz-adv-x="1048" 
d="M39 1060h214l232 -716l48 -194h20l48 194l232 716h196l-596 -1596h-184l222 536h-36zM767 1320q-27 0 -49 10t-38 26.5t-24.5 39t-8.5 48.5q0 27 10.5 50.5t28 40.5t40.5 27t49 10q53 0 86.5 -33.5t33.5 -90.5q0 -26 -9.5 -49t-26 -40.5t-40.5 -28t-52 -10.5zM347 1320
q-29 0 -51.5 10t-38 26.5t-24 39t-8.5 48.5q0 27 10 50.5t27 40.5t40 27t49 10q53 0 87.5 -33.5t34.5 -90.5q0 -26 -9.5 -49t-26.5 -40.5t-40 -28t-50 -10.5z" />
    <glyph glyph-name="ccaron" unicode="&#x10d;" horiz-adv-x="990" 
d="M913 90q-62 -48 -147.5 -79t-186.5 -31q-108 0 -195.5 37.5t-149.5 104.5t-95.5 160.5t-33.5 204.5q0 129 44 238t120.5 188t180.5 123t223 44q28 0 60.5 -2.5t64.5 -8.5t62 -14.5t53 -20.5l-40 -166l-22 -10q-20 15 -45.5 28t-54 22t-59 14.5t-59.5 5.5
q-67 0 -126.5 -26.5t-104.5 -77t-71 -124t-26 -167.5q0 -96 27.5 -169t75.5 -123t114 -75.5t143 -25.5q46 0 111 11.5t137 46.5v-108zM384 1560q47 -65 97 -121.5t103 -106.5l46.5 55.5l52.5 59.5t55.5 58.5t55.5 52.5l110 -28l-70.5 -87.5l-60.5 -80.5l-53 -77l-48 -75
l-176 -20q-34 39 -64.5 78t-59 79.5l-57 83l-57.5 89.5z" />
    <glyph glyph-name="caron" unicode="&#x2c7;" horiz-adv-x="990" 
d="M384 1560q47 -65 97 -121.5t103 -106.5l46.5 55.5l52.5 59.5t55.5 58.5t55.5 52.5l110 -28l-70.5 -87.5l-60.5 -80.5l-53 -77l-48 -75l-176 -20q-34 39 -64.5 78t-59 79.5l-57 83l-57.5 89.5z" />
    <glyph glyph-name="ecaron" unicode="&#x11b;" 
d="M993 90q-38 -27 -87.5 -47.5t-102.5 -34.5t-106.5 -21t-99.5 -7q-102 0 -194 34t-161 100t-110 163.5t-41 224.5q0 131 43.5 238t116.5 182.5t168.5 116.5t200.5 41q85 0 158.5 -28.5t128 -85.5t85.5 -142.5t31 -199.5q0 -23 -2 -55t-8 -67h-724q0 -86 30.5 -153.5
t86 -114t132.5 -70.5t170 -24q23 0 56 2t71 8t79 17.5t79 30.5v-108zM843 620q0 75 -21 132.5t-57 96.5t-83.5 59t-101.5 20q-60 0 -113 -24.5t-92.5 -66.5t-62.5 -98t-23 -119h554zM379 1560q47 -65 97 -121.5t103 -106.5l46.5 55.5l52.5 59.5t55.5 58.5t55.5 52.5l110 -28
l-70.5 -87.5l-60.5 -80.5l-53 -77l-48 -75l-176 -20q-34 39 -64.5 78t-59 79.5l-57 83l-57.5 89.5z" />
    <glyph glyph-name="dotlessi" unicode="&#x131;" horiz-adv-x="544" 
d="M166 706q0 52 -1 94t-3 81t-4.5 76.5l-5.5 80.5l220 46v-1084h-206v706z" />
    <glyph glyph-name="nacute" unicode="&#x144;" horiz-adv-x="1230" 
d="M180 1060h148l30 -184q35 33 80 69t97.5 66t111.5 49.5t121 19.5q73 0 131.5 -28t100 -78.5t64 -120t22.5 -151.5v-702h-190v684q0 58 -16.5 102.5t-45.5 74t-69 44.5t-87 15q-83 0 -157 -44t-151 -116v-760h-190v1060zM514 1222l108 170.5t94 169.5l196 -34
q-62 -95 -132.5 -179.5t-151.5 -156.5z" />
    <glyph glyph-name="ncaron" unicode="&#x148;" horiz-adv-x="1230" 
d="M180 1060h148l30 -184q35 33 80 69t97.5 66t111.5 49.5t121 19.5q73 0 131.5 -28t100 -78.5t64 -120t22.5 -151.5v-702h-190v684q0 58 -16.5 102.5t-45.5 74t-69 44.5t-87 15q-83 0 -157 -44t-151 -116v-760h-190v1060zM426 1560q47 -65 97 -121.5t103 -106.5l46.5 55.5
l52.5 59.5t55.5 58.5t55.5 52.5l110 -28l-70.5 -87.5l-60.5 -80.5l-53 -77l-48 -75l-176 -20q-34 39 -64.5 78t-59 79.5l-57 83l-57.5 89.5z" />
    <glyph glyph-name="racute" unicode="&#x155;" horiz-adv-x="800" 
d="M161 1060h148l30 -318l27.5 51.5l29 51.5l28.5 47l25 38q22 31 49.5 58.5t59.5 48t68 32t77 11.5q29 0 55 -6.5t43 -21.5l-20 -178q-18 5 -35.5 6.5t-34.5 1.5q-71 0 -123.5 -23t-94 -62.5t-75 -92.5t-67.5 -114v-590h-190v1060zM331 1222l108 170.5t94 169.5l196 -34
q-62 -95 -132.5 -179.5t-151.5 -156.5z" />
    <glyph glyph-name="rcaron" unicode="&#x159;" horiz-adv-x="800" 
d="M161 1060h148l30 -318l27.5 51.5l29 51.5l28.5 47l25 38q22 31 49.5 58.5t59.5 48t68 32t77 11.5q29 0 55 -6.5t43 -21.5l-20 -178q-18 5 -35.5 6.5t-34.5 1.5q-71 0 -123.5 -23t-94 -62.5t-75 -92.5t-67.5 -114v-590h-190v1060zM257 1560q47 -65 97 -121.5t103 -106.5
l46.5 55.5l52.5 59.5t55.5 58.5t55.5 52.5l110 -28l-70.5 -87.5l-60.5 -80.5l-53 -77l-48 -75l-176 -20q-34 39 -64.5 78t-59 79.5l-57 83l-57.5 89.5z" />
    <glyph glyph-name="sacute" unicode="&#x15b;" horiz-adv-x="876" 
d="M121 208l18 12q38 -21 80 -37.5t83 -27.5t80.5 -17t73.5 -6q47 0 86 11t66.5 31t43 48t15.5 62q0 43 -24 71.5t-63 49t-89 35.5l-102 31t-102 36t-89 50.5t-63 74t-24 106.5q0 70 31 132.5t87 109t134.5 73.5t174.5 27q23 0 55 -2t68 -6.5t73.5 -12t72.5 -18.5l-40 -156
l-24 -14q-28 15 -61.5 26t-68 17.5t-67.5 10t-58 3.5q-46 0 -83.5 -10t-64.5 -28.5t-42 -45t-15 -60.5q0 -44 24 -73t64 -49.5t90.5 -35.5l103.5 -31t103.5 -36t90.5 -51t64 -75.5t24 -108.5q0 -75 -33.5 -138t-92 -109t-137 -71.5t-168.5 -25.5q-77 0 -164.5 18t-170.5 50z
M355 1222l108 170.5t94 169.5l196 -34q-62 -95 -132.5 -179.5t-151.5 -156.5z" />
    <glyph glyph-name="zacute" unicode="&#x17a;" horiz-adv-x="946" 
d="M47 76l478 692l98 128v20l-190 -8h-363l40 152h751v-76l-472 -678l-108 -142v-20l176 8h434l-40 -152h-804v76zM387 1222l108 170.5t94 169.5l196 -34q-62 -95 -132.5 -179.5t-151.5 -156.5z" />
    <glyph glyph-name="zcaron" unicode="&#x17e;" horiz-adv-x="946" 
d="M47 76l478 692l98 128v20l-190 -8h-363l40 152h751v-76l-472 -678l-108 -142v-20l176 8h434l-40 -152h-804v76zM307 1560q47 -65 97 -121.5t103 -106.5l46.5 55.5l52.5 59.5t55.5 58.5t55.5 52.5l110 -28l-70.5 -87.5l-60.5 -80.5l-53 -77l-48 -75l-176 -20
q-34 39 -64.5 78t-59 79.5l-57 83l-57.5 89.5z" />
    <glyph glyph-name="cacute" unicode="&#x107;" horiz-adv-x="990" 
d="M913 90q-62 -48 -147.5 -79t-186.5 -31q-108 0 -195.5 37.5t-149.5 104.5t-95.5 160.5t-33.5 204.5q0 129 44 238t120.5 188t180.5 123t223 44q28 0 60.5 -2.5t64.5 -8.5t62 -14.5t53 -20.5l-40 -166l-22 -10q-20 15 -45.5 28t-54 22t-59 14.5t-59.5 5.5
q-67 0 -126.5 -26.5t-104.5 -77t-71 -124t-26 -167.5q0 -96 27.5 -169t75.5 -123t114 -75.5t143 -25.5q46 0 111 11.5t137 46.5v-108zM483 1222l108 170.5t94 169.5l196 -34q-62 -95 -132.5 -179.5t-151.5 -156.5z" />
    <glyph glyph-name="uni021A" unicode="&#x21a;" horiz-adv-x="1264" 
d="M502 -492q47 41 72.5 92t33.5 102q-17 12 -40.5 18.5t-49.5 11.5q-11 20 -14.5 37t-3.5 31q0 24 9.5 45t26 36t38.5 24t48 9q23 0 46 -7.5t41 -25t29.5 -46t11.5 -69.5q0 -35 -11.5 -75.5t-36 -81t-62.5 -78t-90 -67.5zM828 0h-196v1310h-486l30 155h1158l-30 -155h-476
v-1310z" />
    <glyph glyph-name="uni021B" unicode="&#x21b;" horiz-adv-x="826" 
d="M364 -492q47 41 73 92t31 102q-15 12 -38.5 18.5t-47.5 11.5q-12 20 -16 37t-4 31q0 24 9.5 45t26 36t39.5 24t49 9q23 0 46 -7.5t41 -25t29.5 -46t11.5 -69.5q0 -35 -11.5 -75.5t-36 -81t-63 -78t-91.5 -67.5zM230 908h-214l16 98q78 16 125 40.5t77.5 61.5t51 89.5
t46.5 125.5h88v-263h384l-40 -152h-344v-592q0 -48 14.5 -81.5t40.5 -54.5t63 -30.5t82 -9.5q46 0 91.5 8.5t86.5 23.5v-108q-63 -41 -132.5 -62.5t-141.5 -21.5q-67 0 -121 19t-92.5 55t-59.5 89.5t-21 122.5v642z" />
    <glyph glyph-name="emacron" unicode="&#x113;" 
d="M993 90q-38 -27 -87.5 -47.5t-102.5 -34.5t-106.5 -21t-99.5 -7q-102 0 -194 34t-161 100t-110 163.5t-41 224.5q0 131 43.5 238t116.5 182.5t168.5 116.5t200.5 41q85 0 158.5 -28.5t128 -85.5t85.5 -142.5t31 -199.5q0 -23 -2 -55t-8 -67h-724q0 -86 30.5 -153.5
t86 -114t132.5 -70.5t170 -24q23 0 56 2t71 8t79 17.5t79 30.5v-108zM843 620q0 75 -21 132.5t-57 96.5t-83.5 59t-101.5 20q-60 0 -113 -24.5t-92.5 -66.5t-62.5 -98t-23 -119h554zM322 1406l502 18l-30 -144h-490z" />
    <glyph glyph-name="uni02C9" unicode="&#x2c9;" 
d="M318 1406l502 18l-30 -144h-490z" />
    <glyph glyph-name="amacron" unicode="&#x101;" horiz-adv-x="1070" 
d="M723 158l-60.5 -51.5t-80 -58.5t-97 -48t-111.5 -20q-53 0 -103.5 18.5t-89.5 55t-62.5 90.5t-23.5 124q0 43 10.5 87t35.5 84.5t65.5 76t100 62t140.5 41.5t186 15h90v92q0 46 -16 83t-44.5 63.5t-68 41t-87.5 14.5q-36 0 -76.5 -8t-81 -23t-77.5 -35t-65 -44l-18 10
l-40 146q58 32 112 52.5t103.5 32.5t94.5 16.5t86 4.5q187 0 277.5 -77.5t90.5 -232.5v-522q0 -13 2 -31.5t9.5 -35.5t22 -29t39.5 -12q14 0 37 4.5t46 15.5v-106q-48 -33 -96.5 -53.5t-93.5 -20.5q-41 0 -67.5 16.5t-44 42.5t-27.5 57.5t-17 61.5zM723 518h-76
q-117 0 -186.5 -16.5t-106 -44t-48 -63.5t-11.5 -75q0 -42 12 -75t33.5 -56.5t51.5 -35.5t65 -12q27 0 55.5 6.5t61 23t69 44.5t80.5 72v232zM289 1406l502 18l-30 -144h-490z" />
    <glyph glyph-name="thorn" unicode="&#xfe;" horiz-adv-x="1246" 
d="M160 1196q0 51 -1 98.5t-2.5 94.5t-4 94.5t-4.5 98.5l218 46v-276q0 -107 -2 -212t-10 -214l20 -2l66.5 53.5t81 53t97.5 41t115 16.5q98 0 175.5 -42t131 -113t81.5 -164t28 -195q0 -134 -45.5 -243.5t-125.5 -187.5t-189.5 -120.5t-237.5 -42.5q-38 0 -90 4t-96 10v-88
q0 -61 1 -115.5t2.5 -107l3 -105t3.5 -108.5l-220 -10q3 115 5 229t-1 229v1278zM366 174q34 -16 67 -25.5t61.5 -15t53 -7.5t42.5 -2q83 0 147.5 32.5t108.5 88t67 130t23 159.5q0 78 -20 149t-58 125t-92.5 86t-123.5 32q-66 0 -138 -31.5t-138 -96.5v-624z" />
    <glyph glyph-name="atilde" unicode="&#xe3;" horiz-adv-x="1070" 
d="M723 158l-60.5 -51.5t-80 -58.5t-97 -48t-111.5 -20q-53 0 -103.5 18.5t-89.5 55t-62.5 90.5t-23.5 124q0 43 10.5 87t35.5 84.5t65.5 76t100 62t140.5 41.5t186 15h90v92q0 46 -16 83t-44.5 63.5t-68 41t-87.5 14.5q-36 0 -76.5 -8t-81 -23t-77.5 -35t-65 -44l-18 10
l-40 146q58 32 112 52.5t103.5 32.5t94.5 16.5t86 4.5q187 0 277.5 -77.5t90.5 -232.5v-522q0 -13 2 -31.5t9.5 -35.5t22 -29t39.5 -12q14 0 37 4.5t46 15.5v-106q-48 -33 -96.5 -53.5t-93.5 -20.5q-41 0 -67.5 16.5t-44 42.5t-27.5 57.5t-17 61.5zM723 518h-76
q-117 0 -186.5 -16.5t-106 -44t-48 -63.5t-11.5 -75q0 -42 12 -75t33.5 -56.5t51.5 -35.5t65 -12q27 0 55.5 6.5t61 23t69 44.5t80.5 72v232zM211 1226q-5 70 10.5 119t42.5 80.5t61.5 46t67.5 14.5q43 0 78.5 -19t65.5 -42l54.5 -42t45.5 -19q11 0 21.5 7t17.5 20.5
t10 34.5t-1 50l124 14q7 -65 -5.5 -113.5t-38 -80.5t-59.5 -48t-71 -16q-48 0 -84.5 19t-65.5 42l-52 42t-44 19q-12 0 -23 -8t-19 -23t-12 -37t-2 -50z" />
    <glyph glyph-name="tilde" unicode="&#x2dc;" horiz-adv-x="1078" 
d="M216 1226q-5 70 10.5 119t42.5 80.5t61.5 46t67.5 14.5q43 0 78.5 -19t65.5 -42l54.5 -42t45.5 -19q11 0 21.5 7t17.5 20.5t10 34.5t-1 50l124 14q7 -65 -5.5 -113.5t-38 -80.5t-59.5 -48t-71 -16q-48 0 -84.5 19t-65.5 42l-52 42t-44 19q-12 0 -23 -8t-19 -23t-12 -37
t-2 -50z" />
    <glyph glyph-name="ntilde" unicode="&#xf1;" horiz-adv-x="1230" 
d="M180 1060h148l30 -184q35 33 80 69t97.5 66t111.5 49.5t121 19.5q73 0 131.5 -28t100 -78.5t64 -120t22.5 -151.5v-702h-190v684q0 58 -16.5 102.5t-45.5 74t-69 44.5t-87 15q-83 0 -157 -44t-151 -116v-760h-190v1060zM320 1226q-5 70 10.5 119t42.5 80.5t61.5 46
t67.5 14.5q43 0 78.5 -19t65.5 -42l54.5 -42t45.5 -19q11 0 21.5 7t17.5 20.5t10 34.5t-1 50l124 14q7 -65 -5.5 -113.5t-38 -80.5t-59.5 -48t-71 -16q-48 0 -84.5 19t-65.5 42l-52 42t-44 19q-12 0 -23 -8t-19 -23t-12 -37t-2 -50z" />
    <glyph glyph-name="otilde" unicode="&#xf5;" horiz-adv-x="1232" 
d="M581 -20q-118 0 -210 42t-155.5 113t-97 165.5t-33.5 199.5q0 120 42.5 225.5t118 184.5t179.5 124.5t226 45.5q119 0 212 -42.5t156.5 -114.5t96.5 -166.5t33 -198.5q0 -121 -43 -226.5t-119 -183.5t-180 -123t-226 -45zM623 132q73 0 132.5 29.5t102 80.5t66 120.5
t23.5 149.5q0 79 -23 153.5t-66.5 133t-106.5 94t-142 35.5q-73 0 -132.5 -29.5t-102 -81t-66 -121.5t-23.5 -150q0 -79 23 -153.5t66.5 -132.5t106 -93t142.5 -35zM320 1226q-5 70 10.5 119t42.5 80.5t61.5 46t67.5 14.5q43 0 78.5 -19t65.5 -42l54.5 -42t45.5 -19
q11 0 21.5 7t17.5 20.5t10 34.5t-1 50l124 14q7 -65 -5.5 -113.5t-38 -80.5t-59.5 -48t-71 -16q-48 0 -84.5 19t-65.5 42l-52 42t-44 19q-12 0 -23 -8t-19 -23t-12 -37t-2 -50z" />
    <glyph glyph-name="imacron" unicode="&#x12b;" horiz-adv-x="544" 
d="M41 1406l502 18l-30 -144h-490zM166 706q0 52 -1 94t-3 81t-4.5 76.5l-5.5 80.5l220 46v-1084h-206v706z" />
    <glyph glyph-name="Ncommaaccent" unicode="&#x145;" horiz-adv-x="1640" 
d="M706 -492q47 41 72.5 92t33.5 102q-17 12 -40.5 18.5t-49.5 11.5q-11 20 -14.5 37t-3.5 31q0 24 9.5 45t26 36t38.5 24t48 9q23 0 46 -7.5t41 -25t29.5 -46t11.5 -69.5q0 -35 -11.5 -75.5t-36 -81t-62.5 -78t-90 -67.5zM182 0v1465h285l691 -1000l100 -180h20l-14 204
v976h179v-1465h-166l-820 1180l-90 174h-20l14 -204v-1150h-179z" />
    <glyph glyph-name="rcommaaccent" unicode="&#x157;" horiz-adv-x="800" 
d="M152 -492q47 41 73 92t31 102q-15 12 -38.5 18.5t-47.5 11.5q-12 20 -16 37t-4 31q0 24 9.5 45t26 36t39.5 24t49 9q23 0 46 -7.5t41 -25t29.5 -46t11.5 -69.5q0 -35 -11.5 -75.5t-36 -81t-63 -78t-91.5 -67.5zM160 1060h148l30 -318l27.5 51.5l29 51.5l28.5 47l25 38
q22 31 49.5 58.5t59.5 48t68 32t77 11.5q29 0 55 -6.5t43 -21.5l-20 -178q-18 5 -35.5 6.5t-34.5 1.5q-71 0 -123.5 -23t-94 -62.5t-75 -92.5t-67.5 -114v-590h-190v1060z" />
    <glyph glyph-name="Rcommaaccent" unicode="&#x156;" horiz-adv-x="1316" 
d="M548 -492q47 41 72.5 92t33.5 102q-17 12 -40.5 18.5t-49.5 11.5q-11 20 -14.5 37t-3.5 31q0 24 9.5 45t26 36t38.5 24t48 9q23 0 46 -7.5t41 -25t29.5 -46t11.5 -69.5q0 -35 -11.5 -75.5t-36 -81t-62.5 -78t-90 -67.5zM414 584v-584h-196v1465h414q108 0 198 -30
t154 -82.5t99.5 -123.5t35.5 -153q0 -72 -26 -134.5t-68 -115t-95.5 -94.5t-107.5 -73l431 -659h-235l-335 584h-269zM414 739h325q42 23 75.5 56t56.5 72.5t35.5 83.5t12.5 90q0 57 -20 106.5t-60.5 85.5t-101.5 56.5t-143 20.5h-180v-571z" />
    <glyph glyph-name="Lcommaaccent" unicode="&#x13b;" horiz-adv-x="1082" 
d="M498 -492q47 41 72.5 92t33.5 102q-17 12 -40.5 18.5t-49.5 11.5q-11 20 -14.5 37t-3.5 31q0 24 9.5 45t26 36t38.5 24t48 9q23 0 46 -7.5t41 -25t29.5 -46t11.5 -69.5q0 -35 -11.5 -75.5t-36 -81t-62.5 -78t-90 -67.5zM208 0v1465h196v-1310h606l-30 -155h-772z" />
    <glyph glyph-name="lcommaaccent" unicode="&#x13c;" horiz-adv-x="542" 
d="M160 -492q47 41 73 92t31 102q-15 12 -38.5 18.5t-47.5 11.5q-12 20 -16 37t-4 31q0 24 9.5 45t26 36t39.5 24t49 9q23 0 46 -7.5t41 -25t29.5 -46t11.5 -69.5q0 -35 -11.5 -75.5t-36 -81t-63 -78t-91.5 -67.5zM186 1602h190v-1602h-190v1602z" />
    <glyph glyph-name="ncommaaccent" unicode="&#x146;" horiz-adv-x="1230" 
d="M522 -492q47 41 73 92t31 102q-15 12 -38.5 18.5t-47.5 11.5q-12 20 -16 37t-4 31q0 24 9.5 45t26 36t39.5 24t49 9q23 0 46 -7.5t41 -25t29.5 -46t11.5 -69.5q0 -35 -11.5 -75.5t-36 -81t-63 -78t-91.5 -67.5zM180 1060h148l30 -184q35 33 80 69t97.5 66t111.5 49.5
t121 19.5q73 0 131.5 -28t100 -78.5t64 -120t22.5 -151.5v-702h-190v684q0 58 -16.5 102.5t-45.5 74t-69 44.5t-87 15q-83 0 -157 -44t-151 -116v-760h-190v1060z" />
    <glyph glyph-name="Gcommaaccent" unicode="&#x122;" horiz-adv-x="1518" 
d="M756 -492q47 41 72.5 92t33.5 102q-17 12 -40.5 18.5t-49.5 11.5q-11 20 -14.5 37t-3.5 31q0 24 9.5 45t26 36t38.5 24t48 9q23 0 46 -7.5t41 -25t29.5 -46t11.5 -69.5q0 -35 -11.5 -75.5t-36 -81t-62.5 -78t-90 -67.5zM1360 75q-139 -54 -262 -74.5t-222 -20.5
q-167 0 -304 50.5t-234.5 144t-150.5 226t-53 295.5q0 123 30 229.5t84 194t129.5 155.5t166 114.5t193.5 71t213 24.5q72 0 169 -12.5t207 -45.5l-33 -172l-20 -10q-110 50 -204 67.5t-161 17.5q-128 0 -233 -46.5t-180 -127t-116 -189t-41 -231.5q0 -117 38 -225.5
t110.5 -192t178.5 -133.5t243 -50q60 0 130.5 11t145.5 34v506h176v-611z" />
    <glyph glyph-name="gcommaaccent" unicode="&#x123;" horiz-adv-x="1158" 
d="M686 1578q-47 -39 -73 -92t-31 -104q17 -11 39.5 -18t48.5 -10q20 -40 20 -68q0 -23 -10 -44t-27 -37t-40 -25.5t-49 -9.5q-23 0 -46 8t-41 25.5t-29.5 45.5t-11.5 69q0 35 11.5 75.5t36.5 81t63.5 78t92.5 67.5zM427 -60q-26 -13 -55.5 -32t-54.5 -42.5t-42 -52
t-17 -59.5q0 -32 19.5 -60.5t57 -49.5t92.5 -33.5t126 -12.5q81 0 145 16t108 44t67 64.5t23 77.5q0 37 -18 63.5t-48.5 43.5t-71 25t-84.5 8h-247zM290 -40q-31 10 -58 25t-47 33.5t-31.5 42t-11.5 50.5q0 33 16.5 62.5t43 57t60 52t68.5 47.5q-111 54 -162.5 142
t-51.5 191q0 64 18.5 120t51.5 102.5t77 82.5t95 61t106.5 38t110.5 13q66 0 128 -17t104 -44q16 9 39.5 17t49.5 13t52.5 8t49.5 3h180l-40 -150h-236q7 -4 20.5 -22.5t27 -48t24 -68.5t10.5 -83q0 -81 -38.5 -152.5t-101 -124.5t-143 -84t-164.5 -31q-22 0 -44 2t-47 5
q-18 -11 -38.5 -25t-37 -30.5t-27.5 -35t-11 -38.5q0 -32 29.5 -52t80.5 -20h283q72 0 136 -18.5t111.5 -53t75.5 -82.5t28 -106q0 -68 -39 -138.5t-113 -128.5t-181.5 -94.5t-245.5 -36.5q-91 0 -169.5 17t-136 48t-90.5 75t-33 98q0 33 12.5 64t32 58t44 51t49 43.5t47 35
zM296 694q0 -54 19 -101t52.5 -81.5t80.5 -54t103 -19.5q53 0 99 18t80.5 50t54 77.5t19.5 101.5q0 54 -19 100.5t-53 80t-81 53t-103 19.5q-53 0 -98.5 -17.5t-80 -49t-54 -77t-19.5 -100.5z" />
    <glyph glyph-name="Thorn" unicode="&#xde;" horiz-adv-x="1256" 
d="M202 0q6 189 9 373t3 373q0 376 -12 748h224q-5 -71 -6.5 -142t-3.5 -142q50 5 91.5 6.5t76.5 1.5q139 0 245 -31t177.5 -87.5t107.5 -135t36 -172.5q0 -105 -42 -194t-114 -154t-166.5 -101.5t-199.5 -36.5q-26 0 -45.5 0.5t-42.5 3.5l14 142q21 -2 43.5 -2h40.5
q73 0 127 24t89.5 65t52.5 96t17 117q0 74 -23 133t-66.5 100t-105.5 63t-139 22h-43t-39.5 -1t-41.5 -3t-50 -6q-1 -44 -2.5 -70.5l-2.5 -45t-1.5 -31.5t-1 -29t-0.5 -38.5v-59.5q0 -157 4 -358.5t10 -427.5h-220z" />
    <glyph glyph-name="ae" unicode="&#xe6;" horiz-adv-x="1676" 
d="M1556 128q-42 -44 -92 -73t-102 -46.5t-103 -25t-95 -7.5q-124 0 -227 50.5t-171 151.5q-50 -57 -103.5 -96.5t-106.5 -63.5t-102.5 -35t-89.5 -11q-53 0 -101.5 16t-86 49t-60 83t-22.5 118q0 64 25.5 122t91 107.5t178.5 88.5t289 64v110q0 46 -16 83t-43 63t-63.5 40
t-77.5 14q-60 0 -137 -30t-169 -98l-18 12l-38 142q67 38 124 62t106.5 37.5t92 18t79.5 4.5q64 0 114 -12t87.5 -35.5t65.5 -58t49 -80.5q38 55 82.5 92t91.5 58.5t95 30.5t93 9q94 0 175 -40t134.5 -112t72 -172t-11.5 -220h-692q-3 -104 28.5 -179.5t86 -125t125.5 -73.5
t148 -24q53 0 113.5 15t132.5 59zM1396 672q4 61 -15 110.5t-53 85t-79 55t-93 19.5q-47 0 -94 -19.5t-85.5 -57.5t-65 -94.5t-33.5 -130.5zM442 122q26 0 60 8.5t70.5 27.5t73.5 49t70 73q-17 47 -26.5 101t-9.5 119q-115 -16 -188.5 -39t-115.5 -51.5t-58 -63t-16 -72.5
t11.5 -66t31 -47.5t44.5 -29t53 -9.5z" />
    <glyph glyph-name="umacron" unicode="&#x16b;" horiz-adv-x="1194" 
d="M155 1060h190v-672q0 -55 15.5 -100.5t43 -78.5t66 -51t85.5 -18q41 0 80.5 14t76 36.5t69 52t60.5 61.5v756h190v-1060h-148l-32 182l-79 -69.5t-89.5 -65t-100.5 -48.5t-111 -19q-68 0 -125.5 27t-100 76.5t-66.5 119t-24 153.5v704zM348 1406l502 18l-30 -144h-490z
" />
    <glyph glyph-name="dotaccent" unicode="&#x2d9;" horiz-adv-x="794" 
d="M402 1314q-56 0 -91 36t-35 92q0 26 10.5 49.5t28.5 41t41.5 27.5t49.5 10q27 0 50 -9.5t40 -26.5t26.5 -40t9.5 -50q0 -28 -10 -51.5t-27.5 -41t-41 -27.5t-51.5 -10z" />
    <glyph glyph-name="edotaccent" unicode="&#x117;" 
d="M993 90q-38 -27 -87.5 -47.5t-102.5 -34.5t-106.5 -21t-99.5 -7q-102 0 -194 34t-161 100t-110 163.5t-41 224.5q0 131 43.5 238t116.5 182.5t168.5 116.5t200.5 41q85 0 158.5 -28.5t128 -85.5t85.5 -142.5t31 -199.5q0 -23 -2 -55t-8 -67h-724q0 -86 30.5 -153.5
t86 -114t132.5 -70.5t170 -24q23 0 56 2t71 8t79 17.5t79 30.5v-108zM843 620q0 75 -21 132.5t-57 96.5t-83.5 59t-101.5 20q-60 0 -113 -24.5t-92.5 -66.5t-62.5 -98t-23 -119h554zM562 1314q-56 0 -91 36t-35 92q0 26 10.5 49.5t28.5 41t41.5 27.5t49.5 10q27 0 50 -9.5
t40 -26.5t26.5 -40t9.5 -50q0 -28 -10 -51.5t-27.5 -41t-41 -27.5t-51.5 -10z" />
    <glyph glyph-name="omacron" unicode="&#x14d;" horiz-adv-x="1232" 
d="M581 -20q-118 0 -210 42t-155.5 113t-97 165.5t-33.5 199.5q0 120 42.5 225.5t118 184.5t179.5 124.5t226 45.5q119 0 212 -42.5t156.5 -114.5t96.5 -166.5t33 -198.5q0 -121 -43 -226.5t-119 -183.5t-180 -123t-226 -45zM623 132q73 0 132.5 29.5t102 80.5t66 120.5
t23.5 149.5q0 79 -23 153.5t-66.5 133t-106.5 94t-142 35.5q-73 0 -132.5 -29.5t-102 -81t-66 -121.5t-23.5 -150q0 -79 23 -153.5t66.5 -132.5t106 -93t142.5 -35zM382 1406l502 18l-30 -144h-490z" />
    <glyph glyph-name="zdotaccent" unicode="&#x17c;" horiz-adv-x="946" 
d="M47 76l478 692l98 128v20l-190 -8h-363l40 152h751v-76l-472 -678l-108 -142v-20l176 8h434l-40 -152h-804v76zM482 1314q-56 0 -91 36t-35 92q0 26 10.5 49.5t28.5 41t41.5 27.5t49.5 10q27 0 50 -9.5t40 -26.5t26.5 -40t9.5 -50q0 -28 -10 -51.5t-27.5 -41t-41 -27.5
t-51.5 -10z" />
    <glyph glyph-name="breve" unicode="&#x2d8;" horiz-adv-x="990" 
d="M812 1504q3 -75 -20.5 -130.5t-65.5 -91.5t-97 -54t-115 -18q-55 0 -105 15t-87.5 48t-58.5 84t-19 123l126 24q0 -46 14.5 -78t38.5 -52.5t54 -30t61 -9.5q26 0 53 8t49 26t36 45.5t14 66.5z" />
    <glyph glyph-name="abreve" unicode="&#x103;" horiz-adv-x="1070" 
d="M723 158l-60.5 -51.5t-80 -58.5t-97 -48t-111.5 -20q-53 0 -103.5 18.5t-89.5 55t-62.5 90.5t-23.5 124q0 43 10.5 87t35.5 84.5t65.5 76t100 62t140.5 41.5t186 15h90v92q0 46 -16 83t-44.5 63.5t-68 41t-87.5 14.5q-36 0 -76.5 -8t-81 -23t-77.5 -35t-65 -44l-18 10
l-40 146q58 32 112 52.5t103.5 32.5t94.5 16.5t86 4.5q187 0 277.5 -77.5t90.5 -232.5v-522q0 -13 2 -31.5t9.5 -35.5t22 -29t39.5 -12q14 0 37 4.5t46 15.5v-106q-48 -33 -96.5 -53.5t-93.5 -20.5q-41 0 -67.5 16.5t-44 42.5t-27.5 57.5t-17 61.5zM723 518h-76
q-117 0 -186.5 -16.5t-106 -44t-48 -63.5t-11.5 -75q0 -42 12 -75t33.5 -56.5t51.5 -35.5t65 -12q27 0 55.5 6.5t61 23t69 44.5t80.5 72v232zM807 1504q3 -75 -20.5 -130.5t-65.5 -91.5t-97 -54t-115 -18q-55 0 -105 15t-87.5 48t-58.5 84t-19 123l126 24q0 -46 14.5 -78
t38.5 -52.5t54 -30t61 -9.5q26 0 53 8t49 26t36 45.5t14 66.5z" />
    <glyph glyph-name="gbreve" unicode="&#x11f;" horiz-adv-x="1158" 
d="M428 -60q-26 -13 -55.5 -32t-54.5 -42.5t-42 -52t-17 -59.5q0 -32 19.5 -60.5t57 -49.5t92.5 -33.5t126 -12.5q81 0 145 16t108 44t67 64.5t23 77.5q0 37 -18 63.5t-48.5 43.5t-71 25t-84.5 8h-247zM291 -40q-31 10 -58 25t-47 33.5t-31.5 42t-11.5 50.5q0 33 16.5 62.5
t43 57t60 52t68.5 47.5q-111 54 -162.5 142t-51.5 191q0 64 18.5 120t51.5 102.5t77 82.5t95 61t106.5 38t110.5 13q66 0 128 -17t104 -44q16 9 39.5 17t49.5 13t52.5 8t49.5 3h180l-40 -150h-236q7 -4 20.5 -22.5t27 -48t24 -68.5t10.5 -83q0 -81 -38.5 -152.5t-101 -124.5
t-143 -84t-164.5 -31q-22 0 -44 2t-47 5q-18 -11 -38.5 -25t-37 -30.5t-27.5 -35t-11 -38.5q0 -32 29.5 -52t80.5 -20h283q72 0 136 -18.5t111.5 -53t75.5 -82.5t28 -106q0 -68 -39 -138.5t-113 -128.5t-181.5 -94.5t-245.5 -36.5q-91 0 -169.5 17t-136 48t-90.5 75t-33 98
q0 33 12.5 64t32 58t44 51t49 43.5t47 35zM297 694q0 -54 19 -101t52.5 -81.5t80.5 -54t103 -19.5q53 0 99 18t80.5 50t54 77.5t19.5 101.5q0 54 -19 100.5t-53 80t-81 53t-103 19.5q-53 0 -98.5 -17.5t-80 -49t-54 -77t-19.5 -100.5zM854 1504q3 -75 -20.5 -130.5
t-65.5 -91.5t-97 -54t-115 -18q-55 0 -105 15t-87.5 48t-58.5 84t-19 123l126 24q0 -46 14.5 -78t38.5 -52.5t54 -30t61 -9.5q26 0 53 8t49 26t36 45.5t14 66.5z" />
    <glyph glyph-name="aring" unicode="&#xe5;" horiz-adv-x="1070" 
d="M723 158l-60.5 -51.5t-80 -58.5t-97 -48t-111.5 -20q-53 0 -103.5 18.5t-89.5 55t-62.5 90.5t-23.5 124q0 43 10.5 87t35.5 84.5t65.5 76t100 62t140.5 41.5t186 15h90v92q0 46 -16 83t-44.5 63.5t-68 41t-87.5 14.5q-36 0 -76.5 -8t-81 -23t-77.5 -35t-65 -44l-18 10
l-40 146q58 32 112 52.5t103.5 32.5t94.5 16.5t86 4.5q187 0 277.5 -77.5t90.5 -232.5v-522q0 -13 2 -31.5t9.5 -35.5t22 -29t39.5 -12q14 0 37 4.5t46 15.5v-106q-48 -33 -96.5 -53.5t-93.5 -20.5q-41 0 -67.5 16.5t-44 42.5t-27.5 57.5t-17 61.5zM723 518h-76
q-117 0 -186.5 -16.5t-106 -44t-48 -63.5t-11.5 -75q0 -42 12 -75t33.5 -56.5t51.5 -35.5t65 -12q27 0 55.5 6.5t61 23t69 44.5t80.5 72v232zM470 1172q-50 0 -92 15.5t-73.5 43t-49 66t-17.5 85.5q0 48 19.5 91.5t54 76.5t83 52.5t107.5 19.5q54 0 97.5 -16.5t73.5 -45
t46.5 -67t16.5 -83.5q0 -50 -20.5 -93t-56.5 -75.5t-84.5 -51t-104.5 -18.5zM492 1264q23 0 43 9t34.5 25.5t22.5 39.5t8 50q0 28 -8 54t-23 45.5t-37 31t-50 11.5q-27 0 -46.5 -10.5t-31.5 -27.5t-18 -39.5t-6 -46.5q0 -26 7 -51.5t21 -45.5t35 -32.5t49 -12.5z" />
    <glyph glyph-name="ring" unicode="&#x2da;" horiz-adv-x="1018" 
d="M470 1172q-50 0 -92 15.5t-73.5 43t-49 66t-17.5 85.5q0 48 19.5 91.5t54 76.5t83 52.5t107.5 19.5q54 0 97.5 -16.5t73.5 -45t46.5 -67t16.5 -83.5q0 -50 -20.5 -93t-56.5 -75.5t-84.5 -51t-104.5 -18.5zM492 1264q23 0 43 9t34.5 25.5t22.5 39.5t8 50q0 28 -8 54
t-23 45.5t-37 31t-50 11.5q-27 0 -46.5 -10.5t-31.5 -27.5t-18 -39.5t-6 -46.5q0 -26 7 -51.5t21 -45.5t35 -32.5t49 -12.5z" />
    <glyph glyph-name="uring" unicode="&#x16f;" horiz-adv-x="1194" 
d="M155 1060h190v-672q0 -55 15.5 -100.5t43 -78.5t66 -51t85.5 -18q41 0 80.5 14t76 36.5t69 52t60.5 61.5v756h190v-1060h-148l-32 182l-79 -69.5t-89.5 -65t-100.5 -48.5t-111 -19q-68 0 -125.5 27t-100 76.5t-66.5 119t-24 153.5v704zM582 1172q-50 0 -92 15.5t-73.5 43
t-49 66t-17.5 85.5q0 48 19.5 91.5t54 76.5t83 52.5t107.5 19.5q54 0 97.5 -16.5t73.5 -45t46.5 -67t16.5 -83.5q0 -50 -20.5 -93t-56.5 -75.5t-84.5 -51t-104.5 -18.5zM604 1264q23 0 43 9t34.5 25.5t22.5 39.5t8 50q0 28 -8 54t-23 45.5t-37 31t-50 11.5
q-27 0 -46.5 -10.5t-31.5 -27.5t-18 -39.5t-6 -46.5q0 -26 7 -51.5t21 -45.5t35 -32.5t49 -12.5z" />
    <glyph glyph-name="ordfeminine" unicode="&#xaa;" horiz-adv-x="864" 
d="M513 697l-51.5 -44.5t-69 -50.5t-83 -41t-94.5 -17q-46 0 -89 16t-76.5 47.5t-53.5 77.5t-20 106q0 55 21.5 111.5t74 102.5t141.5 75t224 29h76v73q0 39 -13.5 70t-38 53t-58.5 33.5t-75 11.5q-30 0 -65 -7t-69.5 -19.5t-66 -30t-56.5 -37.5l-15 9l-34 129
q100 56 184.5 73.5t154.5 17.5q160 0 237 -66t77 -199v-442q0 -11 2 -26.5t8.5 -30t19 -25t33.5 -10.5q12 0 31.5 4.5t39.5 12.5v-95q-42 -29 -83.5 -46.5t-79.5 -17.5q-35 0 -57.5 14.5t-37.5 36.5t-23.5 49t-14.5 53zM513 1005h-66q-96 0 -154.5 -13.5t-90.5 -36
t-43 -52.5t-11 -64q0 -72 38.5 -112.5t98.5 -40.5q23 0 47.5 5.5t52.5 20t59.5 38.5t68.5 61v194z" />
    <glyph glyph-name="ordmasculine" unicode="&#xba;" horiz-adv-x="916" 
d="M426 664q-87 0 -153 31t-110 82.5t-66.5 118.5t-22.5 140q0 85 31 160.5t86.5 132t132 89t166.5 32.5q86 0 152 -30.5t110.5 -82t67 -119.5t22.5 -142q0 -86 -31.5 -161t-87 -130.5t-132 -88t-165.5 -32.5zM464 778q44 0 79.5 21t60.5 57t38.5 83.5t13.5 100.5
q0 56 -13.5 109.5t-39.5 95t-63.5 66.5t-85.5 25q-45 0 -81.5 -21.5t-62 -57.5t-39 -84t-13.5 -101q0 -57 14 -110t40.5 -94t64.5 -65.5t87 -24.5zM116 522h688l-20 -108h-688z" />
    <glyph glyph-name="oslash" unicode="&#xf8;" horiz-adv-x="1232" 
d="M144 -48l102 146q-77 74 -117.5 177t-40.5 219q0 123 44.5 231t121 189t180 127.5t222.5 46.5q69 0 130 -16.5t112 -45.5l78 110l112 -42l-98 -138q77 -74 115.5 -177.5t38.5 -216.5q0 -122 -44.5 -229.5t-121 -187.5t-180.5 -126.5t-222 -46.5q-68 0 -126 15t-108 41
l-88 -126zM300 546q0 -72 17.5 -143.5t50.5 -128.5l424 600q-38 33 -83.5 52.5t-98.5 19.5q-71 0 -128.5 -32.5t-98 -87.5t-62 -127.5t-21.5 -152.5zM622 114q72 0 129.5 32t98 86.5t62.5 127t22 152.5q0 69 -17.5 138t-50.5 126l-418 -598q70 -64 174 -64z" />
    <glyph glyph-name="Oslash" unicode="&#xd8;" horiz-adv-x="1766" 
d="M856 -38q-103 0 -198 25.5t-176 72.5l-114 -160l-134 60l130 184q-110 98 -173 241.5t-63 326.5q0 118 28 224.5t79 197t123 163.5t159 124.5t187 79t208 27.5q101 0 195 -25t179 -73l110 152l134 -52l-130 -182q110 -98 174 -241.5t64 -324.5q0 -117 -27.5 -223
t-78 -197.5t-121.5 -165t-157.5 -126t-187.5 -80.5t-210 -28zM358 746q0 -133 34 -241t96 -189l686 958q-65 50 -142 77t-158 27q-108 0 -202 -46t-164 -129t-110 -199.5t-40 -257.5zM890 112q106 0 200.5 45.5t165 128.5t111.5 199.5t41 258.5q0 133 -36 240.5t-96 187.5
l-686 -958q66 -50 142.5 -76t157.5 -26z" />
    <glyph glyph-name="divide" unicode="&#xf7;" horiz-adv-x="1266" 
d="M1138 696l-38 -178h-972l24 154zM634 848q-27 0 -49.5 10.5t-38.5 28t-25 40t-9 47.5q0 26 10 49.5t27 41.5t40.5 28.5t50.5 10.5q53 0 87.5 -35t34.5 -91q0 -26 -9.5 -49.5t-26.5 -41.5t-40.5 -28.5t-51.5 -10.5zM634 88q-27 0 -49.5 10.5t-38.5 28t-25 40t-9 47.5
q0 26 10 49.5t27 41.5t40.5 28.5t50.5 10.5q53 0 87.5 -34.5t34.5 -91.5q0 -26 -9.5 -49.5t-26.5 -41.5t-40.5 -28.5t-51.5 -10.5z" />
    <glyph glyph-name="minus" unicode="&#x2212;" horiz-adv-x="1218" 
d="M152 672l938 24l-38 -178h-924z" />
    <glyph glyph-name="multiply" unicode="&#xd7;" horiz-adv-x="1242" 
d="M500 570l-177.5 182.5l-172.5 181.5l130 110l170.5 -176.5l173.5 -175.5l352 346l112 -84l-364 -360l184 -175l184 -169l-142 -122l-176.5 169.5l-173.5 172.5l-344 -340l-106 90z" />
    <glyph glyph-name="ccedilla" unicode="&#xe7;" horiz-adv-x="990" 
d="M938 116q-63 -60 -137.5 -92.5t-160.5 -43.5l-48 -84q69 -12 114.5 -50.5t45.5 -103.5q0 -56 -32 -99.5t-81 -72t-106.5 -42t-108.5 -10.5l-10 90q91 12 138.5 39.5t47.5 72.5q0 24 -13 40.5t-35.5 27t-52 15t-61.5 5.5l-8 14l88 158q-96 9 -174.5 49t-134 106
t-85.5 155.5t-30 197.5q0 133 45 242t123.5 187t185 120.5t230.5 42.5q25 0 56.5 -2t64.5 -6.5t66.5 -12.5t64.5 -21l-40 -172l-22 -10q-57 39 -116 56.5t-112 17.5q-71 0 -132 -27.5t-106.5 -79t-71.5 -125.5t-26 -166q0 -94 27.5 -167.5t75.5 -124.5t114 -77.5t143 -26.5
q44 0 99.5 12.5t126.5 47.5z" />
    <glyph glyph-name="Ccedilla" unicode="&#xc7;" horiz-adv-x="1446" 
d="M1340 146q-56 -48 -114.5 -80.5t-116 -53t-111.5 -30.5t-100 -14l-38 -72q34 -6 62.5 -18.5t49.5 -32t32.5 -45.5t11.5 -58q0 -56 -32 -99.5t-80 -72t-105.5 -42t-108.5 -10.5l-12 90q92 12 139 39.5t47 72.5q0 24 -12.5 40.5t-34 27t-50.5 15t-61 5.5l-10 14l80 144
q-144 7 -262.5 62t-203.5 151t-131.5 230t-46.5 299q0 134 30.5 246.5t85 203t129.5 159.5t164 115t187.5 69t201.5 23q77 0 177 -15t213 -53l-32 -176l-18 -10q-112 54 -207.5 79t-172.5 25q-110 0 -206.5 -45.5t-169 -127.5t-114.5 -195.5t-42 -249.5q0 -124 36 -237
t104 -199t166.5 -137t223.5 -51q37 0 85 5.5t100.5 18t106 33.5t102.5 53z" />
    <glyph glyph-name="eth" unicode="&#xf0;" horiz-adv-x="1258" 
d="M246 1228l73.5 33l70.5 31l70.5 30l73.5 30v14l-56.5 29.5l-68 36t-71 35t-66.5 27.5l86 132q91 -35 175.5 -82t162.5 -104l278 130l36 -102q-57 -27 -114 -50.5t-114 -43.5v-12q82 -65 150 -149t117 -181.5t76 -205.5t27 -222q0 -110 -23 -199.5t-63.5 -160
t-95.5 -121.5t-118.5 -84.5t-132.5 -50t-137 -16.5q-116 0 -207 43t-153.5 116t-95 168.5t-32.5 200.5q0 120 40.5 225.5t110.5 183.5t164.5 123.5t202.5 45.5q54 0 111.5 -13.5t110.5 -48.5l14 12q-36 65 -94 131.5t-132 128.5l-342 -162zM942 564q0 68 -9.5 134t-24.5 134
q-29 30 -61 50t-65 32t-66 17t-64 5q-82 0 -146 -29t-108.5 -81.5t-68 -124.5t-23.5 -157q0 -80 21 -157.5t62.5 -138t103 -97.5t141.5 -37q70 0 126.5 30t97 87t62.5 141t22 192z" />
    <glyph glyph-name="Eth" unicode="&#xd0;" horiz-adv-x="1702" 
d="M74 814l182 4q-2 157 -4.5 329t-7.5 337q70 7 144.5 12.5t142.5 9t125.5 5t95.5 1.5q197 0 349.5 -49.5t256.5 -142.5t158 -227t54 -303q0 -103 -21.5 -203.5t-66 -190t-112.5 -165.5t-161 -131.5t-211 -86.5t-262 -31q-16 0 -47 0.5t-72 1.5t-89 2.5t-97 3.5t-97.5 4.5
t-89.5 5.5q6 172 9 349t3 343h-192zM472 150q101 -14 179 -18t119 -4q148 0 256 50.5t177.5 136.5t103 199.5t33.5 239.5q0 140 -42.5 253t-123 192.5t-197.5 122t-265 42.5q-15 0 -43 -0.5t-62 -1.5t-69.5 -3t-65.5 -5q-8 -134 -10 -268.5t-2 -261.5l398 12l-28 -144h-370
q0 -134 2 -274t10 -268z" />
    <glyph glyph-name="Dcroat" unicode="&#x110;" horiz-adv-x="1702" 
d="M78 814l178 4q-2 157 -4.5 329t-7.5 337q70 7 144.5 12.5t142.5 9t125.5 5t95.5 1.5q197 0 349.5 -49.5t256.5 -142.5t158 -227t54 -303q0 -103 -21.5 -203.5t-66 -190t-112.5 -165.5t-161 -131.5t-211 -86.5t-262 -31q-16 0 -47 0.5t-72 1.5t-89 2.5t-97 3.5t-97.5 4.5
t-89.5 5.5q6 172 9 349t3 343h-192zM472 150q101 -14 179 -18t119 -4q148 0 256 50.5t177.5 136.5t103 199.5t33.5 239.5q0 140 -42.5 253t-123 192.5t-197.5 122t-265 42.5q-15 0 -43 -0.5t-62 -1.5t-69.5 -3t-65.5 -5q-8 -134 -10 -268.5t-2 -261.5l400 12l-28 -144h-372
q0 -134 2 -274t10 -268z" />
    <glyph glyph-name="dcroat" unicode="&#x111;" horiz-adv-x="1258" 
d="M484 1336l392 10q-2 59 -6.5 113.5t-7.5 122.5l222 46v-276l186 6l-30 -144h-156v-764q0 -64 1 -119t3 -106t5 -101.5t7 -105.5l-188 -40l-22 154q-5 0 -10.5 1t-11.5 1l-64.5 -53.5t-79.5 -52.5t-97 -40t-115 -16q-24 0 -46.5 2.5t-45.5 7.5q-77 19 -137.5 66.5
t-102.5 115.5t-64 151.5t-22 174.5q0 130 45 238.5t124.5 186t189.5 120.5t241 43q17 0 40 -1t48.5 -2.5t50.5 -3.5t47 -5v108v40h-408zM880 886q-72 30 -130.5 40t-97.5 10q-82 0 -146 -32.5t-108 -88t-67 -131t-23 -160.5q0 -78 20 -149t58 -125t93 -86t125 -32
q66 0 138.5 32.5t137.5 97.5v624z" />
    <glyph glyph-name="dcaron" unicode="&#x10f;" horiz-adv-x="1486" 
d="M1236 1214q47 39 73 91t31 103q-17 12 -39.5 18.5t-48.5 11.5q-18 39 -18 68q0 23 9.5 44t26 36.5t39.5 24.5t49 9q23 0 46 -7.5t41 -25t29.5 -46t11.5 -69.5q0 -35 -11.5 -75.5t-36 -81t-63 -78t-91.5 -67.5zM894 878q-74 32 -133 41t-97 9q-89 0 -158.5 -29.5
t-117.5 -82.5t-73 -127t-25 -163q0 -78 21 -148t60 -123t94 -84t123 -31q81 0 157.5 43.5t148.5 118.5v576zM894 1602h190v-1602h-148l-30 184q-34 -32 -76 -67.5t-93 -66t-110.5 -50.5t-126.5 -20q-96 0 -172 42.5t-129 113t-81 161.5t-28 189q0 129 46.5 238t127.5 188
t190 123.5t234 44.5q60 0 112.5 -8.5t93.5 -17.5v548z" />
    <glyph glyph-name="eogonek" unicode="&#x119;" 
d="M978 128q-30 -32 -66 -56t-74 -42h4q-43 -24 -81.5 -54t-67.5 -63t-46 -67.5t-17 -67.5q0 -42 26 -67t68 -25q18 0 45 6.5t53 21.5l42 -80q-42 -38 -90 -59t-102 -21q-41 0 -76 12t-60.5 34t-40.5 53.5t-15 70.5q0 63 37 128.5t111 125.5q-11 -2 -21 -2h-21
q-98 0 -187.5 33t-157 98t-107.5 162t-40 225q0 136 44 245t116.5 185.5t166 117t191.5 40.5q97 0 179.5 -40t136.5 -112t73 -172t-11 -220h-692q-4 -104 27.5 -179.5t85.5 -125t126 -73.5t149 -24q53 0 113 15t131 59zM820 672q3 61 -16 110.5t-53 85t-78.5 55t-92.5 19.5
q-47 0 -94 -19.5t-85.5 -57t-65 -93t-33.5 -128.5z" />
    <glyph glyph-name="ogonek" unicode="&#x2db;" horiz-adv-x="1980" 
d="M844 30q-43 -24 -81.5 -54t-67.5 -63t-46 -67.5t-17 -67.5q0 -42 26 -67t68 -25q20 0 46 6.5t52 21.5l42 -80q-41 -38 -89.5 -59t-102.5 -21q-40 0 -75 12t-61 34t-41 53.5t-15 70.5q0 83 66 170t188 158z" />
    <glyph glyph-name="kcommaaccent" unicode="&#x137;" horiz-adv-x="1128" 
d="M452 -492q47 41 73 92t31 102q-15 12 -38.5 18.5t-47.5 11.5q-12 20 -16 37t-4 31q0 24 9.5 45t26 36t39.5 24t49 9q23 0 46 -7.5t41 -25t29.5 -46t11.5 -69.5q0 -35 -11.5 -75.5t-36 -81t-63 -78t-91.5 -67.5zM162 1602h190v-1602h-190v1602zM854 0l-434 566l428 494
h206l-436 -479l472 -581h-236z" />
    <glyph glyph-name="Kcommaaccent" unicode="&#x136;" horiz-adv-x="1382" 
d="M576 -492q47 41 72.5 92t33.5 102q-17 12 -40.5 18.5t-49.5 11.5q-11 20 -14.5 37t-3.5 31q0 24 9.5 45t26 36t38.5 24t48 9q23 0 46 -7.5t41 -25t29.5 -46t11.5 -69.5q0 -35 -11.5 -75.5t-36 -81t-62.5 -78t-90 -67.5zM404 0h-196v1465h196v-1465zM1131 0l-634 740
l604 725h220l-630 -700l690 -765h-250z" />
    <glyph glyph-name="aogonek" unicode="&#x105;" horiz-adv-x="1070" 
d="M670 120q-35 -29 -71 -55.5t-74.5 -47t-79.5 -33t-85 -12.5q-50 0 -97.5 16.5t-85 49.5t-60.5 83.5t-23 118.5q0 63 25.5 121t91.5 107.5t179 88t288 63.5v110q0 46 -16 83t-43 63t-63.5 40t-77.5 14q-60 0 -136 -30t-170 -98l-18 12l-38 142q67 38 124.5 62t107 37.5
t93 18t83.5 4.5q175 0 265.5 -76.5t90.5 -231.5v-538q0 -14 2 -33.5t9.5 -37t21.5 -29.5t39 -12q14 0 31 3t31 9l34 -74q-21 -18 -42 -33.5t-44 -24.5q-35 -23 -64.5 -50.5t-51 -56t-34 -58t-12.5 -57.5q0 -42 26 -67t68 -25q20 0 46 6.5t52 21.5l44 -80q-42 -38 -90 -59
t-102 -21q-41 0 -76 12t-61.5 34t-41.5 53.5t-15 70.5q0 63 39 129.5t111 126.5q-42 11 -71.5 42.5t-38.5 93.5zM678 500q-115 -16 -188 -39t-115 -52t-57.5 -63.5t-15.5 -73.5q0 -37 11.5 -65t31 -47t46 -28.5t57.5 -9.5q50 0 106 27t124 87v264z" />
    <glyph glyph-name="Aogonek" unicode="&#x104;" horiz-adv-x="1404" 
d="M32 4l161.5 377l150.5 379l278 726l168 18l582 -1496l-96 -6q-35 -23 -66 -50.5t-53.5 -56.5t-35.5 -59t-13 -58q0 -42 26.5 -67t67.5 -25q20 0 46.5 6.5t53.5 21.5l42 -80q-42 -38 -90 -59t-102 -21q-41 0 -76 12t-61.5 34t-41.5 53.5t-15 70.5q0 66 43.5 136.5
t124.5 133.5l-67.5 225t-76.5 227q-32 1 -73.5 1.5t-84 0.5h-81.5h-65t-61.5 -1.5l-73.5 -3t-76.5 -4t-70.5 -3.5l-164 -440zM792 966q-33 86 -55 162.5t-37 147.5h-20q-14 -71 -37 -152.5t-55 -167.5l-134 -368q27 -1 59 -1.5t63 -0.5h58h44q26 0 58 0.5l65.5 1l67.5 1
t65 1.5z" />
    <glyph glyph-name="ohungarumlaut" unicode="&#x151;" horiz-adv-x="1232" 
d="M581 -20q-118 0 -210 42t-155.5 113t-97 165.5t-33.5 199.5q0 120 42.5 225.5t118 184.5t179.5 124.5t226 45.5q119 0 212 -42.5t156.5 -114.5t96.5 -166.5t33 -198.5q0 -121 -43 -226.5t-119 -183.5t-180 -123t-226 -45zM623 132q73 0 132.5 29.5t102 80.5t66 120.5
t23.5 149.5q0 79 -23 153.5t-66.5 133t-106.5 94t-142 35.5q-73 0 -132.5 -29.5t-102 -81t-66 -121.5t-23.5 -150q0 -79 23 -153.5t66.5 -132.5t106 -93t142.5 -35zM368 1236l95 164.5t79 161.5l180 -32q-57 -95 -119.5 -171t-136.5 -147zM684 1236q54 87 96.5 164.5
t77.5 161.5l180 -32q-57 -95 -119 -171t-137 -147z" />
    <glyph glyph-name="hungarumlaut" unicode="&#x2dd;" horiz-adv-x="1232" 
d="M368 1236l95 164.5t79 161.5l180 -32q-57 -95 -119.5 -171t-136.5 -147zM684 1236q54 87 96.5 164.5t77.5 161.5l180 -32q-57 -95 -119 -171t-137 -147z" />
    <glyph glyph-name="uhungarumlaut" unicode="&#x171;" horiz-adv-x="1194" 
d="M155 1060h190v-672q0 -55 15.5 -100.5t43 -78.5t66 -51t85.5 -18q41 0 80.5 14t76 36.5t69 52t60.5 61.5v756h190v-1060h-148l-32 182l-79 -69.5t-89.5 -65t-100.5 -48.5t-111 -19q-68 0 -125.5 27t-100 76.5t-66.5 119t-24 153.5v704zM367 1236l95 164.5t79 161.5
l180 -32q-57 -95 -119.5 -171t-136.5 -147zM683 1236q54 87 96.5 164.5t77.5 161.5l180 -32q-57 -95 -119 -171t-137 -147z" />
    <glyph glyph-name="lslash" unicode="&#x142;" horiz-adv-x="556" 
d="M10 640l164 132v424q0 51 -1.5 98.5t-3.5 94.5t-4.5 94.5t-4.5 98.5l218 46v-688l130 104l38 -118l-168 -136v-790h-204v620l-124 -100z" />
    <glyph glyph-name="Lslash" unicode="&#x141;" horiz-adv-x="1092" 
d="M22 598l200 142q0 184 -3 377.5t-9 376.5h230q-6 -151 -9 -302t-5 -306l270 194l38 -126l-308 -220v-98q0 -125 1.5 -248.5t6.5 -241.5q152 3 306.5 11t303.5 23l-34 -180h-800q5 154 7.5 298t4.5 290l-164 -118z" />
    <glyph glyph-name="lcaron" unicode="&#x13e;" horiz-adv-x="774" 
d="M526 1214q47 39 73 91t31 103q-17 12 -39.5 18.5t-48.5 11.5q-18 39 -18 68q0 23 9.5 44t26 36.5t39.5 24.5t49 9q23 0 46 -7.5t41 -25t29.5 -46t11.5 -69.5q0 -35 -11.5 -75.5t-36 -81t-63 -78t-91.5 -67.5zM186 1602h190v-1602h-190v1602z" />
    <glyph glyph-name="tcaron" unicode="&#x165;" horiz-adv-x="826" 
d="M602 1236q45 41 71 85.5t31 86.5q-17 12 -39.5 18.5t-48.5 11.5q-18 39 -18 68q0 23 9.5 44t26 36.5t39.5 24.5t49 9q23 0 46 -8t41 -24.5t29.5 -43.5t11.5 -64q0 -78 -51 -153.5t-151 -132.5zM230 908h-214l16 98q78 16 125 40.5t77.5 61.5t51 89.5t46.5 125.5h88v-263
h384l-40 -152h-344v-592q0 -48 14.5 -81.5t40.5 -54.5t63 -30.5t82 -9.5q46 0 91.5 8.5t86.5 23.5v-108q-63 -41 -132.5 -62.5t-141.5 -21.5q-67 0 -121 19t-92.5 55t-59.5 89.5t-21 122.5v642z" />
    <glyph glyph-name="uni0162" unicode="&#x162;" horiz-adv-x="1264" 
d="M682 0l-54 -104q33 -6 61.5 -18.5t49.5 -32t33 -45.5t12 -58q0 -56 -32 -99.5t-81 -72t-106.5 -42t-108.5 -10.5l-10 90q92 12 139 39.5t47 72.5q0 24 -13 40.5t-35 27t-51 15t-61 5.5l-10 14l100 178h-52q6 186 9 372t3 370q0 88 -0.5 161t-1.5 143.5t-2.5 143
t-3.5 158.5q-67 -1 -128 -2.5t-120 -4.5t-118.5 -7.5t-123.5 -11.5l28 174q76 -2 146 -3.5t138 -2t137.5 -0.5h146.5h157t153.5 0.5t153 2t156.5 3.5l-26 -174q-116 14 -238 19t-244 7q-2 -86 -3.5 -159t-2 -144t-0.5 -144.5v-158.5q0 -186 2.5 -371t7.5 -371h-54z" />
    <glyph glyph-name="uni0163" unicode="&#x163;" horiz-adv-x="826" 
d="M212 656q0 54 2 122t8 128h-174l14 102q58 16 100 42t73 63.5t54 86.5t43 110l98 8l-28 -288l382 36l-32 -160h-348v-568q0 -62 13.5 -103t37.5 -66.5t57 -36t72 -10.5q44 0 83.5 9t72.5 29l46 -78q-65 -60 -135 -84t-141 -24l-44 -78q69 -12 113.5 -50.5t44.5 -103.5
q0 -56 -32 -99.5t-80 -72t-105.5 -42t-108.5 -10.5l-12 90q92 12 139 39.5t47 72.5q0 24 -13 40.5t-35 27t-51 15t-61 5.5l-8 14l94 170q-88 26 -137 101.5t-49 206.5v356z" />
    <glyph glyph-name="uogonek" unicode="&#x173;" horiz-adv-x="1194" 
d="M160 704q0 46 -1 86t-2.5 79t-3.5 80t-5 89l216 46v-708q0 -56 16 -101t44 -76.5t66.5 -49t83.5 -17.5q68 0 133 38.5t121 95.5v438q0 46 -1 85.5t-2.5 78.5t-3.5 79.5t-5 90.5l216 46v-726q0 -50 1 -93t3 -83t5 -79.5t7 -82.5l-36 -10q-37 -23 -69.5 -51t-57 -58
t-39 -61.5t-14.5 -61.5q0 -42 26 -67t68 -25q20 0 46.5 6.5t53.5 21.5l42 -80q-42 -38 -90 -59t-102 -21q-41 0 -76 12t-61.5 34t-41.5 53.5t-15 70.5q0 69 46 142t134 136l-20 132q-3 0 -11.5 1t-10.5 1l-67.5 -54.5t-77 -53t-89.5 -40.5t-104 -16q-69 0 -128 27t-102 76.5
t-67.5 119t-24.5 153.5v356z" />
    <glyph glyph-name="Uogonek" unicode="&#x172;" horiz-adv-x="1572" 
d="M430 1494q-8 -128 -11 -251.5t-3 -254.5q0 -121 4.5 -240t7.5 -238q2 -74 19.5 -132t45.5 -101t66 -72.5t80 -48t87.5 -26.5t89.5 -8q72 0 139.5 22t119.5 68.5t83.5 120t31.5 177.5q0 100 -0.5 221t-2 250.5t-3.5 261l-4 251.5h194q-3 -116 -5 -238.5t-3 -244
t-1.5 -237.5t-0.5 -218q0 -114 -27.5 -210.5t-81 -171.5t-131.5 -125t-178 -71q-59 -45 -95.5 -97.5t-36.5 -102.5q0 -42 26 -67t68 -25q20 0 46 6.5t52 21.5l42 -80q-42 -38 -90 -59t-102 -21q-41 0 -76 12t-60.5 34t-40.5 53.5t-15 70.5q0 122 130 240q-134 1 -243 38.5
t-185.5 112.5t-116.5 189.5t-37 269.5q1 58 1.5 110t0.5 101.5v99v103.5q0 128 -3.5 253t-8.5 253h228z" />
    <glyph glyph-name="iogonek" unicode="&#x12f;" horiz-adv-x="544" 
d="M304 0q-35 -23 -64.5 -50.5t-51 -56t-34 -58t-12.5 -57.5q0 -42 26 -67t68 -25q20 0 46 6.5t52 21.5l42 -80q-42 -38 -90 -59t-102 -21q-40 0 -75 12t-61 34t-41 53.5t-15 70.5q0 68 44.5 139.5t129.5 136.5v706q0 52 -1 94t-3 81t-4.5 76.5l-5.5 80.5l220 46v-1084h-68z
M272 1314q-29 0 -53 10t-41.5 27.5t-27.5 41.5t-10 53q0 27 10.5 51t28.5 42t42.5 28.5t52.5 10.5q27 0 50.5 -10.5t41.5 -28.5t28 -42t10 -51q0 -29 -10.5 -53t-28.5 -41.5t-42 -27.5t-51 -10z" />
    <glyph glyph-name="Iogonek" unicode="&#x12e;" horiz-adv-x="636" 
d="M338 0q-35 -23 -64.5 -50.5t-51 -56t-34 -58t-12.5 -57.5q0 -42 26 -67t68 -25q20 0 46 6.5t52 21.5l42 -80q-41 -38 -88.5 -59t-103.5 -21q-40 0 -75 12t-61 34t-41 53.5t-15 70.5q0 68 45 139.5t131 136.5q6 189 9 373t3 373q0 376 -12 748h230q-6 -189 -10 -376.5
t-4 -371.5q0 -192 5 -376t11 -370h-96z" />
    <glyph glyph-name="Eogonek" unicode="&#x118;" horiz-adv-x="1218" 
d="M1010 0q-35 -23 -64.5 -50.5t-51 -56t-34 -58t-12.5 -57.5q0 -42 26 -67t68 -25q20 0 46 6.5t52 21.5l42 -80q-41 -38 -89.5 -59t-102.5 -21q-40 0 -75 12t-61 34t-41 53.5t-15 70.5q0 68 45 139.5t131 136.5h-672q6 193 9 375t3 371q0 183 -3 376t-9 374
q112 -3 230 -4.5t230 -1.5q103 0 209 1.5t209 4.5l-30 -178q-151 14 -310.5 20.5t-313.5 9.5q-5 -125 -6.5 -254t-1.5 -256l283 6t283 14l-34 -168q-134 8 -268 11t-264 5q0 -146 1 -284t7 -282q89 2 173.5 5t168 7.5l168 9.5t174.5 12l-32 -174h-68z" />
    <glyph glyph-name="OE" unicode="&#x152;" horiz-adv-x="2246" 
d="M1302 0q-43 0 -88.5 -6l-95 -13t-102 -13t-108.5 -6q-100 0 -196 22.5t-183 66.5t-160.5 108.5t-127 149.5t-83.5 189.5t-30 227.5q0 124 31 232t85.5 197t130 158.5t164.5 117t188.5 72.5t202.5 25q46 0 93 -4t94 -9.5l93.5 -11t91.5 -7.5q55 -2 102.5 -3t92.5 -1.5
l90.5 -1t98.5 -0.5q214 0 424 6l-32 -178q-151 14 -310.5 20.5t-313.5 9.5q-5 -125 -6.5 -254t-1.5 -256l283 6t283 14l-32 -168q-136 8 -269.5 11t-264.5 5q0 -146 1 -284t7 -282q88 2 172.5 5t168.5 7.5l169.5 9.5t175.5 12l-32 -174h-806zM948 112q30 0 65 2.5t72.5 8
t75.5 14t73 19.5q5 152 7.5 295.5t2.5 286.5t-2.5 290.5t-7.5 289.5q-32 14 -70.5 25.5t-78.5 19t-79 11.5t-72 4q-110 0 -213.5 -42t-183.5 -123t-128.5 -200t-48.5 -273q0 -153 49 -270.5t130.5 -197t187.5 -120t221 -40.5z" />
    <glyph glyph-name="oe" unicode="&#x153;" horiz-adv-x="1948" 
d="M1828 128q-43 -44 -93 -73t-101.5 -46.5t-101.5 -25t-92 -7.5q-62 0 -123 14.5t-116 44.5t-101.5 75.5t-77.5 107.5q-37 -57 -85.5 -102.5t-106 -77.5t-122.5 -49t-134 -17q-116 0 -206 43t-152.5 115t-95 166.5t-32.5 197.5q0 123 45 231t121.5 189t178.5 127.5
t217 46.5q73 0 137 -19.5t116.5 -52.5t92 -77.5t62.5 -94.5q34 58 81 102.5t101 74.5t112.5 45.5t115.5 15.5q90 0 170.5 -39t135 -110.5t75 -172t-10.5 -222.5h-702q-3 -107 30.5 -183.5t89.5 -125t128.5 -71t147.5 -22.5q53 0 114 15t132 59zM628 114q72 0 130.5 32
t99.5 87t63.5 127.5t22.5 153.5q0 79 -22 156.5t-64.5 139t-104.5 99t-141 37.5q-73 0 -130.5 -32.5t-98 -87.5t-62 -127.5t-21.5 -152.5q0 -79 21 -156t62.5 -138.5t103 -99.5t141.5 -38zM1668 672q4 61 -15 110.5t-53 85t-79.5 55t-94.5 19.5q-52 0 -100.5 -21t-87.5 -60
t-65 -95t-33 -126z" />
    <glyph glyph-name="AE" unicode="&#xc6;" horiz-adv-x="1916" 
d="M992 0v5t-1.5 16.5t-3.5 40.5t-6.5 76l-11.5 124l-17 184q-29 1 -64 1.5t-69.5 0.5h-64.5h-48q-26 0 -61.5 -1.5l-74 -3t-77 -4t-71.5 -3.5l-230 -440l-192 8l211 377l205 379l390 738q57 -2 119 -3t125 -2.5t124.5 -2t117.5 -0.5q52 0 110 0.5l116.5 1t116 1.5t107.5 3
l-32 -178q-76 7 -156 12t-161 8.5t-162 5.5l-157 4q12 -125 23 -254t25 -256l286 6t284 14l-34 -168q-134 8 -261.5 11t-260.5 5l31.5 -284t36.5 -282q154 5 312.5 12.5t301.5 21.5l-32 -174h-794zM728 586h43h55.5t59.5 0.5t56 1.5l-42 392q-9 89 -15.5 179t-8.5 161h-20
l-33 -80.5t-41.5 -94l-45.5 -97.5l-44 -92l-192 -368q28 -1 60.5 -1.5t64 -0.5h58.5h45z" />
    <glyph glyph-name="uni2126" unicode="&#x2126;" horiz-adv-x="1748" 
d="M1020 0l-38 88q88 61 165 134t133.5 157.5t89 180t32.5 202.5q0 75 -17 149.5t-49 142t-78.5 125.5t-105 100.5t-129 66.5t-149.5 24q-78 0 -146.5 -23t-126 -63.5t-103.5 -96t-78 -121.5t-49 -140t-17 -150q0 -112 35.5 -216t95.5 -194t138 -161t163 -117l-48 -88h-642
l30 174l328 -24l2 22q-66 47 -122.5 111t-98.5 141.5t-65.5 167.5t-23.5 190q0 104 26.5 200t75 179t116.5 150.5t151.5 116t179.5 74.5t201 26q104 0 197.5 -25.5t172.5 -72t142.5 -111t108 -142t68 -165t23.5 -180.5q0 -110 -31 -208.5t-79 -183t-107 -152.5t-115 -116
l4 -22l372 24l-28 -174h-604z" />
    <glyph glyph-name="summation" unicode="&#x2211;" horiz-adv-x="1254" 
d="M72 -154l-40 68l606 756l-600 758l50 74q133 -6 269.5 -7t276.5 -1q127 0 265.5 1t262.5 7l-38 -188q-192 17 -383.5 26t-384.5 14l-6 -22q86 -95 169 -201.5l161 -206.5l170 -224l-12 -32l-186 -230l-173.5 -212l-182.5 -214l8 -18q195 3 428 11.5t500 28.5l-40 -188
h-1120z" />
    <glyph glyph-name="product" unicode="&#x220f;" horiz-adv-x="1436" 
d="M270 1344q-65 0 -127 -1t-121 -3l36 166q166 -6 342 -8t344 -2q80 0 164.5 0.5t170 1.5t170.5 3t165 5l-38 -166q-51 2 -105.5 3t-108.5 1v-938q0 -99 4 -191.5t10 -192.5l-196 -42v1366h-528v-940q0 -99 4 -191.5t10 -192.5l-196 -42v1364z" />
    <glyph glyph-name="lozenge" unicode="&#x25ca;" horiz-adv-x="1114" 
d="M694 1098q-17 33 -36.5 75.5l-38.5 85.5l-35 81t-24 62h-16q-10 -26 -27.5 -65l-38.5 -82l-41.5 -84.5l-36.5 -72.5l-150 -284l170 -354l35.5 -75.5l38 -85.5l34.5 -81t24 -62h18q9 25 26.5 64.5l38 83l41 85l36.5 71.5l146 282zM618 14l-152 -22l-380 786l406 768
l152 22l386 -790z" />
    <glyph glyph-name="radical" unicode="&#x221a;" horiz-adv-x="1212" 
d="M746 -178l-146 -30l-342 914l-180 -30l-14 120l302 92l192 -578l21.5 -66.5l26 -83.5l26 -88t20.5 -80h16l14 82.5t17 89l17 82t14 62.5l342 1476l172 24z" />
    <glyph glyph-name="Eacute" unicode="&#xc9;" horiz-adv-x="1218" 
d="M484 1690l97.5 62.5l97.5 67t92.5 70t82.5 70.5l150 -116q-47 -34 -102 -67.5t-113.5 -63.5t-118 -55.5t-116.5 -43.5zM214 0v1465h859l-30 -155h-633v-468h564l-30 -155h-534v-532h679l-30 -155h-845z" />
    <glyph glyph-name="Egrave" unicode="&#xc8;" horiz-adv-x="1218" 
d="M722 1616q-101 54 -214.5 103t-237.5 93l136 140q55 -21 110 -49.5t107.5 -61.5t100 -69t86.5 -72zM214 0v1465h859l-30 -155h-633v-468h564l-30 -155h-534v-532h679l-30 -155h-845z" />
    <glyph glyph-name="Oacute" unicode="&#xd3;" horiz-adv-x="1766" 
d="M734 1690l97.5 62.5l97.5 67t92.5 70t82.5 70.5l150 -116q-47 -34 -102 -67.5t-113.5 -63.5t-118 -55.5t-116.5 -43.5zM872 135q115 0 210.5 46t164.5 126.5t107 188.5t38 233q0 131 -41.5 241.5t-114 190.5t-170 124.5t-209.5 44.5q-117 0 -212.5 -47.5t-163.5 -128.5
t-105.5 -189.5t-37.5 -231.5q0 -131 41 -240.5t113 -189t169.5 -124t210.5 -44.5zM838 -20q-140 0 -268 50t-225.5 143t-155 225.5t-57.5 297.5q0 114 28.5 216.5t79.5 190t121.5 158.5t155.5 120.5t180.5 76.5t197.5 27q91 0 178.5 -22t166 -64t144 -104t113.5 -141
t74.5 -175.5t26.5 -208.5q0 -113 -27.5 -216t-78 -190.5t-120 -158.5t-154 -121t-181 -77t-199.5 -27z" />
    <glyph glyph-name="Ecircumflex" unicode="&#xca;" horiz-adv-x="1218" 
d="M294 1662q37 27 75 58.5l75 64.5t71.5 67l64.5 66l114 12q91 -53 171 -121t143 -145l-78 -80q-68 59 -135.5 104t-150.5 84q-68 -53 -141 -104t-145 -84zM214 0v1465h859l-30 -155h-633v-468h564l-30 -155h-534v-532h679l-30 -155h-845z" />
    <glyph glyph-name="Ocircumflex" unicode="&#xd4;" horiz-adv-x="1766" 
d="M528 1662q37 27 75 58.5l75 64.5t71.5 67l64.5 66l114 12q91 -53 171 -121t143 -145l-78 -80q-68 59 -135.5 104t-150.5 84q-68 -53 -141 -104t-145 -84zM872 135q115 0 210.5 46t164.5 126.5t107 188.5t38 233q0 131 -41.5 241.5t-114 190.5t-170 124.5t-209.5 44.5
q-117 0 -212.5 -47.5t-163.5 -128.5t-105.5 -189.5t-37.5 -231.5q0 -131 41 -240.5t113 -189t169.5 -124t210.5 -44.5zM838 -20q-140 0 -268 50t-225.5 143t-155 225.5t-57.5 297.5q0 114 28.5 216.5t79.5 190t121.5 158.5t155.5 120.5t180.5 76.5t197.5 27q91 0 178.5 -22
t166 -64t144 -104t113.5 -141t74.5 -175.5t26.5 -208.5q0 -113 -27.5 -216t-78 -190.5t-120 -158.5t-154 -121t-181 -77t-199.5 -27z" />
    <glyph glyph-name="Edieresis" unicode="&#xcb;" horiz-adv-x="1218" 
d="M860 1670q-56 0 -89 35.5t-33 88.5q0 26 10.5 49.5t28 41t40 27.5t47.5 10q54 0 88 -34t34 -90q0 -26 -9.5 -49t-26 -40.5t-39.5 -28t-51 -10.5zM438 1670q-56 0 -89 35.5t-33 88.5q0 26 10 49.5t27.5 41t40 27.5t48.5 10q53 0 86.5 -34t33.5 -90q0 -26 -9.5 -49
t-26 -40.5t-39 -28t-49.5 -10.5zM214 0v1465h859l-30 -155h-633v-468h564l-30 -155h-534v-532h679l-30 -155h-845z" />
    <glyph glyph-name="Igrave" unicode="&#xcc;" horiz-adv-x="636" 
d="M392 1616q-101 54 -214.5 103t-237.5 93l136 140q55 -21 110 -49.5t107.5 -61.5t100 -69t86.5 -72zM412 0h-196v1465h196v-1465z" />
    <glyph glyph-name="Iacute" unicode="&#xcd;" horiz-adv-x="636" 
d="M152 1690l97.5 62.5l97.5 67t92.5 70t82.5 70.5l150 -116q-47 -34 -102 -67.5t-113.5 -63.5t-118 -55.5t-116.5 -43.5zM412 0h-196v1465h196v-1465z" />
    <glyph glyph-name="Icircumflex" unicode="&#xce;" horiz-adv-x="636" 
d="M-34 1662q37 27 75 58.5l75 64.5t71.5 67l64.5 66l114 12q91 -53 171 -121t143 -145l-78 -80q-68 59 -135.5 104t-150.5 84q-68 -53 -141 -104t-145 -84zM412 0h-196v1465h196v-1465z" />
    <glyph glyph-name="Idieresis" unicode="&#xcf;" horiz-adv-x="636" 
d="M526 1670q-56 0 -89 35.5t-33 88.5q0 26 10.5 49.5t28 41t40 27.5t47.5 10q54 0 88 -34t34 -90q0 -26 -9.5 -49t-26 -40.5t-39.5 -28t-51 -10.5zM104 1670q-56 0 -89 35.5t-33 88.5q0 26 10 49.5t27.5 41t40 27.5t48.5 10q53 0 86.5 -34t33.5 -90q0 -26 -9.5 -49
t-26 -40.5t-39 -28t-49.5 -10.5zM412 0h-196v1465h196v-1465z" />
    <glyph glyph-name="Ograve" unicode="&#xd2;" horiz-adv-x="1766" 
d="M964 1616q-101 54 -214.5 103t-237.5 93l136 140q55 -21 110 -49.5t107.5 -61.5t100 -69t86.5 -72zM872 135q115 0 210.5 46t164.5 126.5t107 188.5t38 233q0 131 -41.5 241.5t-114 190.5t-170 124.5t-209.5 44.5q-117 0 -212.5 -47.5t-163.5 -128.5t-105.5 -189.5
t-37.5 -231.5q0 -131 41 -240.5t113 -189t169.5 -124t210.5 -44.5zM838 -20q-140 0 -268 50t-225.5 143t-155 225.5t-57.5 297.5q0 114 28.5 216.5t79.5 190t121.5 158.5t155.5 120.5t180.5 76.5t197.5 27q91 0 178.5 -22t166 -64t144 -104t113.5 -141t74.5 -175.5
t26.5 -208.5q0 -113 -27.5 -216t-78 -190.5t-120 -158.5t-154 -121t-181 -77t-199.5 -27z" />
    <glyph glyph-name="Odieresis" unicode="&#xd6;" horiz-adv-x="1766" 
d="M1090 1670q-56 0 -89 35.5t-33 88.5q0 26 10.5 49.5t28 41t40 27.5t47.5 10q54 0 88 -34t34 -90q0 -26 -9.5 -49t-26 -40.5t-39.5 -28t-51 -10.5zM668 1670q-56 0 -89 35.5t-33 88.5q0 26 10 49.5t27.5 41t40 27.5t48.5 10q53 0 86.5 -34t33.5 -90q0 -26 -9.5 -49
t-26 -40.5t-39 -28t-49.5 -10.5zM872 135q115 0 210.5 46t164.5 126.5t107 188.5t38 233q0 131 -41.5 241.5t-114 190.5t-170 124.5t-209.5 44.5q-117 0 -212.5 -47.5t-163.5 -128.5t-105.5 -189.5t-37.5 -231.5q0 -131 41 -240.5t113 -189t169.5 -124t210.5 -44.5zM838 -20
q-140 0 -268 50t-225.5 143t-155 225.5t-57.5 297.5q0 114 28.5 216.5t79.5 190t121.5 158.5t155.5 120.5t180.5 76.5t197.5 27q91 0 178.5 -22t166 -64t144 -104t113.5 -141t74.5 -175.5t26.5 -208.5q0 -113 -27.5 -216t-78 -190.5t-120 -158.5t-154 -121t-181 -77
t-199.5 -27z" />
    <glyph glyph-name="Ntilde" unicode="&#xd1;" horiz-adv-x="1640" 
d="M500 1634q-6 70 11.5 119.5t47.5 81t68 45.5t73 14q48 0 87.5 -19.5t72.5 -43.5l60 -43.5t50 -19.5q27 0 44.5 29t5.5 89l140 10q7 -66 -6 -114.5t-40 -80t-64.5 -46.5t-79.5 -15q-55 0 -96 20t-72.5 44l-57 44t-48.5 20q-26 0 -45.5 -33.5t-16.5 -90.5zM182 0v1465h285
l691 -1000l100 -180h20l-14 204v976h179v-1465h-166l-820 1180l-90 174h-20l14 -204v-1150h-179z" />
    <glyph glyph-name="Otilde" unicode="&#xd5;" horiz-adv-x="1766" 
d="M550 1634q-6 70 11.5 119.5t47.5 81t68 45.5t73 14q48 0 87.5 -19.5t72.5 -43.5l60 -43.5t50 -19.5q27 0 44.5 29t5.5 89l140 10q7 -66 -6 -114.5t-40 -80t-64.5 -46.5t-79.5 -15q-55 0 -96 20t-72.5 44l-57 44t-48.5 20q-26 0 -45.5 -33.5t-16.5 -90.5zM872 135
q115 0 210.5 46t164.5 126.5t107 188.5t38 233q0 131 -41.5 241.5t-114 190.5t-170 124.5t-209.5 44.5q-117 0 -212.5 -47.5t-163.5 -128.5t-105.5 -189.5t-37.5 -231.5q0 -131 41 -240.5t113 -189t169.5 -124t210.5 -44.5zM838 -20q-140 0 -268 50t-225.5 143t-155 225.5
t-57.5 297.5q0 114 28.5 216.5t79.5 190t121.5 158.5t155.5 120.5t180.5 76.5t197.5 27q91 0 178.5 -22t166 -64t144 -104t113.5 -141t74.5 -175.5t26.5 -208.5q0 -113 -27.5 -216t-78 -190.5t-120 -158.5t-154 -121t-181 -77t-199.5 -27z" />
    <glyph glyph-name="Ugrave" unicode="&#xd9;" horiz-adv-x="1572" 
d="M894 1616q-101 54 -214.5 103t-237.5 93l136 140q55 -21 110 -49.5t107.5 -61.5t100 -69t86.5 -72zM404 1465v-910q0 -109 36 -188.5t93.5 -131t128.5 -76t142 -24.5q72 0 137 25.5t113.5 76t77.5 126t29 176.5v926h180v-924q0 -61 -15 -126.5t-45.5 -127.5t-77.5 -118
t-111 -98t-146 -66.5t-183 -24.5q-123 0 -225 38.5t-175.5 112t-114 181t-40.5 244.5v909h196z" />
    <glyph glyph-name="Uacute" unicode="&#xda;" horiz-adv-x="1572" 
d="M658 1690l97.5 62.5l97.5 67t92.5 70t82.5 70.5l150 -116q-47 -34 -102 -67.5t-113.5 -63.5t-118 -55.5t-116.5 -43.5zM404 1465v-910q0 -109 36 -188.5t93.5 -131t128.5 -76t142 -24.5q72 0 137 25.5t113.5 76t77.5 126t29 176.5v926h180v-924q0 -61 -15 -126.5
t-45.5 -127.5t-77.5 -118t-111 -98t-146 -66.5t-183 -24.5q-123 0 -225 38.5t-175.5 112t-114 181t-40.5 244.5v909h196z" />
    <glyph glyph-name="Ucircumflex" unicode="&#xdb;" horiz-adv-x="1572" 
d="M448 1662q37 27 75 58.5l75 64.5t71.5 67l64.5 66l114 12q91 -53 171 -121t143 -145l-78 -80q-68 59 -135.5 104t-150.5 84q-68 -53 -141 -104t-145 -84zM404 1465v-910q0 -109 36 -188.5t93.5 -131t128.5 -76t142 -24.5q72 0 137 25.5t113.5 76t77.5 126t29 176.5v926
h180v-924q0 -61 -15 -126.5t-45.5 -127.5t-77.5 -118t-111 -98t-146 -66.5t-183 -24.5q-123 0 -225 38.5t-175.5 112t-114 181t-40.5 244.5v909h196z" />
    <glyph glyph-name="Udieresis" unicode="&#xdc;" horiz-adv-x="1572" 
d="M1012 1670q-56 0 -89 35.5t-33 88.5q0 26 10.5 49.5t28 41t40 27.5t47.5 10q54 0 88 -34t34 -90q0 -26 -9.5 -49t-26 -40.5t-39.5 -28t-51 -10.5zM590 1670q-56 0 -89 35.5t-33 88.5q0 26 10 49.5t27.5 41t40 27.5t48.5 10q53 0 86.5 -34t33.5 -90q0 -26 -9.5 -49
t-26 -40.5t-39 -28t-49.5 -10.5zM404 1465v-910q0 -109 36 -188.5t93.5 -131t128.5 -76t142 -24.5q72 0 137 25.5t113.5 76t77.5 126t29 176.5v926h180v-924q0 -61 -15 -126.5t-45.5 -127.5t-77.5 -118t-111 -98t-146 -66.5t-183 -24.5q-123 0 -225 38.5t-175.5 112
t-114 181t-40.5 244.5v909h196z" />
    <glyph glyph-name="Yacute" unicode="&#xdd;" horiz-adv-x="1264" 
d="M502 1690l97.5 62.5l97.5 67t92.5 70t82.5 70.5l150 -116q-47 -34 -102 -67.5t-113.5 -63.5t-118 -55.5t-116.5 -43.5zM704 642v-642h-196v640l-485 825h224l281 -528l89 -196h20l95 194l287 530h196z" />
    <glyph glyph-name="Agrave" unicode="&#xc0;" horiz-adv-x="1404" 
d="M766 1616q-101 54 -214.5 103t-237.5 93l136 140q55 -21 110 -49.5t107.5 -61.5t100 -69t86.5 -72zM986 398h-632l-137 -398h-185l545 1465h208l546 -1465h-206zM931 551l-194 572l-57 204h-20l-57 -204l-196 -572h524z" />
    <glyph glyph-name="Aacute" unicode="&#xc1;" horiz-adv-x="1404" 
d="M558 1690l97.5 62.5l97.5 67t92.5 70t82.5 70.5l150 -116q-47 -34 -102 -67.5t-113.5 -63.5t-118 -55.5t-116.5 -43.5zM986 398h-632l-137 -398h-185l545 1465h208l546 -1465h-206zM931 551l-194 572l-57 204h-20l-57 -204l-196 -572h524z" />
    <glyph glyph-name="Acircumflex" unicode="&#xc2;" horiz-adv-x="1404" 
d="M348 1662q37 27 75 58.5l75 64.5t71.5 67l64.5 66l114 12q91 -53 171 -121t143 -145l-78 -80q-68 59 -135.5 104t-150.5 84q-68 -53 -141 -104t-145 -84zM986 398h-632l-137 -398h-185l545 1465h208l546 -1465h-206zM931 551l-194 572l-57 204h-20l-57 -204l-196 -572
h524z" />
    <glyph glyph-name="Atilde" unicode="&#xc3;" horiz-adv-x="1404" 
d="M374 1634q-6 70 11.5 119.5t47.5 81t68 45.5t73 14q48 0 87.5 -19.5t72.5 -43.5l60 -43.5t50 -19.5q27 0 44.5 29t5.5 89l140 10q7 -66 -6 -114.5t-40 -80t-64.5 -46.5t-79.5 -15q-55 0 -96 20t-72.5 44l-57 44t-48.5 20q-26 0 -45.5 -33.5t-16.5 -90.5zM986 398h-632
l-137 -398h-185l545 1465h208l546 -1465h-206zM931 551l-194 572l-57 204h-20l-57 -204l-196 -572h524z" />
    <glyph glyph-name="Adieresis" unicode="&#xc4;" horiz-adv-x="1404" 
d="M916 1670q-56 0 -89 35.5t-33 88.5q0 26 10.5 49.5t28 41t40 27.5t47.5 10q54 0 88 -34t34 -90q0 -26 -9.5 -49t-26 -40.5t-39.5 -28t-51 -10.5zM494 1670q-56 0 -89 35.5t-33 88.5q0 26 10 49.5t27.5 41t40 27.5t48.5 10q53 0 86.5 -34t33.5 -90q0 -26 -9.5 -49
t-26 -40.5t-39 -28t-49.5 -10.5zM986 398h-632l-137 -398h-185l545 1465h208l546 -1465h-206zM931 551l-194 572l-57 204h-20l-57 -204l-196 -572h524z" />
    <glyph glyph-name="Aring" unicode="&#xc5;" horiz-adv-x="1404" 
d="M32 4q85 190 161 377l151 379l264 674l198 26l566 -1452l-246 -16l-67.5 227t-76.5 227q-32 1 -73.5 1.5t-84 0.5h-81.5h-65t-61.5 -1.5l-73.5 -3t-76.5 -4t-70.5 -3.5l-164 -440zM792 966q-33 86 -55 162.5t-37 147.5h-20q-14 -71 -37 -152.5t-55 -167.5l-134 -368
q27 -1 59 -1.5t63 -0.5h58h44q26 0 58 0.5l65.5 1l67.5 1t65 1.5zM684 1526q-45 0 -83 13.5t-66 38.5t-43.5 59.5t-15.5 76.5q0 44 17 83.5t48.5 69t76 46.5t98.5 17q48 0 86.5 -14.5t65.5 -40t41.5 -59.5t14.5 -74q0 -46 -18 -85.5t-50 -68.5t-76 -45.5t-96 -16.5z
M704 1612q38 0 66 30t28 80q0 24 -8 45.5t-21.5 38t-31.5 26.5t-39 10q-38 0 -63 -30.5t-25 -77.5q0 -23 7 -45t19 -39t29.5 -27.5t38.5 -10.5z" />
    <glyph glyph-name="Amacron" unicode="&#x100;" horiz-adv-x="1404" 
d="M450 1754l536 18l-30 -144h-524zM986 398h-632l-137 -398h-185l545 1465h208l546 -1465h-206zM931 551l-194 572l-57 204h-20l-57 -204l-196 -572h524z" />
    <glyph glyph-name="Abreve" unicode="&#x102;" horiz-adv-x="1404" 
d="M1010 1900q4 -74 -21 -128.5t-69.5 -90t-104 -52.5t-125.5 -17q-60 0 -114 14t-94.5 45.5t-63 82t-20.5 122.5l130 24q0 -46 15.5 -77.5t41.5 -51t59.5 -28.5t69.5 -9q32 0 63 7.5t55 24.5t39 44t15 66zM986 398h-632l-137 -398h-185l545 1465h208l546 -1465h-206z
M931 551l-194 572l-57 204h-20l-57 -204l-196 -572h524z" />
    <glyph glyph-name="Cacute" unicode="&#x106;" horiz-adv-x="1446" 
d="M728 1690l97.5 62.5l97.5 67t92.5 70t82.5 70.5l150 -116q-47 -34 -102 -67.5t-113.5 -63.5t-118 -55.5t-116.5 -43.5zM1297 141q-56 -49 -122 -80.5t-133 -49.5t-128.5 -24.5t-108.5 -6.5q-145 0 -270 51.5t-217.5 145.5t-145 226.5t-52.5 295.5q0 122 30 228t84 193
t128 155t163 114.5t189 71t205 24.5q69 0 166 -12.5t208 -45.5l-34 -174l-20 -10q-110 50 -204.5 68.5t-160.5 18.5q-120 0 -221 -46.5t-174 -127t-114 -187.5t-41 -228q0 -116 36.5 -224.5t107.5 -192t175 -134t239 -50.5q39 0 86 5t100 18.5t111 36t118 58.5v-117z" />
    <glyph glyph-name="Ccaron" unicode="&#x10c;" horiz-adv-x="1446" 
d="M1226 1856q-37 -27 -75 -58.5l-75 -64.5t-71.5 -67l-64.5 -66l-114 -14q-91 54 -171.5 122.5t-142.5 145.5l78 80q68 -59 135.5 -105t150.5 -85q68 53 141 104t145 86zM1297 141q-56 -49 -122 -80.5t-133 -49.5t-128.5 -24.5t-108.5 -6.5q-145 0 -270 51.5t-217.5 145.5
t-145 226.5t-52.5 295.5q0 122 30 228t84 193t128 155t163 114.5t189 71t205 24.5q69 0 166 -12.5t208 -45.5l-34 -174l-20 -10q-110 50 -204.5 68.5t-160.5 18.5q-120 0 -221 -46.5t-174 -127t-114 -187.5t-41 -228q0 -116 36.5 -224.5t107.5 -192t175 -134t239 -50.5
q39 0 86 5t100 18.5t111 36t118 58.5v-117z" />
    <glyph glyph-name="Dcaron" unicode="&#x10e;" horiz-adv-x="1658" 
d="M1130 1856q-37 -27 -75 -58.5l-75 -64.5t-71.5 -67l-64.5 -66l-114 -14q-91 54 -171.5 122.5t-142.5 145.5l78 80q68 -59 135.5 -105t150.5 -85q68 53 141 104t145 86zM210 1465h495q194 0 340.5 -53.5t244.5 -145.5t147.5 -217t49.5 -267q0 -92 -21 -185.5t-64.5 -180.5
t-109.5 -163t-156.5 -132t-206 -88.5t-256.5 -32.5h-463v1465zM406 155h303q145 0 253 46.5t178.5 126t105.5 186t35 227.5q0 132 -40.5 237.5t-118 179t-191 113t-258.5 39.5h-267v-1155z" />
    <glyph glyph-name="Emacron" unicode="&#x112;" horiz-adv-x="1218" 
d="M380 1754l536 18l-30 -144h-524zM214 0v1465h859l-30 -155h-633v-468h564l-30 -155h-534v-532h679l-30 -155h-845z" />
    <glyph glyph-name="Edotaccent" unicode="&#x116;" horiz-adv-x="1218" 
d="M654 1670q-56 0 -91 36t-35 92q0 27 10.5 50.5t28.5 40.5t41.5 27t49.5 10q27 0 50.5 -9.5t40.5 -26.5t27 -40t10 -50q0 -28 -10 -51.5t-28 -41t-42 -27.5t-52 -10zM214 0v1465h859l-30 -155h-633v-468h564l-30 -155h-534v-532h679l-30 -155h-845z" />
    <glyph glyph-name="Ecaron" unicode="&#x11a;" horiz-adv-x="1218" 
d="M988 1856q-37 -27 -75 -58.5l-75 -64.5t-71.5 -67l-64.5 -66l-114 -14q-91 54 -171.5 122.5t-142.5 145.5l78 80q68 -59 135.5 -105t150.5 -85q68 53 141 104t145 86zM214 0v1465h859l-30 -155h-633v-468h564l-30 -155h-534v-532h679l-30 -155h-845z" />
    <glyph glyph-name="Gbreve" unicode="&#x11e;" horiz-adv-x="1518" 
d="M1176 1900q4 -74 -21 -128.5t-69.5 -90t-104 -52.5t-125.5 -17q-60 0 -114 14t-94.5 45.5t-63 82t-20.5 122.5l130 24q0 -46 15.5 -77.5t41.5 -51t59.5 -28.5t69.5 -9q32 0 63 7.5t55 24.5t39 44t15 66zM1360 75q-139 -54 -262 -74.5t-222 -20.5q-167 0 -304 50.5
t-234.5 144t-150.5 226t-53 295.5q0 123 30 229.5t84 194t129.5 155.5t166 114.5t193.5 71t213 24.5q72 0 169 -12.5t207 -45.5l-33 -172l-20 -10q-110 50 -204 67.5t-161 17.5q-128 0 -233 -46.5t-180 -127t-116 -189t-41 -231.5q0 -117 38 -225.5t110.5 -192t178.5 -133.5
t243 -50q60 0 130.5 11t145.5 34v506h176v-611z" />
    <glyph glyph-name="Imacron" unicode="&#x12a;" horiz-adv-x="636" 
d="M58 1754l536 18l-30 -144h-524zM412 0h-196v1465h196v-1465z" />
    <glyph glyph-name="Idotaccent" unicode="&#x130;" horiz-adv-x="636" 
d="M316 1670q-56 0 -91 36t-35 92q0 27 10.5 50.5t28.5 40.5t41.5 27t49.5 10q27 0 50.5 -9.5t40.5 -26.5t27 -40t10 -50q0 -28 -10 -51.5t-28 -41t-42 -27.5t-52 -10zM412 0h-196v1465h196v-1465z" />
    <glyph glyph-name="Lacute" unicode="&#x139;" horiz-adv-x="1082" 
d="M232 1690l97.5 62.5l97.5 67t92.5 70t82.5 70.5l150 -116q-47 -34 -102 -67.5t-113.5 -63.5t-118 -55.5t-116.5 -43.5zM208 0v1465h196v-1310h606l-30 -155h-772z" />
    <glyph glyph-name="lacute" unicode="&#x13a;" horiz-adv-x="542" 
d="M104 1740q49 28 98.5 60.5l97.5 67t92.5 70t83.5 70.5l148 -114q-47 -35 -101.5 -68.5t-112.5 -64t-117.5 -56.5t-116.5 -45zM186 1602h190v-1602h-190v1602z" />
    <glyph glyph-name="Scaron" unicode="&#x160;" horiz-adv-x="1230" 
d="M990 1856q-37 -27 -75 -58.5l-75 -64.5t-71.5 -67l-64.5 -66l-114 -14q-91 54 -171.5 122.5t-142.5 145.5l78 80q68 -59 135.5 -105t150.5 -85q68 53 141 104t145 86zM585 135q66 0 122 17.5t96 50t62.5 77.5t22.5 100q0 65 -30.5 110t-80 79t-113.5 60.5l-130 54
t-130 59.5t-113.5 78t-80 108.5t-30.5 151.5q0 94 36 169t100.5 127.5t153 80t194.5 27.5q65 0 163 -12.5t208 -45.5l-33 -174l-20 -10q-55 25 -107 42t-98 27t-85 14t-68 4q-59 0 -106.5 -14.5t-81 -42t-52 -67t-18.5 -89.5q0 -67 30.5 -114t81 -83t114.5 -64l130.5 -56
t130.5 -60t114.5 -74.5t81 -100.5t30.5 -139q0 -89 -38.5 -169.5t-108 -142t-167 -98t-215.5 -36.5q-50 0 -104.5 7t-109.5 19.5t-108.5 30.5t-101.5 40l34 175l20 10q102 -59 206.5 -93t198.5 -34z" />
    <glyph glyph-name="scaron" unicode="&#x161;" horiz-adv-x="876" 
d="M121 208l18 12q38 -21 80 -37.5t83 -27.5t80.5 -17t73.5 -6q47 0 86 11t66.5 31t43 48t15.5 62q0 43 -24 71.5t-63 49t-89 35.5l-102 31t-102 36t-89 50.5t-63 74t-24 106.5q0 70 31 132.5t87 109t134.5 73.5t174.5 27q23 0 55 -2t68 -6.5t73.5 -12t72.5 -18.5l-40 -156
l-24 -14q-28 15 -61.5 26t-68 17.5t-67.5 10t-58 3.5q-46 0 -83.5 -10t-64.5 -28.5t-42 -45t-15 -60.5q0 -44 24 -73t64 -49.5t90.5 -35.5l103.5 -31t103.5 -36t90.5 -51t64 -75.5t24 -108.5q0 -75 -33.5 -138t-92 -109t-137 -71.5t-168.5 -25.5q-77 0 -164.5 18t-170.5 50z
M257 1560q47 -65 97 -121.5t103 -106.5l46.5 55.5l52.5 59.5t55.5 58.5t55.5 52.5l110 -28l-70.5 -87.5l-60.5 -80.5l-53 -77l-48 -75l-176 -20q-34 39 -64.5 78t-59 79.5l-57 83l-57.5 89.5z" />
    <glyph glyph-name="Ydieresis" unicode="&#x178;" horiz-adv-x="1264" 
d="M705 642v-642h-196v640l-485 825h224l281 -528l89 -196h20l95 194l287 530h196zM872 1752q-27 0 -49 10t-38 26.5t-24.5 39t-8.5 48.5q0 27 10.5 50.5t28 40.5t40.5 27t49 10q53 0 86.5 -33.5t33.5 -90.5q0 -26 -9.5 -49t-26 -40.5t-40.5 -28t-52 -10.5zM452 1752
q-29 0 -51.5 10t-38 26.5t-24 39t-8.5 48.5q0 27 10 50.5t27 40.5t40 27t49 10q53 0 87.5 -33.5t34.5 -90.5q0 -26 -9.5 -49t-26.5 -40.5t-40 -28t-50 -10.5z" />
    <glyph glyph-name="cedilla" unicode="&#xb8;" horiz-adv-x="1180" 
d="M666 26l-74 -130q69 -12 114.5 -50.5t45.5 -103.5q0 -56 -32 -99.5t-81 -72t-106.5 -42t-108.5 -10.5l-10 90q91 12 138.5 39.5t47.5 72.5q0 24 -13 40.5t-35.5 27t-52 15t-61.5 5.5l-8 14l114 204h122z" />
    <glyph glyph-name="Lcaron" unicode="&#x13d;" horiz-adv-x="1082" 
d="M664 1214q47 39 73 91t31 103q-17 12 -39.5 18.5t-48.5 11.5q-18 39 -18 68q0 23 9.5 44t26 36.5t39.5 24.5t49 9q23 0 46 -7.5t41 -25t29.5 -46t11.5 -69.5q0 -35 -11.5 -75.5t-36 -81t-63 -78t-91.5 -67.5zM208 0v1465h196v-1310h606l-30 -155h-772z" />
    <glyph glyph-name="Nacute" unicode="&#x143;" horiz-adv-x="1640" 
d="M694 1690l97.5 62.5l97.5 67t92.5 70t82.5 70.5l150 -116q-47 -34 -102 -67.5t-113.5 -63.5t-118 -55.5t-116.5 -43.5zM182 0v1465h285l691 -1000l100 -180h20l-14 204v976h179v-1465h-166l-820 1180l-90 174h-20l14 -204v-1150h-179z" />
    <glyph glyph-name="Ncaron" unicode="&#x147;" horiz-adv-x="1640" 
d="M1166 1856q-37 -27 -75 -58.5l-75 -64.5t-71.5 -67l-64.5 -66l-114 -14q-91 54 -171.5 122.5t-142.5 145.5l78 80q68 -59 135.5 -105t150.5 -85q68 53 141 104t145 86zM182 0v1465h285l691 -1000l100 -180h20l-14 204v976h179v-1465h-166l-820 1180l-90 174h-20l14 -204
v-1150h-179z" />
    <glyph glyph-name="Omacron" unicode="&#x14c;" horiz-adv-x="1766" 
d="M618 1754l536 18l-30 -144h-524zM872 135q115 0 210.5 46t164.5 126.5t107 188.5t38 233q0 131 -41.5 241.5t-114 190.5t-170 124.5t-209.5 44.5q-117 0 -212.5 -47.5t-163.5 -128.5t-105.5 -189.5t-37.5 -231.5q0 -131 41 -240.5t113 -189t169.5 -124t210.5 -44.5z
M838 -20q-140 0 -268 50t-225.5 143t-155 225.5t-57.5 297.5q0 114 28.5 216.5t79.5 190t121.5 158.5t155.5 120.5t180.5 76.5t197.5 27q91 0 178.5 -22t166 -64t144 -104t113.5 -141t74.5 -175.5t26.5 -208.5q0 -113 -27.5 -216t-78 -190.5t-120 -158.5t-154 -121t-181 -77
t-199.5 -27z" />
    <glyph glyph-name="Ohungarumlaut" unicode="&#x150;" horiz-adv-x="1766" 
d="M672 1638q48 72 82.5 139.5t63.5 138.5l180 -34q-44 -80 -99.5 -145.5t-126.5 -124.5zM1012 1638q47 69 83.5 141t62.5 137l182 -34q-48 -80 -105.5 -148.5t-122.5 -121.5zM872 135q115 0 210.5 46t164.5 126.5t107 188.5t38 233q0 131 -41.5 241.5t-114 190.5
t-170 124.5t-209.5 44.5q-117 0 -212.5 -47.5t-163.5 -128.5t-105.5 -189.5t-37.5 -231.5q0 -131 41 -240.5t113 -189t169.5 -124t210.5 -44.5zM838 -20q-140 0 -268 50t-225.5 143t-155 225.5t-57.5 297.5q0 114 28.5 216.5t79.5 190t121.5 158.5t155.5 120.5t180.5 76.5
t197.5 27q91 0 178.5 -22t166 -64t144 -104t113.5 -141t74.5 -175.5t26.5 -208.5q0 -113 -27.5 -216t-78 -190.5t-120 -158.5t-154 -121t-181 -77t-199.5 -27z" />
    <glyph glyph-name="Racute" unicode="&#x154;" horiz-adv-x="1316" 
d="M474 1690l97.5 62.5l97.5 67t92.5 70t82.5 70.5l150 -116q-47 -34 -102 -67.5t-113.5 -63.5t-118 -55.5t-116.5 -43.5zM414 584v-584h-196v1465h414q108 0 198 -30t154 -82.5t99.5 -123.5t35.5 -153q0 -72 -26 -134.5t-68 -115t-95.5 -94.5t-107.5 -73l431 -659h-235
l-335 584h-269zM414 739h325q42 23 75.5 56t56.5 72.5t35.5 83.5t12.5 90q0 57 -20 106.5t-60.5 85.5t-101.5 56.5t-143 20.5h-180v-571z" />
    <glyph glyph-name="Rcaron" unicode="&#x158;" horiz-adv-x="1316" 
d="M1002 1856q-37 -27 -75 -58.5l-75 -64.5t-71.5 -67l-64.5 -66l-114 -14q-91 54 -171.5 122.5t-142.5 145.5l78 80q68 -59 135.5 -105t150.5 -85q68 53 141 104t145 86zM414 584v-584h-196v1465h414q108 0 198 -30t154 -82.5t99.5 -123.5t35.5 -153q0 -72 -26 -134.5
t-68 -115t-95.5 -94.5t-107.5 -73l431 -659h-235l-335 584h-269zM414 739h325q42 23 75.5 56t56.5 72.5t35.5 83.5t12.5 90q0 57 -20 106.5t-60.5 85.5t-101.5 56.5t-143 20.5h-180v-571z" />
    <glyph glyph-name="Sacute" unicode="&#x15a;" horiz-adv-x="1230" 
d="M486 1690l97.5 62.5l97.5 67t92.5 70t82.5 70.5l150 -116q-47 -34 -102 -67.5t-113.5 -63.5t-118 -55.5t-116.5 -43.5zM585 135q66 0 122 17.5t96 50t62.5 77.5t22.5 100q0 65 -30.5 110t-80 79t-113.5 60.5l-130 54t-130 59.5t-113.5 78t-80 108.5t-30.5 151.5
q0 94 36 169t100.5 127.5t153 80t194.5 27.5q65 0 163 -12.5t208 -45.5l-33 -174l-20 -10q-55 25 -107 42t-98 27t-85 14t-68 4q-59 0 -106.5 -14.5t-81 -42t-52 -67t-18.5 -89.5q0 -67 30.5 -114t81 -83t114.5 -64l130.5 -56t130.5 -60t114.5 -74.5t81 -100.5t30.5 -139
q0 -89 -38.5 -169.5t-108 -142t-167 -98t-215.5 -36.5q-50 0 -104.5 7t-109.5 19.5t-108.5 30.5t-101.5 40l34 175l20 10q102 -59 206.5 -93t198.5 -34z" />
    <glyph glyph-name="Tcaron" unicode="&#x164;" horiz-adv-x="1264" 
d="M980 1856q-37 -27 -75 -58.5l-75 -64.5t-71.5 -67l-64.5 -66l-114 -14q-91 54 -171.5 122.5t-142.5 145.5l78 80q68 -59 135.5 -105t150.5 -85q68 53 141 104t145 86zM828 0h-196v1310h-486l30 155h1158l-30 -155h-476v-1310z" />
    <glyph glyph-name="Umacron" unicode="&#x16a;" horiz-adv-x="1572" 
d="M546 1754l536 18l-30 -144h-524zM404 1465v-910q0 -109 36 -188.5t93.5 -131t128.5 -76t142 -24.5q72 0 137 25.5t113.5 76t77.5 126t29 176.5v926h180v-924q0 -61 -15 -126.5t-45.5 -127.5t-77.5 -118t-111 -98t-146 -66.5t-183 -24.5q-123 0 -225 38.5t-175.5 112
t-114 181t-40.5 244.5v909h196z" />
    <glyph glyph-name="Uring" unicode="&#x16e;" horiz-adv-x="1572" 
d="M788 1526q-45 0 -83 13.5t-66 38.5t-43.5 59.5t-15.5 76.5q0 44 17 83.5t48.5 69t76 46.5t98.5 17q48 0 86.5 -14.5t65.5 -40t41.5 -59.5t14.5 -74q0 -46 -18 -85.5t-50 -68.5t-76 -45.5t-96 -16.5zM808 1612q38 0 66 30t28 80q0 24 -8 45.5t-21.5 38t-31.5 26.5t-39 10
q-38 0 -63 -30.5t-25 -77.5q0 -23 7 -45t19 -39t29.5 -27.5t38.5 -10.5zM404 1465v-910q0 -109 36 -188.5t93.5 -131t128.5 -76t142 -24.5q72 0 137 25.5t113.5 76t77.5 126t29 176.5v926h180v-924q0 -61 -15 -126.5t-45.5 -127.5t-77.5 -118t-111 -98t-146 -66.5
t-183 -24.5q-123 0 -225 38.5t-175.5 112t-114 181t-40.5 244.5v909h196z" />
    <glyph glyph-name="Uhungarumlaut" unicode="&#x170;" horiz-adv-x="1572" 
d="M544 1638q48 72 82.5 139.5t63.5 138.5l180 -34q-44 -80 -99.5 -145.5t-126.5 -124.5zM884 1638q47 69 83.5 141t62.5 137l182 -34q-48 -80 -105.5 -148.5t-122.5 -121.5zM404 1465v-910q0 -109 36 -188.5t93.5 -131t128.5 -76t142 -24.5q72 0 137 25.5t113.5 76
t77.5 126t29 176.5v926h180v-924q0 -61 -15 -126.5t-45.5 -127.5t-77.5 -118t-111 -98t-146 -66.5t-183 -24.5q-123 0 -225 38.5t-175.5 112t-114 181t-40.5 244.5v909h196z" />
    <glyph glyph-name="Zacute" unicode="&#x179;" horiz-adv-x="1274" 
d="M486 1690l97.5 62.5l97.5 67t92.5 70t82.5 70.5l150 -116q-47 -34 -102 -67.5t-113.5 -63.5t-118 -55.5t-116.5 -43.5zM919 1298v19l-189 -7h-582l30 155h962v-85l-701 -1087l-97 -126v-20l188 8h673l-30 -155h-1058v77l707 1094z" />
    <glyph glyph-name="Zdotaccent" unicode="&#x17b;" horiz-adv-x="1274" 
d="M662 1670q-56 0 -91 36t-35 92q0 27 10.5 50.5t28.5 40.5t41.5 27t49.5 10q27 0 50.5 -9.5t40.5 -26.5t27 -40t10 -50q0 -28 -10 -51.5t-28 -41t-42 -27.5t-52 -10zM919 1298v19l-189 -7h-582l30 155h962v-85l-701 -1087l-97 -126v-20l188 8h673l-30 -155h-1058v77
l707 1094z" />
    <glyph glyph-name="Zcaron" unicode="&#x17d;" horiz-adv-x="1274" 
d="M1024 1856q-37 -27 -75 -58.5l-75 -64.5t-71.5 -67l-64.5 -66l-114 -14q-91 54 -171.5 122.5t-142.5 145.5l78 80q68 -59 135.5 -105t150.5 -85q68 53 141 104t145 86zM919 1298v19l-189 -7h-582l30 155h962v-85l-701 -1087l-97 -126v-20l188 8h673l-30 -155h-1058v77
l707 1094z" />
    <glyph glyph-name="partialdiff" unicode="&#x2202;" horiz-adv-x="1220" 
d="M166 1382q30 29 74 55.5t96 46t109.5 31t114.5 11.5q106 0 200.5 -43t165.5 -132t112.5 -226t41.5 -325q0 -194 -45.5 -347t-124 -259t-184 -162t-226.5 -56q-95 0 -170 34t-127 91.5t-79.5 133.5t-27.5 161q0 72 19 139t52 125t78 106t97 82t108.5 53t113.5 19
q58 0 110.5 -17.5t95 -43.5t73.5 -56.5t47 -56.5l14 6q2 14 2 31v35q0 139 -32.5 244t-89 175.5t-132 106.5t-160.5 36q-32 0 -67.5 -5t-73 -15.5t-74.5 -26t-71 -37.5zM544 114q70 0 127.5 39t101 104t72 149.5t39.5 175.5q-14 38 -44 74.5t-70.5 65t-90.5 45.5t-105 17
q-63 0 -116.5 -24.5t-92.5 -68.5t-61 -106t-22 -137q0 -73 20 -134t55.5 -105.5t83 -69.5t103.5 -25z" />
    <glyph glyph-name="integral" unicode="&#x222b;" horiz-adv-x="704" 
d="M676 1496q-17 5 -40 9.5t-46 4.5q-43 0 -71.5 -22.5t-46.5 -59t-27.5 -82.5t-13 -92.5t-3.5 -90.5v-75q0 -76 2 -167.5t5.5 -187.5t7.5 -193l7.5 -185t5.5 -162.5t2 -126.5q0 -67 -5 -138.5t-18 -140.5t-36 -131t-59 -108.5t-87.5 -74t-120.5 -27.5q-17 0 -37 1.5
t-38 4.5t-33.5 6t-23.5 6l28 140q17 -6 44 -10t48 -4q44 0 73.5 21t47.5 55.5t27 78.5t12.5 89.5t3.5 88.5v77q0 80 -2 173t-5 191.5l-6 196.5t-6 186.5t-5 163t-2 125.5q0 70 5 142.5t18.5 140t37 127.5t61 104.5t90 70t124.5 25.5q29 0 59.5 -3.5t50.5 -14.5z" />
    <glyph glyph-name="estimated" unicode="&#x212e;" horiz-adv-x="1844" 
d="M410 730q-12 0 -12 -10v-422q0 -15 6.5 -26t17.5 -22q48 -53 107 -95t126.5 -71.5t141.5 -45.5t153 -16q82 0 160 18t148 51t131 80t111 105h128q-59 -67 -134 -122t-162 -94.5t-184 -61.5t-200 -22q-119 0 -229 27.5t-206 78t-174.5 121.5t-134.5 156.5t-87 184
t-31 204.5t31 205t87 185.5t134.5 157.5t174.5 121.5t206 78.5t229 28q117 0 226 -28t204 -78.5t173 -121.5t134 -157.5t86.5 -185.5t30.5 -205v-18h-1392zM1492 1206q0 34 -22 50q-50 50 -109 91t-125.5 69.5t-138.5 44t-147 15.5q-79 0 -152.5 -16t-140.5 -45
t-126.5 -70.5t-108.5 -92.5q-11 -12 -17.5 -24t-6.5 -32v-412q0 -12 12 -12h1070q12 0 12 12v422z" />
    <glyph glyph-name="macron" unicode="&#xaf;" 
d="M318 1406l502 18l-30 -144h-490z" />
    <glyph glyph-name="fl" unicode="&#xf002;" horiz-adv-x="1298" 
d="M934 1196q0 57 -2 116.5l-4 113.5q-17 7 -43.5 15t-58 14.5t-64 10.5t-60.5 4q-61 0 -114.5 -20.5t-93.5 -62.5t-63 -106.5t-23 -152.5v-96l306 34l-30 -160h-276v-906h-202v906h-166l16 100l152 26v62q0 115 43.5 211.5t116 166t167.5 108t199 38.5q27 0 60 -3t66 -7.5
t62.5 -10t49.5 -11.5l166 42v-1628h-204v1196z" />
    <glyph glyph-name="emdash" unicode="&#x2014;" horiz-adv-x="2140" 
d="M74 652h2012l-32 -156h-1998z" />
    <glyph glyph-name="endash" unicode="&#x2013;" horiz-adv-x="1070" 
d="M74 652h942l-30 -156h-930z" />
    <glyph glyph-name="uni00AD" unicode="&#xad;" horiz-adv-x="884" 
d="M116 664l682 22l-40 -190h-666z" />
    <glyph glyph-name="uni00A0" unicode="&#xa0;" horiz-adv-x="452" 
 />
    <glyph glyph-name="pi" unicode="&#x3c0;" horiz-adv-x="1470" 
d="M320 914q-59 0 -120 -0.5t-126 -3.5l38 166l159 -4t153 -3.5t153.5 -2t160.5 -0.5q160 0 328.5 2.5t329.5 7.5l-40 -166q-53 3 -109.5 3.5t-104.5 0.5v-508q0 -99 5.5 -191.5t10.5 -192.5l-198 -42v936h-454v-510q0 -99 3.5 -191.5t8.5 -192.5l-198 -42v934z" />
    <glyph glyph-name="logicalnot" unicode="&#xac;" horiz-adv-x="1404" 
d="M148 772h1084l-22 -516l-168 -22v380h-914z" />
    <glyph glyph-name="paragraph" unicode="&#xb6;" horiz-adv-x="1336" 
d="M604 602q-100 6 -184.5 36.5t-146 84.5t-96.5 131t-35 176q0 91 38.5 178t114.5 154.5t189 108.5t262 41q26 0 73.5 -1t101.5 -4t109 -7.5t96 -11.5v-1376q0 -31 0.5 -78t2 -100t4 -107.5t5.5 -100.5l-188 -40v1668q-38 6 -85.5 8t-86.5 2v-1252q0 -50 1.5 -97.5t3.5 -94
t4.5 -94.5t4.5 -100l-186 -40z" />
    <glyph glyph-name="fi" unicode="&#xf001;" horiz-adv-x="1272" 
d="M238 928h-198l20 88l182 44v12q0 124 35.5 226.5t101 176t158 114.5t207.5 41q31 0 68 -3.5t78 -13.5t84 -27t86 -44l-60 -168q-31 28 -62 51.5t-64.5 40.5t-71.5 26.5t-82 9.5q-76 0 -131 -28t-91 -78.5t-53 -121.5t-17 -156v-58h322l-44 -132h-278v-928h-190v928z
M906 1030l190 58v-1088h-190v1030z" />
    <glyph glyph-name="plus" unicode="+" horiz-adv-x="1257" 
d="M561 1102h135v-1021h-135v1021zM1127 659v-135h-997v135h997z" />
    <glyph glyph-name="numbersign" unicode="#" horiz-adv-x="1520" 
d="M509 1465h137l-272 -1465h-137zM1121 1465h137l-272 -1465h-137zM1489 1101l-24 -125h-1345l24 125h1345zM1375 489l-24 -125h-1345l24 125h1345z" />
    <glyph glyph-name="bracketright" unicode="]" horiz-adv-x="832" 
d="M576 -358h-514v135h379v1640h-379v135h514v-1910z" />
    <glyph glyph-name="backslash" unicode="\" horiz-adv-x="846" 
d="M786 -308h-152l-534 1886h152z" />
    <glyph glyph-name="uni00B5" unicode="&#xb5;" horiz-adv-x="1198" 
d="M160 704q0 46 -1 86t-2.5 79t-3.5 80t-5 89l218 46v-700q0 -56 16 -102t44 -78.5t66.5 -50t83.5 -17.5q68 0 133.5 38.5t122.5 97.5v432q0 46 -1 85.5t-3 78.5t-4.5 79.5l-5.5 90.5l218 46v-726q0 -50 1 -93t3 -83t5 -79.5t7 -82.5l-184 -42l-24 162q-2 0 -11 2t-11 2
l-67.5 -56.5t-77 -54.5t-89.5 -41t-104 -16q-38 0 -71 8t-65 22v-130q0 -50 1.5 -97t4 -94t5.5 -95t5 -100l-204 -44v1258z" />
    <glyph glyph-name="uni2113" unicode="&#x2113;" horiz-adv-x="1120" 
d="M486 670q149 145 239 292.5t101 301.5q4 60 -4.5 104t-26 73t-42.5 43t-53 14q-32 0 -61.5 -18.5t-53 -58t-39.5 -101t-22 -146.5zM1022 266q-83 -136 -195.5 -212t-242.5 -76q-80 0 -137 29.5t-94 82t-54 124t-15 156.5l-130 -86l-48 106l186 134l42 604q10 136 50 232
t99 157t131 89t146 28q63 0 113.5 -20.5t84.5 -61t50 -101t10 -141.5q-8 -104 -49 -207.5t-111 -206t-167 -203.5t-215 -201q-8 -99 3.5 -166t36.5 -107.5t61 -57.5t79 -17q45 0 87.5 15.5t80.5 40.5t70 56t56 62z" />
    <glyph glyph-name="uni2206" unicode="&#x2206;" horiz-adv-x="1292" 
d="M1234 -2q-80 2 -150 3t-138 1h-137.5h-146.5h-162.5h-139t-138.5 -1t-162 -3l-38 72l534 1416l176 18l540 -1434zM620 154q109 0 214.5 0.5t193.5 5.5l-244 656q-18 48 -39 109.5t-40.5 125t-36 122.5t-26.5 103h-22q-11 -46 -29 -105t-39 -121.5l-42.5 -123
l-39.5 -108.5l-248 -660q52 -2 99.5 -2.5l94.5 -1t96.5 -0.5h107.5z" />
    <glyph glyph-name="uni0218" unicode="&#x218;" horiz-adv-x="1230" 
d="M484 -492q47 41 72.5 92t33.5 102q-17 12 -40.5 18.5t-49.5 11.5q-11 20 -14.5 37t-3.5 31q0 24 9.5 45t26 36t38.5 24t48 9q23 0 46 -7.5t41 -25t29.5 -46t11.5 -69.5q0 -35 -11.5 -75.5t-36 -81t-62.5 -78t-90 -67.5zM585 135q66 0 122 17.5t96 50t62.5 77.5t22.5 100
q0 65 -30.5 110t-80 79t-113.5 60.5l-130 54t-130 59.5t-113.5 78t-80 108.5t-30.5 151.5q0 94 36 169t100.5 127.5t153 80t194.5 27.5q65 0 163 -12.5t208 -45.5l-33 -174l-20 -10q-55 25 -107 42t-98 27t-85 14t-68 4q-59 0 -106.5 -14.5t-81 -42t-52 -67t-18.5 -89.5
q0 -67 30.5 -114t81 -83t114.5 -64l130.5 -56t130.5 -60t114.5 -74.5t81 -100.5t30.5 -139q0 -89 -38.5 -169.5t-108 -142t-167 -98t-215.5 -36.5q-50 0 -104.5 7t-109.5 19.5t-108.5 30.5t-101.5 40l34 175l20 10q102 -59 206.5 -93t198.5 -34z" />
    <glyph glyph-name="uni0219" unicode="&#x219;" horiz-adv-x="876" 
d="M322 -492q47 41 73 92t31 102q-15 12 -38.5 18.5t-47.5 11.5q-12 20 -16 37t-4 31q0 24 9.5 45t26 36t39.5 24t49 9q23 0 46 -7.5t41 -25t29.5 -46t11.5 -69.5q0 -35 -11.5 -75.5t-36 -81t-63 -78t-91.5 -67.5zM120 208l18 12q38 -21 80 -37.5t83 -27.5t80.5 -17t73.5 -6
q47 0 86 11t66.5 31t43 48t15.5 62q0 43 -24 71.5t-63 49t-89 35.5l-102 31t-102 36t-89 50.5t-63 74t-24 106.5q0 70 31 132.5t87 109t134.5 73.5t174.5 27q23 0 55 -2t68 -6.5t73.5 -12t72.5 -18.5l-40 -156l-24 -14q-28 15 -61.5 26t-68 17.5t-67.5 10t-58 3.5
q-46 0 -83.5 -10t-64.5 -28.5t-42 -45t-15 -60.5q0 -44 24 -73t64 -49.5t90.5 -35.5l103.5 -31t103.5 -36t90.5 -51t64 -75.5t24 -108.5q0 -75 -33.5 -138t-92 -109t-137 -71.5t-168.5 -25.5q-77 0 -164.5 18t-170.5 50z" />
    <glyph glyph-name="uni015E" unicode="&#x15e;" horiz-adv-x="1230" 
d="M164 246l22 12q110 -69 206 -103.5t194 -34.5q70 0 126.5 17.5t97 49.5t62.5 77t22 100q0 66 -30.5 113t-80.5 83.5t-113.5 66.5l-130.5 61t-130.5 66.5t-113.5 84t-80.5 113.5t-30.5 154q0 97 36.5 174t102 130.5t155 81.5t196.5 28q66 0 160 -13t200 -43l-32 -178
l-20 -8q-94 47 -177.5 69.5t-154.5 22.5q-60 0 -109 -15t-84 -43t-54 -68.5t-19 -91.5q0 -67 31 -116t81 -87t114.5 -69.5l131.5 -63t131.5 -67t114.5 -81.5t81 -107t31 -143q0 -77 -27.5 -147t-79 -127t-125.5 -98t-166 -60l-52 -90q34 -6 64 -18.5t51.5 -32t34 -45.5
t12.5 -58q0 -56 -33 -99.5t-83 -72t-109 -42t-111 -10.5l-12 90q95 12 143.5 39.5t48.5 72.5q0 24 -13 40.5t-35 27t-51.5 15t-62.5 5.5l-12 14l90 148q-43 0 -92 4t-104.5 14.5t-117 30t-128.5 51.5z" />
    <glyph glyph-name="uni015F" unicode="&#x15f;" horiz-adv-x="876" 
d="M102 216l20 12q100 -60 177.5 -82t128.5 -22q39 0 73.5 10.5t60.5 30t41 47t15 62.5q0 41 -22.5 70t-58.5 51.5t-82.5 41l-95.5 38t-95.5 42.5t-82.5 54.5t-58.5 74.5t-22.5 102q0 67 29.5 127.5t83.5 107t129.5 74t167.5 27.5q19 0 47.5 -1.5t63.5 -6t74 -12t79 -20.5
l-40 -164l-22 -14q-40 22 -76 35.5t-67.5 21t-57 10.5t-43.5 3q-37 0 -70 -9t-58 -27t-39.5 -44t-14.5 -60q0 -43 22.5 -73t60 -53t84.5 -41.5l96.5 -38t97 -42.5t85 -55t60 -75.5t22.5 -103.5q0 -56 -20.5 -107t-57.5 -93t-87.5 -73.5t-110.5 -48.5l-54 -96
q69 -12 113.5 -50.5t44.5 -103.5q0 -56 -32 -99.5t-80.5 -72t-106 -42t-109.5 -10.5l-10 90q92 12 139 39.5t47 72.5q0 24 -13 40.5t-35 27t-51 15t-61 5.5l-10 14l84 150q-66 0 -151 17.5t-191 58.5z" />
    <glyph glyph-name="uni20BD" unicode="&#x20bd;" horiz-adv-x="1272" 
d="M267 613l18 12q38 -21 80 -37.5t83 -27.5t80.5 -17t73.5 -6q47 0 86 11t66.5 31t43 48t15.5 62q0 43 -24 71.5t-63 49t-89 35.5l-102 31t-102 36t-89 50.5t-63 74t-24 106.5q0 70 31 132.5t87 109t134.5 73.5t174.5 27q23 0 55 -2t68 -6.5t73.5 -12t72.5 -18.5l-40 -156
l-24 -14q-28 15 -61.5 26t-68 17.5t-67.5 10t-58 3.5q-46 0 -83.5 -10t-64.5 -28.5t-42 -45t-15 -60.5q0 -44 24 -73t64 -49.5t90.5 -35.5l103.5 -31t103.5 -36t90.5 -51t64 -75.5t24 -108.5q0 -75 -33.5 -138t-92 -109t-137 -71.5t-168.5 -25.5q-77 0 -164.5 18t-170.5 50z
" />
    <glyph glyph-name="asciicircum" unicode="^" horiz-adv-x="1028" 
d="M562 1465l365 -800h-149l-284 625l-284 -625h-149l365 800h136z" />
    <glyph glyph-name="asterisk" unicode="*" horiz-adv-x="1082" 
d="M452 1033l-8 16l-338 -28l16 136l322 -24l8 16l-204 292l138 52l148 -302h20l142 302l140 -52l-206 -294l8 -16l338 26l-16 -136l-324 26l-8 -16l204 -296l-140 -50l-144 304h-20l-138 -304l-142 50z" />
    </font>
</defs>
</svg>
