<?xml version="1.0" standalone="no"?>
<!DOCTYPE svg PUBLIC "-//W3C//DTD SVG 1.1//EN" "http://www.w3.org/Graphics/SVG/1.1/DTD/svg11.dtd" >
<svg>
<metadata>
Created by FontForge 20090622 at Sun Mar 20 21:15:58 2016
 By deploy user
Copyright (c) 2015 by Jasper de Waard. All rights reserved.
</metadata>
<defs>
<font id="ProzaLibre-MediumItalic" horiz-adv-x="1239" >
  <font-face 
    font-family="Proza Libre"
    font-weight="500"
    font-style="italic"
    font-stretch="normal"
    units-per-em="2048"
    panose-1="2 0 6 3 0 0 0 9 0 4"
    ascent="1638"
    descent="-410"
    x-height="1060"
    cap-height="1465"
    bbox="-186 -588 2779 1970"
    underline-thickness="50"
    underline-position="-50"
    unicode-range="U+000D-U+FB02"
  />
<missing-glyph horiz-adv-x="452" 
 />
    <glyph glyph-name=".notdef" horiz-adv-x="452" 
 />
    <glyph glyph-name="NULL" horiz-adv-x="0" 
 />
    <glyph glyph-name="NULL" horiz-adv-x="0" 
 />
    <glyph glyph-name="nonmarkingreturn" unicode="&#xd;" horiz-adv-x="452" 
 />
    <glyph glyph-name="space" unicode=" " horiz-adv-x="436" 
 />
    <glyph glyph-name="slash" unicode="/" horiz-adv-x="927" 
d="M760 1602h182l-759 -1910h-182z" />
    <glyph glyph-name="quotesingle" unicode="'" horiz-adv-x="633" 
d="M178 963q40 39 76 81t66 85t52 84.5t34 79.5q-11 12 -27 24t-35 23t-39 19t-39 13q-4 11 -5.5 26.5t-1.5 29.5q0 34 14 67.5t39.5 59.5t60 42.5t75.5 16.5q28 0 55.5 -10t48.5 -32t34 -55.5t13 -80.5q0 -52 -18.5 -113t-60 -128.5t-107.5 -139.5t-162 -145z" />
    <glyph glyph-name="hyphen" unicode="-" horiz-adv-x="987" 
d="M854 674l-18 -165h-687l18 165h687z" />
    <glyph glyph-name="semicolon" unicode=";" horiz-adv-x="731" 
d="M373 660q-33 0 -60 12t-47 33t-31 48.5t-11 58.5q0 38 15.5 72t42 59.5t61 40.5t72.5 15q32 0 59.5 -12.5t47 -33.5t30.5 -49t11 -59q0 -38 -16 -71.5t-42 -59t-60.5 -40t-71.5 -14.5zM70 -333q40 39 76 81.5t66 85t52 84t34 79.5q-11 12 -27 24.5t-34.5 23t-38.5 19
t-39 12.5q-4 11 -5.5 27t-1.5 29q0 34 14 68t39 60t59.5 42.5t75.5 16.5q28 0 55.5 -10.5t48.5 -32t34 -55.5t13 -81q0 -52 -18.5 -113t-60 -128t-107.5 -139t-161 -146z" />
    <glyph glyph-name="equal" unicode="=" horiz-adv-x="1383" 
d="M1175 459l-18 -165h-983l18 165h983zM1225 889l-19 -165h-983l19 165h983z" />
    <glyph glyph-name="bracketleft" unicode="[" horiz-adv-x="914" 
d="M370 1602h542l-19 -165h-371l-186 -1630h371l-18 -165h-542z" />
    <glyph glyph-name="asciitilde" unicode="~" horiz-adv-x="1388" 
d="M929 505q34 0 66 20.5t58 61.5t44.5 102t25.5 142h165q-8 -93 -30 -165.5t-53.5 -126t-71.5 -90.5t-82.5 -60t-86 -33t-82.5 -10q-59 0 -101 24t-74.5 60.5t-58.5 79t-52 79t-55 60.5t-68 24q-35 0 -66.5 -21t-57 -62.5t-43.5 -102.5t-25 -141h-165q11 138 53 231
t100 149.5t123 80.5t122 24q62 0 106.5 -24t77.5 -60.5t58 -78.5t50.5 -78.5t54 -60.5t68.5 -24z" />
    <glyph glyph-name="eacute" unicode="&#xe9;" horiz-adv-x="1114" 
d="M503 -20q-92 0 -169 31t-133 89t-87 140.5t-31 186.5q0 94 25 178.5t69.5 157t105 131t131 100t147.5 64t155 22.5q82 0 144.5 -23.5t104.5 -62.5t63.5 -89t21.5 -104q0 -75 -41 -138.5t-119.5 -110.5t-194 -73.5t-263.5 -26.5h-100q0 -61 18.5 -113.5t55.5 -91.5t93 -61
t131 -22q72 0 144.5 22t144.5 65v-114q-48 -42 -101.5 -72t-108 -49t-107.5 -27.5t-99 -8.5zM663 907q-59 0 -112 -27.5t-95.5 -73.5t-72 -106.5t-42.5 -127.5h99q91 0 161.5 15t119 41.5t74 62.5t25.5 78q0 25 -10 50t-29.5 44.5t-49 31.5t-68.5 12zM545 1240l244 362h259
l-320 -362h-183z" />
    <glyph glyph-name="quoteleft" unicode="&#x2018;" horiz-adv-x="633" 
d="M627 1579q-40 -39 -76 -81.5t-66 -85t-52.5 -84.5t-34.5 -79q11 -12 27 -24.5t35 -23t39 -19t39 -12.5q4 -11 5.5 -27t1.5 -29q0 -35 -14 -68.5t-39 -59.5t-59.5 -42.5t-75.5 -16.5q-29 0 -56 10.5t-48 32t-34 55.5t-13 81q0 52 18.5 113t59.5 128t107.5 139t161.5 146z
" />
    <glyph glyph-name="quotedblbase" unicode="&#x201e;" horiz-adv-x="1113" 
d="M30 -333q40 39 76 81.5t66 85t52 84t34 79.5q-11 12 -27 24.5t-34.5 23t-38.5 19t-39 12.5q-4 11 -5.5 27t-1.5 29q0 34 14 68t39 60t59.5 42.5t75.5 16.5q28 0 55.5 -10.5t48.5 -32t34 -55.5t13 -81q0 -52 -18.5 -113t-60 -128t-107.5 -139t-161 -146zM510 -333
q40 39 76 81.5t66 85t52 84t34 79.5q-11 12 -27 24.5t-35 23t-39 19t-39 12.5q-4 11 -5.5 27t-1.5 29q0 34 14 68t39.5 60t60 42.5t75.5 16.5q28 0 55.5 -10.5t48.5 -32t34 -55.5t13 -81q0 -52 -18.5 -113t-60 -128t-107.5 -139t-162 -146z" />
    <glyph glyph-name="trademark" unicode="&#x2122;" horiz-adv-x="2340" 
d="M631 557h-199l86 752h-284l45 156h747l-45 -156h-264zM1027 557l174 908h294l54 -285l33 -176l25 -192h20l69 192l36.5 88.5l36.5 87.5l118 285h293l-31 -908h-207l31 532l23 225h-20l-55 -148l-56 -145l-188 -446h-197l-85 432l-20 110l-29 197h-20l-27 -224
q-3 -21 -6.5 -42t-7.5 -42l-75 -449h-183z" />
    <glyph glyph-name="greater" unicode="&#x3e;" horiz-adv-x="1165" 
d="M1016 533l-866 -473l22 189l645 353l-566 353l22 189l759 -473z" />
    <glyph glyph-name="ellipsis" unicode="&#x2026;" horiz-adv-x="1793" 
d="M266 -20q-33 0 -60 12t-47 33t-31 48.5t-11 58.5q0 38 15.5 72t41.5 59.5t60.5 40.5t72.5 15q32 0 59.5 -12.5t47.5 -33.5t31 -49t11 -59q0 -38 -16 -71.5t-42 -59t-60.5 -40t-71.5 -14.5zM834 -20q-33 0 -60 12t-47 33t-31 48.5t-11 58.5q0 38 15.5 72t42 59.5
t60.5 40.5t72 15q33 0 60 -12.5t47 -33.5t31 -49t11 -59q0 -38 -15.5 -71.5t-42 -59t-61 -40t-71.5 -14.5zM1403 -20q-33 0 -60 12t-47 33t-31 48.5t-11 58.5q0 38 15.5 72t41.5 59.5t60.5 40.5t72.5 15q32 0 59.5 -12.5t47.5 -33.5t31 -49t11 -59q0 -38 -16 -71.5t-42 -59
t-60.5 -40t-71.5 -14.5z" />
    <glyph glyph-name="c" unicode="c" horiz-adv-x="1001" 
d="M861 123q-97 -77 -188.5 -110t-179.5 -33q-92 0 -167.5 32.5t-129.5 91.5t-83.5 142.5t-29.5 184.5q0 91 24 175t68 156t104 130.5t133 100.5t155 64.5t169 22.5q56 0 120.5 -11t117.5 -34l-64 -183l-22 -10q-34 26 -88 45.5t-114 19.5q-67 0 -129 -29t-110 -84
t-76.5 -133t-28.5 -175q0 -83 21 -144t58.5 -100.5t88 -58.5t110.5 -19q57 0 117.5 17t123.5 56v-114z" />
    <glyph glyph-name="h" unicode="h" horiz-adv-x="1275" 
d="M441 827q45 51 91.5 97t97 80.5t106.5 55t121 20.5q77 0 133 -29.5t90 -79t47 -114.5t5 -136l-82 -721h-242l79 698q5 40 -1 75.5t-22.5 62.5t-44 43t-65.5 16q-41 0 -84 -18.5t-86 -51t-83.5 -77t-77.5 -96.5l-75 -652h-243l183 1602h243z" />
    <glyph glyph-name="i" unicode="i" horiz-adv-x="573" 
d="M226 1060h242l-121 -1060h-242zM370 1269q-60 0 -95 35t-35 88q0 32 13.5 60.5t36.5 49.5t53.5 33t64.5 12q28 0 52 -9.5t40.5 -26.5t26 -40t9.5 -49q0 -33 -13.5 -61t-36 -48.5t-53 -32t-63.5 -11.5z" />
    <glyph glyph-name="j" unicode="j" horiz-adv-x="572" 
d="M-186 -456q77 53 130.5 116t88 131.5t53.5 139.5t27 140l112 989h243l-106 -936q-11 -97 -41.5 -194.5t-87 -187.5t-142 -167t-206.5 -133zM369 1269q-59 0 -94.5 35t-35.5 88q0 32 13.5 60.5t36.5 49.5t53.5 33t64.5 12q28 0 52 -9.5t40.5 -26.5t26 -40t9.5 -49
q0 -33 -13.5 -61t-36 -48.5t-53 -32t-63.5 -11.5z" />
    <glyph glyph-name="l" unicode="l" horiz-adv-x="572" 
d="M288 1602h243l-183 -1602h-243z" />
    <glyph glyph-name="m" unicode="m" horiz-adv-x="1927" 
d="M226 1060h198l6 -246q46 53 93 101t97 85t104.5 58.5t116.5 21.5q60 0 107.5 -20.5t81 -56.5t53.5 -84.5t25 -103.5q46 54 93.5 102t98.5 84.5t106 57.5t116 21q72 0 125 -29.5t86 -79t46 -114.5t5 -136l-82 -721h-242l79 698q5 40 -0.5 75.5t-21.5 62.5t-41 43t-59 16
q-36 0 -76.5 -18.5t-81.5 -51t-81.5 -77t-77.5 -96.5v4l-75 -656h-242l80 698q4 40 -2 75.5t-22.5 62.5t-42 43t-59.5 16q-36 0 -76 -18.5t-80.5 -51t-80.5 -77t-77 -96.5l-75 -652h-243z" />
    <glyph glyph-name="p" unicode="p" horiz-adv-x="1258" 
d="M433 833q49 56 96.5 101.5t96.5 78t100.5 50t108.5 17.5q82 0 145.5 -36t107 -96.5t66 -140t22.5 -166.5q0 -96 -26.5 -182.5t-73 -160.5t-110 -133.5t-138.5 -101t-157.5 -63t-166.5 -19.5q-45 1 -85.5 8t-68.5 15l-62 -541h-242l182 1597h197zM372 197q47 -26 96 -35
t84 -9q77 0 143.5 33t116 92t78 141t28.5 180q0 61 -12 115t-35 94.5t-58.5 63.5t-81.5 23q-38 0 -77 -16t-78 -45t-76.5 -70t-72.5 -90z" />
    <glyph glyph-name="u" unicode="u" horiz-adv-x="1254" 
d="M1028 0h-198l-6 246l-93.5 -101t-96.5 -85t-105 -58.5t-117 -21.5q-73 0 -127 29.5t-88 79t-47.5 114.5t-5.5 136l82 721h243l-80 -698q-5 -40 1.5 -76t22.5 -63t42 -43t61 -16q37 0 77 18.5t80.5 51.5t80.5 77.5t77 96.5l75 652h243z" />
    <glyph glyph-name="z" unicode="z" horiz-adv-x="1072" 
d="M45 76l525 667l114 131l3 20l-189 -7h-69h-265l63 173h773v-76l-521 -658l-122 -142l-3 -19l177 8h82h324l-63 -173h-829v76z" />
    <glyph glyph-name="period" unicode="." horiz-adv-x="656" 
d="M266 -20q-33 0 -60 12t-47 33t-31 48.5t-11 58.5q0 38 15.5 72t41.5 59.5t60.5 40.5t72.5 15q32 0 59.5 -12.5t47.5 -33.5t31 -49t11 -59q0 -38 -16 -71.5t-42 -59t-60.5 -40t-71.5 -14.5z" />
    <glyph glyph-name="section" unicode="&#xa7;" horiz-adv-x="1379" 
d="M175 -122l20 11q40 -23 88.5 -41.5t100.5 -32t103.5 -21t97.5 -7.5q60 0 108 12.5t81.5 35.5t51 55t17.5 71q0 47 -27.5 80.5t-72.5 59.5t-102.5 47l-117 43t-117 47.5t-102.5 60t-72.5 81t-27.5 110.5q0 57 19.5 105t54 89.5t81.5 77.5t101 69q-33 19 -61 42.5t-49 53.5
t-32.5 67t-11.5 83q0 91 40.5 166t114 129t177 83.5t230.5 29.5q32 0 71.5 -2.5t82.5 -7.5t87.5 -14.5t86.5 -22.5l-63 -187l-23 -11q-75 37 -153.5 53.5t-151.5 16.5q-61 0 -110.5 -11.5t-84 -33t-53 -53.5t-18.5 -72q0 -47 27.5 -81.5t73 -61t103.5 -48l118 -43.5t118 -48
t103.5 -60.5t73 -80.5t27.5 -110q0 -59 -21 -109t-56.5 -93.5t-80.5 -79.5t-93 -66q32 -18 59.5 -41.5t47.5 -52.5t31.5 -64t11.5 -78q0 -86 -40 -161t-112 -130.5t-173 -87t-224 -31.5q-50 0 -106.5 5.5t-113 16t-108.5 24t-93 30.5zM951 531q0 52 -31.5 87t-82 61.5
t-114 47.5t-126.5 45q-27 -13 -56 -33t-53.5 -46t-40.5 -58.5t-16 -69.5q0 -52 33 -87.5t86 -62.5t118.5 -49.5t130.5 -47.5q26 14 53 36t49 49.5t36 59.5t14 68z" />
    <glyph glyph-name="degree" unicode="&#xb0;" horiz-adv-x="1120" 
d="M242 1182q0 99 37 180t99.5 138.5t143.5 89.5t169 32q75 0 138.5 -25t110 -71t73 -110.5t26.5 -143.5q0 -99 -37.5 -180t-99.5 -138.5t-143.5 -89.5t-169.5 -32q-75 0 -138.5 25t-110 71t-72.5 110.5t-26 143.5zM412 1204q0 -45 15 -84.5t42 -69t65 -46.5t84 -17
q53 0 98.5 21t79 57t52.5 84t19 101q0 45 -15 84.5t-42 69t-65 46.5t-84 17q-53 0 -98.5 -21t-79 -57t-52.5 -84t-19 -101z" />
    <glyph glyph-name="quoteright" unicode="&#x2019;" horiz-adv-x="633" 
d="M178 963q40 39 76 81t66 85t52 84.5t34 79.5q-11 12 -27 24t-35 23t-39 19t-39 13q-4 11 -5.5 26.5t-1.5 29.5q0 34 14 67.5t39.5 59.5t60 42.5t75.5 16.5q28 0 55.5 -10t48.5 -32t34 -55.5t13 -80.5q0 -52 -18.5 -113t-60 -128.5t-107.5 -139.5t-162 -145z" />
    <glyph glyph-name="f" unicode="f" horiz-adv-x="883" 
d="M463 209q-10 -89 -28 -191t-41 -203t-50.5 -192.5t-56.5 -158.5h-152l161 1423h-213l32 122l201 51l6 46q12 107 53.5 201t109 164t158.5 110.5t202 40.5q45 0 91 -7t89 -22l-60 -172l-21 -10q-29 17 -62 27.5t-71 10.5q-56 0 -98 -23.5t-72 -64t-48 -96t-25 -119.5
l-10 -86h352l-62 -173h-309z" />
    <glyph glyph-name="k" unicode="k" horiz-adv-x="1155" 
d="M288 1602h243l-183 -1602h-243zM774 0l-327 565q139 112 243.5 238t172.5 257h246q-44 -70 -96.5 -137t-108 -128.5t-111 -114.5t-105.5 -95l371 -585h-285z" />
    <glyph glyph-name="v" unicode="v" horiz-adv-x="1091" 
d="M124 1060h263l54 -692q1 -46 1.5 -92t2.5 -92h20q76 103 138 208t109.5 214t81.5 222t56 232h243q-42 -153 -99 -291.5t-129 -268t-159.5 -253.5t-190.5 -247h-249z" />
    <glyph glyph-name="w" unicode="w" horiz-adv-x="1715" 
d="M849 538q-23 -45 -48.5 -90t-54.5 -90q-52 -94 -110.5 -186.5t-119.5 -171.5h-249l-143 1060h263l54 -692q1 -46 1.5 -92t2.5 -92h20q114 159 198.5 322t143.5 312l-32 242h255l45 -582l9 -137q1 -39 1.5 -78.5t2.5 -78.5h20q76 103 133.5 208t100.5 214t73.5 222
t51.5 232h243q-42 -153 -95 -291.5t-120 -268t-150.5 -253.5t-186.5 -247h-241z" />
    <glyph glyph-name="x" unicode="x" horiz-adv-x="1134" 
d="M-10 0q94 148 209 277.5t243 256.5l-297 526h277l111 -228l61 -154h20q86 91 146.5 184.5t111.5 197.5h244q-45 -71 -97.5 -139t-109 -132.5t-115 -124l-114.5 -112.5l319 -552h-277l-128 254l-60 146h-20l-86.5 -101t-71.5 -94t-62.5 -97t-59.5 -108h-244z" />
    <glyph glyph-name="quotedbl" unicode="&#x22;" horiz-adv-x="1113" 
d="M178 963q40 39 76 81t66 85t52 84.5t34 79.5q-11 12 -27 24t-35 23t-39 19t-39 13q-4 11 -5.5 26.5t-1.5 29.5q0 34 14 67.5t39.5 59.5t60 42.5t75.5 16.5q28 0 55.5 -10t48.5 -32t34 -55.5t13 -80.5q0 -52 -18.5 -113t-60 -128.5t-107.5 -139.5t-162 -145zM658 963
q40 39 76 81t66 85t52 84.5t34 79.5q-11 12 -27 24t-35 23t-39 19t-39 13q-4 11 -5.5 26.5t-1.5 29.5q0 34 14 67.5t39 59.5t59.5 42.5t75.5 16.5q29 0 56.5 -10t48.5 -32t34 -55.5t13 -80.5q0 -52 -18.5 -113t-60 -128.5t-107.5 -139.5t-162 -145z" />
    <glyph glyph-name="question" unicode="?" horiz-adv-x="996" 
d="M562 1310q-27 0 -63.5 -5.5t-78.5 -19t-88.5 -35.5t-93.5 -54l-15 9l-28 167q121 61 231 87t213 26q87 0 151.5 -17.5t107.5 -48t65.5 -73.5t25.5 -94q2 -24 -1 -47.5t-8 -44.5q-16 -65 -55 -114.5t-88.5 -92.5t-103.5 -83.5t-99 -87t-75 -103.5t-32 -132l-1 -17h-174
q-1 12 -1.5 26t-0.5 27q0 82 28.5 144t71 112.5t92.5 91.5t92.5 79.5t71 78.5t28.5 88q0 31 -13.5 55.5t-37 42t-54.5 26.5t-67 9zM382 -20q-33 0 -60 12t-47 33t-31 48.5t-11 58.5q0 38 15.5 72t41.5 59.5t60 40.5t72 15q33 0 60.5 -12.5t47.5 -33.5t31 -49t11 -59
q0 -38 -16 -71.5t-42 -59t-60.5 -40t-71.5 -14.5z" />
    <glyph glyph-name="A" unicode="A" horiz-adv-x="1457" 
d="M985 378h-588l-165 -378h-222l686 1465h280l352 -1465h-261zM949 548l-112 542l-31 209h-20l-78 -209l-119.5 -270.5l-117.5 -271.5h478z" />
    <glyph glyph-name="B" unicode="B" horiz-adv-x="1347" 
d="M959 810q54 -15 102.5 -44.5t86 -71t59.5 -93.5t22 -113q0 -84 -45 -170.5t-131 -157t-210 -115.5t-281 -45h-415l167 1465h457q118 0 206 -26t146.5 -69t87 -98.5t28.5 -113.5q0 -56 -23.5 -105t-62.5 -92.5t-89.5 -81t-104.5 -69.5zM415 176h192q97 0 165 26.5t111 68
t63 93.5t20 103q0 54 -22 93.5t-62.5 65t-97.5 38t-126 12.5h-186zM818 847q37 24 67.5 52t53 60t35 67.5t12.5 74.5q0 87 -69 137.5t-200 50.5h-175l-50 -442h326z" />
    <glyph glyph-name="C" unicode="C" horiz-adv-x="1441" 
d="M1282 140q-58 -46 -126 -76.5t-136.5 -49t-133.5 -26.5t-118 -8q-136 0 -249.5 46.5t-195.5 131.5t-127.5 204t-45.5 265q0 135 36 251t99 211t149 169t187 124.5t212 76.5t224 26q34 0 77.5 -3t91.5 -9.5t99.5 -17t103.5 -26.5l-62 -194l-21 -10q-99 48 -187.5 66
t-153.5 18q-83 0 -159 -22.5t-141.5 -63.5t-119.5 -98.5t-92 -127.5t-58.5 -150.5t-20.5 -167.5q0 -106 31 -199.5t92 -163.5t151.5 -111t209.5 -41q40 0 87 6t97 18t101 31t99 45v-124z" />
    <glyph glyph-name="D" unicode="D" horiz-adv-x="1649" 
d="M314 1465h521q178 0 311.5 -47.5t223 -131t134 -196.5t44.5 -244q0 -96 -24 -196t-73 -194t-124 -177t-177 -145t-231 -98t-287 -36h-485zM415 176h274q149 0 260.5 52t186 140.5t112 204t37.5 243.5q0 112 -32.5 200t-96 149t-157 92.5t-215.5 31.5h-242z" />
    <glyph glyph-name="E" unicode="E" 
d="M147 0l167 1465h891l-53 -176h-610l-50 -442h539l-51 -171h-508l-57 -500h657l-53 -176h-872z" />
    <glyph glyph-name="F" unicode="F" horiz-adv-x="1194" 
d="M147 0l167 1465h891l-53 -176h-610l-50 -442h539l-51 -171h-508l-77 -676h-248z" />
    <glyph glyph-name="G" unicode="G" horiz-adv-x="1578" 
d="M1334 77q-146 -54 -274.5 -75.5t-234.5 -21.5q-162 0 -287.5 45t-212 129t-131.5 203.5t-45 267.5q0 134 35.5 250t99 211.5t150.5 170t189.5 125t217 77t232.5 26.5q36 0 80 -3t93 -9.5t100.5 -17t103.5 -26.5l-61 -193l-21 -10q-100 49 -190 66t-157 17
q-132 0 -243.5 -49.5t-192.5 -136t-126.5 -202.5t-45.5 -249q0 -106 30 -199.5t89 -164t146.5 -111.5t202.5 -41q52 0 117 9t128 29l58 506h221z" />
    <glyph glyph-name="H" unicode="H" horiz-adv-x="1636" 
d="M147 0l167 1465h248l-70 -615h728l70 615h248l-167 -1465h-248l76 674h-727l-77 -674h-248z" />
    <glyph glyph-name="I" unicode="I" horiz-adv-x="660" 
d="M395 0h-248l167 1465h248z" />
    <glyph glyph-name="J" unicode="J" horiz-adv-x="659" 
d="M-181 -356q99 59 162.5 122.5t102 135t57.5 152.5t30 176l140 1235h250l-133 -1165q-14 -129 -48 -242t-98 -210t-162 -177.5t-240 -143.5z" />
    <glyph glyph-name="K" unicode="K" horiz-adv-x="1512" 
d="M395 0h-248l167 1465h248zM1078 0l-507 740l670 725h258l-681 -682l569 -783h-309z" />
    <glyph glyph-name="L" unicode="L" horiz-adv-x="1124" 
d="M147 0l167 1465h248l-147 -1289h587l-53 -176h-802z" />
    <glyph glyph-name="M" unicode="M" horiz-adv-x="2047" 
d="M105 0l280 1465h362l73.5 -340l72.5 -340l64 -293l29 -181h20l70 181l57.5 128l57.5 128l318 717h374l-54 -1465h-256l57 1095l20 228h-21l-84 -218l-28 -61l-28 -61l-424 -953h-226l-209 952l-33 155l-16 93l-16 93h-21q-7 -48 -13 -95.5t-13 -95.5l-27 -159l-169 -973
h-217z" />
    <glyph glyph-name="N" unicode="N" horiz-adv-x="1693" 
d="M139 0l167 1465h350l517 -933l80 -193h20l10 185l15.5 138l15.5 138l75 665h213l-167 -1465h-233l-622 1117l-73 185h-20l-11 -213l-61.5 -544.5l-62.5 -544.5h-213z" />
    <glyph glyph-name="O" unicode="O" horiz-adv-x="1758" 
d="M849 156q77 0 147.5 23.5t130.5 66t109 102t83.5 130.5t53.5 152t19 167q0 111 -31 204.5t-88 162t-137 107t-179 38.5q-78 0 -148.5 -24t-130.5 -67.5t-109 -103.5t-83 -131.5t-52.5 -152.5t-18.5 -166q0 -110 31 -203t87.5 -161t136.5 -106t179 -38zM798 -20
q-140 0 -258.5 45.5t-204.5 130t-135 205.5t-49 271q0 123 33 234.5t91.5 206t139 171t176 130t202 82.5t217.5 29q137 0 255 -44.5t205 -128.5t136.5 -205t49.5 -274q0 -123 -32.5 -234t-90.5 -206t-138.5 -171t-175.5 -130t-202 -83t-219 -29z" />
    <glyph glyph-name="P" unicode="P" horiz-adv-x="1310" 
d="M395 0h-248l167 1465h442q117 0 212 -28.5t162.5 -83t104 -133.5t36.5 -181q0 -83 -24 -154.5t-65.5 -131t-97.5 -105.5t-121.5 -78t-136.5 -48.5t-142 -16.5q-14 0 -28 1t-34 4l34 166q14 -2 25 -2.5t22 -0.5q36 0 70.5 7.5t64.5 22.5q43 15 76.5 45t57 70.5t36 90.5
t12.5 106q0 73 -21.5 125t-62 85t-99.5 48.5t-135 15.5h-160z" />
    <glyph glyph-name="Q" unicode="Q" horiz-adv-x="1746" 
d="M783 -20q-137 0 -253 46.5t-200 132t-131.5 204.5t-47.5 265q0 122 33 233t91.5 206.5t139 172.5t176.5 131.5t204 84t221 29.5q134 0 251 -44t203.5 -126.5t136 -201t49.5 -268.5q0 -148 -46 -277.5t-125.5 -234t-186 -182t-227.5 -120.5l754 -285l-161 -186zM846 156
q117 0 217.5 52t173.5 140t114.5 205t41.5 246q0 110 -31.5 203.5t-88.5 161.5t-137 106.5t-177 38.5q-79 0 -150 -24t-131.5 -67.5t-109 -103.5t-82.5 -131.5t-52.5 -152.5t-18.5 -166q0 -110 31 -203t87.5 -160.5t136 -106t176.5 -38.5z" />
    <glyph glyph-name="R" unicode="R" horiz-adv-x="1366" 
d="M460 570l-65 -570h-248l167 1465h451q112 0 200 -29t148.5 -79t92 -116.5t31.5 -140.5q0 -77 -31 -142.5t-80.5 -119.5t-110.5 -98t-121 -77l349 -663h-293l-248 570h-242zM479 741h301q43 22 80.5 55.5t64.5 74.5t42.5 88t15.5 97t-17 93t-51 74t-85.5 48.5t-120.5 17.5
h-167z" />
    <glyph glyph-name="S" unicode="S" horiz-adv-x="1238" 
d="M547 156q65 0 121.5 16t98.5 45.5t66.5 70.5t24.5 91q0 53 -27 93.5t-70.5 74t-100 62.5l-115 60t-114.5 66.5t-99.5 81t-70.5 103.5t-27 135q0 94 41.5 173t116 136t176 89t221.5 32q33 0 75.5 -3t91.5 -9.5t101 -17t105 -26.5l-62 -194l-20 -10q-50 24 -98.5 40
t-92.5 26t-82 14t-67 4q-59 0 -108 -14.5t-84 -41t-54.5 -63.5t-19.5 -83q0 -55 27 -97t71 -77.5t100.5 -66l115.5 -62t115.5 -66t100.5 -78t71 -98.5t27 -127q0 -91 -44.5 -173.5t-123.5 -145t-188 -99.5t-238 -37q-104 0 -214 24.5t-208 71.5l62 190l21 10
q100 -58 193.5 -89t184.5 -31z" />
    <glyph glyph-name="T" unicode="T" horiz-adv-x="1324" 
d="M719 0h-248l147 1289h-476l53 176h1182l-53 -176h-458z" />
    <glyph glyph-name="U" unicode="U" horiz-adv-x="1548" 
d="M553 1465l-105 -917q-11 -101 12 -175t68.5 -122t107.5 -71.5t129 -23.5q68 0 131 24t113.5 71t85 118t45.5 166l107 930h212l-104 -916q-12 -103 -59.5 -205t-129.5 -183t-198.5 -131t-265.5 -50q-128 0 -227.5 38.5t-165.5 113t-94.5 182.5t-13.5 246l103 905h249z" />
    <glyph glyph-name="V" unicode="V" horiz-adv-x="1460" 
d="M1270 1465h233l-693 -1465h-280l-358 1465h270l226 -1076l32 -207h20l78 207z" />
    <glyph glyph-name="W" unicode="W" horiz-adv-x="2181" 
d="M1339 1358l152 -969l22 -207h19l55.5 163.5l56.5 163.5l339 956h225l-571 -1465h-293l-149 872l-25 244h-20l-72 -214l-57 -146l-149.5 -378l-149.5 -378h-295l-239 1465h261l140 -1076l17 -207h19l121 334l161 421l161 421h271z" />
    <glyph glyph-name="X" unicode="X" horiz-adv-x="1454" 
d="M9 0l627 736l-417 729h289l203 -397l74 -171h20l103 146l121 158l203 264h242l-592 -704l444 -761h-288l-228 427l-75 163h-20l-102 -138l-37 -46.5l-37 -46.5l-288 -359h-242z" />
    <glyph glyph-name="Y" unicode="Y" horiz-adv-x="1370" 
d="M813 640l-73 -640h-248l72 636l-392 829h284l202 -492l66 -197h20l180 296l252 393h238z" />
    <glyph glyph-name="Z" unicode="Z" horiz-adv-x="1322" 
d="M959 1276l2 20l-189 -7h-110h-429l53 176h986l-10 -83l-786 -1060l-115 -135l-2 -19l188 8h101h533l-53 -176h-1083l9 77l789 1064z" />
    <glyph glyph-name="b" unicode="b" horiz-adv-x="1256" 
d="M370 197q47 -26 96 -35t84 -9q77 0 143.5 33t116 92.5t78 141t28.5 179.5q0 62 -12 116t-35 94t-58.5 63t-81.5 23q-38 0 -77 -16t-78 -45t-76.5 -70t-72.5 -90zM444 847q44 50 88.5 92.5t92 74t99 49t109.5 17.5q82 0 145.5 -36t107 -96.5t66 -140t22.5 -166.5
q0 -95 -25.5 -181.5t-71.5 -160t-109.5 -132.5t-139.5 -100.5t-161.5 -64t-175.5 -22.5q-33 0 -77.5 3.5t-95 11t-104 20.5t-104.5 31l177 1556h243z" />
    <glyph glyph-name="n" unicode="n" horiz-adv-x="1275" 
d="M226 1060h198l6 -246q47 54 95.5 102.5t100.5 84.5t109 57.5t122 21.5q78 0 133.5 -29.5t90 -79.5t47 -115t4.5 -135l-82 -721h-243l80 698q4 40 -1.5 76t-22 63t-44 42.5t-65.5 15.5q-41 0 -84 -18.5t-85.5 -51t-83.5 -77t-78 -96.5l-75 -652h-243z" />
    <glyph glyph-name="d" unicode="d" horiz-adv-x="1254" 
d="M825 226q-49 -56 -96.5 -101t-96.5 -77.5t-100.5 -50t-108.5 -17.5q-82 0 -145.5 36t-106.5 96t-65.5 138.5t-22.5 163.5q0 89 24 173.5t68 158.5t105 135.5t134.5 105.5t157.5 68.5t174 24.5q51 0 87 -7t75 -18l62 547h243l-182 -1602h-198zM886 863q-23 13 -47.5 21.5
t-48.5 13.5t-45.5 7t-39.5 2q-77 0 -143.5 -33.5t-115.5 -92.5t-77.5 -141.5t-28.5 -179.5q0 -62 12 -115.5t35.5 -94t58.5 -63.5t81 -23q38 0 77.5 16t78 45.5t76.5 70t73 90.5z" />
    <glyph glyph-name="r" unicode="r" horiz-adv-x="900" 
d="M226 1060h198q-2 -84 -2.5 -166.5t-1.5 -165.5q31 57 68 119t82 113.5t101 85.5t126 34q29 0 56.5 -6.5t45.5 -20.5l-51 -231q-23 5 -42.5 6.5t-38.5 1.5q-60 0 -108.5 -20t-90.5 -56t-80 -87.5t-77 -114.5l-63 -552h-243z" />
    <glyph glyph-name="e" unicode="e" horiz-adv-x="1114" 
d="M503 -20q-92 0 -169 31t-133 89t-87 140.5t-31 186.5q0 94 25 178.5t69.5 157t105 131t131 100t147.5 64t155 22.5q82 0 144.5 -23.5t104.5 -62.5t63.5 -89t21.5 -104q0 -75 -41 -138.5t-119.5 -110.5t-194 -73.5t-263.5 -26.5h-100q0 -61 18.5 -113.5t55.5 -91.5t93 -61
t131 -22q72 0 144.5 22t144.5 65v-114q-48 -42 -101.5 -72t-108 -49t-107.5 -27.5t-99 -8.5zM663 907q-59 0 -112 -27.5t-95.5 -73.5t-72 -106.5t-42.5 -127.5h99q91 0 161.5 15t119 41.5t74 62.5t25.5 78q0 25 -10 50t-29.5 44.5t-49 31.5t-68.5 12z" />
    <glyph glyph-name="o" unicode="o" 
d="M520 -20q-110 0 -192 37t-136.5 99.5t-81.5 145t-27 174.5q0 130 50.5 247t137.5 205t202.5 140t245.5 52q111 0 193 -37t136.5 -100t81.5 -146t27 -175q0 -132 -51 -248.5t-138.5 -204t-203 -138.5t-244.5 -51zM578 153q63 0 120.5 32.5t101.5 89t70.5 133.5t26.5 167
q0 66 -15 126t-45 105.5t-74.5 73t-102.5 27.5q-64 0 -121.5 -33t-101.5 -91t-70 -135.5t-26 -165.5q0 -66 15.5 -126t45.5 -105t74 -71.5t102 -26.5z" />
    <glyph glyph-name="y" unicode="y" horiz-adv-x="1091" 
d="M124 1060h263l54 -692q1 -46 1.5 -92t2.5 -92h20q76 103 138 208t109.5 214t81.5 222t56 232h243q-42 -153 -100 -293t-130.5 -271t-160 -254.5t-187.5 -241.5l-476 -560l-185 95l465 465h-53z" />
    <glyph glyph-name="bar" unicode="|" horiz-adv-x="655" 
d="M366 1602h170l-244 -2138h-170z" />
    <glyph glyph-name="percent" unicode="%" horiz-adv-x="2090" 
d="M1526 1464h200l-1115 -1464h-198zM547 672q-77 0 -136 26t-98.5 72t-59.5 107.5t-20 132.5q0 102 34.5 189t95 150.5t142.5 99.5t176 36q76 0 135 -26t99 -71t60.5 -106.5t20.5 -132.5q0 -100 -34 -187t-94.5 -151.5t-142.5 -101.5t-178 -37zM589 834q40 0 76 20t62 56.5
t41.5 88t15.5 114.5q0 46 -10 84.5t-28.5 66t-46 43t-61.5 15.5q-39 0 -74.5 -19t-62.5 -54.5t-42.5 -87t-15.5 -116.5q0 -47 10 -85.5t29 -66.5t46 -43.5t61 -15.5zM1458 -21q-77 0 -136 26t-99 72t-60 108t-20 133q0 102 34.5 189t95.5 150t142.5 99t176.5 36
q76 0 135 -26t98.5 -71t60 -106.5t20.5 -132.5q0 -100 -34 -187t-94 -151.5t-142 -101.5t-178 -37zM1500 141q40 0 76 20t62 56.5t41.5 88t15.5 114.5q0 46 -10 84.5t-28.5 66.5t-46 43.5t-61.5 15.5q-40 0 -75.5 -19t-62 -54.5t-42 -87t-15.5 -117.5q0 -47 10 -85.5
t29 -66.5t46 -43.5t61 -15.5z" />
    <glyph glyph-name="zero" unicode="0" horiz-adv-x="1467" 
d="M1104 836q0 230 -75 351.5t-212 121.5q-89 0 -163.5 -50t-128.5 -140t-84 -214t-30 -272q0 -230 76 -353.5t213 -123.5q90 0 164.5 51t127.5 142t82.5 215.5t29.5 271.5zM1366 857q0 -130 -26 -245.5t-73 -213t-112.5 -175t-144.5 -131.5t-169 -83t-186 -29
q-117 0 -210.5 43.5t-159 124.5t-101 197.5t-35.5 262.5q0 131 26 247.5t73.5 214t113 174.5t144.5 130.5t168.5 82t184.5 28.5q116 0 210 -43.5t160 -124.5t101.5 -197.5t35.5 -262.5z" />
    <glyph glyph-name="one" unicode="1" horiz-adv-x="956" 
d="M424 0l133 1174h-400l14 125q97 0 177 11t145.5 32t118 52t95.5 71h132l-167 -1465h-248z" />
    <glyph glyph-name="two" unicode="2" horiz-adv-x="1232" 
d="M59 74q226 196 375.5 348t239 271t126.5 211.5t37 171.5q0 64 -20 107t-53 69t-76 37t-89 11q-39 0 -81 -7t-83 -19t-80.5 -29t-73.5 -38v128q46 35 99 62.5t109.5 47t114.5 30t114 10.5q86 0 157 -25.5t121.5 -71.5t78.5 -111.5t28 -144.5q0 -96 -43.5 -199t-133 -219
t-225 -248.5t-319.5 -289.5h666l-54 -176h-938z" />
    <glyph glyph-name="three" unicode="3" horiz-adv-x="1191" 
d="M1085 1199q0 -56 -24.5 -103t-70.5 -90t-113.5 -83.5t-152.5 -83.5q0 -3 -0.5 -6.5t-0.5 -6.5q77 -13 135.5 -43t97.5 -72t58.5 -94t19.5 -108q0 -55 -20 -114t-64.5 -115.5t-116.5 -107t-176.5 -89t-243.5 -61t-317 -22.5l20 176q183 0 308.5 24.5t203 66t111.5 97
t34 117.5q0 67 -31 110.5t-83 67.5t-120 31.5t-141 2.5l16 134q37 12 81.5 28.5t89.5 37.5t87.5 47.5t75 58t52.5 68.5t20 79q0 40 -19 69.5t-50.5 48t-72.5 27.5t-86 9q-41 0 -84 -6.5t-85.5 -19t-83 -29.5t-76.5 -38v128q46 33 98.5 60.5t109 47.5t116.5 31t120 11
q88 0 158 -23t119 -62t75 -91t26 -110z" />
    <glyph glyph-name="four" unicode="4" horiz-adv-x="1313" 
d="M88 522l678 943h333l-100 -882h241l-59 -175h-202l-47 -408h-242l47 408h-662zM756 583l60 517l35 223h-20l-127 -204l-191.5 -268.5l-192.5 -267.5h436z" />
    <glyph glyph-name="five" unicode="5" horiz-adv-x="1110" 
d="M339 1465h720l-50 -176h-525l-71 -321q130 0 232 -29t172 -80.5t107 -122.5t37 -155q0 -58 -18.5 -123.5t-59.5 -130t-107 -123.5t-160.5 -104.5t-219.5 -72.5t-285 -27l21 176q163 0 272.5 31.5t175 82t93 114.5t27.5 129q0 67 -26 116t-74.5 80.5t-117.5 46.5t-154 15
h-135z" />
    <glyph glyph-name="six" unicode="6" horiz-adv-x="1325" 
d="M629 796q51 31 107.5 51t116.5 20q67 0 128 -27t107 -75t73.5 -113.5t27.5 -142.5q0 -66 -21 -131t-59 -124t-92 -109t-120 -86.5t-142.5 -57.5t-159.5 -21q-122 0 -209 43t-143.5 114t-83 163.5t-26.5 191.5q0 109 31 223.5t90.5 222.5t147 204t201 167.5t251.5 113.5
t299 42h35l-20 -176h-25q-143 0 -254 -33.5t-194 -90.5t-140.5 -133t-93 -160.5t-51 -173.5t-15.5 -171q0 -81 15 -149.5t45.5 -117.5t77 -76.5t108.5 -27.5q60 0 112 25t90.5 68t60.5 101t22 123q0 48 -13 89t-38 71t-62 47t-86 17q-26 0 -52.5 -4.5t-45.5 -10.5v114z" />
    <glyph glyph-name="seven" unicode="7" horiz-adv-x="1084" 
d="M182 1289l51 176h877l-9 -77l-190 -358l-178 -346.5l-166.5 -341.5l-156.5 -342h-255l170 331.5l172 321.5l177 317l185 319h-677z" />
    <glyph glyph-name="nine" unicode="9" horiz-adv-x="1325" 
d="M744 669q-51 -31 -107.5 -51t-116.5 -20q-68 0 -128.5 27t-107 75t-73.5 113.5t-27 142.5q0 66 20.5 131t59 124t92 109t119.5 86.5t142.5 57.5t160.5 21q121 0 208.5 -43t143.5 -114.5t83 -164t27 -191.5q0 -109 -31 -223t-90.5 -222t-147 -204t-201 -167.5
t-251.5 -113.5t-299 -42h-35l20 176h25q143 0 253.5 33.5t193.5 90.5t140.5 133t93 160.5t51 173t15.5 171.5q0 81 -15 149.5t-45.5 117.5t-76.5 76.5t-108 27.5q-60 0 -112 -25t-90.5 -68t-60.5 -101t-22 -123q0 -48 12.5 -89t37.5 -71t62.5 -47t86.5 -17q26 0 52.5 4
t45.5 10v-113z" />
    <glyph glyph-name="eight" unicode="8" horiz-adv-x="1337" 
d="M509 757q-41 25 -81.5 56.5t-72.5 71t-52 87t-20 104.5q0 83 42 157t113 130t166 89t200 33q94 0 169.5 -26.5t128 -70t80.5 -100t28 -117.5q0 -64 -29 -119.5t-76.5 -102.5t-107 -87t-120.5 -72q62 -34 116 -70t94.5 -78.5t64 -93t23.5 -112.5q0 -83 -42 -164.5
t-119.5 -146.5t-186 -105t-240.5 -40q-115 0 -200.5 30.5t-142.5 80t-85 112t-28 125.5q0 70 32 132t85 115t121 98.5t140 83.5zM630 689q-60 -33 -107.5 -67.5t-80.5 -71.5t-50.5 -78t-17.5 -89q0 -50 19 -92t54 -72t83 -46.5t107 -16.5q64 0 118.5 19t94.5 52t63 78t23 97
q0 51 -22.5 89.5t-63 71t-96.5 62.5zM752 856q118 67 170 132t52 139q0 47 -18 81.5t-47.5 57t-68 33t-78.5 10.5q-46 0 -90 -13.5t-78.5 -39t-56 -63t-21.5 -86.5q0 -45 18 -80t49.5 -64.5t75 -55t93.5 -51.5z" />
    <glyph glyph-name="at" unicode="@" horiz-adv-x="2285" 
d="M1309 199q-50 -62 -95 -104t-86.5 -67.5t-80 -36.5t-75.5 -11q-66 0 -119.5 30t-91 80.5t-57.5 116.5t-20 137q0 74 21.5 147t61.5 139t97 122t127 96.5t152.5 62.5t173.5 20q66 -2 141.5 -16t153.5 -40l-80 -702q103 36 178.5 95.5t124.5 133t73 157t24 169.5
q0 124 -47.5 218.5t-130 157.5t-194 95t-240.5 32q-127 0 -245 -30t-221.5 -86t-189 -137t-146.5 -183t-95 -224t-34 -260q0 -147 40.5 -267.5t124 -206t210 -132t297.5 -46.5q74 0 156 9.5t165 28.5t164 48.5t153 69.5l-14 -124q-71 -50 -157.5 -86.5t-179 -61.5
t-185.5 -37t-177 -12q-178 0 -327.5 55t-258 157.5t-169 250t-60.5 333.5q0 164 47 310t130 269t196 220.5t244.5 166t276 104.5t290.5 36q163 0 302.5 -45t241.5 -127.5t160 -198.5t58 -258q0 -87 -23 -175t-68 -171t-112.5 -157.5t-156.5 -135t-199 -103t-240 -61.5z
M1371 733q-29 11 -65.5 18.5t-72.5 7.5q-75 0 -133.5 -32t-98 -84t-60.5 -117t-21 -131q0 -44 9 -84.5t27 -71t44 -49t60 -18.5q29 0 63 14t70 40t71 64t67 86z" />
    <glyph glyph-name="underscore" unicode="_" horiz-adv-x="1077" 
d="M973 0l-19 -165h-987l19 165h987z" />
    <glyph glyph-name="braceleft" unicode="{" horiz-adv-x="1008" 
d="M119 690q49 16 95.5 36.5t83 49t61 67t30.5 91.5l20 179q15 123 51 215t94 152.5t139.5 91t188.5 30.5h125l-19 -165h-132q-54 0 -100 -15t-81 -45t-57.5 -76t-29.5 -108l-19 -173q-8 -74 -24.5 -136.5t-49 -113t-82.5 -88t-123 -60.5q112 -38 160.5 -124t35.5 -206
l-27 -241q-7 -62 5 -108t39.5 -76t70 -45t96.5 -15h132l-19 -165h-124q-89 0 -161 24t-121 73t-73 122t-16 172q3 50 9 97l21 180q6 53 -9.5 91.5t-45.5 67t-71.5 48.5t-87.5 36z" />
    <glyph glyph-name="braceright" unicode="}" horiz-adv-x="1008" 
d="M912 553q-50 -16 -96 -36t-82.5 -48.5t-61 -67t-30.5 -91.5l-20 -180q-15 -123 -50.5 -214.5t-93.5 -152t-139.5 -91t-189.5 -30.5h-124l18 165h132q54 0 100 15t81 45t57.5 76t29.5 108l20 172q7 74 24 137t49 113.5t82 88t124 60.5q-115 38 -162.5 123.5t-33.5 206.5
l27 241q7 62 -5 108t-40 76t-70.5 45t-96.5 15h-132l19 165h124q88 0 159.5 -24t121 -72t73.5 -121t17 -171l-4 -49.5t-5 -51.5l-21 -179q-6 -53 9.5 -91.5t46 -67t72 -49t87.5 -36.5l-16 -137v0z" />
    <glyph glyph-name="less" unicode="&#x3c;" horiz-adv-x="1165" 
d="M167 671l866 473l-21 -189l-646 -353l566 -353l-22 -189l-759 473z" />
    <glyph glyph-name="Euro" unicode="&#x20ac;" horiz-adv-x="1660" 
d="M222 822l18 155h201q55 121 141 215.5t190 159.5t222 99t238 34q33 0 74.5 -3t87.5 -9.5t93 -17t92 -26.5l-91 -182l-21 -9q-35 20 -73 33.5t-75 22t-72.5 12t-65.5 3.5q-80 0 -153 -24t-135.5 -67.5t-113 -105t-86.5 -135.5h659l-71 -155h-1059zM1192 634l-71 -155h-478
q18 -69 54 -127t89.5 -99.5t123 -65t155.5 -23.5q75 0 169.5 22t209.5 83l-16 -131q-59 -46 -124 -76.5t-129.5 -48.5t-125 -25.5t-109.5 -7.5q-115 0 -212.5 34.5t-171.5 99.5t-122 157t-64 208h-187l17 155h992z" />
    <glyph glyph-name="dagger" unicode="&#x2020;" horiz-adv-x="1409" 
d="M679 1037l50 428h167l-49 -428h421l-19 -165h-421l-160 -1408h-167l160 1408h-421l18 165h421z" />
    <glyph glyph-name="daggerdbl" unicode="&#x2021;" horiz-adv-x="1509" 
d="M730 1037l49 428h167l-48 -428h421l-19 -165h-421l-92 -805h421l-19 -165h-421l-50 -438h-167l50 438h-421l18 165h421l93 805h-421l18 165h421z" />
    <glyph glyph-name="florin" unicode="&#x192;" horiz-adv-x="1031" 
d="M293 750h-213l32 122l204 51l6 46q12 106 54 199.5t110.5 164t161.5 111.5t207 41q44 0 91.5 -6.5t90.5 -20.5l-60 -173l-21 -10q-29 17 -64.5 27t-75.5 10q-58 0 -101.5 -23t-74.5 -63.5t-49.5 -96t-25.5 -120.5l-10 -86h352l-62 -173h-309l-147 -1286h-242z" />
    <glyph glyph-name="guilsinglleft" unicode="&#x2039;" horiz-adv-x="700" 
d="M108 611l368 393l122 -130l-290 -300l221 -301l-151 -130l-279 393z" />
    <glyph glyph-name="guillemotleft" unicode="&#xab;" horiz-adv-x="1185" 
d="M108 611l368 393l122 -130l-290 -300l221 -301l-151 -130l-279 393zM594 611l367 393l122 -130l-290 -300l222 -301l-152 -130l-278 393z" />
    <glyph glyph-name="guilsinglright" unicode="&#x203a;" horiz-adv-x="700" 
d="M604 536l-368 -393l-122 130l290 301l-222 300l152 130l278 -393z" />
    <glyph glyph-name="guillemotright" unicode="&#xbb;" horiz-adv-x="1185" 
d="M604 536l-368 -393l-122 130l290 301l-222 300l152 130l278 -393zM1090 536l-369 -393l-122 130l290 301l-221 300l151 130l279 -393z" />
    <glyph glyph-name="germandbls" unicode="&#xdf;" horiz-adv-x="1289" 
d="M967 310q0 50 -24 86t-59.5 66t-77.5 59t-77.5 65t-59.5 83.5t-24 115.5q0 66 22.5 111.5t57 79.5t74 62t74 59t57 70t22.5 96q0 45 -15 79.5t-41 58t-61.5 36t-77.5 12.5q-56 0 -103 -21.5t-83 -61.5t-59.5 -96.5t-31.5 -126.5l-130 -1143h-242l125 1099
q12 108 60 203.5t123.5 166.5t176 112t218.5 41q90 0 160 -24.5t118.5 -67.5t73.5 -102t25 -127q0 -70 -23 -120.5t-57.5 -89.5t-74.5 -69.5t-74.5 -60t-57.5 -62t-23 -75.5t23.5 -77t59 -64.5t77 -61.5t77 -68.5t59 -85.5t23.5 -112q0 -77 -35 -145t-96.5 -119t-145.5 -81
t-181 -30q-23 0 -54 2t-66 7.5t-71 14.5t-70 23l58 172l20 13q28 -14 60 -25t63.5 -18.5t60 -11.5t50.5 -4q38 0 70.5 11t56 31t37 49.5t13.5 65.5z" />
    <glyph glyph-name="bullet" unicode="&#x2022;" horiz-adv-x="810" 
d="M204 553q0 46 19 87t51.5 72t74 48.5t86.5 17.5q39 0 72.5 -14.5t58 -39.5t38 -59t13.5 -73q0 -47 -19.5 -87.5t-51.5 -71t-74 -48t-87 -17.5q-39 0 -72 14.5t-57 39t-38 58.5t-14 73z" />
    <glyph glyph-name="exclamdown" unicode="&#xa1;" horiz-adv-x="684" 
d="M433 530l-60 -935h-266l151 935h175zM366 741q-32 0 -59.5 12t-47.5 33t-31 48.5t-11 58.5q0 38 16 72t42 59.5t60.5 40.5t71.5 15q33 0 60 -12.5t47 -33.5t31 -49t11 -59q0 -38 -15.5 -71.5t-41.5 -59t-60.5 -40t-72.5 -14.5z" />
    <glyph glyph-name="questiondown" unicode="&#xbf;" horiz-adv-x="968" 
d="M424 -251q27 0 63.5 6t78.5 19.5t88 35.5t93 54l16 -9l28 -167q-121 -61 -231 -87t-213 -26q-87 0 -151.5 17t-107.5 48t-65.5 73.5t-25.5 93.5q-2 25 1 48.5t8 44.5q15 64 54.5 114t89 93t103 83.5t99 87t75 103.5t31.5 132l1 17h175q1 -12 1.5 -26.5t0.5 -27.5
q0 -81 -28.5 -143.5t-71.5 -112.5t-92.5 -91l-92.5 -80t-71.5 -79t-28.5 -88q0 -31 13.5 -55.5t37 -42t55 -26.5t67.5 -9zM563 741q-33 0 -60 12t-47 33t-31 48.5t-11 58.5q0 38 16 72t42 59.5t60.5 40.5t71.5 15q33 0 60 -12.5t46.5 -33.5t30.5 -49t11 -59
q0 -38 -15.5 -71.5t-42 -59t-60.5 -40t-71 -14.5z" />
    <glyph glyph-name="cent" unicode="&#xa2;" horiz-adv-x="1219" 
d="M555 178q-84 12 -149.5 48.5t-110.5 93.5t-68.5 132t-23.5 162q0 116 36 218t100 184t150.5 141t187.5 89l41 361h165l-38 -337q8 1 16.5 1.5t17.5 0.5q25 0 54.5 -3t60.5 -8.5t60 -13.5t52 -19l-65 -186l-22 -10q-34 27 -89.5 47t-114.5 20q-71 0 -134.5 -29t-112.5 -84
t-77.5 -133.5t-28.5 -177.5q0 -79 22.5 -138.5t63 -99.5t96.5 -60.5t124 -20.5q48 0 107.5 11t132.5 43l-14 -121q-58 -42 -127.5 -71t-146.5 -38l-39 -343h-165z" />
    <glyph glyph-name="yen" unicode="&#xa5;" horiz-adv-x="1587" 
d="M1030 790h288l-18 -155h-1007l19 155h288l-320 675h284l202 -492l66 -197h20l50 85l50 85l65 104l268 415h237zM886 328l-37 -328h-249l38 328h-379l17 155h1006l-17 -155h-379z" />
    <glyph glyph-name="plusminus" unicode="&#xb1;" horiz-adv-x="1399" 
d="M830 934h416l-18 -165h-416l-48 -415h-167l47 415h-416l19 165h416l48 416h167zM1159 165l-19 -165h-999l18 165h1000z" />
    <glyph glyph-name="brokenbar" unicode="&#xa6;" horiz-adv-x="655" 
d="M263 702l103 900h170l-103 -900h-170zM395 364l-103 -900h-170l103 900h170z" />
    <glyph glyph-name="sterling" unicode="&#xa3;" horiz-adv-x="1370" 
d="M421 805l14 126q18 132 68 235.5t126.5 174t177.5 107.5t221 37q28 0 60 -2.5t64.5 -8t63.5 -13.5t55 -19l-66 -187l-23 -10q-37 29 -92 47.5t-109 18.5q-119 0 -195 -77.5t-94 -234.5l-22 -194h428l-53 -155h-393l-15 -135q-5 -46 -16 -90t-29.5 -85.5t-46.5 -80
t-67 -73.5l-3 -20l194 8h72h389l-59 -174h-923l9 76q73 45 115.5 91t65.5 95.5t31.5 103.5t14.5 114l20 170h-194l51 155h160z" />
    <glyph glyph-name="currency" unicode="&#xa4;" horiz-adv-x="1520" 
d="M306 712q0 96 33 176t90 148l-184 207l130 117l184 -209q66 42 139.5 65.5t151.5 23.5q75 0 140.5 -22t118.5 -63l228 205l103 -117l-227 -204q27 -47 41.5 -105.5t14.5 -121.5q0 -94 -33 -174t-90 -148l185 -208l-131 -116l-185 208q-66 -43 -139.5 -66t-151.5 -23
q-76 0 -141.5 21.5t-117.5 61.5l-226 -202l-104 116l227 203q-27 46 -41.5 105t-14.5 122zM482 728q0 -62 20 -113t56 -87.5t85 -57t108 -20.5q69 0 130.5 26t108.5 72t74.5 109.5t27.5 138.5q0 61 -20 112.5t-56 88.5t-85.5 57.5t-107.5 20.5q-69 0 -130.5 -26t-108.5 -72
t-74.5 -110t-27.5 -139z" />
    <glyph glyph-name="periodcentered" unicode="&#xb7;" horiz-adv-x="637" 
d="M301 385q-32 0 -59.5 12t-47.5 33t-31 48.5t-11 58.5q0 38 15.5 72t42 59.5t60.5 40.5t72 15q33 0 60 -12t47 -33t31 -49t11 -60q0 -38 -15.5 -71.5t-42 -58.5t-61 -40t-71.5 -15z" />
    <glyph glyph-name="s" unicode="s" horiz-adv-x="980" 
d="M116 239l20 12q72 -46 150.5 -72t149.5 -26q44 0 79.5 10.5t60.5 28t38.5 41t13.5 49.5q0 32 -20 56.5t-53 45t-75 39l-86 39t-86 45t-75 56t-53 73t-20 95.5q0 67 32.5 130t93 112t146.5 78t192 29q63 0 138 -11.5t138 -36.5l-64 -181l-23 -13q-55 34 -120 51.5
t-122 17.5q-44 0 -78.5 -10.5t-58.5 -28t-36.5 -40.5t-12.5 -49q0 -45 35 -75.5t88 -56.5t114 -51.5t114 -60.5t88 -84.5t35 -121.5q0 -68 -33 -130.5t-94 -111.5t-147 -78t-191 -29q-85 0 -174 20t-168 57z" />
    <glyph glyph-name="quotedblleft" unicode="&#x201c;" horiz-adv-x="1113" 
d="M627 1579q-40 -39 -76 -81.5t-66 -85t-52.5 -84.5t-34.5 -79q11 -12 27 -24.5t35 -23t39 -19t39 -12.5q4 -11 5.5 -27t1.5 -29q0 -35 -14 -68.5t-39 -59.5t-59.5 -42.5t-75.5 -16.5q-29 0 -56 10.5t-48 32t-34 55.5t-13 81q0 52 18.5 113t59.5 128t107.5 139t161.5 146z
M1106 1579q-40 -39 -76 -81.5t-66 -85t-52 -84.5t-34 -79q11 -12 27 -24.5t34.5 -23t39 -19t39.5 -12.5q4 -11 5.5 -27t1.5 -29q0 -35 -14 -68.5t-39 -59.5t-59.5 -42.5t-75.5 -16.5q-29 0 -56.5 10.5t-48.5 32t-34 55.5t-13 81q0 52 18.5 113t60 128t107.5 139t162 146z
" />
    <glyph glyph-name="ampersand" unicode="&#x26;" horiz-adv-x="1533" 
d="M1130 1217q0 -128 -96 -248.5t-279 -217.5l65.5 -82l64.5 -75.5l69 -76l77 -82.5q63 82 106.5 170.5t72.5 172.5h187q-49 -121 -112 -231.5t-131 -204.5q61 -56 120 -101.5t127 -91.5l-136 -171q-68 45 -129.5 92t-122.5 105q-97 -94 -210.5 -144.5t-254.5 -50.5
q-101 0 -181.5 26.5t-137 73t-86.5 110.5t-30 138q0 77 30.5 140.5t82.5 117t120.5 99.5t144.5 89q-29 39 -55.5 80.5t-46.5 85t-31.5 88.5t-11.5 89q0 80 37 147.5t100.5 116.5t147.5 76.5t177 27.5q77 0 137 -19.5t101 -54.5t62.5 -84.5t21.5 -109.5zM901 270l-86 91.5
l-81 88.5t-79 94t-81 108q-115 -65 -164.5 -134t-49.5 -147q0 -53 20 -93t55 -67t84 -41t106 -14q73 0 143.5 25.5t132.5 88.5zM564 1126q0 -32 10.5 -66.5t27 -68t37 -65t40.5 -58.5q117 60 180 138t63 156q0 66 -43 106.5t-117 40.5q-44 0 -80 -14.5t-62.5 -39.5
t-41 -58.5t-14.5 -70.5z" />
    <glyph glyph-name="perthousand" unicode="&#x2030;" horiz-adv-x="2963" 
d="M1526 1464h200l-1115 -1464h-198zM547 672q-77 0 -136 26t-98.5 72t-59.5 107.5t-20 132.5q0 102 34.5 189t95 150.5t142.5 99.5t176 36q76 0 135 -26t99 -71t60.5 -106.5t20.5 -132.5q0 -100 -34 -187t-94.5 -151.5t-142.5 -101.5t-178 -37zM589 834q40 0 76 20t62 56.5
t41.5 88t15.5 114.5q0 46 -10 84.5t-28.5 66t-46 43t-61.5 15.5q-39 0 -74.5 -19t-62.5 -54.5t-42.5 -87t-15.5 -116.5q0 -47 10 -85.5t29 -66.5t46 -43.5t61 -15.5zM1458 -21q-77 0 -136 26t-99 72t-60 108t-20 133q0 102 34.5 189t95.5 150t142.5 99t176.5 36
q76 0 135 -26t98.5 -71t60 -106.5t20.5 -132.5q0 -100 -34 -187t-94 -151.5t-142 -101.5t-178 -37zM1500 141q40 0 76 20t62 56.5t41.5 88t15.5 114.5q0 46 -10 84.5t-28.5 66.5t-46 43.5t-61.5 15.5q-40 0 -75.5 -19t-62 -54.5t-42 -87t-15.5 -117.5q0 -47 10 -85.5
t29 -66.5t46 -43.5t61 -15.5zM2330 -21q-77 0 -136 26t-98.5 72t-59.5 108t-20 133q0 102 34.5 189t95.5 150t142.5 99t176.5 36q76 0 134.5 -26t98.5 -71t60.5 -106.5t20.5 -132.5q0 -100 -34 -187t-94.5 -151.5t-142.5 -101.5t-178 -37zM2373 141q40 0 75.5 20t62 56.5
t42 88t15.5 114.5q0 46 -10 84.5t-28.5 66.5t-46 43.5t-61.5 15.5q-40 0 -75.5 -19t-62 -54.5t-42 -87t-15.5 -117.5q0 -47 10 -85.5t29 -66.5t46 -43.5t61 -15.5z" />
    <glyph glyph-name="comma" unicode="," horiz-adv-x="661" 
d="M35 -333q40 39 76 81.5t66 85t52 84t34 79.5q-11 12 -27 24.5t-34.5 23t-38.5 19t-39 12.5q-4 11 -5.5 27t-1.5 29q0 34 14 68t39 60t59.5 42.5t75.5 16.5q28 0 55.5 -10.5t48.5 -32t34 -55.5t13 -81q0 -52 -18.5 -113t-60 -128t-107.5 -139t-161 -146z" />
    <glyph glyph-name="t" unicode="t" horiz-adv-x="972" 
d="M296 887h-213l31 114q81 20 131.5 45t86 61.5t65 89l68.5 127.5h116l-30 -264h381l-62 -173h-331l-61 -532q-11 -99 25.5 -145t121.5 -46q49 0 93 14.5t98 43.5v-116q-77 -62 -166.5 -94t-170.5 -32q-74 0 -124.5 26.5t-80.5 73.5t-40 111t-1 138z" />
    <glyph glyph-name="colon" unicode=":" horiz-adv-x="726" 
d="M301 -20q-33 0 -60 12t-47 33t-31 48.5t-11 58.5q0 38 15.5 72t41.5 59.5t60.5 40.5t72.5 15q32 0 59.5 -12.5t47.5 -33.5t31 -49t11 -59q0 -38 -16 -71.5t-42 -59t-60.5 -40t-71.5 -14.5zM378 660q-33 0 -60 12t-47 33t-31 48.5t-11 58.5q0 38 15.5 72t42 59.5
t60.5 40.5t72 15q33 0 60 -12.5t47 -33.5t31 -49t11 -59q0 -38 -15.5 -71.5t-42 -59t-61 -40t-71.5 -14.5z" />
    <glyph glyph-name="exclam" unicode="!" horiz-adv-x="684" 
d="M253 530l61 935h266l-151 -935h-176zM280 -20q-33 0 -60 12t-47 33t-31 48.5t-11 58.5q0 38 15.5 72t42 59.5t60.5 40.5t72 15q33 0 60 -12.5t47 -33.5t31 -49t11 -59q0 -38 -16 -71.5t-42 -59t-60.5 -40t-71.5 -14.5z" />
    <glyph glyph-name="copyright" unicode="&#xa9;" horiz-adv-x="1974" 
d="M217 648q0 122 30.5 235t87.5 210.5t137 177.5t178.5 137t213.5 88t241 31q174 0 305.5 -57.5t219 -155t131.5 -226.5t44 -272q0 -122 -30.5 -234.5t-87.5 -210t-137 -177.5t-179 -137t-214 -88t-242 -31q-174 0 -305 57t-218.5 154.5t-131 226.5t-43.5 272zM388 668
q0 -116 34.5 -220t105 -182.5t177 -124.5t249.5 -46q109 0 202 27t168.5 75t133 114t97 144t59.5 165t20 177q0 117 -35 221.5t-105 183t-176.5 124.5t-248.5 46q-164 0 -291 -59.5t-213.5 -158t-131.5 -225t-45 -261.5zM1259 426q-68 -48 -147 -72t-154 -24
q-72 0 -134.5 23t-108.5 67.5t-72.5 108.5t-26.5 147q0 109 44.5 194.5t117.5 145t165 90.5t187 31q36 0 91 -6.5t118 -27.5l-47 -163l-10 -4q-51 24 -97 35t-87 11q-54 0 -103.5 -18t-87.5 -52t-60.5 -83.5t-22.5 -112.5q0 -50 15 -91t44 -70t70.5 -45t94.5 -16
q19 0 45.5 2.5t56.5 8.5t61.5 16t60.5 26z" />
    <glyph glyph-name="registered" unicode="&#xae;" horiz-adv-x="1974" 
d="M217 648q0 122 30.5 235t87.5 210.5t137 177.5t178.5 137t213.5 88t241 31q174 0 305.5 -57.5t219 -155t131.5 -226.5t44 -272q0 -122 -30.5 -234.5t-87.5 -210t-137 -177.5t-179 -137t-214 -88t-242 -31q-174 0 -305 57t-218.5 154.5t-131 226.5t-43.5 272zM388 668
q0 -116 34.5 -220t105 -182.5t177 -124.5t249.5 -46q109 0 202 27t168.5 75t133 114t97 144t59.5 165t20 177q0 117 -35 221.5t-105 183t-176.5 124.5t-248.5 46q-164 0 -291 -59.5t-213.5 -158t-131.5 -225t-45 -261.5zM677 329l93 809h277q69 0 123.5 -15t92.5 -42.5
t58.5 -66t20.5 -85.5q0 -45 -17.5 -83t-42.5 -68.5t-52.5 -53.5t-48.5 -38l161 -357h-220l-102 265h-124l-31 -265h-188zM1067 749q35 24 60 57.5t25 77.5q0 45 -33 72t-104 27h-75l-27 -234h154z" />
    <glyph glyph-name="onesuperior" unicode="&#xb9;" horiz-adv-x="681" 
d="M314 514l84 735h-245l13 108q127 0 211.5 28t140.5 80h121l-108 -951h-217z" />
    <glyph glyph-name="twosuperior" unicode="&#xb2;" horiz-adv-x="866" 
d="M87 571q131 116 223 209t149.5 168.5t84 137.5t26.5 116q0 36 -12.5 61t-34 41t-49.5 23t-58 7q-25 0 -51.5 -4t-52.5 -11t-50.5 -15.5t-43.5 -18.5l13 105q30 21 66.5 38.5t76.5 30t82.5 19.5t83.5 7q61 0 109.5 -16.5t82 -46t51.5 -70.5t18 -91q0 -64 -28.5 -131.5
t-85 -142t-141.5 -156.5t-199 -175h427l-42 -142h-652z" />
    <glyph glyph-name="threesuperior" unicode="&#xb3;" horiz-adv-x="819" 
d="M784 1308q0 -38 -17.5 -71t-48.5 -62.5t-74 -56t-94 -50.5q0 -3 -0.5 -5.5t-0.5 -5.5q97 -20 148.5 -77t51.5 -133q0 -36 -13 -74.5t-42.5 -75.5t-78 -70.5t-119.5 -58.5t-167.5 -39.5t-221.5 -14.5l16 140q116 0 193 14.5t122.5 39t64 56t18.5 65.5t-18 59.5t-49.5 41.5
t-74.5 22.5t-92 3.5l12 110q33 9 76.5 22.5t83 34t66.5 49.5t27 70q0 25 -12 42.5t-32 28.5t-46 16t-53 5q-53 0 -106.5 -14.5t-96.5 -37.5l12 104q62 45 145 72t169 27q61 0 108 -14.5t79 -38.5t48.5 -56t16.5 -68z" />
    <glyph glyph-name="onequarter" unicode="&#xbc;" horiz-adv-x="2053" 
d="M1349 1465h192l-920 -1465h-191zM352 515l83 734h-244l12 108q127 0 212 28t141 80h120l-108 -950h-216zM1101 341l427 610h282l-62 -552h152l-44 -139h-124l-30 -260h-210l29 260h-429zM1537 399l32 281l22 146h-14l-81 -135l-102.5 -145.5l-104.5 -146.5h248z" />
    <glyph glyph-name="dollar" unicode="$" horiz-adv-x="1360" 
d="M612 176q61 0 116 15t97 43.5t66.5 71t24.5 98.5q0 53 -26.5 91.5t-69.5 68.5t-98 55l-113 51t-113 56.5t-98 71.5t-69.5 96.5t-26.5 130.5q0 88 31.5 160.5t87 127t132 90.5t167.5 52l42 359h186l-40 -349q63 -2 146.5 -16t169.5 -40l-61 -194l-21 -10q-50 24 -98 40
t-92.5 26t-82.5 14t-66 4q-54 0 -102 -13.5t-83 -40t-55.5 -64.5t-20.5 -87q0 -53 26.5 -92.5t70.5 -70t99.5 -56l114 -52t114 -57t99.5 -70.5t70.5 -93t26.5 -125q0 -80 -30 -151.5t-84.5 -130t-132 -101.5t-172.5 -65l-43 -370h-186l40 349q-48 0 -101 7t-107 19.5
t-106 30t-99 40.5l62 195l21 10q97 -57 194.5 -91t192.5 -34z" />
    <glyph glyph-name="infinity" unicode="&#x221e;" horiz-adv-x="1869" 
d="M1714 615q-5 -61 -25.5 -118t-54 -107.5t-77.5 -92t-95 -71.5t-107.5 -46.5t-113.5 -16.5q-65 0 -114 21.5t-86.5 56.5t-65.5 79.5t-49 89.5h-20q-42 -49 -89 -93.5t-98 -78.5t-107 -54.5t-116 -20.5q-71 0 -131 29.5t-104 80t-68.5 117.5t-24.5 142q0 94 39.5 180
t106 152t154 105.5t182.5 39.5q57 0 104 -20t85 -53.5t67.5 -78.5t51.5 -95h20q45 53 94 98t100 78t104.5 52t109.5 19q76 0 139 -32t107 -86t66 -125.5t16 -150.5zM847 545q-16 64 -40 117t-55.5 91t-70.5 59t-85 21q-56 0 -101 -24.5t-77 -64t-49.5 -88t-17.5 -96.5
q0 -49 17 -89.5t46.5 -70t68 -45.5t80.5 -16q40 0 79.5 14.5t76 41.5t69 65t59.5 85zM1532 593q4 50 -10 94t-43 76.5t-70 51t-89 18.5q-39 0 -78 -14.5t-75 -41.5t-69 -65t-61 -85q16 -65 40.5 -118t56 -91t70 -58.5t83.5 -20.5q51 0 94 21.5t75.5 57.5t52 81.5t23.5 93.5z
" />
    <glyph glyph-name="approxequal" unicode="&#x2248;" horiz-adv-x="1435" 
d="M500 358q-62 0 -122.5 -36.5t-132.5 -104.5l-75 108q42 54 87 91t91 60t91.5 33t89.5 10q60 0 109.5 -16t93.5 -35t86 -35t86 -16q62 0 121.5 36t133.5 105l76 -108q-43 -54 -88 -91t-91 -60t-91.5 -33t-88.5 -10q-60 0 -109.5 16t-94 35t-86.5 35t-86 16zM546 766
q-62 0 -122 -36.5t-132 -103.5l-75 107q42 54 86.5 91t90.5 60t91.5 33t89.5 10q60 0 109.5 -16t94 -35t86 -35t85.5 -16q31 0 61 9t61 27t64 44.5t70 60.5l75 -108q-42 -54 -87.5 -91t-91 -60t-91 -33t-88.5 -10q-60 0 -110 16t-94.5 35t-86.5 35t-86 16z" />
    <glyph glyph-name="notequal" unicode="&#x2260;" horiz-adv-x="1383" 
d="M1175 459l-18 -165h-528l-185 -294h-188l185 294h-267l18 165h983zM768 889l185 294h188l-185 -294h269l-19 -165h-983l19 165h526z" />
    <glyph glyph-name="lessequal" unicode="&#x2264;" horiz-adv-x="1223" 
d="M242 848l857 385l-21 -181l-619 -280l556 -281l-21 -181l-769 385zM976 165l-18 -165h-812l18 165h812z" />
    <glyph glyph-name="greaterequal" unicode="&#x2265;" horiz-adv-x="1223" 
d="M1038 695l-857 -385l21 181l618 281l-554 280l20 181l769 -385zM977 165l-19 -165h-812l19 165h812z" />
    <glyph glyph-name="parenright" unicode=")" horiz-adv-x="818" 
d="M10 -284q198 213 296 489.5t98 603.5q0 105 -12 205.5t-35.5 192t-58.5 172.5t-82 148l125 90q149 -169 225 -374.5t76 -451.5q0 -347 -134.5 -638.5t-393.5 -525.5z" />
    <glyph glyph-name="parenleft" unicode="(" horiz-adv-x="816" 
d="M831 1527q-198 -213 -296 -489.5t-98 -603.5q0 -105 12 -205.5t35.5 -192t58.5 -172.5t82 -148l-125 -89q-149 169 -225 374.5t-76 451.5q0 346 133.5 638t393.5 526z" />
    <glyph glyph-name="egrave" unicode="&#xe8;" horiz-adv-x="1114" 
d="M503 -20q-92 0 -169 31t-133 89t-87 140.5t-31 186.5q0 94 25 178.5t69.5 157t105 131t131 100t147.5 64t155 22.5q82 0 144.5 -23.5t104.5 -62.5t63.5 -89t21.5 -104q0 -75 -41 -138.5t-119.5 -110.5t-194 -73.5t-263.5 -26.5h-100q0 -61 18.5 -113.5t55.5 -91.5t93 -61
t131 -22q72 0 144.5 22t144.5 65v-114q-48 -42 -101.5 -72t-108 -49t-107.5 -27.5t-99 -8.5zM663 907q-59 0 -112 -27.5t-95.5 -73.5t-72 -106.5t-42.5 -127.5h99q91 0 161.5 15t119 41.5t74 62.5t25.5 78q0 25 -10 50t-29.5 44.5t-49 31.5t-68.5 12zM621 1240l-237 362h262
l163 -362h-188z" />
    <glyph glyph-name="ecircumflex" unicode="&#xea;" horiz-adv-x="1114" 
d="M503 -20q-92 0 -169 31t-133 89t-87 140.5t-31 186.5q0 94 25 178.5t69.5 157t105 131t131 100t147.5 64t155 22.5q82 0 144.5 -23.5t104.5 -62.5t63.5 -89t21.5 -104q0 -75 -41 -138.5t-119.5 -110.5t-194 -73.5t-263.5 -26.5h-100q0 -61 18.5 -113.5t55.5 -91.5t93 -61
t131 -22q72 0 144.5 22t144.5 65v-114q-48 -42 -101.5 -72t-108 -49t-107.5 -27.5t-99 -8.5zM663 907q-59 0 -112 -27.5t-95.5 -73.5t-72 -106.5t-42.5 -127.5h99q91 0 161.5 15t119 41.5t74 62.5t25.5 78q0 25 -10 50t-29.5 44.5t-49 31.5t-68.5 12zM339 1240l269 362h235
l188 -362h-188l-135 228l-186 -228h-183z" />
    <glyph glyph-name="edieresis" unicode="&#xeb;" horiz-adv-x="1114" 
d="M503 -20q-92 0 -169 31t-133 89t-87 140.5t-31 186.5q0 94 25 178.5t69.5 157t105 131t131 100t147.5 64t155 22.5q82 0 144.5 -23.5t104.5 -62.5t63.5 -89t21.5 -104q0 -75 -41 -138.5t-119.5 -110.5t-194 -73.5t-263.5 -26.5h-100q0 -61 18.5 -113.5t55.5 -91.5t93 -61
t131 -22q72 0 144.5 22t144.5 65v-114q-48 -42 -101.5 -72t-108 -49t-107.5 -27.5t-99 -8.5zM663 907q-59 0 -112 -27.5t-95.5 -73.5t-72 -106.5t-42.5 -127.5h99q91 0 161.5 15t119 41.5t74 62.5t25.5 78q0 25 -10 50t-29.5 44.5t-49 31.5t-68.5 12zM348 1359
q0 30 12.5 56.5t33.5 46.5t48.5 32t57.5 12q27 0 49 -9.5t38 -25.5t25 -38.5t9 -47.5q0 -29 -12 -55.5t-33 -46.5t-49 -31.5t-59 -11.5q-26 0 -48 9.5t-38 25.5t-25 37.5t-9 46.5zM779 1359q0 30 12 56.5t33 46.5t49 32t59 12q27 0 49 -9.5t38 -26t25 -38.5t9 -47
q0 -29 -12 -55.5t-33 -46.5t-49 -31.5t-59 -11.5q-26 0 -48.5 9.5t-38.5 25.5t-25 37.5t-9 46.5z" />
    <glyph glyph-name="circumflex" unicode="&#x2c6;" horiz-adv-x="1092" 
d="M282 1240l269 362h235l188 -362h-188l-135 228l-186 -228h-183z" />
    <glyph glyph-name="acute" unicode="&#xb4;" horiz-adv-x="862" 
d="M282 1240l244 362h259l-320 -362h-183z" />
    <glyph glyph-name="grave" unicode="`" horiz-adv-x="866" 
d="M561 1240l-237 362h262l163 -362h-188z" />
    <glyph glyph-name="dieresis" unicode="&#xa8;" horiz-adv-x="1103" 
d="M296 1359q0 30 12.5 56.5t33.5 46.5t48.5 32t57.5 12q27 0 49 -9.5t38 -25.5t25 -38.5t9 -47.5q0 -29 -12 -55.5t-33 -46.5t-49 -31.5t-59 -11.5q-26 0 -48 9.5t-38 25.5t-25 37.5t-9 46.5zM727 1359q0 30 12 56.5t33 46.5t49 32t59 12q27 0 49 -9.5t38 -26t25 -38.5
t9 -47q0 -29 -12 -55.5t-33 -46.5t-49 -31.5t-59 -11.5q-26 0 -48.5 9.5t-38.5 25.5t-25 37.5t-9 46.5z" />
    <glyph glyph-name="agrave" unicode="&#xe0;" horiz-adv-x="1241" 
d="M871 863q-46 26 -89.5 35t-75.5 9q-71 0 -137 -32.5t-117 -92.5t-81.5 -144t-30.5 -187q0 -57 10.5 -109t32 -91.5t55 -63t80.5 -23.5q38 0 76 16t76 45.5t74.5 70t71.5 90.5zM1015 0h-197l-8 226q-49 -56 -95.5 -101t-94.5 -77.5t-98.5 -50t-107.5 -17.5q-82 0 -144 36
t-103.5 96t-62.5 138t-21 163q0 97 27 184.5t74 161.5t111 133.5t137.5 101t154 64t160.5 22.5q114 0 240 -51l152 52zM672 1240l-237 362h262l163 -362h-188z" />
    <glyph glyph-name="aacute" unicode="&#xe1;" horiz-adv-x="1198" 
d="M871 863q-46 26 -89.5 35t-75.5 9q-71 0 -137 -32.5t-117 -92.5t-81.5 -144t-30.5 -187q0 -57 10.5 -109t32 -91.5t55 -63t80.5 -23.5q38 0 76 16t76 45.5t74.5 70t71.5 90.5zM1015 0h-197l-8 226q-49 -56 -95.5 -101t-94.5 -77.5t-98.5 -50t-107.5 -17.5q-82 0 -144 36
t-103.5 96t-62.5 138t-21 163q0 97 27 184.5t74 161.5t111 133.5t137.5 101t154 64t160.5 22.5q114 0 240 -51l152 52zM595 1240l244 362h259l-320 -362h-183z" />
    <glyph glyph-name="acircumflex" unicode="&#xe2;" horiz-adv-x="1241" 
d="M871 863q-46 26 -89.5 35t-75.5 9q-71 0 -137 -32.5t-117 -92.5t-81.5 -144t-30.5 -187q0 -57 10.5 -109t32 -91.5t55 -63t80.5 -23.5q38 0 76 16t76 45.5t74.5 70t71.5 90.5zM1015 0h-197l-8 226q-49 -56 -95.5 -101t-94.5 -77.5t-98.5 -50t-107.5 -17.5q-82 0 -144 36
t-103.5 96t-62.5 138t-21 163q0 97 27 184.5t74 161.5t111 133.5t137.5 101t154 64t160.5 22.5q114 0 240 -51l152 52zM395 1240l269 362h235l188 -362h-188l-135 228l-186 -228h-183z" />
    <glyph glyph-name="adieresis" unicode="&#xe4;" horiz-adv-x="1241" 
d="M871 863q-46 26 -89.5 35t-75.5 9q-71 0 -137 -32.5t-117 -92.5t-81.5 -144t-30.5 -187q0 -57 10.5 -109t32 -91.5t55 -63t80.5 -23.5q38 0 76 16t76 45.5t74.5 70t71.5 90.5zM1015 0h-197l-8 226q-49 -56 -95.5 -101t-94.5 -77.5t-98.5 -50t-107.5 -17.5q-82 0 -144 36
t-103.5 96t-62.5 138t-21 163q0 97 27 184.5t74 161.5t111 133.5t137.5 101t154 64t160.5 22.5q114 0 240 -51l152 52zM416 1359q0 30 12.5 56.5t33.5 46.5t48.5 32t57.5 12q27 0 49 -9.5t38 -25.5t25 -38.5t9 -47.5q0 -29 -12 -55.5t-33 -46.5t-49 -31.5t-59 -11.5
q-26 0 -48 9.5t-38 25.5t-25 37.5t-9 46.5zM847 1359q0 30 12 56.5t33 46.5t49 32t59 12q27 0 49 -9.5t38 -26t25 -38.5t9 -47q0 -29 -12 -55.5t-33 -46.5t-49 -31.5t-59 -11.5q-26 0 -48.5 9.5t-38.5 25.5t-25 37.5t-9 46.5z" />
    <glyph glyph-name="igrave" unicode="&#xec;" horiz-adv-x="578" 
d="M248 1240l-237 362h262l163 -362h-188zM170 1060h242l-121 -1060h-242z" />
    <glyph glyph-name="iacute" unicode="&#xed;" horiz-adv-x="578" 
d="M177 1240l244 362h259l-320 -362h-183zM170 1060h242l-121 -1060h-242z" />
    <glyph glyph-name="icircumflex" unicode="&#xee;" horiz-adv-x="578" 
d="M170 1060h242l-121 -1060h-242zM-31 1240l269 362h235l188 -362h-188l-135 228l-186 -228h-183z" />
    <glyph glyph-name="idieresis" unicode="&#xef;" horiz-adv-x="578" 
d="M-23 1359q0 30 12.5 56.5t33.5 46.5t48.5 32t57.5 12q27 0 49 -9.5t38 -25.5t25 -38.5t9 -47.5q0 -29 -12 -55.5t-33 -46.5t-49 -31.5t-59 -11.5q-26 0 -48 9.5t-38 25.5t-25 37.5t-9 46.5zM408 1359q0 30 12 56.5t33 46.5t49 32t59 12q27 0 49 -9.5t38 -26t25 -38.5
t9 -47q0 -29 -12 -55.5t-33 -46.5t-49 -31.5t-59 -11.5q-26 0 -48.5 9.5t-38.5 25.5t-25 37.5t-9 46.5zM170 1060h242l-121 -1060h-242z" />
    <glyph glyph-name="ograve" unicode="&#xf2;" 
d="M520 -20q-110 0 -192 37t-136.5 99.5t-81.5 145t-27 174.5q0 130 50.5 247t137.5 205t202.5 140t245.5 52q111 0 193 -37t136.5 -100t81.5 -146t27 -175q0 -132 -51 -248.5t-138.5 -204t-203 -138.5t-244.5 -51zM578 153q63 0 120.5 32.5t101.5 89t70.5 133.5t26.5 167
q0 66 -15 126t-45 105.5t-74.5 73t-102.5 27.5q-64 0 -121.5 -33t-101.5 -91t-70 -135.5t-26 -165.5q0 -66 15.5 -126t45.5 -105t74 -71.5t102 -26.5zM628 1240l-237 362h262l163 -362h-188z" />
    <glyph glyph-name="oacute" unicode="&#xf3;" 
d="M520 -20q-110 0 -192 37t-136.5 99.5t-81.5 145t-27 174.5q0 130 50.5 247t137.5 205t202.5 140t245.5 52q111 0 193 -37t136.5 -100t81.5 -146t27 -175q0 -132 -51 -248.5t-138.5 -204t-203 -138.5t-244.5 -51zM578 153q63 0 120.5 32.5t101.5 89t70.5 133.5t26.5 167
q0 66 -15 126t-45 105.5t-74.5 73t-102.5 27.5q-64 0 -121.5 -33t-101.5 -91t-70 -135.5t-26 -165.5q0 -66 15.5 -126t45.5 -105t74 -71.5t102 -26.5zM571 1240l244 362h259l-320 -362h-183z" />
    <glyph glyph-name="ocircumflex" unicode="&#xf4;" 
d="M520 -20q-110 0 -192 37t-136.5 99.5t-81.5 145t-27 174.5q0 130 50.5 247t137.5 205t202.5 140t245.5 52q111 0 193 -37t136.5 -100t81.5 -146t27 -175q0 -132 -51 -248.5t-138.5 -204t-203 -138.5t-244.5 -51zM578 153q63 0 120.5 32.5t101.5 89t70.5 133.5t26.5 167
q0 66 -15 126t-45 105.5t-74.5 73t-102.5 27.5q-64 0 -121.5 -33t-101.5 -91t-70 -135.5t-26 -165.5q0 -66 15.5 -126t45.5 -105t74 -71.5t102 -26.5zM358 1240l269 362h235l188 -362h-188l-135 228l-186 -228h-183z" />
    <glyph glyph-name="odieresis" unicode="&#xf6;" 
d="M520 -20q-110 0 -192 37t-136.5 99.5t-81.5 145t-27 174.5q0 130 50.5 247t137.5 205t202.5 140t245.5 52q111 0 193 -37t136.5 -100t81.5 -146t27 -175q0 -132 -51 -248.5t-138.5 -204t-203 -138.5t-244.5 -51zM578 153q63 0 120.5 32.5t101.5 89t70.5 133.5t26.5 167
q0 66 -15 126t-45 105.5t-74.5 73t-102.5 27.5q-64 0 -121.5 -33t-101.5 -91t-70 -135.5t-26 -165.5q0 -66 15.5 -126t45.5 -105t74 -71.5t102 -26.5zM367 1359q0 30 12.5 56.5t33.5 46.5t48.5 32t57.5 12q27 0 49 -9.5t38 -25.5t25 -38.5t9 -47.5q0 -29 -12 -55.5
t-33 -46.5t-49 -31.5t-59 -11.5q-26 0 -48 9.5t-38 25.5t-25 37.5t-9 46.5zM798 1359q0 30 12 56.5t33 46.5t49 32t59 12q27 0 49 -9.5t38 -26t25 -38.5t9 -47q0 -29 -12 -55.5t-33 -46.5t-49 -31.5t-59 -11.5q-26 0 -48.5 9.5t-38.5 25.5t-25 37.5t-9 46.5z" />
    <glyph glyph-name="ugrave" unicode="&#xf9;" horiz-adv-x="1254" 
d="M1028 0h-198l-6 246l-93.5 -101t-96.5 -85t-105 -58.5t-117 -21.5q-73 0 -127 29.5t-88 79t-47.5 114.5t-5.5 136l82 721h243l-80 -698q-5 -40 1.5 -76t22.5 -63t42 -43t61 -16q37 0 77 18.5t80.5 51.5t80.5 77.5t77 96.5l75 652h243zM654 1240l-237 362h262l163 -362
h-188z" />
    <glyph glyph-name="uacute" unicode="&#xfa;" horiz-adv-x="1254" 
d="M1028 0h-198l-6 246l-93.5 -101t-96.5 -85t-105 -58.5t-117 -21.5q-73 0 -127 29.5t-88 79t-47.5 114.5t-5.5 136l82 721h243l-80 -698q-5 -40 1.5 -76t22.5 -63t42 -43t61 -16q37 0 77 18.5t80.5 51.5t80.5 77.5t77 96.5l75 652h243zM550 1240l244 362h259l-320 -362
h-183z" />
    <glyph glyph-name="ucircumflex" unicode="&#xfb;" horiz-adv-x="1254" 
d="M1028 0h-198l-6 246l-93.5 -101t-96.5 -85t-105 -58.5t-117 -21.5q-73 0 -127 29.5t-88 79t-47.5 114.5t-5.5 136l82 721h243l-80 -698q-5 -40 1.5 -76t22.5 -63t42 -43t61 -16q37 0 77 18.5t80.5 51.5t80.5 77.5t77 96.5l75 652h243zM369 1240l269 362h235l188 -362
h-188l-135 228l-186 -228h-183z" />
    <glyph glyph-name="udieresis" unicode="&#xfc;" horiz-adv-x="1254" 
d="M1028 0h-198l-6 246l-93.5 -101t-96.5 -85t-105 -58.5t-117 -21.5q-73 0 -127 29.5t-88 79t-47.5 114.5t-5.5 136l82 721h243l-80 -698q-5 -40 1.5 -76t22.5 -63t42 -43t61 -16q37 0 77 18.5t80.5 51.5t80.5 77.5t77 96.5l75 652h243zM374 1359q0 30 12.5 56.5t33.5 46.5
t48.5 32t57.5 12q27 0 49 -9.5t38 -25.5t25 -38.5t9 -47.5q0 -29 -12 -55.5t-33 -46.5t-49 -31.5t-59 -11.5q-26 0 -48 9.5t-38 25.5t-25 37.5t-9 46.5zM805 1359q0 30 12 56.5t33 46.5t49 32t59 12q27 0 49 -9.5t38 -26t25 -38.5t9 -47q0 -29 -12 -55.5t-33 -46.5
t-49 -31.5t-59 -11.5q-26 0 -48.5 9.5t-38.5 25.5t-25 37.5t-9 46.5z" />
    <glyph glyph-name="yacute" unicode="&#xfd;" horiz-adv-x="1091" 
d="M124 1060h263l54 -692q1 -46 1.5 -92t2.5 -92h20q76 103 138 208t109.5 214t81.5 222t56 232h243q-42 -153 -100 -293t-130.5 -271t-160 -254.5t-187.5 -241.5l-476 -560l-185 95l465 465h-53zM518 1240l244 362h259l-320 -362h-183z" />
    <glyph glyph-name="ydieresis" unicode="&#xff;" horiz-adv-x="1091" 
d="M124 1060h263l54 -692q1 -46 1.5 -92t2.5 -92h20q76 103 138 208t109.5 214t81.5 222t56 232h243q-42 -153 -100 -293t-130.5 -271t-160 -254.5t-187.5 -241.5l-476 -560l-185 95l465 465h-53zM307 1359q0 30 12.5 56.5t33.5 46.5t48.5 32t57.5 12q27 0 49 -9.5t38 -25.5
t25 -38.5t9 -47.5q0 -29 -12 -55.5t-33 -46.5t-49 -31.5t-59 -11.5q-26 0 -48 9.5t-38 25.5t-25 37.5t-9 46.5zM738 1359q0 30 12 56.5t33 46.5t49 32t59 12q27 0 49 -9.5t38 -26t25 -38.5t9 -47q0 -29 -12 -55.5t-33 -46.5t-49 -31.5t-59 -11.5q-26 0 -48.5 9.5t-38.5 25.5
t-25 37.5t-9 46.5z" />
    <glyph glyph-name="ccaron" unicode="&#x10d;" horiz-adv-x="1001" 
d="M861 123q-97 -77 -188.5 -110t-179.5 -33q-92 0 -167.5 32.5t-129.5 91.5t-83.5 142.5t-29.5 184.5q0 91 24 175t68 156t104 130.5t133 100.5t155 64.5t169 22.5q56 0 120.5 -11t117.5 -34l-64 -183l-22 -10q-34 26 -88 45.5t-114 19.5q-67 0 -129 -29t-110 -84
t-76.5 -133t-28.5 -175q0 -83 21 -144t58.5 -100.5t88 -58.5t110.5 -19q57 0 117.5 17t123.5 56v-114zM1057 1602l-270 -362h-235l-187 362h188l134 -229l186 229h184z" />
    <glyph glyph-name="caron" unicode="&#x2c7;" horiz-adv-x="1092" 
d="M1016 1602l-270 -362h-235l-187 362h188l134 -229l186 229h184z" />
    <glyph glyph-name="ecaron" unicode="&#x11b;" horiz-adv-x="1114" 
d="M503 -20q-92 0 -169 31t-133 89t-87 140.5t-31 186.5q0 94 25 178.5t69.5 157t105 131t131 100t147.5 64t155 22.5q82 0 144.5 -23.5t104.5 -62.5t63.5 -89t21.5 -104q0 -75 -41 -138.5t-119.5 -110.5t-194 -73.5t-263.5 -26.5h-100q0 -61 18.5 -113.5t55.5 -91.5t93 -61
t131 -22q72 0 144.5 22t144.5 65v-114q-48 -42 -101.5 -72t-108 -49t-107.5 -27.5t-99 -8.5zM663 907q-59 0 -112 -27.5t-95.5 -73.5t-72 -106.5t-42.5 -127.5h99q91 0 161.5 15t119 41.5t74 62.5t25.5 78q0 25 -10 50t-29.5 44.5t-49 31.5t-68.5 12zM1066 1602l-270 -362
h-235l-187 362h188l134 -229l186 229h184z" />
    <glyph glyph-name="nacute" unicode="&#x144;" horiz-adv-x="1275" 
d="M226 1060h198l6 -246q47 54 95.5 102.5t100.5 84.5t109 57.5t122 21.5q78 0 133.5 -29.5t90 -79.5t47 -115t4.5 -135l-82 -721h-243l80 698q4 40 -1.5 76t-22 63t-44 42.5t-65.5 15.5q-41 0 -84 -18.5t-85.5 -51t-83.5 -77t-78 -96.5l-75 -652h-243zM557 1240l244 362
h259l-320 -362h-183z" />
    <glyph glyph-name="ncaron" unicode="&#x148;" horiz-adv-x="1275" 
d="M226 1060h198l6 -246q47 54 95.5 102.5t100.5 84.5t109 57.5t122 21.5q78 0 133.5 -29.5t90 -79.5t47 -115t4.5 -135l-82 -721h-243l80 698q4 40 -1.5 76t-22 63t-44 42.5t-65.5 15.5q-41 0 -84 -18.5t-85.5 -51t-83.5 -77t-78 -96.5l-75 -652h-243zM1105 1602l-270 -362
h-235l-187 362h188l134 -229l186 229h184z" />
    <glyph glyph-name="racute" unicode="&#x155;" horiz-adv-x="900" 
d="M226 1060h198q-2 -84 -2.5 -166.5t-1.5 -165.5q31 57 68 119t82 113.5t101 85.5t126 34q29 0 56.5 -6.5t45.5 -20.5l-51 -231q-23 5 -42.5 6.5t-38.5 1.5q-60 0 -108.5 -20t-90.5 -56t-80 -87.5t-77 -114.5l-63 -552h-243zM405 1240l244 362h259l-320 -362h-183z" />
    <glyph glyph-name="rcaron" unicode="&#x159;" horiz-adv-x="900" 
d="M226 1060h198q-2 -84 -2.5 -166.5t-1.5 -165.5q31 57 68 119t82 113.5t101 85.5t126 34q29 0 56.5 -6.5t45.5 -20.5l-51 -231q-23 5 -42.5 6.5t-38.5 1.5q-60 0 -108.5 -20t-90.5 -56t-80 -87.5t-77 -114.5l-63 -552h-243zM968 1602l-270 -362h-235l-187 362h188
l134 -229l186 229h184z" />
    <glyph glyph-name="sacute" unicode="&#x15b;" horiz-adv-x="980" 
d="M116 239l20 12q72 -46 150.5 -72t149.5 -26q44 0 79.5 10.5t60.5 28t38.5 41t13.5 49.5q0 32 -20 56.5t-53 45t-75 39l-86 39t-86 45t-75 56t-53 73t-20 95.5q0 67 32.5 130t93 112t146.5 78t192 29q63 0 138 -11.5t138 -36.5l-64 -181l-23 -13q-55 34 -120 51.5
t-122 17.5q-44 0 -78.5 -10.5t-58.5 -28t-36.5 -40.5t-12.5 -49q0 -45 35 -75.5t88 -56.5t114 -51.5t114 -60.5t88 -84.5t35 -121.5q0 -68 -33 -130.5t-94 -111.5t-147 -78t-191 -29q-85 0 -174 20t-168 57zM465 1240l244 362h259l-320 -362h-183z" />
    <glyph glyph-name="zacute" unicode="&#x17a;" horiz-adv-x="1072" 
d="M45 76l525 667l114 131l3 20l-189 -7h-69h-265l63 173h773v-76l-521 -658l-122 -142l-3 -19l177 8h82h324l-63 -173h-829v76zM496 1240l244 362h259l-320 -362h-183z" />
    <glyph glyph-name="zcaron" unicode="&#x17e;" horiz-adv-x="1072" 
d="M45 76l525 667l114 131l3 20l-189 -7h-69h-265l63 173h773v-76l-521 -658l-122 -142l-3 -19l177 8h82h324l-63 -173h-829v76zM1028 1602l-270 -362h-235l-187 362h188l134 -229l186 229h184z" />
    <glyph glyph-name="cacute" unicode="&#x107;" horiz-adv-x="1001" 
d="M861 123q-97 -77 -188.5 -110t-179.5 -33q-92 0 -167.5 32.5t-129.5 91.5t-83.5 142.5t-29.5 184.5q0 91 24 175t68 156t104 130.5t133 100.5t155 64.5t169 22.5q56 0 120.5 -11t117.5 -34l-64 -183l-22 -10q-34 26 -88 45.5t-114 19.5q-67 0 -129 -29t-110 -84
t-76.5 -133t-28.5 -175q0 -83 21 -144t58.5 -100.5t88 -58.5t110.5 -19q57 0 117.5 17t123.5 56v-114zM510 1240l244 362h259l-320 -362h-183z" />
    <glyph glyph-name="uni021A" unicode="&#x21a;" horiz-adv-x="1324" 
d="M719 0h-248l147 1289h-476l53 176h1182l-53 -176h-458zM392 -541q26 18 52 41t48.5 47.5t39 49t23.5 44.5q-17 19 -49 36.5t-63 23.5q-4 10 -5.5 23t-1.5 25q0 27 11.5 53t32 46.5t49 33t61.5 12.5q55 0 89.5 -37.5t34.5 -100.5q0 -47 -21.5 -95t-57.5 -93t-83.5 -85
t-99.5 -71z" />
    <glyph glyph-name="uni021B" unicode="&#x21b;" horiz-adv-x="972" 
d="M296 887h-213l31 114q81 20 131.5 45t86 61.5t65 89l68.5 127.5h116l-30 -264h381l-62 -173h-331l-61 -532q-11 -99 25.5 -145t121.5 -46q49 0 93 14.5t98 43.5v-116q-77 -62 -166.5 -94t-170.5 -32q-74 0 -124.5 26.5t-80.5 73.5t-40 111t-1 138zM279 -541q26 18 52 41
t48.5 47.5t39 49t23.5 44.5q-17 19 -49 36.5t-63 23.5q-4 10 -5.5 23t-1.5 25q0 27 11.5 53t32 46.5t49 33t61.5 12.5q55 0 89.5 -37.5t34.5 -100.5q0 -47 -21.5 -95t-57.5 -93t-83.5 -85t-99.5 -71z" />
    <glyph glyph-name="emacron" unicode="&#x113;" horiz-adv-x="1114" 
d="M503 -20q-92 0 -169 31t-133 89t-87 140.5t-31 186.5q0 94 25 178.5t69.5 157t105 131t131 100t147.5 64t155 22.5q82 0 144.5 -23.5t104.5 -62.5t63.5 -89t21.5 -104q0 -75 -41 -138.5t-119.5 -110.5t-194 -73.5t-263.5 -26.5h-100q0 -61 18.5 -113.5t55.5 -91.5t93 -61
t131 -22q72 0 144.5 22t144.5 65v-114q-48 -42 -101.5 -72t-108 -49t-107.5 -27.5t-99 -8.5zM663 907q-59 0 -112 -27.5t-95.5 -73.5t-72 -106.5t-42.5 -127.5h99q91 0 161.5 15t119 41.5t74 62.5t25.5 78q0 25 -10 50t-29.5 44.5t-49 31.5t-68.5 12zM414 1405h566l-19 -165
h-565z" />
    <glyph glyph-name="amacron" unicode="&#x101;" horiz-adv-x="1241" 
d="M871 863q-46 26 -89.5 35t-75.5 9q-71 0 -137 -32.5t-117 -92.5t-81.5 -144t-30.5 -187q0 -57 10.5 -109t32 -91.5t55 -63t80.5 -23.5q38 0 76 16t76 45.5t74.5 70t71.5 90.5zM1015 0h-197l-8 226q-49 -56 -95.5 -101t-94.5 -77.5t-98.5 -50t-107.5 -17.5q-82 0 -144 36
t-103.5 96t-62.5 138t-21 163q0 97 27 184.5t74 161.5t111 133.5t137.5 101t154 64t160.5 22.5q114 0 240 -51l152 52zM475 1405h566l-19 -165h-565z" />
    <glyph glyph-name="atilde" unicode="&#xe3;" horiz-adv-x="1241" 
d="M871 863q-46 26 -89.5 35t-75.5 9q-71 0 -137 -32.5t-117 -92.5t-81.5 -144t-30.5 -187q0 -57 10.5 -109t32 -91.5t55 -63t80.5 -23.5q38 0 76 16t76 45.5t74.5 70t71.5 90.5zM1015 0h-197l-8 226q-49 -56 -95.5 -101t-94.5 -77.5t-98.5 -50t-107.5 -17.5q-82 0 -144 36
t-103.5 96t-62.5 138t-21 163q0 97 27 184.5t74 161.5t111 133.5t137.5 101t154 64t160.5 22.5q114 0 240 -51l152 52zM884 1240q-42 0 -72 13.5t-52.5 33.5t-39.5 43l-32.5 43t-32.5 33.5t-39 13.5q-37 0 -69 -43t-43 -137h-155q11 95 42.5 159t73 103t88.5 55.5t88 16.5
t71.5 -13.5t53 -33.5t40 -43l33 -43t31.5 -33.5t36 -13.5q42 0 73.5 43.5t42.5 136.5h155q-11 -95 -42.5 -159t-73 -103t-88.5 -55.5t-89 -16.5z" />
    <glyph glyph-name="tilde" unicode="&#x2dc;" horiz-adv-x="1191" 
d="M817 1240q-42 0 -72 13.5t-52.5 33.5t-39.5 43l-32.5 43t-32.5 33.5t-39 13.5q-37 0 -69 -43t-43 -137h-155q11 95 42.5 159t73 103t88.5 55.5t88 16.5t71.5 -13.5t53 -33.5t40 -43l33 -43t31.5 -33.5t36 -13.5q42 0 73.5 43.5t42.5 136.5h155q-11 -95 -42.5 -159
t-73 -103t-88.5 -55.5t-89 -16.5z" />
    <glyph glyph-name="ntilde" unicode="&#xf1;" horiz-adv-x="1275" 
d="M226 1060h198l6 -246q47 54 95.5 102.5t100.5 84.5t109 57.5t122 21.5q78 0 133.5 -29.5t90 -79.5t47 -115t4.5 -135l-82 -721h-243l80 698q4 40 -1.5 76t-22 63t-44 42.5t-65.5 15.5q-41 0 -84 -18.5t-85.5 -51t-83.5 -77t-78 -96.5l-75 -652h-243zM860 1240
q-42 0 -72 13.5t-52.5 33.5t-39.5 43l-32.5 43t-32.5 33.5t-39 13.5q-37 0 -69 -43t-43 -137h-155q11 95 42.5 159t73 103t88.5 55.5t88 16.5t71.5 -13.5t53 -33.5t40 -43l33 -43t31.5 -33.5t36 -13.5q42 0 73.5 43.5t42.5 136.5h155q-11 -95 -42.5 -159t-73 -103
t-88.5 -55.5t-89 -16.5z" />
    <glyph glyph-name="otilde" unicode="&#xf5;" 
d="M520 -20q-110 0 -192 37t-136.5 99.5t-81.5 145t-27 174.5q0 130 50.5 247t137.5 205t202.5 140t245.5 52q111 0 193 -37t136.5 -100t81.5 -146t27 -175q0 -132 -51 -248.5t-138.5 -204t-203 -138.5t-244.5 -51zM578 153q63 0 120.5 32.5t101.5 89t70.5 133.5t26.5 167
q0 66 -15 126t-45 105.5t-74.5 73t-102.5 27.5q-64 0 -121.5 -33t-101.5 -91t-70 -135.5t-26 -165.5q0 -66 15.5 -126t45.5 -105t74 -71.5t102 -26.5zM840 1240q-42 0 -72 13.5t-52.5 33.5t-39.5 43l-32.5 43t-32.5 33.5t-39 13.5q-37 0 -69 -43t-43 -137h-155
q11 95 42.5 159t73 103t88.5 55.5t88 16.5t71.5 -13.5t53 -33.5t40 -43l33 -43t31.5 -33.5t36 -13.5q42 0 73.5 43.5t42.5 136.5h155q-11 -95 -42.5 -159t-73 -103t-88.5 -55.5t-89 -16.5z" />
    <glyph glyph-name="imacron" unicode="&#x12b;" horiz-adv-x="578" 
d="M48 1405h566l-19 -165h-565zM170 1060h242l-121 -1060h-242z" />
    <glyph glyph-name="Ncommaaccent" unicode="&#x145;" horiz-adv-x="1693" 
d="M139 0l167 1465h350l517 -933l80 -193h20l10 185l15.5 138l15.5 138l75 665h213l-167 -1465h-233l-622 1117l-73 185h-20l-11 -213l-61.5 -544.5l-62.5 -544.5h-213zM546 -541q26 18 52 41t48.5 47.5t39 49t23.5 44.5q-17 19 -49 36.5t-63 23.5q-4 10 -5.5 23t-1.5 25
q0 27 11.5 53t32 46.5t49 33t61.5 12.5q55 0 89.5 -37.5t34.5 -100.5q0 -47 -21.5 -95t-57.5 -93t-83.5 -85t-99.5 -71z" />
    <glyph glyph-name="rcommaaccent" unicode="&#x157;" horiz-adv-x="900" 
d="M226 1060h198q-2 -84 -2.5 -166.5t-1.5 -165.5q31 57 68 119t82 113.5t101 85.5t126 34q29 0 56.5 -6.5t45.5 -20.5l-51 -231q-23 5 -42.5 6.5t-38.5 1.5q-60 0 -108.5 -20t-90.5 -56t-80 -87.5t-77 -114.5l-63 -552h-243zM19 -541q26 18 52 41t48.5 47.5t39 49
t23.5 44.5q-17 19 -49 36.5t-63 23.5q-4 10 -5.5 23t-1.5 25q0 27 11.5 53t32 46.5t49 33t61.5 12.5q55 0 89.5 -37.5t34.5 -100.5q0 -47 -21.5 -95t-57.5 -93t-83.5 -85t-99.5 -71z" />
    <glyph glyph-name="Rcommaaccent" unicode="&#x156;" horiz-adv-x="1366" 
d="M460 570l-65 -570h-248l167 1465h451q112 0 200 -29t148.5 -79t92 -116.5t31.5 -140.5q0 -77 -31 -142.5t-80.5 -119.5t-110.5 -98t-121 -77l349 -663h-293l-248 570h-242zM479 741h301q43 22 80.5 55.5t64.5 74.5t42.5 88t15.5 97t-17 93t-51 74t-85.5 48.5t-120.5 17.5
h-167zM433 -541q26 18 52 41t48.5 47.5t39 49t23.5 44.5q-17 19 -49 36.5t-63 23.5q-4 10 -5.5 23t-1.5 25q0 27 11.5 53t32 46.5t49 33t61.5 12.5q55 0 89.5 -37.5t34.5 -100.5q0 -47 -21.5 -95t-57.5 -93t-83.5 -85t-99.5 -71z" />
    <glyph glyph-name="Lcommaaccent" unicode="&#x13b;" horiz-adv-x="1124" 
d="M147 0l167 1465h248l-147 -1289h587l-53 -176h-802zM329 -541q26 18 52 41t48.5 47.5t39 49t23.5 44.5q-17 19 -49 36.5t-63 23.5q-4 10 -5.5 23t-1.5 25q0 27 11.5 53t32 46.5t49 33t61.5 12.5q55 0 89.5 -37.5t34.5 -100.5q0 -47 -21.5 -95t-57.5 -93t-83.5 -85
t-99.5 -71z" />
    <glyph glyph-name="lcommaaccent" unicode="&#x13c;" horiz-adv-x="572" 
d="M288 1602h243l-183 -1602h-243zM23 -541q26 18 52 41t48.5 47.5t39 49t23.5 44.5q-17 19 -49 36.5t-63 23.5q-4 10 -5.5 23t-1.5 25q0 27 11.5 53t32 46.5t49 33t61.5 12.5q55 0 89.5 -37.5t34.5 -100.5q0 -47 -21.5 -95t-57.5 -93t-83.5 -85t-99.5 -71z" />
    <glyph glyph-name="ncommaaccent" unicode="&#x146;" horiz-adv-x="1275" 
d="M226 1060h198l6 -246q47 54 95.5 102.5t100.5 84.5t109 57.5t122 21.5q78 0 133.5 -29.5t90 -79.5t47 -115t4.5 -135l-82 -721h-243l80 698q4 40 -1.5 76t-22 63t-44 42.5t-65.5 15.5q-41 0 -84 -18.5t-85.5 -51t-83.5 -77t-78 -96.5l-75 -652h-243zM382 -541
q26 18 52 41t48.5 47.5t39 49t23.5 44.5q-17 19 -49 36.5t-63 23.5q-4 10 -5.5 23t-1.5 25q0 27 11.5 53t32 46.5t49 33t61.5 12.5q55 0 89.5 -37.5t34.5 -100.5q0 -47 -21.5 -95t-57.5 -93t-83.5 -85t-99.5 -71z" />
    <glyph glyph-name="gcommaaccent" unicode="&#x123;" horiz-adv-x="1254" 
d="M883 863q-48 26 -97 35t-84 9q-77 0 -143.5 -33t-116 -92.5t-77.5 -141.5t-28 -180q0 -62 12 -115.5t35 -94t58 -63.5t81 -23q38 0 77.5 16t78.5 45.5t76.5 70t72.5 90.5zM1029 25q-15 -130 -73 -237.5t-147 -184t-202.5 -118.5t-240.5 -42q-46 0 -90 5.5t-84.5 14.5
t-75.5 20.5t-62 23.5l61 174l20 10q22 -12 52.5 -25.5t66 -24.5t74.5 -18t77 -7q72 0 136.5 26t114.5 73.5t83 114t42 146.5l27 238q-44 -51 -89 -94t-92.5 -74t-98.5 -48.5t-108 -17.5q-83 0 -146.5 36t-106.5 96t-65.5 139.5t-22.5 166.5q0 95 26 181.5t72 160t109.5 133
t137.5 101t156.5 64t167.5 22.5q60 0 124.5 -12.5t127.5 -38.5l151 52zM924 1601q-26 -18 -51.5 -41t-48 -48t-39.5 -49t-24 -44q17 -20 49 -37t63 -24q4 -9 6 -22t2 -25q0 -27 -11.5 -53t-32.5 -46.5t-49 -33t-61 -12.5q-56 0 -90.5 37.5t-34.5 100.5q0 46 21.5 94.5
t57.5 93.5t83.5 85t99.5 71z" />
    <glyph glyph-name="Thorn" unicode="&#xde;" horiz-adv-x="1314" 
d="M395 0h-248l167 1465h248l-29 -254h194q117 0 212 -27t162.5 -79.5t104 -128.5t36.5 -174q0 -86 -24 -160t-65.5 -135.5t-98 -109t-122 -80t-136.5 -49.5t-142 -17q-13 0 -27.5 1t-33.5 4l34 166q14 -2 27 -2.5t24 -0.5q67 0 124 24t99 69t65.5 110t23.5 147
q0 70 -21.5 120t-62.5 82.5t-99.5 48t-132.5 15.5h-161z" />
    <glyph glyph-name="ae" unicode="&#xe6;" horiz-adv-x="1743" 
d="M1131 -20q-123 0 -218 54.5t-147 154.5q-34 -29 -83 -65.5t-107.5 -68.5t-122 -53.5t-126.5 -21.5q-58 0 -106 19.5t-82.5 53.5t-54 80.5t-19.5 100.5q0 64 30.5 129t100.5 117.5t184 85t280 32.5h74l11 119q8 88 -42.5 139t-143.5 51q-36 0 -76 -7.5t-80.5 -21
t-79 -32.5t-70.5 -41l-17 10l-37 158q128 63 235 85t190 22q128 0 207.5 -41.5t117.5 -114.5q86 74 188.5 115t208.5 41q80 0 142 -22.5t104.5 -60t64.5 -87.5t22 -104q0 -74 -41 -134.5t-119.5 -103.5t-194 -66.5t-263.5 -23.5h-100q1 -65 19.5 -122.5t56 -100t93.5 -67
t131 -24.5q70 0 142.5 22t144.5 65v-114q-48 -42 -101.5 -72t-108.5 -49t-108 -27.5t-99 -8.5zM1290 907q-58 0 -110.5 -24t-95 -66t-72.5 -98.5t-42 -120.5h99q91 0 161.5 12t119 34.5t74 55.5t25.5 74q0 26 -10 50t-30 42.5t-50 29.5t-69 11zM458 164q61 0 132 29.5
t137 89.5q-15 67 -14 140q0 14 1 27.5t3 27.5h-61q-101 0 -167.5 -12.5t-106 -35t-55.5 -54t-16 -70.5q0 -64 38 -103t109 -39z" />
    <glyph glyph-name="umacron" unicode="&#x16b;" horiz-adv-x="1254" 
d="M1028 0h-198l-6 246l-93.5 -101t-96.5 -85t-105 -58.5t-117 -21.5q-73 0 -127 29.5t-88 79t-47.5 114.5t-5.5 136l82 721h243l-80 -698q-5 -40 1.5 -76t22.5 -63t42 -43t61 -16q37 0 77 18.5t80.5 51.5t80.5 77.5t77 96.5l75 652h243zM445 1405h566l-19 -165h-565z" />
    <glyph glyph-name="dotaccent" unicode="&#x2d9;" horiz-adv-x="706" 
d="M435 1269q-60 0 -95 35t-35 88q0 32 13.5 60.5t36.5 49.5t53 33t64 12q29 0 52.5 -9.5t40.5 -26.5t26.5 -40t9.5 -49q0 -33 -13.5 -61t-36 -48.5t-53 -32t-63.5 -11.5z" />
    <glyph glyph-name="edotaccent" unicode="&#x117;" horiz-adv-x="1114" 
d="M503 -20q-92 0 -169 31t-133 89t-87 140.5t-31 186.5q0 94 25 178.5t69.5 157t105 131t131 100t147.5 64t155 22.5q82 0 144.5 -23.5t104.5 -62.5t63.5 -89t21.5 -104q0 -75 -41 -138.5t-119.5 -110.5t-194 -73.5t-263.5 -26.5h-100q0 -61 18.5 -113.5t55.5 -91.5t93 -61
t131 -22q72 0 144.5 22t144.5 65v-114q-48 -42 -101.5 -72t-108 -49t-107.5 -27.5t-99 -8.5zM663 907q-59 0 -112 -27.5t-95.5 -73.5t-72 -106.5t-42.5 -127.5h99q91 0 161.5 15t119 41.5t74 62.5t25.5 78q0 25 -10 50t-29.5 44.5t-49 31.5t-68.5 12zM683 1269q-60 0 -95 35
t-35 88q0 32 13.5 60.5t36.5 49.5t53 33t64 12q29 0 52.5 -9.5t40.5 -26.5t26.5 -40t9.5 -49q0 -33 -13.5 -61t-36 -48.5t-53 -32t-63.5 -11.5z" />
    <glyph glyph-name="omacron" unicode="&#x14d;" 
d="M520 -20q-110 0 -192 37t-136.5 99.5t-81.5 145t-27 174.5q0 130 50.5 247t137.5 205t202.5 140t245.5 52q111 0 193 -37t136.5 -100t81.5 -146t27 -175q0 -132 -51 -248.5t-138.5 -204t-203 -138.5t-244.5 -51zM578 153q63 0 120.5 32.5t101.5 89t70.5 133.5t26.5 167
q0 66 -15 126t-45 105.5t-74.5 73t-102.5 27.5q-64 0 -121.5 -33t-101.5 -91t-70 -135.5t-26 -165.5q0 -66 15.5 -126t45.5 -105t74 -71.5t102 -26.5zM439 1405h566l-19 -165h-565z" />
    <glyph glyph-name="zdotaccent" unicode="&#x17c;" horiz-adv-x="1072" 
d="M45 76l525 667l114 131l3 20l-189 -7h-69h-265l63 173h773v-76l-521 -658l-122 -142l-3 -19l177 8h82h324l-63 -173h-829v76zM631 1269q-60 0 -95 35t-35 88q0 32 13.5 60.5t36.5 49.5t53 33t64 12q29 0 52.5 -9.5t40.5 -26.5t26.5 -40t9.5 -49q0 -33 -13.5 -61
t-36 -48.5t-53 -32t-63.5 -11.5z" />
    <glyph glyph-name="breve" unicode="&#x2d8;" horiz-adv-x="1053" 
d="M626 1395q75 0 125 55t61 152h164q-10 -84 -40.5 -151.5t-79.5 -114t-114 -71.5t-144 -25t-135.5 25t-90.5 72t-46.5 114t-2.5 151h164q-11 -97 26.5 -152t112.5 -55z" />
    <glyph glyph-name="abreve" unicode="&#x103;" horiz-adv-x="1198" 
d="M871 863q-46 26 -89.5 35t-75.5 9q-71 0 -137 -32.5t-117 -92.5t-81.5 -144t-30.5 -187q0 -57 10.5 -109t32 -91.5t55 -63t80.5 -23.5q38 0 76 16t76 45.5t74.5 70t71.5 90.5zM1015 0h-197l-8 226q-49 -56 -95.5 -101t-94.5 -77.5t-98.5 -50t-107.5 -17.5q-82 0 -144 36
t-103.5 96t-62.5 138t-21 163q0 97 27 184.5t74 161.5t111 133.5t137.5 101t154 64t160.5 22.5q114 0 240 -51l152 52zM745 1395q75 0 125 55t61 152h164q-10 -84 -40.5 -151.5t-79.5 -114t-114 -71.5t-144 -25t-135.5 25t-90.5 72t-46.5 114t-2.5 151h164
q-11 -97 26.5 -152t112.5 -55z" />
    <glyph glyph-name="gbreve" unicode="&#x11f;" horiz-adv-x="1254" 
d="M883 863q-48 26 -97 35t-84 9q-77 0 -143.5 -33t-116 -92.5t-77.5 -141.5t-28 -180q0 -62 12 -115.5t35 -94t58 -63.5t81 -23q38 0 77.5 16t78.5 45.5t76.5 70t72.5 90.5zM1029 25q-15 -130 -73 -237.5t-147 -184t-202.5 -118.5t-240.5 -42q-46 0 -90 5.5t-84.5 14.5
t-75.5 20.5t-62 23.5l61 174l20 10q22 -12 52.5 -25.5t66 -24.5t74.5 -18t77 -7q72 0 136.5 26t114.5 73.5t83 114t42 146.5l27 238q-44 -51 -89 -94t-92.5 -74t-98.5 -48.5t-108 -17.5q-83 0 -146.5 36t-106.5 96t-65.5 139.5t-22.5 166.5q0 95 26 181.5t72 160t109.5 133
t137.5 101t156.5 64t167.5 22.5q60 0 124.5 -12.5t127.5 -38.5l151 52zM724 1395q75 0 125 55t61 152h164q-10 -84 -40.5 -151.5t-79.5 -114t-114 -71.5t-144 -25t-135.5 25t-90.5 72t-46.5 114t-2.5 151h164q-11 -97 26.5 -152t112.5 -55z" />
    <glyph glyph-name="aring" unicode="&#xe5;" horiz-adv-x="1241" 
d="M871 863q-46 26 -89.5 35t-75.5 9q-71 0 -137 -32.5t-117 -92.5t-81.5 -144t-30.5 -187q0 -57 10.5 -109t32 -91.5t55 -63t80.5 -23.5q38 0 76 16t76 45.5t74.5 70t71.5 90.5zM1015 0h-197l-8 226q-49 -56 -95.5 -101t-94.5 -77.5t-98.5 -50t-107.5 -17.5q-82 0 -144 36
t-103.5 96t-62.5 138t-21 163q0 97 27 184.5t74 161.5t111 133.5t137.5 101t154 64t160.5 22.5q114 0 240 -51l152 52zM635 1450q0 -26 8.5 -47.5t23.5 -36.5t34.5 -23.5t41.5 -8.5q26 0 50.5 10.5t44 29t31.5 45t12 58.5q0 25 -8.5 46.5t-23.5 36.5t-35 23.5t-42 8.5
q-26 0 -50.5 -10.5t-43.5 -29.5t-31 -45t-12 -57zM480 1437q0 59 26 110t70 88t101 58t120 21q55 0 99.5 -17.5t75.5 -47.5t47.5 -71t16.5 -89q0 -59 -26 -109.5t-70 -88t-101.5 -58.5t-119.5 -21q-55 0 -99.5 17.5t-75.5 47.5t-47.5 71t-16.5 89z" />
    <glyph glyph-name="ring" unicode="&#x2da;" horiz-adv-x="953" 
d="M461 1450q0 -26 8.5 -47.5t23.5 -36.5t34.5 -23.5t41.5 -8.5q26 0 50.5 10.5t44 29t31.5 45t12 58.5q0 25 -8.5 46.5t-23.5 36.5t-35 23.5t-42 8.5q-26 0 -50.5 -10.5t-43.5 -29.5t-31 -45t-12 -57zM306 1437q0 59 26 110t70 88t101 58t120 21q55 0 99.5 -17.5
t75.5 -47.5t47.5 -71t16.5 -89q0 -59 -26 -109.5t-70 -88t-101.5 -58.5t-119.5 -21q-55 0 -99.5 17.5t-75.5 47.5t-47.5 71t-16.5 89z" />
    <glyph glyph-name="uring" unicode="&#x16f;" horiz-adv-x="1254" 
d="M1028 0h-198l-6 246l-93.5 -101t-96.5 -85t-105 -58.5t-117 -21.5q-73 0 -127 29.5t-88 79t-47.5 114.5t-5.5 136l82 721h243l-80 -698q-5 -40 1.5 -76t22.5 -63t42 -43t61 -16q37 0 77 18.5t80.5 51.5t80.5 77.5t77 96.5l75 652h243zM611 1450q0 -26 8.5 -47.5
t23.5 -36.5t34.5 -23.5t41.5 -8.5q26 0 50.5 10.5t44 29t31.5 45t12 58.5q0 25 -8.5 46.5t-23.5 36.5t-35 23.5t-42 8.5q-26 0 -50.5 -10.5t-43.5 -29.5t-31 -45t-12 -57zM456 1437q0 59 26 110t70 88t101 58t120 21q55 0 99.5 -17.5t75.5 -47.5t47.5 -71t16.5 -89
q0 -59 -26 -109.5t-70 -88t-101.5 -58.5t-119.5 -21q-55 0 -99.5 17.5t-75.5 47.5t-47.5 71t-16.5 89z" />
    <glyph glyph-name="ordfeminine" unicode="&#xaa;" horiz-adv-x="1150" 
d="M710 693l-59.5 -45.5t-74 -48.5t-86 -39t-94.5 -16q-48 0 -87 16.5t-67.5 46t-44 70t-15.5 89.5q0 61 26.5 122.5t86.5 110.5t156.5 79.5t236.5 30.5h65l7 65q9 74 -33.5 115t-120.5 41q-31 0 -66.5 -7.5t-72 -20.5t-71 -30.5t-63.5 -37.5l-14 9l-24 150q111 54 203.5 73
t172.5 19t140.5 -16.5t98.5 -50.5t54 -86t8 -124l-47 -411q-1 -13 -0.5 -28.5t5.5 -29t16 -22.5t31 -9q12 0 29 3.5t35 10.5l-13 -107q-48 -32 -95 -51.5t-92 -19.5q-35 0 -58 12.5t-37.5 33.5t-23 48t-12.5 55zM740 1000h-64q-96 0 -152.5 -14.5t-86 -38.5t-38 -54.5
t-8.5 -63.5q0 -59 31.5 -90t82.5 -31q44 0 95.5 23.5t118.5 81.5z" />
    <glyph glyph-name="ordmasculine" unicode="&#xba;" horiz-adv-x="1243" 
d="M591 544q-96 0 -169 32t-122 86.5t-73.5 126t-24.5 151.5q0 111 43.5 210t119.5 173.5t177.5 118t218.5 43.5q97 0 170.5 -32t122.5 -87t73.5 -127t24.5 -152q0 -112 -44 -210.5t-120.5 -172.5t-178.5 -117t-218 -43zM646 699q58 0 109 25.5t89 71.5t60.5 109t22.5 138
q0 57 -15 109t-43 91.5t-69 63t-93 23.5q-59 0 -110 -26.5t-89 -73t-60 -109.5t-22 -137q0 -57 15 -109t43 -91t69 -62t93 -23z" />
    <glyph glyph-name="oslash" unicode="&#xf8;" horiz-adv-x="1293" 
d="M549 -20q-66 0 -122 13t-103 36l-121 -149h-171l184 226q-61 63 -91 151t-30 185q0 86 22.5 166.5t64 151.5t100.5 130t131 101t155.5 65.5t174.5 23.5q66 0 122.5 -13t103.5 -37l123 150h171l-186 -228q62 -63 92 -151.5t30 -185.5q0 -130 -50.5 -245.5t-138 -202
t-206.5 -137t-255 -50.5zM353 491q0 -46 9 -91t29 -80l438 536q-30 24 -66.5 37.5t-80.5 13.5q-71 0 -131 -32.5t-104 -89t-69 -132.5t-25 -162zM610 153q68 0 127 30t103 83t70 124t28 154q1 27 -1.5 55t-7.5 55q-5 23 -12 43.5t-16 38.5l-436 -535q29 -23 65 -35.5
t80 -12.5z" />
    <glyph glyph-name="Oslash" unicode="&#xd8;" horiz-adv-x="1758" 
d="M337 150q-88 85 -137 205.5t-49 272.5q0 124 33 236t91.5 207t139 171.5t176.5 130.5t203 83t218 29q96 0 182.5 -22.5t160.5 -65.5l154 188h182l-221 -272q87 -83 136.5 -203t49.5 -272q0 -124 -32.5 -236t-90.5 -207t-138 -172t-176 -131t-203.5 -83t-219.5 -29
q-97 0 -183.5 22t-160.5 65l-153 -187h-183zM415 663q0 -91 22.5 -170.5t64.5 -140.5l711 871q-52 41 -116 63.5t-139 22.5q-118 0 -217.5 -53t-172 -142t-113 -206t-40.5 -245zM848 156q77 0 147.5 23.5t131 66t109.5 102t83.5 130.5t53.5 151.5t19 166.5q0 92 -23 172
t-65 142l-711 -870q52 -41 116 -62.5t139 -21.5z" />
    <glyph glyph-name="divide" unicode="&#xf7;" horiz-adv-x="1299" 
d="M1167 674l-19 -165h-999l18 165h1000zM688 855q-26 0 -47 9.5t-37 25.5t-24.5 37.5t-8.5 45.5q0 30 12 56.5t32.5 46.5t47.5 31.5t57 11.5q25 0 46.5 -9.5t37 -26t24 -38t8.5 -46.5q0 -29 -12 -55.5t-32.5 -46t-47.5 -31t-56 -11.5zM598 63q-26 0 -47.5 9.5t-37 25.5
t-24 38t-8.5 46q0 30 12 56.5t32.5 46.5t47.5 31.5t56 11.5q25 0 46.5 -9.5t37.5 -26t24.5 -38.5t8.5 -47q0 -29 -12.5 -55.5t-33 -46t-47 -31t-55.5 -11.5z" />
    <glyph glyph-name="multiply" unicode="&#xd7;" horiz-adv-x="1190" 
d="M616 702l339 305l104 -116l-341 -306l272 -305l-130 -117l-271 305l-341 -305l-103 116l340 306l-271 305l130 117z" />
    <glyph glyph-name="ccedilla" unicode="&#xe7;" horiz-adv-x="1001" 
d="M861 123q-57 -46 -112.5 -75.5t-109.5 -46.5q11 -17 19.5 -43t8.5 -62q0 -70 -30.5 -128.5t-87 -101t-136 -66t-177.5 -23.5l17 144q115 0 179.5 45.5t64.5 139.5q0 41 -15 74q-89 2 -162.5 35t-126 92t-81.5 141.5t-29 182.5q0 91 24 175t68 156t104 130.5t133 100.5
t155 64.5t169 22.5q56 0 120.5 -11t117.5 -34l-64 -183l-22 -10q-34 26 -88 45.5t-114 19.5q-67 0 -129 -29t-110 -84t-76.5 -133t-28.5 -175q0 -83 21 -143.5t58 -100.5t88 -59t111 -19q57 0 117.5 17t123.5 56v-114z" />
    <glyph glyph-name="Ccedilla" unicode="&#xc7;" horiz-adv-x="1441" 
d="M1282 140q-39 -31 -83 -55t-90.5 -42t-93 -30t-91.5 -19q10 -18 17 -42t7 -56q0 -69 -30.5 -127.5t-87 -101t-136 -66.5t-177.5 -24l17 144q114 0 179 45.5t65 139.5q0 42 -15 74q-135 1 -247.5 47.5t-193.5 131.5t-126.5 204t-45.5 264q0 135 36 251t99 211t149 169
t187 124.5t212 76.5t224 26q34 0 77.5 -3t91.5 -9.5t99.5 -17t103.5 -26.5l-63 -194l-20 -10q-99 48 -187.5 66t-154.5 18q-83 0 -159 -22.5t-141.5 -63.5t-119 -98.5t-91.5 -127.5t-58.5 -150.5t-20.5 -167.5q0 -106 31 -199.5t91.5 -163.5t151 -111t209.5 -41q40 0 87.5 6
t97.5 18t101 31t99 45v-124z" />
    <glyph glyph-name="eth" unicode="&#xf0;" horiz-adv-x="1303" 
d="M607 1347q-100 60 -220 99l94 156q199 -62 345 -165l314 133l34 -103l-251 -105q72 -63 127 -139.5t92 -162t56 -177.5t19 -187q0 -162 -52 -294t-142 -226t-210.5 -145t-257.5 -51q-116 0 -202 38t-143 101.5t-85 148t-28 177.5q0 82 19.5 157.5t54.5 141t83 120.5
t104.5 97t119 70t127.5 39q28 5 56 6.5t57 -0.5q52 -2 91.5 -15.5t74.5 -35.5l17 7q-15 31 -35.5 64.5t-44.5 65t-51.5 60.5t-55.5 53l-333 -140l-35 103zM960 671q0 29 -1.5 64.5t-4.5 63.5q-33 32 -77.5 57.5t-94.5 37.5t-101 11q-72 -3 -131.5 -35.5t-102.5 -87t-67 -128
t-24 -158.5q0 -68 16.5 -130t49.5 -109t82.5 -75.5t115.5 -28.5q75 0 137.5 35t107.5 102t70 163t25 218z" />
    <glyph glyph-name="Eth" unicode="&#xd0;" horiz-adv-x="1658" 
d="M249 815l74 650h521q178 0 312 -47.5t223 -131t133.5 -196.5t44.5 -245q0 -96 -24 -196t-73 -194t-124 -176.5t-177 -144.5t-231 -98t-287 -36h-485l74 650h-183l19 165h183zM497 815h359l-19 -165h-358l-54 -474h273q149 0 261 52.5t186.5 140.5t111.5 202.5t37 238.5
q0 233 -127.5 356t-373.5 123h-242z" />
    <glyph glyph-name="Dcroat" unicode="&#x110;" horiz-adv-x="1658" 
d="M205 815l74 650h521q178 0 311.5 -47.5t223 -131t134 -196.5t44.5 -245q0 -96 -24 -196t-73 -194t-124 -176.5t-177 -144.5t-231 -98t-287 -36h-485l74 650h-183l19 165h183zM453 815h358l-18 -165h-358l-54 -474h273q149 0 261 52.5t186.5 140.5t111.5 202.5t37 238.5
q0 233 -128 356t-373 123h-242z" />
    <glyph glyph-name="dcroat" unicode="&#x111;" horiz-adv-x="1309" 
d="M528 1371h416l26 231h243l-26 -231h177l-16 -136h-177l-140 -1235h-198l-8 226q-49 -56 -96.5 -101t-96.5 -77.5t-100.5 -50t-108.5 -17.5q-82 0 -145.5 36t-106.5 96t-65.5 139.5t-22.5 166.5q0 96 26 182.5t72 160t108 132.5t134 100.5t151 64t159 22.5q54 0 99.5 -8.5
t75.5 -16.5l20 180h-415zM886 863q-47 26 -96 35t-84 9q-77 0 -143.5 -33t-116 -92.5t-78 -141.5t-28.5 -180q0 -62 12 -115.5t35.5 -94t58.5 -63.5t81 -23q38 0 77.5 16t78 45.5t76.5 70t73 90.5z" />
    <glyph glyph-name="dcaron" unicode="&#x10f;" horiz-adv-x="1498" 
d="M817 226q-49 -56 -96.5 -101t-96.5 -77.5t-100.5 -50t-108.5 -17.5q-82 0 -145.5 36t-106.5 96t-65.5 138.5t-22.5 163.5q0 89 24 173.5t68 158.5t105 135.5t134.5 105.5t157.5 68.5t174 24.5q51 0 87 -7t75 -18l62 547h243l-182 -1602h-198zM878 863q-23 13 -47.5 21.5
t-48.5 13.5t-45.5 7t-39.5 2q-77 0 -143.5 -33.5t-115.5 -92.5t-77.5 -141.5t-28.5 -179.5q0 -62 12 -115.5t35.5 -94t58.5 -63.5t81 -23q38 0 77.5 16t78 45.5t76.5 70t73 90.5zM1288 1167q26 18 52 41t48.5 47.5t39 49t23.5 44.5q-17 19 -49 36.5t-63 23.5q-3 10 -5 23
t-2 25q0 27 11.5 53t32 46.5t49 33t61.5 12.5q55 0 90 -37.5t35 -100.5q0 -47 -21.5 -95t-58 -93t-84 -85t-99.5 -71z" />
    <glyph glyph-name="eogonek" unicode="&#x119;" horiz-adv-x="1114" 
d="M340 -261q0 68 37.5 126t118.5 115q-90 2 -166 33.5t-131 89t-85.5 139t-30.5 185.5q0 94 25 178.5t69.5 157t105 131t131 100t147.5 64t155 22.5q82 0 144.5 -23.5t104.5 -62.5t63.5 -89t21.5 -104q0 -75 -41 -138.5t-119.5 -110.5t-194 -73.5t-263.5 -26.5h-100
q0 -61 18.5 -113.5t55.5 -91.5t93 -61t131 -22q72 0 144.5 22t144.5 65v-114q-45 -40 -95 -69t-102 -48q-44 -24 -81.5 -50.5t-65.5 -55.5t-44 -58.5t-16 -59.5q0 -38 26 -64.5t77 -26.5q16 0 36 3t40 8.5t38 12t30 13.5l-11 -103q-20 -18 -46.5 -33t-56 -26.5t-61 -18
t-61.5 -6.5q-44 0 -78.5 14.5t-58.5 39.5t-36.5 58.5t-12.5 71.5zM663 907q-59 0 -112 -27.5t-95.5 -73.5t-72 -106.5t-42.5 -127.5h99q91 0 161.5 15t119 41.5t74 62.5t25.5 78q0 25 -10 50t-29.5 44.5t-49 31.5t-68.5 12z" />
    <glyph glyph-name="ogonek" unicode="&#x2db;" horiz-adv-x="823" 
d="M517 33q-46 -24 -88 -52t-73.5 -58.5t-50 -62.5t-18.5 -64q0 -35 22.5 -59.5t64.5 -27.5q12 -2 26.5 -1.5t29.5 2.5q29 5 57.5 13t46.5 19l-11 -103q-20 -18 -46.5 -33t-56 -26.5t-61 -18t-61.5 -6.5q-44 0 -78.5 14.5t-58.5 39.5t-36.5 58.5t-12.5 71.5q0 45 16.5 85.5
t51.5 79.5t89 76.5t129 76.5z" />
    <glyph glyph-name="kcommaaccent" unicode="&#x137;" horiz-adv-x="1155" 
d="M288 1602h243l-183 -1602h-243zM774 0l-327 565q139 112 243.5 238t172.5 257h246q-44 -70 -96.5 -137t-108 -128.5t-111 -114.5t-105.5 -95l371 -585h-285zM338 -541q26 18 52 41t48.5 47.5t39 49t23.5 44.5q-17 19 -49 36.5t-63 23.5q-4 10 -5.5 23t-1.5 25
q0 27 11.5 53t32 46.5t49 33t61.5 12.5q55 0 89.5 -37.5t34.5 -100.5q0 -47 -21.5 -95t-57.5 -93t-83.5 -85t-99.5 -71z" />
    <glyph glyph-name="Kcommaaccent" unicode="&#x136;" horiz-adv-x="1512" 
d="M395 0h-248l167 1465h248zM1078 0l-507 740l670 725h258l-681 -682l569 -783h-309zM484 -541q26 18 52 41t48.5 47.5t39 49t23.5 44.5q-17 19 -49 36.5t-63 23.5q-4 10 -5.5 23t-1.5 25q0 27 11.5 53t32 46.5t49 33t61.5 12.5q55 0 89.5 -37.5t34.5 -100.5
q0 -47 -21.5 -95t-57.5 -93t-83.5 -85t-99.5 -71z" />
    <glyph glyph-name="aogonek" unicode="&#x105;" horiz-adv-x="1241" 
d="M1015 0h-77q-36 -22 -67.5 -46.5t-54 -51t-35.5 -53t-13 -53.5q0 -38 26 -64.5t77 -26.5q16 0 36 3t40 8.5t38 12t30 13.5l-11 -103q-20 -18 -46.5 -33t-56 -26.5t-61 -18t-61.5 -6.5q-44 0 -78.5 14.5t-58.5 39.5t-36.5 58.5t-12.5 71.5q0 80 53 147.5t171 136.5l-7 203
q-49 -56 -95.5 -101t-94.5 -77.5t-98.5 -50t-107.5 -17.5q-82 0 -144 36t-103.5 96t-62.5 138t-21 163q0 97 27 184.5t74 161.5t111 133.5t137.5 100.5t154 63.5t160.5 22.5q116 0 240 -50l152 52zM871 863q-46 26 -89.5 35t-75.5 9q-71 0 -137 -32.5t-117 -92.5t-81.5 -144
t-30.5 -187q0 -57 10.5 -109t32 -91.5t55 -63t80.5 -23.5q38 0 76 16t76 45.5t74.5 70t71.5 90.5z" />
    <glyph glyph-name="Aogonek" unicode="&#x104;" horiz-adv-x="1457" 
d="M832 -261q0 40 13.5 76.5t41 71.5t71 69.5t103.5 69.5l-76 352h-588l-165 -378h-222l686 1465h280l352 -1465h-151q-36 -23 -67 -47.5t-54 -50.5t-36 -52.5t-13 -53.5q0 -38 25.5 -64.5t76.5 -26.5q16 0 36.5 3t40.5 8.5t38 12t30 13.5l-12 -103q-20 -18 -46 -33
t-56 -26.5t-61.5 -18t-61.5 -6.5q-44 0 -78 14.5t-58 39.5t-36.5 58.5t-12.5 71.5zM949 548l-112 542l-31 209h-20l-78 -209l-119.5 -270.5l-117.5 -271.5h478z" />
    <glyph glyph-name="ohungarumlaut" unicode="&#x151;" 
d="M520 -20q-110 0 -192 37t-136.5 99.5t-81.5 145t-27 174.5q0 130 50.5 247t137.5 205t202.5 140t245.5 52q111 0 193 -37t136.5 -100t81.5 -146t27 -175q0 -132 -51 -248.5t-138.5 -204t-203 -138.5t-244.5 -51zM578 153q63 0 120.5 32.5t101.5 89t70.5 133.5t26.5 167
q0 66 -15 126t-45 105.5t-74.5 73t-102.5 27.5q-64 0 -121.5 -33t-101.5 -91t-70 -135.5t-26 -165.5q0 -66 15.5 -126t45.5 -105t74 -71.5t102 -26.5zM822 1240l224 362h245l-300 -362h-169zM426 1240l224 362h245l-300 -362h-169z" />
    <glyph glyph-name="hungarumlaut" unicode="&#x2dd;" horiz-adv-x="1224" 
d="M678 1240l224 362h245l-300 -362h-169zM282 1240l224 362h245l-300 -362h-169z" />
    <glyph glyph-name="uhungarumlaut" unicode="&#x171;" horiz-adv-x="1254" 
d="M1028 0h-198l-6 246l-93.5 -101t-96.5 -85t-105 -58.5t-117 -21.5q-73 0 -127 29.5t-88 79t-47.5 114.5t-5.5 136l82 721h243l-80 -698q-5 -40 1.5 -76t22.5 -63t42 -43t61 -16q37 0 77 18.5t80.5 51.5t80.5 77.5t77 96.5l75 652h243zM776 1240l224 362h245l-300 -362
h-169zM380 1240l224 362h245l-300 -362h-169z" />
    <glyph glyph-name="lslash" unicode="&#x142;" horiz-adv-x="589" 
d="M182 592l-154 -99l19 167l154 99l96 843h243l-78 -679l154 99l-19 -167l-154 -99l-86 -756h-243z" />
    <glyph glyph-name="Lslash" unicode="&#x141;" horiz-adv-x="1126" 
d="M149 0l65 571l-190 -123l19 167l190 123l83 727h249l-64 -560l322 208l-19 -167l-322 -208l-64 -562h587l-53 -176h-803z" />
    <glyph glyph-name="lcaron" unicode="&#x13e;" horiz-adv-x="809" 
d="M274 1602h243l-183 -1602h-243zM599 1167q26 18 52 41t48.5 47.5t39 49t23.5 44.5q-17 19 -49 36.5t-63 23.5q-3 10 -5 23t-2 25q0 27 11.5 53t32 46.5t49 33t61.5 12.5q55 0 90 -37.5t35 -100.5q0 -47 -21.5 -95t-58 -93t-84 -85t-99.5 -71z" />
    <glyph glyph-name="tcaron" unicode="&#x165;" horiz-adv-x="972" 
d="M702 1211q24 15 48 36t45 43t36.5 43.5t22.5 39.5q-17 16 -47.5 32.5t-59.5 22.5q-7 19 -7 44q0 23 11 46.5t30 42t45.5 30t57.5 11.5q53 0 86 -35t33 -91q0 -44 -21 -88.5t-55.5 -85t-79 -76t-91.5 -61.5zM296 887h-213l31 114q81 20 131.5 45t86 61.5t65 89l68.5 127.5
h116l-30 -264h381l-62 -173h-331l-61 -532q-11 -99 25.5 -145t121.5 -46q49 0 93 14.5t98 43.5v-116q-77 -62 -166.5 -94t-170.5 -32q-74 0 -124.5 26.5t-80.5 73.5t-40 111t-1 138z" />
    <glyph glyph-name="uni0162" unicode="&#x162;" horiz-adv-x="1324" 
d="M719 0h-18q11 -17 19.5 -42.5t8.5 -60.5q0 -70 -30.5 -129t-87 -101.5t-136 -66t-177.5 -23.5l16 144q115 0 180.5 45.5t65.5 139.5q0 29 -7.5 51.5t-18.5 42.5h-63l147 1289h-476l53 176h1182l-53 -176h-458z" />
    <glyph glyph-name="uni0163" unicode="&#x163;" horiz-adv-x="972" 
d="M296 887h-213l31 114q81 20 131.5 45t86 61.5t65 89l68.5 127.5h116l-30 -264h381l-62 -173h-331l-61 -532q-11 -99 25.5 -145t121.5 -46q49 0 93 14.5t98 43.5v-116q-42 -35 -89.5 -59.5t-95.5 -40.5q15 -17 25 -44.5t10 -65.5q0 -70 -30.5 -128.5t-87 -101t-136 -66
t-177.5 -23.5l17 144q115 0 179.5 45.5t64.5 139.5q0 41 -15 74q-75 1 -126.5 28t-81.5 74t-39.5 110t-0.5 137z" />
    <glyph glyph-name="uogonek" unicode="&#x173;" horiz-adv-x="1254" 
d="M1028 0h-79q-37 -22 -68 -46.5t-54 -51t-36 -53t-13 -53.5q0 -38 26 -64.5t77 -26.5q16 0 36.5 3t40.5 8.5t38 12t30 13.5l-12 -103q-20 -18 -46.5 -33t-56 -26.5t-61 -18t-61.5 -6.5q-44 0 -78.5 14.5t-58.5 39.5t-36.5 58.5t-12.5 71.5q0 40 13 77t41 71.5t71 68
t102 68.5l-6 222l-93.5 -101t-96.5 -85t-105 -58.5t-117 -21.5q-73 0 -127 29.5t-88 79t-47.5 114.5t-5.5 136l82 721h243l-80 -698q-5 -40 1.5 -76t22.5 -63t42 -43t61 -16q37 0 77 18.5t80.5 51.5t80.5 77.5t77 96.5l75 652h243z" />
    <glyph glyph-name="Uogonek" unicode="&#x172;" horiz-adv-x="1541" 
d="M552 1465l-105 -917q-11 -101 12 -175t69 -122t108 -71.5t128 -23.5q68 0 131 24t114 71t85.5 118t45.5 166l106 930h213l-105 -916q-9 -81 -40.5 -163t-85.5 -154t-130.5 -129t-175.5 -89q-41 -23 -77 -49.5t-62.5 -54t-41.5 -56.5t-15 -58q0 -38 25.5 -64.5t76.5 -26.5
q16 0 36 3t40 8.5t38 12t31 13.5l-12 -103q-20 -18 -46.5 -33t-56 -26.5t-61 -18t-61.5 -6.5q-44 0 -78.5 14.5t-58 39.5t-36 58.5t-12.5 71.5q0 68 37.5 125.5t118.5 116.5q-127 -2 -228 35.5t-168.5 111t-97 180.5t-14.5 244l105 913h248z" />
    <glyph glyph-name="iogonek" unicode="&#x12f;" horiz-adv-x="578" 
d="M255 0q-36 -23 -67 -47.5t-54 -50.5t-36 -52.5t-13 -53.5q0 -38 26 -64.5t77 -26.5q16 0 36 3t40 8.5t38 12t30 13.5l-11 -103q-21 -18 -47.5 -33t-56 -26.5t-61 -18t-61.5 -6.5q-44 0 -78 14.5t-58 39.5t-36.5 58.5t-12.5 71.5q0 75 47 139t151 129l120 1053h242
l-121 -1060h-94zM372 1269q-59 0 -94.5 35t-35.5 88q0 32 13.5 60.5t36.5 49.5t53.5 33t64.5 12q28 0 52 -9.5t40.5 -26.5t26 -40t9.5 -49q0 -33 -13.5 -61t-36 -48.5t-53 -32t-63.5 -11.5z" />
    <glyph glyph-name="Iogonek" unicode="&#x12e;" horiz-adv-x="660" 
d="M395 0h-101q-36 -23 -67.5 -47.5t-54 -50.5t-35.5 -52.5t-13 -53.5q0 -38 25.5 -64.5t76.5 -26.5q16 0 36.5 3t40.5 8.5t38 12t30 13.5l-11 -103q-21 -18 -47.5 -33t-56 -26.5t-61 -18t-61.5 -6.5q-44 0 -78.5 14.5t-58.5 39.5t-36.5 58.5t-12.5 71.5q0 75 47.5 139.5
t151.5 129.5l167 1457h248z" />
    <glyph glyph-name="Eogonek" unicode="&#x118;" 
d="M951 0q-36 -23 -67.5 -47.5t-54.5 -50.5t-36 -52.5t-13 -53.5q0 -38 25.5 -64.5t76.5 -26.5q16 0 36.5 3t40.5 8.5t38 12t30 13.5l-12 -103q-20 -18 -46 -33t-55.5 -26.5t-61 -18t-61.5 -6.5q-44 0 -78.5 14.5t-58.5 39.5t-36.5 58.5t-12.5 71.5q0 73 44 135.5t142 125.5
h-644l167 1465h891l-53 -176h-610l-50 -442h539l-51 -171h-508l-57 -500h657l-53 -176h-68z" />
    <glyph glyph-name="OE" unicode="&#x152;" horiz-adv-x="2261" 
d="M1229 0q-40 0 -94.5 -3t-112 -7t-112.5 -7t-96 -3q-144 0 -265.5 45t-210 129t-138 204t-49.5 270q0 123 32.5 235t91.5 207t141 172t180.5 131t211 83t231.5 29q42 0 89 -3t94 -7t91.5 -7t80.5 -3h833l-52 -176h-610l-51 -442h539l-50 -171h-508l-58 -500h657l-53 -176
h-812zM901 156q21 0 53.5 1t71.5 3.5t81 5.5t82 8l127 1115q-35 5 -77 8.5t-83 6t-77 4t-59 1.5q-104 0 -189.5 -25.5t-152.5 -71t-116.5 -107t-82 -133t-48.5 -150.5t-16 -158q0 -102 27.5 -194t86 -162t151 -111t221.5 -41z" />
    <glyph glyph-name="AE" unicode="&#xc6;" horiz-adv-x="1935" 
d="M942 378h-538l-231 -378h-227l927 1465h981l-54 -176h-604l-6 -442h545l-51 -171h-497l-6 -500h588l-53 -176h-778zM942 548l10 542l17 209h-20l-114 -209l-22.5 -35.5l-22.5 -35.5l-285 -471h437z" />
    <glyph glyph-name="summation" unicode="&#x2211;" horiz-adv-x="1504" 
d="M449 21h813l-52 -176h-1130l8 68l675 742l-506 742l8 68h1162l-53 -176h-780l411 -603l-7 -62z" />
    <glyph glyph-name="product" unicode="&#x220f;" horiz-adv-x="1808" 
d="M295 1465h1433l-20 -176h-238l-165 -1449h-248l164 1449h-459l-165 -1449h-249l165 1449h-238z" />
    <glyph glyph-name="lozenge" unicode="&#x25ca;" horiz-adv-x="1279" 
d="M725 1273l-362 -541l239 -540l362 540zM667 1465h161l325 -733l-492 -732h-161l-326 732z" />
    <glyph glyph-name="radical" unicode="&#x221a;" horiz-adv-x="1484" 
d="M781 -208h-193l-222 918l-199 -38l18 154l346 79l120 -544l56 -324h20l73.5 230l76.5 230l190.5 552.5l191.5 552.5h198z" />
    <glyph glyph-name="lacute" unicode="&#x13a;" horiz-adv-x="572" 
d="M304 1697l233 273h267l-308 -273h-192zM288 1602h243l-183 -1602h-243z" />
    <glyph glyph-name="scaron" unicode="&#x161;" horiz-adv-x="980" 
d="M116 239l20 12q72 -46 150.5 -72t149.5 -26q44 0 79.5 10.5t60.5 28t38.5 41t13.5 49.5q0 32 -20 56.5t-53 45t-75 39l-86 39t-86 45t-75 56t-53 73t-20 95.5q0 67 32.5 130t93 112t146.5 78t192 29q63 0 138 -11.5t138 -36.5l-64 -181l-23 -13q-55 34 -120 51.5
t-122 17.5q-44 0 -78.5 -10.5t-58.5 -28t-36.5 -40.5t-12.5 -49q0 -45 35 -75.5t88 -56.5t114 -51.5t114 -60.5t88 -84.5t35 -121.5q0 -68 -33 -130.5t-94 -111.5t-147 -78t-191 -29q-85 0 -174 20t-168 57zM990 1602l-270 -362h-235l-187 362h188l134 -229l186 229h184z
" />
    <glyph glyph-name="cedilla" unicode="&#xb8;" horiz-adv-x="762" 
d="M462 6q12 -17 21.5 -44.5t9.5 -65.5q0 -70 -30.5 -128.5t-87 -101t-136 -66t-177.5 -23.5l17 144q115 0 179.5 45.5t64.5 139.5q0 31 -7.5 54.5t-20.5 45.5h167z" />
    <glyph glyph-name="Lcaron" unicode="&#x13d;" horiz-adv-x="1124" 
d="M147 0l167 1465h248l-147 -1289h587l-53 -176h-802zM736 1167q26 18 52 41t48.5 47.5t39 49t23.5 44.5q-17 19 -49 36.5t-63 23.5q-3 10 -5 23t-2 25q0 27 11.5 53t32 46.5t49 33t61.5 12.5q55 0 90 -37.5t35 -100.5q0 -47 -21.5 -95t-58 -93t-84 -85t-99.5 -71z" />
    <glyph glyph-name="partialdiff" unicode="&#x2202;" horiz-adv-x="1430" 
d="M367 1325q40 33 88 62t103.5 50.5t117 34.5t129.5 13q102 0 187.5 -36.5t146.5 -109.5t95 -182.5t34 -254.5q0 -199 -54 -368t-148.5 -292t-222 -192.5t-275.5 -69.5q-94 0 -167.5 31.5t-124 85.5t-77 126t-26.5 154q0 75 20.5 144t57 129t85.5 108.5t107 83t122 53.5
t129 19q57 0 104 -14.5t84 -38.5t63.5 -54.5t41.5 -62.5h20q1 7 4 16.5t5.5 26.5t4.5 43t2 67q0 98 -22 174t-63.5 128t-100 79t-131.5 27q-47 0 -95 -8.5t-94 -23.5t-88 -35.5t-78 -43.5zM613 157q60 0 115.5 31.5t102 86.5t81 129t52.5 159q-8 34 -29 65.5t-52 56t-71 39
t-86 14.5q-65 0 -120.5 -27.5t-96.5 -74t-64 -108.5t-23 -132q0 -50 13 -94t38 -76t60 -50.5t80 -18.5z" />
    <glyph glyph-name="integral" unicode="&#x222b;" horiz-adv-x="862" 
d="M889 1437q-17 5 -38 8.5t-41 3.5q-40 0 -69.5 -18t-50.5 -48t-35.5 -69t-23.5 -81.5t-15 -85.5t-10 -80l-107 -938q-9 -78 -23 -159.5t-37 -157.5t-56.5 -143t-81.5 -117t-112 -79t-147 -29q-20 0 -40.5 1.5t-39.5 4.5t-35 6.5t-25 7.5l52 169q16 -6 40 -10t45 -4
q41 0 70.5 18t51 48.5t35.5 70t23 81.5t14.5 83.5t9.5 77.5l120 1058q13 115 44 217.5t85 180t134 123t191 45.5q38 0 71 -5t50 -14z" />
    <glyph glyph-name="estimated" unicode="&#x212e;" horiz-adv-x="2116" 
d="M548 730q-12 0 -13 -10l-48 -422q-2 -15 3.5 -26t14.5 -22q42 -52 96.5 -94t118.5 -72t136.5 -46t151.5 -16q82 0 162 18t154 51t140.5 80t122.5 105h128q-66 -67 -147.5 -122t-173 -94.5t-191 -61.5t-202.5 -22q-168 0 -310.5 55.5t-246.5 151.5t-163 225t-59 276
q0 114 35.5 220.5t99.5 200t152.5 170.5t195 132.5t226 86t246.5 30.5q117 0 223 -28t195 -78.5t158.5 -121.5t115.5 -157.5t65.5 -185.5t7.5 -205l-2 -18h-1392zM1685 1206q2 17 -3 29.5t-14 20.5q-45 50 -100 90.5t-118 69.5t-132.5 44.5t-144.5 15.5q-79 0 -154.5 -15.5
t-146 -44.5t-134 -70.5t-118.5 -93.5q-12 -11 -20 -23.5t-10 -32.5l-47 -412q-2 -12 10 -12h1070q12 0 14 12z" />
    <glyph glyph-name="macron" unicode="&#xaf;" horiz-adv-x="965" 
d="M300 1405h566l-19 -165h-565z" />
    <glyph glyph-name="endash" unicode="&#x2013;" horiz-adv-x="1037" 
d="M1004 674l-18 -165h-937l18 165h937z" />
    <glyph glyph-name="uni00A0" unicode="&#xa0;" horiz-adv-x="452" 
 />
    <glyph glyph-name="pi" unicode="&#x3c0;" horiz-adv-x="1651" 
d="M1064 887h-394l-101 -887h-242l101 887h-215l20 173h1308l-20 -173h-215l-100 -887h-243z" />
    <glyph glyph-name="logicalnot" unicode="&#xac;" horiz-adv-x="1446" 
d="M1276 780l-64 -555h-167l45 390h-929l18 165h1097z" />
    <glyph glyph-name="paragraph" unicode="&#xb6;" horiz-adv-x="1423" 
d="M663 537q-103 0 -189 28t-148.5 81.5t-97 130t-34.5 174.5q0 111 41.5 205.5t123 163t203.5 107t284 38.5h470l-228 -2001h-168l207 1821h-211l-207 -1821h-168z" />
    <glyph glyph-name="plus" unicode="+" horiz-adv-x="1299" 
d="M583 674l50 428h167l-49 -428h416l-19 -165h-416l-48 -428h-168l49 428h-416l18 165h416z" />
    <glyph glyph-name="numbersign" unicode="#" horiz-adv-x="1784" 
d="M411 348h-284l48 157h283l137 454h-284l48 158h283l104 348h167l-105 -348h445l105 348h166l-104 -348h284l-47 -158h-284l-137 -454h285l-48 -157h-284l-103 -348h-167l104 348h-445l-104 -348h-166zM625 505h445l137 454h-445z" />
    <glyph glyph-name="bracketright" unicode="]" horiz-adv-x="914" 
d="M566 -358h-541l18 165h372l186 1630h-372l19 165h541z" />
    <glyph glyph-name="backslash" unicode="\" horiz-adv-x="927" 
d="M738 -308h-183l-323 1910h183z" />
    <glyph glyph-name="uni2113" unicode="&#x2113;" horiz-adv-x="1223" 
d="M545 630q64 55 127.5 120.5t114 137t82 146t31.5 148.5q0 66 -26.5 97t-63.5 31q-29 0 -57 -16t-52.5 -48t-44 -80t-31.5 -111zM895 129q-30 -27 -65.5 -54t-78 -48t-93 -34.5t-108.5 -13.5q-79 0 -131.5 25.5t-82.5 70.5t-40 107.5t-4 136.5l-133 -85l-49 110l201 131
l101 550q22 123 73 210.5t115.5 143t136 81t135.5 25.5q53 0 96 -17t73 -48.5t46.5 -76.5t16.5 -101q0 -75 -27 -150.5t-73 -148.5t-106 -142.5t-125.5 -133t-132.5 -119.5l-126 -102q-15 -83 -11 -139t23 -90t52 -49t76 -15q70 0 133.5 29t121.5 73z" />
    <glyph glyph-name="uni2206" unicode="&#x2206;" horiz-adv-x="1634" 
d="M111 68l687 1397h254l368 -1397l-7 -68h-1310zM898 1254h-19l-80 -191l-422 -887h778l-220 887z" />
    <glyph glyph-name="uni0218" unicode="&#x218;" horiz-adv-x="1238" 
d="M547 156q65 0 121.5 16t98.5 45.5t66.5 70.5t24.5 91q0 53 -27 93.5t-70.5 74t-100 62.5l-115 60t-114.5 66.5t-99.5 81t-70.5 103.5t-27 135q0 94 41.5 173t116 136t176 89t221.5 32q33 0 75.5 -3t91.5 -9.5t101 -17t105 -26.5l-62 -194l-20 -10q-50 24 -98.5 40
t-92.5 26t-82 14t-67 4q-59 0 -108 -14.5t-84 -41t-54.5 -63.5t-19.5 -83q0 -55 27 -97t71 -77.5t100.5 -66l115.5 -62t115.5 -66t100.5 -78t71 -98.5t27 -127q0 -91 -44.5 -173.5t-123.5 -145t-188 -99.5t-238 -37q-104 0 -214 24.5t-208 71.5l62 190l21 10
q100 -58 193.5 -89t184.5 -31zM330 -541q26 18 52 41t48.5 47.5t39 49t23.5 44.5q-17 19 -49 36.5t-63 23.5q-4 10 -5.5 23t-1.5 25q0 27 11.5 53t32 46.5t49 33t61.5 12.5q55 0 89.5 -37.5t34.5 -100.5q0 -47 -21.5 -95t-57.5 -93t-83.5 -85t-99.5 -71z" />
    <glyph glyph-name="uni0219" unicode="&#x219;" horiz-adv-x="980" 
d="M116 239l20 12q72 -46 150.5 -72t149.5 -26q44 0 79.5 10.5t60.5 28t38.5 41t13.5 49.5q0 32 -20 56.5t-53 45t-75 39l-86 39t-86 45t-75 56t-53 73t-20 95.5q0 67 32.5 130t93 112t146.5 78t192 29q63 0 138 -11.5t138 -36.5l-64 -181l-23 -13q-55 34 -120 51.5
t-122 17.5q-44 0 -78.5 -10.5t-58.5 -28t-36.5 -40.5t-12.5 -49q0 -45 35 -75.5t88 -56.5t114 -51.5t114 -60.5t88 -84.5t35 -121.5q0 -68 -33 -130.5t-94 -111.5t-147 -78t-191 -29q-85 0 -174 20t-168 57zM208 -541q26 18 52 41t48.5 47.5t39 49t23.5 44.5
q-17 19 -49 36.5t-63 23.5q-4 10 -5.5 23t-1.5 25q0 27 11.5 53t32 46.5t49 33t61.5 12.5q55 0 89.5 -37.5t34.5 -100.5q0 -47 -21.5 -95t-57.5 -93t-83.5 -85t-99.5 -71z" />
    <glyph glyph-name="uni015E" unicode="&#x15e;" horiz-adv-x="1238" 
d="M547 156q65 0 121.5 16t98.5 45.5t66.5 70.5t24.5 91q0 53 -27 93.5t-70.5 74t-100 62.5l-115 60t-114.5 66.5t-99.5 81t-70.5 103.5t-27 135q0 94 41.5 173t116 136t176 89t221.5 32q33 0 75.5 -3t91.5 -9.5t101 -17t105 -26.5l-62 -194l-20 -10q-50 24 -98.5 40
t-92.5 26t-82 14t-67 4q-59 0 -108 -14.5t-84 -41t-54.5 -63.5t-19.5 -83q0 -55 27 -97t71 -77.5t100.5 -66l115.5 -62t115.5 -66t100.5 -78t71 -98.5t27 -127q0 -75 -30 -144t-84.5 -126t-131.5 -100t-170 -65q11 -17 19.5 -42.5t8.5 -61.5q0 -70 -30.5 -128.5t-87 -101
t-136 -66t-177.5 -23.5l17 144q115 0 179.5 45.5t64.5 139.5q0 42 -15 75q-12 0 -24.5 -0.5t-25.5 0.5q-100 2 -201 27t-192 68l62 190l21 10q100 -58 193.5 -89t184.5 -31z" />
    <glyph glyph-name="uni015F" unicode="&#x15f;" horiz-adv-x="980" 
d="M116 239l20 12q72 -46 150.5 -72t149.5 -26q44 0 79.5 10.5t60.5 28t38.5 41t13.5 49.5q0 32 -20 56.5t-53 45t-75 39l-86 39t-86 45t-75 56t-53 73t-20 95.5q0 67 32.5 130t93 112t146.5 78t192 29q63 0 138 -11.5t138 -36.5l-64 -181l-23 -13q-55 34 -120 51.5
t-122 17.5q-44 0 -78.5 -10.5t-58.5 -28t-36.5 -40.5t-12.5 -49q0 -45 35 -75.5t88 -56.5t114 -51.5t114 -60.5t88 -84.5t35 -121.5q0 -53 -20.5 -103.5t-59 -94t-94 -77t-124.5 -52.5q11 -17 19.5 -43.5t8.5 -62.5q0 -70 -30.5 -128.5t-86.5 -101t-135.5 -66t-177.5 -23.5
l16 144q115 0 180 45.5t65 139.5q0 22 -4 39.5t-12 34.5q-83 0 -175 18.5t-177 58.5z" />
    <glyph glyph-name="asciicircum" unicode="^" horiz-adv-x="1138" 
d="M764 1465l275 -800h-182l-204 596l-339 -596h-182l457 800h175z" />
    <glyph glyph-name="asterisk" unicode="*" horiz-adv-x="1102" 
d="M519 1039l-7 16l-346 -41l37 163l320 -35l10 15l-185 287l171 64l101 -308h20l166 308l160 -62l-253 -290l7 -16l347 39l-38 -164l-320 37l-11 -16l182 -291l-171 -64l-97 313h-20l-162 -310l-162 60z" />
    <glyph glyph-name="uni20BA" unicode="&#x20ba;" horiz-adv-x="1491" 
d="M703 682l-58 -506q100 0 183.5 36.5t145.5 100t101 149.5t50 184h193q-10 -86 -39 -167t-74 -153t-106.5 -132t-135.5 -103t-161 -67t-184 -24h-242l66 578l-260 -103l19 165l923 368l-19 -165zM498 1067l45 398h249l-34 -294l402 160l-18 -165l-923 -368l19 165z" />
    <glyph glyph-name="uni20BD" unicode="&#x20bd;" horiz-adv-x="1568" 
d="M213 732h209l83 733h442q114 0 207 -26.5t159 -76t102 -120.5t36 -160q0 -107 -47 -199.5t-129 -160.5t-193.5 -107t-240.5 -39h-646zM671 732h192q76 0 138 22.5t106 64t68 99.5t24 130q0 115 -76.5 178t-228.5 63h-160zM176 424h957l-17 -155h-498l-31 -269h-249
l31 269h-210z" />
    <glyph glyph-name="uni00AD" unicode="&#xad;" horiz-adv-x="987" 
d="M854 674l-18 -165h-687l18 165h687z" />
    <glyph glyph-name="onehalf" unicode="&#xbd;" horiz-adv-x="2089" 
d="M1349 1465h192l-920 -1465h-191zM352 514l83 735h-244l12 108q127 0 212 28t141 80h120l-108 -951h-216zM1213 57q131 116 223 209t149.5 168.5t84 137.5t26.5 116q0 36 -12.5 61t-33.5 41t-49 23t-59 7q-25 0 -51.5 -4t-52.5 -11t-50 -15.5t-43 -18.5l12 105
q30 21 67 38.5t77 30t82 19.5t83 7q61 0 110 -16.5t82.5 -46t51.5 -70.5t18 -91q0 -64 -28.5 -131.5t-85 -142t-141.5 -156.5t-198 -175h427l-44 -142h-652z" />
    <glyph glyph-name="threequarters" unicode="&#xbe;" horiz-adv-x="2126" 
d="M1421 1465h192l-920 -1465h-191zM1174 341l427 610h282l-63 -552h152l-44 -139h-124l-30 -260h-210l30 260h-430zM1609 399l33 281l22 146h-15l-81 -135l-102.5 -145.5l-104.5 -146.5h248zM822 1308q0 -38 -17.5 -71t-48.5 -62.5t-74 -56t-94 -50.5q-1 -3 -1.5 -5.5
t-0.5 -5.5q97 -20 148.5 -77t51.5 -133q0 -36 -12.5 -74.5t-42 -75.5t-78 -70.5t-119.5 -58.5t-167.5 -39.5t-221.5 -14.5l15 140q117 0 193.5 14.5t122 39t64 56t18.5 65.5t-18 59.5t-49.5 41.5t-74.5 22.5t-92 3.5l13 110q33 9 76.5 22.5t82.5 34t66 49.5t27 70
q0 25 -12 42.5t-32 28.5t-45.5 16t-53.5 5q-52 0 -106 -14.5t-96 -37.5l11 104q63 45 145.5 72t169.5 27q61 0 108 -14.5t79 -38.5t48.5 -56t16.5 -68z" />
    <glyph glyph-name="fraction" unicode="&#x2044;" horiz-adv-x="985" 
d="M883 1465h187l-919 -1465h-188z" />
    <glyph glyph-name="emdash" unicode="&#x2014;" horiz-adv-x="2107" 
d="M2074 674l-18 -165h-2007l18 165h2007z" />
    <glyph glyph-name="quotesinglbase" unicode="&#x201a;" horiz-adv-x="633" 
d="M30 -333q40 39 76 81.5t66 85t52 84t34 79.5q-11 12 -27 24.5t-34.5 23t-38.5 19t-39 12.5q-4 11 -5.5 27t-1.5 29q0 34 14 68t39 60t59.5 42.5t75.5 16.5q28 0 55.5 -10.5t48.5 -32t34 -55.5t13 -81q0 -52 -18.5 -113t-60 -128t-107.5 -139t-161 -146z" />
    <glyph glyph-name="quotedblright" unicode="&#x201d;" horiz-adv-x="1113" 
d="M178 963q40 39 76 81t66 85t52 84.5t34 79.5q-11 12 -27 24t-35 23t-39 19t-39 13q-4 11 -5.5 26.5t-1.5 29.5q0 34 14 67.5t39.5 59.5t60 42.5t75.5 16.5q28 0 55.5 -10t48.5 -32t34 -55.5t13 -80.5q0 -52 -18.5 -113t-60 -128.5t-107.5 -139.5t-162 -145zM658 963
q40 39 76 81t66 85t52 84.5t34 79.5q-11 12 -27 24t-35 23t-39 19t-39 13q-4 11 -5.5 26.5t-1.5 29.5q0 34 14 67.5t39 59.5t59.5 42.5t75.5 16.5q29 0 56.5 -10t48.5 -32t34 -55.5t13 -80.5q0 -52 -18.5 -113t-60 -128.5t-107.5 -139.5t-162 -145z" />
    <glyph glyph-name="minus" unicode="&#x2212;" horiz-adv-x="1144" 
d="M1012 674l-19 -165h-844l18 165h845z" />
    <glyph glyph-name="uni2215" unicode="&#x2215;" horiz-adv-x="985" 
d="M883 1465h187l-919 -1465h-188z" />
    <glyph glyph-name="uni2219" unicode="&#x2219;" horiz-adv-x="656" 
d="M311 385q-32 0 -59.5 12t-47.5 33t-31 48.5t-11 58.5q0 38 15.5 72t42 59.5t60.5 40.5t72 15q33 0 60 -12t47 -33t31 -49t11 -60q0 -38 -15.5 -71.5t-42 -58.5t-61 -40t-71.5 -15z" />
    <glyph glyph-name="f_i" unicode="&#xfb01;" horiz-adv-x="1396" 
d="M463 209q-10 -89 -28 -191t-41 -203t-50.5 -192.5t-56.5 -158.5h-152l161 1423h-213l32 122l201 51l6 46q12 108 62.5 202t131.5 163.5t190 110t238 40.5q63 0 116.5 -9.5t97.5 -24.5t78 -33t58 -35l-88 -169l-21 -10q-24 19 -51 38t-60.5 34.5t-75 25.5t-92.5 10
q-78 0 -138 -23t-102 -63.5t-66.5 -96t-31.5 -120.5l-10 -86h309l-62 -173h-266zM1047 1060h243l-121 -1060h-242z" />
    <glyph glyph-name="f_l" unicode="&#xfb02;" horiz-adv-x="1453" 
d="M1169 1602h243l-182 -1602h-243zM463 209q-10 -89 -28 -191t-41 -203t-50.5 -192.5t-56.5 -158.5h-152l161 1423h-213l32 122l201 51l6 46q12 107 53.5 201t109 164t158.5 110.5t202 40.5q45 0 91 -7t89 -22l-60 -172l-21 -10q-29 17 -62 27.5t-71 10.5q-56 0 -98 -23.5
t-72 -64t-48 -96t-25 -119.5l-10 -86h352l-62 -173h-309z" />
    <glyph glyph-name="mu" unicode="&#x3bc;" horiz-adv-x="1271" 
d="M234 1060h242l-76 -669q-6 -50 3 -92t31 -72t55 -46.5t75 -16.5q36 0 71.5 12t70 31.5t66.5 45t61 53.5l86 754h242l-121 -1060h-199l-15 179q-40 -36 -83.5 -71.5t-88.5 -64t-92 -46t-94 -17.5q-36 0 -64.5 9.5t-46.5 23.5l-63 -549h-242z" />
    <glyph glyph-name="Omega" unicode="&#x3a9;" horiz-adv-x="1983" 
d="M1022 0l7 68q107 70 194.5 156t149.5 183t95.5 201t33.5 210q0 103 -30 192.5t-85.5 156t-135 104.5t-178.5 38q-115 0 -215 -47.5t-174 -130t-116.5 -195t-42.5 -242.5q0 -97 24.5 -190.5t68 -176t103.5 -149.5t130 -110l-7 -68h-708l53 176h303l3 20q-48 42 -88 97
t-69 120.5t-45 140t-16 154.5q0 112 29.5 213t83.5 187t130 156t169.5 119t201 75.5t225.5 26.5q149 0 268 -44.5t202 -123.5t127.5 -186.5t44.5 -233.5q0 -116 -35 -219t-90 -191.5t-123 -161.5t-134 -129l-2 -20h350l-52 -176h-650z" />
    <glyph glyph-name="grave.cap" horiz-adv-x="867" 
d="M602 1602l-240 334h263l165 -334h-188z" />
    <glyph glyph-name="dieresis.cap" horiz-adv-x="1103" 
d="M337 1721q0 30 12.5 56.5t33.5 46.5t48.5 32t57.5 12q27 0 49 -9.5t38.5 -25.5t25.5 -38.5t9 -47.5q0 -29 -12 -55.5t-33 -46.5t-49 -31.5t-59 -11.5q-26 0 -48.5 9.5t-38.5 25.5t-25 37.5t-9 46.5zM768 1721q0 30 12.5 56.5t33.5 46.5t48.5 32t58.5 12q27 0 49 -9.5
t38 -26t25 -38.5t9 -47q0 -29 -12 -55.5t-33 -46.5t-48.5 -31.5t-58.5 -11.5q-26 0 -48.5 9.5t-39 25.5t-25.5 37.5t-9 46.5z" />
    <glyph glyph-name="macron.cap" horiz-adv-x="965" 
d="M342 1767h566l-19 -165h-565z" />
    <glyph glyph-name="acute.cap" horiz-adv-x="866" 
d="M324 1602l241 334h262l-316 -334h-187z" />
    <glyph glyph-name="circumflex.cap" horiz-adv-x="1097" 
d="M324 1602l268 334h236l192 -334h-190l-137 209l-184 -209h-185z" />
    <glyph glyph-name="caron.cap" horiz-adv-x="1092" 
d="M1054 1936l-267 -334h-235l-190 334h188l137 -201l183 201h184z" />
    <glyph glyph-name="breve.cap" horiz-adv-x="1053" 
d="M668 1757q37 0 68.5 13t55.5 36.5t39 56.5t20 73h164q-9 -76 -39 -137.5t-78.5 -105t-113.5 -67.5t-144 -24t-135.5 24t-91 67.5t-47.5 105.5t-4 137h164q-10 -81 28.5 -130t113.5 -49z" />
    <glyph glyph-name="dotaccent.cap" horiz-adv-x="706" 
d="M473 1593q-30 0 -54 9.5t-41 26t-26.5 39t-9.5 48.5q0 32 13.5 60.5t36.5 49.5t53.5 33.5t64.5 12.5q29 0 52.5 -10t40.5 -27t26 -40t9 -49q0 -33 -13.5 -61t-36 -48.5t-52.5 -32t-63 -11.5z" />
    <glyph glyph-name="ring.cap" horiz-adv-x="953" 
d="M490 1703q0 -26 8.5 -47.5t23.5 -36.5t34.5 -23.5t41.5 -8.5q25 0 50 10.5t44.5 29t31.5 45t12 58.5q0 25 -8.5 46.5t-23.5 36.5t-35 23.5t-42 8.5q-26 0 -50.5 -10.5t-43.5 -29.5t-31 -45t-12 -57zM335 1690q0 59 26 110t70 88t101 58t120 21q55 0 99.5 -17.5
t75.5 -47.5t47.5 -71t16.5 -89q0 -59 -26 -109.5t-70 -88t-101.5 -58.5t-119.5 -21q-55 0 -99.5 17.5t-75.5 47.5t-47.5 71t-16.5 89z" />
    <glyph glyph-name="tilde.cap" horiz-adv-x="1191" 
d="M857 1602q-41 0 -71 11.5t-52.5 28t-39.5 36.5t-33 36.5t-33 28t-39 11.5q-19 0 -37 -9.5t-33 -28.5t-25.5 -47.5t-14.5 -66.5h-155q10 87 40.5 145.5t72 94t89 51t89.5 15.5q40 0 70 -11.5t53 -28t40.5 -36.5t33.5 -36.5t32.5 -28t36.5 -11.5q42 0 73.5 38.5t39.5 113.5
h155q-10 -87 -40.5 -145.5t-72 -94t-89 -51t-90.5 -15.5z" />
    <glyph glyph-name="hungarumlaut.cap" horiz-adv-x="1209" 
d="M720 1602l206 334h245l-282 -334h-169zM324 1602l206 334h245l-282 -334h-169z" />
    <glyph glyph-name="Agrave" unicode="&#xc0;" horiz-adv-x="1457" 
d="M985 378h-588l-165 -378h-222l686 1465h280l352 -1465h-261zM949 548l-112 542l-31 209h-20l-78 -209l-119.5 -270.5l-117.5 -271.5h478zM793 1602l-240 334h263l165 -334h-188z" />
    <glyph glyph-name="Aacute" unicode="&#xc1;" horiz-adv-x="1457" 
d="M985 378h-588l-165 -378h-222l686 1465h280l352 -1465h-261zM949 548l-112 542l-31 209h-20l-78 -209l-119.5 -270.5l-117.5 -271.5h478zM709 1602l241 334h262l-316 -334h-187z" />
    <glyph glyph-name="Acircumflex" unicode="&#xc2;" horiz-adv-x="1457" 
d="M985 378h-588l-165 -378h-222l686 1465h280l352 -1465h-261zM949 548l-112 542l-31 209h-20l-78 -209l-119.5 -270.5l-117.5 -271.5h478zM494 1602l268 334h236l192 -334h-190l-137 209l-184 -209h-185z" />
    <glyph glyph-name="Atilde" unicode="&#xc3;" horiz-adv-x="1457" 
d="M985 378h-588l-165 -378h-222l686 1465h280l352 -1465h-261zM949 548l-112 542l-31 209h-20l-78 -209l-119.5 -270.5l-117.5 -271.5h478zM979 1602q-41 0 -71 11.5t-52.5 28t-39.5 36.5t-33 36.5t-33 28t-39 11.5q-19 0 -37 -9.5t-33 -28.5t-25.5 -47.5t-14.5 -66.5h-155
q10 87 40.5 145.5t72 94t89 51t89.5 15.5q40 0 70 -11.5t53 -28t40.5 -36.5t33.5 -36.5t32.5 -28t36.5 -11.5q42 0 73.5 38.5t39.5 113.5h155q-10 -87 -40.5 -145.5t-72 -94t-89 -51t-90.5 -15.5z" />
    <glyph glyph-name="Adieresis" unicode="&#xc4;" horiz-adv-x="1457" 
d="M985 378h-588l-165 -378h-222l686 1465h280l352 -1465h-261zM949 548l-112 542l-31 209h-20l-78 -209l-119.5 -270.5l-117.5 -271.5h478zM506 1721q0 30 12.5 56.5t33.5 46.5t48.5 32t57.5 12q27 0 49 -9.5t38.5 -25.5t25.5 -38.5t9 -47.5q0 -29 -12 -55.5t-33 -46.5
t-49 -31.5t-59 -11.5q-26 0 -48.5 9.5t-38.5 25.5t-25 37.5t-9 46.5zM937 1721q0 30 12.5 56.5t33.5 46.5t48.5 32t58.5 12q27 0 49 -9.5t38 -26t25 -38.5t9 -47q0 -29 -12 -55.5t-33 -46.5t-48.5 -31.5t-58.5 -11.5q-26 0 -48.5 9.5t-39 25.5t-25.5 37.5t-9 46.5z" />
    <glyph glyph-name="Aring" unicode="&#xc5;" horiz-adv-x="1457" 
d="M985 378h-588l-165 -378h-222l686 1465h280l352 -1465h-261zM949 548l-112 542l-31 209h-20l-78 -209l-119.5 -270.5l-117.5 -271.5h478zM746 1703q0 -26 8.5 -47.5t23.5 -36.5t34.5 -23.5t41.5 -8.5q25 0 50 10.5t44.5 29t31.5 45t12 58.5q0 25 -8.5 46.5t-23.5 36.5
t-35 23.5t-42 8.5q-26 0 -50.5 -10.5t-43.5 -29.5t-31 -45t-12 -57zM591 1690q0 59 26 110t70 88t101 58t120 21q55 0 99.5 -17.5t75.5 -47.5t47.5 -71t16.5 -89q0 -59 -26 -109.5t-70 -88t-101.5 -58.5t-119.5 -21q-55 0 -99.5 17.5t-75.5 47.5t-47.5 71t-16.5 89z" />
    <glyph glyph-name="Egrave" unicode="&#xc8;" 
d="M147 0l167 1465h891l-53 -176h-610l-50 -442h539l-51 -171h-508l-57 -500h657l-53 -176h-872zM715 1602l-240 334h263l165 -334h-188z" />
    <glyph glyph-name="Eacute" unicode="&#xc9;" 
d="M147 0l167 1465h891l-53 -176h-610l-50 -442h539l-51 -171h-508l-57 -500h657l-53 -176h-872zM619 1602l241 334h262l-316 -334h-187z" />
    <glyph glyph-name="Ecircumflex" unicode="&#xca;" 
d="M147 0l167 1465h891l-53 -176h-610l-50 -442h539l-51 -171h-508l-57 -500h657l-53 -176h-872zM437 1602l268 334h236l192 -334h-190l-137 209l-184 -209h-185z" />
    <glyph glyph-name="Edieresis" unicode="&#xcb;" 
d="M147 0l167 1465h891l-53 -176h-610l-50 -442h539l-51 -171h-508l-57 -500h657l-53 -176h-872zM428 1721q0 30 12.5 56.5t33.5 46.5t48.5 32t57.5 12q27 0 49 -9.5t38.5 -25.5t25.5 -38.5t9 -47.5q0 -29 -12 -55.5t-33 -46.5t-49 -31.5t-59 -11.5q-26 0 -48.5 9.5
t-38.5 25.5t-25 37.5t-9 46.5zM859 1721q0 30 12.5 56.5t33.5 46.5t48.5 32t58.5 12q27 0 49 -9.5t38 -26t25 -38.5t9 -47q0 -29 -12 -55.5t-33 -46.5t-48.5 -31.5t-58.5 -11.5q-26 0 -48.5 9.5t-39 25.5t-25.5 37.5t-9 46.5z" />
    <glyph glyph-name="Igrave" unicode="&#xcc;" horiz-adv-x="660" 
d="M395 0h-248l167 1465h248zM389 1602l-240 334h263l165 -334h-188z" />
    <glyph glyph-name="Iacute" unicode="&#xcd;" horiz-adv-x="660" 
d="M395 0h-248l167 1465h248zM353 1602l121 334h264l-196 -334h-189z" />
    <glyph glyph-name="Icircumflex" unicode="&#xce;" horiz-adv-x="660" 
d="M395 0h-248l167 1465h248zM107 1602l268 334h236l192 -334h-190l-137 209l-184 -209h-185z" />
    <glyph glyph-name="Idieresis" unicode="&#xcf;" horiz-adv-x="660" 
d="M395 0h-248l167 1465h248zM117 1721q0 30 12.5 56.5t33.5 46.5t48.5 32t57.5 12q27 0 49 -9.5t38.5 -25.5t25.5 -38.5t9 -47.5q0 -29 -12 -55.5t-33 -46.5t-49 -31.5t-59 -11.5q-26 0 -48.5 9.5t-38.5 25.5t-25 37.5t-9 46.5zM548 1721q0 30 12.5 56.5t33.5 46.5t48.5 32
t58.5 12q27 0 49 -9.5t38 -26t25 -38.5t9 -47q0 -29 -12 -55.5t-33 -46.5t-48.5 -31.5t-58.5 -11.5q-26 0 -48.5 9.5t-39 25.5t-25.5 37.5t-9 46.5z" />
    <glyph glyph-name="Ntilde" unicode="&#xd1;" horiz-adv-x="1693" 
d="M139 0l167 1465h350l517 -933l80 -193h20l10 185l15.5 138l15.5 138l75 665h213l-167 -1465h-233l-622 1117l-73 185h-20l-11 -213l-61.5 -544.5l-62.5 -544.5h-213zM1123 1602q-41 0 -71 11.5t-52.5 28t-39.5 36.5t-33 36.5t-33 28t-39 11.5q-19 0 -37 -9.5t-33 -28.5
t-25.5 -47.5t-14.5 -66.5h-155q10 87 40.5 145.5t72 94t89 51t89.5 15.5q40 0 70 -11.5t53 -28t40.5 -36.5t33.5 -36.5t32.5 -28t36.5 -11.5q42 0 73.5 38.5t39.5 113.5h155q-10 -87 -40.5 -145.5t-72 -94t-89 -51t-90.5 -15.5z" />
    <glyph glyph-name="Ograve" unicode="&#xd2;" horiz-adv-x="1758" 
d="M849 156q77 0 147.5 23.5t130.5 66t109 102t83.5 130.5t53.5 152t19 167q0 111 -31 204.5t-88 162t-137 107t-179 38.5q-78 0 -148.5 -24t-130.5 -67.5t-109 -103.5t-83 -131.5t-52.5 -152.5t-18.5 -166q0 -110 31 -203t87.5 -161t136.5 -106t179 -38zM798 -20
q-140 0 -258.5 45.5t-204.5 130t-135 205.5t-49 271q0 123 33 234.5t91.5 206t139 171t176 130t202 82.5t217.5 29q137 0 255 -44.5t205 -128.5t136.5 -205t49.5 -274q0 -123 -32.5 -234t-90.5 -206t-138.5 -171t-175.5 -130t-202 -83t-219 -29zM974 1602l-240 334h263
l165 -334h-188z" />
    <glyph glyph-name="Oacute" unicode="&#xd3;" horiz-adv-x="1758" 
d="M849 156q77 0 147.5 23.5t130.5 66t109 102t83.5 130.5t53.5 152t19 167q0 111 -31 204.5t-88 162t-137 107t-179 38.5q-78 0 -148.5 -24t-130.5 -67.5t-109 -103.5t-83 -131.5t-52.5 -152.5t-18.5 -166q0 -110 31 -203t87.5 -161t136.5 -106t179 -38zM798 -20
q-140 0 -258.5 45.5t-204.5 130t-135 205.5t-49 271q0 123 33 234.5t91.5 206t139 171t176 130t202 82.5t217.5 29q137 0 255 -44.5t205 -128.5t136.5 -205t49.5 -274q0 -123 -32.5 -234t-90.5 -206t-138.5 -171t-175.5 -130t-202 -83t-219 -29zM899 1602l241 334h262
l-316 -334h-187z" />
    <glyph glyph-name="Ocircumflex" unicode="&#xd4;" horiz-adv-x="1758" 
d="M849 156q77 0 147.5 23.5t130.5 66t109 102t83.5 130.5t53.5 152t19 167q0 111 -31 204.5t-88 162t-137 107t-179 38.5q-78 0 -148.5 -24t-130.5 -67.5t-109 -103.5t-83 -131.5t-52.5 -152.5t-18.5 -166q0 -110 31 -203t87.5 -161t136.5 -106t179 -38zM798 -20
q-140 0 -258.5 45.5t-204.5 130t-135 205.5t-49 271q0 123 33 234.5t91.5 206t139 171t176 130t202 82.5t217.5 29q137 0 255 -44.5t205 -128.5t136.5 -205t49.5 -274q0 -123 -32.5 -234t-90.5 -206t-138.5 -171t-175.5 -130t-202 -83t-219 -29zM648 1602l268 334h236
l192 -334h-190l-137 209l-184 -209h-185z" />
    <glyph glyph-name="Otilde" unicode="&#xd5;" horiz-adv-x="1758" 
d="M849 156q77 0 147.5 23.5t130.5 66t109 102t83.5 130.5t53.5 152t19 167q0 111 -31 204.5t-88 162t-137 107t-179 38.5q-78 0 -148.5 -24t-130.5 -67.5t-109 -103.5t-83 -131.5t-52.5 -152.5t-18.5 -166q0 -110 31 -203t87.5 -161t136.5 -106t179 -38zM798 -20
q-140 0 -258.5 45.5t-204.5 130t-135 205.5t-49 271q0 123 33 234.5t91.5 206t139 171t176 130t202 82.5t217.5 29q137 0 255 -44.5t205 -128.5t136.5 -205t49.5 -274q0 -123 -32.5 -234t-90.5 -206t-138.5 -171t-175.5 -130t-202 -83t-219 -29zM1143 1602q-41 0 -71 11.5
t-52.5 28t-39.5 36.5t-33 36.5t-33 28t-39 11.5q-19 0 -37 -9.5t-33 -28.5t-25.5 -47.5t-14.5 -66.5h-155q10 87 40.5 145.5t72 94t89 51t89.5 15.5q40 0 70 -11.5t53 -28t40.5 -36.5t33.5 -36.5t32.5 -28t36.5 -11.5q42 0 73.5 38.5t39.5 113.5h155q-10 -87 -40.5 -145.5
t-72 -94t-89 -51t-90.5 -15.5z" />
    <glyph glyph-name="Odieresis" unicode="&#xd6;" horiz-adv-x="1758" 
d="M849 156q77 0 147.5 23.5t130.5 66t109 102t83.5 130.5t53.5 152t19 167q0 111 -31 204.5t-88 162t-137 107t-179 38.5q-78 0 -148.5 -24t-130.5 -67.5t-109 -103.5t-83 -131.5t-52.5 -152.5t-18.5 -166q0 -110 31 -203t87.5 -161t136.5 -106t179 -38zM798 -20
q-140 0 -258.5 45.5t-204.5 130t-135 205.5t-49 271q0 123 33 234.5t91.5 206t139 171t176 130t202 82.5t217.5 29q137 0 255 -44.5t205 -128.5t136.5 -205t49.5 -274q0 -123 -32.5 -234t-90.5 -206t-138.5 -171t-175.5 -130t-202 -83t-219 -29zM661 1721q0 30 12.5 56.5
t33.5 46.5t48.5 32t57.5 12q27 0 49 -9.5t38.5 -25.5t25.5 -38.5t9 -47.5q0 -29 -12 -55.5t-33 -46.5t-49 -31.5t-59 -11.5q-26 0 -48.5 9.5t-38.5 25.5t-25 37.5t-9 46.5zM1092 1721q0 30 12.5 56.5t33.5 46.5t48.5 32t58.5 12q27 0 49 -9.5t38 -26t25 -38.5t9 -47
q0 -29 -12 -55.5t-33 -46.5t-48.5 -31.5t-58.5 -11.5q-26 0 -48.5 9.5t-39 25.5t-25.5 37.5t-9 46.5z" />
    <glyph glyph-name="Ugrave" unicode="&#xd9;" horiz-adv-x="1548" 
d="M553 1465l-105 -917q-11 -101 12 -175t68.5 -122t107.5 -71.5t129 -23.5q68 0 131 24t113.5 71t85 118t45.5 166l107 930h212l-104 -916q-12 -103 -59.5 -205t-129.5 -183t-198.5 -131t-265.5 -50q-128 0 -227.5 38.5t-165.5 113t-94.5 182.5t-13.5 246l103 905h249z
M863 1602l-240 334h263l165 -334h-188z" />
    <glyph glyph-name="Uacute" unicode="&#xda;" horiz-adv-x="1548" 
d="M553 1465l-105 -917q-11 -101 12 -175t68.5 -122t107.5 -71.5t129 -23.5q68 0 131 24t113.5 71t85 118t45.5 166l107 930h212l-104 -916q-12 -103 -59.5 -205t-129.5 -183t-198.5 -131t-265.5 -50q-128 0 -227.5 38.5t-165.5 113t-94.5 182.5t-13.5 246l103 905h249z
M749 1602l241 334h262l-316 -334h-187z" />
    <glyph glyph-name="Ucircumflex" unicode="&#xdb;" horiz-adv-x="1548" 
d="M553 1465l-105 -917q-11 -101 12 -175t68.5 -122t107.5 -71.5t129 -23.5q68 0 131 24t113.5 71t85 118t45.5 166l107 930h212l-104 -916q-12 -103 -59.5 -205t-129.5 -183t-198.5 -131t-265.5 -50q-128 0 -227.5 38.5t-165.5 113t-94.5 182.5t-13.5 246l103 905h249z
M549 1602l268 334h236l192 -334h-190l-137 209l-184 -209h-185z" />
    <glyph glyph-name="Udieresis" unicode="&#xdc;" horiz-adv-x="1548" 
d="M553 1465l-105 -917q-11 -101 12 -175t68.5 -122t107.5 -71.5t129 -23.5q68 0 131 24t113.5 71t85 118t45.5 166l107 930h212l-104 -916q-12 -103 -59.5 -205t-129.5 -183t-198.5 -131t-265.5 -50q-128 0 -227.5 38.5t-165.5 113t-94.5 182.5t-13.5 246l103 905h249z
M563 1721q0 30 12.5 56.5t33.5 46.5t48.5 32t57.5 12q27 0 49 -9.5t38.5 -25.5t25.5 -38.5t9 -47.5q0 -29 -12 -55.5t-33 -46.5t-49 -31.5t-59 -11.5q-26 0 -48.5 9.5t-38.5 25.5t-25 37.5t-9 46.5zM994 1721q0 30 12.5 56.5t33.5 46.5t48.5 32t58.5 12q27 0 49 -9.5t38 -26
t25 -38.5t9 -47q0 -29 -12 -55.5t-33 -46.5t-48.5 -31.5t-58.5 -11.5q-26 0 -48.5 9.5t-39 25.5t-25.5 37.5t-9 46.5z" />
    <glyph glyph-name="Yacute" unicode="&#xdd;" horiz-adv-x="1370" 
d="M813 640l-73 -640h-248l72 636l-392 829h284l202 -492l66 -197h20l180 296l252 393h238zM680 1602l241 334h262l-316 -334h-187z" />
    <glyph glyph-name="Amacron" unicode="&#x100;" horiz-adv-x="1457" 
d="M985 378h-588l-165 -378h-222l686 1465h280l352 -1465h-261zM949 548l-112 542l-31 209h-20l-78 -209l-119.5 -270.5l-117.5 -271.5h478zM580 1767h566l-19 -165h-565z" />
    <glyph glyph-name="Abreve" unicode="&#x102;" horiz-adv-x="1457" 
d="M985 378h-588l-165 -378h-222l686 1465h280l352 -1465h-261zM949 548l-112 542l-31 209h-20l-78 -209l-119.5 -270.5l-117.5 -271.5h478zM862 1757q37 0 68.5 13t55.5 36.5t39 56.5t20 73h164q-9 -76 -39 -137.5t-78.5 -105t-113.5 -67.5t-144 -24t-135.5 24t-91 67.5
t-47.5 105.5t-4 137h164q-10 -81 28.5 -130t113.5 -49z" />
    <glyph glyph-name="Cacute" unicode="&#x106;" horiz-adv-x="1441" 
d="M1282 140q-58 -46 -126 -76.5t-136.5 -49t-133.5 -26.5t-118 -8q-136 0 -249.5 46.5t-195.5 131.5t-127.5 204t-45.5 265q0 135 36 251t99 211t149 169t187 124.5t212 76.5t224 26q34 0 77.5 -3t91.5 -9.5t99.5 -17t103.5 -26.5l-62 -194l-21 -10q-99 48 -187.5 66
t-153.5 18q-83 0 -159 -22.5t-141.5 -63.5t-119.5 -98.5t-92 -127.5t-58.5 -150.5t-20.5 -167.5q0 -106 31 -199.5t92 -163.5t151.5 -111t209.5 -41q40 0 87 6t97 18t101 31t99 45v-124zM814 1602l241 334h262l-316 -334h-187z" />
    <glyph glyph-name="Ccaron" unicode="&#x10c;" horiz-adv-x="1441" 
d="M1282 140q-58 -46 -126 -76.5t-136.5 -49t-133.5 -26.5t-118 -8q-136 0 -249.5 46.5t-195.5 131.5t-127.5 204t-45.5 265q0 135 36 251t99 211t149 169t187 124.5t212 76.5t224 26q34 0 77.5 -3t91.5 -9.5t99.5 -17t103.5 -26.5l-62 -194l-21 -10q-99 48 -187.5 66
t-153.5 18q-83 0 -159 -22.5t-141.5 -63.5t-119.5 -98.5t-92 -127.5t-58.5 -150.5t-20.5 -167.5q0 -106 31 -199.5t92 -163.5t151.5 -111t209.5 -41q40 0 87 6t97 18t101 31t99 45v-124zM1385 1936l-267 -334h-235l-190 334h188l137 -201l183 201h184z" />
    <glyph glyph-name="Dcaron" unicode="&#x10e;" horiz-adv-x="1649" 
d="M314 1465h521q178 0 311.5 -47.5t223 -131t134 -196.5t44.5 -244q0 -96 -24 -196t-73 -194t-124 -177t-177 -145t-231 -98t-287 -36h-485zM415 176h274q149 0 260.5 52t186 140.5t112 204t37.5 243.5q0 112 -32.5 200t-96 149t-157 92.5t-215.5 31.5h-242zM1276 1936
l-267 -334h-235l-190 334h188l137 -201l183 201h184z" />
    <glyph glyph-name="Emacron" unicode="&#x112;" 
d="M147 0l167 1465h891l-53 -176h-610l-50 -442h539l-51 -171h-508l-57 -500h657l-53 -176h-872zM509 1767h566l-19 -165h-565z" />
    <glyph glyph-name="Edotaccent" unicode="&#x116;" 
d="M147 0l167 1465h891l-53 -176h-610l-50 -442h539l-51 -171h-508l-57 -500h657l-53 -176h-872zM783 1593q-30 0 -54 9.5t-41 26t-26.5 39t-9.5 48.5q0 32 13.5 60.5t36.5 49.5t53.5 33.5t64.5 12.5q29 0 52.5 -10t40.5 -27t26 -40t9 -49q0 -33 -13.5 -61t-36 -48.5
t-52.5 -32t-63 -11.5z" />
    <glyph glyph-name="Ecaron" unicode="&#x11a;" 
d="M147 0l167 1465h891l-53 -176h-610l-50 -442h539l-51 -171h-508l-57 -500h657l-53 -176h-872zM1150 1936l-267 -334h-235l-190 334h188l137 -201l183 201h184z" />
    <glyph glyph-name="Gbreve" unicode="&#x11e;" horiz-adv-x="1578" 
d="M1334 77q-146 -54 -274.5 -75.5t-234.5 -21.5q-162 0 -287.5 45t-212 129t-131.5 203.5t-45 267.5q0 134 35.5 250t99 211.5t150.5 170t189.5 125t217 77t232.5 26.5q36 0 80 -3t93 -9.5t100.5 -17t103.5 -26.5l-61 -193l-21 -10q-100 49 -190 66t-157 17
q-132 0 -243.5 -49.5t-192.5 -136t-126.5 -202.5t-45.5 -249q0 -106 30 -199.5t89 -164t146.5 -111.5t202.5 -41q52 0 117 9t128 29l58 506h221zM1005 1757q37 0 68.5 13t55.5 36.5t39 56.5t20 73h164q-9 -76 -39 -137.5t-78.5 -105t-113.5 -67.5t-144 -24t-135.5 24
t-91 67.5t-47.5 105.5t-4 137h164q-10 -81 28.5 -130t113.5 -49z" />
    <glyph glyph-name="commaaccent" horiz-adv-x="689" 
d="M79 -541q26 18 52 41t48.5 47.5t39 49t23.5 44.5q-17 19 -49 36.5t-63 23.5q-4 10 -5.5 23t-1.5 25q0 27 11.5 53t32 46.5t49 33t61.5 12.5q55 0 89.5 -37.5t34.5 -100.5q0 -47 -21.5 -95t-57.5 -93t-83.5 -85t-99.5 -71z" />
    <glyph glyph-name="Gcommaaccent" unicode="&#x122;" horiz-adv-x="1578" 
d="M1334 77q-146 -54 -274.5 -75.5t-234.5 -21.5q-162 0 -287.5 45t-212 129t-131.5 203.5t-45 267.5q0 134 35.5 250t99 211.5t150.5 170t189.5 125t217 77t232.5 26.5q36 0 80 -3t93 -9.5t100.5 -17t103.5 -26.5l-61 -193l-21 -10q-100 49 -190 66t-157 17
q-132 0 -243.5 -49.5t-192.5 -136t-126.5 -202.5t-45.5 -249q0 -106 30 -199.5t89 -164t146.5 -111.5t202.5 -41q52 0 117 9t128 29l58 506h221zM612 -541q26 18 52 41t48.5 47.5t39 49t23.5 44.5q-17 19 -49 36.5t-63 23.5q-4 10 -5.5 23t-1.5 25q0 27 11.5 53t32 46.5
t49 33t61.5 12.5q55 0 89.5 -37.5t34.5 -100.5q0 -47 -21.5 -95t-57.5 -93t-83.5 -85t-99.5 -71z" />
    <glyph glyph-name="Imacron" unicode="&#x12a;" horiz-adv-x="660" 
d="M395 0h-248l167 1465h248zM190 1767h566l-19 -165h-565z" />
    <glyph glyph-name="Idotaccent" unicode="&#x130;" horiz-adv-x="660" 
d="M395 0h-248l167 1465h248zM450 1593q-30 0 -54 9.5t-41 26t-26.5 39t-9.5 48.5q0 32 13.5 60.5t36.5 49.5t53.5 33.5t64.5 12.5q29 0 52.5 -10t40.5 -27t26 -40t9 -49q0 -33 -13.5 -61t-36 -48.5t-52.5 -32t-63 -11.5z" />
    <glyph glyph-name="Lacute" unicode="&#x139;" horiz-adv-x="1124" 
d="M147 0l167 1465h248l-147 -1289h587l-53 -176h-802zM341 1602l241 334h262l-316 -334h-187z" />
    <glyph glyph-name="Nacute" unicode="&#x143;" horiz-adv-x="1693" 
d="M139 0l167 1465h350l517 -933l80 -193h20l10 185l15.5 138l15.5 138l75 665h213l-167 -1465h-233l-622 1117l-73 185h-20l-11 -213l-61.5 -544.5l-62.5 -544.5h-213zM869 1602l241 334h262l-316 -334h-187z" />
    <glyph glyph-name="Ncaron" unicode="&#x147;" horiz-adv-x="1693" 
d="M139 0l167 1465h350l517 -933l80 -193h20l10 185l15.5 138l15.5 138l75 665h213l-167 -1465h-233l-622 1117l-73 185h-20l-11 -213l-61.5 -544.5l-62.5 -544.5h-213zM1398 1936l-267 -334h-235l-190 334h188l137 -201l183 201h184z" />
    <glyph glyph-name="Omacron" unicode="&#x14c;" horiz-adv-x="1758" 
d="M849 156q77 0 147.5 23.5t130.5 66t109 102t83.5 130.5t53.5 152t19 167q0 111 -31 204.5t-88 162t-137 107t-179 38.5q-78 0 -148.5 -24t-130.5 -67.5t-109 -103.5t-83 -131.5t-52.5 -152.5t-18.5 -166q0 -110 31 -203t87.5 -161t136.5 -106t179 -38zM798 -20
q-140 0 -258.5 45.5t-204.5 130t-135 205.5t-49 271q0 123 33 234.5t91.5 206t139 171t176 130t202 82.5t217.5 29q137 0 255 -44.5t205 -128.5t136.5 -205t49.5 -274q0 -123 -32.5 -234t-90.5 -206t-138.5 -171t-175.5 -130t-202 -83t-219 -29zM751 1767h566l-19 -165h-565
z" />
    <glyph glyph-name="Ohungarumlaut" unicode="&#x150;" horiz-adv-x="1758" 
d="M849 156q77 0 147.5 23.5t130.5 66t109 102t83.5 130.5t53.5 152t19 167q0 111 -31 204.5t-88 162t-137 107t-179 38.5q-78 0 -148.5 -24t-130.5 -67.5t-109 -103.5t-83 -131.5t-52.5 -152.5t-18.5 -166q0 -110 31 -203t87.5 -161t136.5 -106t179 -38zM798 -20
q-140 0 -258.5 45.5t-204.5 130t-135 205.5t-49 271q0 123 33 234.5t91.5 206t139 171t176 130t202 82.5t217.5 29q137 0 255 -44.5t205 -128.5t136.5 -205t49.5 -274q0 -123 -32.5 -234t-90.5 -206t-138.5 -171t-175.5 -130t-202 -83t-219 -29zM1094 1602l206 334h245
l-282 -334h-169zM698 1602l206 334h245l-282 -334h-169z" />
    <glyph glyph-name="Racute" unicode="&#x154;" horiz-adv-x="1366" 
d="M460 570l-65 -570h-248l167 1465h451q112 0 200 -29t148.5 -79t92 -116.5t31.5 -140.5q0 -77 -31 -142.5t-80.5 -119.5t-110.5 -98t-121 -77l349 -663h-293l-248 570h-242zM479 741h301q43 22 80.5 55.5t64.5 74.5t42.5 88t15.5 97t-17 93t-51 74t-85.5 48.5t-120.5 17.5
h-167zM583 1602l241 334h262l-316 -334h-187z" />
    <glyph glyph-name="Rcaron" unicode="&#x158;" horiz-adv-x="1366" 
d="M460 570l-65 -570h-248l167 1465h451q112 0 200 -29t148.5 -79t92 -116.5t31.5 -140.5q0 -77 -31 -142.5t-80.5 -119.5t-110.5 -98t-121 -77l349 -663h-293l-248 570h-242zM479 741h301q43 22 80.5 55.5t64.5 74.5t42.5 88t15.5 97t-17 93t-51 74t-85.5 48.5t-120.5 17.5
h-167zM1155 1936l-267 -334h-235l-190 334h188l137 -201l183 201h184z" />
    <glyph glyph-name="Sacute" unicode="&#x15a;" horiz-adv-x="1238" 
d="M547 156q65 0 121.5 16t98.5 45.5t66.5 70.5t24.5 91q0 53 -27 93.5t-70.5 74t-100 62.5l-115 60t-114.5 66.5t-99.5 81t-70.5 103.5t-27 135q0 94 41.5 173t116 136t176 89t221.5 32q33 0 75.5 -3t91.5 -9.5t101 -17t105 -26.5l-62 -194l-20 -10q-50 24 -98.5 40
t-92.5 26t-82 14t-67 4q-59 0 -108 -14.5t-84 -41t-54.5 -63.5t-19.5 -83q0 -55 27 -97t71 -77.5t100.5 -66l115.5 -62t115.5 -66t100.5 -78t71 -98.5t27 -127q0 -91 -44.5 -173.5t-123.5 -145t-188 -99.5t-238 -37q-104 0 -214 24.5t-208 71.5l62 190l21 10
q100 -58 193.5 -89t184.5 -31zM621 1602l241 334h262l-316 -334h-187z" />
    <glyph glyph-name="Scaron" unicode="&#x160;" horiz-adv-x="1238" 
d="M547 156q65 0 121.5 16t98.5 45.5t66.5 70.5t24.5 91q0 53 -27 93.5t-70.5 74t-100 62.5l-115 60t-114.5 66.5t-99.5 81t-70.5 103.5t-27 135q0 94 41.5 173t116 136t176 89t221.5 32q33 0 75.5 -3t91.5 -9.5t101 -17t105 -26.5l-62 -194l-20 -10q-50 24 -98.5 40
t-92.5 26t-82 14t-67 4q-59 0 -108 -14.5t-84 -41t-54.5 -63.5t-19.5 -83q0 -55 27 -97t71 -77.5t100.5 -66l115.5 -62t115.5 -66t100.5 -78t71 -98.5t27 -127q0 -91 -44.5 -173.5t-123.5 -145t-188 -99.5t-238 -37q-104 0 -214 24.5t-208 71.5l62 190l21 10
q100 -58 193.5 -89t184.5 -31zM1162 1936l-267 -334h-235l-190 334h188l137 -201l183 201h184z" />
    <glyph glyph-name="Tcaron" unicode="&#x164;" horiz-adv-x="1324" 
d="M719 0h-248l147 1289h-476l53 176h1182l-53 -176h-458zM1164 1936l-267 -334h-235l-190 334h188l137 -201l183 201h184z" />
    <glyph glyph-name="Umacron" unicode="&#x16a;" horiz-adv-x="1548" 
d="M553 1465l-105 -917q-11 -101 12 -175t68.5 -122t107.5 -71.5t129 -23.5q68 0 131 24t113.5 71t85 118t45.5 166l107 930h212l-104 -916q-12 -103 -59.5 -205t-129.5 -183t-198.5 -131t-265.5 -50q-128 0 -227.5 38.5t-165.5 113t-94.5 182.5t-13.5 246l103 905h249z
M649 1767h566l-19 -165h-565z" />
    <glyph glyph-name="Uring" unicode="&#x16e;" horiz-adv-x="1548" 
d="M553 1465l-105 -917q-11 -101 12 -175t68.5 -122t107.5 -71.5t129 -23.5q68 0 131 24t113.5 71t85 118t45.5 166l107 930h212l-104 -916q-12 -103 -59.5 -205t-129.5 -183t-198.5 -131t-265.5 -50q-128 0 -227.5 38.5t-165.5 113t-94.5 182.5t-13.5 246l103 905h249z
M801 1703q0 -26 8.5 -47.5t23.5 -36.5t34.5 -23.5t41.5 -8.5q25 0 50 10.5t44.5 29t31.5 45t12 58.5q0 25 -8.5 46.5t-23.5 36.5t-35 23.5t-42 8.5q-26 0 -50.5 -10.5t-43.5 -29.5t-31 -45t-12 -57zM646 1690q0 59 26 110t70 88t101 58t120 21q55 0 99.5 -17.5t75.5 -47.5
t47.5 -71t16.5 -89q0 -59 -26 -109.5t-70 -88t-101.5 -58.5t-119.5 -21q-55 0 -99.5 17.5t-75.5 47.5t-47.5 71t-16.5 89z" />
    <glyph glyph-name="Uhungarumlaut" unicode="&#x170;" horiz-adv-x="1548" 
d="M553 1465l-105 -917q-11 -101 12 -175t68.5 -122t107.5 -71.5t129 -23.5q68 0 131 24t113.5 71t85 118t45.5 166l107 930h212l-104 -916q-12 -103 -59.5 -205t-129.5 -183t-198.5 -131t-265.5 -50q-128 0 -227.5 38.5t-165.5 113t-94.5 182.5t-13.5 246l103 905h249z
M968 1602l206 334h245l-282 -334h-169zM572 1602l206 334h245l-282 -334h-169z" />
    <glyph glyph-name="Ydieresis" unicode="&#x178;" horiz-adv-x="1370" 
d="M813 640l-73 -640h-248l72 636l-392 829h284l202 -492l66 -197h20l180 296l252 393h238zM493 1773q0 30 12 56.5t33 47t48.5 32.5t58.5 12q27 0 49 -9.5t38 -26t25 -38.5t9 -47q0 -29 -12 -55.5t-33 -46.5t-49 -32t-59 -12q-26 0 -48 9.5t-38 25.5t-25 38t-9 46z
M924 1773q0 30 12 56.5t33 47t49 32.5t59 12q26 0 48 -9.5t38 -26t25 -38.5t9 -47q0 -29 -12 -55.5t-33 -46.5t-48.5 -32t-58.5 -12q-26 0 -48.5 9.5t-38.5 25.5t-25 38t-9 46z" />
    <glyph glyph-name="Zacute" unicode="&#x179;" horiz-adv-x="1322" 
d="M959 1276l2 20l-189 -7h-110h-429l53 176h986l-10 -83l-786 -1060l-115 -135l-2 -19l188 8h101h533l-53 -176h-1083l9 77l789 1064zM631 1602l241 334h262l-316 -334h-187z" />
    <glyph glyph-name="Zdotaccent" unicode="&#x17b;" horiz-adv-x="1322" 
d="M959 1276l2 20l-189 -7h-110h-429l53 176h986l-10 -83l-786 -1060l-115 -135l-2 -19l188 8h101h533l-53 -176h-1083l9 77l789 1064zM807 1593q-30 0 -54 9.5t-41 26t-26.5 39t-9.5 48.5q0 32 13.5 60.5t36.5 49.5t53.5 33.5t64.5 12.5q29 0 52.5 -10t40.5 -27t26 -40
t9 -49q0 -33 -13.5 -61t-36 -48.5t-52.5 -32t-63 -11.5z" />
    <glyph glyph-name="Zcaron" unicode="&#x17d;" horiz-adv-x="1322" 
d="M959 1276l2 20l-189 -7h-110h-429l53 176h986l-10 -83l-786 -1060l-115 -135l-2 -19l188 8h101h533l-53 -176h-1083l9 77l789 1064zM1172 1936l-267 -334h-235l-190 334h188l137 -201l183 201h184z" />
    <glyph glyph-name="rotatedcommaaccent" horiz-adv-x="689" 
d="M612 1601q-26 -18 -51.5 -41t-48 -48t-39.5 -49t-24 -44q17 -20 49 -37t63 -24q4 -9 6 -22t2 -25q0 -27 -11.5 -53t-32.5 -46.5t-49 -33t-61 -12.5q-56 0 -90.5 37.5t-34.5 100.5q0 46 21.5 94.5t57.5 93.5t83.5 85t99.5 71z" />
    <glyph glyph-name="highcommaaccent" horiz-adv-x="689" 
d="M273 1167q26 18 52 41t48.5 47.5t39 49t23.5 44.5q-17 19 -49 36.5t-63 23.5q-3 10 -5 23t-2 25q0 27 11.5 53t32 46.5t49 33t61.5 12.5q55 0 90 -37.5t35 -100.5q0 -47 -21.5 -95t-58 -93t-84 -85t-99.5 -71z" />
    <glyph glyph-name="dotlessi" unicode="&#x131;" horiz-adv-x="578" 
d="M228 1060h242l-121 -1060h-242z" />
    <glyph glyph-name="thorn" unicode="&#xfe;" horiz-adv-x="1258" 
d="M291 1602h242l-86 -754q45 51 90 93.5t92.5 73t98 48t107.5 17.5q82 0 145.5 -36t107 -96.5t66 -139.5t22.5 -166q0 -96 -26 -182.5t-72 -160t-108 -132.5t-134.5 -100.5t-151.5 -64t-159 -22.5q-53 0 -99 8t-76 16l-62 -541h-242zM372 197q47 -26 96 -35t84 -9
q77 0 143.5 33t116 92.5t78 141t28.5 179.5q0 62 -12 116t-35 94t-58.5 63t-81.5 23q-38 0 -77 -16t-78 -45t-76.5 -70t-72.5 -90z" />
    <glyph glyph-name="uni02C9" unicode="&#x2c9;" horiz-adv-x="965" 
d="M300 1405h566l-19 -165h-565z" />
    <glyph glyph-name="a" unicode="a" horiz-adv-x="1241" 
d="M871 863q-46 26 -89.5 35t-75.5 9q-71 0 -137 -32.5t-117 -92.5t-81.5 -144t-30.5 -187q0 -57 10.5 -109t32 -91.5t55 -63t80.5 -23.5q38 0 76 16t76 45.5t74.5 70t71.5 90.5zM1015 0h-197l-8 226q-49 -56 -95.5 -101t-94.5 -77.5t-98.5 -50t-107.5 -17.5q-82 0 -144 36
t-103.5 96t-62.5 138t-21 163q0 97 27 184.5t74 161.5t111 133.5t137.5 101t154 64t160.5 22.5q114 0 240 -51l152 52z" />
    <glyph glyph-name="q" unicode="q" horiz-adv-x="1257" 
d="M886 863q-47 26 -96 35t-84 9q-77 0 -143.5 -33t-116 -92.5t-78 -141.5t-28.5 -180q0 -62 12 -115.5t35.5 -94t58.5 -63.5t81 -23q38 0 77.5 16t78 45.5t76.5 70t73 90.5zM812 214q-44 -48 -89 -90.5t-92.5 -74.5t-99.5 -50.5t-110 -18.5q-81 0 -144 36t-106 96.5
t-65.5 139.5t-22.5 166q0 96 26 182t72.5 159.5t110.5 133t139 101t158 64t169 22.5q119 0 245 -51l151 52l-185 -1617h-242z" />
    <glyph glyph-name="g" unicode="g" horiz-adv-x="1254" 
d="M883 863q-48 26 -97 35t-84 9q-77 0 -143.5 -33t-116 -92.5t-77.5 -141.5t-28 -180q0 -62 12 -115.5t35 -94t58 -63.5t81 -23q38 0 77.5 16t78.5 45.5t76.5 70t72.5 90.5zM1029 25q-15 -130 -73 -237.5t-147 -184t-202.5 -118.5t-240.5 -42q-46 0 -90 5.5t-84.5 14.5
t-75.5 20.5t-62 23.5l61 174l20 10q22 -12 52.5 -25.5t66 -24.5t74.5 -18t77 -7q72 0 136.5 26t114.5 73.5t83 114t42 146.5l27 238q-44 -51 -89 -94t-92.5 -74t-98.5 -48.5t-108 -17.5q-83 0 -146.5 36t-106.5 96t-65.5 139.5t-22.5 166.5q0 95 26 181.5t72 160t109.5 133
t137.5 101t156.5 64t167.5 22.5q60 0 124.5 -12.5t127.5 -38.5l151 52z" />
    <glyph glyph-name="oe" unicode="&#x153;" horiz-adv-x="1921" 
d="M518 -20q-109 0 -190.5 37t-136 99.5t-81.5 145t-27 174.5q0 87 23 168.5t65 153t100 131t128.5 102t151 66t166.5 23.5q133 0 223 -58t143 -162q88 107 203.5 163.5t237.5 56.5q81 0 143 -23.5t104.5 -62.5t64 -89.5t21.5 -104.5q0 -74 -41 -138t-120 -110.5t-194 -73
t-263 -26.5h-100q0 -61 18.5 -113.5t55.5 -91.5t92.5 -61t130.5 -22q72 0 145 22t145 65v-114q-48 -42 -102 -72t-108.5 -49t-107 -27.5t-98.5 -8.5q-115 0 -204 52t-143 158q-88 -103 -202.5 -156.5t-242.5 -53.5zM578 153q63 0 120.5 32.5t101.5 89t70.5 133.5t26.5 167
q0 66 -15 126t-45 105.5t-74.5 73t-102.5 27.5q-64 0 -121.5 -33t-101.5 -91t-70 -135.5t-26 -165.5q0 -66 15.5 -126t45.5 -105t74 -71.5t102 -26.5zM1470 907q-59 0 -112 -27.5t-95.5 -73.5t-72 -106.5t-42.5 -127.5h99q91 0 161.5 15t119 41.5t74 62.5t25.5 78
q0 25 -10 50t-29.5 44.5t-49 31.5t-68.5 12z" />
    </font>
</defs>
</svg>
