<?xml version="1.0" standalone="no"?>
<!DOCTYPE svg PUBLIC "-//W3C//DTD SVG 1.1//EN" "http://www.w3.org/Graphics/SVG/1.1/DTD/svg11.dtd" >
<svg>
<metadata>
Created by FontForge 20090622 at Tue May 24 18:54:21 2016
 By deploy user
Copyright (c) 2013 by Jasper de Waard. All rights reserved.
</metadata>
<defs>
<font id="ProzaLibre-ExtraBold" horiz-adv-x="1250" >
  <font-face 
    font-family="Proza Libre"
    font-weight="800"
    font-stretch="normal"
    units-per-em="2048"
    panose-1="2 0 5 3 6 0 0 2 0 4"
    ascent="1638"
    descent="-410"
    x-height="1060"
    cap-height="1465"
    bbox="-134 -744 3167 1996"
    underline-thickness="50"
    underline-position="-50"
    unicode-range="U+000D-U+FB02"
  />
<missing-glyph horiz-adv-x="452" 
 />
    <glyph glyph-name=".notdef" horiz-adv-x="452" 
 />
    <glyph glyph-name=".null" horiz-adv-x="0" 
 />
    <glyph glyph-name=".null" horiz-adv-x="0" 
 />
    <glyph glyph-name="nonmarkingreturn" unicode="&#xd;" horiz-adv-x="452" 
 />
    <glyph glyph-name="space" unicode=" " horiz-adv-x="390" 
 />
    <glyph glyph-name="asterisk" unicode="*" horiz-adv-x="1200" 
d="M502 1058l-10 15l-352 -81l28 246l326 -70l10 15l-257 269l239 100l104 -325h20l96 325l246 -92l-258 -277l9 -15l357 76l-28 -248l-329 71l-10 -15l251 -276l-240 -106l-94 339h-20l-96 -329l-246 92z" />
    <glyph glyph-name="asciicircum" unicode="^" horiz-adv-x="1233" 
d="M764 1465l369 -800h-281l-235 509l-236 -509h-281l370 800h294z" />
    <glyph glyph-name="slash" unicode="/" horiz-adv-x="991" 
d="M621 1602h275l-541 -1910h-275z" />
    <glyph glyph-name="quotesingle" unicode="'" horiz-adv-x="734" 
d="M120 828q81 91 135.5 181t75.5 185q-15 16 -35 31.5t-43 28.5t-47.5 23t-48.5 16q-8 23 -12.5 48t-4.5 51q0 52 20 94.5t52.5 72.5t74.5 46.5t87 16.5q42 0 83.5 -16t74 -48t52.5 -82t20 -117q0 -58 -16 -127.5t-56.5 -147.5t-108.5 -163t-171 -174z" />
    <glyph glyph-name="equal" unicode="=" horiz-adv-x="1413" 
d="M1213 476v-255h-1013v255h1013zM1213 964v-255h-1013v255h1013z" />
    <glyph glyph-name="bracketleft" unicode="[" horiz-adv-x="974" 
d="M240 1602h624v-255h-349v-1450h349v-255h-624v1960z" />
    <glyph glyph-name="asciitilde" unicode="~" horiz-adv-x="1528" 
d="M989 579q53 0 78.5 64.5t25.5 208.5h255q0 -155 -33.5 -257t-87 -162t-121 -84.5t-136.5 -24.5q-70 0 -120.5 20t-87 50.5t-64 66l-52 66t-49.5 50.5t-58 20q-53 0 -78.5 -64.5t-25.5 -208.5h-255q0 155 33.5 257t87 162t121 84.5t136.5 24.5q70 0 120.5 -20t87 -50.5
t64 -66l52 -66t49.5 -50.5t58 -20z" />
    <glyph glyph-name="trademark" unicode="&#x2122;" horiz-adv-x="2502" 
d="M691 557h-293v693h-268l34 215h790l-35 -215h-228v-693zM1022 557l74 908h459l59 -253l40 -232h20l46 232l58 253h470l74 -908h-329l-17 465l3 237h-20l-47 -237l-118 -448h-305l-115 449l-51 236h-20l5 -236l-17 -466h-269z" />
    <glyph glyph-name="greater" unicode="&#x3e;" horiz-adv-x="1172" 
d="M1022 469l-812 -439v289l521 283l-521 283v289l812 -439v-266z" />
    <glyph glyph-name="ellipsis" unicode="&#x2026;" horiz-adv-x="2050" 
d="M384 -20q-46 0 -86.5 17t-71 47t-48.5 71.5t-18 90.5q0 51 19.5 93.5t52 72.5t74.5 47t88 17t86.5 -17t71 -47t48.5 -71.5t18 -90.5q0 -51 -19.5 -93.5t-52.5 -72.5t-75 -47t-87 -17zM1020 -20q-46 0 -86.5 17t-71 47t-48.5 71.5t-18 90.5q0 51 19.5 93.5t52 72.5
t74.5 47t88 17t86.5 -17t71 -47t48.5 -71.5t18 -90.5q0 -51 -19.5 -93.5t-52.5 -72.5t-75 -47t-87 -17zM1656 -20q-46 0 -86.5 17t-71 47t-48.5 71.5t-18 90.5q0 51 19.5 93.5t52 72.5t74.5 47t88 17t86.5 -17t71 -47t48.5 -71.5t18 -90.5q0 -51 -19.5 -93.5t-52.5 -72.5
t-75 -47t-87 -17z" />
    <glyph glyph-name="h" unicode="h" horiz-adv-x="1386" 
d="M140 1602h400v-710l84.5 68t90.5 60.5t98.5 43t108.5 16.5q70 0 129.5 -25.5t103 -73t67.5 -114.5t24 -149v-718h-400v658q0 40 -11 70.5t-30 51.5t-44.5 31.5t-54.5 10.5q-44 0 -85.5 -21t-80.5 -53v-748h-400v1602z" />
    <glyph glyph-name="i" unicode="i" horiz-adv-x="680" 
d="M140 1060h400v-1060h-400v1060zM334 1206q-51 0 -92 14.5t-70 40t-44.5 59.5t-15.5 73q0 40 17 76t48 62t74 41.5t95 15.5q51 0 92 -14.5t70 -40t44.5 -59.5t15.5 -73q0 -41 -17 -76.5t-48 -61.5t-74 -41.5t-95 -15.5z" />
    <glyph glyph-name="j" unicode="j" horiz-adv-x="680" 
d="M-52 -410q52 43 89 97.5t59.5 116.5t33 130.5t10.5 139.5v986h400v-888q0 -110 -20 -217t-73 -202.5t-146 -174.5t-239 -134zM334 1206q-51 0 -92 14.5t-70 40t-44.5 59.5t-15.5 73q0 40 17 76t48 62t74 41.5t95 15.5q51 0 92 -14.5t70 -40t44.5 -59.5t15.5 -73
q0 -41 -17 -76.5t-48 -61.5t-74 -41.5t-95 -15.5z" />
    <glyph glyph-name="l" unicode="l" horiz-adv-x="680" 
d="M140 1602h400v-1602h-400v1602z" />
    <glyph glyph-name="m" unicode="m" horiz-adv-x="2044" 
d="M140 1060h342l46 -170l77.5 65t87.5 61.5t96 45.5t103 18q58 0 106 -16.5t85.5 -44.5t64.5 -63.5t42 -72.5l84.5 69.5t89 63.5t98 46t110.5 18q77 0 138.5 -29t104.5 -78.5t66 -116t23 -140.5v-716h-400v658q0 77 -37 120.5t-93 43.5q-42 0 -79 -21t-75 -53q2 -8 2 -16
v-16v-716h-400v658q0 77 -36.5 120.5t-93.5 43.5q-39 0 -76.5 -21t-75.5 -53v-748h-400v1060z" />
    <glyph glyph-name="p" unicode="p" horiz-adv-x="1376" 
d="M540 242q38 -17 67 -21.5t48 -4.5q61 0 105 28t72.5 73.5t42 103t13.5 117.5q0 68 -13 121t-36.5 89t-56 55t-71.5 19q-42 0 -89 -21t-82 -57v-502zM528 902q38 34 78 66t83.5 57t92 40t103.5 15q96 0 172.5 -43t129.5 -113.5t81 -160.5t28 -185q0 -125 -46.5 -234
t-128 -190t-191 -127.5t-235.5 -46.5q-44 0 -88 5.5t-67 14.5v-536h-400v1596h346z" />
    <glyph glyph-name="q" unicode="q" horiz-adv-x="1376" 
d="M720 1080q89 0 161 -17t123 -43l232 68v-1624h-400v676l-79.5 -58t-86.5 -51.5t-93.5 -36.5t-100.5 -14q-90 0 -163.5 41.5t-125 111t-79.5 160t-28 187.5q0 127 47.5 236.5t132.5 190.5t202.5 127t257.5 46zM836 816q-35 15 -65 21.5t-57 6.5q-56 0 -98 -24t-70 -66
t-42 -99t-14 -123q0 -67 14 -121t41 -92.5t67 -59.5t92 -21q27 0 60.5 8t71.5 34v536z" />
    <glyph glyph-name="u" unicode="u" horiz-adv-x="1362" 
d="M140 1060h400v-658q0 -77 36.5 -120.5t93.5 -43.5q39 0 76.5 21t75.5 53v748h400v-1060h-342l-46 170q-36 -32 -77.5 -65.5t-87.5 -61t-96 -45.5t-103 -18q-59 0 -117.5 21.5t-106 66t-77 113t-29.5 163.5v716z" />
    <glyph glyph-name="z" unicode="z" horiz-adv-x="1104" 
d="M60 76l362 592l106 142v20l-182 -6h-246l52 236h864v-76l-368 -598l-102 -140v-18l178 8h320l-52 -236h-932v76z" />
    <glyph glyph-name="period" unicode="." horiz-adv-x="778" 
d="M384 -20q-46 0 -86.5 17t-71 47t-48.5 71.5t-18 90.5q0 51 19.5 93.5t52 72.5t74.5 47t88 17t86.5 -17t71 -47t48.5 -71.5t18 -90.5q0 -51 -19.5 -93.5t-52.5 -72.5t-75 -47t-87 -17z" />
    <glyph glyph-name="degree" unicode="&#xb0;" horiz-adv-x="1125" 
d="M150 1202q0 94 34 171t91.5 132.5t133.5 86t161 30.5q83 0 156.5 -29.5t129 -82.5t87.5 -128t32 -166q0 -93 -34 -170.5t-91.5 -132.5t-134 -85.5t-161.5 -30.5q-83 0 -156.5 29t-128.5 82.5t-87 128t-32 165.5zM375 1215q0 -48 16.5 -86t43.5 -64t61.5 -39.5t71.5 -13.5
q34 0 67 12.5t58.5 36.5t41 59.5t15.5 82.5q0 48 -16.5 86t-43.5 64.5t-62 40t-71 13.5q-35 0 -67.5 -12.5t-58 -36.5t-41 -60t-15.5 -83z" />
    <glyph glyph-name="f" unicode="f" horiz-adv-x="979" 
d="M222 824h-212l24 164l190 72v28q0 112 33.5 209.5t99.5 169.5t163.5 113.5t225.5 41.5q53 0 111.5 -7.5t111.5 -23.5l-51 -227l-18 -10q-24 15 -55 23.5t-61 8.5q-87 0 -124.5 -72t-37.5 -204v-50h322l-52 -236h-270v-824h-400v824z" />
    <glyph glyph-name="k" unicode="k" horiz-adv-x="1340" 
d="M140 1602h400v-1602h-400v1602zM848 0l-278 540l365 508h360l-354 -436l373 -612h-466z" />
    <glyph glyph-name="v" unicode="v" horiz-adv-x="1176" 
d="M30 1060h427l131 -566l39 -214h20l37 214l133 566h329l-326 -1060h-464z" />
    <glyph glyph-name="w" unicode="w" horiz-adv-x="1845" 
d="M457 1060l96 -566l35 -214h18l38 214l115 534h430l115 -534l40 -215h20l31 215l99 566h321l-275 -1060h-452l-106 479l-38 255h-20l-44 -256l-117 -478h-458l-275 1060h427z" />
    <glyph glyph-name="x" unicode="x" horiz-adv-x="1212" 
d="M25 0l383 527l-363 533h460l77 -138l79 -182h16l76 182l74 138h342l-362 -490l380 -570h-458l-97 174l-80 168h-16l-75 -166l-94 -176h-342z" />
    <glyph glyph-name="question" unicode="?" horiz-adv-x="1116" 
d="M467 1249q-28 0 -65 -6.5t-77 -18.5t-80 -29.5t-74 -39.5l-18 10l-63 202q63 34 126.5 57t125 36.5t119 19t108.5 5.5q121 0 206 -25.5t138.5 -68t78 -97.5t24.5 -113q0 -70 -29.5 -120.5t-73.5 -91t-96 -74.5t-96 -71.5t-73.5 -82t-29.5 -105.5v-32h-266
q-5 21 -7.5 40.5t-2.5 42.5q0 61 19.5 109.5t48.5 87.5t63.5 71t63.5 62t48.5 60t19.5 65q0 50 -39 78.5t-99 28.5zM497 -20q-46 0 -86.5 17t-71 47t-48.5 71.5t-18 90.5q0 51 19.5 93.5t51.5 72.5t74.5 47t87.5 17q46 0 87 -17t71.5 -47t48.5 -71.5t18 -89.5
q0 -51 -19.5 -93.5t-52.5 -73t-75 -47.5t-87 -17z" />
    <glyph glyph-name="A" unicode="A" horiz-adv-x="1457" 
d="M480 1465h499l438 -1465h-429l-82 320h-453l-81 -320h-332zM851 539l-115 452l-47 226h-20l-47 -226l-114 -452h343z" />
    <glyph glyph-name="B" unicode="B" horiz-adv-x="1496" 
d="M1073 816q56 -14 113.5 -42.5t104 -72.5t76 -103.5t29.5 -136.5q0 -92 -46.5 -175t-135.5 -147t-217.5 -101.5t-291.5 -37.5h-535v1465h594q139 0 245.5 -23.5t178.5 -66t108.5 -101.5t36.5 -129q0 -56 -20.5 -101.5t-56 -84.5t-82.5 -74t-101 -69zM576 239h159
q57 0 102 17t76.5 46.5t48 68t16.5 81.5q0 52 -20 88.5t-55 60t-81.5 34t-100.5 10.5h-145v-406zM848 864q18 12 34 30.5t28 42.5t19 52.5t7 60.5q0 40 -15 72.5t-42.5 55.5t-65 35.5t-82.5 12.5h-155v-362h272z" />
    <glyph glyph-name="C" unicode="C" horiz-adv-x="1437" 
d="M1322 133q-45 -36 -104 -64.5t-125.5 -48t-138 -30t-140.5 -10.5q-153 0 -284 50t-226.5 142.5t-149.5 223.5t-54 292q0 128 33 237.5t92 198t139.5 156t175 113t199.5 69t212 23.5q34 0 80.5 -2.5t98 -8.5t105 -15.5t102.5 -22.5l-58 -256l-20 -8q-86 42 -165 58
t-142 16q-98 0 -178 -34.5t-137 -98t-88 -155t-31 -205.5q0 -119 34 -214.5t98.5 -162t157 -102.5t209.5 -36q49 0 91.5 6t80 16t70.5 22.5t63 25.5v-175z" />
    <glyph glyph-name="D" unicode="D" horiz-adv-x="1666" 
d="M170 1465h600q193 0 341.5 -47.5t249.5 -136t153 -214.5t52 -283q0 -92 -19 -186t-61 -181.5t-108 -163.5t-159.5 -132.5t-217 -89t-279.5 -32.5l-552 1v1465zM576 239h185q100 0 173 38.5t120.5 107t70.5 163t23 205.5q0 122 -27 211.5t-78.5 147.5t-127.5 86t-173 28
h-166v-987z" />
    <glyph glyph-name="E" unicode="E" horiz-adv-x="1286" 
d="M170 0v1465h989l-42 -239h-541v-362h467l-37 -219h-430v-406h590l-42 -239h-954z" />
    <glyph glyph-name="F" unicode="F" horiz-adv-x="1249" 
d="M170 0v1465h989l-42 -239h-541v-362h467l-37 -219h-430v-645h-406z" />
    <glyph glyph-name="G" unicode="G" horiz-adv-x="1568" 
d="M1418 84q-145 -53 -278.5 -78.5t-269.5 -25.5q-200 0 -345 50t-239.5 140.5t-140 217t-45.5 280.5q0 136 33 249.5t92 204.5t140.5 159t177.5 113.5t203.5 68t218.5 22.5q36 0 85 -2.5t103 -8.5t109.5 -15.5t104.5 -22.5l-57 -257l-20 -8q-43 21 -87.5 35.5t-86.5 23
t-81 12.5t-71 4q-103 0 -185.5 -33.5t-140.5 -98t-89 -159t-31 -215.5q0 -115 28.5 -210.5t81 -164.5t127.5 -107.5t169 -38.5q14 0 33 1t38.5 3t37.5 5t29 7v509h356v-660z" />
    <glyph glyph-name="H" unicode="H" horiz-adv-x="1698" 
d="M170 0v1465h406v-591h546v591h406v-1465h-406v635h-546v-635h-406z" />
    <glyph glyph-name="I" unicode="I" horiz-adv-x="746" 
d="M576 0h-406v1465h406v-1465z" />
    <glyph glyph-name="J" unicode="J" horiz-adv-x="746" 
d="M-134 -346q84 55 142 110t94 121t52 148.5t16 192.5v1239h406v-1148q0 -165 -37.5 -293.5t-113.5 -228t-190.5 -173.5t-268.5 -129z" />
    <glyph glyph-name="K" unicode="K" horiz-adv-x="1664" 
d="M576 0h-406v1465h406v-1465zM1126 0l-463 740l538 725h372l-522 -629l563 -836h-488z" />
    <glyph glyph-name="L" unicode="L" horiz-adv-x="1196" 
d="M170 0v1465h406v-1226h530l-42 -239h-894z" />
    <glyph glyph-name="M" unicode="M" horiz-adv-x="2172" 
d="M140 0l118 1465h567l170 -674l57 -298h20l64 299l169 673h609l118 -1465h-444l-37 931l-1 282h-25l-63 -274l-242 -910h-372l-242 908l-65 276h-25v-280l-36 -933h-340z" />
    <glyph glyph-name="N" unicode="N" horiz-adv-x="1740" 
d="M170 0v1465h544l420 -733l112 -231h20l-10 259v705h314v-1465h-434l-536 927l-106 219h-20l10 -238v-908h-314z" />
    <glyph glyph-name="O" unicode="O" horiz-adv-x="1746" 
d="M882 219q86 0 151 42t108.5 112t65.5 160.5t22 188.5q0 105 -25 200t-72 167t-115 114.5t-153 42.5q-86 0 -150.5 -42t-108 -112t-65.5 -161t-22 -188q0 -105 25 -200t71.5 -167t114 -114.5t153.5 -42.5zM847 -20q-162 0 -299 48t-236.5 140.5t-155.5 227t-56 307.5
q0 177 58.5 321t164.5 246.5t252.5 158.5t323.5 56q162 0 299 -48t236.5 -140t155.5 -226.5t56 -307.5q0 -177 -59 -321.5t-164.5 -247t-252.5 -158.5t-323 -56z" />
    <glyph glyph-name="P" unicode="P" horiz-adv-x="1456" 
d="M576 0h-406v1465h568q155 0 271 -33.5t193 -95.5t115.5 -149t38.5 -193q0 -117 -41 -212.5t-114 -163t-172 -104.5t-214 -37q-17 0 -32.5 1t-34.5 4l18 216q5 -1 16.5 -1.5t19.5 -0.5q46 0 77 22t50 58t27 81t8 92q0 75 -17 128t-49 86t-77 48t-101 15h-144v-1226z" />
    <glyph glyph-name="Q" unicode="Q" horiz-adv-x="1746" 
d="M847 -20q-162 0 -299 48t-236.5 140.5t-155.5 227t-56 307.5q0 177 58.5 321t164.5 246.5t252.5 158.5t323.5 56q162 0 299 -48t236.5 -140t155.5 -226.5t56 -307.5q0 -120 -27.5 -225.5t-79.5 -193t-125.5 -156t-165.5 -116.5l701 -236l-208 -279zM882 219q86 0 151 42
t108.5 112t65.5 160.5t22 188.5q0 105 -25 200t-72 167t-115 114.5t-153 42.5q-86 0 -150.5 -42t-108 -112t-65.5 -161t-22 -188q0 -105 25 -200t71.5 -167t114 -114.5t153.5 -42.5z" />
    <glyph glyph-name="R" unicode="R" horiz-adv-x="1491" 
d="M576 528v-528h-406v1465h563q154 0 266 -31t185 -83.5t107.5 -121t34.5 -142.5q0 -69 -26 -129.5t-67 -112t-90.5 -94t-95.5 -75.5l404 -676h-469l-248 528h-158zM576 747h228q23 13 46.5 35t42 52.5t30 69t11.5 85.5q0 51 -15 94t-44 75t-71.5 50t-98.5 18h-129v-479z
" />
    <glyph glyph-name="S" unicode="S" horiz-adv-x="1206" 
d="M540 219q40 0 79.5 8t70 27t49.5 49t19 74q0 53 -27.5 90t-72.5 65.5t-102 52.5l-117 50t-117 58.5t-102 78.5t-72.5 109.5t-27.5 151.5q0 103 40 187t114 142.5t180 90.5t237 32q34 0 81.5 -2.5t101 -8.5t109.5 -15.5t108 -23.5l-58 -255l-17 -8q-44 20 -89 34t-87.5 23
t-80 13t-66.5 4q-90 0 -143 -36t-53 -108q0 -52 27.5 -88t72.5 -64t102.5 -51t117 -49.5t117 -59t102.5 -79t72.5 -111t27.5 -153.5q0 -106 -40.5 -192t-116.5 -147t-185 -94.5t-245 -33.5q-49 0 -106.5 5t-120 16t-126.5 29t-126 45l57 256l21 10l110.5 -49t99 -38.5
t92.5 -25.5t90 -9z" />
    <glyph glyph-name="T" unicode="T" horiz-adv-x="1415" 
d="M910 0h-406v1226h-444l42 239h1253l-42 -239h-403v-1226z" />
    <glyph glyph-name="U" unicode="U" horiz-adv-x="1544" 
d="M566 1465v-939q0 -77 18 -135t50.5 -96t78 -57t99.5 -19q55 0 102.5 19.5t82 58t54 95.5t19.5 133v940h314v-892q0 -132 -40.5 -241t-120 -187t-197.5 -121.5t-274 -43.5q-137 0 -247 35t-186.5 105.5t-117.5 175.5t-41 245v924h406z" />
    <glyph glyph-name="V" unicode="V" horiz-adv-x="1457" 
d="M1085 1465h332l-455 -1465h-469l-453 1465h429l252 -939l47 -214h20l47 214z" />
    <glyph glyph-name="W" unicode="W" horiz-adv-x="2184" 
d="M926 1357h430l171 -828l38 -217h20l33 217l187 936h324l-346 -1465h-489l-148 713l-39 243h-20l-39 -243l-147 -713h-499l-347 1465h421l188 -936l34 -217h20l37 217z" />
    <glyph glyph-name="X" unicode="X" horiz-adv-x="1518" 
d="M35 0l532 726l-499 739h471l157 -258l106 -191h20l112 196l157 253h368l-507 -679l531 -786h-471l-191 314l-99 179h-20l-104 -181l-196 -312h-367z" />
    <glyph glyph-name="Y" unicode="Y" horiz-adv-x="1431" 
d="M20 1465h465l282 -572l283 572h361l-492 -829v-636h-406v624z" />
    <glyph glyph-name="Z" unicode="Z" horiz-adv-x="1357" 
d="M742 1212v20l-189 -6h-410l42 239h1059v-76l-560 -980l-109 -160v-18l185 8h517l-42 -239h-1155v76l549 974z" />
    <glyph glyph-name="n" unicode="n" horiz-adv-x="1386" 
d="M140 1060h342l46 -170l75.5 61.5t89.5 62t103 47.5t116 19q74 0 135.5 -25.5t105.5 -73t68.5 -114.5t24.5 -149v-718h-400v658q0 40 -11 71t-30.5 51.5t-45 31t-53.5 10.5q-45 0 -86.5 -22t-79.5 -52v-748h-400v1060z" />
    <glyph glyph-name="g" unicode="g" horiz-adv-x="1274" 
d="M290 -90q-92 32 -137 77.5t-45 96.5q0 36 21 66t55 56.5t77 49.5l87 46q-81 27 -134 67.5t-84 88t-43.5 97.5t-12.5 97q0 94 42 172.5t115.5 135.5t174.5 88.5t219 31.5q83 0 163.5 -16.5t137.5 -51.5l32 16.5t41 15.5t56 11.5t77 4.5h142l-52 -236h-154q12 -26 21 -56
t9 -73q0 -90 -43.5 -165.5t-116.5 -130t-169 -85t-201 -30.5h-36q-9 -5 -20.5 -12.5t-21 -17t-16 -21.5t-6.5 -26q0 -26 23 -43.5t67 -17.5h232q72 0 145.5 -13.5t133.5 -45t97.5 -82t37.5 -124.5t-42 -151.5t-127 -141t-214 -104t-304 -40.5q-102 0 -189.5 15t-151.5 44
t-100 71t-36 95q0 42 21.5 75.5t56.5 62.5t80 54zM426 687q0 -43 14 -77.5t37.5 -59t54.5 -37.5t66 -13q33 0 62.5 12t51.5 35t35 56t13 74q0 43 -14 77.5t-37 59t-54.5 37.5t-65.5 13q-33 0 -62.5 -12t-52 -35t-35.5 -56t-13 -74zM470 -112q-28 -22 -49 -46t-21 -56
q0 -47 51.5 -76.5t151.5 -29.5q61 0 106 11t75 29t45 40.5t15 44.5q0 35 -36.5 59t-111.5 24h-226z" />
    <glyph glyph-name="r" unicode="r" horiz-adv-x="1066" 
d="M140 1060h342l46 -308l34 61.5l31.5 56l25 44t13.5 24.5q19 31 41.5 57t51 45t64 29.5t80.5 10.5q29 0 66.5 -8t70.5 -25l-44 -357q-10 2 -26.5 3.5t-35.5 2.5t-37 1.5t-31 0.5q-44 0 -87 -6t-81.5 -17.5t-70.5 -28t-53 -36.5v-610h-400v1060z" />
    <glyph glyph-name="o" unicode="o" horiz-adv-x="1356" 
d="M641 -20q-144 0 -249.5 42.5t-174.5 114.5t-103 166.5t-34 198.5q0 122 44.5 227.5t127 183.5t199.5 122.5t263 44.5q141 0 246.5 -41.5t175.5 -113t105 -166.5t35 -202q0 -125 -45.5 -231t-129 -183t-200.5 -120t-260 -43zM684 216q38 0 71.5 17t58 54t38.5 93.5
t14 136.5q0 74 -13 134.5t-37.5 103t-61 66t-82.5 23.5q-81 0 -131.5 -75t-50.5 -228q0 -79 14 -139.5t39.5 -102t61 -62.5t79.5 -21z" />
    <glyph glyph-name="y" unicode="y" horiz-adv-x="1176" 
d="M30 1060h427l131 -566l39 -214h20l37 214l133 566h329l-489 -1596h-343l231 536h-189z" />
    <glyph glyph-name="percent" unicode="%" horiz-adv-x="2353" 
d="M1496 1465h306l-946 -1465h-306zM570 630q-90 0 -165.5 29t-129.5 82.5t-84.5 129t-30.5 167.5q0 100 35 182.5t96 141t143 91t177 32.5q90 0 165.5 -29.5t130 -83.5t85 -129.5t30.5 -167.5q0 -100 -35 -182t-96.5 -140.5t-144 -90.5t-176.5 -32zM454 1064
q0 -46 10.5 -84t29 -65.5t44 -42.5t56.5 -15q59 0 96 51.5t37 141.5q0 46 -10.5 84.5t-29.5 66t-44.5 42.5t-56.5 15q-59 0 -95.5 -52t-36.5 -142zM1741 -20q-90 0 -165.5 29t-129.5 82.5t-84.5 129t-30.5 167.5q0 100 35 182.5t96 141t143 91t177 32.5q90 0 165.5 -29.5
t130 -83.5t85 -129.5t30.5 -167.5q0 -100 -35 -182t-96.5 -140.5t-144 -90.5t-176.5 -32zM1625 414q0 -46 10.5 -84t29 -65.5t44 -42.5t56.5 -15q59 0 96 51.5t37 141.5q0 46 -10.5 84.5t-29.5 66t-44.5 42.5t-56.5 15q-59 0 -95.5 -52t-36.5 -142z" />
    <glyph glyph-name="zero" unicode="0" horiz-adv-x="1476" 
d="M958 720q0 118 -13 215t-40 166t-69.5 107t-101.5 38q-58 0 -99 -36.5t-67 -103t-38 -159t-12 -204.5q0 -118 13 -214.5t40.5 -165.5t70 -106.5t101.5 -37.5q58 0 99 36.5t66.5 102.5t37.5 158t12 204zM1376 756q0 -198 -51.5 -344t-140.5 -242t-210.5 -143t-260.5 -47
q-138 0 -251 45.5t-193.5 136.5t-124.5 227t-44 318q0 198 51.5 344t141 242.5t210.5 144t261 47.5q138 0 251 -46t193 -137t124 -228t44 -318z" />
    <glyph glyph-name="one" unicode="1" horiz-adv-x="988" 
d="M402 0v1114h-342v185q97 0 175.5 11t141.5 32t112 52t88 71h231v-1465h-406z" />
    <glyph glyph-name="two" unicode="2" horiz-adv-x="1261" 
d="M81 100q162 180 274 315.5t182.5 240t102 185.5t31.5 154q0 64 -21 108t-56 71.5t-81 40t-96 12.5q-40 0 -77.5 -6.5t-71 -17t-63 -23l-53.5 -23.5v177q43 33 97.5 60.5t117 47.5t131 31.5t140.5 11.5q107 0 191 -26t142 -76t88.5 -123t30.5 -167q0 -90 -30.5 -180.5
t-97.5 -192t-173 -219.5t-257 -262h629l-49 -239h-1032z" />
    <glyph glyph-name="three" unicode="3" horiz-adv-x="1191" 
d="M1057 1193q0 -53 -21 -96.5t-61.5 -82.5t-99.5 -76.5t-135 -78.5v-20q79 -17 142.5 -47.5t107.5 -75t67.5 -101t23.5 -125.5q0 -57 -18.5 -115.5t-62.5 -113t-116.5 -102t-180.5 -83t-254.5 -56t-338.5 -20.5v239q122 0 210.5 10t150 26.5t99 39.5t58.5 48.5t28 52.5
t7 53q0 55 -28.5 93t-78 60.5t-117 30.5t-145.5 3v187l68.5 18.5t76 24.5t74 32.5t63.5 42t45 52.5t17 66q0 38 -20 66t-51.5 46t-72 27t-80.5 9q-39 0 -78 -6t-75.5 -16t-70 -22.5t-61.5 -25.5v177q45 34 102.5 62t122.5 47.5t134.5 30.5t138.5 11q105 0 185.5 -24.5
t135 -65t82 -93t27.5 -109.5z" />
    <glyph glyph-name="four" unicode="4" horiz-adv-x="1360" 
d="M50 514l510 951h526v-844h224l-42 -239h-182v-382h-406v382h-630v132zM680 621v403l8 206h-20l-93 -209l-213 -400h318z" />
    <glyph glyph-name="five" unicode="5" horiz-adv-x="1108" 
d="M180 1465h809l-41 -239h-530l-24 -249q142 0 254 -30t190 -85.5t119 -133t41 -173.5q0 -57 -16.5 -120.5t-56 -125t-105 -117.5t-164 -98.5t-233 -68t-310.5 -25.5v239q127 0 214.5 21.5t141 58t77 85t23.5 101.5q0 60 -25.5 103.5t-69 72.5t-101 43t-121.5 14h-142z" />
    <glyph glyph-name="six" unicode="6" horiz-adv-x="1360" 
d="M680 803q20 14 46 28.5t56.5 26.5t64.5 20t70 8q67 0 131 -26.5t113 -76t79 -120.5t30 -159q0 -102 -40.5 -196.5t-117.5 -167t-189 -116.5t-255 -44q-152 0 -261.5 48t-180 128t-103.5 184t-33 217q0 102 26.5 209t80 208t134.5 190t190.5 156t246.5 106t304 39h70v-239
h-58q-160 0 -270 -45t-178 -125t-98 -191.5t-30 -243.5q0 -82 11 -155t35 -128t61 -87t89 -32q65 0 106.5 63t41.5 176q0 96 -32.5 152.5t-102.5 56.5q-10 0 -18 -1t-19 -3v140z" />
    <glyph glyph-name="seven" unicode="7" horiz-adv-x="1134" 
d="M80 1226l42 239h932v-112q-136 -337 -252.5 -675.5t-216.5 -677.5h-417q119 310 251 613t281 613h-620z" />
    <glyph glyph-name="nine" unicode="9" horiz-adv-x="1360" 
d="M680 662q-20 -14 -46 -28.5t-56.5 -26.5t-64.5 -20t-70 -8q-68 0 -131.5 26.5t-112.5 76t-79 120t-30 159.5q0 102 40.5 196.5t117.5 167t189 116.5t255 44q152 0 261.5 -48t180 -128t103.5 -184t33 -217q0 -102 -26.5 -209t-80 -208t-134.5 -190t-190.5 -156t-247 -106
t-303.5 -39h-70v239h58q160 0 270 45t178 125t98 191.5t30 243.5q0 82 -11 155t-35 128t-61 87t-89 32q-65 0 -106.5 -63t-41.5 -176q0 -96 32 -152.5t103 -56.5q10 0 18 1t19 3v-140z" />
    <glyph glyph-name="eight" unicode="8" horiz-adv-x="1351" 
d="M398 728q-48 26 -91.5 57.5t-76 71t-51.5 90t-19 114.5q0 91 39.5 168.5t112 134.5t174.5 89t226 32q111 0 201 -25.5t153.5 -71.5t98 -108.5t34.5 -135.5q0 -59 -21 -108.5t-57 -92.5t-84 -78.5t-102 -65.5q63 -32 120 -66.5t100.5 -78t69 -99.5t25.5 -131
q0 -94 -41.5 -175t-119.5 -141t-190 -94t-251 -34q-128 0 -229.5 28.5t-172 78.5t-108.5 117.5t-38 145.5q0 64 24.5 118t65.5 100t95 85.5t113 74.5zM593 640q-64 -42 -99 -101t-33 -122q1 -42 18 -78t47 -62.5t71 -42t91 -15.5q45 0 82.5 12.5t64.5 35.5t42.5 55t15.5 70
q0 45 -21.5 79t-61 62t-95 53.5t-122.5 53.5zM725 884q69 48 99 101t28 105q-1 38 -16 67t-39.5 49t-56 30t-65.5 10t-64.5 -10t-54 -28.5t-37.5 -46t-14 -63.5q0 -37 16 -66.5t44.5 -55t69 -48t90.5 -44.5z" />
    <glyph glyph-name="at" unicode="@" horiz-adv-x="2410" 
d="M1370 168q-39 -44 -75 -79t-72 -59t-74.5 -37t-82.5 -13q-77 0 -139 36.5t-105.5 95.5t-67 133t-23.5 149q0 95 39 190t114.5 170.5t187.5 122.5t259 47q69 0 160.5 -13.5t204.5 -51.5v-597q66 30 111.5 81t74 112.5t41.5 128t13 126.5q0 89 -25 161t-69 128t-104 97
t-130.5 67.5t-148.5 39t-158 12.5q-180 0 -327.5 -60t-253 -168.5t-163 -259.5t-57.5 -332q0 -159 46.5 -290t139.5 -224.5t232 -144.5t324 -51q67 0 145.5 7.5t160.5 25.5t163 46.5t153 70.5v-174q-77 -63 -165.5 -107t-181.5 -71.5t-185.5 -40t-177.5 -12.5
q-119 0 -237.5 23.5t-227 72.5t-201.5 124.5t-161.5 179t-107.5 236t-39 295.5q0 169 42.5 317t119 271t182.5 220t233.5 164t272 102t298.5 35q109 0 218 -18.5t209.5 -56.5t187 -95.5t150.5 -136.5t100.5 -179t36.5 -223q0 -148 -55 -278t-160 -234.5t-257.5 -180.5
t-347.5 -116zM1370 663q-8 5 -21 9.5t-28.5 8t-31.5 5.5t-31 2q-48 0 -84.5 -21.5t-62 -56t-38.5 -78.5t-13 -88q0 -37 9 -74t26 -66t41 -47.5t54 -18.5q23 0 48 11t48.5 29.5t45 42t38.5 48.5v294z" />
    <glyph glyph-name="underscore" unicode="_" horiz-adv-x="1047" 
d="M1017 0v-255h-987v255h987z" />
    <glyph glyph-name="braceleft" unicode="{" horiz-adv-x="1037" 
d="M303 276q0 59 -16 101t-43.5 71.5t-64.5 49t-79 33.5v182q42 14 79 33.5t64.5 49t43.5 71.5t16 101v153q0 114 35.5 203.5t102.5 151t164 94t220 32.5h102v-255h-102q-61 0 -107.5 -18t-77.5 -49.5t-46.5 -74.5t-15.5 -94v-143q0 -135 -54 -219t-172 -127
q118 -44 172 -127.5t54 -218.5v-143q0 -51 15.5 -94.5t46.5 -75t77.5 -49t107.5 -17.5h102v-255h-102q-123 0 -220 32.5t-164 94t-102.5 151t-35.5 203.5v153z" />
    <glyph glyph-name="braceright" unicode="}" horiz-adv-x="1037" 
d="M734 123q0 -114 -35.5 -203.5t-102.5 -151t-164 -94t-220 -32.5h-102v255h102q61 0 107.5 17.5t77.5 49t46.5 75t15.5 94.5v143q0 67 13 121.5t40.5 97t70.5 74t102 53.5q-119 43 -172.5 127t-53.5 219v143q0 51 -15.5 94t-46.5 74.5t-77.5 49.5t-107.5 18h-102v255h102
q123 0 220 -32.5t164 -94t102.5 -151t35.5 -203.5v-153q0 -59 16 -101t43.5 -71.5t64.5 -49t79 -33.5v-182q-42 -14 -79 -33.5t-64.5 -49t-43.5 -71.5t-16 -101v-153z" />
    <glyph glyph-name="numbersign" unicode="#" horiz-adv-x="1788" 
d="M381 300h-241l48 255h241l66 355h-241l47 255h241l56 300h255l-56 -300h355l56 300h255l-56 -300h241l-47 -255h-241l-66 -355h241l-48 -255h-241l-55 -300h-255l55 300h-355l-55 -300h-255zM684 555h355l66 355h-355z" />
    <glyph glyph-name="less" unicode="&#x3c;" horiz-adv-x="1172" 
d="M150 735l812 439v-289l-521 -283l521 -283v-289l-812 439v266z" />
    <glyph glyph-name="Euro" unicode="&#x20ac;" horiz-adv-x="1601" 
d="M762 445q25 -51 65 -90t91 -65t111 -39t126 -13q81 0 154.5 17t137.5 48v-175q-46 -37 -102.5 -64.5t-119 -46t-127.5 -28t-128 -9.5q-113 0 -213 32t-181.5 92t-142 146.5t-94.5 194.5h-189v215h1056l-73 -215h-371zM349 1015q50 114 133 202t186 147.5t219 90t232 30.5
q32 0 75.5 -2.5t91 -8.5t95.5 -15.5t90 -22.5l-84 -245l-20 -8q-63 34 -126 48.5t-123 14.5q-59 0 -113 -15.5t-100.5 -45t-84.5 -72.5t-65 -98h571l-73 -215h-1103v215h199z" />
    <glyph glyph-name="dagger" unicode="&#x2020;" horiz-adv-x="1447" 
d="M856 1082h391v-255h-391v-1363h-265v1363h-391v255h391v383h265v-383z" />
    <glyph glyph-name="guillemotleft" unicode="&#xab;" 
d="M90 634l328 396l189 -175l-246 -281l246 -281l-189 -175l-328 396v120zM613 634l328 396l189 -175l-246 -281l246 -281l-189 -175l-328 396v120z" />
    <glyph glyph-name="germandbls" unicode="&#xdf;" horiz-adv-x="1447" 
d="M1300 1259q0 -55 -16 -95t-40 -71t-52 -56t-52 -50t-40 -52.5t-16 -62.5q0 -43 23 -74t58 -59t75.5 -57.5t75.5 -70t58 -95.5t23 -134q0 -88 -31 -161.5t-89.5 -127t-141.5 -83.5t-187 -30q-32 0 -70 3t-78.5 9t-82 14.5t-80.5 19.5l47 252l24 14q63 -36 122 -56t99 -20
q47 0 77 28t30 81q0 47 -24 80t-60 61t-78 56.5t-78 66t-60 89.5t-24 127q0 60 15 100t38 69t49 51.5t49 46.5t38 54.5t15 75.5q0 46 -16 80.5t-41 57.5t-56 34.5t-61 11.5t-65.5 -13t-66 -45.5t-50.5 -87.5t-20 -140v-1100h-400v1062q0 120 43 222.5t124 177.5t196.5 117.5
t261.5 42.5q107 0 204 -23.5t170.5 -69.5t117 -114t43.5 -156z" />
    <glyph glyph-name="bullet" unicode="&#x2022;" horiz-adv-x="944" 
d="M464 301q-55 0 -103 21t-84 57.5t-56.5 86t-20.5 107.5q0 57 22.5 106.5t60 86.5t87.5 58t106 21q55 0 104 -21t85.5 -58t57.5 -86.5t21 -106.5q0 -58 -23 -107.5t-62 -86t-89.5 -57.5t-105.5 -21z" />
    <glyph glyph-name="exclamdown" unicode="&#xa1;" horiz-adv-x="778" 
d="M529 456l84 -861h-433l83 861h266zM394 1080q46 0 86.5 -17t71 -47t48.5 -71.5t18 -90.5q0 -51 -19.5 -93.5t-52 -72.5t-74.5 -47t-88 -17t-86.5 17t-71 47t-48.5 71.5t-18 90.5q0 51 19.5 93.5t52.5 72.5t75 47t87 17z" />
    <glyph glyph-name="cent" unicode="&#xa2;" horiz-adv-x="1251" 
d="M1058 310q-54 -45 -106 -73t-103 -43v-357h-255v340q-105 12 -185.5 53.5t-136 105.5t-84 148.5t-28.5 183.5q0 106 32 199.5t89.5 168.5t137 129.5t175.5 83.5v357h255v-335h19q15 0 38.5 -2t51.5 -6.5t58.5 -11t59.5 -15.5l-54 -246l-18 -10q-15 9 -36 19t-46 18
t-53 13.5t-57 5.5q-55 0 -99.5 -21.5t-76 -61t-49 -96.5t-17.5 -128q0 -81 22 -137.5t61 -92.5t94 -52.5t121 -16.5q22 0 43 2t43.5 7t47.5 13t56 20v-162z" />
    <glyph glyph-name="plusminus" unicode="&#xb1;" horiz-adv-x="1407" 
d="M836 1017h371v-255h-371v-333h-265v333h-371v255h371v333h265v-333zM1207 255v-255h-1007v255h1007z" />
    <glyph glyph-name="sterling" unicode="&#xa3;" horiz-adv-x="1459" 
d="M213 838h153v98q0 129 46.5 231t129 172.5t195 108t244.5 37.5q25 0 58 -2t69 -6t73 -10.5t71 -15.5l-59 -249l-22 -10q-44 26 -91.5 40t-88.5 14q-106 0 -162.5 -68t-56.5 -210v-130h388l-40 -215h-348v-63q0 -49 -9.5 -91.5t-26.5 -80.5t-39.5 -71.5t-47.5 -63.5v-20
l201 6h409l-42 -239h-1037v76q58 50 94.5 101.5t57 103.5t27.5 104t7 103v135h-184z" />
    <glyph glyph-name="currency" unicode="&#xa4;" horiz-adv-x="1659" 
d="M322 761q0 72 18.5 136.5t52.5 120.5l-193 193l181 181l194 -195q60 35 126.5 54t136.5 19q66 0 129 -18t120 -51l191 191l181 -181l-190 -190q32 -56 50 -120t18 -136t-19 -137t-53 -121l194 -193l-181 -181l-195 195q-60 -35 -126.5 -53.5t-135.5 -18.5
q-66 0 -129 17.5t-120 50.5l-191 -191l-181 181l190 190q-32 56 -50 120.5t-18 136.5zM587 761q0 -56 20.5 -102t54.5 -79t77.5 -51t90.5 -18q46 0 90 18t77.5 51t54 80t20.5 105q0 56 -20.5 102t-54.5 79t-78 51t-90 18q-47 0 -90.5 -18t-77 -51t-54 -80t-20.5 -105z" />
    <glyph glyph-name="s" unicode="s" horiz-adv-x="1054" 
d="M124 304l18 10q42 -23 86.5 -41t88 -30.5t85.5 -19.5t80 -7q40 0 67 7.5t43.5 19.5t24 27.5t7.5 31.5q0 30 -22.5 48.5t-59 31.5t-83 23t-95.5 24t-95.5 34.5t-83 53t-59 81t-22.5 118.5q0 82 33 149t99 115t164.5 74t228.5 26q34 0 75.5 -2t83 -6t80.5 -10.5t68 -15.5
l-54 -248l-18 -10q-77 30 -146.5 43t-118.5 13q-39 0 -65 -7t-41.5 -19t-22 -26.5t-6.5 -29.5q0 -32 22.5 -51t59 -32t83 -23t95.5 -23t95.5 -32t83 -51t59 -79.5t22.5 -116.5q0 -73 -28 -140.5t-89 -119.5t-156.5 -83t-230.5 -31q-50 0 -103.5 4.5t-107 14t-104.5 23.5
t-95 34z" />
    <glyph glyph-name="ampersand" unicode="&#x26;" horiz-adv-x="1579" 
d="M1159 1171q0 -69 -28.5 -132.5t-72.5 -118t-99 -99.5t-107 -77l108 -100t117 -98q20 37 33 63.5t21.5 51t15.5 53t15 70.5h280q-31 -101 -71.5 -191.5t-98.5 -180.5q66 -47 124.5 -84l122.5 -75l-183 -281l-130 87l-125 91q-42 -41 -88.5 -72.5t-101 -53.5t-119 -33
t-141.5 -11q-123 0 -218.5 27.5t-160.5 76.5t-98.5 116.5t-33.5 147.5q0 73 26 133t68.5 110t98 90.5t114.5 74.5q-77 78 -121.5 164t-44.5 181q0 87 38 157.5t104 121t155.5 78t193.5 27.5q93 0 168 -22t128.5 -63t82 -99t28.5 -130zM904 293l-158 136t-154 150
q-44 -28 -71.5 -72t-27.5 -101q0 -41 15.5 -75t44 -59t69.5 -39t92 -14q49 0 100.5 16t89.5 58zM591 1113q0 -29 9.5 -55t25 -50.5t35.5 -48.5l41 -51q30 20 58 44t49.5 51.5t34.5 58t13 62.5q0 54 -35.5 88t-95.5 34q-62 0 -98.5 -37t-36.5 -96z" />
    <glyph glyph-name="comma" unicode="," horiz-adv-x="784" 
d="M140 -358q81 91 135.5 181t75.5 185q-15 16 -35 31.5t-43 28.5t-47.5 23t-48.5 16q-8 23 -12.5 48t-4.5 51q0 52 20 94.5t52.5 72.5t74.5 46.5t87 16.5q42 0 83.5 -16t74 -48t52.5 -82t20 -117q0 -58 -16 -127.5t-56.5 -147.5t-108.5 -163t-171 -174z" />
    <glyph glyph-name="t" unicode="t" horiz-adv-x="1047" 
d="M222 824h-212l24 164q54 21 93 39t69 37.5t53 42.5t45 54t45.5 71.5l54.5 95.5h200v-268h372l-52 -236h-292v-406q0 -100 50.5 -140t148.5 -40q35 0 72.5 5.5t73.5 20.5v-162q-83 -63 -185 -92.5t-202 -29.5t-168.5 28t-110.5 79.5t-60.5 124.5t-18.5 164v448z" />
    <glyph glyph-name="colon" unicode=":" horiz-adv-x="818" 
d="M404 -20q-46 0 -86.5 17t-71 47t-48.5 71.5t-18 90.5q0 51 19.5 93.5t52 72.5t74.5 47t88 17t86.5 -17t71 -47t48.5 -71.5t18 -90.5q0 -51 -19.5 -93.5t-52.5 -72.5t-75 -47t-87 -17zM404 624q-46 0 -86.5 17t-71 47t-48.5 71.5t-18 90.5q0 51 19.5 93.5t52 72.5t74.5 47
t88 17t86.5 -17t71 -47t48.5 -71.5t18 -90.5q0 -51 -19.5 -93.5t-52.5 -72.5t-75 -47t-87 -17z" />
    <glyph glyph-name="exclam" unicode="!" horiz-adv-x="778" 
d="M249 604l-84 861h433l-83 -861h-266zM384 -20q-46 0 -86.5 17t-71 47t-48.5 71.5t-18 90.5q0 51 19.5 93.5t52 72.5t74.5 47t88 17t86.5 -17t71 -47t48.5 -71.5t18 -90.5q0 -51 -19.5 -93.5t-52.5 -72.5t-75 -47t-87 -17z" />
    <glyph glyph-name="copyright" unicode="&#xa9;" horiz-adv-x="2034" 
d="M200 726q0 180 61 330t171 258t263 168t336 60q186 0 334.5 -61.5t253 -169t160 -254t55.5 -316.5q0 -179 -61 -329t-171 -258t-263 -168.5t-337 -60.5q-125 0 -232.5 28t-196.5 79t-158.5 123.5t-117 161.5t-72.5 192.5t-25 216.5zM436 741q0 -118 39 -226.5t114.5 -192
t185.5 -133t252 -49.5q141 0 248 49t179 130.5t108 187t36 218.5q0 119 -39.5 228t-115 192t-185.5 132.5t-251 49.5t-248 -49t-179 -131t-108 -187.5t-36 -218.5zM1299 426q-125 -96 -275 -96q-78 0 -147.5 26t-121.5 75.5t-82.5 121t-30.5 161.5q0 103 39 182t104 132.5
t148 81t172 27.5q35 0 83.5 -6.5t113.5 -27.5l-37 -223l-10 -4q-48 24 -86 35t-74 11q-35 0 -69 -10.5t-60.5 -32.5t-43 -56.5t-16.5 -82.5q0 -43 13.5 -79t39.5 -62t63.5 -40.5t85.5 -14.5q35 0 86 10.5t105 42.5v-171z" />
    <glyph glyph-name="onesuperior" unicode="&#xb9;" horiz-adv-x="723" 
d="M247 514v668h-207v175q128 0 215.5 28t138.5 80h209v-951h-356z" />
    <glyph glyph-name="twosuperior" unicode="&#xb2;" horiz-adv-x="958" 
d="M81 595q74 75 138 147t111.5 139.5t74.5 130t27 119.5q0 39 -13 66t-34.5 43t-51 23t-62.5 7q-42 0 -79.5 -8t-57.5 -17v146q27 17 65 34t83 30.5t95.5 21.5t102.5 8q84 0 145 -21.5t100.5 -57.5t58.5 -83t19 -97q0 -63 -27.5 -126t-74 -125t-108 -124t-129.5 -122h394
l-42 -215h-736z" />
    <glyph glyph-name="threesuperior" unicode="&#xb3;" horiz-adv-x="884" 
d="M771 1293q0 -42 -21 -73t-52.5 -55t-68.5 -42l-68 -32v-20q47 -11 87.5 -29.5t70.5 -47t47.5 -68t17.5 -90.5q0 -39 -12 -78t-41.5 -75t-80 -67t-126.5 -53.5t-180.5 -35.5t-243.5 -13v215q102 0 164 8.5t95.5 22.5t44 31.5t10.5 36.5q0 54 -60 76.5t-167 17.5v149
q30 5 67 14t69.5 24t54 35.5t21.5 48.5q0 19 -11 33.5t-30.5 24t-46 14.5t-56.5 5q-43 0 -78 -8t-64 -18v142q31 21 72 39t88.5 31.5t98.5 21t102 7.5q77 0 133 -16.5t92.5 -43.5t54 -61.5t17.5 -70.5z" />
    <glyph glyph-name="onequarter" unicode="&#xbc;" horiz-adv-x="2190" 
d="M1219 1465h295l-715 -1465h-295zM1167 334l296 617h480v-512h137l-31 -215h-106v-224h-341v224h-435v110zM1602 439v211l4 152h-20l-57 -139l-104 -224h177zM277 514v668h-207v175q128 0 215.5 28t138.5 80h209v-951h-356z" />
    <glyph glyph-name="infinity" unicode="&#x221e;" horiz-adv-x="1986" 
d="M868 560q-24 57 -49.5 102.5t-54 77.5t-62 49t-73.5 17q-38 0 -73 -15.5t-62 -43.5t-43.5 -68.5t-16.5 -89.5q0 -53 18.5 -93.5t48.5 -67.5t68.5 -40.5t78.5 -13.5q38 0 68.5 12.5t56.5 36t49 58t46 79.5zM964 380q-31 -46 -72 -90t-90.5 -78.5t-105 -55.5t-115.5 -21
q-70 0 -141.5 30.5t-129 88.5t-94 140t-36.5 186q0 111 42 197.5t108 146t148.5 90.5t163.5 31q62 0 113 -18t94.5 -50t80.5 -77t72 -100h20q33 48 75 92.5t91 78t103.5 54t113.5 20.5q70 0 141.5 -30.5t129 -88.5t94 -140.5t36.5 -185.5q0 -111 -42 -197.5t-108.5 -146
t-149 -90.5t-163.5 -31q-61 0 -111.5 17.5t-93.5 49.5t-81 77t-73 101h-20zM1118 620q24 -57 49.5 -102.5t54 -77.5t62 -49t73.5 -17q38 0 73 15.5t62 43.5t43.5 68t16.5 90q0 53 -18.5 93.5t-48.5 67.5t-68.5 40.5t-78.5 13.5q-38 0 -68.5 -12.5t-56.5 -36t-49 -58
t-46 -79.5z" />
    <glyph glyph-name="approxequal" unicode="&#x2248;" horiz-adv-x="1440" 
d="M909 911q68 0 126 38t107 92l128 -175q-38 -60 -83 -100.5t-92.5 -65t-95.5 -34.5t-93 -10q-65 0 -115 16t-93 35t-83 35t-84 16q-67 0 -125 -37.5t-108 -92.5l-128 175q69 110 163 160t199 50q66 0 116.5 -16t93 -35t82.5 -35t85 -16zM909 427q68 0 126 38t107 92
l128 -175q-38 -60 -83 -100.5t-92.5 -65t-95.5 -34.5t-93 -10q-65 0 -115 16t-93 35t-83 35t-84 16q-67 0 -125 -37.5t-108 -92.5l-128 175q69 110 163 160t199 50q66 0 116.5 -16t93 -35t82.5 -35t85 -16z" />
    <glyph glyph-name="plus" unicode="+" horiz-adv-x="1307" 
d="M786 719h371v-255h-371v-383h-265v383h-371v255h371v383h265v-383z" />
    <glyph glyph-name="parenright" unicode=")" horiz-adv-x="914" 
d="M100 -243q57 79 104 172t81 200.5t52.5 231t18.5 263.5q0 139 -18.5 261.5t-52.5 230t-81 200t-104 171.5l172 130q108 -93 190.5 -198t138.5 -225t84.5 -256.5t28.5 -293.5q0 -315 -112.5 -573t-329.5 -444z" />
    <glyph glyph-name="parenleft" unicode="(" horiz-adv-x="914" 
d="M814 1487q-57 -80 -104 -172.5t-81 -200t-52.5 -231t-18.5 -263.5q0 -139 18.5 -261.5t52.5 -230t81 -200t104 -171.5l-172 -130q-108 93 -190.5 198t-138.5 225t-84.5 256.5t-28.5 293.5q0 315 112.5 573t329.5 444z" />
    <glyph glyph-name="circumflex" unicode="&#x2c6;" horiz-adv-x="1234" 
d="M200 1240l236 362h362l236 -362h-300l-119 200l-119 -200h-296z" />
    <glyph glyph-name="acute" unicode="&#xb4;" horiz-adv-x="982" 
d="M200 1240l196 362h386l-286 -362h-296z" />
    <glyph glyph-name="grave" unicode="`" horiz-adv-x="986" 
d="M486 1240l-286 362h390l196 -362h-300z" />
    <glyph glyph-name="dieresis" unicode="&#xa8;" horiz-adv-x="1289" 
d="M388 1240q-39 0 -73.5 14t-60 37.5t-40 55t-14.5 66.5q0 36 15 69.5t41 59t61.5 41t76.5 15.5q39 0 72.5 -14t58.5 -38t39 -56t14 -67q0 -36 -14 -69t-39 -58.5t-60 -40.5t-77 -15zM899 1240q-39 0 -73.5 14t-60 37.5t-40 55t-14.5 66.5q0 36 15 69.5t41 59t61.5 41
t76.5 15.5q39 0 72.5 -14t58.5 -38t39 -56t14 -67q0 -36 -14 -69t-39 -58.5t-60 -40.5t-77 -15z" />
    <glyph glyph-name="caron" unicode="&#x2c7;" horiz-adv-x="1234" 
d="M1034 1602l-236 -362h-362l-236 362h300l119 -200l119 200h296z" />
    <glyph glyph-name="uni02C9" unicode="&#x2c9;" horiz-adv-x="1042" 
d="M842 1495v-255h-642v255h642z" />
    <glyph glyph-name="ordfeminine" unicode="&#xaa;" horiz-adv-x="1262" 
d="M701 681l-61.5 -48.5t-69.5 -44t-78 -32t-87 -12.5q-69 0 -116 26.5t-75.5 66t-41 85t-12.5 83.5q0 67 34 122.5t98 96t155.5 63t205.5 22.5h29v42q0 61 -36.5 90t-96.5 29q-33 0 -68 -8t-70 -21.5t-70 -32t-68 -38.5l-15 8l-62 212q117 48 226 71.5t218 23.5
q83 0 154 -15.5t123 -51.5t81.5 -96t29.5 -148v-320q0 -37 14 -57.5t47 -20.5q11 0 18 0.5t15 2.5v-144q-55 -38 -110.5 -64.5t-119.5 -26.5q-67 0 -115 33t-76 104zM682 985h-57q-84 0 -127 -26t-43 -84q0 -27 8.5 -45.5t22.5 -30.5t32.5 -17.5t38.5 -5.5q19 0 38 4.5
t35.5 11.5t29.5 14.5t22 13.5v165z" />
    <glyph glyph-name="ccedilla" unicode="&#xe7;" horiz-adv-x="1051" 
d="M978 118q-53 -44 -103 -71.5t-101 -42.5q21 -29 38.5 -69t17.5 -93t-22.5 -106.5t-71.5 -96.5t-126.5 -69.5t-186.5 -26.5h-55v194h51q50 0 85 13t57.5 35t33 49t10.5 56q0 41 -25 90q-120 3 -213.5 41t-157 103.5t-96.5 155t-33 196.5q0 135 51 246t139.5 190.5
t208.5 123.5t258 44q22 0 50.5 -1.5t62 -5.5t70.5 -11t76 -18l-54 -246l-18 -10q-15 9 -36 19t-46 18t-53 13.5t-57 5.5q-55 0 -99.5 -21.5t-76 -61t-49 -96.5t-17.5 -128q0 -81 22 -137.5t61 -92.5t94 -52.5t121 -16.5q22 0 43 2t43.5 7t47.5 13t56 20v-162z" />
    <glyph glyph-name="Ccedilla" unicode="&#xc7;" horiz-adv-x="1437" 
d="M1322 133q-58 -48 -138.5 -81t-171.5 -52q20 -28 36.5 -67.5t16.5 -90.5q0 -53 -22.5 -106.5t-71.5 -96.5t-126.5 -69.5t-186.5 -26.5h-55v194h51q50 0 85 13t57.5 35t33 49t10.5 56q0 43 -25 90h-1q-153 0 -284 50t-226.5 142.5t-149.5 223.5t-54 292q0 128 33 237.5
t92 198t139.5 156t175 113t199.5 69t212 23.5q34 0 80.5 -2.5t98 -8.5t105 -15.5t102.5 -22.5l-58 -256l-20 -8q-86 42 -165 58t-142 16q-98 0 -178 -34.5t-137 -98t-88 -155t-31 -205.5q0 -119 34 -214.5t98.5 -162t157 -102.5t209.5 -36q49 0 91.5 6t80 16t70.5 22.5
t63 25.5v-175z" />
    <glyph glyph-name="eth" unicode="&#xf0;" horiz-adv-x="1362" 
d="M468 1313q-48 22 -100.5 40t-109.5 35l100 214q124 -29 229 -70t194 -93l292 119l57 -140l-200 -81q91 -74 157 -160.5t109.5 -182t64.5 -198.5t21 -210q0 -135 -47.5 -246.5t-132.5 -191.5t-203 -124t-259 -44q-149 0 -255.5 47t-174 123.5t-99 173t-31.5 196.5
q0 139 47 243.5t120 175t160.5 106t168.5 35.5q24 0 51 -4.5t54 -12t51.5 -18.5t44.5 -23h20q-26 58 -67 106t-95 89l-319 -130l-58 141zM872 602q0 45 -4 87t-15 93q-33 30 -75.5 46t-81.5 16q-44 0 -81 -17.5t-64 -53t-42 -90t-15 -127.5q0 -68 13 -129.5t38.5 -108
t62.5 -74.5t86 -28q85 0 131.5 94t46.5 292z" />
    <glyph glyph-name="eogonek" unicode="&#x119;" horiz-adv-x="1242" 
d="M1102 118q-54 -38 -105 -62.5t-102 -40.5q-24 -15 -47 -32t-40.5 -36t-28.5 -40.5t-11 -44.5q0 -18 7 -36.5t22 -34t38 -25t55 -9.5q24 0 55 6t52 17v-128q-17 -15 -44 -31t-61 -28.5t-72 -21t-76 -8.5q-53 0 -95 16t-71.5 44t-45.5 66t-16 81q0 55 27 108t87 103
q-132 3 -234.5 38t-172.5 100t-106.5 158t-36.5 210q0 141 49.5 251t132.5 186t192 116t229 40q106 0 194 -31.5t151.5 -93t98.5 -152.5t35 -209q0 -45 -4 -76t-8 -48h-660q0 -65 22.5 -109t64.5 -71.5t101.5 -39.5t133.5 -12q61 0 138 9t152 33v-162zM802 594
q0 66 -11 113.5t-30.5 78t-48 44.5t-62.5 14q-75 0 -117.5 -62.5t-42.5 -187.5h312z" />
    <glyph glyph-name="ogonek" unicode="&#x2db;" horiz-adv-x="881" 
d="M628 44l-60 -36.5t-56.5 -42t-42.5 -48.5t-17 -55q0 -18 7 -36.5t22 -34t38 -25t55 -9.5q24 0 55 6t52 17v-128q-17 -15 -44 -31t-61 -28.5t-72 -21t-76 -8.5q-53 0 -95 16t-71.5 44t-45.5 66t-16 81q0 82 63 160t203 144z" />
    <glyph glyph-name="aogonek" unicode="&#x105;" 
d="M714 152l-70.5 -57t-84 -55.5t-96.5 -42.5t-107 -17q-74 0 -126.5 29.5t-85.5 74.5t-48.5 98.5t-15.5 102.5q0 77 36.5 142t111 112.5t186.5 74t262 26.5h22v52q0 77 -47 114.5t-127 37.5q-37 0 -77.5 -9t-81.5 -25t-81 -37t-76 -45l-18 10l-65 232q133 58 253 84t241 26
q96 0 182.5 -17.5t152.5 -58t105 -108.5t39 -168v-394q0 -39 15 -67.5t57 -28.5q14 0 24.5 1t25.5 7v-162q-42 -29 -84.5 -51t-84.5 -35q-20 -14 -38.5 -29.5t-32.5 -32.5t-22 -35.5t-8 -38.5q0 -18 7 -36.5t22 -34t38 -25t55 -9.5q24 0 55 6t52 17v-128q-17 -15 -44 -31
t-61 -28.5t-72 -21t-76 -8.5q-53 0 -95 16t-71.5 44t-45.5 66t-16 81q0 61 34 119t107 112q-41 19 -72 56t-53 95zM698 516h-26q-66 0 -111.5 -10t-73.5 -28.5t-40.5 -46.5t-12.5 -64t10.5 -60.5t28 -40t40 -22t46.5 -6.5q32 0 68 11t71 35v232z" />
    <glyph glyph-name="Aogonek" unicode="&#x104;" horiz-adv-x="1457" 
d="M480 1465h499l438 -1465h-232q-21 -14 -39.5 -29.5t-33 -33t-23 -36t-8.5 -39.5q0 -18 7 -36.5t22 -34t38 -25t55 -9.5q24 0 55 6t52 17v-128q-17 -15 -44 -31t-61 -28.5t-72 -21t-76 -8.5q-53 0 -95 16t-71.5 44t-45.5 66t-16 81q0 64 37.5 125t118.5 116l-79 309h-453
l-81 -320h-332zM851 539l-115 452l-47 226h-20l-47 -226l-114 -452h343z" />
    <glyph glyph-name="Lslash" unicode="&#x141;" horiz-adv-x="1206" 
d="M180 749v716h406v-467l264 163v-253l-264 -163v-506h530l-42 -239h-894v496l-146 -90v253z" />
    <glyph glyph-name="uni0162" unicode="&#x162;" horiz-adv-x="1415" 
d="M910 0h-18q20 -28 36.5 -67.5t16.5 -90.5q0 -53 -22.5 -106.5t-71.5 -96.5t-126.5 -69.5t-186.5 -26.5h-55v194h51q50 0 85 13t57.5 35t33 49t10.5 56q0 26 -8.5 52.5t-28.5 57.5h-179v1226h-444l42 239h1253l-42 -239h-403v-1226z" />
    <glyph glyph-name="uni0163" unicode="&#x163;" horiz-adv-x="1047" 
d="M222 824h-212l24 164q54 21 93 39t69 37.5t53 42.5t45 54t45.5 71.5l54.5 95.5h200v-268h372l-52 -236h-292v-406q0 -100 50.5 -140t148.5 -40q35 0 72.5 5.5t73.5 20.5v-162q-45 -34 -94.5 -57.5t-102.5 -38.5h5q21 -29 39 -69.5t18 -94.5q0 -53 -22.5 -106.5
t-71.5 -96.5t-126.5 -69.5t-186.5 -26.5h-55v194h51q50 0 85 13t57.5 35t33 49t10.5 56q0 43 -25 90h-2q-100 0 -168.5 28t-110.5 79.5t-60.5 124.5t-18.5 164v448z" />
    <glyph glyph-name="uogonek" unicode="&#x173;" horiz-adv-x="1362" 
d="M140 1060h400v-658q0 -77 36.5 -120.5t93.5 -43.5q39 0 76.5 21t75.5 53v748h400v-1060h-146q-21 -14 -39.5 -29.5t-33 -33t-23 -36t-8.5 -39.5q0 -18 7 -36.5t22 -34t38 -25t55 -9.5q24 0 55 6t52 17v-128q-17 -15 -44 -31t-61 -28.5t-72 -21t-76 -8.5q-53 0 -95 16
t-71.5 44t-45.5 66t-16 81q0 64 37.5 125t118.5 117l-42 158q-36 -32 -77.5 -65.5t-87.5 -61t-96 -45.5t-103 -18q-59 0 -117.5 21.5t-106 66t-77 113t-29.5 163.5v716z" />
    <glyph glyph-name="Uogonek" unicode="&#x172;" horiz-adv-x="1544" 
d="M566 1465v-939q0 -77 18 -135t50.5 -96t78 -57t99.5 -19q55 0 102.5 19.5t82 58t54 95.5t19.5 133v940h314v-892q0 -109 -27.5 -202.5t-82 -167t-135.5 -125.5t-188 -77q-42 -28 -74 -62.5t-32 -76.5q0 -18 7 -36.5t22 -34t38 -25t55 -9.5q24 0 55 6t52 17v-128
q-17 -15 -44 -31t-61 -28.5t-72 -21t-76 -8.5q-53 0 -95 16t-71.5 44t-45.5 66t-16 81q0 55 27.5 108t87.5 103q-128 6 -229.5 43.5t-172 107.5t-108.5 172.5t-38 236.5v924h406z" />
    <glyph glyph-name="iogonek" unicode="&#x12f;" horiz-adv-x="680" 
d="M356 0q-21 -14 -39.5 -29.5t-33 -33t-23 -36t-8.5 -39.5q0 -18 7 -36.5t22 -34t38 -25t55 -9.5q24 0 55 6t52 17v-128q-17 -15 -44 -31t-61 -28.5t-72 -21t-76 -8.5q-53 0 -95 16t-71.5 44t-45.5 66t-16 81q0 60 33.5 118.5t106.5 111.5v1060h400v-1060h-184zM334 1206
q-51 0 -92 14.5t-70 40t-44.5 59.5t-15.5 73q0 40 17 76t48 62t74 41.5t95 15.5q51 0 92 -14.5t70 -40t44.5 -59.5t15.5 -73q0 -41 -17 -76.5t-48 -61.5t-74 -41.5t-95 -15.5z" />
    <glyph glyph-name="Iogonek" unicode="&#x12e;" horiz-adv-x="746" 
d="M576 0h-194q-21 -14 -39.5 -29.5t-33 -33t-23 -36t-8.5 -39.5q0 -18 7 -36.5t22 -34t38 -25t55 -9.5q24 0 55 6t52 17v-128q-17 -15 -44 -31t-61 -28.5t-72 -21t-76 -8.5q-53 0 -95 16t-71.5 44t-45.5 66t-16 81q0 61 34.5 120t109.5 113v1462h406v-1465z" />
    <glyph glyph-name="Eogonek" unicode="&#x118;" horiz-adv-x="1286" 
d="M1031 0q-21 -14 -39.5 -29.5t-33 -33t-23 -36t-8.5 -39.5q0 -18 7 -36.5t22 -34t38 -25t55 -9.5q24 0 55 6t52 17v-128q-17 -15 -44 -31t-61 -28.5t-72 -21t-76 -8.5q-53 0 -95 16t-71.5 44t-45.5 66t-16 81q0 60 33.5 118t105.5 112h-644v1465h989l-42 -239h-541v-362
h467l-37 -219h-430v-406h590l-42 -239h-93z" />
    <glyph glyph-name="AE" unicode="&#xc6;" horiz-adv-x="1994" 
d="M974 0l-33 320h-453l-130 -320h-338l665 1465h1139l-42 -239h-524l37 -362h484l-37 -219h-426l41 -406h517l-42 -239h-858zM919 539l-45 452l-12 226h-20l-82 -226l-184 -452h343z" />
    <glyph glyph-name="summation" unicode="&#x2211;" horiz-adv-x="1574" 
d="M150 -79l579 733l-579 735v76h1224l-42 -239h-638l423 -533v-76l-423 -533h680l-42 -239h-1182v76z" />
    <glyph glyph-name="product" unicode="&#x220f;" horiz-adv-x="1927" 
d="M150 1465h1627v-239h-249v-1386h-406v1386h-318v-1386h-406v1386h-248v239z" />
    <glyph glyph-name="lozenge" unicode="&#x25ca;" horiz-adv-x="1294" 
d="M412 732l235 -422l235 422l-235 422l-234 -422h-1zM529 1465h236l409 -733l-409 -732h-236l-409 732z" />
    <glyph glyph-name="radical" unicode="&#x221a;" horiz-adv-x="1626" 
d="M968 -208h-280l-328 872l-210 -34v222l425 104l151 -442l102 -364h20l76 358l254 1094h298z" />
    <glyph glyph-name="Igrave" unicode="&#xcc;" horiz-adv-x="746" 
d="M576 0h-406v1465h406v-1465zM280 1602l-286 362h390l196 -362h-300z" />
    <glyph glyph-name="Iacute" unicode="&#xcd;" horiz-adv-x="746" 
d="M576 0h-406v1465h406v-1465zM272 1602l-286 362h390l196 -362h-300z" />
    <glyph glyph-name="cedilla" unicode="&#xb8;" horiz-adv-x="864" 
d="M595 6q21 -29 39 -69.5t18 -94.5q0 -53 -22.5 -106.5t-71.5 -96.5t-126.5 -69.5t-186.5 -26.5h-55v194h51q50 0 85 13t57.5 35t33 49t10.5 56q0 27 -9.5 55t-30.5 61h208z" />
    <glyph glyph-name="partialdiff" unicode="&#x2202;" horiz-adv-x="1561" 
d="M259 1302q40 34 87 67t104.5 59t127.5 41.5t155 15.5q134 0 249 -42.5t199 -129t132 -218t48 -309.5q0 -109 -19 -211t-57.5 -191.5t-96 -163.5t-134 -127.5t-173 -83t-211.5 -29.5q-113 0 -208.5 29t-164.5 85.5t-108 139t-39 190.5q0 109 35 201.5t97.5 159.5
t149.5 105t191 38q64 0 113 -15t85 -37.5t60 -49.5t39 -52h20q3 17 3.5 40.5t0.5 40.5q0 76 -23 143.5t-68 118t-112 80t-155 29.5q-48 0 -93 -8.5t-86.5 -22.5t-78.5 -32t-69 -36v175zM711 219q40 0 73 23.5t58 66.5t41.5 103t23.5 133q-7 22 -21 47.5t-35.5 47t-50.5 35.5
t-67 14q-42 0 -73 -18.5t-51.5 -50.5t-31 -76t-10.5 -95q0 -50 9.5 -92t28 -72.5t45 -48t61.5 -17.5z" />
    <glyph glyph-name="integral" unicode="&#x222b;" horiz-adv-x="1023" 
d="M887 1381q-18 3 -35.5 4t-27.5 1q-47 0 -77.5 -18t-48 -55.5t-24.5 -96t-7 -140.5l1 -1000q0 -152 -32 -269.5t-94.5 -198t-155.5 -122.5t-216 -42q-52 0 -96.5 7t-73.5 19l44 230q17 -6 34.5 -10t37.5 -4q46 0 76 24.5t46.5 66.5t23 98t6.5 119l-1 1044q0 289 124 436.5
t370 147.5q65 0 105 -7.5t57 -12.5z" />
    <glyph glyph-name="estimated" unicode="&#x212e;" horiz-adv-x="2116" 
d="M524 730q-12 0 -12 -10v-422q0 -15 6.5 -26t17.5 -22q49 -52 108 -94t126 -72t141 -46t153 -16q82 0 160 18t148 51t131 80t111 105h128q-59 -67 -134 -122t-162 -94.5t-184 -61.5t-200 -22q-119 0 -229 27.5t-206 78t-174.5 121.5t-134.5 156.5t-87 184t-31 204.5
t31 205t87 185.5t134.5 157.5t174.5 121.5t206 78.5t229 28q117 0 226 -28t204 -78.5t173 -121.5t134 -157.5t86.5 -185.5t30.5 -205v-18h-1392zM1606 1206q0 17 -6.5 29.5t-15.5 20.5q-53 49 -112.5 89.5t-125.5 69.5t-137 45t-145 16q-79 0 -153 -15.5t-141.5 -44
t-126.5 -70.5t-107 -94q-11 -12 -17.5 -24t-6.5 -32v-412q0 -12 12 -12h1070q5 0 8.5 3t3.5 9v422z" />
    <glyph glyph-name="macron" unicode="&#xaf;" horiz-adv-x="1042" 
d="M842 1495v-255h-642v255h642z" />
    <glyph glyph-name="commaaccent" horiz-adv-x="813" 
d="M200 -659q61 54 108.5 113t67.5 113q-26 24 -64 41.5t-80 25.5q-8 16 -13.5 36t-5.5 46q0 42 17 75t45.5 56t65.5 35t76 12q37 0 72 -11.5t62.5 -36t44.5 -63t17 -92.5q0 -41 -12.5 -91t-46.5 -105.5t-92.5 -116t-150.5 -122.5z" />
    <glyph glyph-name="emdash" unicode="&#x2014;" horiz-adv-x="2107" 
d="M2057 719v-255h-2007v255h2007z" />
    <glyph glyph-name="endash" unicode="&#x2013;" horiz-adv-x="1037" 
d="M987 719v-255h-937v255h937z" />
    <glyph glyph-name="uni00A0" unicode="&#xa0;" horiz-adv-x="452" 
 />
    <glyph glyph-name="Omega" unicode="&#x3a9;" horiz-adv-x="1945" 
d="M1755 239l-42 -239h-677v76q89 68 146 149t90 165.5t45.5 169t12.5 159.5q0 127 -29 225.5t-78 165.5t-115 101.5t-139 34.5q-74 0 -139.5 -35t-114.5 -102t-77 -164.5t-28 -222.5q0 -91 16.5 -183t52.5 -177t93 -158.5t138 -127.5v-76h-760l41 239h261v20
q-115 105 -167.5 237t-52.5 278q0 97 22 187.5t65.5 169.5t108 144t149.5 112t189 72.5t228 25.5q175 0 308 -51t223 -139.5t135.5 -209.5t45.5 -260q0 -175 -68.5 -314.5t-191.5 -251.5v-20h309z" />
    <glyph glyph-name="pi" unicode="&#x3c0;" horiz-adv-x="1731" 
d="M120 1060h1491v-236h-229v-824h-400v824h-234v-824h-400v824h-228v236z" />
    <glyph glyph-name="logicalnot" unicode="&#xac;" horiz-adv-x="1426" 
d="M1226 190h-265v383h-811v255h1076v-638z" />
    <glyph glyph-name="semicolon" unicode=";" horiz-adv-x="824" 
d="M404 624q-46 0 -86.5 17t-71 47t-48.5 71.5t-18 90.5q0 51 19.5 93.5t52 72.5t74.5 47t88 17t86.5 -17t71 -47t48.5 -71.5t18 -90.5q0 -51 -19.5 -93.5t-52.5 -72.5t-75 -47t-87 -17zM160 -358q81 91 135.5 181t75.5 185q-15 16 -35 31.5t-43 28.5t-47.5 23t-48.5 16
q-8 23 -12.5 48t-4.5 51q0 52 20 94.5t52.5 72.5t74.5 46.5t87 16.5q42 0 83.5 -16t74 -48t52.5 -82t20 -117q0 -58 -16 -127.5t-56.5 -147.5t-108.5 -163t-171 -174z" />
    <glyph glyph-name="quotedbl" unicode="&#x22;" horiz-adv-x="1357" 
d="M120 828q81 91 135.5 181t75.5 185q-15 16 -35 31.5t-43 28.5t-47.5 23t-48.5 16q-8 23 -12.5 48t-4.5 51q0 52 20 94.5t52.5 72.5t74.5 46.5t87 16.5q42 0 83.5 -16t74 -48t52.5 -82t20 -117q0 -58 -16 -127.5t-56.5 -147.5t-108.5 -163t-171 -174zM743 828
q81 91 135.5 181t75.5 185q-15 16 -35 31.5t-43 28.5t-47.5 23t-48.5 16q-8 23 -12.5 48t-4.5 51q0 52 20 94.5t52.5 72.5t74.5 46.5t87 16.5q42 0 83.5 -16t74 -48t52.5 -82t20 -117q0 -58 -16 -127.5t-56.5 -147.5t-108.5 -163t-171 -174z" />
    <glyph glyph-name="dollar" unicode="$" horiz-adv-x="1386" 
d="M626 239q43 0 83.5 8t71 25.5t49 45.5t18.5 67q0 50 -27.5 86t-72.5 64t-102 52l-117 50.5t-117 59t-102 77.5t-72.5 105.5t-27.5 144.5q0 82 26.5 151.5t75.5 124t119.5 92.5t158.5 57v365h255v-349q30 0 69 -3.5t82 -10.5t87 -16t84 -20l-58 -255l-17 -8q-44 20 -90 34
t-88 23t-78.5 13t-62.5 4q-41 0 -75 -8.5t-58.5 -25.5t-38.5 -41.5t-14 -56.5q0 -49 27.5 -84t72.5 -62.5t102.5 -51.5l117 -50.5t117 -59t102.5 -78.5t72.5 -107.5t27.5 -146.5q0 -81 -26 -151t-75 -125.5t-119.5 -95t-160.5 -60.5v-372h-255v351q-42 0 -94 6t-108.5 17.5
t-115 29t-112.5 41.5l57 256l21 10l109.5 -48.5t98.5 -39t91.5 -25.5t88.5 -9z" />
    <glyph glyph-name="a" unicode="a" 
d="M714 152l-70.5 -57t-84 -55.5t-96.5 -42.5t-107 -17q-74 0 -126.5 29.5t-85.5 74.5t-48.5 98.5t-15.5 102.5q0 77 36.5 142t111 112.5t186.5 74t262 26.5h22v52q0 77 -47 114.5t-127 37.5q-37 0 -77.5 -9t-81.5 -25t-81 -37t-76 -45l-18 10l-65 232q133 58 253 84t241 26
q96 0 182.5 -17.5t152.5 -58t105 -108.5t39 -168v-394q0 -39 15 -67.5t57 -28.5q14 0 24.5 1t25.5 7v-162q-71 -50 -142 -77t-137 -27q-78 0 -135 40.5t-92 131.5zM698 516h-26q-66 0 -111.5 -10t-73.5 -28.5t-40.5 -46.5t-12.5 -64t10.5 -60.5t28 -40t40 -22t46.5 -6.5
q32 0 68 11t71 35v232z" />
    <glyph glyph-name="b" unicode="b" horiz-adv-x="1376" 
d="M140 1602h400v-682l79.5 58t86.5 51.5t93.5 36.5t101.5 14q91 0 164 -42t124.5 -112.5t79 -162t27.5 -189.5q0 -125 -45 -233t-132 -188.5t-216 -126.5t-297 -46q-41 0 -95 3.5t-115.5 11t-126.5 20t-129 31.5v1556zM540 244q35 -15 65 -21.5t56 -6.5q57 0 99 27.5t70 73
t42 103.5t14 118q0 61 -14 113.5t-41 90t-67 59t-92 21.5q-27 0 -60.5 -8t-71.5 -34v-536z" />
    <glyph glyph-name="c" unicode="c" horiz-adv-x="1051" 
d="M978 118q-49 -41 -96 -67.5t-93.5 -42t-93 -22t-94.5 -6.5q-125 0 -222 36.5t-163.5 102.5t-101 157t-34.5 200q0 135 51 246t139.5 190.5t208.5 123.5t258 44q22 0 50.5 -1.5t62 -5.5t70.5 -11t76 -18l-54 -246l-18 -10q-15 9 -36 19t-46 18t-53 13.5t-57 5.5
q-55 0 -99.5 -21.5t-76 -61t-49 -96.5t-17.5 -128q0 -81 22 -137.5t61 -92.5t94 -52.5t121 -16.5q22 0 43 2t43.5 7t47.5 13t56 20v-162z" />
    <glyph glyph-name="d" unicode="d" horiz-adv-x="1376" 
d="M836 818q-38 17 -67 21.5t-48 4.5q-61 0 -105 -27.5t-72.5 -73.5t-42 -105.5t-13.5 -122.5q0 -64 13 -115.5t36.5 -87.5t56 -55t71.5 -19q42 0 89 21t82 57v502zM836 1602h400v-1602h-346l-42 158q-38 -34 -78 -66t-83.5 -57t-92 -40t-103.5 -15q-96 0 -172 42.5
t-129.5 112.5t-81.5 160.5t-28 185.5q0 126 46.5 235t127.5 190t190 127.5t233 46.5q48 0 92 -6t67 -14v542z" />
    <glyph glyph-name="e" unicode="e" horiz-adv-x="1242" 
d="M1102 118q-60 -42 -119 -69t-115.5 -42t-111 -21t-105.5 -6q-137 0 -243.5 34.5t-179.5 99.5t-110.5 159t-37.5 214q0 141 49.5 251t132.5 186t192 116t229 40q106 0 194 -31.5t151.5 -93t98.5 -152.5t35 -209q0 -45 -4 -76t-8 -48h-660q0 -65 22.5 -109t64.5 -71.5
t101.5 -39.5t133.5 -12q61 0 138 9t152 33v-162zM802 594q0 66 -11 113.5t-30.5 78t-48 44.5t-62.5 14q-75 0 -117.5 -62.5t-42.5 -187.5h312z" />
    <glyph glyph-name="hyphen" unicode="-" horiz-adv-x="986" 
d="M836 719v-255h-686v255h686z" />
    <glyph glyph-name="backslash" unicode="\" horiz-adv-x="991" 
d="M911 -308h-275l-541 1910h275z" />
    <glyph glyph-name="bracketright" unicode="]" horiz-adv-x="974" 
d="M734 -358h-624v255h349v1450h-349v255h624v-1960z" />
    <glyph glyph-name="bar" unicode="|" horiz-adv-x="715" 
d="M495 -537h-275v2139h275v-2139z" />
    <glyph glyph-name="yen" unicode="&#xa5;" horiz-adv-x="1691" 
d="M519 836l-369 629h465l282 -572l283 572h361l-374 -629h249v-215h-1140v215h243zM1416 481v-215h-367v-266h-406v266h-367v215h1140z" />
    <glyph glyph-name="brokenbar" unicode="&#xa6;" horiz-adv-x="715" 
d="M495 364v-901h-275v901h275zM220 702v900h275v-900h-275z" />
    <glyph glyph-name="section" unicode="&#xa7;" horiz-adv-x="1468" 
d="M449 796q-44 19 -82 44.5t-66.5 60.5t-44.5 82t-16 109q0 95 40 168.5t113.5 123.5t178 75.5t233.5 25.5q36 0 81 -2t92.5 -7t95 -13t88.5 -20l-56 -253l-18 -9q-82 35 -158.5 50t-144.5 15q-38 0 -70 -5t-55.5 -16t-37 -28.5t-13.5 -43.5q0 -38 27.5 -64.5t72.5 -47
t102.5 -38.5l117 -38t117 -45.5t102.5 -62t72.5 -86t27.5 -118.5q0 -59 -20 -108t-51.5 -90.5t-70.5 -76.5t-78 -66q42 -19 78.5 -44.5t63.5 -60t42.5 -80t15.5 -105.5q0 -96 -41 -171.5t-116.5 -128.5t-183.5 -81t-242 -28q-57 0 -114.5 5t-111.5 13t-103.5 18.5
t-89.5 21.5l56 253l18 9q86 -36 175.5 -58.5t178.5 -22.5q98 0 151.5 28.5t53.5 80.5q0 38 -27.5 64t-72.5 46.5t-102.5 38l-117 37t-117 44.5t-102.5 61t-72.5 85.5t-27.5 118.5q0 60 20.5 108.5t53 89t73.5 75.5zM909 536q0 46 -22.5 77t-60 53t-86.5 37.5t-103 30.5
q-13 -8 -26.5 -24t-25 -37t-19 -45.5t-7.5 -51.5q0 -46 22 -77t59.5 -53t86.5 -38t103 -31q13 9 27 24.5t25.5 36.5t19 46t7.5 52z" />
    <glyph glyph-name="registered" unicode="&#xae;" horiz-adv-x="2034" 
d="M200 726q0 180 61 330t171 258t263 168t336 60q186 0 334.5 -61.5t253 -169t160 -254t55.5 -316.5q0 -179 -61 -329t-171 -258t-263 -168.5t-337 -60.5q-125 0 -232.5 28t-196.5 79t-158.5 123.5t-117 161.5t-72.5 192.5t-25 216.5zM436 741q0 -118 39 -226.5t114.5 -192
t185.5 -133t252 -49.5q141 0 248 49t179 130.5t108 187t36 218.5q0 119 -39.5 228t-115 192t-185.5 132.5t-251 49.5t-248 -49t-179 -131t-108 -187.5t-36 -218.5zM707 329v809h299q74 0 138 -16t111 -47.5t74 -77.5t27 -105q0 -43 -13.5 -78.5t-33 -65t-42 -52.5t-41.5 -40
l168 -327h-286l-80 183h-73v-183h-248zM1050 727q8 6 17.5 15.5t17.5 22.5t13.5 29.5t5.5 36.5q0 45 -26.5 68.5t-64.5 23.5h-58v-196h95z" />
    <glyph glyph-name="guillemotright" unicode="&#xbb;" 
d="M637 514l-328 -396l-189 175l246 281l-246 281l189 175l328 -396v-120zM1160 514l-328 -396l-189 175l246 281l-246 281l189 175l328 -396v-120z" />
    <glyph glyph-name="uni00AD" unicode="&#xad;" horiz-adv-x="986" 
d="M836 719v-255h-686v255h686z" />
    <glyph glyph-name="ordmasculine" unicode="&#xba;" horiz-adv-x="1332" 
d="M628 544q-123 0 -211.5 37.5t-145.5 100t-84 142t-27 163.5q0 103 38 194t108.5 158.5t170.5 106.5t225 39q121 0 210 -37t146.5 -98.5t85.5 -141.5t28 -167q0 -106 -39 -197t-110.5 -157.5t-172 -104.5t-222.5 -38zM671 759q33 0 60.5 14t47 43.5t30.5 76t11 111.5
q0 60 -10 109.5t-30 84t-49.5 53.5t-69.5 19q-70 0 -109.5 -61t-39.5 -186q0 -130 42 -197t117 -67z" />
    <glyph glyph-name="mu" unicode="&#x3bc;" horiz-adv-x="1402" 
d="M160 1060h400v-658q0 -76 36 -120t93 -44q40 0 77.5 21t75.5 53v748h400v-1060h-354l-46 170q-23 -30 -52.5 -63.5t-62 -61.5t-67 -46.5t-68.5 -18.5q-7 0 -15.5 0.5t-16.5 1.5v-518h-400v1596z" />
    <glyph glyph-name="paragraph" unicode="&#xb6;" horiz-adv-x="1572" 
d="M661 462q-111 0 -214 32t-182.5 95.5t-127 157t-47.5 216.5q0 116 45.5 209t129.5 158t204 100t269 35h664v-2001h-265v1746h-211v-1746h-265v998z" />
    <glyph glyph-name="periodcentered" unicode="&#xb7;" horiz-adv-x="694" 
d="M344 327q-46 0 -86.5 17t-71 47t-48.5 71.5t-18 90.5q0 51 19.5 93.5t52 72.5t74.5 47t88 17t86.5 -17t71 -47t48.5 -71.5t18 -90.5q0 -51 -19.5 -93.5t-52.5 -72.5t-75 -47t-87 -17z" />
    <glyph glyph-name="onehalf" unicode="&#xbd;" horiz-adv-x="2208" 
d="M1219 1465h295l-715 -1465h-295zM1301 81q74 75 138 147t111.5 139.5t74.5 130t27 119.5q0 39 -13 66t-34.5 43t-51 23t-62.5 7q-42 0 -79.5 -8t-57.5 -17v146q27 17 65 34t83 30.5t95.5 21.5t102.5 8q84 0 145 -21.5t100.5 -57.5t58.5 -83t19 -97q0 -63 -27.5 -126
t-74 -125t-108 -124t-129.5 -122h394l-42 -215h-736zM277 514v668h-207v175q128 0 215.5 28t138.5 80h209v-951h-356z" />
    <glyph glyph-name="threequarters" unicode="&#xbe;" horiz-adv-x="2260" 
d="M1289 1465h295l-715 -1465h-295zM1237 334l296 617h480v-512h137l-31 -215h-106v-224h-341v224h-435v110zM1672 439v211l4 152h-20l-57 -139l-104 -224h177zM801 1293q0 -42 -21 -73t-52.5 -55t-68.5 -42l-68 -32v-20q47 -11 87.5 -29.5t70.5 -47t47.5 -68t17.5 -90.5
q0 -39 -12 -78t-41.5 -75t-80 -67t-126.5 -53.5t-180.5 -35.5t-243.5 -13v215q102 0 164 8.5t95.5 22.5t44 31.5t10.5 36.5q0 54 -60 76.5t-167 17.5v149q30 5 67 14t69.5 24t54 35.5t21.5 48.5q0 19 -11 33.5t-30.5 24t-46 14.5t-56.5 5q-43 0 -78 -8t-64 -18v142
q31 21 72 39t88.5 31.5t98.5 21t102 7.5q77 0 133 -16.5t92.5 -43.5t54 -61.5t17.5 -70.5z" />
    <glyph glyph-name="questiondown" unicode="&#xbf;" horiz-adv-x="1006" 
d="M599 -189q28 0 65 6.5t77 18.5t80 29.5t74 39.5l18 -10l63 -202q-63 -34 -126.5 -57t-125 -36.5t-119 -19t-108.5 -5.5q-121 0 -206 25.5t-138.5 68t-78 97t-24.5 113.5q0 70 29.5 120.5t73.5 91t96 74.5t96 71.5t73.5 82t29.5 105.5v32h266q5 -21 7.5 -40.5t2.5 -42.5
q0 -62 -19.5 -110t-48.5 -87t-63.5 -71t-63.5 -62t-48.5 -60.5t-19.5 -64.5q0 -50 39 -78.5t99 -28.5zM569 1080q46 0 86.5 -17t71 -47t48.5 -71.5t18 -90.5q0 -51 -19.5 -93.5t-51.5 -72.5t-74.5 -47t-87.5 -17q-46 0 -87 17t-71.5 47t-48.5 71.5t-18 89.5q0 51 19.5 93.5
t52.5 73t75 47.5t87 17z" />
    <glyph glyph-name="multiply" unicode="&#xd7;" horiz-adv-x="1225" 
d="M792 584l283 -282l-180 -180l-283 282l-282 -282l-180 180l282 282l-282 283l180 180l282 -283l283 283l180 -180z" />
    <glyph glyph-name="divide" unicode="&#xf7;" horiz-adv-x="1307" 
d="M1157 719v-255h-1007v255h1007zM650 831q-34 0 -64.5 13t-53.5 35.5t-36.5 53.5t-13.5 67q0 38 14.5 70t39 54.5t56 35t65.5 12.5t65 -13t53.5 -35.5t36 -53.5t13.5 -67q0 -38 -14.5 -70t-39 -54.5t-56 -35t-65.5 -12.5zM650 11q-34 0 -64.5 13t-53.5 35.5t-36.5 53.5
t-13.5 67q0 38 14.5 70t39 54.5t56 35t65.5 12.5t65 -13t53.5 -35.5t36 -53.5t13.5 -67q0 -38 -14.5 -70t-39 -54.5t-56 -35t-65.5 -12.5z" />
    <glyph glyph-name="quoteright" unicode="&#x2019;" horiz-adv-x="734" 
d="M120 828q81 91 135.5 181t75.5 185q-15 16 -35 31.5t-43 28.5t-47.5 23t-48.5 16q-8 23 -12.5 48t-4.5 51q0 52 20 94.5t52.5 72.5t74.5 46.5t87 16.5q42 0 83.5 -16t74 -48t52.5 -82t20 -117q0 -58 -16 -127.5t-56.5 -147.5t-108.5 -163t-171 -174z" />
    <glyph glyph-name="quoteleft" unicode="&#x2018;" horiz-adv-x="734" 
d="M614 1551q-81 -91 -135.5 -181t-75.5 -185q15 -17 35 -32t43 -28t47.5 -23t48.5 -16q8 -23 12.5 -48t4.5 -51q0 -52 -20 -94.5t-52.5 -72.5t-74.5 -46.5t-87 -16.5q-42 0 -83.5 16t-74 48t-52.5 81.5t-20 117.5q0 58 16 127.5t56.5 147.5t108 163t171.5 174z" />
    <glyph glyph-name="quotesinglbase" unicode="&#x201a;" horiz-adv-x="734" 
d="M120 -358q81 91 135.5 181t75.5 185q-15 16 -35 31.5t-43 28.5t-47.5 23t-48.5 16q-8 23 -12.5 48t-4.5 51q0 52 20 94.5t52.5 72.5t74.5 46.5t87 16.5q42 0 83.5 -16t74 -48t52.5 -82t20 -117q0 -58 -16 -127.5t-56.5 -147.5t-108.5 -163t-171 -174z" />
    <glyph glyph-name="quotedblright" unicode="&#x201d;" horiz-adv-x="1357" 
d="M120 828q81 91 135.5 181t75.5 185q-15 16 -35 31.5t-43 28.5t-47.5 23t-48.5 16q-8 23 -12.5 48t-4.5 51q0 52 20 94.5t52.5 72.5t74.5 46.5t87 16.5q42 0 83.5 -16t74 -48t52.5 -82t20 -117q0 -58 -16 -127.5t-56.5 -147.5t-108.5 -163t-171 -174zM743 828
q81 91 135.5 181t75.5 185q-15 16 -35 31.5t-43 28.5t-47.5 23t-48.5 16q-8 23 -12.5 48t-4.5 51q0 52 20 94.5t52.5 72.5t74.5 46.5t87 16.5q42 0 83.5 -16t74 -48t52.5 -82t20 -117q0 -58 -16 -127.5t-56.5 -147.5t-108.5 -163t-171 -174z" />
    <glyph glyph-name="quotedblleft" unicode="&#x201c;" horiz-adv-x="1357" 
d="M1237 1551q-81 -91 -135.5 -181t-75.5 -185q15 -17 35 -32t43 -28t47.5 -23t48.5 -16q8 -23 12.5 -48t4.5 -51q0 -52 -20 -94.5t-52.5 -72.5t-74.5 -46.5t-87 -16.5q-42 0 -83.5 16t-74 48t-52.5 81.5t-20 117.5q0 58 16 127.5t56.5 147.5t108 163t171.5 174zM614 1551
q-81 -91 -135.5 -181t-75.5 -185q15 -17 35 -32t43 -28t47.5 -23t48.5 -16q8 -23 12.5 -48t4.5 -51q0 -52 -20 -94.5t-52.5 -72.5t-74.5 -46.5t-87 -16.5q-42 0 -83.5 16t-74 48t-52.5 81.5t-20 117.5q0 58 16 127.5t56.5 147.5t108 163t171.5 174z" />
    <glyph glyph-name="quotedblbase" unicode="&#x201e;" horiz-adv-x="1357" 
d="M120 -358q81 91 135.5 181t75.5 185q-15 16 -35 31.5t-43 28.5t-47.5 23t-48.5 16q-8 23 -12.5 48t-4.5 51q0 52 20 94.5t52.5 72.5t74.5 46.5t87 16.5q42 0 83.5 -16t74 -48t52.5 -82t20 -117q0 -58 -16 -127.5t-56.5 -147.5t-108.5 -163t-171 -174zM743 -358
q81 91 135.5 181t75.5 185q-15 16 -35 31.5t-43 28.5t-47.5 23t-48.5 16q-8 23 -12.5 48t-4.5 51q0 52 20 94.5t52.5 72.5t74.5 46.5t87 16.5q42 0 83.5 -16t74 -48t52.5 -82t20 -117q0 -58 -16 -127.5t-56.5 -147.5t-108.5 -163t-171 -174z" />
    <glyph glyph-name="daggerdbl" unicode="&#x2021;" horiz-adv-x="1547" 
d="M641 112v715h-391v255h391v383h265v-383h391v-255h-391v-715h391v-255h-391v-393h-265v393h-391v255h391z" />
    <glyph glyph-name="perthousand" unicode="&#x2030;" horiz-adv-x="3327" 
d="M1496 1465h306l-946 -1465h-306zM570 630q-90 0 -165.5 29t-129.5 82.5t-84.5 129t-30.5 167.5q0 100 35 182.5t96 141t143 91t177 32.5q90 0 165.5 -29.5t130 -83.5t85 -129.5t30.5 -167.5q0 -100 -35 -182t-96.5 -140.5t-144 -90.5t-176.5 -32zM454 1064
q0 -46 10.5 -84t29 -65.5t44 -42.5t56.5 -15q59 0 96 51.5t37 141.5q0 46 -10.5 84.5t-29.5 66t-44.5 42.5t-56.5 15q-59 0 -95.5 -52t-36.5 -142zM1741 -20q-90 0 -165.5 29t-129.5 82.5t-84.5 129t-30.5 167.5q0 100 35 182.5t96 141t143 91t177 32.5q90 0 165.5 -29.5
t130 -83.5t85 -129.5t30.5 -167.5q0 -100 -35 -182t-96.5 -140.5t-144 -90.5t-176.5 -32zM1625 414q0 -46 10.5 -84t29 -65.5t44 -42.5t56.5 -15q59 0 96 51.5t37 141.5q0 46 -10.5 84.5t-29.5 66t-44.5 42.5t-56.5 15q-59 0 -95.5 -52t-36.5 -142zM2715 -20
q-90 0 -165.5 29t-129.5 82.5t-84.5 129t-30.5 167.5q0 100 35 182.5t96 141t143 91t177 32.5q90 0 165.5 -29.5t130 -83.5t85 -129.5t30.5 -167.5q0 -100 -35 -182t-96.5 -140.5t-144 -90.5t-176.5 -32zM2599 414q0 -46 10.5 -84t29 -65.5t44 -42.5t56.5 -15q59 0 96 51.5
t37 141.5q0 46 -10.5 84.5t-29.5 66t-44.5 42.5t-56.5 15q-59 0 -95.5 -52t-36.5 -142z" />
    <glyph glyph-name="guilsinglleft" unicode="&#x2039;" horiz-adv-x="727" 
d="M90 634l328 396l189 -175l-246 -281l246 -281l-189 -175l-328 396v120z" />
    <glyph glyph-name="guilsinglright" unicode="&#x203a;" horiz-adv-x="727" 
d="M637 514l-328 -396l-189 175l246 281l-246 281l189 175l328 -396v-120z" />
    <glyph glyph-name="fraction" unicode="&#x2044;" horiz-adv-x="1010" 
d="M715 1465h295l-715 -1465h-295z" />
    <glyph glyph-name="uni2113" unicode="&#x2113;" horiz-adv-x="1384" 
d="M674 695q55 53 100 105t77 104.5t50 106t18 109.5q0 68 -23.5 97t-56.5 29q-24 0 -47.5 -14.5t-42.5 -42.5t-32.5 -69.5t-17.5 -96.5zM1077 159q-27 -27 -62.5 -58.5t-83 -58.5t-107 -45t-133.5 -18q-77 0 -134 21t-96.5 59.5t-64 92t-37.5 119.5l-143 -102l-86 153
l212 153l38 550q6 82 33 148.5t68 117.5t93 87.5t107 60.5t110 35t102 11q63 0 116 -19t92 -55t61 -89t22 -121q0 -73 -25 -145.5t-66 -142.5t-95 -135.5t-112.5 -125t-117 -111.5l-108.5 -95q-3 -49 7.5 -91t33.5 -73t57.5 -48.5t79.5 -17.5q64 0 125.5 31t113.5 74v-162z
" />
    <glyph glyph-name="uni20BA" unicode="&#x20ba;" horiz-adv-x="1565" 
d="M750 630v-391q99 0 168 34t112.5 94.5t63 143t19.5 180.5h302q0 -153 -44 -280t-129 -218.5t-208.5 -142t-283.5 -50.5h-406v460l-194 -81v235l985 412v-235zM344 1070v395h406v-225l385 161v-235l-985 -412v235z" />
    <glyph glyph-name="uni20BD" unicode="&#x20bd;" horiz-adv-x="1651" 
d="M151 783h194v682h568q136 0 249.5 -26.5t195.5 -80t127.5 -135t45.5 -191.5q0 -103 -41.5 -189t-120.5 -148t-193.5 -96.5t-261.5 -34.5h-763v219zM752 783h171q42 0 81 12.5t69 38.5t48 67.5t18 98.5q0 50 -15 91.5t-45 71.5t-76 46.5t-108 16.5h-143v-443zM150 424
h1100v-215h-498v-209h-407v209h-195v215z" />
    <glyph glyph-name="uni2206" unicode="&#x2206;" horiz-adv-x="1726" 
d="M140 76l493 1389h457l496 -1389v-76h-1446v76zM851 1212h-21l-57 -205l-252 -768h640l-252 768z" />
    <glyph glyph-name="minus" unicode="&#x2212;" horiz-adv-x="1136" 
d="M986 719v-255h-836v255h836z" />
    <glyph glyph-name="uni2215" unicode="&#x2215;" horiz-adv-x="1010" 
d="M715 1465h295l-715 -1465h-295z" />
    <glyph glyph-name="uni2219" unicode="&#x2219;" horiz-adv-x="778" 
d="M384 327q-46 0 -86.5 17t-71 47t-48.5 71.5t-18 90.5q0 51 19.5 93.5t52 72.5t74.5 47t88 17t86.5 -17t71 -47t48.5 -71.5t18 -90.5q0 -51 -19.5 -93.5t-52.5 -72.5t-75 -47t-87 -17z" />
    <glyph glyph-name="notequal" unicode="&#x2260;" horiz-adv-x="1413" 
d="M1213 476v-255h-511l-108 -221h-295l108 221h-207v255h1013zM710 964l107 219h295l-107 -219h208v-255h-1013v255h510z" />
    <glyph glyph-name="lessequal" unicode="&#x2264;" horiz-adv-x="1252" 
d="M220 978l812 298v-273l-521 -187l521 -187v-273l-812 298v324zM1032 255v-255h-812v255h812z" />
    <glyph glyph-name="greaterequal" unicode="&#x2265;" horiz-adv-x="1252" 
d="M1032 255v-255h-812v255h812zM1032 654l-812 -298v273l521 187l-521 187v273l812 -298v-324z" />
    <glyph glyph-name="f_i" unicode="&#xfb01;" horiz-adv-x="1566" 
d="M222 824h-212l24 164l190 72v28q0 120 47.5 218t134.5 168.5t210.5 109t276.5 38.5q136 0 250.5 -28t191.5 -72l-111 -263l-18 -10l-67 48t-75 44t-84.5 32.5t-94.5 12.5q-59 0 -107.5 -18.5t-83 -54t-53.5 -87t-19 -116.5v-50h272l-52 -236h-220v-824h-400v824z
M1026 1060h400v-1060h-400v1060z" />
    <glyph glyph-name="f_l" unicode="&#xfb02;" horiz-adv-x="1639" 
d="M222 824h-212l24 164l190 72v28q0 112 33.5 209.5t99.5 169.5t163.5 113.5t225.5 41.5q53 0 111.5 -7.5t111.5 -23.5l-51 -227l-18 -10q-24 15 -55 23.5t-61 8.5q-87 0 -124.5 -72t-37.5 -204v-50h322l-52 -236h-270v-824h-400v824zM1099 1602h400v-1602h-400v1602z" />
    <glyph glyph-name="circumflex.cap" horiz-adv-x="1234" 
d="M200 1602l236 362h362l236 -362h-300l-119 200l-119 -200h-296z" />
    <glyph glyph-name="caron.cap" horiz-adv-x="1234" 
d="M1034 1964l-236 -362h-362l-236 362h300l119 -200l119 200h296z" />
    <glyph glyph-name="grave.cap" horiz-adv-x="986" 
d="M486 1602l-286 362h390l196 -362h-300z" />
    <glyph glyph-name="dieresis.cap" horiz-adv-x="1289" 
d="M388 1602q-39 0 -73.5 14t-60 37.5t-40 55t-14.5 66.5q0 36 15 69.5t41 59t61.5 41t76.5 15.5q39 0 72.5 -14t58.5 -38t39 -56t14 -67q0 -36 -14 -69t-39 -58.5t-60 -40.5t-77 -15zM899 1602q-39 0 -73.5 14t-60 37.5t-40 55t-14.5 66.5q0 36 15 69.5t41 59t61.5 41
t76.5 15.5q39 0 72.5 -14t58.5 -38t39 -56t14 -67q0 -36 -14 -69t-39 -58.5t-60 -40.5t-77 -15z" />
    <glyph glyph-name="acute.cap" horiz-adv-x="982" 
d="M200 1602l196 362h386l-286 -362h-296z" />
    <glyph glyph-name="macron.cap" horiz-adv-x="1042" 
d="M842 1857v-255h-642v255h642z" />
    <glyph glyph-name="breve" unicode="&#x2d8;" horiz-adv-x="1128" 
d="M567 1455q73 0 102 39.5t29 107.5h230q0 -180 -95.5 -271t-278.5 -91q-184 0 -269 92.5t-85 269.5h230q0 -69 31.5 -108t105.5 -39z" />
    <glyph glyph-name="dotaccent" unicode="&#x2d9;" horiz-adv-x="856" 
d="M422 1206q-51 0 -92 14.5t-70 40t-44.5 59.5t-15.5 73q0 40 17 76t48 62t74 41.5t95 15.5q51 0 92 -14.5t70 -40t44.5 -59.5t15.5 -73q0 -41 -17 -76.5t-48 -61.5t-74 -41.5t-95 -15.5z" />
    <glyph glyph-name="ring" unicode="&#x2da;" horiz-adv-x="1022" 
d="M418 1471q0 -45 26.5 -73t66.5 -28t67 28t27 73q0 44 -27 72t-67 28t-66.5 -28t-26.5 -72zM200 1466q0 61 25.5 110t69 83t101.5 52t124 18q67 0 122.5 -18.5t95.5 -52t62 -80t22 -102.5q0 -62 -25.5 -110.5t-69 -83t-101.5 -52.5t-124 -18q-67 0 -122.5 18.5t-95.5 52
t-62 80.5t-22 103z" />
    <glyph glyph-name="tilde" unicode="&#x2dc;" horiz-adv-x="1235" 
d="M751 1454q13 0 25 8t22 25.5t16 45.5t6 69h215q0 -95 -24.5 -163.5t-64 -112.5t-90.5 -65t-105 -21q-42 0 -73 11t-55 27.5t-42 35.5l-33.5 35.5t-30.5 27.5t-32 11q-13 0 -25.5 -7.5t-22.5 -25t-16 -46t-6 -69.5h-215q0 95 24 163.5t64 112.5t91 65t104 21
q42 0 73.5 -11t56 -27.5t43 -35.5l34.5 -35.5t30.5 -27.5t30.5 -11z" />
    <glyph glyph-name="hungarumlaut" unicode="&#x2dd;" horiz-adv-x="1432" 
d="M200 1240l176 362h358l-266 -362h-268zM698 1240l176 362h358l-266 -362h-268z" />
    <glyph glyph-name="hungarumlaut.cap" horiz-adv-x="1432" 
d="M200 1602l176 362h358l-266 -362h-268zM698 1602l176 362h358l-266 -362h-268z" />
    <glyph glyph-name="breve.cap" horiz-adv-x="1128" 
d="M567 1817q73 0 102 39.5t29 107.5h230q0 -180 -95.5 -271t-278.5 -91q-184 0 -269 92.5t-85 269.5h230q0 -69 31.5 -108t105.5 -39z" />
    <glyph glyph-name="dotaccent.cap" horiz-adv-x="856" 
d="M422 1568q-51 0 -92 14.5t-70 40t-44.5 59.5t-15.5 73q0 40 17 76t48 62t74 41.5t95 15.5q51 0 92 -14.5t70 -40t44.5 -59.5t15.5 -73q0 -41 -17 -76.5t-48 -61.5t-74 -41.5t-95 -15.5z" />
    <glyph glyph-name="ring.cap" horiz-adv-x="1022" 
d="M418 1724q0 -45 26.5 -73t66.5 -28t67 28t27 73q0 44 -27 72t-67 28t-66.5 -28t-26.5 -72zM200 1719q0 61 25.5 110t69 83t101.5 52t124 18q67 0 122.5 -18.5t95.5 -52t62 -80t22 -102.5q0 -62 -25.5 -110.5t-69 -83t-101.5 -52.5t-124 -18q-67 0 -122.5 18.5t-95.5 52
t-62 80.5t-22 103z" />
    <glyph glyph-name="tilde.cap" horiz-adv-x="1235" 
d="M751 1816q13 0 25 8t22 25.5t16 45.5t6 69h215q0 -95 -24.5 -163.5t-64 -112.5t-90.5 -65t-105 -21q-42 0 -73 11t-55 27.5t-42 35.5l-33.5 35.5t-30.5 27.5t-32 11q-13 0 -25.5 -7.5t-22.5 -25t-16 -46t-6 -69.5h-215q0 95 24 163.5t64 112.5t91 65t104 21
q42 0 73.5 -11t56 -27.5t43 -35.5l34.5 -35.5t30.5 -27.5t30.5 -11z" />
    <glyph glyph-name="rotatedcommaaccent" horiz-adv-x="813" 
d="M613 1719q-61 -54 -108.5 -113t-67.5 -113q26 -24 64 -41.5t80 -25.5q8 -16 13.5 -36t5.5 -46q0 -42 -17.5 -75t-46 -56t-65 -35t-75.5 -12q-37 0 -72 11.5t-62.5 36t-44.5 63t-17 92.5q0 41 12.5 91t46.5 105.5t92.5 116t150.5 122.5z" />
    <glyph glyph-name="highcommaaccent" horiz-adv-x="813" 
d="M200 1049q61 54 108.5 113t67.5 113q-26 24 -64 41.5t-80 25.5q-8 16 -13.5 36t-5.5 46q0 42 17 75t45.5 56t65.5 35t76 12q37 0 72 -11.5t62.5 -36t44.5 -63t17 -92.5q0 -41 -12.5 -91t-46.5 -105.5t-92.5 -116t-150.5 -122.5z" />
    <glyph glyph-name="Agrave" unicode="&#xc0;" horiz-adv-x="1457" 
d="M480 1465h499l438 -1465h-429l-82 320h-453l-81 -320h-332zM851 539l-115 452l-47 226h-20l-47 -226l-114 -452h343zM662 1602l-286 362h390l196 -362h-300z" />
    <glyph glyph-name="Aacute" unicode="&#xc1;" horiz-adv-x="1457" 
d="M480 1465h499l438 -1465h-429l-82 320h-453l-81 -320h-332zM851 539l-115 452l-47 226h-20l-47 -226l-114 -452h343zM488 1602l196 362h386l-286 -362h-296z" />
    <glyph glyph-name="Acircumflex" unicode="&#xc2;" horiz-adv-x="1457" 
d="M480 1465h499l438 -1465h-429l-82 320h-453l-81 -320h-332zM851 539l-115 452l-47 226h-20l-47 -226l-114 -452h343zM306 1602l236 362h362l236 -362h-300l-119 200l-119 -200h-296z" />
    <glyph glyph-name="Atilde" unicode="&#xc3;" horiz-adv-x="1457" 
d="M480 1465h499l438 -1465h-429l-82 320h-453l-81 -320h-332zM851 539l-115 452l-47 226h-20l-47 -226l-114 -452h343zM851 1816q13 0 25 8t22 25.5t16 45.5t6 69h215q0 -95 -24.5 -163.5t-64 -112.5t-90.5 -65t-105 -21q-42 0 -73 11t-55 27.5t-42 35.5l-33.5 35.5
t-30.5 27.5t-32 11q-13 0 -25.5 -7.5t-22.5 -25t-16 -46t-6 -69.5h-215q0 95 24 163.5t64 112.5t91 65t104 21q42 0 73.5 -11t56 -27.5t43 -35.5l34.5 -35.5t30.5 -27.5t30.5 -11z" />
    <glyph glyph-name="Adieresis" unicode="&#xc4;" horiz-adv-x="1457" 
d="M480 1465h499l438 -1465h-429l-82 320h-453l-81 -320h-332zM851 539l-115 452l-47 226h-20l-47 -226l-114 -452h343zM476 1602q-39 0 -73.5 14t-60 37.5t-40 55t-14.5 66.5q0 36 15 69.5t41 59t61.5 41t76.5 15.5q39 0 72.5 -14t58.5 -38t39 -56t14 -67q0 -36 -14 -69
t-39 -58.5t-60 -40.5t-77 -15zM987 1602q-39 0 -73.5 14t-60 37.5t-40 55t-14.5 66.5q0 36 15 69.5t41 59t61.5 41t76.5 15.5q39 0 72.5 -14t58.5 -38t39 -56t14 -67q0 -36 -14 -69t-39 -58.5t-60 -40.5t-77 -15z" />
    <glyph glyph-name="Aring" unicode="&#xc5;" horiz-adv-x="1457" 
d="M480 1465h499l438 -1465h-429l-82 320h-453l-81 -320h-332zM851 539l-115 452l-47 226h-20l-47 -226l-114 -452h343zM640 1724q0 -45 26.5 -73t66.5 -28t67 28t27 73q0 44 -27 72t-67 28t-66.5 -28t-26.5 -72zM422 1719q0 61 25.5 110t69 83t101.5 52t124 18
q67 0 122.5 -18.5t95.5 -52t62 -80t22 -102.5q0 -62 -25.5 -110.5t-69 -83t-101.5 -52.5t-124 -18q-67 0 -122.5 18.5t-95.5 52t-62 80.5t-22 103z" />
    <glyph glyph-name="Egrave" unicode="&#xc8;" horiz-adv-x="1286" 
d="M170 0v1465h989l-42 -239h-541v-362h467l-37 -219h-430v-406h590l-42 -239h-954zM554 1602l-286 362h390l196 -362h-300z" />
    <glyph glyph-name="Eacute" unicode="&#xc9;" horiz-adv-x="1286" 
d="M170 0v1465h989l-42 -239h-541v-362h467l-37 -219h-430v-406h590l-42 -239h-954zM480 1602l196 362h386l-286 -362h-296z" />
    <glyph glyph-name="Ecircumflex" unicode="&#xca;" horiz-adv-x="1286" 
d="M170 0v1465h989l-42 -239h-541v-362h467l-37 -219h-430v-406h590l-42 -239h-954zM262 1602l236 362h362l236 -362h-300l-119 200l-119 -200h-296z" />
    <glyph glyph-name="Edieresis" unicode="&#xcb;" horiz-adv-x="1286" 
d="M170 0v1465h989l-42 -239h-541v-362h467l-37 -219h-430v-406h590l-42 -239h-954zM409 1602q-39 0 -73.5 14t-60 37.5t-40 55t-14.5 66.5q0 36 15 69.5t41 59t61.5 41t76.5 15.5q39 0 72.5 -14t58.5 -38t39 -56t14 -67q0 -36 -14 -69t-39 -58.5t-60 -40.5t-77 -15z
M920 1602q-39 0 -73.5 14t-60 37.5t-40 55t-14.5 66.5q0 36 15 69.5t41 59t61.5 41t76.5 15.5q39 0 72.5 -14t58.5 -38t39 -56t14 -67q0 -36 -14 -69t-39 -58.5t-60 -40.5t-77 -15z" />
    <glyph glyph-name="Icircumflex" unicode="&#xce;" horiz-adv-x="746" 
d="M576 0h-406v1465h406v-1465zM-42 1602l236 362h362l236 -362h-300l-119 200l-119 -200h-296z" />
    <glyph glyph-name="Idieresis" unicode="&#xcf;" horiz-adv-x="746" 
d="M576 0h-406v1465h406v-1465zM116 1602q-39 0 -73.5 14t-60 37.5t-40 55t-14.5 66.5q0 36 15 69.5t41 59t61.5 41t76.5 15.5q39 0 72.5 -14t58.5 -38t39 -56t14 -67q0 -36 -14 -69t-39 -58.5t-60 -40.5t-77 -15zM627 1602q-39 0 -73.5 14t-60 37.5t-40 55t-14.5 66.5
q0 36 15 69.5t41 59t61.5 41t76.5 15.5q39 0 72.5 -14t58.5 -38t39 -56t14 -67q0 -36 -14 -69t-39 -58.5t-60 -40.5t-77 -15z" />
    <glyph glyph-name="Eth" unicode="&#xd0;" horiz-adv-x="1686" 
d="M190 861v604h600q193 0 341.5 -47.5t249.5 -136t153 -214.5t52 -283q0 -92 -19 -186t-61 -181.5t-108 -163.5t-159.5 -132.5t-217 -89t-279.5 -32.5l-552 1v606h-150v255h150zM596 861h284v-255h-284v-367h185q100 0 173 38.5t120.5 107t70.5 163t23 205.5
q0 122 -27 211.5t-78.5 147.5t-127.5 86t-173 28h-166v-365z" />
    <glyph glyph-name="Ntilde" unicode="&#xd1;" horiz-adv-x="1740" 
d="M170 0v1465h544l420 -733l112 -231h20l-10 259v705h314v-1465h-434l-536 927l-106 219h-20l10 -238v-908h-314zM1017 1816q13 0 25 8t22 25.5t16 45.5t6 69h215q0 -95 -24.5 -163.5t-64 -112.5t-90.5 -65t-105 -21q-42 0 -73 11t-55 27.5t-42 35.5l-33.5 35.5t-30.5 27.5
t-32 11q-13 0 -25.5 -7.5t-22.5 -25t-16 -46t-6 -69.5h-215q0 95 24 163.5t64 112.5t91 65t104 21q42 0 73.5 -11t56 -27.5t43 -35.5l34.5 -35.5t30.5 -27.5t30.5 -11z" />
    <glyph glyph-name="Ograve" unicode="&#xd2;" horiz-adv-x="1746" 
d="M882 219q86 0 151 42t108.5 112t65.5 160.5t22 188.5q0 105 -25 200t-72 167t-115 114.5t-153 42.5q-86 0 -150.5 -42t-108 -112t-65.5 -161t-22 -188q0 -105 25 -200t71.5 -167t114 -114.5t153.5 -42.5zM847 -20q-162 0 -299 48t-236.5 140.5t-155.5 227t-56 307.5
q0 177 58.5 321t164.5 246.5t252.5 158.5t323.5 56q162 0 299 -48t236.5 -140t155.5 -226.5t56 -307.5q0 -177 -59 -321.5t-164.5 -247t-252.5 -158.5t-323 -56zM768 1602l-286 362h390l196 -362h-300z" />
    <glyph glyph-name="Oacute" unicode="&#xd3;" horiz-adv-x="1746" 
d="M882 219q86 0 151 42t108.5 112t65.5 160.5t22 188.5q0 105 -25 200t-72 167t-115 114.5t-153 42.5q-86 0 -150.5 -42t-108 -112t-65.5 -161t-22 -188q0 -105 25 -200t71.5 -167t114 -114.5t153.5 -42.5zM847 -20q-162 0 -299 48t-236.5 140.5t-155.5 227t-56 307.5
q0 177 58.5 321t164.5 246.5t252.5 158.5t323.5 56q162 0 299 -48t236.5 -140t155.5 -226.5t56 -307.5q0 -177 -59 -321.5t-164.5 -247t-252.5 -158.5t-323 -56zM723 1602l196 362h386l-286 -362h-296z" />
    <glyph glyph-name="Ocircumflex" unicode="&#xd4;" horiz-adv-x="1746" 
d="M882 219q86 0 151 42t108.5 112t65.5 160.5t22 188.5q0 105 -25 200t-72 167t-115 114.5t-153 42.5q-86 0 -150.5 -42t-108 -112t-65.5 -161t-22 -188q0 -105 25 -200t71.5 -167t114 -114.5t153.5 -42.5zM847 -20q-162 0 -299 48t-236.5 140.5t-155.5 227t-56 307.5
q0 177 58.5 321t164.5 246.5t252.5 158.5t323.5 56q162 0 299 -48t236.5 -140t155.5 -226.5t56 -307.5q0 -177 -59 -321.5t-164.5 -247t-252.5 -158.5t-323 -56zM456 1602l236 362h362l236 -362h-300l-119 200l-119 -200h-296z" />
    <glyph glyph-name="Otilde" unicode="&#xd5;" horiz-adv-x="1746" 
d="M882 219q86 0 151 42t108.5 112t65.5 160.5t22 188.5q0 105 -25 200t-72 167t-115 114.5t-153 42.5q-86 0 -150.5 -42t-108 -112t-65.5 -161t-22 -188q0 -105 25 -200t71.5 -167t114 -114.5t153.5 -42.5zM847 -20q-162 0 -299 48t-236.5 140.5t-155.5 227t-56 307.5
q0 177 58.5 321t164.5 246.5t252.5 158.5t323.5 56q162 0 299 -48t236.5 -140t155.5 -226.5t56 -307.5q0 -177 -59 -321.5t-164.5 -247t-252.5 -158.5t-323 -56zM1001 1816q13 0 25 8t22 25.5t16 45.5t6 69h215q0 -95 -24.5 -163.5t-64 -112.5t-90.5 -65t-105 -21
q-42 0 -73 11t-55 27.5t-42 35.5l-33.5 35.5t-30.5 27.5t-32 11q-13 0 -25.5 -7.5t-22.5 -25t-16 -46t-6 -69.5h-215q0 95 24 163.5t64 112.5t91 65t104 21q42 0 73.5 -11t56 -27.5t43 -35.5l34.5 -35.5t30.5 -27.5t30.5 -11z" />
    <glyph glyph-name="Odieresis" unicode="&#xd6;" horiz-adv-x="1746" 
d="M882 219q86 0 151 42t108.5 112t65.5 160.5t22 188.5q0 105 -25 200t-72 167t-115 114.5t-153 42.5q-86 0 -150.5 -42t-108 -112t-65.5 -161t-22 -188q0 -105 25 -200t71.5 -167t114 -114.5t153.5 -42.5zM847 -20q-162 0 -299 48t-236.5 140.5t-155.5 227t-56 307.5
q0 177 58.5 321t164.5 246.5t252.5 158.5t323.5 56q162 0 299 -48t236.5 -140t155.5 -226.5t56 -307.5q0 -177 -59 -321.5t-164.5 -247t-252.5 -158.5t-323 -56zM615 1602q-39 0 -73.5 14t-60 37.5t-40 55t-14.5 66.5q0 36 15 69.5t41 59t61.5 41t76.5 15.5q39 0 72.5 -14
t58.5 -38t39 -56t14 -67q0 -36 -14 -69t-39 -58.5t-60 -40.5t-77 -15zM1126 1602q-39 0 -73.5 14t-60 37.5t-40 55t-14.5 66.5q0 36 15 69.5t41 59t61.5 41t76.5 15.5q39 0 72.5 -14t58.5 -38t39 -56t14 -67q0 -36 -14 -69t-39 -58.5t-60 -40.5t-77 -15z" />
    <glyph glyph-name="Oslash" unicode="&#xd8;" horiz-adv-x="1746" 
d="M328 154q-108 93 -168 230.5t-60 318.5q0 177 58.5 321t164.5 246.5t252.5 158.5t323.5 56q89 0 170.5 -14.5t153.5 -43.5l111 158h275l-192 -273q108 -93 168.5 -230.5t60.5 -318.5q0 -177 -59 -321.5t-164.5 -247t-252.5 -158.5t-323 -56q-178 0 -326 58l-111 -158
h-275zM882 219q86 0 151 42t108.5 112t65.5 160.5t22 188.5q0 70 -11.5 135.5t-32.5 124.5l-490 -697q39 -32 86 -49t101 -17zM518 743q0 -70 10.5 -135t31.5 -123l490 696q-39 31 -85.5 48t-100.5 17q-86 0 -150.5 -42t-108 -112t-65.5 -161t-22 -188z" />
    <glyph glyph-name="Ugrave" unicode="&#xd9;" horiz-adv-x="1544" 
d="M566 1465v-939q0 -77 18 -135t50.5 -96t78 -57t99.5 -19q55 0 102.5 19.5t82 58t54 95.5t19.5 133v940h314v-892q0 -132 -40.5 -241t-120 -187t-197.5 -121.5t-274 -43.5q-137 0 -247 35t-186.5 105.5t-117.5 175.5t-41 245v924h406zM702 1602l-286 362h390l196 -362
h-300z" />
    <glyph glyph-name="Uacute" unicode="&#xda;" horiz-adv-x="1544" 
d="M566 1465v-939q0 -77 18 -135t50.5 -96t78 -57t99.5 -19q55 0 102.5 19.5t82 58t54 95.5t19.5 133v940h314v-892q0 -132 -40.5 -241t-120 -187t-197.5 -121.5t-274 -43.5q-137 0 -247 35t-186.5 105.5t-117.5 175.5t-41 245v924h406zM633 1602l196 362h386l-286 -362
h-296z" />
    <glyph glyph-name="Ucircumflex" unicode="&#xdb;" horiz-adv-x="1544" 
d="M566 1465v-939q0 -77 18 -135t50.5 -96t78 -57t99.5 -19q55 0 102.5 19.5t82 58t54 95.5t19.5 133v940h314v-892q0 -132 -40.5 -241t-120 -187t-197.5 -121.5t-274 -43.5q-137 0 -247 35t-186.5 105.5t-117.5 175.5t-41 245v924h406zM356 1602l236 362h362l236 -362h-300
l-119 200l-119 -200h-296z" />
    <glyph glyph-name="Udieresis" unicode="&#xdc;" horiz-adv-x="1544" 
d="M566 1465v-939q0 -77 18 -135t50.5 -96t78 -57t99.5 -19q55 0 102.5 19.5t82 58t54 95.5t19.5 133v940h314v-892q0 -132 -40.5 -241t-120 -187t-197.5 -121.5t-274 -43.5q-137 0 -247 35t-186.5 105.5t-117.5 175.5t-41 245v924h406zM519 1602q-39 0 -73.5 14t-60 37.5
t-40 55t-14.5 66.5q0 36 15 69.5t41 59t61.5 41t76.5 15.5q39 0 72.5 -14t58.5 -38t39 -56t14 -67q0 -36 -14 -69t-39 -58.5t-60 -40.5t-77 -15zM1030 1602q-39 0 -73.5 14t-60 37.5t-40 55t-14.5 66.5q0 36 15 69.5t41 59t61.5 41t76.5 15.5q39 0 72.5 -14t58.5 -38t39 -56
t14 -67q0 -36 -14 -69t-39 -58.5t-60 -40.5t-77 -15z" />
    <glyph glyph-name="Yacute" unicode="&#xdd;" horiz-adv-x="1431" 
d="M20 1465h465l282 -572l283 572h361l-492 -829v-636h-406v624zM594 1602l196 362h386l-286 -362h-296z" />
    <glyph glyph-name="Thorn" unicode="&#xde;" horiz-adv-x="1466" 
d="M576 0h-406v1465h406v-245h162q155 0 271 -33.5t193 -95.5t115.5 -149t38.5 -193q0 -117 -41 -212.5t-114 -163t-172 -104.5t-214 -37q-17 0 -32.5 1t-34.5 4l18 216q5 -1 16.5 -1.5t19.5 -0.5q46 0 77 22t50 58t27 81t8 92q0 75 -17 128t-49 86t-77 48t-101 15h-144
v-981z" />
    <glyph glyph-name="agrave" unicode="&#xe0;" 
d="M714 152l-70.5 -57t-84 -55.5t-96.5 -42.5t-107 -17q-74 0 -126.5 29.5t-85.5 74.5t-48.5 98.5t-15.5 102.5q0 77 36.5 142t111 112.5t186.5 74t262 26.5h22v52q0 77 -47 114.5t-127 37.5q-37 0 -77.5 -9t-81.5 -25t-81 -37t-76 -45l-18 10l-65 232q133 58 253 84t241 26
q96 0 182.5 -17.5t152.5 -58t105 -108.5t39 -168v-394q0 -39 15 -67.5t57 -28.5q14 0 24.5 1t25.5 7v-162q-71 -50 -142 -77t-137 -27q-78 0 -135 40.5t-92 131.5zM698 516h-26q-66 0 -111.5 -10t-73.5 -28.5t-40.5 -46.5t-12.5 -64t10.5 -60.5t28 -40t40 -22t46.5 -6.5
q32 0 68 11t71 35v232zM496 1240l-286 362h390l196 -362h-300z" />
    <glyph glyph-name="aacute" unicode="&#xe1;" 
d="M714 152l-70.5 -57t-84 -55.5t-96.5 -42.5t-107 -17q-74 0 -126.5 29.5t-85.5 74.5t-48.5 98.5t-15.5 102.5q0 77 36.5 142t111 112.5t186.5 74t262 26.5h22v52q0 77 -47 114.5t-127 37.5q-37 0 -77.5 -9t-81.5 -25t-81 -37t-76 -45l-18 10l-65 232q133 58 253 84t241 26
q96 0 182.5 -17.5t152.5 -58t105 -108.5t39 -168v-394q0 -39 15 -67.5t57 -28.5q14 0 24.5 1t25.5 7v-162q-71 -50 -142 -77t-137 -27q-78 0 -135 40.5t-92 131.5zM698 516h-26q-66 0 -111.5 -10t-73.5 -28.5t-40.5 -46.5t-12.5 -64t10.5 -60.5t28 -40t40 -22t46.5 -6.5
q32 0 68 11t71 35v232zM376 1240l196 362h386l-286 -362h-296z" />
    <glyph glyph-name="acircumflex" unicode="&#xe2;" 
d="M714 152l-70.5 -57t-84 -55.5t-96.5 -42.5t-107 -17q-74 0 -126.5 29.5t-85.5 74.5t-48.5 98.5t-15.5 102.5q0 77 36.5 142t111 112.5t186.5 74t262 26.5h22v52q0 77 -47 114.5t-127 37.5q-37 0 -77.5 -9t-81.5 -25t-81 -37t-76 -45l-18 10l-65 232q133 58 253 84t241 26
q96 0 182.5 -17.5t152.5 -58t105 -108.5t39 -168v-394q0 -39 15 -67.5t57 -28.5q14 0 24.5 1t25.5 7v-162q-71 -50 -142 -77t-137 -27q-78 0 -135 40.5t-92 131.5zM698 516h-26q-66 0 -111.5 -10t-73.5 -28.5t-40.5 -46.5t-12.5 -64t10.5 -60.5t28 -40t40 -22t46.5 -6.5
q32 0 68 11t71 35v232zM184 1240l236 362h362l236 -362h-300l-119 200l-119 -200h-296z" />
    <glyph glyph-name="atilde" unicode="&#xe3;" 
d="M714 152l-70.5 -57t-84 -55.5t-96.5 -42.5t-107 -17q-74 0 -126.5 29.5t-85.5 74.5t-48.5 98.5t-15.5 102.5q0 77 36.5 142t111 112.5t186.5 74t262 26.5h22v52q0 77 -47 114.5t-127 37.5q-37 0 -77.5 -9t-81.5 -25t-81 -37t-76 -45l-18 10l-65 232q133 58 253 84t241 26
q96 0 182.5 -17.5t152.5 -58t105 -108.5t39 -168v-394q0 -39 15 -67.5t57 -28.5q14 0 24.5 1t25.5 7v-162q-71 -50 -142 -77t-137 -27q-78 0 -135 40.5t-92 131.5zM698 516h-26q-66 0 -111.5 -10t-73.5 -28.5t-40.5 -46.5t-12.5 -64t10.5 -60.5t28 -40t40 -22t46.5 -6.5
q32 0 68 11t71 35v232zM722 1454q13 0 25 8t22 25.5t16 45.5t6 69h215q0 -95 -24.5 -163.5t-64 -112.5t-90.5 -65t-105 -21q-42 0 -73 11t-55 27.5t-42 35.5l-33.5 35.5t-30.5 27.5t-32 11q-13 0 -25.5 -7.5t-22.5 -25t-16 -46t-6 -69.5h-215q0 95 24 163.5t64 112.5t91 65
t104 21q42 0 73.5 -11t56 -27.5t43 -35.5l34.5 -35.5t30.5 -27.5t30.5 -11z" />
    <glyph glyph-name="adieresis" unicode="&#xe4;" 
d="M714 152l-70.5 -57t-84 -55.5t-96.5 -42.5t-107 -17q-74 0 -126.5 29.5t-85.5 74.5t-48.5 98.5t-15.5 102.5q0 77 36.5 142t111 112.5t186.5 74t262 26.5h22v52q0 77 -47 114.5t-127 37.5q-37 0 -77.5 -9t-81.5 -25t-81 -37t-76 -45l-18 10l-65 232q133 58 253 84t241 26
q96 0 182.5 -17.5t152.5 -58t105 -108.5t39 -168v-394q0 -39 15 -67.5t57 -28.5q14 0 24.5 1t25.5 7v-162q-71 -50 -142 -77t-137 -27q-78 0 -135 40.5t-92 131.5zM698 516h-26q-66 0 -111.5 -10t-73.5 -28.5t-40.5 -46.5t-12.5 -64t10.5 -60.5t28 -40t40 -22t46.5 -6.5
q32 0 68 11t71 35v232zM351 1240q-39 0 -73.5 14t-60 37.5t-40 55t-14.5 66.5q0 36 15 69.5t41 59t61.5 41t76.5 15.5q39 0 72.5 -14t58.5 -38t39 -56t14 -67q0 -36 -14 -69t-39 -58.5t-60 -40.5t-77 -15zM862 1240q-39 0 -73.5 14t-60 37.5t-40 55t-14.5 66.5q0 36 15 69.5
t41 59t61.5 41t76.5 15.5q39 0 72.5 -14t58.5 -38t39 -56t14 -67q0 -36 -14 -69t-39 -58.5t-60 -40.5t-77 -15z" />
    <glyph glyph-name="aring" unicode="&#xe5;" 
d="M714 152l-70.5 -57t-84 -55.5t-96.5 -42.5t-107 -17q-74 0 -126.5 29.5t-85.5 74.5t-48.5 98.5t-15.5 102.5q0 77 36.5 142t111 112.5t186.5 74t262 26.5h22v52q0 77 -47 114.5t-127 37.5q-37 0 -77.5 -9t-81.5 -25t-81 -37t-76 -45l-18 10l-65 232q133 58 253 84t241 26
q96 0 182.5 -17.5t152.5 -58t105 -108.5t39 -168v-394q0 -39 15 -67.5t57 -28.5q14 0 24.5 1t25.5 7v-162q-71 -50 -142 -77t-137 -27q-78 0 -135 40.5t-92 131.5zM698 516h-26q-66 0 -111.5 -10t-73.5 -28.5t-40.5 -46.5t-12.5 -64t10.5 -60.5t28 -40t40 -22t46.5 -6.5
q32 0 68 11t71 35v232zM488 1471q0 -45 26.5 -73t66.5 -28t67 28t27 73q0 44 -27 72t-67 28t-66.5 -28t-26.5 -72zM270 1466q0 61 25.5 110t69 83t101.5 52t124 18q67 0 122.5 -18.5t95.5 -52t62 -80t22 -102.5q0 -62 -25.5 -110.5t-69 -83t-101.5 -52.5t-124 -18
q-67 0 -122.5 18.5t-95.5 52t-62 80.5t-22 103z" />
    <glyph glyph-name="ae" unicode="&#xe6;" horiz-adv-x="1850" 
d="M718 294q-14 46 -17 91.5t-3 108.5h-26q-66 0 -111.5 -9.5t-73.5 -27.5t-40.5 -43.5t-12.5 -58.5q0 -32 10.5 -54t28 -36t40.5 -20.5t48 -6.5q45 0 84.5 16.5t72.5 39.5zM780 175l-80.5 -67.5t-92 -63t-105.5 -46.5t-120 -18q-77 0 -133.5 26t-94 68t-56 94.5
t-18.5 104.5q0 74 36.5 137t110.5 109.5t186 72.5t263 26h22v74q0 77 -47.5 114.5t-123.5 37.5q-38 0 -78 -8.5t-81.5 -24t-82 -37t-77.5 -46.5l-18 10l-65 232q132 58 254 84t232 26q114 0 203.5 -28.5t154.5 -95.5q67 62 148.5 93t181.5 31q101 0 187 -31.5t149 -91
t99 -146t36 -196.5q0 -42 -4 -73t-8 -48h-660q0 -74 22.5 -123.5t64 -79t101 -41.5t133.5 -12q62 0 139 9t152 33v-162q-60 -42 -119 -69t-115.5 -42t-111 -21t-105.5 -6q-168 0 -288 50t-191 145zM1410 618q0 116 -41.5 171t-110.5 55q-75 0 -117.5 -60t-42.5 -166h312z
" />
    <glyph glyph-name="egrave" unicode="&#xe8;" horiz-adv-x="1242" 
d="M1102 118q-60 -42 -119 -69t-115.5 -42t-111 -21t-105.5 -6q-137 0 -243.5 34.5t-179.5 99.5t-110.5 159t-37.5 214q0 141 49.5 251t132.5 186t192 116t229 40q106 0 194 -31.5t151.5 -93t98.5 -152.5t35 -209q0 -45 -4 -76t-8 -48h-660q0 -65 22.5 -109t64.5 -71.5
t101.5 -39.5t133.5 -12q61 0 138 9t152 33v-162zM802 594q0 66 -11 113.5t-30.5 78t-48 44.5t-62.5 14q-75 0 -117.5 -62.5t-42.5 -187.5h312zM540 1240l-286 362h390l196 -362h-300z" />
    <glyph glyph-name="eacute" unicode="&#xe9;" horiz-adv-x="1242" 
d="M1102 118q-60 -42 -119 -69t-115.5 -42t-111 -21t-105.5 -6q-137 0 -243.5 34.5t-179.5 99.5t-110.5 159t-37.5 214q0 141 49.5 251t132.5 186t192 116t229 40q106 0 194 -31.5t151.5 -93t98.5 -152.5t35 -209q0 -45 -4 -76t-8 -48h-660q0 -65 22.5 -109t64.5 -71.5
t101.5 -39.5t133.5 -12q61 0 138 9t152 33v-162zM802 594q0 66 -11 113.5t-30.5 78t-48 44.5t-62.5 14q-75 0 -117.5 -62.5t-42.5 -187.5h312zM472 1240l196 362h386l-286 -362h-296z" />
    <glyph glyph-name="ecircumflex" unicode="&#xea;" horiz-adv-x="1242" 
d="M1102 118q-60 -42 -119 -69t-115.5 -42t-111 -21t-105.5 -6q-137 0 -243.5 34.5t-179.5 99.5t-110.5 159t-37.5 214q0 141 49.5 251t132.5 186t192 116t229 40q106 0 194 -31.5t151.5 -93t98.5 -152.5t35 -209q0 -45 -4 -76t-8 -48h-660q0 -65 22.5 -109t64.5 -71.5
t101.5 -39.5t133.5 -12q61 0 138 9t152 33v-162zM802 594q0 66 -11 113.5t-30.5 78t-48 44.5t-62.5 14q-75 0 -117.5 -62.5t-42.5 -187.5h312zM236 1240l236 362h362l236 -362h-300l-119 200l-119 -200h-296z" />
    <glyph glyph-name="edieresis" unicode="&#xeb;" horiz-adv-x="1242" 
d="M1102 118q-60 -42 -119 -69t-115.5 -42t-111 -21t-105.5 -6q-137 0 -243.5 34.5t-179.5 99.5t-110.5 159t-37.5 214q0 141 49.5 251t132.5 186t192 116t229 40q106 0 194 -31.5t151.5 -93t98.5 -152.5t35 -209q0 -45 -4 -76t-8 -48h-660q0 -65 22.5 -109t64.5 -71.5
t101.5 -39.5t133.5 -12q61 0 138 9t152 33v-162zM802 594q0 66 -11 113.5t-30.5 78t-48 44.5t-62.5 14q-75 0 -117.5 -62.5t-42.5 -187.5h312zM397 1240q-39 0 -73.5 14t-60 37.5t-40 55t-14.5 66.5q0 36 15 69.5t41 59t61.5 41t76.5 15.5q39 0 72.5 -14t58.5 -38t39 -56
t14 -67q0 -36 -14 -69t-39 -58.5t-60 -40.5t-77 -15zM908 1240q-39 0 -73.5 14t-60 37.5t-40 55t-14.5 66.5q0 36 15 69.5t41 59t61.5 41t76.5 15.5q39 0 72.5 -14t58.5 -38t39 -56t14 -67q0 -36 -14 -69t-39 -58.5t-60 -40.5t-77 -15z" />
    <glyph glyph-name="dotlessi" unicode="&#x131;" horiz-adv-x="680" 
d="M140 1060h400v-1060h-400v1060z" />
    <glyph glyph-name="igrave" unicode="&#xec;" horiz-adv-x="680" 
d="M140 1060h400v-1060h-400v1060zM228 1240l-286 362h390l196 -362h-300z" />
    <glyph glyph-name="iacute" unicode="&#xed;" horiz-adv-x="680" 
d="M140 1060h400v-1060h-400v1060zM145 1240l196 362h386l-286 -362h-296z" />
    <glyph glyph-name="icircumflex" unicode="&#xee;" horiz-adv-x="680" 
d="M140 1060h400v-1060h-400v1060zM-71 1240l236 362h362l236 -362h-300l-119 200l-119 -200h-296z" />
    <glyph glyph-name="idieresis" unicode="&#xef;" horiz-adv-x="680" 
d="M140 1060h400v-1060h-400v1060zM88 1240q-39 0 -73.5 14t-60 37.5t-40 55t-14.5 66.5q0 36 15 69.5t41 59t61.5 41t76.5 15.5q39 0 72.5 -14t58.5 -38t39 -56t14 -67q0 -36 -14 -69t-39 -58.5t-60 -40.5t-77 -15zM599 1240q-39 0 -73.5 14t-60 37.5t-40 55t-14.5 66.5
q0 36 15 69.5t41 59t61.5 41t76.5 15.5q39 0 72.5 -14t58.5 -38t39 -56t14 -67q0 -36 -14 -69t-39 -58.5t-60 -40.5t-77 -15z" />
    <glyph glyph-name="ntilde" unicode="&#xf1;" horiz-adv-x="1386" 
d="M140 1060h342l46 -170l75.5 61.5t89.5 62t103 47.5t116 19q74 0 135.5 -25.5t105.5 -73t68.5 -114.5t24.5 -149v-718h-400v658q0 40 -11 71t-30.5 51.5t-45 31t-53.5 10.5q-45 0 -86.5 -22t-79.5 -52v-748h-400v1060zM811 1454q13 0 25 8t22 25.5t16 45.5t6 69h215
q0 -95 -24.5 -163.5t-64 -112.5t-90.5 -65t-105 -21q-42 0 -73 11t-55 27.5t-42 35.5l-33.5 35.5t-30.5 27.5t-32 11q-13 0 -25.5 -7.5t-22.5 -25t-16 -46t-6 -69.5h-215q0 95 24 163.5t64 112.5t91 65t104 21q42 0 73.5 -11t56 -27.5t43 -35.5l34.5 -35.5t30.5 -27.5
t30.5 -11z" />
    <glyph glyph-name="ograve" unicode="&#xf2;" horiz-adv-x="1356" 
d="M641 -20q-144 0 -249.5 42.5t-174.5 114.5t-103 166.5t-34 198.5q0 122 44.5 227.5t127 183.5t199.5 122.5t263 44.5q141 0 246.5 -41.5t175.5 -113t105 -166.5t35 -202q0 -125 -45.5 -231t-129 -183t-200.5 -120t-260 -43zM684 216q38 0 71.5 17t58 54t38.5 93.5
t14 136.5q0 74 -13 134.5t-37.5 103t-61 66t-82.5 23.5q-81 0 -131.5 -75t-50.5 -228q0 -79 14 -139.5t39.5 -102t61 -62.5t79.5 -21zM542 1240l-286 362h390l196 -362h-300z" />
    <glyph glyph-name="oacute" unicode="&#xf3;" horiz-adv-x="1356" 
d="M641 -20q-144 0 -249.5 42.5t-174.5 114.5t-103 166.5t-34 198.5q0 122 44.5 227.5t127 183.5t199.5 122.5t263 44.5q141 0 246.5 -41.5t175.5 -113t105 -166.5t35 -202q0 -125 -45.5 -231t-129 -183t-200.5 -120t-260 -43zM684 216q38 0 71.5 17t58 54t38.5 93.5
t14 136.5q0 74 -13 134.5t-37.5 103t-61 66t-82.5 23.5q-81 0 -131.5 -75t-50.5 -228q0 -79 14 -139.5t39.5 -102t61 -62.5t79.5 -21zM486 1240l196 362h386l-286 -362h-296z" />
    <glyph glyph-name="ocircumflex" unicode="&#xf4;" horiz-adv-x="1356" 
d="M641 -20q-144 0 -249.5 42.5t-174.5 114.5t-103 166.5t-34 198.5q0 122 44.5 227.5t127 183.5t199.5 122.5t263 44.5q141 0 246.5 -41.5t175.5 -113t105 -166.5t35 -202q0 -125 -45.5 -231t-129 -183t-200.5 -120t-260 -43zM684 216q38 0 71.5 17t58 54t38.5 93.5
t14 136.5q0 74 -13 134.5t-37.5 103t-61 66t-82.5 23.5q-81 0 -131.5 -75t-50.5 -228q0 -79 14 -139.5t39.5 -102t61 -62.5t79.5 -21zM258 1240l236 362h362l236 -362h-300l-119 200l-119 -200h-296z" />
    <glyph glyph-name="otilde" unicode="&#xf5;" horiz-adv-x="1356" 
d="M641 -20q-144 0 -249.5 42.5t-174.5 114.5t-103 166.5t-34 198.5q0 122 44.5 227.5t127 183.5t199.5 122.5t263 44.5q141 0 246.5 -41.5t175.5 -113t105 -166.5t35 -202q0 -125 -45.5 -231t-129 -183t-200.5 -120t-260 -43zM684 216q38 0 71.5 17t58 54t38.5 93.5
t14 136.5q0 74 -13 134.5t-37.5 103t-61 66t-82.5 23.5q-81 0 -131.5 -75t-50.5 -228q0 -79 14 -139.5t39.5 -102t61 -62.5t79.5 -21zM808 1454q13 0 25 8t22 25.5t16 45.5t6 69h215q0 -95 -24.5 -163.5t-64 -112.5t-90.5 -65t-105 -21q-42 0 -73 11t-55 27.5t-42 35.5
l-33.5 35.5t-30.5 27.5t-32 11q-13 0 -25.5 -7.5t-22.5 -25t-16 -46t-6 -69.5h-215q0 95 24 163.5t64 112.5t91 65t104 21q42 0 73.5 -11t56 -27.5t43 -35.5l34.5 -35.5t30.5 -27.5t30.5 -11z" />
    <glyph glyph-name="odieresis" unicode="&#xf6;" horiz-adv-x="1356" 
d="M641 -20q-144 0 -249.5 42.5t-174.5 114.5t-103 166.5t-34 198.5q0 122 44.5 227.5t127 183.5t199.5 122.5t263 44.5q141 0 246.5 -41.5t175.5 -113t105 -166.5t35 -202q0 -125 -45.5 -231t-129 -183t-200.5 -120t-260 -43zM684 216q38 0 71.5 17t58 54t38.5 93.5
t14 136.5q0 74 -13 134.5t-37.5 103t-61 66t-82.5 23.5q-81 0 -131.5 -75t-50.5 -228q0 -79 14 -139.5t39.5 -102t61 -62.5t79.5 -21zM424 1240q-39 0 -73.5 14t-60 37.5t-40 55t-14.5 66.5q0 36 15 69.5t41 59t61.5 41t76.5 15.5q39 0 72.5 -14t58.5 -38t39 -56t14 -67
q0 -36 -14 -69t-39 -58.5t-60 -40.5t-77 -15zM935 1240q-39 0 -73.5 14t-60 37.5t-40 55t-14.5 66.5q0 36 15 69.5t41 59t61.5 41t76.5 15.5q39 0 72.5 -14t58.5 -38t39 -56t14 -67q0 -36 -14 -69t-39 -58.5t-60 -40.5t-77 -15z" />
    <glyph glyph-name="oslash" unicode="&#xf8;" horiz-adv-x="1340" 
d="M254 98q-45 37 -78 83t-54 97.5t-31.5 107t-10.5 112.5q0 120 44 226t126.5 185t199 125t262.5 46q60 0 112 -8t98 -23l92 131h226l-154 -219q89 -74 131.5 -179t42.5 -221q0 -124 -45.5 -230t-129 -184t-200.5 -122.5t-259 -44.5q-60 0 -111 8t-97 22l-91 -130h-226z
M490 541q0 -53 6 -98l259 369q-19 15 -41.5 23.5t-48.5 8.5q-82 0 -128.5 -78.5t-46.5 -224.5zM675 216q39 0 71 18.5t55 56t36 94t13 132.5q0 26 -2 50.5t-5 47.5l-258 -367q40 -32 90 -32z" />
    <glyph glyph-name="ugrave" unicode="&#xf9;" horiz-adv-x="1362" 
d="M140 1060h400v-658q0 -77 36.5 -120.5t93.5 -43.5q39 0 76.5 21t75.5 53v748h400v-1060h-342l-46 170q-36 -32 -77.5 -65.5t-87.5 -61t-96 -45.5t-103 -18q-59 0 -117.5 21.5t-106 66t-77 113t-29.5 163.5v716zM556 1240l-286 362h390l196 -362h-300z" />
    <glyph glyph-name="uacute" unicode="&#xfa;" horiz-adv-x="1362" 
d="M140 1060h400v-658q0 -77 36.5 -120.5t93.5 -43.5q39 0 76.5 21t75.5 53v748h400v-1060h-342l-46 170q-36 -32 -77.5 -65.5t-87.5 -61t-96 -45.5t-103 -18q-59 0 -117.5 21.5t-106 66t-77 113t-29.5 163.5v716zM490 1240l196 362h386l-286 -362h-296z" />
    <glyph glyph-name="ucircumflex" unicode="&#xfb;" horiz-adv-x="1362" 
d="M140 1060h400v-658q0 -77 36.5 -120.5t93.5 -43.5q39 0 76.5 21t75.5 53v748h400v-1060h-342l-46 170q-36 -32 -77.5 -65.5t-87.5 -61t-96 -45.5t-103 -18q-59 0 -117.5 21.5t-106 66t-77 113t-29.5 163.5v716zM268 1240l236 362h362l236 -362h-300l-119 200l-119 -200
h-296z" />
    <glyph glyph-name="udieresis" unicode="&#xfc;" horiz-adv-x="1362" 
d="M140 1060h400v-658q0 -77 36.5 -120.5t93.5 -43.5q39 0 76.5 21t75.5 53v748h400v-1060h-342l-46 170q-36 -32 -77.5 -65.5t-87.5 -61t-96 -45.5t-103 -18q-59 0 -117.5 21.5t-106 66t-77 113t-29.5 163.5v716zM426 1240q-39 0 -73.5 14t-60 37.5t-40 55t-14.5 66.5
q0 36 15 69.5t41 59t61.5 41t76.5 15.5q39 0 72.5 -14t58.5 -38t39 -56t14 -67q0 -36 -14 -69t-39 -58.5t-60 -40.5t-77 -15zM937 1240q-39 0 -73.5 14t-60 37.5t-40 55t-14.5 66.5q0 36 15 69.5t41 59t61.5 41t76.5 15.5q39 0 72.5 -14t58.5 -38t39 -56t14 -67
q0 -36 -14 -69t-39 -58.5t-60 -40.5t-77 -15z" />
    <glyph glyph-name="yacute" unicode="&#xfd;" horiz-adv-x="1176" 
d="M30 1060h427l131 -566l39 -214h20l37 214l133 566h329l-489 -1596h-343l231 536h-189zM436 1240l196 362h386l-286 -362h-296z" />
    <glyph glyph-name="thorn" unicode="&#xfe;" horiz-adv-x="1376" 
d="M140 1602h400v-700q38 34 78 66t83.5 57t92 40t103.5 15q93 0 166.5 -43t125.5 -113.5t79.5 -160.5t27.5 -185q0 -125 -46.5 -234t-128 -190t-191 -127.5t-235.5 -46.5q-44 0 -88 5.5t-67 14.5v-536h-400v2138zM540 242q38 -17 67 -21.5t48 -4.5q61 0 105 28t72.5 73.5
t42 103t13.5 117.5q0 68 -13 121t-36.5 89t-56 55t-71.5 19q-42 0 -89 -21t-82 -57v-502z" />
    <glyph glyph-name="ydieresis" unicode="&#xff;" horiz-adv-x="1176" 
d="M30 1060h427l131 -566l39 -214h20l37 214l133 566h329l-489 -1596h-343l231 536h-189zM355 1240q-39 0 -73.5 14t-60 37.5t-40 55t-14.5 66.5q0 36 15 69.5t41 59t61.5 41t76.5 15.5q39 0 72.5 -14t58.5 -38t39 -56t14 -67q0 -36 -14 -69t-39 -58.5t-60 -40.5t-77 -15z
M866 1240q-39 0 -73.5 14t-60 37.5t-40 55t-14.5 66.5q0 36 15 69.5t41 59t61.5 41t76.5 15.5q39 0 72.5 -14t58.5 -38t39 -56t14 -67q0 -36 -14 -69t-39 -58.5t-60 -40.5t-77 -15z" />
    <glyph glyph-name="Amacron" unicode="&#x100;" horiz-adv-x="1457" 
d="M480 1465h499l438 -1465h-429l-82 320h-453l-81 -320h-332zM851 539l-115 452l-47 226h-20l-47 -226l-114 -452h343zM1049 1857v-255h-642v255h642z" />
    <glyph glyph-name="amacron" unicode="&#x101;" 
d="M714 152l-70.5 -57t-84 -55.5t-96.5 -42.5t-107 -17q-74 0 -126.5 29.5t-85.5 74.5t-48.5 98.5t-15.5 102.5q0 77 36.5 142t111 112.5t186.5 74t262 26.5h22v52q0 77 -47 114.5t-127 37.5q-37 0 -77.5 -9t-81.5 -25t-81 -37t-76 -45l-18 10l-65 232q133 58 253 84t241 26
q96 0 182.5 -17.5t152.5 -58t105 -108.5t39 -168v-394q0 -39 15 -67.5t57 -28.5q14 0 24.5 1t25.5 7v-162q-71 -50 -142 -77t-137 -27q-78 0 -135 40.5t-92 131.5zM698 516h-26q-66 0 -111.5 -10t-73.5 -28.5t-40.5 -46.5t-12.5 -64t10.5 -60.5t28 -40t40 -22t46.5 -6.5
q32 0 68 11t71 35v232zM921 1495v-255h-642v255h642z" />
    <glyph glyph-name="Abreve" unicode="&#x102;" horiz-adv-x="1457" 
d="M480 1465h499l438 -1465h-429l-82 320h-453l-81 -320h-332zM851 539l-115 452l-47 226h-20l-47 -226l-114 -452h343zM739 1817q73 0 102 39.5t29 107.5h230q0 -180 -95.5 -271t-278.5 -91q-184 0 -269 92.5t-85 269.5h230q0 -69 31.5 -108t105.5 -39z" />
    <glyph glyph-name="abreve" unicode="&#x103;" 
d="M714 152l-70.5 -57t-84 -55.5t-96.5 -42.5t-107 -17q-74 0 -126.5 29.5t-85.5 74.5t-48.5 98.5t-15.5 102.5q0 77 36.5 142t111 112.5t186.5 74t262 26.5h22v52q0 77 -47 114.5t-127 37.5q-37 0 -77.5 -9t-81.5 -25t-81 -37t-76 -45l-18 10l-65 232q133 58 253 84t241 26
q96 0 182.5 -17.5t152.5 -58t105 -108.5t39 -168v-394q0 -39 15 -67.5t57 -28.5q14 0 24.5 1t25.5 7v-162q-71 -50 -142 -77t-137 -27q-78 0 -135 40.5t-92 131.5zM698 516h-26q-66 0 -111.5 -10t-73.5 -28.5t-40.5 -46.5t-12.5 -64t10.5 -60.5t28 -40t40 -22t46.5 -6.5
q32 0 68 11t71 35v232zM593 1455q73 0 102 39.5t29 107.5h230q0 -180 -95.5 -271t-278.5 -91q-184 0 -269 92.5t-85 269.5h230q0 -69 31.5 -108t105.5 -39z" />
    <glyph glyph-name="Cacute" unicode="&#x106;" horiz-adv-x="1437" 
d="M1322 133q-45 -36 -104 -64.5t-125.5 -48t-138 -30t-140.5 -10.5q-153 0 -284 50t-226.5 142.5t-149.5 223.5t-54 292q0 128 33 237.5t92 198t139.5 156t175 113t199.5 69t212 23.5q34 0 80.5 -2.5t98 -8.5t105 -15.5t102.5 -22.5l-58 -256l-20 -8q-86 42 -165 58
t-142 16q-98 0 -178 -34.5t-137 -98t-88 -155t-31 -205.5q0 -119 34 -214.5t98.5 -162t157 -102.5t209.5 -36q49 0 91.5 6t80 16t70.5 22.5t63 25.5v-175zM683 1602l196 362h386l-286 -362h-296z" />
    <glyph glyph-name="cacute" unicode="&#x107;" horiz-adv-x="1051" 
d="M978 118q-49 -41 -96 -67.5t-93.5 -42t-93 -22t-94.5 -6.5q-125 0 -222 36.5t-163.5 102.5t-101 157t-34.5 200q0 135 51 246t139.5 190.5t208.5 123.5t258 44q22 0 50.5 -1.5t62 -5.5t70.5 -11t76 -18l-54 -246l-18 -10q-15 9 -36 19t-46 18t-53 13.5t-57 5.5
q-55 0 -99.5 -21.5t-76 -61t-49 -96.5t-17.5 -128q0 -81 22 -137.5t61 -92.5t94 -52.5t121 -16.5q22 0 43 2t43.5 7t47.5 13t56 20v-162zM412 1240l196 362h386l-286 -362h-296z" />
    <glyph glyph-name="Ccaron" unicode="&#x10c;" horiz-adv-x="1437" 
d="M1322 133q-45 -36 -104 -64.5t-125.5 -48t-138 -30t-140.5 -10.5q-153 0 -284 50t-226.5 142.5t-149.5 223.5t-54 292q0 128 33 237.5t92 198t139.5 156t175 113t199.5 69t212 23.5q34 0 80.5 -2.5t98 -8.5t105 -15.5t102.5 -22.5l-58 -256l-20 -8q-86 42 -165 58
t-142 16q-98 0 -178 -34.5t-137 -98t-88 -155t-31 -205.5q0 -119 34 -214.5t98.5 -162t157 -102.5t209.5 -36q49 0 91.5 6t80 16t70.5 22.5t63 25.5v-175zM1260 1964l-236 -362h-362l-236 362h300l119 -200l119 200h296z" />
    <glyph glyph-name="ccaron" unicode="&#x10d;" horiz-adv-x="1051" 
d="M978 118q-49 -41 -96 -67.5t-93.5 -42t-93 -22t-94.5 -6.5q-125 0 -222 36.5t-163.5 102.5t-101 157t-34.5 200q0 135 51 246t139.5 190.5t208.5 123.5t258 44q22 0 50.5 -1.5t62 -5.5t70.5 -11t76 -18l-54 -246l-18 -10q-15 9 -36 19t-46 18t-53 13.5t-57 5.5
q-55 0 -99.5 -21.5t-76 -61t-49 -96.5t-17.5 -128q0 -81 22 -137.5t61 -92.5t94 -52.5t121 -16.5q22 0 43 2t43.5 7t47.5 13t56 20v-162zM1023 1602l-236 -362h-362l-236 362h300l119 -200l119 200h296z" />
    <glyph glyph-name="Dcaron" unicode="&#x10e;" horiz-adv-x="1666" 
d="M170 1465h600q193 0 341.5 -47.5t249.5 -136t153 -214.5t52 -283q0 -92 -19 -186t-61 -181.5t-108 -163.5t-159.5 -132.5t-217 -89t-279.5 -32.5l-552 1v1465zM576 239h185q100 0 173 38.5t120.5 107t70.5 163t23 205.5q0 122 -27 211.5t-78.5 147.5t-127.5 86t-173 28
h-166v-987zM1234 1964l-236 -362h-362l-236 362h300l119 -200l119 200h296z" />
    <glyph glyph-name="dcaron" unicode="&#x10f;" horiz-adv-x="1739" 
d="M836 818q-38 17 -67 21.5t-48 4.5q-61 0 -105 -27.5t-72.5 -73.5t-42 -105.5t-13.5 -122.5q0 -64 13 -115.5t36.5 -87.5t56 -55t71.5 -19q42 0 89 21t82 57v502zM836 1602h400v-1602h-346l-42 158q-38 -34 -78 -66t-83.5 -57t-92 -40t-103.5 -15q-96 0 -172 42.5
t-129.5 112.5t-81.5 160.5t-28 185.5q0 126 46.5 235t127.5 190t190 127.5t233 46.5q48 0 92 -6t67 -14v542zM1346 1049q61 54 108.5 113t67.5 113q-26 24 -64 41.5t-80 25.5q-8 16 -13.5 36t-5.5 46q0 42 17 75t45.5 56t65.5 35t76 12q37 0 72 -11.5t62.5 -36t44.5 -63
t17 -92.5q0 -41 -12.5 -91t-46.5 -105.5t-92.5 -116t-150.5 -122.5z" />
    <glyph glyph-name="Dcroat" unicode="&#x110;" horiz-adv-x="1686" 
d="M190 861v604h600q193 0 341.5 -47.5t249.5 -136t153 -214.5t52 -283q0 -92 -19 -186t-61 -181.5t-108 -163.5t-159.5 -132.5t-217 -89t-279.5 -32.5l-552 1v606h-150v255h150zM596 861h284v-255h-284v-367h185q100 0 173 38.5t120.5 107t70.5 163t23 205.5
q0 122 -27 211.5t-78.5 147.5t-127.5 86t-173 28h-166v-365z" />
    <glyph glyph-name="dcroat" unicode="&#x111;" horiz-adv-x="1396" 
d="M836 1418v184h400v-184h150v-215h-150v-1203h-358l-42 158q-38 -34 -78 -66t-83.5 -57t-92 -40t-103.5 -15q-92 0 -166 42.5t-126 112.5t-79.5 160.5t-27.5 185.5q0 126 46.5 235t127.5 190t190 127.5t233 46.5q48 0 92 -6t67 -14v143h-360v215h360zM836 818
q-38 17 -67 21.5t-48 4.5q-61 0 -105 -27.5t-72.5 -73.5t-42 -105.5t-13.5 -122.5q0 -64 13 -115.5t36.5 -87.5t56 -55t71.5 -19q42 0 89 21t82 57v502z" />
    <glyph glyph-name="Emacron" unicode="&#x112;" horiz-adv-x="1286" 
d="M170 0v1465h989l-42 -239h-541v-362h467l-37 -219h-430v-406h590l-42 -239h-954zM998 1857v-255h-642v255h642z" />
    <glyph glyph-name="emacron" unicode="&#x113;" horiz-adv-x="1242" 
d="M1102 118q-60 -42 -119 -69t-115.5 -42t-111 -21t-105.5 -6q-137 0 -243.5 34.5t-179.5 99.5t-110.5 159t-37.5 214q0 141 49.5 251t132.5 186t192 116t229 40q106 0 194 -31.5t151.5 -93t98.5 -152.5t35 -209q0 -45 -4 -76t-8 -48h-660q0 -65 22.5 -109t64.5 -71.5
t101.5 -39.5t133.5 -12q61 0 138 9t152 33v-162zM802 594q0 66 -11 113.5t-30.5 78t-48 44.5t-62.5 14q-75 0 -117.5 -62.5t-42.5 -187.5h312zM973 1495v-255h-642v255h642z" />
    <glyph glyph-name="Edotaccent" unicode="&#x116;" horiz-adv-x="1286" 
d="M170 0v1465h989l-42 -239h-541v-362h467l-37 -219h-430v-406h590l-42 -239h-954zM676 1568q-51 0 -92 14.5t-70 40t-44.5 59.5t-15.5 73q0 40 17 76t48 62t74 41.5t95 15.5q51 0 92 -14.5t70 -40t44.5 -59.5t15.5 -73q0 -41 -17 -76.5t-48 -61.5t-74 -41.5t-95 -15.5z
" />
    <glyph glyph-name="edotaccent" unicode="&#x117;" horiz-adv-x="1242" 
d="M1102 118q-60 -42 -119 -69t-115.5 -42t-111 -21t-105.5 -6q-137 0 -243.5 34.5t-179.5 99.5t-110.5 159t-37.5 214q0 141 49.5 251t132.5 186t192 116t229 40q106 0 194 -31.5t151.5 -93t98.5 -152.5t35 -209q0 -45 -4 -76t-8 -48h-660q0 -65 22.5 -109t64.5 -71.5
t101.5 -39.5t133.5 -12q61 0 138 9t152 33v-162zM802 594q0 66 -11 113.5t-30.5 78t-48 44.5t-62.5 14q-75 0 -117.5 -62.5t-42.5 -187.5h312zM646 1206q-51 0 -92 14.5t-70 40t-44.5 59.5t-15.5 73q0 40 17 76t48 62t74 41.5t95 15.5q51 0 92 -14.5t70 -40t44.5 -59.5
t15.5 -73q0 -41 -17 -76.5t-48 -61.5t-74 -41.5t-95 -15.5z" />
    <glyph glyph-name="Ecaron" unicode="&#x11a;" horiz-adv-x="1286" 
d="M170 0v1465h989l-42 -239h-541v-362h467l-37 -219h-430v-406h590l-42 -239h-954zM1086 1964l-236 -362h-362l-236 362h300l119 -200l119 200h296z" />
    <glyph glyph-name="ecaron" unicode="&#x11b;" horiz-adv-x="1242" 
d="M1102 118q-60 -42 -119 -69t-115.5 -42t-111 -21t-105.5 -6q-137 0 -243.5 34.5t-179.5 99.5t-110.5 159t-37.5 214q0 141 49.5 251t132.5 186t192 116t229 40q106 0 194 -31.5t151.5 -93t98.5 -152.5t35 -209q0 -45 -4 -76t-8 -48h-660q0 -65 22.5 -109t64.5 -71.5
t101.5 -39.5t133.5 -12q61 0 138 9t152 33v-162zM802 594q0 66 -11 113.5t-30.5 78t-48 44.5t-62.5 14q-75 0 -117.5 -62.5t-42.5 -187.5h312zM1067 1602l-236 -362h-362l-236 362h300l119 -200l119 200h296z" />
    <glyph glyph-name="Gbreve" unicode="&#x11e;" horiz-adv-x="1568" 
d="M1418 84q-145 -53 -278.5 -78.5t-269.5 -25.5q-200 0 -345 50t-239.5 140.5t-140 217t-45.5 280.5q0 136 33 249.5t92 204.5t140.5 159t177.5 113.5t203.5 68t218.5 22.5q36 0 85 -2.5t103 -8.5t109.5 -15.5t104.5 -22.5l-57 -257l-20 -8q-43 21 -87.5 35.5t-86.5 23
t-81 12.5t-71 4q-103 0 -185.5 -33.5t-140.5 -98t-89 -159t-31 -215.5q0 -115 28.5 -210.5t81 -164.5t127.5 -107.5t169 -38.5q14 0 33 1t38.5 3t37.5 5t29 7v509h356v-660zM867 1817q73 0 102 39.5t29 107.5h230q0 -180 -95.5 -271t-278.5 -91q-184 0 -269 92.5t-85 269.5
h230q0 -69 31.5 -108t105.5 -39z" />
    <glyph glyph-name="gbreve" unicode="&#x11f;" horiz-adv-x="1235" 
d="M306 -90q-92 32 -137 77.5t-45 96.5q0 36 21 66t55 56.5t77 49.5l87 46q-81 27 -134 67.5t-84 88t-43.5 97.5t-12.5 97q0 94 42 172.5t115.5 135.5t174.5 88.5t219 31.5q83 0 163.5 -16.5t137.5 -51.5l32 16.5t41 15.5t56 11.5t77 4.5h142l-52 -236h-154q12 -26 21 -56
t9 -73q0 -90 -43.5 -165.5t-116.5 -130t-169 -85t-201 -30.5h-36q-9 -5 -20.5 -12.5t-21 -17t-16 -21.5t-6.5 -26q0 -26 23 -43.5t67 -17.5h232q72 0 145.5 -13.5t133.5 -45t97.5 -82t37.5 -124.5t-42 -151.5t-127 -141t-214 -104t-304 -40.5q-102 0 -189.5 15t-151.5 44
t-100 71t-36 95q0 42 21.5 75.5t56.5 62.5t80 54zM442 687q0 -43 14 -77.5t37.5 -59t54.5 -37.5t66 -13q33 0 62.5 12t51.5 35t35 56t13 74q0 43 -14 77.5t-37 59t-54.5 37.5t-65.5 13q-33 0 -62.5 -12t-52 -35t-35.5 -56t-13 -74zM486 -112q-28 -22 -49 -46t-21 -56
q0 -47 51.5 -76.5t151.5 -29.5q61 0 106 11t75 29t45 40.5t15 44.5q0 35 -36.5 59t-111.5 24h-226zM614 1455q73 0 102 39.5t29 107.5h230q0 -180 -95.5 -271t-278.5 -91q-184 0 -269 92.5t-85 269.5h230q0 -69 31.5 -108t105.5 -39z" />
    <glyph glyph-name="Gcommaaccent" unicode="&#x122;" horiz-adv-x="1568" 
d="M1418 84q-145 -53 -278.5 -78.5t-269.5 -25.5q-200 0 -345 50t-239.5 140.5t-140 217t-45.5 280.5q0 136 33 249.5t92 204.5t140.5 159t177.5 113.5t203.5 68t218.5 22.5q36 0 85 -2.5t103 -8.5t109.5 -15.5t104.5 -22.5l-57 -257l-20 -8q-43 21 -87.5 35.5t-86.5 23
t-81 12.5t-71 4q-103 0 -185.5 -33.5t-140.5 -98t-89 -159t-31 -215.5q0 -115 28.5 -210.5t81 -164.5t127.5 -107.5t169 -38.5q14 0 33 1t38.5 3t37.5 5t29 7v509h356v-660zM643 -659q61 54 108.5 113t67.5 113q-26 24 -64 41.5t-80 25.5q-8 16 -13.5 36t-5.5 46q0 42 17 75
t45.5 56t65.5 35t76 12q37 0 72 -11.5t62.5 -36t44.5 -63t17 -92.5q0 -41 -12.5 -91t-46.5 -105.5t-92.5 -116t-150.5 -122.5z" />
    <glyph glyph-name="gcommaaccent" unicode="&#x123;" horiz-adv-x="1235" 
d="M306 -90q-92 32 -137 77.5t-45 96.5q0 36 21 66t55 56.5t77 49.5l87 46q-81 27 -134 67.5t-84 88t-43.5 97.5t-12.5 97q0 94 42 172.5t115.5 135.5t174.5 88.5t219 31.5q83 0 163.5 -16.5t137.5 -51.5l32 16.5t41 15.5t56 11.5t77 4.5h142l-52 -236h-154q12 -26 21 -56
t9 -73q0 -90 -43.5 -165.5t-116.5 -130t-169 -85t-201 -30.5h-36q-9 -5 -20.5 -12.5t-21 -17t-16 -21.5t-6.5 -26q0 -26 23 -43.5t67 -17.5h232q72 0 145.5 -13.5t133.5 -45t97.5 -82t37.5 -124.5t-42 -151.5t-127 -141t-214 -104t-304 -40.5q-102 0 -189.5 15t-151.5 44
t-100 71t-36 95q0 42 21.5 75.5t56.5 62.5t80 54zM442 687q0 -43 14 -77.5t37.5 -59t54.5 -37.5t66 -13q33 0 62.5 12t51.5 35t35 56t13 74q0 43 -14 77.5t-37 59t-54.5 37.5t-65.5 13q-33 0 -62.5 -12t-52 -35t-35.5 -56t-13 -74zM486 -112q-28 -22 -49 -46t-21 -56
q0 -47 51.5 -76.5t151.5 -29.5q61 0 106 11t75 29t45 40.5t15 44.5q0 35 -36.5 59t-111.5 24h-226zM820 1719q-61 -54 -108.5 -113t-67.5 -113q26 -24 64 -41.5t80 -25.5q8 -16 13.5 -36t5.5 -46q0 -42 -17.5 -75t-46 -56t-65 -35t-75.5 -12q-37 0 -72 11.5t-62.5 36
t-44.5 63t-17 92.5q0 41 12.5 91t46.5 105.5t92.5 116t150.5 122.5z" />
    <glyph glyph-name="Imacron" unicode="&#x12a;" horiz-adv-x="746" 
d="M576 0h-406v1465h406v-1465zM693 1857v-255h-642v255h642z" />
    <glyph glyph-name="imacron" unicode="&#x12b;" horiz-adv-x="680" 
d="M140 1060h400v-1060h-400v1060zM664 1495v-255h-642v255h642z" />
    <glyph glyph-name="Idotaccent" unicode="&#x130;" horiz-adv-x="746" 
d="M576 0h-406v1465h406v-1465zM365 1568q-51 0 -92 14.5t-70 40t-44.5 59.5t-15.5 73q0 40 17 76t48 62t74 41.5t95 15.5q51 0 92 -14.5t70 -40t44.5 -59.5t15.5 -73q0 -41 -17 -76.5t-48 -61.5t-74 -41.5t-95 -15.5z" />
    <glyph glyph-name="Kcommaaccent" unicode="&#x136;" horiz-adv-x="1664" 
d="M576 0h-406v1465h406v-1465zM1126 0l-463 740l538 725h372l-522 -629l563 -836h-488zM620 -659q61 54 108.5 113t67.5 113q-26 24 -64 41.5t-80 25.5q-8 16 -13.5 36t-5.5 46q0 42 17 75t45.5 56t65.5 35t76 12q37 0 72 -11.5t62.5 -36t44.5 -63t17 -92.5
q0 -41 -12.5 -91t-46.5 -105.5t-92.5 -116t-150.5 -122.5z" />
    <glyph glyph-name="kcommaaccent" unicode="&#x137;" horiz-adv-x="1340" 
d="M140 1602h400v-1602h-400v1602zM848 0l-278 540l365 508h360l-354 -436l373 -612h-466zM476 -659q61 54 108.5 113t67.5 113q-26 24 -64 41.5t-80 25.5q-8 16 -13.5 36t-5.5 46q0 42 17 75t45.5 56t65.5 35t76 12q37 0 72 -11.5t62.5 -36t44.5 -63t17 -92.5
q0 -41 -12.5 -91t-46.5 -105.5t-92.5 -116t-150.5 -122.5z" />
    <glyph glyph-name="Lacute" unicode="&#x139;" horiz-adv-x="1196" 
d="M170 0v1465h406v-1226h530l-42 -239h-894zM225 1602l196 362h386l-286 -362h-296z" />
    <glyph glyph-name="lacute" unicode="&#x13a;" horiz-adv-x="680" 
d="M170 1697l191 299h386l-281 -299h-296zM140 1602h400v-1602h-400v1602z" />
    <glyph glyph-name="Lcommaaccent" unicode="&#x13b;" horiz-adv-x="1196" 
d="M170 0v1465h406v-1226h530l-42 -239h-894zM389 -659q61 54 108.5 113t67.5 113q-26 24 -64 41.5t-80 25.5q-8 16 -13.5 36t-5.5 46q0 42 17 75t45.5 56t65.5 35t76 12q37 0 72 -11.5t62.5 -36t44.5 -63t17 -92.5q0 -41 -12.5 -91t-46.5 -105.5t-92.5 -116t-150.5 -122.5z
" />
    <glyph glyph-name="lcommaaccent" unicode="&#x13c;" horiz-adv-x="680" 
d="M140 1602h400v-1602h-400v1602zM137 -659q61 54 108.5 113t67.5 113q-26 24 -64 41.5t-80 25.5q-8 16 -13.5 36t-5.5 46q0 42 17 75t45.5 56t65.5 35t76 12q37 0 72 -11.5t62.5 -36t44.5 -63t17 -92.5q0 -41 -12.5 -91t-46.5 -105.5t-92.5 -116t-150.5 -122.5z" />
    <glyph glyph-name="Lcaron" unicode="&#x13d;" horiz-adv-x="1196" 
d="M170 0v1465h406v-1226h530l-42 -239h-894zM687 1049q61 54 108.5 113t67.5 113q-26 24 -64 41.5t-80 25.5q-8 16 -13.5 36t-5.5 46q0 42 17 75t45.5 56t65.5 35t76 12q37 0 72 -11.5t62.5 -36t44.5 -63t17 -92.5q0 -41 -12.5 -91t-46.5 -105.5t-92.5 -116t-150.5 -122.5z
" />
    <glyph glyph-name="lcaron" unicode="&#x13e;" horiz-adv-x="1043" 
d="M140 1602h400v-1602h-400v1602zM650 1049q61 54 108.5 113t67.5 113q-26 24 -64 41.5t-80 25.5q-8 16 -13.5 36t-5.5 46q0 42 17 75t45.5 56t65.5 35t76 12q37 0 72 -11.5t62.5 -36t44.5 -63t17 -92.5q0 -41 -12.5 -91t-46.5 -105.5t-92.5 -116t-150.5 -122.5z" />
    <glyph glyph-name="lslash" unicode="&#x142;" horiz-adv-x="732" 
d="M166 756v846h400v-599l136 84v-253l-136 -84v-750h-400v503l-136 -84v253z" />
    <glyph glyph-name="Nacute" unicode="&#x143;" horiz-adv-x="1740" 
d="M170 0v1465h544l420 -733l112 -231h20l-10 259v705h314v-1465h-434l-536 927l-106 219h-20l10 -238v-908h-314zM738 1602l196 362h386l-286 -362h-296z" />
    <glyph glyph-name="nacute" unicode="&#x144;" horiz-adv-x="1386" 
d="M140 1060h342l46 -170l75.5 61.5t89.5 62t103 47.5t116 19q74 0 135.5 -25.5t105.5 -73t68.5 -114.5t24.5 -149v-718h-400v658q0 40 -11 71t-30.5 51.5t-45 31t-53.5 10.5q-45 0 -86.5 -22t-79.5 -52v-748h-400v1060zM477 1240l196 362h386l-286 -362h-296z" />
    <glyph glyph-name="Ncommaaccent" unicode="&#x145;" horiz-adv-x="1740" 
d="M170 0v1465h544l420 -733l112 -231h20l-10 259v705h314v-1465h-434l-536 927l-106 219h-20l10 -238v-908h-314zM652 -659q61 54 108.5 113t67.5 113q-26 24 -64 41.5t-80 25.5q-8 16 -13.5 36t-5.5 46q0 42 17 75t45.5 56t65.5 35t76 12q37 0 72 -11.5t62.5 -36t44.5 -63
t17 -92.5q0 -41 -12.5 -91t-46.5 -105.5t-92.5 -116t-150.5 -122.5z" />
    <glyph glyph-name="ncommaaccent" unicode="&#x146;" horiz-adv-x="1386" 
d="M140 1060h342l46 -170l75.5 61.5t89.5 62t103 47.5t116 19q74 0 135.5 -25.5t105.5 -73t68.5 -114.5t24.5 -149v-718h-400v658q0 40 -11 71t-30.5 51.5t-45 31t-53.5 10.5q-45 0 -86.5 -22t-79.5 -52v-748h-400v1060zM490 -659q61 54 108.5 113t67.5 113q-26 24 -64 41.5
t-80 25.5q-8 16 -13.5 36t-5.5 46q0 42 17 75t45.5 56t65.5 35t76 12q37 0 72 -11.5t62.5 -36t44.5 -63t17 -92.5q0 -41 -12.5 -91t-46.5 -105.5t-92.5 -116t-150.5 -122.5z" />
    <glyph glyph-name="Ncaron" unicode="&#x147;" horiz-adv-x="1740" 
d="M170 0v1465h544l420 -733l112 -231h20l-10 259v705h314v-1465h-434l-536 927l-106 219h-20l10 -238v-908h-314zM1378 1964l-236 -362h-362l-236 362h300l119 -200l119 200h296z" />
    <glyph glyph-name="ncaron" unicode="&#x148;" horiz-adv-x="1386" 
d="M140 1060h342l46 -170l75.5 61.5t89.5 62t103 47.5t116 19q74 0 135.5 -25.5t105.5 -73t68.5 -114.5t24.5 -149v-718h-400v658q0 40 -11 71t-30.5 51.5t-45 31t-53.5 10.5q-45 0 -86.5 -22t-79.5 -52v-748h-400v1060zM1104 1602l-236 -362h-362l-236 362h300l119 -200
l119 200h296z" />
    <glyph glyph-name="Omacron" unicode="&#x14c;" horiz-adv-x="1746" 
d="M882 219q86 0 151 42t108.5 112t65.5 160.5t22 188.5q0 105 -25 200t-72 167t-115 114.5t-153 42.5q-86 0 -150.5 -42t-108 -112t-65.5 -161t-22 -188q0 -105 25 -200t71.5 -167t114 -114.5t153.5 -42.5zM847 -20q-162 0 -299 48t-236.5 140.5t-155.5 227t-56 307.5
q0 177 58.5 321t164.5 246.5t252.5 158.5t323.5 56q162 0 299 -48t236.5 -140t155.5 -226.5t56 -307.5q0 -177 -59 -321.5t-164.5 -247t-252.5 -158.5t-323 -56zM1191 1857v-255h-642v255h642z" />
    <glyph glyph-name="omacron" unicode="&#x14d;" horiz-adv-x="1356" 
d="M641 -20q-144 0 -249.5 42.5t-174.5 114.5t-103 166.5t-34 198.5q0 122 44.5 227.5t127 183.5t199.5 122.5t263 44.5q141 0 246.5 -41.5t175.5 -113t105 -166.5t35 -202q0 -125 -45.5 -231t-129 -183t-200.5 -120t-260 -43zM684 216q38 0 71.5 17t58 54t38.5 93.5
t14 136.5q0 74 -13 134.5t-37.5 103t-61 66t-82.5 23.5q-81 0 -131.5 -75t-50.5 -228q0 -79 14 -139.5t39.5 -102t61 -62.5t79.5 -21zM999 1495v-255h-642v255h642z" />
    <glyph glyph-name="Ohungarumlaut" unicode="&#x150;" horiz-adv-x="1746" 
d="M882 219q86 0 151 42t108.5 112t65.5 160.5t22 188.5q0 105 -25 200t-72 167t-115 114.5t-153 42.5q-86 0 -150.5 -42t-108 -112t-65.5 -161t-22 -188q0 -105 25 -200t71.5 -167t114 -114.5t153.5 -42.5zM847 -20q-162 0 -299 48t-236.5 140.5t-155.5 227t-56 307.5
q0 177 58.5 321t164.5 246.5t252.5 158.5t323.5 56q162 0 299 -48t236.5 -140t155.5 -226.5t56 -307.5q0 -177 -59 -321.5t-164.5 -247t-252.5 -158.5t-323 -56zM499 1602l176 362h358l-266 -362h-268zM997 1602l176 362h358l-266 -362h-268z" />
    <glyph glyph-name="ohungarumlaut" unicode="&#x151;" horiz-adv-x="1356" 
d="M641 -20q-144 0 -249.5 42.5t-174.5 114.5t-103 166.5t-34 198.5q0 122 44.5 227.5t127 183.5t199.5 122.5t263 44.5q141 0 246.5 -41.5t175.5 -113t105 -166.5t35 -202q0 -125 -45.5 -231t-129 -183t-200.5 -120t-260 -43zM684 216q38 0 71.5 17t58 54t38.5 93.5
t14 136.5q0 74 -13 134.5t-37.5 103t-61 66t-82.5 23.5q-81 0 -131.5 -75t-50.5 -228q0 -79 14 -139.5t39.5 -102t61 -62.5t79.5 -21zM318 1240l176 362h358l-266 -362h-268zM816 1240l176 362h358l-266 -362h-268z" />
    <glyph glyph-name="OE" unicode="&#x152;" horiz-adv-x="2278" 
d="M1162 1222q-58 14 -112.5 19t-88.5 5q-117 0 -200.5 -40.5t-137.5 -110t-79.5 -162t-25.5 -195.5q0 -107 27 -201.5t83.5 -165t142 -111.5t202.5 -41q15 0 37.5 1t48 2.5t52 4.5t51.5 8v987zM2151 1465l-42 -239h-541v-362h467l-37 -219h-430v-406h590l-42 -239h-818
q-48 0 -104.5 -3t-114 -7t-112 -7t-99.5 -3q-162 0 -302.5 48t-244 140.5t-162.5 226.5t-59 306q0 178 63.5 322.5t174.5 247t261 158.5t324 56q44 0 92 -3t96 -7t96 -7t92 -3h852z" />
    <glyph glyph-name="oe" unicode="&#x153;" horiz-adv-x="2012" 
d="M1872 118q-61 -43 -121 -70t-117 -42t-109.5 -20.5t-98.5 -5.5q-137 0 -235 38.5t-170 116.5q-82 -80 -180.5 -117.5t-221.5 -37.5q-93 0 -169.5 20.5t-136.5 56t-104 85t-72.5 107t-42.5 121.5t-14 129q0 120 44.5 226t126.5 184.5t197.5 124.5t256.5 46
q121 0 212.5 -37t163.5 -119q156 156 378 156q102 0 189 -31.5t150 -93t98.5 -152.5t35.5 -209q0 -45 -4 -76t-8 -48h-660q0 -65 22.5 -109t64.5 -71.5t101.5 -39.5t133.5 -12q61 0 138 9t152 33v-162zM675 216q39 0 71 18.5t55 56t36 94t13 132.5q0 70 -11.5 130t-35 104
t-58 68.5t-80.5 24.5q-82 0 -128.5 -78.5t-46.5 -224.5q0 -75 12.5 -135t36.5 -102.5t58.5 -65t77.5 -22.5zM1572 594q0 66 -11 113.5t-30.5 78t-48 44.5t-62.5 14q-75 0 -117.5 -62.5t-42.5 -187.5h312z" />
    <glyph glyph-name="Racute" unicode="&#x154;" horiz-adv-x="1491" 
d="M576 528v-528h-406v1465h563q154 0 266 -31t185 -83.5t107.5 -121t34.5 -142.5q0 -69 -26 -129.5t-67 -112t-90.5 -94t-95.5 -75.5l404 -676h-469l-248 528h-158zM576 747h228q23 13 46.5 35t42 52.5t30 69t11.5 85.5q0 51 -15 94t-44 75t-71.5 50t-98.5 18h-129v-479z
M482 1602l196 362h386l-286 -362h-296z" />
    <glyph glyph-name="racute" unicode="&#x155;" horiz-adv-x="1066" 
d="M140 1060h342l46 -308l34 61.5l31.5 56l25 44t13.5 24.5q19 31 41.5 57t51 45t64 29.5t80.5 10.5q29 0 66.5 -8t70.5 -25l-44 -357q-10 2 -26.5 3.5t-35.5 2.5t-37 1.5t-31 0.5q-44 0 -87 -6t-81.5 -17.5t-70.5 -28t-53 -36.5v-610h-400v1060zM325 1240l196 362h386
l-286 -362h-296z" />
    <glyph glyph-name="Rcommaaccent" unicode="&#x156;" horiz-adv-x="1491" 
d="M576 528v-528h-406v1465h563q154 0 266 -31t185 -83.5t107.5 -121t34.5 -142.5q0 -69 -26 -129.5t-67 -112t-90.5 -94t-95.5 -75.5l404 -676h-469l-248 528h-158zM576 747h228q23 13 46.5 35t42 52.5t30 69t11.5 85.5q0 51 -15 94t-44 75t-71.5 50t-98.5 18h-129v-479z
M550 -659q61 54 108.5 113t67.5 113q-26 24 -64 41.5t-80 25.5q-8 16 -13.5 36t-5.5 46q0 42 17 75t45.5 56t65.5 35t76 12q37 0 72 -11.5t62.5 -36t44.5 -63t17 -92.5q0 -41 -12.5 -91t-46.5 -105.5t-92.5 -116t-150.5 -122.5z" />
    <glyph glyph-name="rcommaaccent" unicode="&#x157;" horiz-adv-x="1066" 
d="M140 1060h342l46 -308l34 61.5l31.5 56l25 44t13.5 24.5q19 31 41.5 57t51 45t64 29.5t80.5 10.5q29 0 66.5 -8t70.5 -25l-44 -357q-10 2 -26.5 3.5t-35.5 2.5t-37 1.5t-31 0.5q-44 0 -87 -6t-81.5 -17.5t-70.5 -28t-53 -36.5v-610h-400v1060zM129 -659q61 54 108.5 113
t67.5 113q-26 24 -64 41.5t-80 25.5q-8 16 -13.5 36t-5.5 46q0 42 17 75t45.5 56t65.5 35t76 12q37 0 72 -11.5t62.5 -36t44.5 -63t17 -92.5q0 -41 -12.5 -91t-46.5 -105.5t-92.5 -116t-150.5 -122.5z" />
    <glyph glyph-name="Rcaron" unicode="&#x158;" horiz-adv-x="1491" 
d="M576 528v-528h-406v1465h563q154 0 266 -31t185 -83.5t107.5 -121t34.5 -142.5q0 -69 -26 -129.5t-67 -112t-90.5 -94t-95.5 -75.5l404 -676h-469l-248 528h-158zM576 747h228q23 13 46.5 35t42 52.5t30 69t11.5 85.5q0 51 -15 94t-44 75t-71.5 50t-98.5 18h-129v-479z
M1128 1964l-236 -362h-362l-236 362h300l119 -200l119 200h296z" />
    <glyph glyph-name="rcaron" unicode="&#x159;" horiz-adv-x="1066" 
d="M140 1060h342l46 -308l34 61.5l31.5 56l25 44t13.5 24.5q19 31 41.5 57t51 45t64 29.5t80.5 10.5q29 0 66.5 -8t70.5 -25l-44 -357q-10 2 -26.5 3.5t-35.5 2.5t-37 1.5t-31 0.5q-44 0 -87 -6t-81.5 -17.5t-70.5 -28t-53 -36.5v-610h-400v1060zM974 1602l-236 -362h-362
l-236 362h300l119 -200l119 200h296z" />
    <glyph glyph-name="Sacute" unicode="&#x15a;" horiz-adv-x="1206" 
d="M540 219q40 0 79.5 8t70 27t49.5 49t19 74q0 53 -27.5 90t-72.5 65.5t-102 52.5l-117 50t-117 58.5t-102 78.5t-72.5 109.5t-27.5 151.5q0 103 40 187t114 142.5t180 90.5t237 32q34 0 81.5 -2.5t101 -8.5t109.5 -15.5t108 -23.5l-58 -255l-17 -8q-44 20 -89 34t-87.5 23
t-80 13t-66.5 4q-90 0 -143 -36t-53 -108q0 -52 27.5 -88t72.5 -64t102.5 -51t117 -49.5t117 -59t102.5 -79t72.5 -111t27.5 -153.5q0 -106 -40.5 -192t-116.5 -147t-185 -94.5t-245 -33.5q-49 0 -106.5 5t-120 16t-126.5 29t-126 45l57 256l21 10l110.5 -49t99 -38.5
t92.5 -25.5t90 -9zM467 1602l196 362h386l-286 -362h-296z" />
    <glyph glyph-name="sacute" unicode="&#x15b;" horiz-adv-x="1054" 
d="M124 304l18 10q42 -23 86.5 -41t88 -30.5t85.5 -19.5t80 -7q40 0 67 7.5t43.5 19.5t24 27.5t7.5 31.5q0 30 -22.5 48.5t-59 31.5t-83 23t-95.5 24t-95.5 34.5t-83 53t-59 81t-22.5 118.5q0 82 33 149t99 115t164.5 74t228.5 26q34 0 75.5 -2t83 -6t80.5 -10.5t68 -15.5
l-54 -248l-18 -10q-77 30 -146.5 43t-118.5 13q-39 0 -65 -7t-41.5 -19t-22 -26.5t-6.5 -29.5q0 -32 22.5 -51t59 -32t83 -23t95.5 -23t95.5 -32t83 -51t59 -79.5t22.5 -116.5q0 -73 -28 -140.5t-89 -119.5t-156.5 -83t-230.5 -31q-50 0 -103.5 4.5t-107 14t-104.5 23.5
t-95 34zM355 1240l196 362h386l-286 -362h-296z" />
    <glyph glyph-name="uni015E" unicode="&#x15e;" horiz-adv-x="1206" 
d="M540 219q40 0 79.5 8t70 27t49.5 49t19 74q0 53 -27.5 90t-72.5 65.5t-102 52.5l-117 50t-117 58.5t-102 78.5t-72.5 109.5t-27.5 151.5q0 103 40 187t114 142.5t180 90.5t237 32q34 0 81.5 -2.5t101 -8.5t109.5 -15.5t108 -23.5l-58 -255l-17 -8q-44 20 -89 34t-87.5 23
t-80 13t-66.5 4q-90 0 -143 -36t-53 -108q0 -52 27.5 -88t72.5 -64t102.5 -51t117 -49.5t117 -59t102.5 -79t72.5 -111t27.5 -153.5q0 -86 -27 -159t-78 -130.5t-125 -98t-168 -60.5q20 -28 36 -67t16 -90q0 -53 -22.5 -106.5t-71.5 -96.5t-126.5 -69.5t-186.5 -26.5h-55
v194h51q50 0 85 13t57.5 35t33 49t10.5 56q0 43 -25 90q-49 0 -106 5t-117.5 16.5t-123.5 29.5t-123 44l57 256l21 10l110.5 -49t99 -38.5t92.5 -25.5t90 -9z" />
    <glyph glyph-name="uni015F" unicode="&#x15f;" horiz-adv-x="1054" 
d="M124 304l18 10q42 -23 86.5 -41t88 -30.5t85.5 -19.5t80 -7q40 0 67 7.5t43.5 19.5t24 27.5t7.5 31.5q0 30 -22.5 48.5t-59 31.5t-83 23t-95.5 24t-95.5 34.5t-83 53t-59 81t-22.5 118.5q0 82 33 149t99 115t164.5 74t228.5 26q34 0 75.5 -2t83 -6t80.5 -10.5t68 -15.5
l-54 -248l-18 -10q-77 30 -146.5 43t-118.5 13q-39 0 -65 -7t-41.5 -19t-22 -26.5t-6.5 -29.5q0 -32 22.5 -51t59 -32t83 -23t95.5 -23t95.5 -32t83 -51t59 -79.5t22.5 -116.5q0 -58 -18 -113t-55.5 -102t-97 -83t-141.5 -55q20 -29 37 -68.5t17 -90.5q0 -53 -22.5 -106.5
t-71.5 -96.5t-126.5 -69.5t-186.5 -26.5h-55v194h51q50 0 85 13t57.5 35t33 49t10.5 56q0 43 -25 90q-49 0 -102 5t-106 14t-103.5 23t-94.5 34z" />
    <glyph glyph-name="Scaron" unicode="&#x160;" horiz-adv-x="1206" 
d="M540 219q40 0 79.5 8t70 27t49.5 49t19 74q0 53 -27.5 90t-72.5 65.5t-102 52.5l-117 50t-117 58.5t-102 78.5t-72.5 109.5t-27.5 151.5q0 103 40 187t114 142.5t180 90.5t237 32q34 0 81.5 -2.5t101 -8.5t109.5 -15.5t108 -23.5l-58 -255l-17 -8q-44 20 -89 34t-87.5 23
t-80 13t-66.5 4q-90 0 -143 -36t-53 -108q0 -52 27.5 -88t72.5 -64t102.5 -51t117 -49.5t117 -59t102.5 -79t72.5 -111t27.5 -153.5q0 -106 -40.5 -192t-116.5 -147t-185 -94.5t-245 -33.5q-49 0 -106.5 5t-120 16t-126.5 29t-126 45l57 256l21 10l110.5 -49t99 -38.5
t92.5 -25.5t90 -9zM1060 1964l-236 -362h-362l-236 362h300l119 -200l119 200h296z" />
    <glyph glyph-name="scaron" unicode="&#x161;" horiz-adv-x="1054" 
d="M124 304l18 10q42 -23 86.5 -41t88 -30.5t85.5 -19.5t80 -7q40 0 67 7.5t43.5 19.5t24 27.5t7.5 31.5q0 30 -22.5 48.5t-59 31.5t-83 23t-95.5 24t-95.5 34.5t-83 53t-59 81t-22.5 118.5q0 82 33 149t99 115t164.5 74t228.5 26q34 0 75.5 -2t83 -6t80.5 -10.5t68 -15.5
l-54 -248l-18 -10q-77 30 -146.5 43t-118.5 13q-39 0 -65 -7t-41.5 -19t-22 -26.5t-6.5 -29.5q0 -32 22.5 -51t59 -32t83 -23t95.5 -23t95.5 -32t83 -51t59 -79.5t22.5 -116.5q0 -73 -28 -140.5t-89 -119.5t-156.5 -83t-230.5 -31q-50 0 -103.5 4.5t-107 14t-104.5 23.5
t-95 34zM968 1602l-236 -362h-362l-236 362h300l119 -200l119 200h296z" />
    <glyph glyph-name="Tcaron" unicode="&#x164;" horiz-adv-x="1415" 
d="M910 0h-406v1226h-444l42 239h1253l-42 -239h-403v-1226zM1129 1964l-236 -362h-362l-236 362h300l119 -200l119 200h296z" />
    <glyph glyph-name="tcaron" unicode="&#x165;" horiz-adv-x="1047" 
d="M737 1225q49 35 85 72t56 72q-23 17 -54.5 29t-66.5 18q-6 12 -11 26.5t-5 32.5q0 30 14.5 53.5t38.5 40t54.5 25t63.5 8.5q31 0 60.5 -8.5t52.5 -26t37 -45t14 -65.5q0 -29 -10.5 -65t-38.5 -75.5t-77.5 -83t-126.5 -87.5zM222 824h-212l24 164q54 21 93 39t69 37.5
t53 42.5t45 54t45.5 71.5l54.5 95.5h200v-268h372l-52 -236h-292v-406q0 -100 50.5 -140t148.5 -40q35 0 72.5 5.5t73.5 20.5v-162q-83 -63 -185 -92.5t-202 -29.5t-168.5 28t-110.5 79.5t-60.5 124.5t-18.5 164v448z" />
    <glyph glyph-name="Umacron" unicode="&#x16a;" horiz-adv-x="1544" 
d="M566 1465v-939q0 -77 18 -135t50.5 -96t78 -57t99.5 -19q55 0 102.5 19.5t82 58t54 95.5t19.5 133v940h314v-892q0 -132 -40.5 -241t-120 -187t-197.5 -121.5t-274 -43.5q-137 0 -247 35t-186.5 105.5t-117.5 175.5t-41 245v924h406zM1119 1857v-255h-642v255h642z" />
    <glyph glyph-name="umacron" unicode="&#x16b;" horiz-adv-x="1362" 
d="M140 1060h400v-658q0 -77 36.5 -120.5t93.5 -43.5q39 0 76.5 21t75.5 53v748h400v-1060h-342l-46 170q-36 -32 -77.5 -65.5t-87.5 -61t-96 -45.5t-103 -18q-59 0 -117.5 21.5t-106 66t-77 113t-29.5 163.5v716zM1007 1495v-255h-642v255h642z" />
    <glyph glyph-name="Uring" unicode="&#x16e;" horiz-adv-x="1544" 
d="M566 1465v-939q0 -77 18 -135t50.5 -96t78 -57t99.5 -19q55 0 102.5 19.5t82 58t54 95.5t19.5 133v940h314v-892q0 -132 -40.5 -241t-120 -187t-197.5 -121.5t-274 -43.5q-137 0 -247 35t-186.5 105.5t-117.5 175.5t-41 245v924h406zM699 1724q0 -45 26.5 -73t66.5 -28
t67 28t27 73q0 44 -27 72t-67 28t-66.5 -28t-26.5 -72zM481 1719q0 61 25.5 110t69 83t101.5 52t124 18q67 0 122.5 -18.5t95.5 -52t62 -80t22 -102.5q0 -62 -25.5 -110.5t-69 -83t-101.5 -52.5t-124 -18q-67 0 -122.5 18.5t-95.5 52t-62 80.5t-22 103z" />
    <glyph glyph-name="uring" unicode="&#x16f;" horiz-adv-x="1362" 
d="M140 1060h400v-658q0 -77 36.5 -120.5t93.5 -43.5q39 0 76.5 21t75.5 53v748h400v-1060h-342l-46 170q-36 -32 -77.5 -65.5t-87.5 -61t-96 -45.5t-103 -18q-59 0 -117.5 21.5t-106 66t-77 113t-29.5 163.5v716zM593 1471q0 -45 26.5 -73t66.5 -28t67 28t27 73
q0 44 -27 72t-67 28t-66.5 -28t-26.5 -72zM375 1466q0 61 25.5 110t69 83t101.5 52t124 18q67 0 122.5 -18.5t95.5 -52t62 -80t22 -102.5q0 -62 -25.5 -110.5t-69 -83t-101.5 -52.5t-124 -18q-67 0 -122.5 18.5t-95.5 52t-62 80.5t-22 103z" />
    <glyph glyph-name="Uhungarumlaut" unicode="&#x170;" horiz-adv-x="1544" 
d="M566 1465v-939q0 -77 18 -135t50.5 -96t78 -57t99.5 -19q55 0 102.5 19.5t82 58t54 95.5t19.5 133v940h314v-892q0 -132 -40.5 -241t-120 -187t-197.5 -121.5t-274 -43.5q-137 0 -247 35t-186.5 105.5t-117.5 175.5t-41 245v924h406zM373 1602l176 362h358l-266 -362
h-268zM871 1602l176 362h358l-266 -362h-268z" />
    <glyph glyph-name="uhungarumlaut" unicode="&#x171;" horiz-adv-x="1362" 
d="M140 1060h400v-658q0 -77 36.5 -120.5t93.5 -43.5q39 0 76.5 21t75.5 53v748h400v-1060h-342l-46 170q-36 -32 -77.5 -65.5t-87.5 -61t-96 -45.5t-103 -18q-59 0 -117.5 21.5t-106 66t-77 113t-29.5 163.5v716zM260 1240l176 362h358l-266 -362h-268zM758 1240l176 362
h358l-266 -362h-268z" />
    <glyph glyph-name="Ydieresis" unicode="&#x178;" horiz-adv-x="1431" 
d="M20 1465h465l282 -572l283 572h361l-492 -829v-636h-406v624zM498 1602q-39 0 -73.5 14t-60 37.5t-40 55t-14.5 66.5q0 36 15 69.5t41 59t61.5 41t76.5 15.5q39 0 72.5 -14t58.5 -38t39 -56t14 -67q0 -36 -14 -69t-39 -58.5t-60 -40.5t-77 -15zM1009 1602q-39 0 -73.5 14
t-60 37.5t-40 55t-14.5 66.5q0 36 15 69.5t41 59t61.5 41t76.5 15.5q39 0 72.5 -14t58.5 -38t39 -56t14 -67q0 -36 -14 -69t-39 -58.5t-60 -40.5t-77 -15z" />
    <glyph glyph-name="Zacute" unicode="&#x179;" horiz-adv-x="1357" 
d="M742 1212v20l-189 -6h-410l42 239h1059v-76l-560 -980l-109 -160v-18l185 8h517l-42 -239h-1155v76l549 974zM483 1602l196 362h386l-286 -362h-296z" />
    <glyph glyph-name="zacute" unicode="&#x17a;" horiz-adv-x="1104" 
d="M60 76l362 592l106 142v20l-182 -6h-246l52 236h864v-76l-368 -598l-102 -140v-18l178 8h320l-52 -236h-932v76zM409 1240l196 362h386l-286 -362h-296z" />
    <glyph glyph-name="Zdotaccent" unicode="&#x17b;" horiz-adv-x="1357" 
d="M742 1212v20l-189 -6h-410l42 239h1059v-76l-560 -980l-109 -160v-18l185 8h517l-42 -239h-1155v76l549 974zM734 1568q-51 0 -92 14.5t-70 40t-44.5 59.5t-15.5 73q0 40 17 76t48 62t74 41.5t95 15.5q51 0 92 -14.5t70 -40t44.5 -59.5t15.5 -73q0 -41 -17 -76.5
t-48 -61.5t-74 -41.5t-95 -15.5z" />
    <glyph glyph-name="zdotaccent" unicode="&#x17c;" horiz-adv-x="1104" 
d="M60 76l362 592l106 142v20l-182 -6h-246l52 236h864v-76l-368 -598l-102 -140v-18l178 8h320l-52 -236h-932v76zM581 1206q-51 0 -92 14.5t-70 40t-44.5 59.5t-15.5 73q0 40 17 76t48 62t74 41.5t95 15.5q51 0 92 -14.5t70 -40t44.5 -59.5t15.5 -73q0 -41 -17 -76.5
t-48 -61.5t-74 -41.5t-95 -15.5z" />
    <glyph glyph-name="Zcaron" unicode="&#x17d;" horiz-adv-x="1357" 
d="M742 1212v20l-189 -6h-410l42 239h1059v-76l-560 -980l-109 -160v-18l185 8h517l-42 -239h-1155v76l549 974zM1128 1964l-236 -362h-362l-236 362h300l119 -200l119 200h296z" />
    <glyph glyph-name="zcaron" unicode="&#x17e;" horiz-adv-x="1104" 
d="M60 76l362 592l106 142v20l-182 -6h-246l52 236h864v-76l-368 -598l-102 -140v-18l178 8h320l-52 -236h-932v76zM1013 1602l-236 -362h-362l-236 362h300l119 -200l119 200h296z" />
    <glyph glyph-name="florin" unicode="&#x192;" horiz-adv-x="1109" 
d="M262 687h-212l24 164l190 72v28q0 112 33.5 209.5t99.5 169.5t163.5 113.5t225.5 41.5q53 0 111.5 -7.5t111.5 -23.5l-51 -227l-18 -10q-24 15 -55 23.5t-61 8.5q-87 0 -124.5 -72t-37.5 -204v-50h322l-52 -236h-270v-1223h-400v1223z" />
    <glyph glyph-name="uni0218" unicode="&#x218;" horiz-adv-x="1206" 
d="M540 219q40 0 79.5 8t70 27t49.5 49t19 74q0 53 -27.5 90t-72.5 65.5t-102 52.5l-117 50t-117 58.5t-102 78.5t-72.5 109.5t-27.5 151.5q0 103 40 187t114 142.5t180 90.5t237 32q34 0 81.5 -2.5t101 -8.5t109.5 -15.5t108 -23.5l-58 -255l-17 -8q-44 20 -89 34t-87.5 23
t-80 13t-66.5 4q-90 0 -143 -36t-53 -108q0 -52 27.5 -88t72.5 -64t102.5 -51t117 -49.5t117 -59t102.5 -79t72.5 -111t27.5 -153.5q0 -106 -40.5 -192t-116.5 -147t-185 -94.5t-245 -33.5q-49 0 -106.5 5t-120 16t-126.5 29t-126 45l57 256l21 10l110.5 -49t99 -38.5
t92.5 -25.5t90 -9zM361 -659q61 54 108.5 113t67.5 113q-26 24 -64 41.5t-80 25.5q-8 16 -13.5 36t-5.5 46q0 42 17 75t45.5 56t65.5 35t76 12q37 0 72 -11.5t62.5 -36t44.5 -63t17 -92.5q0 -41 -12.5 -91t-46.5 -105.5t-92.5 -116t-150.5 -122.5z" />
    <glyph glyph-name="uni0219" unicode="&#x219;" horiz-adv-x="1054" 
d="M124 304l18 10q42 -23 86.5 -41t88 -30.5t85.5 -19.5t80 -7q40 0 67 7.5t43.5 19.5t24 27.5t7.5 31.5q0 30 -22.5 48.5t-59 31.5t-83 23t-95.5 24t-95.5 34.5t-83 53t-59 81t-22.5 118.5q0 82 33 149t99 115t164.5 74t228.5 26q34 0 75.5 -2t83 -6t80.5 -10.5t68 -15.5
l-54 -248l-18 -10q-77 30 -146.5 43t-118.5 13q-39 0 -65 -7t-41.5 -19t-22 -26.5t-6.5 -29.5q0 -32 22.5 -51t59 -32t83 -23t95.5 -23t95.5 -32t83 -51t59 -79.5t22.5 -116.5q0 -73 -28 -140.5t-89 -119.5t-156.5 -83t-230.5 -31q-50 0 -103.5 4.5t-107 14t-104.5 23.5
t-95 34zM289 -659q61 54 108.5 113t67.5 113q-26 24 -64 41.5t-80 25.5q-8 16 -13.5 36t-5.5 46q0 42 17 75t45.5 56t65.5 35t76 12q37 0 72 -11.5t62.5 -36t44.5 -63t17 -92.5q0 -41 -12.5 -91t-46.5 -105.5t-92.5 -116t-150.5 -122.5z" />
    <glyph glyph-name="uni021A" unicode="&#x21a;" horiz-adv-x="1415" 
d="M910 0h-406v1226h-444l42 239h1253l-42 -239h-403v-1226zM503 -659q61 54 108.5 113t67.5 113q-26 24 -64 41.5t-80 25.5q-8 16 -13.5 36t-5.5 46q0 42 17 75t45.5 56t65.5 35t76 12q37 0 72 -11.5t62.5 -36t44.5 -63t17 -92.5q0 -41 -12.5 -91t-46.5 -105.5t-92.5 -116
t-150.5 -122.5z" />
    <glyph glyph-name="uni021B" unicode="&#x21b;" horiz-adv-x="1047" 
d="M222 824h-212l24 164q54 21 93 39t69 37.5t53 42.5t45 54t45.5 71.5l54.5 95.5h200v-268h372l-52 -236h-292v-406q0 -100 50.5 -140t148.5 -40q35 0 72.5 5.5t73.5 20.5v-162q-83 -63 -185 -92.5t-202 -29.5t-168.5 28t-110.5 79.5t-60.5 124.5t-18.5 164v448zM383 -659
q61 54 108.5 113t67.5 113q-26 24 -64 41.5t-80 25.5q-8 16 -13.5 36t-5.5 46q0 42 17 75t45.5 56t65.5 35t76 12q37 0 72 -11.5t62.5 -36t44.5 -63t17 -92.5q0 -41 -12.5 -91t-46.5 -105.5t-92.5 -116t-150.5 -122.5z" />
    </font>
</defs>
</svg>
