<?xml version="1.0" standalone="no"?>
<!DOCTYPE svg PUBLIC "-//W3C//DTD SVG 1.1//EN" "http://www.w3.org/Graphics/SVG/1.1/DTD/svg11.dtd" >
<svg>
<metadata>
Created by FontForge 20090622 at Wed Jun  1 22:42:25 2016
 By deploy user
Copyright (c) 2015 by Jasper de Waard. All rights reserved.
</metadata>
<defs>
<font id="ProzaLibre-Light" horiz-adv-x="1460" >
  <font-face 
    font-family="Proza Libre"
    font-weight="300"
    font-stretch="normal"
    units-per-em="2048"
    panose-1="2 0 5 3 0 0 0 2 0 4"
    ascent="1638"
    descent="-410"
    x-height="1060"
    cap-height="1465"
    bbox="-83 -559 2536 1957"
    underline-thickness="50"
    underline-position="-50"
    unicode-range="U+000D-U+FB02"
  />
<missing-glyph horiz-adv-x="452" 
 />
    <glyph glyph-name=".notdef" horiz-adv-x="452" 
 />
    <glyph glyph-name="NULL" horiz-adv-x="0" 
 />
    <glyph glyph-name="NULL" horiz-adv-x="0" 
 />
    <glyph glyph-name="nonmarkingreturn" unicode="&#xd;" horiz-adv-x="452" 
 />
    <glyph glyph-name="space" unicode=" " horiz-adv-x="467" 
 />
    <glyph glyph-name="slash" unicode="/" horiz-adv-x="885" 
d="M646 1602h121l-541 -1910h-121z" />
    <glyph glyph-name="quotesingle" unicode="'" horiz-adv-x="549" 
d="M130 1081q31 33 59 71.5t51 77.5t38.5 76t21.5 66q-10 9 -25 18.5t-32.5 18.5t-35 16.5t-33.5 10.5q-7 10 -9.5 27t-2.5 27q0 16 6.5 37.5t20.5 40t36.5 31.5t54.5 13q23 0 46 -9t41.5 -28.5t30 -51t11.5 -77.5q0 -44 -14.5 -92.5t-43.5 -100t-73.5 -103.5t-104.5 -102z
" />
    <glyph glyph-name="hyphen" unicode="-" horiz-adv-x="987" 
d="M837 644v-105h-687v105h687z" />
    <glyph glyph-name="semicolon" unicode=";" horiz-adv-x="675" 
d="M217 815q0 24 9 45.5t25 37.5t37.5 25t45.5 9t45.5 -9t37.5 -25t25 -37.5t9 -45.5t-9 -45.5t-25 -37.5t-37.5 -25t-45.5 -9t-45.5 9t-37.5 25t-25 37.5t-9 45.5zM182 -317q31 33 59 71.5t51 77.5t38.5 76t21.5 66q-10 9 -25 18.5t-32.5 18.5t-35 16.5t-33.5 10.5
q-7 10 -9.5 27t-2.5 27q0 16 6.5 37.5t20.5 40t36.5 31.5t54.5 13q23 0 46 -9t41.5 -28.5t30 -51t11.5 -77.5q0 -44 -14.5 -92.5t-43.5 -100t-73.5 -103.5t-104.5 -102z" />
    <glyph glyph-name="equal" unicode="=" horiz-adv-x="1363" 
d="M1163 448v-105h-963v105h963zM1163 839v-105h-963v105h963z" />
    <glyph glyph-name="bracketleft" unicode="[" horiz-adv-x="874" 
d="M252 1602h487v-105h-387v-1750h387v-105h-487v1960z" />
    <glyph glyph-name="asciitilde" unicode="~" horiz-adv-x="1295" 
d="M888 455q39 0 76 24t65 70t43.5 113.5t11.5 154.5h105q5 -87 -8 -154.5t-38 -118t-59.5 -85.5t-73.5 -57t-79 -31.5t-75 -9.5q-51 0 -92 27t-76.5 67t-67.5 87t-65.5 87t-69.5 67t-79 27q-40 0 -76.5 -24.5t-64.5 -71t-43 -114t-11 -152.5h-105q-5 84 7.5 150t36.5 117
t58 86.5t71 58.5t75 33.5t71 10.5q57 0 101.5 -27t81.5 -67t69 -87t64 -87t67.5 -67t79.5 -27z" />
    <glyph glyph-name="eacute" unicode="&#xe9;" horiz-adv-x="1147" 
d="M983 80q-33 -23 -77.5 -41t-94 -31.5t-100.5 -20.5t-96 -7q-95 0 -184.5 33.5t-159 100.5t-111.5 167t-42 234q0 132 41 237t109.5 177.5t156.5 111.5t181 39q84 0 159.5 -31t132.5 -88.5t90.5 -140t33.5 -185.5q0 -21 -2 -55.5t-7 -69.5h-745q0 -86 29 -158t83 -125
t132 -82.5t176 -29.5q25 0 60.5 2.5t75.5 9.5t81.5 19t77.5 31v-97zM882 624q0 81 -25 141.5t-66 101.5t-94 61.5t-110 20.5q-69 0 -127 -28t-100 -74t-66 -104.5t-26 -118.5h614zM494 1240l208 362h170l-274 -362h-104z" />
    <glyph glyph-name="quoteleft" unicode="&#x2018;" horiz-adv-x="549" 
d="M419 1594q-31 -33 -59 -71.5t-51 -77.5t-38.5 -76t-21.5 -66q10 -9 25 -18.5t32.5 -18.5t35 -16.5t33.5 -10.5q7 -10 9.5 -27t2.5 -27q0 -17 -6.5 -38t-20.5 -39.5t-36.5 -31.5t-54.5 -13q-23 0 -46 9t-41.5 28.5t-30 51t-11.5 77.5q0 43 14.5 92t43.5 100.5t73.5 103.5
t104.5 102z" />
    <glyph glyph-name="quotedblbase" unicode="&#x201e;" horiz-adv-x="923" 
d="M130 -317q31 33 59 71.5t51 77.5t38.5 76t21.5 66q-10 9 -25 18.5t-32.5 18.5t-35 16.5t-33.5 10.5q-7 10 -9.5 27t-2.5 27q0 16 6.5 37.5t20.5 40t36.5 31.5t54.5 13q23 0 46 -9t41.5 -28.5t30 -51t11.5 -77.5q0 -44 -14.5 -92.5t-43.5 -100t-73.5 -103.5t-104.5 -102z
M504 -317q31 33 59 71.5t51 77.5t38.5 76t21.5 66q-10 9 -25 18.5t-32.5 18.5t-35 16.5t-33.5 10.5q-7 10 -9.5 27t-2.5 27q0 16 6.5 37.5t20.5 40t36.5 31.5t54.5 13q23 0 46 -9t41.5 -28.5t30 -51t11.5 -77.5q0 -44 -14.5 -92.5t-43.5 -100t-73.5 -103.5t-104.5 -102z" />
    <glyph glyph-name="trademark" unicode="&#x2122;" horiz-adv-x="2232" 
d="M585 557h-136v792h-294l23 116h718l-22 -116h-289v-792zM1024 557l69 908h184l184 -551l60 -214h19l59 214l183 551h175l70 -908h-125l-37 577l-7 216h-20l-62 -218l-186 -556h-126l-190 554l-62 220h-20l-5 -216l-37 -577h-126z" />
    <glyph glyph-name="greater" unicode="&#x3e;" horiz-adv-x="1161" 
d="M1011 575l-814 -495v123l661 399l-661 399v123l814 -495v-54z" />
    <glyph glyph-name="ellipsis" unicode="&#x2026;" horiz-adv-x="1622" 
d="M161 97q0 24 9 45.5t25 37.5t37.5 25t45.5 9t45.5 -9t37.5 -25t25 -37.5t9 -45.5t-9 -45.5t-25 -37.5t-37.5 -25t-45.5 -9t-45.5 9t-37.5 25t-25 37.5t-9 45.5zM673 97q0 24 9 45.5t25 37.5t37.5 25t45.5 9t45.5 -9t37.5 -25t25 -37.5t9 -45.5t-9 -45.5t-25 -37.5
t-37.5 -25t-45.5 -9t-45.5 9t-37.5 25t-25 37.5t-9 45.5zM1187 97q0 24 9 45.5t25 37.5t37.5 25t45.5 9t45.5 -9t37.5 -25t25 -37.5t9 -45.5t-9 -45.5t-25 -37.5t-37.5 -25t-45.5 -9t-45.5 9t-37.5 25t-25 37.5t-9 45.5z" />
    <glyph glyph-name="c" unicode="c" horiz-adv-x="1045" 
d="M921 80q-27 -19 -61 -37t-74.5 -32t-86.5 -22.5t-97 -8.5q-105 0 -194 38.5t-153.5 107t-100.5 163.5t-36 208q0 127 45 234.5t121.5 184.5t178 120.5t214.5 43.5q33 0 68 -3.5t68.5 -10.5t62 -17t47.5 -22l-34 -133l-23 -10q-21 14 -47.5 26t-56 20.5t-60.5 13.5t-61 5
q-71 0 -138 -28.5t-119.5 -83t-84 -133.5t-31.5 -181q0 -101 31.5 -177.5t85 -127.5t123 -77t146.5 -26q54 0 125.5 14t141.5 48v-97z" />
    <glyph glyph-name="h" unicode="h" horiz-adv-x="1237" 
d="M184 1602h143v-722q34 33 76.5 68.5t92.5 65t107 48t120 18.5q72 0 132.5 -26t104.5 -74t68.5 -116.5t24.5 -153.5v-710h-143v689q0 63 -17 111t-47.5 80t-73 48.5t-92.5 16.5q-91 0 -178 -49.5t-175 -137.5v-758h-143v1602z" />
    <glyph glyph-name="i" unicode="i" horiz-adv-x="511" 
d="M184 1060h143v-1060h-143v1060zM151 1415q0 22 8 41t22.5 33t33.5 22.5t40 8.5q22 0 41 -8.5t33 -22.5t22.5 -33t8.5 -41t-8.5 -41t-22.5 -33t-33 -22t-41 -8q-21 0 -40 8t-33.5 22t-22.5 33t-8 41z" />
    <glyph glyph-name="j" unicode="j" horiz-adv-x="511" 
d="M151 1415q0 22 8 41t22.5 33t33.5 22.5t40 8.5q22 0 41 -8.5t33 -22.5t22.5 -33t8.5 -41t-8.5 -41t-22.5 -33t-33 -22t-41 -8q-21 0 -40 8t-33.5 22t-22.5 33t-8 41zM184 1060h143v-978q0 -92 -20.5 -182.5t-64 -173.5t-111.5 -155.5t-162 -129.5l-52 70q79 62 131 131
t82 140.5t42 144t12 142.5v991z" />
    <glyph glyph-name="l" unicode="l" horiz-adv-x="511" 
d="M184 1602h143v-1602h-143v1602z" />
    <glyph glyph-name="m" unicode="m" horiz-adv-x="1903" 
d="M184 1060h114l21 -188q37 37 81 74.5t93.5 67t104 48t111.5 18.5q97 0 173 -54.5t113 -152.5q36 36 79.5 73t94 67t107 48.5t118.5 18.5q70 0 129.5 -26t103 -74t68 -116.5t24.5 -153.5v-710h-143v689q0 63 -17 111t-47 80t-72 48.5t-92 16.5q-82 0 -164 -45t-165 -125
q2 -16 3 -32t1 -33v-710h-143v689q0 63 -17 111t-46 80t-68 48.5t-83 16.5q-81 0 -166 -49.5t-173 -137.5v-758h-143v1060z" />
    <glyph glyph-name="p" unicode="p" horiz-adv-x="1270" 
d="M327 164q84 -35 149 -44t103 -9q99 0 177 30.5t133 86.5t84 133.5t29 172.5q0 83 -22.5 157.5t-65 131t-103 89.5t-136.5 33q-91 0 -177 -47.5t-171 -135.5v-598zM327 -536h-143v1596h114l21 -187q33 31 75.5 67t94.5 67t111.5 52t127.5 21q97 0 175.5 -43.5t133.5 -116
t85 -166.5t30 -194q0 -127 -46.5 -233.5t-127 -183.5t-189.5 -120t-235 -43q-67 0 -124 10.5t-103 21.5v-548z" />
    <glyph glyph-name="q" unicode="q" horiz-adv-x="1269" 
d="M1085 -536h-143v716q-48 -45 -94 -82t-93.5 -63t-98 -40.5t-107.5 -14.5q-101 0 -180.5 43.5t-135.5 115t-85.5 164.5t-29.5 192q0 123 44 229.5t123 185.5t187.5 124.5t236.5 45.5q77 0 140.5 -15.5t114.5 -41.5l121 57v-1616zM942 888q-65 31 -131 46t-129 15
q-97 0 -174 -34t-130 -92t-81.5 -135.5t-28.5 -164.5q0 -73 20 -146t60 -131t100 -94.5t139 -36.5q36 0 76.5 9.5t85 31t93 57.5t100.5 90v585z" />
    <glyph glyph-name="u" unicode="u" horiz-adv-x="1219" 
d="M1035 0h-114l-21 188q-36 -37 -80 -74t-94.5 -67t-106 -48.5t-115.5 -18.5q-68 0 -126.5 26t-101.5 74t-67.5 116.5t-24.5 153.5v710h143v-689q0 -63 17 -111t46.5 -80t70 -48.5t87.5 -16.5q85 0 170.5 49.5t173.5 137.5v758h143v-1060z" />
    <glyph glyph-name="z" unicode="z" horiz-adv-x="1055" 
d="M110 69l520 728l97 124v20l-194 -8h-398l37 127h752v-69l-510 -709l-111 -143v-20l178 8h468l-37 -127h-802v69z" />
    <glyph glyph-name="period" unicode="." horiz-adv-x="554" 
d="M160 97q0 24 9 45.5t25 37.5t37.5 25t45.5 9t45.5 -9t37.5 -25t25 -37.5t9 -45.5t-9 -45.5t-25 -37.5t-37.5 -25t-45.5 -9t-45.5 9t-37.5 25t-25 37.5t-9 45.5z" />
    <glyph glyph-name="section" unicode="&#xa7;" horiz-adv-x="1320" 
d="M225 -165l19 11q44 -26 97.5 -45.5t109 -32t108.5 -18.5t95 -6q65 0 117.5 14t90 39.5t58 62t20.5 81.5q0 58 -32 100t-84 74t-119 57l-136.5 50.5t-136.5 54t-119 67t-84 90t-32 123.5q0 94 55.5 166t155.5 132q-36 22 -66.5 49t-52.5 60.5t-34.5 73.5t-12.5 87
q0 78 34 144t96 114t150 75t195 27q69 0 150 -14t175 -49l-30 -130l-23 -12q-78 38 -151 55.5t-150 17.5q-71 0 -129 -13.5t-99 -40t-63.5 -64.5t-22.5 -86q0 -59 32.5 -102t85 -76t120 -59l138 -51.5t138 -54t120 -66.5t85 -88.5t32.5 -120.5q0 -49 -16 -93t-44 -83
t-66 -72t-81 -59q35 -21 65 -47.5t51.5 -58t33.5 -68.5t12 -81q0 -71 -32 -135.5t-90.5 -113.5t-140.5 -78t-182 -29q-48 0 -106 7t-117 19.5t-116 29.5t-102 37zM978 502q0 43 -19 75.5t-52 58.5t-77.5 46.5t-95 39.5t-105 37t-106.5 39q-31 -15 -64 -35.5t-60.5 -47
t-45 -60t-17.5 -73.5q0 -42 20.5 -74.5t55.5 -59t82 -47.5t100.5 -41l110 -39.5t111.5 -41.5q30 16 59 39t52 51.5t37 62t14 70.5z" />
    <glyph glyph-name="degree" unicode="&#xb0;" horiz-adv-x="1116" 
d="M175 1238q0 88 30.5 159t83.5 121t123 77t150 27t149.5 -27.5t120.5 -77.5t80 -120.5t29 -156.5q0 -88 -30.5 -159t-83.5 -121t-123.5 -77t-149.5 -27q-80 0 -149.5 27.5t-120.5 77.5t-80 120.5t-29 156.5zM294 1241q0 -55 19 -106t54 -90t84 -62.5t110 -23.5
q62 0 110 24t81 63t50.5 89t17.5 102q0 55 -19 105.5t-54 89.5t-84 62.5t-110 23.5q-62 0 -110 -24t-81 -63t-50.5 -88.5t-17.5 -101.5z" />
    <glyph glyph-name="quoteright" unicode="&#x2019;" horiz-adv-x="549" 
d="M130 1081q31 33 59 71.5t51 77.5t38.5 76t21.5 66q-10 9 -25 18.5t-32.5 18.5t-35 16.5t-33.5 10.5q-7 10 -9.5 27t-2.5 27q0 16 6.5 37.5t20.5 40t36.5 31.5t54.5 13q23 0 46 -9t41.5 -28.5t30 -51t11.5 -77.5q0 -44 -14.5 -92.5t-43.5 -100t-73.5 -103.5t-104.5 -102z
" />
    <glyph glyph-name="f" unicode="f" horiz-adv-x="834" 
d="M279 933h-216l13 77l202 50v58q0 101 29 192.5t84 160.5t135.5 110t182.5 41q45 0 88 -8t84 -23l-34 -124l-20 -10q-32 17 -67 25.5t-74 8.5q-70 0 -120 -26t-82 -70t-47 -102.5t-15 -122.5v-110h376l-36 -127h-340v-933h-143v933z" />
    <glyph glyph-name="k" unicode="k" horiz-adv-x="1127" 
d="M184 1602h143v-1602h-143v1602zM889 0l-493 572l459 488h168l-463 -473l513 -587h-184z" />
    <glyph glyph-name="v" unicode="v" horiz-adv-x="1085" 
d="M60 1060h169l267 -749l46 -164h20l44 164l267 749h152l-404 -1060h-156z" />
    <glyph glyph-name="w" unicode="w" horiz-adv-x="1713" 
d="M238 1060l226 -756l31 -157h20l36 154l229 727h159l237 -725l37 -156h20l33 153l224 760h148l-342 -1060h-166l-217 678l-48 166h-21l-47 -166l-217 -678h-163l-342 1060h163z" />
    <glyph glyph-name="x" unicode="x" horiz-adv-x="1116" 
d="M641 559l415 -559h-176l-230 329l-86 140h-20l-91 -141l-234 -328h-159l414 549l-378 511h177l195 -283l83 -137h20l80 128l208 292h160z" />
    <glyph glyph-name="quotedbl" unicode="&#x22;" horiz-adv-x="923" 
d="M130 1081q31 33 59 71.5t51 77.5t38.5 76t21.5 66q-10 9 -25 18.5t-32.5 18.5t-35 16.5t-33.5 10.5q-7 10 -9.5 27t-2.5 27q0 16 6.5 37.5t20.5 40t36.5 31.5t54.5 13q23 0 46 -9t41.5 -28.5t30 -51t11.5 -77.5q0 -44 -14.5 -92.5t-43.5 -100t-73.5 -103.5t-104.5 -102z
M504 1081q31 33 59 71.5t51 77.5t38.5 76t21.5 66q-10 9 -25 18.5t-32.5 18.5t-35 16.5t-33.5 10.5q-7 10 -9.5 27t-2.5 27q0 16 6.5 37.5t20.5 40t36.5 31.5t54.5 13q23 0 46 -9t41.5 -28.5t30 -51t11.5 -77.5q0 -44 -14.5 -92.5t-43.5 -100t-73.5 -103.5t-104.5 -102z" />
    <glyph glyph-name="question" unicode="?" horiz-adv-x="916" 
d="M468 1351q-23 0 -58 -4t-77 -14.5t-88 -29t-92 -48.5l-16 7l-34 118q104 57 201 81t184 24q90 0 156.5 -23t110 -61.5t65 -89.5t21.5 -107q0 -51 -16.5 -94.5t-43.5 -82t-61 -74.5l-70 -72t-70 -74t-61 -82t-43.5 -94.5t-16.5 -111.5q0 -12 1 -28.5t3 -30.5h-114
q-5 23 -7.5 43.5t-2.5 45.5q0 80 26 144t64.5 117.5t84 99.5t84 89.5t64.5 87t26 92.5q0 40 -16.5 71.5t-46 54t-70 34.5t-87.5 12zM293 97q0 24 9 45.5t25 37.5t37.5 25t45.5 9t45.5 -9t37.5 -25t25 -37.5t9 -45.5t-9 -45.5t-25 -37.5t-37.5 -25t-45.5 -9t-45.5 9t-37.5 25
t-25 37.5t-9 45.5z" />
    <glyph glyph-name="A" unicode="A" 
d="M1360 0h-172l-150 420h-633l-150 -420h-155l549 1465h162zM453 554h537l-213 600l-46 164h-20l-44 -164z" />
    <glyph glyph-name="B" unicode="B" horiz-adv-x="1247" 
d="M829 794q62 -18 115.5 -49t93.5 -73t62.5 -95t22.5 -115q0 -49 -15 -102t-44.5 -104t-75 -97.5t-106 -82t-137 -56t-169.5 -20.5h-346v1465h366q116 0 202.5 -30t143.5 -77.5t85 -106.5t28 -117q0 -51 -19.5 -100.5t-51 -94t-72.5 -82t-83 -63.5zM373 134h213
q108 0 181.5 27.5t118.5 70.5t64.5 96.5t19.5 104.5q0 68 -29.5 118t-78 82.5t-112.5 48t-133 15.5h-244v-563zM735 831q81 57 126 125t45 146q0 52 -21.5 94.5t-65 72.5t-108 46t-149.5 16h-189v-500h362z" />
    <glyph glyph-name="C" unicode="C" horiz-adv-x="1444" 
d="M1316 131q-58 -49 -124.5 -78.5t-131 -45.5t-121 -21.5t-93.5 -5.5q-140 0 -265 53t-218.5 149t-148 230t-54.5 296q0 116 28.5 218.5t80 189t123.5 155t158 116t184 73t202 25.5q34 0 77.5 -3t93 -11t102.5 -21.5t106 -34.5l-28 -138l-20 -10q-51 24 -103 40.5
t-100.5 26t-91 13.5t-75.5 4q-84 0 -160 -22.5t-141 -63t-117 -97.5t-89 -126t-57 -148t-20 -164q0 -75 16 -149.5t48.5 -143t81 -127.5t113.5 -102t146 -68t179 -25q33 0 79.5 4t101.5 16t115.5 34.5t122.5 59.5v-98z" />
    <glyph glyph-name="D" unicode="D" horiz-adv-x="1637" 
d="M230 1465h469q194 0 340 -55.5t243.5 -150t146 -219.5t48.5 -263q0 -92 -22 -185.5t-66 -180t-111 -161.5t-157.5 -130.5t-204 -87.5t-251.5 -32h-435v1465zM376 134h320q159 0 277 49t196 133t116.5 195t38.5 235q0 134 -44 242t-128 184.5t-206.5 117.5t-279.5 41h-290
v-1197z" />
    <glyph glyph-name="E" unicode="E" horiz-adv-x="1211" 
d="M230 0v1465h829l-27 -134h-656v-500h589l-29 -134h-560v-563h702l-27 -134h-821z" />
    <glyph glyph-name="F" unicode="F" horiz-adv-x="1161" 
d="M230 0v1465h829l-27 -134h-656v-500h589l-29 -134h-560v-697h-146z" />
    <glyph glyph-name="G" unicode="G" horiz-adv-x="1585" 
d="M1363 73q-68 -27 -133.5 -44.5t-125 -28.5t-112.5 -15.5t-96 -4.5q-159 0 -294 53t-233.5 148.5t-153.5 229.5t-55 296q0 115 28.5 218t80 189t124 155t160.5 117t188.5 73.5t208.5 25.5q37 0 83 -3.5t95.5 -11.5t101.5 -21t102 -32l-26 -139l-20 -11q-58 26 -111.5 42.5
t-100.5 25.5t-86.5 12.5t-70.5 3.5q-137 0 -248.5 -49.5t-190.5 -134.5t-122 -198t-43 -240q0 -121 40 -232.5t117 -196.5t190.5 -135.5t260.5 -50.5q69 0 146 12.5t165 39.5v505h131v-598z" />
    <glyph glyph-name="H" unicode="H" horiz-adv-x="1601" 
d="M230 0v1465h146v-634h849v634h146v-1465h-146v697h-849v-697h-146z" />
    <glyph glyph-name="I" unicode="I" horiz-adv-x="606" 
d="M376 0h-146v1465h146v-1465z" />
    <glyph glyph-name="J" unicode="J" horiz-adv-x="606" 
d="M-41 -372q97 62 151.5 132.5t81 147.5t32.5 158.5t6 166.5v1232h146v-1206q0 -62 -4 -126t-17 -128t-37.5 -126t-64.5 -120t-99 -111t-140 -98z" />
    <glyph glyph-name="K" unicode="K" horiz-adv-x="1413" 
d="M376 0h-146v1465h146v-1465zM1142 0l-673 740l641 725h163l-635 -707l700 -758h-196z" />
    <glyph glyph-name="L" unicode="L" horiz-adv-x="1079" 
d="M230 0v1465h146v-1331h625l-27 -134h-744z" />
    <glyph glyph-name="M" unicode="M" horiz-adv-x="2021" 
d="M200 0l109 1465h232l406 -1063l56 -165h20l53 164l403 1064h233l109 -1465h-144l-86 1172l-10 192h-18l-57 -182l-436 -1152h-128l-441 1150l-59 184h-17l-8 -190l-87 -1174h-130z" />
    <glyph glyph-name="N" unicode="N" horiz-adv-x="1667" 
d="M220 0v1465h213l779 -1054l97 -159h20l-15 190v1023h133v-1465h-111l-886 1201l-92 163h-20l15 -196v-1168h-133z" />
    <glyph glyph-name="O" unicode="O" horiz-adv-x="1766" 
d="M882 114q124 0 229 48t181 132t118.5 198t42.5 246q0 137 -45.5 250t-123.5 193.5t-182 125t-221 44.5q-125 0 -229.5 -49.5t-179.5 -135t-117 -200.5t-42 -245q0 -136 45 -248t122 -191.5t181 -123.5t221 -44zM862 -20q-93 0 -181 23.5t-166 67t-143.5 107t-112.5 143.5
t-73 175.5t-26 204.5q0 113 28 214.5t78.5 188.5t120 157.5t152.5 120t177 76.5t193 27q89 0 175.5 -22.5t164 -65.5t143 -105.5t113 -142.5t74.5 -177t27 -208q0 -112 -27 -213.5t-76.5 -188.5t-118 -157.5t-151 -120.5t-177 -77t-194.5 -27z" />
    <glyph glyph-name="P" unicode="P" horiz-adv-x="1215" 
d="M376 0h-146v1465h361q106 0 202 -28.5t168.5 -84.5t115.5 -140t43 -196q0 -79 -21.5 -146t-59 -121.5t-87 -96.5t-106.5 -70.5t-118 -43t-120 -14.5q-11 0 -28 0.5t-37 3.5l9 132q12 -2 29.5 -2.5t31.5 -0.5q72 0 136.5 20t112.5 61.5t76.5 105.5t28.5 152t-29.5 151.5
t-83.5 104.5t-130.5 60t-169.5 19h-178v-1331z" />
    <glyph glyph-name="Q" unicode="Q" horiz-adv-x="1767" 
d="M862 -20q-93 0 -181 23.5t-166 67t-143.5 107t-112.5 143.5t-73 175.5t-26 204.5q0 113 28 214.5t78.5 188.5t120 157.5t152.5 120t177 76.5t193 27q89 0 175.5 -22.5t164 -65.5t143 -105.5t113 -142.5t74.5 -177t27 -208q0 -92 -18.5 -177.5t-53 -162t-83.5 -142
t-109 -119t-130 -92.5t-147 -62l841 -326l-90 -121l-953 418h-1zM882 114q124 0 229 48t181 132t118.5 198t42.5 246q0 137 -45.5 250t-123.5 193.5t-182 125t-221 44.5q-125 0 -229.5 -49.5t-179.5 -135t-117 -200.5t-42 -245q0 -136 45 -248t122 -191.5t181 -123.5
t221 -44z" />
    <glyph glyph-name="R" unicode="R" horiz-adv-x="1286" 
d="M376 598v-598h-146v1465h380q97 0 181 -29.5t146 -81.5t98 -123.5t36 -156.5q0 -74 -26 -139t-67 -118.5t-90.5 -95.5t-96.5 -71l418 -650h-181l-366 598h-286zM376 732h350q46 25 82 61.5t60.5 79t37 89.5t12.5 92q0 59 -21 109.5t-64.5 88t-109 58.5t-154.5 21h-193
v-599z" />
    <glyph glyph-name="S" unicode="S" horiz-adv-x="1229" 
d="M588 114q74 0 136 20t106.5 55.5t69.5 85t25 108.5q0 67 -31 114t-82 82t-116.5 62l-133.5 54.5t-133.5 59t-116.5 76t-82 106t-31 147.5q0 91 35 165t97.5 126.5t147.5 81t184 28.5q63 0 157 -14t205 -49l-25 -138l-21 -10q-56 23 -109 38t-99 23.5t-83.5 12t-64.5 3.5
q-68 0 -121 -17.5t-89.5 -49.5t-55.5 -76t-19 -96q0 -70 31.5 -119.5t83 -86.5t117 -65.5l134 -56.5t134 -59t117 -73.5t83 -100t31.5 -137.5q0 -86 -37.5 -164.5t-105.5 -138.5t-163.5 -95.5t-210.5 -35.5q-99 0 -200 26.5t-207 74.5l25 139l19 10q48 -28 99 -49.5
t102.5 -36.5t101.5 -22.5t96 -7.5z" />
    <glyph glyph-name="T" unicode="T" horiz-adv-x="1274" 
d="M703 0h-146v1331h-507l27 134h1147l-27 -134h-494v-1331z" />
    <glyph glyph-name="U" unicode="U" horiz-adv-x="1550" 
d="M366 1465v-903q0 -117 37 -201.5t97 -139.5t136 -81t153 -26q79 0 152.5 27t130.5 80.5t91 133.5t34 187v923h133v-917q0 -54 -13.5 -117.5t-42.5 -126.5t-74 -121.5t-107.5 -103.5t-143.5 -72t-182 -27q-118 0 -218.5 39.5t-173.5 114t-114 182t-41 244.5v905h146z" />
    <glyph glyph-name="V" unicode="V" 
d="M100 1465h172l411 -1154l46 -164h20l44 164l412 1154h155l-549 -1465h-162z" />
    <glyph glyph-name="W" unicode="W" horiz-adv-x="2223" 
d="M280 1465l328 -1161l31 -157h20l36 154l335 1058h167l345 -1056l37 -156h20l33 153l326 1165h150l-438 -1465h-178l-325 1009l-48 166h-21l-47 -166l-323 -1009h-174l-439 1465h165z" />
    <glyph glyph-name="X" unicode="X" horiz-adv-x="1424" 
d="M800 750l534 -750h-178l-355 520l-83 140h-20l-88 -141l-359 -519h-161l534 740l-507 725h180l329 -497l80 -137h20l77 128l349 506h162z" />
    <glyph glyph-name="Y" unicode="Y" horiz-adv-x="1310" 
d="M721 0h-146v626l-495 839h168l332 -590l65 -137h20l62 128l353 599h150l-509 -835v-630z" />
    <glyph glyph-name="Z" unicode="Z" horiz-adv-x="1310" 
d="M956 1319v19l-186 -7h-620l27 134h965v-83l-744 -1118l-91 -118v-20l186 8h712l-27 -134h-1063v73l751 1128z" />
    <glyph glyph-name="b" unicode="b" horiz-adv-x="1270" 
d="M184 1602h143v-722q48 45 94 82t94 63t98.5 40.5t107.5 14.5q100 0 180 -43t136 -115t85.5 -165.5t29.5 -193.5q0 -122 -43.5 -228.5t-123 -185t-191.5 -124t-249 -45.5q-90 0 -183 20t-178 55v1547zM327 160q65 -25 132 -37t125 -12q99 0 176.5 34t131.5 92t82 135.5
t28 164.5q0 73 -20 146t-60 131t-100 94.5t-139 36.5q-36 0 -76.5 -9.5t-85 -31t-93.5 -57.5t-101 -90v-597z" />
    <glyph glyph-name="n" unicode="n" horiz-adv-x="1237" 
d="M184 1060h114l21 -188q35 36 79 73t95 67t109 49t121 19q72 0 132.5 -26t104.5 -74t68.5 -116.5t24.5 -153.5v-710h-143v689q0 63 -17 111t-47.5 80t-73.5 48.5t-94 16.5q-89 0 -176 -49.5t-175 -137.5v-758h-143v1060z" />
    <glyph glyph-name="d" unicode="d" horiz-adv-x="1269" 
d="M942 896q-84 35 -149 44t-102 9q-99 0 -177.5 -30.5t-133 -86.5t-83.5 -134t-29 -172q0 -83 22.5 -158t65 -131t103 -89t136.5 -33q91 0 176.5 47.5t170.5 135.5v598zM942 1602h143v-1602h-113l-22 187q-33 -31 -75.5 -67t-94 -67t-112 -52t-127.5 -21q-97 0 -175 43.5
t-133 116t-85 166t-30 194.5q0 127 46.5 233.5t127 183.5t189.5 120t235 43q67 0 124 -10.5t102 -21.5v554z" />
    <glyph glyph-name="g" unicode="g" horiz-adv-x="1237" 
d="M454 -43q-30 -13 -64.5 -34.5t-63.5 -49.5t-48 -60t-19 -66q0 -35 21.5 -66.5t62 -55t99 -37t132.5 -13.5q83 0 152 17.5t118 48t76 71.5t27 88q0 40 -19.5 70t-52 49t-75.5 28.5t-91 9.5h-255zM321 -20q-27 8 -52 23t-43.5 35.5t-29.5 45t-11 51.5q0 32 15.5 61.5
t41 56.5t58 51t65.5 45q-94 51 -150.5 136.5t-56.5 194.5q0 95 42 169.5t107 125.5t143 78t149 27q30 0 61 -4.5t60 -12.5t54.5 -19t44.5 -23q17 9 42.5 16.5t52 12.5t52 7.5t42.5 2.5h192l-37 -131h-260q19 -16 36 -41t30.5 -56.5t21.5 -67t8 -72.5q0 -83 -39 -154.5
t-101 -124.5t-139 -83.5t-154 -30.5q-23 0 -48.5 2.5t-54.5 6.5q-21 -12 -43.5 -26.5t-41 -30.5t-30.5 -34.5t-12 -38.5q0 -16 8 -32t22.5 -29t36 -21t48.5 -8h298q76 0 139 -20.5t107.5 -55.5t69 -83t24.5 -102q0 -68 -39 -136.5t-110.5 -123.5t-172.5 -89t-226 -34
q-93 0 -172 20t-136.5 55.5t-90 83.5t-32.5 105q0 49 22.5 91t55 76.5t69 61t64.5 43.5zM300 696q0 -57 22 -106.5t59.5 -86.5t88.5 -58.5t109 -21.5q54 0 104.5 19t89 54t61.5 83.5t23 107.5q0 57 -22 106t-59.5 85t-88.5 57t-109 21q-55 0 -105 -18.5t-88.5 -52.5
t-61.5 -82t-23 -107z" />
    <glyph glyph-name="r" unicode="r" horiz-adv-x="838" 
d="M184 1060h114l21 -308q36 72 75 132t83.5 103.5t96 68t113.5 24.5q27 0 48.5 -5.5t47.5 -19.5l-15 -130q-13 5 -35 7t-40 2q-47 0 -92.5 -17t-91 -56t-91 -102.5t-91.5 -156.5v-602h-143v1060z" />
    <glyph glyph-name="e" unicode="e" horiz-adv-x="1147" 
d="M983 80q-33 -23 -77.5 -41t-94 -31.5t-100.5 -20.5t-96 -7q-95 0 -184.5 33.5t-159 100.5t-111.5 167t-42 234q0 132 41 237t109.5 177.5t156.5 111.5t181 39q84 0 159.5 -31t132.5 -88.5t90.5 -140t33.5 -185.5q0 -21 -2 -55.5t-7 -69.5h-745q0 -86 29 -158t83 -125
t132 -82.5t176 -29.5q25 0 60.5 2.5t75.5 9.5t81.5 19t77.5 31v-97zM882 624q0 81 -25 141.5t-66 101.5t-94 61.5t-110 20.5q-69 0 -127 -28t-100 -74t-66 -104.5t-26 -118.5h614z" />
    <glyph glyph-name="o" unicode="o" horiz-adv-x="1276" 
d="M612 -20q-116 0 -207.5 43.5t-155 116.5t-97.5 169t-34 201q0 119 42 223t116 181t174 121.5t216 44.5q117 0 208.5 -44t154.5 -118t96 -170.5t33 -200.5q0 -119 -42 -222.5t-115.5 -180t-173.5 -120.5t-215 -44zM639 111q84 0 152 34t116 91t74.5 131.5t26.5 155.5
q0 79 -25 155.5t-72.5 136.5t-116.5 97t-157 37q-83 0 -150.5 -33.5t-116.5 -90.5t-75.5 -132t-26.5 -157q0 -78 25 -154t72.5 -136.5t116.5 -97.5t157 -37z" />
    <glyph glyph-name="a" unicode="a" horiz-adv-x="1135" 
d="M764 159l-56 -51.5t-78.5 -59t-97 -48.5t-110.5 -20q-53 0 -105 20t-93.5 58t-67 94.5t-25.5 129.5q0 64 24.5 127t84.5 112.5t162 80t258 30.5h108v107q0 48 -16.5 86.5t-47 66t-72.5 42.5t-93 15q-36 0 -77.5 -7.5t-82 -21t-77.5 -32t-64 -40.5l-18 10l-32 117
q57 33 109.5 53.5t100 32t88.5 15.5t76 4q94 0 160.5 -23t108.5 -65t61 -101t19 -131v-534q0 -11 2 -29.5t9.5 -36.5t22 -31.5t39.5 -13.5q16 0 42 6t51 17v-92q-43 -29 -81 -47.5t-80 -18.5q-40 0 -67.5 17.5t-45.5 44t-27 58t-12 59.5zM768 518h-89q-126 0 -204 -18
t-121 -47.5t-58 -67t-15 -77.5q0 -43 12.5 -78.5t36.5 -61t58.5 -39.5t78.5 -14q30 0 63 8.5t69.5 28t78.5 52.5t90 82v232z" />
    <glyph glyph-name="y" unicode="y" horiz-adv-x="1085" 
d="M465 0l-405 1060h169l267 -749l46 -164h20l44 164l267 749h152l-609 -1596h-144l234 536h-41z" />
    <glyph glyph-name="bar" unicode="|" horiz-adv-x="615" 
d="M257 1602h100v-2138h-100v2138z" />
    <glyph glyph-name="percent" unicode="%" horiz-adv-x="1915" 
d="M1367 1464h126l-949 -1464h-123zM507 700q-84 0 -145 32.5t-100.5 86t-58 122.5t-18.5 142q0 89 26 163t73 127t112.5 82.5t144.5 29.5q83 0 143.5 -31.5t100 -84t58.5 -121t19 -141.5q0 -86 -25 -160.5t-71 -129t-111.5 -86t-147.5 -31.5zM526 818q40 0 74.5 18.5
t59.5 53.5t39 85t14 113q0 60 -13.5 111t-38.5 87.5t-60.5 57.5t-79.5 21q-39 0 -73 -17t-59.5 -50.5t-40 -83t-14.5 -113.5q0 -62 14 -114t39 -89.5t60.5 -58.5t78.5 -21zM1372 -21q-84 0 -145 32.5t-100.5 86t-58 122.5t-18.5 142q0 89 26 163t73 127t112.5 82.5
t144.5 29.5q83 0 143.5 -31.5t100 -84t58.5 -121t19 -141.5q0 -86 -25 -160.5t-71 -129t-111.5 -86t-147.5 -31.5zM1391 97q40 0 74.5 18.5t60 53.5t39.5 85t14 113q0 60 -13.5 111t-38.5 87.5t-60.5 57.5t-79.5 21q-39 0 -73.5 -17t-60 -50.5t-40 -83t-14.5 -113.5
q0 -62 14 -114t39 -89.5t60.5 -58.5t78.5 -21z" />
    <glyph glyph-name="zero" unicode="0" horiz-adv-x="1461" 
d="M1148 727q0 150 -31.5 266.5t-88 196t-134 120.5t-168.5 41q-88 0 -163.5 -38.5t-131 -114.5t-87.5 -189.5t-32 -263.5t32 -267.5t88.5 -198.5t134 -123t169.5 -42q88 0 163 39.5t130.5 116.5t87 192t31.5 265zM1301 749q0 -165 -45.5 -306t-124.5 -244t-186.5 -161
t-231.5 -58q-125 0 -226.5 57.5t-174.5 158t-112.5 235t-39.5 289.5q0 167 45.5 307.5t125 242t186 158.5t229.5 57t225 -57t175.5 -156t114 -233.5t40.5 -289.5z" />
    <glyph glyph-name="one" unicode="1" horiz-adv-x="935" 
d="M537 0v1214h-440v85q181 0 310 42.5t207 123.5h69v-1465h-146z" />
    <glyph glyph-name="two" unicode="2" horiz-adv-x="1213" 
d="M130 56q199 181 335 331t220 275t121 228t37 190q0 75 -24 126t-63.5 82t-90.5 44.5t-105 13.5q-39 0 -84 -6.5t-91 -19.5t-90.5 -32t-83.5 -44v98q87 70 187 106.5t194 36.5q81 0 154 -26t128.5 -75t88.5 -119t33 -158q0 -188 -159.5 -433.5t-474.5 -539.5h676l-24 -134
h-884v56z" />
    <glyph glyph-name="three" unicode="3" horiz-adv-x="1191" 
d="M974 1188q0 -55 -22.5 -107t-64 -99t-100 -88t-130.5 -74v-7q85 -13 150 -44t109.5 -75t67 -100t22.5 -119q0 -55 -18.5 -112t-58.5 -110t-104 -99t-155 -80t-211.5 -54t-273.5 -20v134q162 0 286.5 25.5t209.5 70.5t128.5 107t43.5 135q0 72 -39.5 120.5t-100.5 77
t-135 39.5t-143 8v100q63 20 131.5 53t126 76.5t94.5 97t37 114.5q0 45 -21.5 80t-58.5 59t-87 36.5t-107 12.5q-41 0 -87 -6.5t-92.5 -19.5t-91 -32t-81.5 -44v98q88 66 180.5 104.5t203.5 38.5q84 0 155.5 -22.5t124 -62.5t82.5 -94t30 -118z" />
    <glyph glyph-name="four" unicode="4" horiz-adv-x="1281" 
d="M112 522l624 943h200v-908h253l-38 -131h-215v-426h-141v426h-683v96zM795 557v560l10 235h-20l-110 -200l-394 -595h514z" />
    <glyph glyph-name="five" unicode="5" horiz-adv-x="1112" 
d="M265 1465h661l-22 -134h-521l-42 -369q139 0 248 -32t184 -89t114.5 -136t39.5 -173q0 -60 -16.5 -122.5t-52.5 -121.5t-92.5 -111.5t-136 -91.5t-184 -62t-236.5 -23v134q159 0 269.5 31.5t178.5 84t98.5 120.5t30.5 140q0 82 -35 141.5t-96.5 98.5t-145.5 58t-182 19
h-130z" />
    <glyph glyph-name="six" unicode="6" horiz-adv-x="1301" 
d="M544 786q53 34 101.5 51.5t103.5 17.5q73 0 143 -30t125 -83t89 -125.5t34 -157.5q0 -89 -38.5 -175t-106 -153.5t-159.5 -109t-199 -41.5q-116 0 -205 49.5t-149 131.5t-91 188t-31 219q0 103 25.5 209.5t75.5 206.5t124 187.5t170 152.5t214.5 103t257.5 38h11v-134
h-13q-131 0 -234.5 -33t-182.5 -89t-135 -130.5t-91.5 -157.5t-52 -169.5t-16.5 -166.5q0 -100 24 -186t69 -149.5t111 -99.5t150 -36q71 0 129.5 25.5t100.5 69t65 101t23 122.5q0 55 -17.5 107t-54 92.5t-92 65t-131.5 24.5q-38 0 -75.5 -6.5t-71.5 -17.5v89z" />
    <glyph glyph-name="seven" unicode="7" horiz-adv-x="1050" 
d="M105 1331l22 134h851v-53l-162.5 -372.5l-154 -352.5l-142 -343t-127.5 -344h-147l139 347.5l139.5 332l144 325l151.5 326.5h-714z" />
    <glyph glyph-name="nine" unicode="9" horiz-adv-x="1301" 
d="M757 679q-53 -34 -101.5 -51.5t-103.5 -17.5q-73 0 -143 30t-125 83t-89 125.5t-34 157.5q0 89 38.5 175t106 153.5t159.5 109t199 41.5q116 0 205 -49.5t149 -131.5t91 -188t31 -219q0 -103 -25.5 -209.5t-75.5 -206.5t-124 -187.5t-170 -152.5t-214.5 -103t-257.5 -38
h-11v134h13q131 0 234.5 33t182.5 89t135 130.5t91.5 157.5t52 169.5t16.5 166.5q0 100 -24 186t-69 149.5t-111 99.5t-150 36q-71 0 -129.5 -25.5t-100.5 -69t-65 -101.5t-23 -122q0 -55 17.5 -107t54 -92.5t92 -65t131.5 -24.5q38 0 75.5 6.5t71.5 17.5v-89z" />
    <glyph glyph-name="eight" unicode="8" horiz-adv-x="1328" 
d="M187 362q0 68 29.5 128.5t78 113t110 96.5t125.5 80q-55 30 -104 63.5t-86 73.5t-58.5 87.5t-21.5 105.5q0 74 35.5 142t96 119.5t140.5 82.5t168 31t160.5 -30t124.5 -77.5t80.5 -106t28.5 -116.5t-27.5 -112t-70.5 -101.5t-95.5 -88t-102.5 -71.5q66 -35 128 -73
t110 -82t77 -96.5t29 -117.5q0 -45 -15.5 -95t-45 -98t-73 -91.5t-100.5 -76.5t-126.5 -52.5t-150.5 -19.5q-113 0 -196.5 36.5t-138.5 92.5t-82 123.5t-27 129.5zM988 376q0 64 -32 114.5t-84 92.5t-118 78l-135 72q-63 -36 -114 -73t-87 -77.5t-56.5 -86t-21.5 -97.5
q-2 -63 23.5 -115.5t70.5 -90t106 -58.5t131 -21t128.5 20.5t100.5 56.5t65 83.5t23 101.5zM412 1141q0 -53 25 -96.5t67 -81.5t97 -71.5t115 -65.5q103 66 162 137.5t64 152.5q3 51 -16.5 94.5t-55.5 74.5t-86 48.5t-107 17.5q-51 0 -99 -14.5t-85 -41.5t-59 -66t-22 -88z
" />
    <glyph glyph-name="at" unicode="@" horiz-adv-x="2202" 
d="M1330 220q-45 -74 -88.5 -121t-83.5 -73.5t-77.5 -36t-70.5 -9.5q-69 0 -128.5 32t-103 87.5t-68 129.5t-24.5 159q0 108 40.5 207.5t112.5 175t171 120.5t216 45q68 0 132.5 -14.5t124.5 -36.5v-792q104 33 181 89t128 128.5t76 158.5t25 179q0 139 -52.5 249
t-144.5 186.5t-216.5 117.5t-269.5 41q-113 0 -220 -25t-203 -74t-176 -121t-138 -166t-90.5 -209.5t-32.5 -250.5q0 -161 48.5 -299t143.5 -239t236 -158.5t327 -57.5q77 0 159.5 10.5t163 30.5t156.5 50t140 69v-91q-58 -40 -136 -72.5t-166 -55t-180.5 -35t-177.5 -12.5
q-201 0 -360 65.5t-270 179t-170 266.5t-59 329q0 144 39 272t108 236t164.5 193.5t208.5 145.5t239.5 92t258.5 32q173 0 315.5 -53t244.5 -144t158 -213t56 -259q0 -71 -16 -148t-49.5 -151.5t-85 -143t-122 -123.5t-161 -92t-201.5 -48zM1332 780q-36 12 -72.5 19.5
t-77.5 7.5q-83 0 -145.5 -32t-104.5 -85.5t-63.5 -123t-21.5 -145.5q0 -61 13.5 -116t38 -96t59.5 -65.5t78 -24.5q34 0 72.5 16.5t77 49.5t76 82t70.5 113v400z" />
    <glyph glyph-name="underscore" unicode="_" horiz-adv-x="1097" 
d="M1042 0v-105h-987v105h987z" />
    <glyph glyph-name="braceleft" unicode="{" horiz-adv-x="989" 
d="M100 675q51 17 99.5 38t86 48.5t60 64.5t22.5 86v314q0 99 27 170t74 116.5t110.5 67.5t135.5 22h139v-105h-152q-49 0 -92 -13t-74.5 -42.5t-49.5 -77.5t-18 -117v-305q0 -56 -15.5 -106.5t-45.5 -92.5t-75 -73t-103 -48q58 -17 103 -48.5t75 -73.5t45.5 -92.5
t15.5 -105.5v-305q0 -69 18 -117t49.5 -77.5t74.5 -42.5t92 -13h152v-105h-139q-72 0 -135.5 20t-110.5 64t-74 113.5t-27 168.5v324q0 49 -22.5 85.5t-60 64.5t-86 48.5t-99.5 37.5v107z" />
    <glyph glyph-name="braceright" unicode="}" horiz-adv-x="989" 
d="M889 568q-51 -17 -99.5 -37.5t-86 -48.5t-60 -64.5t-22.5 -85.5v-314q0 -99 -27 -170t-74 -116.5t-110.5 -67.5t-135.5 -22h-139v105h152q49 0 92 13t74.5 42.5t49.5 77.5t18 117v305q0 55 15.5 105.5t45.5 92.5t74.5 73.5t103.5 48.5q-59 17 -103.5 48t-74.5 73
t-45.5 92.5t-15.5 106.5v305q0 69 -18 117t-49.5 77.5t-74.5 42.5t-92 13h-152v105h139q72 0 135.5 -20t110.5 -64t74 -113.5t27 -168.5v-324q0 -49 22.5 -86t60 -64.5t86 -48.5t99.5 -38v-107v0z" />
    <glyph glyph-name="less" unicode="&#x3c;" horiz-adv-x="1161" 
d="M150 629l813 495v-123l-661 -399l661 -399v-123l-813 495v54z" />
    <glyph glyph-name="Euro" unicode="&#x20ac;" horiz-adv-x="1700" 
d="M212 837v115h203q36 126 106.5 225.5t164 167.5t204.5 104t228 36q74 0 168 -15t188 -49l-51 -127l-20 -11q-40 18 -85 31t-89.5 21.5t-85.5 12t-72 3.5q-93 0 -174 -30t-145.5 -83t-112 -126t-74.5 -160h717l-40 -115h-1030zM1161 616l-41 -115h-549q27 -80 70.5 -150
t106 -122.5t145 -83t187.5 -30.5q31 0 74.5 4t96.5 16t113.5 34.5t123.5 59.5v-98q-50 -44 -112 -73t-126.5 -46t-125 -24.5t-107.5 -7.5q-112 0 -212.5 36t-182.5 103.5t-140 164t-84 217.5h-186v115h949z" />
    <glyph glyph-name="dagger" unicode="&#x2020;" horiz-adv-x="1384" 
d="M641 1007v458h102v-458h441v-105h-441v-1438h-102v1438h-441v105h441z" />
    <glyph glyph-name="daggerdbl" unicode="&#x2021;" horiz-adv-x="1484" 
d="M691 1007v458h102v-458h441v-105h-441v-865h441v-105h-441v-468h-102v468h-441v105h441v865h-441v105h441z" />
    <glyph glyph-name="florin" unicode="&#x192;" horiz-adv-x="979" 
d="M271 792h-215l14 94l205 37v58q0 101 28.5 192.5t83.5 160.5t135.5 110t184.5 41q38 0 85 -6t87 -19l-33 -128l-20 -10q-36 17 -76.5 24.5t-75.5 7.5q-72 0 -123 -26t-82.5 -70t-46 -102.5t-14.5 -122.5v-110h372l-37 -131h-335v-1328h-137v1328z" />
    <glyph glyph-name="guilsinglleft" unicode="&#x2039;" horiz-adv-x="682" 
d="M102 596l321 391l91 -100l-262 -313l262 -314l-91 -100l-321 391v45z" />
    <glyph glyph-name="guillemotleft" unicode="&#xab;" horiz-adv-x="1142" 
d="M102 596l321 391l91 -100l-262 -313l262 -314l-91 -100l-321 391v45zM563 596l320 391l92 -100l-262 -313l262 -314l-92 -100l-320 391v45z" />
    <glyph glyph-name="guilsinglright" unicode="&#x203a;" horiz-adv-x="682" 
d="M579 551l-320 -391l-92 100l263 314l-263 313l92 100l320 -391v-45z" />
    <glyph glyph-name="guillemotright" unicode="&#xbb;" horiz-adv-x="1142" 
d="M579 551l-320 -391l-92 100l263 314l-263 313l92 100l320 -391v-45zM1040 551l-321 -391l-91 100l262 314l-262 313l91 100l321 -391v-45z" />
    <glyph glyph-name="germandbls" unicode="&#xdf;" horiz-adv-x="1187" 
d="M965 284q0 59 -30.5 100t-76 74t-98.5 63t-98.5 67.5t-76 86.5t-30.5 121q0 60 21 103.5t53 78t68.5 64.5t68.5 63.5t53 73t21 94.5q0 48 -17.5 88.5t-50 69t-77.5 44.5t-99 16q-73 0 -124 -27.5t-83.5 -72t-47 -102t-14.5 -117.5v-1172h-143v1137q0 99 30 187.5
t86 154.5t136.5 104.5t182.5 38.5q87 0 152.5 -27.5t109.5 -74t66 -106.5t22 -124q0 -66 -21 -116t-52 -89.5t-68 -71.5t-68 -62.5t-52 -63t-21 -72.5q0 -48 30.5 -85t76.5 -70.5t99.5 -66.5t99.5 -74.5t76.5 -95t30.5 -126.5q0 -65 -26 -123t-72.5 -101t-110 -68
t-139.5 -25q-27 0 -62 3.5t-72.5 10.5t-75 18t-68.5 26l32 121l16 12q29 -14 62.5 -25.5t67 -19t64.5 -11.5t55 -4q43 0 79 12.5t61.5 35.5t39.5 54.5t14 70.5z" />
    <glyph glyph-name="bullet" unicode="&#x2022;" horiz-adv-x="721" 
d="M200 573q0 33 12.5 62.5t34 51t50.5 34.5t63 13q33 0 62.5 -13t51.5 -34.5t34.5 -51t12.5 -62.5t-12 -62.5t-33.5 -51t-50.5 -34.5t-62 -13q-34 0 -63.5 13t-51.5 34.5t-35 51t-13 62.5z" />
    <glyph glyph-name="exclamdown" unicode="&#xa1;" horiz-adv-x="622" 
d="M368 600l21 -1005h-156l20 1005h115zM428 963q0 -24 -9 -45.5t-25 -37.5t-37.5 -25t-45.5 -9t-45.5 9t-37.5 25t-25 37.5t-9 45.5t9 45.5t25 37.5t37.5 25t45.5 9t45.5 -9t37.5 -25t25 -37.5t9 -45.5z" />
    <glyph glyph-name="questiondown" unicode="&#xbf;" horiz-adv-x="943" 
d="M466 -291q23 0 58 3.5t77 14t88 29.5t92 49l16 -7l34 -118q-104 -57 -201 -81t-184 -24q-90 0 -156.5 23t-110 61.5t-65 89.5t-21.5 107q0 68 28.5 123t70.5 104t92 96t92 100.5t70.5 116.5t28.5 145q0 12 -1 28.5t-3 30.5h114q5 -23 7.5 -43.5t2.5 -45.5q0 -80 -26 -144
t-64.5 -117.5t-84 -99.5t-84 -89.5t-64.5 -87t-26 -92.5q0 -40 16.5 -71.5t46 -54t70 -34.5t87.5 -12zM641 963q0 -24 -9 -45.5t-25 -37.5t-37.5 -25t-45.5 -9t-45.5 9t-37.5 25t-25 37.5t-9 45.5t9 45.5t25 37.5t37.5 25t45.5 9t45.5 -9t37.5 -25t25 -37.5t9 -45.5z" />
    <glyph glyph-name="cent" unicode="&#xa2;" horiz-adv-x="1197" 
d="M996 272q-51 -36 -127 -66t-170 -34v-335h-105v341q-89 14 -162.5 57.5t-126.5 110t-82.5 154t-29.5 189.5q0 104 30.5 195t84 163.5t127 124t159.5 77.5v358h105v-338q25 3 53 3q33 0 68 -3.5t68.5 -10.5t62 -17t47.5 -22l-34 -133l-23 -10q-21 14 -47.5 26t-56 20.5
t-60.5 13.5t-61 5q-71 0 -138 -28.5t-119.5 -83t-84 -133.5t-31.5 -181q0 -101 31.5 -177.5t85 -127.5t123 -77t146.5 -26q54 0 125.5 14t141.5 48v-97z" />
    <glyph glyph-name="yen" unicode="&#xa5;" horiz-adv-x="1517" 
d="M896 760h305v-115h-918v115h308l-415 705h168l332 -590l65 -137h20l62 128l353 599h150zM817 370v-370h-146v370h-388v115h918v-115h-384z" />
    <glyph glyph-name="plusminus" unicode="&#xb1;" horiz-adv-x="1394" 
d="M748 879h446v-105h-446v-470h-102v470h-446v105h446v471h102v-471zM1194 105v-105h-994v105h994z" />
    <glyph glyph-name="brokenbar" unicode="&#xa6;" horiz-adv-x="615" 
d="M257 702v900h100v-900h-100zM357 364v-900h-100v900h100z" />
    <glyph glyph-name="sterling" unicode="&#xa3;" horiz-adv-x="1310" 
d="M405 783v228q0 116 38.5 204.5t102.5 148.5t147.5 90.5t174.5 30.5q66 0 128.5 -16t110.5 -45l-29 -113l-22 -10q-19 12 -45.5 21.5t-57.5 17t-63 11.5t-61 4q-133 0 -205.5 -84.5t-72.5 -250.5v-237h453l-34 -115h-419v-183q0 -44 -5 -90.5t-17 -91.5t-33.5 -86.5
t-54.5 -74.5v-20l189 8h480l-38 -130h-846v76q58 30 93 62t54 66.5t25.5 73t6.5 82.5v308h-201l36 115h165z" />
    <glyph glyph-name="currency" unicode="&#xa4;" horiz-adv-x="1428" 
d="M256 762q0 83 26 155t72 131l-217 217l74 73l218 -217q61 47 135 73t158 26q81 0 152.5 -25t128.5 -70l214 213l73 -73l-214 -214q45 -59 70 -131t25 -154q0 -85 -26 -157t-73 -131l218 -217l-75 -73l-217 216q-62 -48 -136.5 -73.5t-158.5 -25.5q-82 0 -153 24t-128 69
l-210 -210l-75 73l212 212q-45 58 -69 131t-24 158zM371 762q0 -77 25.5 -141.5t70.5 -111.5t107.5 -73t137.5 -26t138 26t108.5 73t71.5 111t26 141t-25.5 142t-71.5 112t-108.5 73.5t-137.5 26.5t-137.5 -26.5t-108 -73.5t-71 -112t-25.5 -141z" />
    <glyph glyph-name="periodcentered" unicode="&#xb7;" horiz-adv-x="599" 
d="M161 554q0 24 9 45.5t25 37.5t37.5 25t45.5 9t45.5 -9t37.5 -25t25 -37.5t9 -45.5t-9 -45.5t-25 -37.5t-37.5 -25t-45.5 -9t-45.5 9t-37.5 25t-25 37.5t-9 45.5z" />
    <glyph glyph-name="s" unicode="s" horiz-adv-x="979" 
d="M157 177l18 12q38 -21 79 -35.5t81 -24t77.5 -14t68.5 -4.5q52 0 96 12t76 34.5t50 54.5t18 71q0 47 -24.5 78t-64.5 52.5t-91.5 37l-105 31.5t-105 36t-91.5 50t-64.5 73.5t-24.5 107.5q0 68 29 128t81.5 105t124.5 71.5t159 26.5q25 0 57.5 -2.5t68.5 -7.5t74.5 -13
t74.5 -20l-36 -131l-18 -12q-26 12 -58 22.5t-65 17.5t-66 11t-61 4q-51 0 -93.5 -12.5t-73 -35t-48 -53.5t-17.5 -68q0 -45 24.5 -75.5t65 -52t92 -37.5l105.5 -32.5t105.5 -37.5t92 -52t65 -75.5t24.5 -108.5q0 -75 -33.5 -136t-90 -103.5t-130.5 -66t-154 -23.5
q-70 0 -156.5 18t-168.5 52z" />
    <glyph glyph-name="quotedblleft" unicode="&#x201c;" horiz-adv-x="923" 
d="M793 1594q-31 -33 -59 -71.5t-51 -77.5t-38.5 -76t-21.5 -66q10 -9 25 -18.5t32.5 -18.5t35 -16.5t33.5 -10.5q7 -10 9.5 -27t2.5 -27q0 -17 -6.5 -38t-20.5 -39.5t-36.5 -31.5t-54.5 -13q-23 0 -46 9t-41.5 28.5t-30 51t-11.5 77.5q0 43 14.5 92t43.5 100.5t73.5 103.5
t104.5 102zM419 1594q-31 -33 -59 -71.5t-51 -77.5t-38.5 -76t-21.5 -66q10 -9 25 -18.5t32.5 -18.5t35 -16.5t33.5 -10.5q7 -10 9.5 -27t2.5 -27q0 -17 -6.5 -38t-20.5 -39.5t-36.5 -31.5t-54.5 -13q-23 0 -46 9t-41.5 28.5t-30 51t-11.5 77.5q0 43 14.5 92t43.5 100.5
t73.5 103.5t104.5 102z" />
    <glyph glyph-name="ampersand" unicode="&#x26;" horiz-adv-x="1503" 
d="M979 1202q0 -50 -18 -105.5t-57.5 -113t-102.5 -115.5t-154 -112l88 -96.5l87 -94l91.5 -97.5l103.5 -107q31 43 58.5 97.5t50.5 111t40 109.5t27 95h126q-38 -141 -91 -259.5t-119 -218.5q69 -63 137 -113.5t147 -102.5l-73 -98l-75 47t-71 48t-70 53.5t-71 61.5
q-88 -102 -198.5 -157t-236.5 -55q-97 0 -180 31.5t-143.5 84.5t-95 121.5t-34.5 143.5q0 67 26.5 126t72.5 110.5t106.5 97.5t129.5 87l-69 85.5t-61 88.5t-43.5 93t-16.5 99q0 65 29 126t79 108t118.5 75t146.5 28q66 0 124 -21t100.5 -58.5t67 -89.5t24.5 -114zM946 255
l-108.5 111.5l-101 108.5l-99 110l-100.5 116q-66 -39 -111.5 -77.5t-74 -77.5t-41 -79t-12.5 -82q0 -65 27 -115.5t73 -85t107.5 -52.5t131.5 -18q87 0 165.5 32t143.5 109zM430 1161q0 -41 15.5 -85.5t39.5 -87.5t52.5 -82t54.5 -68q58 32 105 71t79.5 81t50 85.5
t17.5 85.5q0 41 -15.5 76t-43 60.5t-65 39.5t-82.5 14q-48 0 -86.5 -16t-65.5 -42.5t-41.5 -61t-14.5 -70.5z" />
    <glyph glyph-name="perthousand" unicode="&#x2030;" horiz-adv-x="2721" 
d="M1367 1464h126l-949 -1464h-123zM507 700q-84 0 -145 32.5t-100.5 86t-58 122.5t-18.5 142q0 89 26 163t73 127t112.5 82.5t144.5 29.5q83 0 143.5 -31.5t100 -84t58.5 -121t19 -141.5q0 -86 -25 -160.5t-71 -129t-111.5 -86t-147.5 -31.5zM526 818q40 0 74.5 18.5
t59.5 53.5t39 85t14 113q0 60 -13.5 111t-38.5 87.5t-60.5 57.5t-79.5 21q-39 0 -73 -17t-59.5 -50.5t-40 -83t-14.5 -113.5q0 -62 14 -114t39 -89.5t60.5 -58.5t78.5 -21zM1372 -21q-84 0 -145 32.5t-100.5 86t-58 122.5t-18.5 142q0 89 26 163t73 127t112.5 82.5
t144.5 29.5q83 0 143.5 -31.5t100 -84t58.5 -121t19 -141.5q0 -86 -25 -160.5t-71 -129t-111.5 -86t-147.5 -31.5zM1391 97q40 0 74.5 18.5t60 53.5t39.5 85t14 113q0 60 -13.5 111t-38.5 87.5t-60.5 57.5t-79.5 21q-39 0 -73.5 -17t-60 -50.5t-40 -83t-14.5 -113.5
q0 -62 14 -114t39 -89.5t60.5 -58.5t78.5 -21zM2181 -21q-84 0 -145 32.5t-100.5 86t-58 122.5t-18.5 142q0 89 26 163t73 127t112.5 82.5t144.5 29.5q83 0 143.5 -31.5t100 -84t58.5 -121t19 -141.5q0 -86 -25 -160.5t-71 -129t-111.5 -86t-147.5 -31.5zM2200 97
q40 0 74.5 18.5t60 53.5t39.5 85t14 113q0 60 -13.5 111t-38.5 87.5t-60.5 57.5t-79.5 21q-39 0 -73.5 -17t-60 -50.5t-40 -83t-14.5 -113.5q0 -62 14 -114t39 -89.5t60.5 -58.5t78.5 -21z" />
    <glyph glyph-name="comma" unicode="," horiz-adv-x="579" 
d="M140 -317q31 33 59 71.5t51 77.5t38.5 76t21.5 66q-10 9 -25 18.5t-32.5 18.5t-35 16.5t-33.5 10.5q-7 10 -9.5 27t-2.5 27q0 16 6.5 37.5t20.5 40t36.5 31.5t54.5 13q23 0 46 -9t41.5 -28.5t30 -51t11.5 -77.5q0 -44 -14.5 -92.5t-43.5 -100t-73.5 -103.5t-104.5 -102z
" />
    <glyph glyph-name="t" unicode="t" horiz-adv-x="933" 
d="M279 933h-216l13 77q76 15 120.5 35t71 54.5t42.5 88t36 135.5h83v-263h391l-36 -127h-362v-627q0 -105 52.5 -148t145.5 -43q43 0 93.5 8.5t93.5 25.5v-97q-59 -35 -118 -53.5t-120 -18.5t-114 19t-92 55t-61.5 87t-22.5 114v678z" />
    <glyph glyph-name="colon" unicode=":" horiz-adv-x="665" 
d="M217 97q0 24 9 45.5t25 37.5t37.5 25t45.5 9t45.5 -9t37.5 -25t25 -37.5t9 -45.5t-9 -45.5t-25 -37.5t-37.5 -25t-45.5 -9t-45.5 9t-37.5 25t-25 37.5t-9 45.5zM217 815q0 24 9 45.5t25 37.5t37.5 25t45.5 9t45.5 -9t37.5 -25t25 -37.5t9 -45.5t-9 -45.5t-25 -37.5
t-37.5 -25t-45.5 -9t-45.5 9t-37.5 25t-25 37.5t-9 45.5z" />
    <glyph glyph-name="exclam" unicode="!" horiz-adv-x="622" 
d="M254 460l-21 1005h156l-20 -1005h-115zM194 97q0 24 9 45.5t25 37.5t37.5 25t45.5 9t45.5 -9t37.5 -25t25 -37.5t9 -45.5t-9 -45.5t-25 -37.5t-37.5 -25t-45.5 -9t-45.5 9t-37.5 25t-25 37.5t-9 45.5z" />
    <glyph glyph-name="copyright" unicode="&#xa9;" horiz-adv-x="1934" 
d="M200 721q0 108 24.5 208.5t71.5 189t115 162t155 126t191.5 81.5t224.5 29t223 -29.5t186.5 -82t147.5 -125t107.5 -158.5t65.5 -183t22 -198q0 -107 -24.5 -207.5t-72 -188.5t-115.5 -161.5t-155 -126t-191.5 -81.5t-224.5 -29q-121 0 -223.5 29.5t-186 82t-147 124.5
t-107 158t-65.5 182.5t-22 197.5zM323 741q0 -137 42 -259.5t124.5 -215t204.5 -147t283 -54.5q160 0 279 53.5t197.5 144.5t117.5 210t39 251q0 138 -42 261t-124.5 216t-204.5 147t-282 54t-279 -54t-198 -145t-118 -210.5t-39 -251.5zM1249 426q-31 -24 -67.5 -42
t-75.5 -30t-78 -18t-75 -6q-80 0 -150 26t-122.5 75.5t-83 121t-30.5 161.5q0 103 39 182t103.5 132.5t148.5 81t173 27.5q17 0 41.5 -1.5t53.5 -5t61.5 -10.5t64.5 -17l-21 -123l-10 -4q-57 24 -111 35t-94 11q-61 0 -113 -19t-90.5 -55t-60 -88t-21.5 -118q0 -62 20 -114
t57 -89.5t89.5 -58t117.5 -20.5q19 0 47.5 2.5t61 8.5t65.5 16t60 26v-87z" />
    <glyph glyph-name="registered" unicode="&#xae;" horiz-adv-x="1934" 
d="M200 721q0 108 24.5 208.5t71.5 189t115 162t155 126t191.5 81.5t224.5 29t223 -29.5t186.5 -82t147.5 -125t107.5 -158.5t65.5 -183t22 -198q0 -107 -24.5 -207.5t-72 -188.5t-115.5 -161.5t-155 -126t-191.5 -81.5t-224.5 -29q-121 0 -223.5 29.5t-186 82t-147 124.5
t-107 158t-65.5 182.5t-22 197.5zM323 741q0 -137 42 -259.5t124.5 -215t204.5 -147t283 -54.5q160 0 279 53.5t197.5 144.5t117.5 210t39 251q0 138 -42 261t-124.5 216t-204.5 147t-282 54t-279 -54t-198 -145t-118 -210.5t-39 -251.5zM694 329v809h262q73 0 129.5 -17
t94 -46.5t57 -68.5t19.5 -83q0 -41 -14 -74.5t-35 -60.5t-44.5 -47.5t-42.5 -34.5l224 -377h-176l-168 320h-158v-320h-148zM1035 764q81 63 81 137q0 26 -10 48t-32.5 38.5t-58 26t-86.5 9.5h-87v-259h193z" />
    <glyph glyph-name="onesuperior" unicode="&#xb9;" horiz-adv-x="653" 
d="M359 514v780h-269v63q63 0 113.5 7t90.5 21t71 34t56 46h62v-951h-124z" />
    <glyph glyph-name="twosuperior" unicode="&#xb2;" horiz-adv-x="805" 
d="M80 555q133 130 220.5 230.5t139 179.5t72 140t20.5 113q0 43 -15 73.5t-40 49.5t-56 27.5t-64 8.5q-28 0 -58.5 -5.5t-60.5 -14.5t-58 -21t-51 -25v79q57 48 127 71.5t139 23.5q54 0 102.5 -16t84.5 -46.5t57 -76t21 -104.5q0 -61 -22.5 -128.5t-72 -145t-128.5 -167
t-193 -193.5h449l-17 -94h-596v41z" />
    <glyph glyph-name="threesuperior" unicode="&#xb3;" horiz-adv-x="776" 
d="M643 1293q0 -59 -47.5 -120.5t-157.5 -119.5v-5q55 -11 97 -34t70.5 -54t43 -67.5t14.5 -75.5q0 -33 -11 -68t-37 -68.5t-68 -64t-103 -53t-143.5 -36t-188.5 -13.5v94q114 0 194 16t130.5 43.5t73.5 64t23 78.5q0 44 -22.5 78t-59.5 55.5t-84.5 31t-97.5 4.5v84
l73.5 26.5t81 38.5t65.5 55t27 77q0 33 -14.5 55.5t-37.5 36t-51.5 19.5t-56.5 6t-59.5 -5t-62.5 -14.5t-60 -22t-52 -27.5v78q54 46 121.5 72.5t142.5 26.5q57 0 104 -15t81 -41t53 -61t19 -75z" />
    <glyph glyph-name="onequarter" unicode="&#xbc;" horiz-adv-x="1962" 
d="M1256 1465h123l-778 -1465h-122zM402 516v778h-270v63q63 0 113.5 7t90.5 21t71.5 34t56.5 46h61v-949h-123zM1091 346l399 605h150v-578h162l-26 -89h-136v-284h-123v284h-426v62zM1517 373v327l6 142h-11l-71 -132l-220 -337h296z" />
    <glyph glyph-name="dollar" unicode="$" horiz-adv-x="1343" 
d="M653 134q72 0 132 19t103.5 53.5t68 82t24.5 104.5q0 65 -30.5 110.5t-80.5 79t-114 59.5l-130.5 52t-130.5 57t-114 74t-80.5 102.5t-30.5 143.5q0 77 26.5 142t74.5 115t114 83t145 46v357h141v-351q61 -3 140.5 -17t169.5 -42l-27 -138l-20 -10q-53 22 -103.5 36.5
t-95.5 23t-82.5 12t-64.5 3.5q-66 0 -118 -17t-88 -48t-54.5 -73.5t-18.5 -93.5q0 -68 30.5 -115.5t81 -83t114.5 -62.5l131.5 -54t131.5 -57t114.5 -71t81 -97t30.5 -135q0 -70 -25 -134.5t-71 -118t-111.5 -93.5t-145.5 -60v-368h-141v350h-12q-96 0 -196 25.5t-203 72.5
l26 138l19 10q47 -27 97 -48t100 -35t99 -21.5t93 -7.5z" />
    <glyph glyph-name="infinity" unicode="&#x221e;" horiz-adv-x="1791" 
d="M1636 605q0 -74 -27.5 -149t-78 -136t-121 -99.5t-156.5 -38.5q-69 0 -123.5 24.5t-97 61.5t-73 80.5t-51.5 81.5h-20q-40 -51 -80.5 -96t-85 -79t-95 -53.5t-110.5 -19.5q-80 0 -146.5 34.5t-114.5 89.5t-74.5 124t-26.5 138q0 47 12.5 96t36 95.5t57.5 87.5t76.5 71.5
t93.5 48.5t108 18q64 0 117 -21.5t95.5 -57t75 -80t56.5 -89.5h20q45 57 88 103t87.5 78t92.5 49.5t103 17.5q79 0 145.5 -34.5t114.5 -89t75 -122t27 -134.5zM829 535q-22 67 -54.5 124.5t-73.5 100t-89 67t-102 24.5q-57 0 -99.5 -26t-70.5 -66t-41.5 -87.5t-13.5 -89.5
q0 -56 21.5 -104.5t57 -84.5t81.5 -56.5t95 -20.5q43 0 85.5 16t80.5 45.5t70 69.5t53 88zM1506 585q0 50 -19.5 98t-54 85.5t-80.5 60t-99 22.5q-44 0 -86.5 -16t-80.5 -45.5t-70 -69.5t-54 -88q23 -69 56.5 -127t74 -100t88 -65.5t99.5 -23.5q55 0 97 25t70.5 64.5
t43.5 87t15 92.5z" />
    <glyph glyph-name="approxequal" unicode="&#x2248;" horiz-adv-x="1432" 
d="M511 414q-59 0 -114.5 -36t-128.5 -112l-61 63q37 53 77.5 88.5t82 56.5t82 30t76.5 9q57 0 109 -16t101 -35t95 -35t90 -16q29 0 56.5 8.5t56.5 26.5t61 45.5t70 66.5l61 -62q-72 -100 -152.5 -142t-162.5 -42q-58 0 -111 16t-102 35t-95 35t-91 16zM511 772
q-59 0 -114.5 -36t-128.5 -112l-61 63q37 53 77.5 88.5t82 56.5t82 29.5t76.5 8.5q57 0 109.5 -16t101 -35t94.5 -35t90 -16q29 0 56.5 8.5t56.5 26.5t61 46t70 67l61 -63q-71 -99 -152 -141t-163 -42q-58 0 -111 16t-102 35t-95 35t-91 16z" />
    <glyph glyph-name="notequal" unicode="&#x2260;" horiz-adv-x="1363" 
d="M1163 448v-105h-540l-180 -343h-117l181 343h-307v105h963zM737 839l182 344h117l-182 -344h309v-105h-963v105h537z" />
    <glyph glyph-name="lessequal" unicode="&#x2264;" horiz-adv-x="1203" 
d="M195 762l813 443v-120l-631 -343l631 -343v-119l-813 443v39zM1007 105v-105h-812v105h812z" />
    <glyph glyph-name="greaterequal" unicode="&#x2265;" horiz-adv-x="1203" 
d="M1008 723l-813 -443v119l631 343l-631 343v120l813 -443v-39zM1008 105v-105h-812v105h812z" />
    <glyph glyph-name="parenright" unicode=")" horiz-adv-x="752" 
d="M100 -311q78 88 133 193.5t90 224t51.5 248.5t16.5 268q0 139 -16.5 268.5t-51.5 247t-90 222t-133 193.5l77 63q93 -104 162.5 -214.5t116 -231t69.5 -253t23 -280.5q0 -595 -371 -1011z" />
    <glyph glyph-name="parenleft" unicode="(" horiz-adv-x="751" 
d="M651 1554q-78 -88 -133 -193t-90 -223.5t-51.5 -248.5t-16.5 -268q0 -139 16.5 -268.5t51.5 -247t90 -222.5t133 -194l-77 -62q-93 104 -162.5 214.5t-115.5 231t-69 253t-23 280.5q0 299 91.5 549.5t278.5 461.5z" />
    <glyph glyph-name="egrave" unicode="&#xe8;" horiz-adv-x="1147" 
d="M983 80q-33 -23 -77.5 -41t-94 -31.5t-100.5 -20.5t-96 -7q-95 0 -184.5 33.5t-159 100.5t-111.5 167t-42 234q0 132 41 237t109.5 177.5t156.5 111.5t181 39q84 0 159.5 -31t132.5 -88.5t90.5 -140t33.5 -185.5q0 -21 -2 -55.5t-7 -69.5h-745q0 -86 29 -158t83 -125
t132 -82.5t176 -29.5q25 0 60.5 2.5t75.5 9.5t81.5 19t77.5 31v-97zM882 624q0 81 -25 141.5t-66 101.5t-94 61.5t-110 20.5q-69 0 -127 -28t-100 -74t-66 -104.5t-26 -118.5h614zM574 1240l-273 362h173l209 -362h-109z" />
    <glyph glyph-name="ecircumflex" unicode="&#xea;" horiz-adv-x="1147" 
d="M983 80q-33 -23 -77.5 -41t-94 -31.5t-100.5 -20.5t-96 -7q-95 0 -184.5 33.5t-159 100.5t-111.5 167t-42 234q0 132 41 237t109.5 177.5t156.5 111.5t181 39q84 0 159.5 -31t132.5 -88.5t90.5 -140t33.5 -185.5q0 -21 -2 -55.5t-7 -69.5h-745q0 -86 29 -158t83 -125
t132 -82.5t176 -29.5q25 0 60.5 2.5t75.5 9.5t81.5 19t77.5 31v-97zM882 624q0 81 -25 141.5t-66 101.5t-94 61.5t-110 20.5q-69 0 -127 -28t-100 -74t-66 -104.5t-26 -118.5h614zM306 1240l223 362h151l224 -362h-110l-192 253l-192 -253h-104z" />
    <glyph glyph-name="edieresis" unicode="&#xeb;" horiz-adv-x="1147" 
d="M983 80q-33 -23 -77.5 -41t-94 -31.5t-100.5 -20.5t-96 -7q-95 0 -184.5 33.5t-159 100.5t-111.5 167t-42 234q0 132 41 237t109.5 177.5t156.5 111.5t181 39q84 0 159.5 -31t132.5 -88.5t90.5 -140t33.5 -185.5q0 -21 -2 -55.5t-7 -69.5h-745q0 -86 29 -158t83 -125
t132 -82.5t176 -29.5q25 0 60.5 2.5t75.5 9.5t81.5 19t77.5 31v-97zM882 624q0 81 -25 141.5t-66 101.5t-94 61.5t-110 20.5q-69 0 -127 -28t-100 -74t-66 -104.5t-26 -118.5h614zM326 1343q0 42 28 70t67 28q42 0 70 -29t28 -72q0 -42 -28 -69t-69 -27q-20 0 -37.5 7.5
t-30.5 21t-20.5 31.5t-7.5 39zM689 1343q0 42 28 70t68 28q21 0 39 -8t31.5 -21.5t21 -32t7.5 -39.5t-8 -38.5t-21 -30t-31 -20t-37 -7.5q-21 0 -38.5 7.5t-31 21t-21 31.5t-7.5 39z" />
    <glyph glyph-name="circumflex" unicode="&#x2c6;" horiz-adv-x="998" 
d="M200 1240l223 362h151l224 -362h-110l-192 253l-192 -253h-104z" />
    <glyph glyph-name="acute" unicode="&#xb4;" horiz-adv-x="782" 
d="M202 1240l208 362h170l-274 -362h-104z" />
    <glyph glyph-name="grave" unicode="`" horiz-adv-x="786" 
d="M475 1240l-273 362h173l209 -362h-109z" />
    <glyph glyph-name="dieresis" unicode="&#xa8;" horiz-adv-x="979" 
d="M210 1343q0 42 28 70t67 28q42 0 70 -29t28 -72q0 -42 -28 -69t-69 -27q-20 0 -37.5 7.5t-30.5 21t-20.5 31.5t-7.5 39zM573 1343q0 42 28 70t68 28q21 0 39 -8t31.5 -21.5t21 -32t7.5 -39.5t-8 -38.5t-21 -30t-31 -20t-37 -7.5q-21 0 -38.5 7.5t-31 21t-21 31.5t-7.5 39
z" />
    <glyph glyph-name="agrave" unicode="&#xe0;" horiz-adv-x="1135" 
d="M764 159l-56 -51.5t-78.5 -59t-97 -48.5t-110.5 -20q-53 0 -105 20t-93.5 58t-67 94.5t-25.5 129.5q0 64 24.5 127t84.5 112.5t162 80t258 30.5h108v107q0 48 -16.5 86.5t-47 66t-72.5 42.5t-93 15q-36 0 -77.5 -7.5t-82 -21t-77.5 -32t-64 -40.5l-18 10l-32 117
q57 33 109.5 53.5t100 32t88.5 15.5t76 4q94 0 160.5 -23t108.5 -65t61 -101t19 -131v-534q0 -11 2 -29.5t9.5 -36.5t22 -31.5t39.5 -13.5q16 0 42 6t51 17v-92q-43 -29 -81 -47.5t-80 -18.5q-40 0 -67.5 17.5t-45.5 44t-27 58t-12 59.5zM768 518h-89q-126 0 -204 -18
t-121 -47.5t-58 -67t-15 -77.5q0 -43 12.5 -78.5t36.5 -61t58.5 -39.5t78.5 -14q30 0 63 8.5t69.5 28t78.5 52.5t90 82v232zM535 1240l-273 362h173l209 -362h-109z" />
    <glyph glyph-name="aacute" unicode="&#xe1;" horiz-adv-x="1135" 
d="M764 159l-56 -51.5t-78.5 -59t-97 -48.5t-110.5 -20q-53 0 -105 20t-93.5 58t-67 94.5t-25.5 129.5q0 64 24.5 127t84.5 112.5t162 80t258 30.5h108v107q0 48 -16.5 86.5t-47 66t-72.5 42.5t-93 15q-36 0 -77.5 -7.5t-82 -21t-77.5 -32t-64 -40.5l-18 10l-32 117
q57 33 109.5 53.5t100 32t88.5 15.5t76 4q94 0 160.5 -23t108.5 -65t61 -101t19 -131v-534q0 -11 2 -29.5t9.5 -36.5t22 -31.5t39.5 -13.5q16 0 42 6t51 17v-92q-43 -29 -81 -47.5t-80 -18.5q-40 0 -67.5 17.5t-45.5 44t-27 58t-12 59.5zM768 518h-89q-126 0 -204 -18
t-121 -47.5t-58 -67t-15 -77.5q0 -43 12.5 -78.5t36.5 -61t58.5 -39.5t78.5 -14q30 0 63 8.5t69.5 28t78.5 52.5t90 82v232zM440 1240l208 362h170l-274 -362h-104z" />
    <glyph glyph-name="acircumflex" unicode="&#xe2;" horiz-adv-x="1135" 
d="M764 159l-56 -51.5t-78.5 -59t-97 -48.5t-110.5 -20q-53 0 -105 20t-93.5 58t-67 94.5t-25.5 129.5q0 64 24.5 127t84.5 112.5t162 80t258 30.5h108v107q0 48 -16.5 86.5t-47 66t-72.5 42.5t-93 15q-36 0 -77.5 -7.5t-82 -21t-77.5 -32t-64 -40.5l-18 10l-32 117
q57 33 109.5 53.5t100 32t88.5 15.5t76 4q94 0 160.5 -23t108.5 -65t61 -101t19 -131v-534q0 -11 2 -29.5t9.5 -36.5t22 -31.5t39.5 -13.5q16 0 42 6t51 17v-92q-43 -29 -81 -47.5t-80 -18.5q-40 0 -67.5 17.5t-45.5 44t-27 58t-12 59.5zM768 518h-89q-126 0 -204 -18
t-121 -47.5t-58 -67t-15 -77.5q0 -43 12.5 -78.5t36.5 -61t58.5 -39.5t78.5 -14q30 0 63 8.5t69.5 28t78.5 52.5t90 82v232zM252 1240l223 362h151l224 -362h-110l-192 253l-192 -253h-104z" />
    <glyph glyph-name="adieresis" unicode="&#xe4;" horiz-adv-x="1135" 
d="M764 159l-56 -51.5t-78.5 -59t-97 -48.5t-110.5 -20q-53 0 -105 20t-93.5 58t-67 94.5t-25.5 129.5q0 64 24.5 127t84.5 112.5t162 80t258 30.5h108v107q0 48 -16.5 86.5t-47 66t-72.5 42.5t-93 15q-36 0 -77.5 -7.5t-82 -21t-77.5 -32t-64 -40.5l-18 10l-32 117
q57 33 109.5 53.5t100 32t88.5 15.5t76 4q94 0 160.5 -23t108.5 -65t61 -101t19 -131v-534q0 -11 2 -29.5t9.5 -36.5t22 -31.5t39.5 -13.5q16 0 42 6t51 17v-92q-43 -29 -81 -47.5t-80 -18.5q-40 0 -67.5 17.5t-45.5 44t-27 58t-12 59.5zM768 518h-89q-126 0 -204 -18
t-121 -47.5t-58 -67t-15 -77.5q0 -43 12.5 -78.5t36.5 -61t58.5 -39.5t78.5 -14q30 0 63 8.5t69.5 28t78.5 52.5t90 82v232zM284 1343q0 42 28 70t67 28q42 0 70 -29t28 -72q0 -42 -28 -69t-69 -27q-20 0 -37.5 7.5t-30.5 21t-20.5 31.5t-7.5 39zM647 1343q0 42 28 70t68 28
q21 0 39 -8t31.5 -21.5t21 -32t7.5 -39.5t-8 -38.5t-21 -30t-31 -20t-37 -7.5q-21 0 -38.5 7.5t-31 21t-21 31.5t-7.5 39z" />
    <glyph glyph-name="igrave" unicode="&#xec;" horiz-adv-x="510" 
d="M224 1240l-273 362h173l209 -362h-109zM184 1060h143v-1060h-143v1060z" />
    <glyph glyph-name="iacute" unicode="&#xed;" horiz-adv-x="510" 
d="M162 1240l208 362h170l-274 -362h-104zM184 1060h143v-1060h-143v1060z" />
    <glyph glyph-name="icircumflex" unicode="&#xee;" horiz-adv-x="511" 
d="M184 1060h143v-1060h-143v1060zM-42 1240l223 362h151l224 -362h-110l-192 253l-192 -253h-104z" />
    <glyph glyph-name="idieresis" unicode="&#xef;" horiz-adv-x="510" 
d="M-23 1343q0 42 28 70t67 28q42 0 70 -29t28 -72q0 -42 -28 -69t-69 -27q-20 0 -37.5 7.5t-30.5 21t-20.5 31.5t-7.5 39zM340 1343q0 42 28 70t68 28q21 0 39 -8t31.5 -21.5t21 -32t7.5 -39.5t-8 -38.5t-21 -30t-31 -20t-37 -7.5q-21 0 -38.5 7.5t-31 21t-21 31.5t-7.5 39
zM184 1060h143v-1060h-143v1060z" />
    <glyph glyph-name="ograve" unicode="&#xf2;" horiz-adv-x="1276" 
d="M612 -20q-116 0 -207.5 43.5t-155 116.5t-97.5 169t-34 201q0 119 42 223t116 181t174 121.5t216 44.5q117 0 208.5 -44t154.5 -118t96 -170.5t33 -200.5q0 -119 -42 -222.5t-115.5 -180t-173.5 -120.5t-215 -44zM639 111q84 0 152 34t116 91t74.5 131.5t26.5 155.5
q0 79 -25 155.5t-72.5 136.5t-116.5 97t-157 37q-83 0 -150.5 -33.5t-116.5 -90.5t-75.5 -132t-26.5 -157q0 -78 25 -154t72.5 -136.5t116.5 -97.5t157 -37zM603 1240l-273 362h173l209 -362h-109z" />
    <glyph glyph-name="oacute" unicode="&#xf3;" horiz-adv-x="1276" 
d="M612 -20q-116 0 -207.5 43.5t-155 116.5t-97.5 169t-34 201q0 119 42 223t116 181t174 121.5t216 44.5q117 0 208.5 -44t154.5 -118t96 -170.5t33 -200.5q0 -119 -42 -222.5t-115.5 -180t-173.5 -120.5t-215 -44zM639 111q84 0 152 34t116 91t74.5 131.5t26.5 155.5
q0 79 -25 155.5t-72.5 136.5t-116.5 97t-157 37q-83 0 -150.5 -33.5t-116.5 -90.5t-75.5 -132t-26.5 -157q0 -78 25 -154t72.5 -136.5t116.5 -97.5t157 -37zM548 1240l208 362h170l-274 -362h-104z" />
    <glyph glyph-name="ocircumflex" unicode="&#xf4;" horiz-adv-x="1276" 
d="M612 -20q-116 0 -207.5 43.5t-155 116.5t-97.5 169t-34 201q0 119 42 223t116 181t174 121.5t216 44.5q117 0 208.5 -44t154.5 -118t96 -170.5t33 -200.5q0 -119 -42 -222.5t-115.5 -180t-173.5 -120.5t-215 -44zM639 111q84 0 152 34t116 91t74.5 131.5t26.5 155.5
q0 79 -25 155.5t-72.5 136.5t-116.5 97t-157 37q-83 0 -150.5 -33.5t-116.5 -90.5t-75.5 -132t-26.5 -157q0 -78 25 -154t72.5 -136.5t116.5 -97.5t157 -37zM342 1240l223 362h151l224 -362h-110l-192 253l-192 -253h-104z" />
    <glyph glyph-name="odieresis" unicode="&#xf6;" horiz-adv-x="1276" 
d="M612 -20q-116 0 -207.5 43.5t-155 116.5t-97.5 169t-34 201q0 119 42 223t116 181t174 121.5t216 44.5q117 0 208.5 -44t154.5 -118t96 -170.5t33 -200.5q0 -119 -42 -222.5t-115.5 -180t-173.5 -120.5t-215 -44zM639 111q84 0 152 34t116 91t74.5 131.5t26.5 155.5
q0 79 -25 155.5t-72.5 136.5t-116.5 97t-157 37q-83 0 -150.5 -33.5t-116.5 -90.5t-75.5 -132t-26.5 -157q0 -78 25 -154t72.5 -136.5t116.5 -97.5t157 -37zM358 1343q0 42 28 70t67 28q42 0 70 -29t28 -72q0 -42 -28 -69t-69 -27q-20 0 -37.5 7.5t-30.5 21t-20.5 31.5
t-7.5 39zM721 1343q0 42 28 70t68 28q21 0 39 -8t31.5 -21.5t21 -32t7.5 -39.5t-8 -38.5t-21 -30t-31 -20t-37 -7.5q-21 0 -38.5 7.5t-31 21t-21 31.5t-7.5 39z" />
    <glyph glyph-name="ugrave" unicode="&#xf9;" horiz-adv-x="1219" 
d="M1035 0h-114l-21 188q-36 -37 -80 -74t-94.5 -67t-106 -48.5t-115.5 -18.5q-68 0 -126.5 26t-101.5 74t-67.5 116.5t-24.5 153.5v710h143v-689q0 -63 17 -111t46.5 -80t70 -48.5t87.5 -16.5q85 0 170.5 49.5t173.5 137.5v758h143v-1060zM609 1240l-273 362h173l209 -362
h-109z" />
    <glyph glyph-name="uacute" unicode="&#xfa;" horiz-adv-x="1219" 
d="M1035 0h-114l-21 188q-36 -37 -80 -74t-94.5 -67t-106 -48.5t-115.5 -18.5q-68 0 -126.5 26t-101.5 74t-67.5 116.5t-24.5 153.5v710h143v-689q0 -63 17 -111t46.5 -80t70 -48.5t87.5 -16.5q85 0 170.5 49.5t173.5 137.5v758h143v-1060zM481 1240l208 362h170l-274 -362
h-104z" />
    <glyph glyph-name="ucircumflex" unicode="&#xfb;" horiz-adv-x="1219" 
d="M1035 0h-114l-21 188q-36 -37 -80 -74t-94.5 -67t-106 -48.5t-115.5 -18.5q-68 0 -126.5 26t-101.5 74t-67.5 116.5t-24.5 153.5v710h143v-689q0 -63 17 -111t46.5 -80t70 -48.5t87.5 -16.5q85 0 170.5 49.5t173.5 137.5v758h143v-1060zM324 1240l223 362h151l224 -362
h-110l-192 253l-192 -253h-104z" />
    <glyph glyph-name="udieresis" unicode="&#xfc;" horiz-adv-x="1219" 
d="M1035 0h-114l-21 188q-36 -37 -80 -74t-94.5 -67t-106 -48.5t-115.5 -18.5q-68 0 -126.5 26t-101.5 74t-67.5 116.5t-24.5 153.5v710h143v-689q0 -63 17 -111t46.5 -80t70 -48.5t87.5 -16.5q85 0 170.5 49.5t173.5 137.5v758h143v-1060zM339 1343q0 42 28 70t67 28
q42 0 70 -29t28 -72q0 -42 -28 -69t-69 -27q-20 0 -37.5 7.5t-30.5 21t-20.5 31.5t-7.5 39zM702 1343q0 42 28 70t68 28q21 0 39 -8t31.5 -21.5t21 -32t7.5 -39.5t-8 -38.5t-21 -30t-31 -20t-37 -7.5q-21 0 -38.5 7.5t-31 21t-21 31.5t-7.5 39z" />
    <glyph glyph-name="yacute" unicode="&#xfd;" horiz-adv-x="1085" 
d="M465 0l-405 1060h169l267 -749l46 -164h20l44 164l267 749h152l-609 -1596h-144l234 536h-41zM459 1240l208 362h170l-274 -362h-104z" />
    <glyph glyph-name="ydieresis" unicode="&#xff;" horiz-adv-x="1085" 
d="M465 0l-405 1060h169l267 -749l46 -164h20l44 164l267 749h152l-609 -1596h-144l234 536h-41zM272 1343q0 42 28 70t67 28q42 0 70 -29t28 -72q0 -42 -28 -69t-69 -27q-20 0 -37.5 7.5t-30.5 21t-20.5 31.5t-7.5 39zM635 1343q0 42 28 70t68 28q21 0 39 -8t31.5 -21.5
t21 -32t7.5 -39.5t-8 -38.5t-21 -30t-31 -20t-37 -7.5q-21 0 -38.5 7.5t-31 21t-21 31.5t-7.5 39z" />
    <glyph glyph-name="ccaron" unicode="&#x10d;" horiz-adv-x="1045" 
d="M921 80q-27 -19 -61 -37t-74.5 -32t-86.5 -22.5t-97 -8.5q-105 0 -194 38.5t-153.5 107t-100.5 163.5t-36 208q0 127 45 234.5t121.5 184.5t178 120.5t214.5 43.5q33 0 68 -3.5t68.5 -10.5t62 -17t47.5 -22l-34 -133l-23 -10q-21 14 -47.5 26t-56 20.5t-60.5 13.5t-61 5
q-71 0 -138 -28.5t-119.5 -83t-84 -133.5t-31.5 -181q0 -101 31.5 -177.5t85 -127.5t123 -77t146.5 -26q54 0 125.5 14t141.5 48v-97zM906 1602l-224 -362h-151l-223 362h110l191 -254l192 254h105z" />
    <glyph glyph-name="caron" unicode="&#x2c7;" horiz-adv-x="998" 
d="M798 1602l-224 -362h-151l-223 362h110l191 -254l192 254h105z" />
    <glyph glyph-name="ecaron" unicode="&#x11b;" horiz-adv-x="1147" 
d="M983 80q-33 -23 -77.5 -41t-94 -31.5t-100.5 -20.5t-96 -7q-95 0 -184.5 33.5t-159 100.5t-111.5 167t-42 234q0 132 41 237t109.5 177.5t156.5 111.5t181 39q84 0 159.5 -31t132.5 -88.5t90.5 -140t33.5 -185.5q0 -21 -2 -55.5t-7 -69.5h-745q0 -86 29 -158t83 -125
t132 -82.5t176 -29.5q25 0 60.5 2.5t75.5 9.5t81.5 19t77.5 31v-97zM882 624q0 81 -25 141.5t-66 101.5t-94 61.5t-110 20.5q-69 0 -127 -28t-100 -74t-66 -104.5t-26 -118.5h614zM895 1602l-224 -362h-151l-223 362h110l191 -254l192 254h105z" />
    <glyph glyph-name="nacute" unicode="&#x144;" horiz-adv-x="1237" 
d="M184 1060h114l21 -188q35 36 79 73t95 67t109 49t121 19q72 0 132.5 -26t104.5 -74t68.5 -116.5t24.5 -153.5v-710h-143v689q0 63 -17 111t-47.5 80t-73.5 48.5t-94 16.5q-89 0 -176 -49.5t-175 -137.5v-758h-143v1060zM481 1240l208 362h170l-274 -362h-104z" />
    <glyph glyph-name="ncaron" unicode="&#x148;" horiz-adv-x="1237" 
d="M184 1060h114l21 -188q35 36 79 73t95 67t109 49t121 19q72 0 132.5 -26t104.5 -74t68.5 -116.5t24.5 -153.5v-710h-143v689q0 63 -17 111t-47.5 80t-73.5 48.5t-94 16.5q-89 0 -176 -49.5t-175 -137.5v-758h-143v1060zM905 1602l-224 -362h-151l-223 362h110l191 -254
l192 254h105z" />
    <glyph glyph-name="racute" unicode="&#x155;" horiz-adv-x="838" 
d="M184 1060h114l21 -308q36 72 75 132t83.5 103.5t96 68t113.5 24.5q27 0 48.5 -5.5t47.5 -19.5l-15 -130q-13 5 -35 7t-40 2q-47 0 -92.5 -17t-91 -56t-91 -102.5t-91.5 -156.5v-602h-143v1060zM329 1240l208 362h170l-274 -362h-104z" />
    <glyph glyph-name="rcaron" unicode="&#x159;" horiz-adv-x="838" 
d="M184 1060h114l21 -308q36 72 75 132t83.5 103.5t96 68t113.5 24.5q27 0 48.5 -5.5t47.5 -19.5l-15 -130q-13 5 -35 7t-40 2q-47 0 -92.5 -17t-91 -56t-91 -102.5t-91.5 -156.5v-602h-143v1060zM764 1602l-224 -362h-151l-223 362h110l191 -254l192 254h105z" />
    <glyph glyph-name="sacute" unicode="&#x15b;" horiz-adv-x="979" 
d="M157 177l18 12q38 -21 79 -35.5t81 -24t77.5 -14t68.5 -4.5q52 0 96 12t76 34.5t50 54.5t18 71q0 47 -24.5 78t-64.5 52.5t-91.5 37l-105 31.5t-105 36t-91.5 50t-64.5 73.5t-24.5 107.5q0 68 29 128t81.5 105t124.5 71.5t159 26.5q25 0 57.5 -2.5t68.5 -7.5t74.5 -13
t74.5 -20l-36 -131l-18 -12q-26 12 -58 22.5t-65 17.5t-66 11t-61 4q-51 0 -93.5 -12.5t-73 -35t-48 -53.5t-17.5 -68q0 -45 24.5 -75.5t65 -52t92 -37.5l105.5 -32.5t105.5 -37.5t92 -52t65 -75.5t24.5 -108.5q0 -75 -33.5 -136t-90 -103.5t-130.5 -66t-154 -23.5
q-70 0 -156.5 18t-168.5 52zM407 1240l208 362h170l-274 -362h-104z" />
    <glyph glyph-name="zacute" unicode="&#x17a;" horiz-adv-x="1055" 
d="M110 69l520 728l97 124v20l-194 -8h-398l37 127h752v-69l-510 -709l-111 -143v-20l178 8h468l-37 -127h-802v69zM415 1240l208 362h170l-274 -362h-104z" />
    <glyph glyph-name="zcaron" unicode="&#x17e;" horiz-adv-x="1055" 
d="M110 69l520 728l97 124v20l-194 -8h-398l37 127h752v-69l-510 -709l-111 -143v-20l178 8h468l-37 -127h-802v69zM828 1602l-224 -362h-151l-223 362h110l191 -254l192 254h105z" />
    <glyph glyph-name="cacute" unicode="&#x107;" horiz-adv-x="1045" 
d="M921 80q-27 -19 -61 -37t-74.5 -32t-86.5 -22.5t-97 -8.5q-105 0 -194 38.5t-153.5 107t-100.5 163.5t-36 208q0 127 45 234.5t121.5 184.5t178 120.5t214.5 43.5q33 0 68 -3.5t68.5 -10.5t62 -17t47.5 -22l-34 -133l-23 -10q-21 14 -47.5 26t-56 20.5t-60.5 13.5t-61 5
q-71 0 -138 -28.5t-119.5 -83t-84 -133.5t-31.5 -181q0 -101 31.5 -177.5t85 -127.5t123 -77t146.5 -26q54 0 125.5 14t141.5 48v-97zM471 1240l208 362h170l-274 -362h-104z" />
    <glyph glyph-name="uni021A" unicode="&#x21a;" horiz-adv-x="1274" 
d="M703 0h-146v1331h-507l27 134h1147l-27 -134h-494v-1331zM528 -463q19 12 39.5 32t37.5 42t29 43.5t14 36.5q-8 7 -20 16t-26.5 16.5t-29 13.5t-27.5 9q-5 11 -7 24.5t-2 21.5q0 13 5 30.5t16 33.5t29 27t44 11t45.5 -11t33 -29t20 -41t6.5 -46q0 -47 -22 -90t-51 -77
t-57.5 -56t-41.5 -28z" />
    <glyph glyph-name="uni021B" unicode="&#x21b;" horiz-adv-x="933" 
d="M279 933h-216l13 77q76 15 120.5 35t71 54.5t42.5 88t36 135.5h83v-263h391l-36 -127h-362v-627q0 -105 52.5 -148t145.5 -43q43 0 93.5 8.5t93.5 25.5v-97q-59 -35 -118 -53.5t-120 -18.5t-114 19t-92 55t-61.5 87t-22.5 114v678zM410 -463q19 12 39.5 32t37.5 42
t29 43.5t14 36.5q-8 7 -20 16t-26.5 16.5t-29 13.5t-27.5 9q-5 11 -7 24.5t-2 21.5q0 13 5 30.5t16 33.5t29 27t44 11t45.5 -11t33 -29t20 -41t6.5 -46q0 -47 -22 -90t-51 -77t-57.5 -56t-41.5 -28z" />
    <glyph glyph-name="emacron" unicode="&#x113;" horiz-adv-x="1147" 
d="M983 80q-33 -23 -77.5 -41t-94 -31.5t-100.5 -20.5t-96 -7q-95 0 -184.5 33.5t-159 100.5t-111.5 167t-42 234q0 132 41 237t109.5 177.5t156.5 111.5t181 39q84 0 159.5 -31t132.5 -88.5t90.5 -140t33.5 -185.5q0 -21 -2 -55.5t-7 -69.5h-745q0 -86 29 -158t83 -125
t132 -82.5t176 -29.5q25 0 60.5 2.5t75.5 9.5t81.5 19t77.5 31v-97zM882 624q0 81 -25 141.5t-66 101.5t-94 61.5t-110 20.5q-69 0 -127 -28t-100 -74t-66 -104.5t-26 -118.5h614zM338 1345h514v-105h-514v105z" />
    <glyph glyph-name="amacron" unicode="&#x101;" horiz-adv-x="1135" 
d="M764 159l-56 -51.5t-78.5 -59t-97 -48.5t-110.5 -20q-53 0 -105 20t-93.5 58t-67 94.5t-25.5 129.5q0 64 24.5 127t84.5 112.5t162 80t258 30.5h108v107q0 48 -16.5 86.5t-47 66t-72.5 42.5t-93 15q-36 0 -77.5 -7.5t-82 -21t-77.5 -32t-64 -40.5l-18 10l-32 117
q57 33 109.5 53.5t100 32t88.5 15.5t76 4q94 0 160.5 -23t108.5 -65t61 -101t19 -131v-534q0 -11 2 -29.5t9.5 -36.5t22 -31.5t39.5 -13.5q16 0 42 6t51 17v-92q-43 -29 -81 -47.5t-80 -18.5q-40 0 -67.5 17.5t-45.5 44t-27 58t-12 59.5zM768 518h-89q-126 0 -204 -18
t-121 -47.5t-58 -67t-15 -77.5q0 -43 12.5 -78.5t36.5 -61t58.5 -39.5t78.5 -14q30 0 63 8.5t69.5 28t78.5 52.5t90 82v232zM279 1345h514v-105h-514v105z" />
    <glyph glyph-name="atilde" unicode="&#xe3;" horiz-adv-x="1135" 
d="M764 159l-56 -51.5t-78.5 -59t-97 -48.5t-110.5 -20q-53 0 -105 20t-93.5 58t-67 94.5t-25.5 129.5q0 64 24.5 127t84.5 112.5t162 80t258 30.5h108v107q0 48 -16.5 86.5t-47 66t-72.5 42.5t-93 15q-36 0 -77.5 -7.5t-82 -21t-77.5 -32t-64 -40.5l-18 10l-32 117
q57 33 109.5 53.5t100 32t88.5 15.5t76 4q94 0 160.5 -23t108.5 -65t61 -101t19 -131v-534q0 -11 2 -29.5t9.5 -36.5t22 -31.5t39.5 -13.5q16 0 42 6t51 17v-92q-43 -29 -81 -47.5t-80 -18.5q-40 0 -67.5 17.5t-45.5 44t-27 58t-12 59.5zM768 518h-89q-126 0 -204 -18
t-121 -47.5t-58 -67t-15 -77.5q0 -43 12.5 -78.5t36.5 -61t58.5 -39.5t78.5 -14q30 0 63 8.5t69.5 28t78.5 52.5t90 82v232zM710 1240q-40 0 -71.5 15.5t-56.5 38.5t-46.5 49.5l-41.5 49.5t-42 38.5t-48 15.5q-22 0 -42 -12t-35.5 -37.5t-24.5 -64.5t-9 -93h-110
q0 95 24 156.5t60 97t76.5 49t73.5 13.5q40 0 71 -15.5t56 -38.5t46 -49.5t41.5 -49.5t42.5 -38.5t49 -15.5q22 0 42 12t35.5 37.5t24.5 64.5t9 93h110q0 -95 -24 -156.5t-60 -97t-76.5 -49t-73.5 -13.5z" />
    <glyph glyph-name="tilde" unicode="&#x2dc;" horiz-adv-x="1161" 
d="M727 1240q-40 0 -71.5 15.5t-56.5 38.5t-46.5 49.5l-41.5 49.5t-42 38.5t-48 15.5q-22 0 -42 -12t-35.5 -37.5t-24.5 -64.5t-9 -93h-110q0 95 24 156.5t60 97t76.5 49t73.5 13.5q40 0 71 -15.5t56 -38.5t46 -49.5t41.5 -49.5t42.5 -38.5t49 -15.5q22 0 42 12t35.5 37.5
t24.5 64.5t9 93h110q0 -95 -24 -156.5t-60 -97t-76.5 -49t-73.5 -13.5z" />
    <glyph glyph-name="ntilde" unicode="&#xf1;" horiz-adv-x="1237" 
d="M184 1060h114l21 -188q35 36 79 73t95 67t109 49t121 19q72 0 132.5 -26t104.5 -74t68.5 -116.5t24.5 -153.5v-710h-143v689q0 63 -17 111t-47.5 80t-73.5 48.5t-94 16.5q-89 0 -176 -49.5t-175 -137.5v-758h-143v1060zM764 1240q-40 0 -71.5 15.5t-56.5 38.5t-46.5 49.5
l-41.5 49.5t-42 38.5t-48 15.5q-22 0 -42 -12t-35.5 -37.5t-24.5 -64.5t-9 -93h-110q0 95 24 156.5t60 97t76.5 49t73.5 13.5q40 0 71 -15.5t56 -38.5t46 -49.5t41.5 -49.5t42.5 -38.5t49 -15.5q22 0 42 12t35.5 37.5t24.5 64.5t9 93h110q0 -95 -24 -156.5t-60 -97
t-76.5 -49t-73.5 -13.5z" />
    <glyph glyph-name="otilde" unicode="&#xf5;" horiz-adv-x="1276" 
d="M612 -20q-116 0 -207.5 43.5t-155 116.5t-97.5 169t-34 201q0 119 42 223t116 181t174 121.5t216 44.5q117 0 208.5 -44t154.5 -118t96 -170.5t33 -200.5q0 -119 -42 -222.5t-115.5 -180t-173.5 -120.5t-215 -44zM639 111q84 0 152 34t116 91t74.5 131.5t26.5 155.5
q0 79 -25 155.5t-72.5 136.5t-116.5 97t-157 37q-83 0 -150.5 -33.5t-116.5 -90.5t-75.5 -132t-26.5 -157q0 -78 25 -154t72.5 -136.5t116.5 -97.5t157 -37zM781 1240q-40 0 -71.5 15.5t-56.5 38.5t-46.5 49.5l-41.5 49.5t-42 38.5t-48 15.5q-22 0 -42 -12t-35.5 -37.5
t-24.5 -64.5t-9 -93h-110q0 95 24 156.5t60 97t76.5 49t73.5 13.5q40 0 71 -15.5t56 -38.5t46 -49.5t41.5 -49.5t42.5 -38.5t49 -15.5q22 0 42 12t35.5 37.5t24.5 64.5t9 93h110q0 -95 -24 -156.5t-60 -97t-76.5 -49t-73.5 -13.5z" />
    <glyph glyph-name="imacron" unicode="&#x12b;" horiz-adv-x="510" 
d="M-2 1345h514v-105h-514v105zM184 1060h143v-1060h-143v1060z" />
    <glyph glyph-name="Ncommaaccent" unicode="&#x145;" horiz-adv-x="1667" 
d="M220 0v1465h213l779 -1054l97 -159h20l-15 190v1023h133v-1465h-111l-886 1201l-92 163h-20l15 -196v-1168h-133zM680 -463q19 12 39.5 32t37.5 42t29 43.5t14 36.5q-8 7 -20 16t-26.5 16.5t-29 13.5t-27.5 9q-5 11 -7 24.5t-2 21.5q0 13 5 30.5t16 33.5t29 27t44 11
t45.5 -11t33 -29t20 -41t6.5 -46q0 -47 -22 -90t-51 -77t-57.5 -56t-41.5 -28z" />
    <glyph glyph-name="rcommaaccent" unicode="&#x157;" horiz-adv-x="838" 
d="M184 1060h114l21 -308q36 72 75 132t83.5 103.5t96 68t113.5 24.5q27 0 48.5 -5.5t47.5 -19.5l-15 -130q-13 5 -35 7t-40 2q-47 0 -92.5 -17t-91 -56t-91 -102.5t-91.5 -156.5v-602h-143v1060zM153 -463q19 12 39.5 32t37.5 42t29 43.5t14 36.5q-8 7 -20 16t-26.5 16.5
t-29 13.5t-27.5 9q-5 11 -7 24.5t-2 21.5q0 13 5 30.5t16 33.5t29 27t44 11t45.5 -11t33 -29t20 -41t6.5 -46q0 -47 -22 -90t-51 -77t-57.5 -56t-41.5 -28z" />
    <glyph glyph-name="Rcommaaccent" unicode="&#x156;" horiz-adv-x="1286" 
d="M376 598v-598h-146v1465h380q97 0 181 -29.5t146 -81.5t98 -123.5t36 -156.5q0 -74 -26 -139t-67 -118.5t-90.5 -95.5t-96.5 -71l418 -650h-181l-366 598h-286zM376 732h350q46 25 82 61.5t60.5 79t37 89.5t12.5 92q0 59 -21 109.5t-64.5 88t-109 58.5t-154.5 21h-193
v-599zM559 -463q19 12 39.5 32t37.5 42t29 43.5t14 36.5q-8 7 -20 16t-26.5 16.5t-29 13.5t-27.5 9q-5 11 -7 24.5t-2 21.5q0 13 5 30.5t16 33.5t29 27t44 11t45.5 -11t33 -29t20 -41t6.5 -46q0 -47 -22 -90t-51 -77t-57.5 -56t-41.5 -28z" />
    <glyph glyph-name="Lcommaaccent" unicode="&#x13b;" horiz-adv-x="1079" 
d="M230 0v1465h146v-1331h625l-27 -134h-744zM495 -463q19 12 39.5 32t37.5 42t29 43.5t14 36.5q-8 7 -20 16t-26.5 16.5t-29 13.5t-27.5 9q-5 11 -7 24.5t-2 21.5q0 13 5 30.5t16 33.5t29 27t44 11t45.5 -11t33 -29t20 -41t6.5 -46q0 -47 -22 -90t-51 -77t-57.5 -56
t-41.5 -28z" />
    <glyph glyph-name="lcommaaccent" unicode="&#x13c;" horiz-adv-x="511" 
d="M184 1602h143v-1602h-143v1602zM154 -463q19 12 39.5 32t37.5 42t29 43.5t14 36.5q-8 7 -20 16t-26.5 16.5t-29 13.5t-27.5 9q-5 11 -7 24.5t-2 21.5q0 13 5 30.5t16 33.5t29 27t44 11t45.5 -11t33 -29t20 -41t6.5 -46q0 -47 -22 -90t-51 -77t-57.5 -56t-41.5 -28z" />
    <glyph glyph-name="ncommaaccent" unicode="&#x146;" horiz-adv-x="1237" 
d="M184 1060h114l21 -188q35 36 79 73t95 67t109 49t121 19q72 0 132.5 -26t104.5 -74t68.5 -116.5t24.5 -153.5v-710h-143v689q0 63 -17 111t-47.5 80t-73.5 48.5t-94 16.5q-89 0 -176 -49.5t-175 -137.5v-758h-143v1060zM518 -463q19 12 39.5 32t37.5 42t29 43.5t14 36.5
q-8 7 -20 16t-26.5 16.5t-29 13.5t-27.5 9q-5 11 -7 24.5t-2 21.5q0 13 5 30.5t16 33.5t29 27t44 11t45.5 -11t33 -29t20 -41t6.5 -46q0 -47 -22 -90t-51 -77t-57.5 -56t-41.5 -28z" />
    <glyph glyph-name="gcommaaccent" unicode="&#x123;" horiz-adv-x="1237" 
d="M454 -43q-30 -13 -64.5 -34.5t-63.5 -49.5t-48 -60t-19 -66q0 -35 21.5 -66.5t62 -55t99 -37t132.5 -13.5q83 0 152 17.5t118 48t76 71.5t27 88q0 40 -19.5 70t-52 49t-75.5 28.5t-91 9.5h-255zM321 -20q-27 8 -52 23t-43.5 35.5t-29.5 45t-11 51.5q0 32 15.5 61.5
t41 56.5t58 51t65.5 45q-94 51 -150.5 136.5t-56.5 194.5q0 95 42 169.5t107 125.5t143 78t149 27q30 0 61 -4.5t60 -12.5t54.5 -19t44.5 -23q17 9 42.5 16.5t52 12.5t52 7.5t42.5 2.5h192l-37 -131h-260q19 -16 36 -41t30.5 -56.5t21.5 -67t8 -72.5q0 -83 -39 -154.5
t-101 -124.5t-139 -83.5t-154 -30.5q-23 0 -48.5 2.5t-54.5 6.5q-21 -12 -43.5 -26.5t-41 -30.5t-30.5 -34.5t-12 -38.5q0 -16 8 -32t22.5 -29t36 -21t48.5 -8h298q76 0 139 -20.5t107.5 -55.5t69 -83t24.5 -102q0 -68 -39 -136.5t-110.5 -123.5t-172.5 -89t-226 -34
q-93 0 -172 20t-136.5 55.5t-90 83.5t-32.5 105q0 49 22.5 91t55 76.5t69 61t64.5 43.5zM300 696q0 -57 22 -106.5t59.5 -86.5t88.5 -58.5t109 -21.5q54 0 104.5 19t89 54t61.5 83.5t23 107.5q0 57 -22 106t-59.5 85t-88.5 57t-109 21q-55 0 -105 -18.5t-88.5 -52.5
t-61.5 -82t-23 -107zM683 1523q-19 -12 -39.5 -32t-38 -42t-29 -43.5t-13.5 -36.5q7 -8 19.5 -16.5t26.5 -16.5t29 -14t28 -9q5 -10 7 -23.5t2 -21.5q0 -13 -5 -30.5t-16 -33.5t-29 -27t-44 -11t-46 11t-33 29t-19.5 41t-6.5 46q0 47 22 90t51 77t57.5 56t41.5 28z" />
    <glyph glyph-name="Thorn" unicode="&#xde;" horiz-adv-x="1229" 
d="M376 0h-146v1465h143v-260h218q106 0 202 -28.5t168.5 -84.5t115 -140t42.5 -196q0 -79 -21.5 -146t-59 -121.5t-87.5 -96.5t-107.5 -70.5t-119.5 -43t-122 -14.5q-11 0 -25 0.5t-34 3.5l9 132q21 -2 37 -2.5t30 -0.5q67 0 130 19t111.5 60t77.5 105.5t29 155.5
q0 88 -29 151t-83 103.5t-132 60t-175 19.5h-172v-1071z" />
    <glyph glyph-name="ae" unicode="&#xe6;" horiz-adv-x="1791" 
d="M1627 80q-33 -23 -77.5 -41t-94 -31.5t-100 -20.5t-95.5 -7q-60 0 -118.5 13.5t-111.5 40t-99 66.5t-81 93q-37 -36 -83.5 -73.5t-100 -68.5t-112.5 -51t-121 -20q-59 0 -113.5 19.5t-96.5 58t-67 94.5t-25 128q0 43 10.5 85.5t34.5 81t64 71.5t99 57.5t138 38.5t183 14
h108v111q0 48 -16.5 86.5t-47 66t-72.5 42.5t-93 15q-36 0 -77.5 -7.5t-82 -21t-77.5 -32t-64 -40.5l-18 10l-32 117q57 33 109.5 53.5t99.5 32t87.5 15.5t73.5 4q73 0 127 -15t93 -41t64.5 -61t40.5 -75q34 44 75.5 79.5t89 60.5t99.5 38.5t106 13.5q82 0 157 -31t132 -88
t90.5 -139t33.5 -184q0 -21 -2 -55t-7 -69h-745q0 -86 29 -159t83 -126t131.5 -83.5t175.5 -30.5q25 0 61 2.5t76 9.5t81.5 19t77.5 31v-97zM478 115q83 0 162 40.5t164 125.5q-20 51 -31 108.5t-11 124.5h-83q-127 0 -205 -18t-121 -47t-57.5 -66.5t-14.5 -77.5
q0 -42 12 -76.5t37 -60t61.5 -39.5t86.5 -14zM1526 628q0 79 -25 139.5t-66 100.5t-94 60.5t-110 20.5q-69 0 -127 -28t-100 -73.5t-66 -103t-26 -116.5h614z" />
    <glyph glyph-name="umacron" unicode="&#x16b;" horiz-adv-x="1219" 
d="M1035 0h-114l-21 188q-36 -37 -80 -74t-94.5 -67t-106 -48.5t-115.5 -18.5q-68 0 -126.5 26t-101.5 74t-67.5 116.5t-24.5 153.5v710h143v-689q0 -63 17 -111t46.5 -80t70 -48.5t87.5 -16.5q85 0 170.5 49.5t173.5 137.5v758h143v-1060zM356 1345h514v-105h-514v105z" />
    <glyph glyph-name="dotaccent" unicode="&#x2d9;" horiz-adv-x="606" 
d="M199 1420q0 42 28.5 71t70.5 29t71 -29t29 -71t-29 -70.5t-71 -28.5t-70.5 28.5t-28.5 70.5z" />
    <glyph glyph-name="edotaccent" unicode="&#x117;" horiz-adv-x="1147" 
d="M983 80q-33 -23 -77.5 -41t-94 -31.5t-100.5 -20.5t-96 -7q-95 0 -184.5 33.5t-159 100.5t-111.5 167t-42 234q0 132 41 237t109.5 177.5t156.5 111.5t181 39q84 0 159.5 -31t132.5 -88.5t90.5 -140t33.5 -185.5q0 -21 -2 -55.5t-7 -69.5h-745q0 -86 29 -158t83 -125
t132 -82.5t176 -29.5q25 0 60.5 2.5t75.5 9.5t81.5 19t77.5 31v-97zM882 624q0 81 -25 141.5t-66 101.5t-94 61.5t-110 20.5q-69 0 -127 -28t-100 -74t-66 -104.5t-26 -118.5h614zM498 1420q0 42 28.5 71t70.5 29t71 -29t29 -71t-29 -70.5t-71 -28.5t-70.5 28.5t-28.5 70.5z
" />
    <glyph glyph-name="omacron" unicode="&#x14d;" horiz-adv-x="1276" 
d="M612 -20q-116 0 -207.5 43.5t-155 116.5t-97.5 169t-34 201q0 119 42 223t116 181t174 121.5t216 44.5q117 0 208.5 -44t154.5 -118t96 -170.5t33 -200.5q0 -119 -42 -222.5t-115.5 -180t-173.5 -120.5t-215 -44zM639 111q84 0 152 34t116 91t74.5 131.5t26.5 155.5
q0 79 -25 155.5t-72.5 136.5t-116.5 97t-157 37q-83 0 -150.5 -33.5t-116.5 -90.5t-75.5 -132t-26.5 -157q0 -78 25 -154t72.5 -136.5t116.5 -97.5t157 -37zM381 1345h514v-105h-514v105z" />
    <glyph glyph-name="zdotaccent" unicode="&#x17c;" horiz-adv-x="1055" 
d="M110 69l520 728l97 124v20l-194 -8h-398l37 127h752v-69l-510 -709l-111 -143v-20l178 8h468l-37 -127h-802v69zM416 1420q0 42 28.5 71t70.5 29t71 -29t29 -71t-29 -70.5t-71 -28.5t-70.5 28.5t-28.5 70.5z" />
    <glyph glyph-name="breve" unicode="&#x2d8;" horiz-adv-x="1003" 
d="M501 1355q37 0 70.5 17t58 48.5t39 77.5t14.5 104h120q0 -81 -22.5 -147.5t-63 -114.5t-98.5 -74t-128 -26t-124.5 26t-91.5 74t-56 114.5t-19 147.5h120q0 -58 14 -104t38.5 -77.5t57.5 -48.5t71 -17z" />
    <glyph glyph-name="abreve" unicode="&#x103;" horiz-adv-x="1135" 
d="M764 159l-56 -51.5t-78.5 -59t-97 -48.5t-110.5 -20q-53 0 -105 20t-93.5 58t-67 94.5t-25.5 129.5q0 64 24.5 127t84.5 112.5t162 80t258 30.5h108v107q0 48 -16.5 86.5t-47 66t-72.5 42.5t-93 15q-36 0 -77.5 -7.5t-82 -21t-77.5 -32t-64 -40.5l-18 10l-32 117
q57 33 109.5 53.5t100 32t88.5 15.5t76 4q94 0 160.5 -23t108.5 -65t61 -101t19 -131v-534q0 -11 2 -29.5t9.5 -36.5t22 -31.5t39.5 -13.5q16 0 42 6t51 17v-92q-43 -29 -81 -47.5t-80 -18.5q-40 0 -67.5 17.5t-45.5 44t-27 58t-12 59.5zM768 518h-89q-126 0 -204 -18
t-121 -47.5t-58 -67t-15 -77.5q0 -43 12.5 -78.5t36.5 -61t58.5 -39.5t78.5 -14q30 0 63 8.5t69.5 28t78.5 52.5t90 82v232zM539 1355q37 0 70.5 17t58 48.5t39 77.5t14.5 104h120q0 -81 -22.5 -147.5t-63 -114.5t-98.5 -74t-128 -26t-124.5 26t-91.5 74t-56 114.5
t-19 147.5h120q0 -58 14 -104t38.5 -77.5t57.5 -48.5t71 -17z" />
    <glyph glyph-name="gbreve" unicode="&#x11f;" horiz-adv-x="1237" 
d="M454 -43q-30 -13 -64.5 -34.5t-63.5 -49.5t-48 -60t-19 -66q0 -35 21.5 -66.5t62 -55t99 -37t132.5 -13.5q83 0 152 17.5t118 48t76 71.5t27 88q0 40 -19.5 70t-52 49t-75.5 28.5t-91 9.5h-255zM321 -20q-27 8 -52 23t-43.5 35.5t-29.5 45t-11 51.5q0 32 15.5 61.5
t41 56.5t58 51t65.5 45q-94 51 -150.5 136.5t-56.5 194.5q0 95 42 169.5t107 125.5t143 78t149 27q30 0 61 -4.5t60 -12.5t54.5 -19t44.5 -23q17 9 42.5 16.5t52 12.5t52 7.5t42.5 2.5h192l-37 -131h-260q19 -16 36 -41t30.5 -56.5t21.5 -67t8 -72.5q0 -83 -39 -154.5
t-101 -124.5t-139 -83.5t-154 -30.5q-23 0 -48.5 2.5t-54.5 6.5q-21 -12 -43.5 -26.5t-41 -30.5t-30.5 -34.5t-12 -38.5q0 -16 8 -32t22.5 -29t36 -21t48.5 -8h298q76 0 139 -20.5t107.5 -55.5t69 -83t24.5 -102q0 -68 -39 -136.5t-110.5 -123.5t-172.5 -89t-226 -34
q-93 0 -172 20t-136.5 55.5t-90 83.5t-32.5 105q0 49 22.5 91t55 76.5t69 61t64.5 43.5zM300 696q0 -57 22 -106.5t59.5 -86.5t88.5 -58.5t109 -21.5q54 0 104.5 19t89 54t61.5 83.5t23 107.5q0 57 -22 106t-59.5 85t-88.5 57t-109 21q-55 0 -105 -18.5t-88.5 -52.5
t-61.5 -82t-23 -107zM581 1355q37 0 70.5 17t58 48.5t39 77.5t14.5 104h120q0 -81 -22.5 -147.5t-63 -114.5t-98.5 -74t-128 -26t-124.5 26t-91.5 74t-56 114.5t-19 147.5h120q0 -58 14 -104t38.5 -77.5t57.5 -48.5t71 -17z" />
    <glyph glyph-name="aring" unicode="&#xe5;" horiz-adv-x="1135" 
d="M764 159l-56 -51.5t-78.5 -59t-97 -48.5t-110.5 -20q-53 0 -105 20t-93.5 58t-67 94.5t-25.5 129.5q0 64 24.5 127t84.5 112.5t162 80t258 30.5h108v107q0 48 -16.5 86.5t-47 66t-72.5 42.5t-93 15q-36 0 -77.5 -7.5t-82 -21t-77.5 -32t-64 -40.5l-18 10l-32 117
q57 33 109.5 53.5t100 32t88.5 15.5t76 4q94 0 160.5 -23t108.5 -65t61 -101t19 -131v-534q0 -11 2 -29.5t9.5 -36.5t22 -31.5t39.5 -13.5q16 0 42 6t51 17v-92q-43 -29 -81 -47.5t-80 -18.5q-40 0 -67.5 17.5t-45.5 44t-27 58t-12 59.5zM768 518h-89q-126 0 -204 -18
t-121 -47.5t-58 -67t-15 -77.5q0 -43 12.5 -78.5t36.5 -61t58.5 -39.5t78.5 -14q30 0 63 8.5t69.5 28t78.5 52.5t90 82v232zM408 1458q0 -33 12 -60.5t31.5 -47t45 -30t51.5 -10.5q27 0 52.5 10.5t45.5 30t32 47t12 60.5t-12 60t-32 46.5t-45.5 30.5t-52.5 11
q-26 0 -51.5 -11t-45 -30.5t-31.5 -46.5t-12 -60zM295 1460q0 49 21 93t57 77.5t84.5 53.5t102.5 20t98.5 -20t76.5 -53.5t49.5 -78.5t17.5 -95q0 -49 -21 -93.5t-57 -78t-84.5 -53.5t-102.5 -20t-98.5 20t-76.5 54t-49.5 79t-17.5 95z" />
    <glyph glyph-name="ring" unicode="&#x2da;" horiz-adv-x="907" 
d="M313 1458q0 -33 12 -60.5t31.5 -47t45 -30t51.5 -10.5q27 0 52.5 10.5t45.5 30t32 47t12 60.5t-12 60t-32 46.5t-45.5 30.5t-52.5 11q-26 0 -51.5 -11t-45 -30.5t-31.5 -46.5t-12 -60zM200 1460q0 49 21 93t57 77.5t84.5 53.5t102.5 20t98.5 -20t76.5 -53.5t49.5 -78.5
t17.5 -95q0 -49 -21 -93.5t-57 -78t-84.5 -53.5t-102.5 -20t-98.5 20t-76.5 54t-49.5 79t-17.5 95z" />
    <glyph glyph-name="uring" unicode="&#x16f;" horiz-adv-x="1219" 
d="M1035 0h-114l-21 188q-36 -37 -80 -74t-94.5 -67t-106 -48.5t-115.5 -18.5q-68 0 -126.5 26t-101.5 74t-67.5 116.5t-24.5 153.5v710h143v-689q0 -63 17 -111t46.5 -80t70 -48.5t87.5 -16.5q85 0 170.5 49.5t173.5 137.5v758h143v-1060zM471 1458q0 -33 12 -60.5
t31.5 -47t45 -30t51.5 -10.5q27 0 52.5 10.5t45.5 30t32 47t12 60.5t-12 60t-32 46.5t-45.5 30.5t-52.5 11q-26 0 -51.5 -11t-45 -30.5t-31.5 -46.5t-12 -60zM358 1460q0 49 21 93t57 77.5t84.5 53.5t102.5 20t98.5 -20t76.5 -53.5t49.5 -78.5t17.5 -95q0 -49 -21 -93.5
t-57 -78t-84.5 -53.5t-102.5 -20t-98.5 20t-76.5 54t-49.5 79t-17.5 95z" />
    <glyph glyph-name="ordfeminine" unicode="&#xaa;" horiz-adv-x="1076" 
d="M683 701l-45.5 -40t-68 -52t-85 -45.5t-97.5 -19.5q-41 0 -83.5 15t-77.5 46.5t-57 79.5t-22 115q0 51 18 106t68 100t138 74t229 29h88v81q0 41 -14.5 74t-40.5 56.5t-62 36.5t-79 13q-31 0 -65.5 -6.5t-68.5 -17.5t-65 -27t-55 -34l-15 10l-27 100q48 29 91.5 47
t82.5 27.5t73 12.5t63 3q79 0 135.5 -17t92.5 -49.5t53 -79.5t17 -108v-472q0 -8 1.5 -24t7.5 -32t18.5 -28t34.5 -12q14 0 36.5 5.5t45.5 15.5v-83q-38 -26 -76 -41.5t-71 -15.5q-34 0 -55.5 15.5t-34 39t-18.5 51t-10 51.5zM688 1010h-68q-108 0 -176 -15t-106.5 -40
t-52 -56.5t-13.5 -65.5q0 -39 13 -70.5t35.5 -53.5t52.5 -34t65 -12q24 0 50 6.5t56 23t65.5 44.5t78.5 72v201z" />
    <glyph glyph-name="ordmasculine" unicode="&#xba;" horiz-adv-x="1183" 
d="M568 544q-97 0 -173.5 38t-129 101.5t-80.5 146t-28 171.5q0 103 35.5 191.5t97 153.5t144.5 102t179 37q98 0 175 -38.5t130 -102.5t80.5 -147t27.5 -171q0 -102 -36 -190.5t-98 -153t-145.5 -101.5t-178.5 -37zM586 659q66 0 123 28.5t99.5 76.5t66.5 111.5t24 133.5
q0 65 -21.5 129.5t-61.5 116t-96.5 83.5t-126.5 32q-66 0 -123 -28.5t-99 -77t-66 -112t-24 -133.5q0 -65 21 -129t61 -115.5t96 -83.5t127 -32z" />
    <glyph glyph-name="oslash" unicode="&#xf8;" horiz-adv-x="1279" 
d="M999 949q78 -76 119 -181t41 -221q0 -119 -42 -222.5t-115.5 -180t-173.5 -120.5t-215 -44q-71 0 -132.5 16.5t-114.5 47.5l-114 -164h-134l161 230q-78 75 -119 178.5t-41 221.5q0 119 42 223t116 181t174 121.5t216 44.5q71 0 132.5 -17t113.5 -47l115 164h133z
M269 536q0 -80 25.5 -157.5t75.5 -138.5l457 653q-40 26 -87.5 41t-101.5 15q-83 0 -150.5 -33.5t-116.5 -90.5t-75.5 -132t-26.5 -157zM640 111q84 0 152 34t116 91t74.5 131.5t26.5 155.5q0 80 -25.5 157.5t-75.5 137.5l-456 -652q39 -26 86 -40.5t102 -14.5z" />
    <glyph glyph-name="Oslash" unicode="&#xd8;" horiz-adv-x="1766" 
d="M1359 1321q55 -47 101 -106t78 -129t50 -151t18 -171q0 -112 -27 -213.5t-76.5 -188.5t-118 -157.5t-151 -120.5t-177 -77t-194.5 -27q-101 0 -195 26.5t-176 77.5l-144 -204h-121l184 262q-57 48 -103 107.5t-78.5 130t-50.5 151.5t-18 170q0 113 28 214.5t78.5 188.5
t120 157.5t152.5 120t177 76.5t193 27t193 -27t177 -79l145 206h121zM313 721q0 -144 49.5 -259.5t134.5 -196.5l696 992q-68 45 -146.5 69.5t-165.5 24.5q-125 0 -229.5 -49.5t-179.5 -135t-117 -200.5t-42 -245zM882 114q124 0 229 48t181 132t118.5 198t42.5 246
q0 143 -49 259.5t-133 197.5l-696 -991q67 -44 144.5 -67t162.5 -23z" />
    <glyph glyph-name="divide" unicode="&#xf7;" horiz-adv-x="1294" 
d="M1144 644v-105h-994v105h994zM649 871q-23 0 -42.5 9t-33.5 23.5t-22 33.5t-8 39q0 21 7.5 40.5t21.5 34.5t33 24t42 9t42 -9t33 -24.5t22 -35t8 -40.5q0 -20 -7.5 -38.5t-21 -33t-32.5 -23.5t-42 -9zM649 98q-23 0 -42.5 9t-33.5 24t-22 34t-8 39t7.5 39.5t21.5 34.5
t33 24.5t42 9.5t42 -9t33 -24.5t22 -35t8 -40.5q0 -20 -7.5 -38.5t-21 -33.5t-32.5 -24t-42 -9z" />
    <glyph glyph-name="multiply" unicode="&#xd7;" horiz-adv-x="1166" 
d="M584 659l321 321l73 -72l-322 -322l322 -319l-74 -75l-322 320l-321 -320l-73 71l321 321l-321 321l74 75z" />
    <glyph glyph-name="ccedilla" unicode="&#xe7;" horiz-adv-x="1045" 
d="M921 80q-40 -28 -95 -53t-123 -37q11 -16 17.5 -39t6.5 -56q0 -73 -31 -128t-81.5 -92.5t-114.5 -56.5t-130 -19v112q42 0 82 8.5t71.5 29t50.5 54.5t19 84q0 32 -7 54.5t-18 39.5q-99 6 -181.5 47t-142 109t-93 159.5t-33.5 200.5q0 127 45 234.5t121.5 184.5t178 120.5
t214.5 43.5q33 0 68 -3.5t68.5 -10.5t62 -17t47.5 -22l-34 -133l-23 -10q-21 14 -47.5 26t-56 20.5t-60.5 13.5t-61 5q-71 0 -138 -28.5t-119.5 -83t-84 -133.5t-31.5 -181q0 -101 31.5 -177.5t85 -127.5t123 -77t146.5 -26q54 0 125.5 14t141.5 48v-97z" />
    <glyph glyph-name="Ccedilla" unicode="&#xc7;" horiz-adv-x="1444" 
d="M1316 131q-41 -34 -85.5 -58.5t-90 -41t-90 -27t-84.5 -15.5q10 -16 16.5 -39t6.5 -55q0 -73 -31 -128t-81.5 -92.5t-114.5 -56.5t-130 -19v112q42 0 82 8.5t71.5 29t50.5 54.5t19 84q0 32 -7 54t-17 39q-138 3 -260 57.5t-213.5 150.5t-144.5 228.5t-53 291.5
q0 116 28.5 218.5t80 189t123.5 155t158 116t184 73t202 25.5q34 0 77.5 -3t93 -11t102.5 -21.5t106 -34.5l-28 -138l-20 -10q-51 24 -103 40.5t-100.5 26t-91 13.5t-75.5 4q-84 0 -160 -22.5t-141 -63t-117 -97.5t-89 -126t-57 -148t-20 -164q0 -75 16 -149.5t48.5 -143
t81 -127.5t113.5 -102t146 -68t179 -25q33 0 79.5 4t101.5 16t115.5 34.5t122.5 59.5v-98z" />
    <glyph glyph-name="eth" unicode="&#xf0;" horiz-adv-x="1289" 
d="M557 1376q-56 35 -120.5 66t-131.5 53l55 107q175 -63 323 -166l303 142l40 -78l-265 -122q77 -69 147.5 -152t124 -179.5t85 -206.5t31.5 -231q0 -139 -42 -254.5t-115 -199t-171.5 -129.5t-212.5 -46t-205 45.5t-154.5 119.5t-97 169t-33.5 194q0 115 43.5 219
t117 182.5t170 124.5t202.5 46q73 0 129 -20t101 -48l14 12q-24 43 -55 85t-65 79.5t-70 70.5t-70 59l-326 -151l-39 77zM999 576q0 63 -8 121.5t-21 113.5q-32 27 -67.5 52t-75.5 44t-85 30.5t-95 11.5q-84 0 -154 -32.5t-120.5 -88t-78.5 -129.5t-28 -158q0 -79 25 -156
t73 -138t117.5 -98.5t157.5 -37.5q77 0 143 31t114 90.5t75.5 146t27.5 197.5z" />
    <glyph glyph-name="Eth" unicode="&#xd0;" horiz-adv-x="1637" 
d="M230 785v680h469q194 0 340 -55.5t243.5 -150t146 -219.5t48.5 -263q0 -92 -22 -185.5t-66 -180t-111 -161.5t-157.5 -130.5t-204 -87.5t-251.5 -32h-435v680h-203v105h203zM376 785h408v-105h-408v-546h320q159 0 277 49t196 133t116.5 195t38.5 235q0 134 -44 242
t-128 184.5t-206.5 117.5t-279.5 41h-290v-546z" />
    <glyph glyph-name="Dcroat" unicode="&#x110;" horiz-adv-x="1637" 
d="M230 785v680h469q194 0 340 -55.5t243.5 -150t146 -219.5t48.5 -263q0 -92 -22 -185.5t-66 -180t-111 -161.5t-157.5 -130.5t-204 -87.5t-251.5 -32h-435v680h-203v105h203zM376 785h408v-105h-408v-546h320q159 0 277 49t196 133t116.5 195t38.5 235q0 134 -44 242
t-128 184.5t-206.5 117.5t-279.5 41h-290v-546z" />
    <glyph glyph-name="dcroat" unicode="&#x111;" horiz-adv-x="1277" 
d="M942 1340v262h143v-262h192v-83h-192v-1257h-113l-22 187q-33 -31 -75.5 -67t-94 -67t-112 -52t-127.5 -21q-97 0 -175 43.5t-133 116t-85 166t-30 194.5q0 127 46.5 233.5t127 183.5t189.5 120t235 43q67 0 124 -10.5t102 -21.5v209h-451v83h451zM942 896
q-84 35 -149 44t-102 9q-99 0 -177.5 -30.5t-133 -86.5t-83.5 -134t-29 -172q0 -83 22.5 -158t65 -131t103 -89t136.5 -33q91 0 176.5 47.5t170.5 135.5v598z" />
    <glyph glyph-name="dcaron" unicode="&#x10f;" horiz-adv-x="1440" 
d="M942 896q-84 35 -149 44t-102 9q-99 0 -177.5 -30.5t-133 -86.5t-83.5 -134t-29 -172q0 -83 22.5 -158t65 -131t103 -89t136.5 -33q91 0 176.5 47.5t170.5 135.5v598zM942 1602h143v-1602h-113l-22 187q-33 -31 -75.5 -67t-94 -67t-112 -52t-127.5 -21q-97 0 -175 43.5
t-133 116t-85 166t-30 194.5q0 127 46.5 233.5t127 183.5t189.5 120t235 43q67 0 124 -10.5t102 -21.5v554zM1228 1245q19 12 39.5 32t37.5 42t29 43.5t14 36.5q-8 7 -20 16t-26.5 16.5t-29 13.5t-27.5 9q-5 11 -7 24.5t-2 21.5q0 13 5 30.5t16 33.5t29 27t44 11t45.5 -11
t33 -29t20 -41t6.5 -46q0 -47 -22 -90t-51 -77t-57.5 -56t-41.5 -28z" />
    <glyph glyph-name="eogonek" unicode="&#x119;" horiz-adv-x="1147" 
d="M983 80q-53 -36 -132 -61q-103 -54 -155.5 -116t-52.5 -127q0 -49 29 -77t79 -28q19 0 42.5 4t46 10.5t42.5 14.5t32 16v-75q-42 -36 -92 -57.5t-102 -21.5q-42 0 -78.5 14.5t-63.5 40t-42 60t-15 73.5q0 67 40 125t103 107q-13 -1 -25 -1.5t-24 -0.5q-95 0 -184.5 33.5
t-159 100.5t-111.5 167t-42 234q0 132 41 237t109.5 177.5t156.5 111.5t181 39q84 0 159.5 -31t132.5 -88.5t90.5 -140t33.5 -185.5q0 -21 -2 -55.5t-7 -69.5h-745q0 -86 29 -158t83 -125t132 -82.5t176 -29.5q25 0 60.5 2.5t75.5 9.5t81.5 19t77.5 31v-97zM882 624
q0 81 -25 141.5t-66 101.5t-94 61.5t-110 20.5q-69 0 -127 -28t-100 -74t-66 -104.5t-26 -118.5h614z" />
    <glyph glyph-name="ogonek" unicode="&#x2db;" horiz-adv-x="785" 
d="M539 26q-109 -56 -165 -119.5t-56 -130.5q0 -49 29 -77t79 -28q19 0 42.5 4t46 10.5t42.5 14.5t32 16v-75q-42 -36 -92 -57.5t-102 -21.5q-42 0 -78.5 14.5t-63.5 40t-42 60t-15 73.5q0 45 19.5 86.5t52 78.5t76 70t91.5 61z" />
    <glyph glyph-name="kcommaaccent" unicode="&#x137;" horiz-adv-x="1127" 
d="M184 1602h143v-1602h-143v1602zM889 0l-493 572l459 488h168l-463 -473l513 -587h-184zM453 -463q19 12 39.5 32t37.5 42t29 43.5t14 36.5q-8 7 -20 16t-26.5 16.5t-29 13.5t-27.5 9q-5 11 -7 24.5t-2 21.5q0 13 5 30.5t16 33.5t29 27t44 11t45.5 -11t33 -29t20 -41
t6.5 -46q0 -47 -22 -90t-51 -77t-57.5 -56t-41.5 -28z" />
    <glyph glyph-name="Kcommaaccent" unicode="&#x136;" horiz-adv-x="1413" 
d="M376 0h-146v1465h146v-1465zM1142 0l-673 740l641 725h163l-635 -707l700 -758h-196zM598 -463q19 12 39.5 32t37.5 42t29 43.5t14 36.5q-8 7 -20 16t-26.5 16.5t-29 13.5t-27.5 9q-5 11 -7 24.5t-2 21.5q0 13 5 30.5t16 33.5t29 27t44 11t45.5 -11t33 -29t20 -41
t6.5 -46q0 -47 -22 -90t-51 -77t-57.5 -56t-41.5 -28z" />
    <glyph glyph-name="Aogonek" unicode="&#x104;" 
d="M1360 0h-88q-86 -51 -130 -107.5t-44 -116.5q0 -49 29 -77t79 -28q19 0 42.5 4t46 10.5t42.5 14.5t32 16v-75q-42 -36 -92 -57.5t-102 -21.5q-42 0 -78.5 14.5t-63.5 40t-42 60t-15 73.5q0 41 16 78.5t43.5 72t64.5 65.5t79 58l-141 396h-633l-150 -420h-155l549 1465
h162zM453 554h537l-213 600l-46 164h-20l-44 -164z" />
    <glyph glyph-name="ohungarumlaut" unicode="&#x151;" horiz-adv-x="1276" 
d="M612 -20q-116 0 -207.5 43.5t-155 116.5t-97.5 169t-34 201q0 119 42 223t116 181t174 121.5t216 44.5q117 0 208.5 -44t154.5 -118t96 -170.5t33 -200.5q0 -119 -42 -222.5t-115.5 -180t-173.5 -120.5t-215 -44zM639 111q84 0 152 34t116 91t74.5 131.5t26.5 155.5
q0 79 -25 155.5t-72.5 136.5t-116.5 97t-157 37q-83 0 -150.5 -33.5t-116.5 -90.5t-75.5 -132t-26.5 -157q0 -78 25 -154t72.5 -136.5t116.5 -97.5t157 -37zM743 1240l188 362h168l-254 -362h-102zM415 1240l188 362h168l-254 -362h-102z" />
    <glyph glyph-name="hungarumlaut" unicode="&#x2dd;" horiz-adv-x="1086" 
d="M528 1240l188 362h168l-254 -362h-102zM200 1240l188 362h168l-254 -362h-102z" />
    <glyph glyph-name="uhungarumlaut" unicode="&#x171;" horiz-adv-x="1219" 
d="M1035 0h-114l-21 188q-36 -37 -80 -74t-94.5 -67t-106 -48.5t-115.5 -18.5q-68 0 -126.5 26t-101.5 74t-67.5 116.5t-24.5 153.5v710h143v-689q0 -63 17 -111t46.5 -80t70 -48.5t87.5 -16.5q85 0 170.5 49.5t173.5 137.5v758h143v-1060zM677 1240l188 362h168l-254 -362
h-102zM349 1240l188 362h168l-254 -362h-102z" />
    <glyph glyph-name="lslash" unicode="&#x142;" horiz-adv-x="494" 
d="M320 761v-761h-143v653l-146 -110v109l146 110v840h143v-732l143 108v-109z" />
    <glyph glyph-name="Lslash" unicode="&#x141;" horiz-adv-x="1079" 
d="M696 972l-320 -240v-598h625l-27 -134h-744v623l-196 -147v109l196 147v733h146v-624l320 240v-109z" />
    <glyph glyph-name="lcaron" unicode="&#x13e;" horiz-adv-x="685" 
d="M183 1602h143v-1602h-143v1602zM472 1245q19 12 39.5 32t37.5 42t29 43.5t14 36.5q-8 7 -20 16t-26.5 16.5t-29 13.5t-27.5 9q-5 11 -7 24.5t-2 21.5q0 13 5 30.5t16 33.5t29 27t44 11t45.5 -11t33 -29t20 -41t6.5 -46q0 -47 -22 -90t-51 -77t-57.5 -56t-41.5 -28z" />
    <glyph glyph-name="tcaron" unicode="&#x165;" horiz-adv-x="933" 
d="M279 933h-216l13 77q76 15 120.5 35t71 54.5t42.5 88t36 135.5h83v-263h391l-36 -127h-362v-627q0 -105 52.5 -148t145.5 -43q43 0 93.5 8.5t93.5 25.5v-97q-59 -35 -118 -53.5t-120 -18.5t-114 19t-92 55t-61.5 87t-22.5 114v678zM591 1245q19 12 39.5 32t37.5 42
t29 43.5t14 36.5q-8 7 -20 16t-26.5 16.5t-29 13.5t-27.5 9q-5 11 -7 24.5t-2 21.5q0 13 5 30.5t16 33.5t29 27t44 11t45.5 -11t33 -29t20 -41t6.5 -46q0 -47 -22 -90t-51 -77t-57.5 -56t-41.5 -28z" />
    <glyph glyph-name="uni0162" unicode="&#x162;" horiz-adv-x="1274" 
d="M703 3q14 -14 24 -40.5t10 -67.5q0 -73 -31 -128t-81.5 -92.5t-114.5 -56.5t-130 -19v112q42 0 82 8.5t71.5 29t50.5 54.5t19 84q0 42 -11.5 67.5t-26.5 45.5h-8v1331h-507l27 134h1147l-27 -134h-494v-1328z" />
    <glyph glyph-name="uni0163" unicode="&#x163;" horiz-adv-x="933" 
d="M279 933h-216l13 77q76 15 120.5 35t71 54.5t42.5 88t36 135.5h83v-263h391l-36 -127h-362v-627q0 -105 52.5 -148t145.5 -43q43 0 93.5 8.5t93.5 25.5v-97q-36 -21 -72 -36.5t-72 -23.5q11 -16 18 -39.5t7 -57.5q0 -73 -31 -128t-81.5 -92.5t-114.5 -56.5t-130 -19v112
q42 0 82 8.5t71.5 29t50.5 54.5t19 84q0 32 -7 55.5t-18 40.5q-54 6 -99.5 27.5t-79 56.5t-52.5 82.5t-19 105.5v678z" />
    <glyph glyph-name="uogonek" unicode="&#x173;" horiz-adv-x="1263" 
d="M1035 0h-53q-86 -51 -130 -107.5t-44 -116.5q0 -49 29 -77t79 -28q19 0 42.5 4t46 10.5t42.5 14.5t32 16v-75q-42 -36 -92 -57.5t-102 -21.5q-42 0 -78.5 14.5t-63.5 40t-42 60t-15 73.5q0 44 18.5 84.5t50 77.5t73 69t88.5 60l-16 147q-36 -37 -80 -74t-94.5 -67
t-106 -48.5t-115.5 -18.5q-68 0 -126.5 26t-101.5 74t-67.5 116.5t-24.5 153.5v710h143v-689q0 -63 17 -111t46.5 -80t70 -48.5t87.5 -16.5q85 0 170.5 49.5t173.5 137.5v758h143v-1060z" />
    <glyph glyph-name="Uogonek" unicode="&#x172;" horiz-adv-x="1550" 
d="M366 1465v-903q0 -117 37 -201.5t97 -139.5t136 -81t153 -26q79 0 152.5 27t130.5 80.5t91 133.5t34 187v923h133v-917q0 -47 -10 -101t-31.5 -109t-55 -108t-79.5 -98.5t-105 -80.5t-132 -53q-85 -51 -128 -107t-43 -115q0 -49 29 -77t79 -28q19 0 42.5 4t46 10.5
t42.5 14.5t32 16v-75q-42 -36 -92 -57.5t-102 -21.5q-42 0 -78.5 14.5t-63.5 40t-42 60t-15 73.5q0 66 39.5 124t101.5 106q-118 0 -218 39.5t-172.5 114t-113.5 182t-41 244.5v905h146z" />
    <glyph glyph-name="iogonek" unicode="&#x12f;" horiz-adv-x="511" 
d="M289 0q-86 -51 -130 -107.5t-44 -116.5q0 -49 29 -77t79 -28q19 0 42.5 4t46 10.5t42.5 14.5t32 16v-75q-42 -36 -92 -57.5t-102 -21.5q-42 0 -78.5 14.5t-63.5 40t-42 60t-15 73.5t15 75.5t40.5 70t60.5 63.5t75 57v1044h143v-1060h-38zM151 1415q0 22 8 41t22.5 33
t33.5 22.5t40 8.5q22 0 41 -8.5t33 -22.5t22.5 -33t8.5 -41t-8.5 -41t-22.5 -33t-33 -22t-41 -8q-21 0 -40 8t-33.5 22t-22.5 33t-8 41z" />
    <glyph glyph-name="Iogonek" unicode="&#x12e;" horiz-adv-x="605" 
d="M376 0h-50q-86 -51 -130 -107.5t-44 -116.5q0 -49 29 -77t79 -28q19 0 42.5 4t46 10.5t42.5 14.5t32 16v-75q-42 -36 -92 -57.5t-102 -21.5q-42 0 -78.5 14.5t-63.5 40t-42 60t-15 73.5q0 40 15.5 77.5t42.5 72t63.5 65t78.5 57.5v1443h146v-1465z" />
    <glyph glyph-name="Eogonek" unicode="&#x118;" horiz-adv-x="1222" 
d="M992 0q-86 -51 -130 -107.5t-44 -116.5q0 -49 29 -77t79 -28q19 0 42.5 4t46 10.5t42.5 14.5t32 16v-75q-42 -36 -92 -57.5t-102 -21.5q-42 0 -78.5 14.5t-63.5 40t-42 60t-15 73.5q0 36 12.5 70t35 65.5t53.5 60t67 54.5h-634v1465h829l-27 -134h-656v-500h589l-29 -134
h-560v-563h702l-27 -134h-59z" />
    <glyph glyph-name="OE" unicode="&#x152;" horiz-adv-x="2253" 
d="M1282 0q-35 0 -87 -3t-109 -7t-112 -7t-95 -3q-149 0 -280 52t-228.5 147t-154 228.5t-56.5 295.5q0 111 27.5 212.5t77.5 188t120 157t156 120.5t185 77t207 27q39 0 86 -3t94.5 -7t90.5 -7t74 -3h823l-27 -134h-656v-500h589l-29 -134h-560v-563h702l-27 -134h-811z
M919 114q26 0 66 1.5t87.5 4t99 6t100.5 8.5v1199q-40 3 -91.5 6.5t-102.5 6t-96 4t-72 1.5q-146 0 -257.5 -54t-187 -142t-114 -200t-38.5 -229q0 -78 16 -153.5t48.5 -143.5t82 -126t117 -100t153 -65.5t189.5 -23.5z" />
    <glyph glyph-name="oe" unicode="&#x153;" horiz-adv-x="2037" 
d="M1873 80q-33 -23 -77.5 -41t-94 -31.5t-100 -20.5t-94.5 -7q-67 0 -131 17t-121 51.5t-104 85.5t-80 119q-37 -63 -86.5 -114t-108.5 -86t-126.5 -54t-140.5 -19q-114 0 -204.5 43.5t-154.5 116t-98 168.5t-34 201q0 119 42.5 223t116 181.5t173 122t213.5 44.5
q75 0 138.5 -19.5t117 -55t95.5 -84.5t73 -108q34 65 79.5 115t98.5 83.5t112 51t121 17.5q82 0 157 -31t132 -88.5t91 -140t34 -185.5q0 -21 -2 -55.5t-7 -69.5h-745q0 -86 29 -158t83 -125t131.5 -82.5t175.5 -29.5q25 0 61 2.5t76 9.5t81.5 19t77.5 31v-97zM639 111
q84 0 152 34t116 91t74.5 131.5t26.5 155.5q0 79 -25 155.5t-72.5 136.5t-116.5 97t-156 37q-83 0 -151 -33.5t-117 -90.5t-75.5 -131.5t-26.5 -156.5q0 -78 25 -154.5t72.5 -137t116.5 -97.5t157 -37zM1772 624q0 81 -25 141.5t-66 101.5t-94 61.5t-110 20.5
q-69 0 -127 -28t-100 -74t-66 -104.5t-26 -118.5h614z" />
    <glyph glyph-name="AE" unicode="&#xc6;" horiz-adv-x="1908" 
d="M1008 0l-42 420h-579l-228 -420h-159l821 1465h884l-27 -134h-654l49 -500h580l-29 -134h-538l55 -563h634l-27 -134h-740zM459 554h494l-75 764h-18l-75 -164z" />
    <glyph glyph-name="summation" unicode="&#x2211;" horiz-adv-x="1458" 
d="M381 -21h902l-26 -134h-1095v62l599 748l-599 748v62h1121l-26 -134h-866l513 -643v-54z" />
    <glyph glyph-name="product" unicode="&#x220f;" horiz-adv-x="1728" 
d="M212 1465h1304v-134h-231v-1491h-143v1491h-554v-1491h-144v1491h-232v134z" />
    <glyph glyph-name="lozenge" unicode="&#x25ca;" horiz-adv-x="1269" 
d="M634 1353l-343 -621l343 -618l345 618zM579 1465h111l409 -733l-409 -732h-111l-409 732z" />
    <glyph glyph-name="radical" unicode="&#x221a;" horiz-adv-x="1390" 
d="M795 -208h-136l-324 948l-185 -40v109l279 62l202 -612l87 -298h20l58 297l312 1344h132z" />
    <glyph glyph-name="lacute" unicode="&#x13a;" horiz-adv-x="507" 
d="M170 1697l210 256h188l-275 -256h-123zM185 1602h137v-1602h-137v1602z" />
    <glyph glyph-name="scaron" unicode="&#x161;" horiz-adv-x="979" 
d="M157 177l18 12q38 -21 79 -35.5t81 -24t77.5 -14t68.5 -4.5q52 0 96 12t76 34.5t50 54.5t18 71q0 47 -24.5 78t-64.5 52.5t-91.5 37l-105 31.5t-105 36t-91.5 50t-64.5 73.5t-24.5 107.5q0 68 29 128t81.5 105t124.5 71.5t159 26.5q25 0 57.5 -2.5t68.5 -7.5t74.5 -13
t74.5 -20l-36 -131l-18 -12q-26 12 -58 22.5t-65 17.5t-66 11t-61 4q-51 0 -93.5 -12.5t-73 -35t-48 -53.5t-17.5 -68q0 -45 24.5 -75.5t65 -52t92 -37.5l105.5 -32.5t105.5 -37.5t92 -52t65 -75.5t24.5 -108.5q0 -75 -33.5 -136t-90 -103.5t-130.5 -66t-154 -23.5
q-70 0 -156.5 18t-168.5 52zM806 1602l-224 -362h-151l-223 362h110l191 -254l192 254h105z" />
    <glyph glyph-name="cedilla" unicode="&#xb8;" horiz-adv-x="694" 
d="M470 6q14 -14 25.5 -41t11.5 -70q0 -73 -31 -128t-81.5 -92.5t-114.5 -56.5t-130 -19v112q42 0 82 8.5t71.5 29t50.5 54.5t19 84q0 44 -13 71.5t-29 47.5h139z" />
    <glyph glyph-name="Lcaron" unicode="&#x13d;" horiz-adv-x="1079" 
d="M230 0v1465h146v-1331h625l-27 -134h-744zM650 1245q19 12 39.5 32t37.5 42t29 43.5t14 36.5q-8 7 -20 16t-26.5 16.5t-29 13.5t-27.5 9q-5 11 -7 24.5t-2 21.5q0 13 5 30.5t16 33.5t29 27t44 11t45.5 -11t33 -29t20 -41t6.5 -46q0 -47 -22 -90t-51 -77t-57.5 -56
t-41.5 -28z" />
    <glyph glyph-name="partialdiff" unicode="&#x2202;" horiz-adv-x="1342" 
d="M285 1341q34 31 77.5 57.5t93 45.5t104 30t110.5 11q102 0 188.5 -44.5t149.5 -132.5t98.5 -220t35.5 -306q0 -186 -44.5 -335t-119.5 -252.5t-172.5 -159t-203.5 -55.5q-95 0 -168 40t-122.5 103.5t-74.5 142.5t-25 158q0 102 40 189.5t105 152t146.5 101.5t164.5 37
q52 0 101 -14.5t90.5 -39t74.5 -57t55 -69.5h20q1 12 1 27.5v32.5q0 150 -29 258t-79.5 178t-119 103.5t-146.5 33.5q-47 0 -95 -9t-93.5 -24.5t-87.5 -37.5t-75 -48v103zM617 115q73 0 138 37t115 100t82 146.5t41 176.5q-15 41 -46.5 77t-73.5 62.5t-92 41.5t-102 15
q-71 0 -131.5 -27.5t-105 -75t-70 -111.5t-25.5 -136q0 -63 20 -118.5t55.5 -97t85 -66t109.5 -24.5z" />
    <glyph glyph-name="integral" unicode="&#x222b;" horiz-adv-x="754" 
d="M716 1475q-17 5 -41.5 10.5t-50.5 5.5q-46 0 -76 -24.5t-48 -64t-26.5 -88t-11 -96.5t-2 -89.5t0.5 -67.5l-1 -1060q0 -58 -3.5 -122t-15 -125.5t-32 -118t-53.5 -99t-81.5 -67.5t-114.5 -25q-15 0 -33.5 1.5t-36 4t-32 5.5t-21.5 5l24 129q8 -3 20.5 -5.5t26 -4.5
t26.5 -3t24 -1q47 0 78 23t49.5 60t27 83.5t11.5 93.5t2 91t-1 75l1 1067q0 63 4.5 129t17 127.5t34.5 115.5t57.5 94.5t86 64t119.5 23.5q10 0 22.5 -0.5t25.5 -2.5t26 -5.5t23 -9.5z" />
    <glyph glyph-name="estimated" unicode="&#x212e;" horiz-adv-x="2116" 
d="M524 730q-12 0 -12 -10v-422q0 -15 6.5 -26t17.5 -22q48 -53 106.5 -95t126 -71.5t142 -45.5t153.5 -16q82 0 160 18t148 51t131 80t111 105h128q-59 -67 -134 -122t-162 -94.5t-184 -61.5t-200 -22q-119 0 -229 27.5t-206 78t-174.5 121.5t-134.5 156.5t-87 184
t-31 204.5t31 205t87 185.5t134.5 157.5t174.5 121.5t206 78.5t229 28q117 0 226 -28t204 -78.5t173 -121.5t134 -157.5t86.5 -185.5t30.5 -205v-18h-1392zM1606 1206q0 34 -22 50q-49 51 -108 91.5t-125.5 69t-139 44t-147.5 15.5q-79 0 -152.5 -16t-140.5 -45.5
t-126 -70.5t-109 -92q-11 -12 -17.5 -24t-6.5 -32v-412q0 -12 12 -12h1070q12 0 12 12v422z" />
    <glyph glyph-name="macron" unicode="&#xaf;" horiz-adv-x="914" 
d="M200 1345h514v-105h-514v105z" />
    <glyph glyph-name="endash" unicode="&#x2013;" horiz-adv-x="1037" 
d="M987 644v-105h-937v105h937z" />
    <glyph glyph-name="uni00A0" unicode="&#xa0;" horiz-adv-x="452" 
 />
    <glyph glyph-name="pi" unicode="&#x3c0;" horiz-adv-x="1597" 
d="M1049 929h-500v-929h-137v929h-206v131h1186v-131h-205v-929h-138v929z" />
    <glyph glyph-name="logicalnot" unicode="&#xac;" 
d="M1260 748v-499h-103v394h-1007v105h1110z" />
    <glyph glyph-name="paragraph" unicode="&#xb6;" horiz-adv-x="1324" 
d="M661 587q-111 0 -200.5 31t-152.5 88.5t-97 138.5t-34 180q0 93 31.5 173.5t99.5 139.5t174.5 93t255.5 34h341v-2001h-103v1871h-211v-1871h-104v1123z" />
    <glyph glyph-name="plus" unicode="+" horiz-adv-x="1294" 
d="M596 644v458h102v-458h446v-105h-446v-458h-102v458h-446v105h446z" />
    <glyph glyph-name="numbersign" unicode="#" horiz-adv-x="1782" 
d="M465 380h-313l18 92h311l98 520h-313l19 93h311l71 380h107l-71 -380h505l71 380h108l-71 -380h313l-18 -93h-312l-98 -520h314l-18 -92h-312l-70 -380h-108l70 380h-505l-70 -380h-107zM589 472h505l97 520h-505z" />
    <glyph glyph-name="bracketright" unicode="]" horiz-adv-x="874" 
d="M621 -358h-486v105h386v1750h-386v105h486v-1960z" />
    <glyph glyph-name="backslash" unicode="\" horiz-adv-x="885" 
d="M780 -308h-122l-541 1910h122z" />
    <glyph glyph-name="uni2113" unicode="&#x2113;" horiz-adv-x="1116" 
d="M438 586q54 51 111.5 119.5t105 146t78.5 160.5t31 163q0 46 -10.5 79t-27.5 55t-39.5 32.5t-46.5 10.5q-63 0 -109.5 -68.5t-56.5 -206.5zM847 109q-26 -27 -56.5 -50.5t-66 -41.5t-77 -28t-89.5 -10q-80 0 -134 28t-86 78t-44.5 118t-7.5 148l-111 -73l-45 80l169 117
l38 550q9 123 39 210.5t74 143t99.5 81t114.5 25.5q55 0 101 -20t79.5 -56t52.5 -86t19 -111q0 -72 -21.5 -144.5t-58 -143t-85 -137.5t-102.5 -128t-110.5 -115t-108.5 -98q-8 -105 2.5 -170t34 -102t58.5 -50t77 -13q72 0 131.5 28t113.5 72v-102z" />
    <glyph glyph-name="uni2206" unicode="&#x2206;" horiz-adv-x="1573" 
d="M177 62l551 1403h119l549 -1403v-62h-1219v62zM791 1282h-19l-58 -181l-368 -967h870l-367 967z" />
    <glyph glyph-name="uni0218" unicode="&#x218;" horiz-adv-x="1229" 
d="M588 114q74 0 136 20t106.5 55.5t69.5 85t25 108.5q0 67 -31 114t-82 82t-116.5 62l-133.5 54.5t-133.5 59t-116.5 76t-82 106t-31 147.5q0 91 35 165t97.5 126.5t147.5 81t184 28.5q63 0 157 -14t205 -49l-25 -138l-21 -10q-56 23 -109 38t-99 23.5t-83.5 12t-64.5 3.5
q-68 0 -121 -17.5t-89.5 -49.5t-55.5 -76t-19 -96q0 -70 31.5 -119.5t83 -86.5t117 -65.5l134 -56.5t134 -59t117 -73.5t83 -100t31.5 -137.5q0 -86 -37.5 -164.5t-105.5 -138.5t-163.5 -95.5t-210.5 -35.5q-99 0 -200 26.5t-207 74.5l25 139l19 10q48 -28 99 -49.5
t102.5 -36.5t101.5 -22.5t96 -7.5zM488 -463q19 12 39.5 32t37.5 42t29 43.5t14 36.5q-8 7 -20 16t-26.5 16.5t-29 13.5t-27.5 9q-5 11 -7 24.5t-2 21.5q0 13 5 30.5t16 33.5t29 27t44 11t45.5 -11t33 -29t20 -41t6.5 -46q0 -47 -22 -90t-51 -77t-57.5 -56t-41.5 -28z" />
    <glyph glyph-name="uni0219" unicode="&#x219;" horiz-adv-x="979" 
d="M157 177l18 12q38 -21 79 -35.5t81 -24t77.5 -14t68.5 -4.5q52 0 96 12t76 34.5t50 54.5t18 71q0 47 -24.5 78t-64.5 52.5t-91.5 37l-105 31.5t-105 36t-91.5 50t-64.5 73.5t-24.5 107.5q0 68 29 128t81.5 105t124.5 71.5t159 26.5q25 0 57.5 -2.5t68.5 -7.5t74.5 -13
t74.5 -20l-36 -131l-18 -12q-26 12 -58 22.5t-65 17.5t-66 11t-61 4q-51 0 -93.5 -12.5t-73 -35t-48 -53.5t-17.5 -68q0 -45 24.5 -75.5t65 -52t92 -37.5l105.5 -32.5t105.5 -37.5t92 -52t65 -75.5t24.5 -108.5q0 -75 -33.5 -136t-90 -103.5t-130.5 -66t-154 -23.5
q-70 0 -156.5 18t-168.5 52zM359 -463q19 12 39.5 32t37.5 42t29 43.5t14 36.5q-8 7 -20 16t-26.5 16.5t-29 13.5t-27.5 9q-5 11 -7 24.5t-2 21.5q0 13 5 30.5t16 33.5t29 27t44 11t45.5 -11t33 -29t20 -41t6.5 -46q0 -47 -22 -90t-51 -77t-57.5 -56t-41.5 -28z" />
    <glyph glyph-name="uni015E" unicode="&#x15e;" horiz-adv-x="1229" 
d="M588 114q74 0 136 20t106.5 55.5t69.5 85t25 108.5q0 67 -31 114t-82 82t-116.5 62l-133.5 54.5t-133.5 59t-116.5 76t-82 106t-31 147.5q0 91 35 165t97.5 126.5t147.5 81t184 28.5q63 0 157 -14t205 -49l-25 -138l-21 -10q-56 23 -109 38t-99 23.5t-83.5 12t-64.5 3.5
q-68 0 -121 -17.5t-89.5 -49.5t-55.5 -76t-19 -96q0 -70 31.5 -119.5t83 -86.5t117 -65.5l134 -56.5t134 -59t117 -73.5t83 -100t31.5 -137.5q0 -72 -26.5 -139.5t-75.5 -123t-118.5 -96t-154.5 -59.5q11 -16 19.5 -40.5t8.5 -60.5q0 -73 -31 -128t-81.5 -92.5t-114.5 -56.5
t-130 -19v112q42 0 82 8.5t71.5 29t50.5 54.5t19 84q0 32 -7 54.5t-17 39.5q-3 0 -6 -0.5t-6 -0.5q-99 0 -200 26.5t-207 74.5l25 139l19 10q48 -28 99 -49.5t102.5 -36.5t101.5 -22.5t96 -7.5z" />
    <glyph glyph-name="uni015F" unicode="&#x15f;" horiz-adv-x="979" 
d="M157 177l18 12q38 -21 79 -35.5t81 -24t77.5 -14t68.5 -4.5q52 0 96 12t76 34.5t50 54.5t18 71q0 47 -24.5 78t-64.5 52.5t-91.5 37l-105 31.5t-105 36t-91.5 50t-64.5 73.5t-24.5 107.5q0 68 29 128t81.5 105t124.5 71.5t159 26.5q25 0 57.5 -2.5t68.5 -7.5t74.5 -13
t74.5 -20l-36 -131l-18 -12q-26 12 -58 22.5t-65 17.5t-66 11t-61 4q-51 0 -93.5 -12.5t-73 -35t-48 -53.5t-17.5 -68q0 -45 24.5 -75.5t65 -52t92 -37.5l105.5 -32.5t105.5 -37.5t92 -52t65 -75.5t24.5 -108.5q0 -58 -20.5 -107.5t-56 -89t-84 -68t-105.5 -44.5
q13 -15 22.5 -40.5t9.5 -64.5q0 -73 -31 -128t-81.5 -92.5t-114.5 -56.5t-130 -19v112q42 0 82 8.5t71.5 29t50.5 54.5t19 84q0 32 -7 54t-17 39h-16q-70 0 -156.5 18t-168.5 52z" />
    <glyph glyph-name="asciicircum" unicode="^" horiz-adv-x="1074" 
d="M585 1465l364 -800h-116l-296 654l-296 -654h-116l364 800h96z" />
    <glyph glyph-name="asterisk" unicode="*" horiz-adv-x="1037" 
d="M432 1027l-8 16l-334 -15l13 109l321 -13l7 16l-190 298l112 40l159 -296h20l154 296l113 -42l-193 -298l8 -16l333 13l-13 -108l-322 15l-8 -16l192 -301l-115 -36l-156 295h-20l-149 -298l-116 40z" />
    <glyph glyph-name="uni20BA" unicode="&#x20ba;" horiz-adv-x="1441" 
d="M640 717v-583q102 0 188 38.5t148.5 104t97.5 153t35 186.5h120q0 -117 -42.5 -227.5t-121 -197t-189.5 -139t-247 -52.5h-133v657l-284 -118v119l812 338v-118zM496 1065v400h144v-340l384 160v-119l-812 -338v118z" />
    <glyph glyph-name="uni20BD" unicode="&#x20bd;" horiz-adv-x="1513" 
d="M213 698h219v767h358q111 0 203.5 -31t159 -86.5t103.5 -132.5t37 -168q0 -97 -40.5 -181.5t-110.5 -147t-162.5 -98.5t-196.5 -36h-570v114zM576 698h206q88 0 155.5 24.5t112.5 68.5t68 103.5t23 130.5q0 149 -100 227.5t-294 78.5h-171v-633zM212 424h862v-115h-498
v-309h-144v309h-220v115z" />
    <glyph glyph-name="uni00AD" unicode="&#xad;" horiz-adv-x="987" 
d="M837 644v-105h-687v105h687z" />
    <glyph glyph-name="onehalf" unicode="&#xbd;" horiz-adv-x="2010" 
d="M1256 1465h123l-778 -1465h-122zM402 514v780h-270v63q63 0 113.5 7t90.5 21t71.5 34t56.5 46h61v-951h-123zM1242 41q134 130 221.5 230.5t138.5 179.5t71.5 140t20.5 113q0 43 -15 73.5t-39.5 49.5t-56 27.5t-63.5 8.5q-28 0 -58.5 -5.5t-60.5 -14.5t-58.5 -21
t-51.5 -25v79q57 48 127.5 71.5t138.5 23.5q55 0 103.5 -16t84.5 -46.5t57 -76t21 -104.5q0 -61 -22.5 -128.5t-72 -145t-129 -167t-193.5 -193.5h449l-17 -94h-596v41z" />
    <glyph glyph-name="threequarters" unicode="&#xbe;" horiz-adv-x="2036" 
d="M1330 1465h123l-778 -1465h-122zM1164 346l400 605h150v-578h162l-26 -89h-136v-284h-123v284h-427v62zM1591 373v327l6 142h-11l-71 -132l-220 -337h296zM686 1293q0 -59 -47.5 -120.5t-157.5 -119.5v-5q55 -11 97 -34t70.5 -54t43 -67.5t14.5 -75.5q0 -33 -11 -68
t-37 -68.5t-68 -64t-103 -53t-143.5 -36t-188.5 -13.5v94q114 0 194 16t130.5 43.5t73.5 64t23 78.5q0 44 -22.5 78t-59.5 55.5t-84.5 31t-97.5 4.5v84l73.5 26.5t81 38.5t65.5 55t27 77q0 33 -14.5 55.5t-37.5 36t-51.5 19.5t-56.5 6t-59.5 -5t-62.5 -14.5t-60 -22
t-52 -27.5v78q54 46 121.5 72.5t142.5 26.5q57 0 104 -15t81 -41t53 -61t19 -75z" />
    <glyph glyph-name="fraction" unicode="&#x2044;" horiz-adv-x="969" 
d="M815 1465h116l-777 -1465h-117z" />
    <glyph glyph-name="emdash" unicode="&#x2014;" horiz-adv-x="2107" 
d="M2057 644v-105h-2007v105h2007z" />
    <glyph glyph-name="quotesinglbase" unicode="&#x201a;" horiz-adv-x="549" 
d="M130 -317q31 33 59 71.5t51 77.5t38.5 76t21.5 66q-10 9 -25 18.5t-32.5 18.5t-35 16.5t-33.5 10.5q-7 10 -9.5 27t-2.5 27q0 16 6.5 37.5t20.5 40t36.5 31.5t54.5 13q23 0 46 -9t41.5 -28.5t30 -51t11.5 -77.5q0 -44 -14.5 -92.5t-43.5 -100t-73.5 -103.5t-104.5 -102z
" />
    <glyph glyph-name="quotedblright" unicode="&#x201d;" horiz-adv-x="923" 
d="M130 1081q31 33 59 71.5t51 77.5t38.5 76t21.5 66q-10 9 -25 18.5t-32.5 18.5t-35 16.5t-33.5 10.5q-7 10 -9.5 27t-2.5 27q0 16 6.5 37.5t20.5 40t36.5 31.5t54.5 13q23 0 46 -9t41.5 -28.5t30 -51t11.5 -77.5q0 -44 -14.5 -92.5t-43.5 -100t-73.5 -103.5t-104.5 -102z
M504 1081q31 33 59 71.5t51 77.5t38.5 76t21.5 66q-10 9 -25 18.5t-32.5 18.5t-35 16.5t-33.5 10.5q-7 10 -9.5 27t-2.5 27q0 16 6.5 37.5t20.5 40t36.5 31.5t54.5 13q23 0 46 -9t41.5 -28.5t30 -51t11.5 -77.5q0 -44 -14.5 -92.5t-43.5 -100t-73.5 -103.5t-104.5 -102z" />
    <glyph glyph-name="minus" unicode="&#x2212;" horiz-adv-x="1150" 
d="M1000 644v-105h-850v105h850z" />
    <glyph glyph-name="uni2215" unicode="&#x2215;" horiz-adv-x="969" 
d="M815 1465h116l-777 -1465h-117z" />
    <glyph glyph-name="uni2219" unicode="&#x2219;" horiz-adv-x="575" 
d="M161 554q0 24 9 45.5t25 37.5t37.5 25t45.5 9t45.5 -9t37.5 -25t25 -37.5t9 -45.5t-9 -45.5t-25 -37.5t-37.5 -25t-45.5 -9t-45.5 9t-37.5 25t-25 37.5t-9 45.5z" />
    <glyph glyph-name="f_i" unicode="&#xfb01;" horiz-adv-x="1286" 
d="M279 933h-216l13 77l202 50v58q0 107 35.5 199t99.5 160t153.5 106.5t198.5 38.5q60 0 110.5 -11t90 -27t68.5 -34t46 -31l-40 -106l-20 -10q-22 15 -48 31t-58.5 28.5t-73.5 20.5t-92 8q-91 0 -153.5 -27.5t-100.5 -73t-55 -105.5t-17 -125v-100h329l-37 -127l-292 1
v-934h-143v933zM958 1060h143v-1060h-143v1060z" />
    <glyph glyph-name="f_l" unicode="&#xfb02;" horiz-adv-x="1338" 
d="M279 933h-216l13 77l202 50v58q0 101 29 192.5t83 160.5t131.5 110t173.5 41q42 0 83.5 -8t82.5 -23l-34 -124l-20 -10q-32 17 -65.5 25.5t-69.5 8.5q-64 0 -111 -26t-78 -70t-46 -102.5t-15 -122.5v-110h376l-36 -127h-340v-933h-143v933zM1010 1602h143v-1602h-143
v1602z" />
    <glyph glyph-name="mu" unicode="&#x3bc;" horiz-adv-x="1184" 
d="M322 1060v-689q0 -63 17 -111t46.5 -80t70 -48.5t87.5 -16.5q85 0 170.5 49.5t173.5 137.5v758h143v-1060h-114l-21 188q-36 -37 -80 -74t-94.5 -67t-106 -48.5t-115.5 -18.5q-100 0 -177 54v-570h-143v1596h143z" />
    <glyph glyph-name="Omega" unicode="&#x3a9;" horiz-adv-x="2009" 
d="M1111 0v62q59 39 115.5 86t107 100.5t93 114t73.5 126t48 135.5t17 144q0 112 -40.5 217t-115 186.5t-180.5 130.5t-237 49q-126 0 -230 -45.5t-177.5 -123t-114 -179.5t-40.5 -214q0 -117 41.5 -229t108 -208.5t150.5 -171.5t169 -118v-62h-674l27 134h342v20
q-62 45 -119 109.5t-101 144.5t-70.5 174t-26.5 198q0 154 59 283.5t160 223t234.5 146t283.5 52.5q152 0 280.5 -52.5t222.5 -142.5t146.5 -209.5t52.5 -252.5q0 -74 -15.5 -144t-42 -135t-61 -123.5t-71.5 -108.5t-74.5 -91.5t-70.5 -71.5v-20h388l-25 -134h-633z" />
    <glyph glyph-name="grave.cap" horiz-adv-x="787" 
d="M476 1602l-273 316h176l208 -316h-111z" />
    <glyph glyph-name="dieresis.cap" horiz-adv-x="979" 
d="M210 1701q0 42 28 70t67 28q42 0 70 -29t28 -72q0 -42 -28 -69t-69 -27q-20 0 -37.5 7.5t-30.5 21t-20.5 31.5t-7.5 39zM573 1701q0 42 28 70t68 28q21 0 39 -8t31.5 -21.5t21 -32t7.5 -39.5t-8 -38.5t-21 -30t-31 -20t-37 -7.5q-21 0 -38.5 7.5t-31 21t-21 31.5t-7.5 39
z" />
    <glyph glyph-name="macron.cap" horiz-adv-x="914" 
d="M200 1707h514v-105h-514v105z" />
    <glyph glyph-name="acute.cap" horiz-adv-x="788" 
d="M200 1602l208 316h176l-273 -316h-111z" />
    <glyph glyph-name="circumflex.cap" horiz-adv-x="1005" 
d="M200 1602l227 316h151l227 -316h-114l-191 218l-191 -218h-109z" />
    <glyph glyph-name="caron.cap" horiz-adv-x="998" 
d="M798 1918l-224 -316h-151l-223 316h111l190 -205l191 205h106z" />
    <glyph glyph-name="breve.cap" horiz-adv-x="1003" 
d="M501 1717q37 0 70.5 15t58 41.5t39 63.5t14.5 81h120q0 -67 -22.5 -124.5t-63 -100t-98.5 -67t-128 -24.5t-124.5 24t-91.5 66.5t-56 100.5t-19 125h120q0 -44 14 -81t38.5 -63.5t57.5 -41.5t71 -15z" />
    <glyph glyph-name="dotaccent.cap" horiz-adv-x="606" 
d="M202 1700q0 42 28.5 71t70.5 29t71 -29t29 -71t-29 -70.5t-71 -28.5t-70.5 28.5t-28.5 70.5z" />
    <glyph glyph-name="ring.cap" horiz-adv-x="907" 
d="M313 1711q0 -33 12 -60.5t31.5 -47t45 -30t51.5 -10.5q27 0 52.5 10.5t45.5 30t32 47t12 60.5t-12 60t-32 46.5t-45.5 30.5t-52.5 11q-26 0 -51.5 -11t-45 -30.5t-31.5 -46.5t-12 -60zM200 1713q0 49 21 93t57 77.5t84.5 53.5t102.5 20t98.5 -20t76.5 -53.5t49.5 -78.5
t17.5 -95q0 -49 -21 -93.5t-57 -78t-84.5 -53.5t-102.5 -20t-98.5 20t-76.5 54t-49.5 79t-17.5 95z" />
    <glyph glyph-name="tilde.cap" horiz-adv-x="1161" 
d="M725 1602q-40 0 -71 12t-56.5 29.5t-46.5 38.5t-41.5 38.5t-42 29.5t-46.5 12q-22 0 -42 -10t-35.5 -30t-24.5 -50t-9 -70h-110q0 81 24 133t60 82.5t77 42t74 11.5q39 0 69.5 -12t55.5 -29.5t46.5 -38.5t42 -38.5t42 -29.5t47.5 -12q46 0 79.5 40.5t33.5 119.5h110
q0 -81 -24 -133t-59.5 -82.5t-77 -42t-75.5 -11.5z" />
    <glyph glyph-name="hungarumlaut.cap" horiz-adv-x="1061" 
d="M528 1602l163 316h170l-229 -316h-104zM200 1602l163 316h170l-229 -316h-104z" />
    <glyph glyph-name="Agrave" unicode="&#xc0;" 
d="M1360 0h-172l-150 420h-633l-150 -420h-155l549 1465h162zM453 554h537l-213 600l-46 164h-20l-44 -164zM679 1602l-273 316h176l208 -316h-111z" />
    <glyph glyph-name="Aacute" unicode="&#xc1;" 
d="M1360 0h-172l-150 420h-633l-150 -420h-155l549 1465h162zM453 554h537l-213 600l-46 164h-20l-44 -164zM653 1602l208 316h176l-273 -316h-111z" />
    <glyph glyph-name="Acircumflex" unicode="&#xc2;" 
d="M1360 0h-172l-150 420h-633l-150 -420h-155l549 1465h162zM453 554h537l-213 600l-46 164h-20l-44 -164zM416 1602l227 316h151l227 -316h-114l-191 218l-191 -218h-109z" />
    <glyph glyph-name="Atilde" unicode="&#xc3;" 
d="M1360 0h-172l-150 420h-633l-150 -420h-155l549 1465h162zM453 554h537l-213 600l-46 164h-20l-44 -164zM865 1602q-40 0 -71 12t-56.5 29.5t-46.5 38.5t-41.5 38.5t-42 29.5t-46.5 12q-22 0 -42 -10t-35.5 -30t-24.5 -50t-9 -70h-110q0 81 24 133t60 82.5t77 42t74 11.5
q39 0 69.5 -12t55.5 -29.5t46.5 -38.5t42 -38.5t42 -29.5t47.5 -12q46 0 79.5 40.5t33.5 119.5h110q0 -81 -24 -133t-59.5 -82.5t-77 -42t-75.5 -11.5z" />
    <glyph glyph-name="Adieresis" unicode="&#xc4;" 
d="M1360 0h-172l-150 420h-633l-150 -420h-155l549 1465h162zM453 554h537l-213 600l-46 164h-20l-44 -164zM435 1701q0 42 28 70t67 28q42 0 70 -29t28 -72q0 -42 -28 -69t-69 -27q-20 0 -37.5 7.5t-30.5 21t-20.5 31.5t-7.5 39zM798 1701q0 42 28 70t68 28q21 0 39 -8
t31.5 -21.5t21 -32t7.5 -39.5t-8 -38.5t-21 -30t-31 -20t-37 -7.5q-21 0 -38.5 7.5t-31 21t-21 31.5t-7.5 39z" />
    <glyph glyph-name="Aring" unicode="&#xc5;" 
d="M1360 0h-172l-150 420h-633l-150 -420h-155l549 1465h162zM453 554h537l-213 600l-46 164h-20l-44 -164zM594 1711q0 -33 12 -60.5t31.5 -47t45 -30t51.5 -10.5q27 0 52.5 10.5t45.5 30t32 47t12 60.5t-12 60t-32 46.5t-45.5 30.5t-52.5 11q-26 0 -51.5 -11t-45 -30.5
t-31.5 -46.5t-12 -60zM481 1713q0 49 21 93t57 77.5t84.5 53.5t102.5 20t98.5 -20t76.5 -53.5t49.5 -78.5t17.5 -95q0 -49 -21 -93.5t-57 -78t-84.5 -53.5t-102.5 -20t-98.5 20t-76.5 54t-49.5 79t-17.5 95z" />
    <glyph glyph-name="Egrave" unicode="&#xc8;" horiz-adv-x="1211" 
d="M230 0v1465h829l-27 -134h-656v-500h589l-29 -134h-560v-563h702l-27 -134h-821zM622 1602l-273 316h176l208 -316h-111z" />
    <glyph glyph-name="Eacute" unicode="&#xc9;" horiz-adv-x="1211" 
d="M230 0v1465h829l-27 -134h-656v-500h589l-29 -134h-560v-563h702l-27 -134h-821zM508 1602l208 316h176l-273 -316h-111z" />
    <glyph glyph-name="Ecircumflex" unicode="&#xca;" horiz-adv-x="1211" 
d="M230 0v1465h829l-27 -134h-656v-500h589l-29 -134h-560v-563h702l-27 -134h-821zM350 1602l227 316h151l227 -316h-114l-191 218l-191 -218h-109z" />
    <glyph glyph-name="Edieresis" unicode="&#xcb;" horiz-adv-x="1211" 
d="M230 0v1465h829l-27 -134h-656v-500h589l-29 -134h-560v-563h702l-27 -134h-821zM350 1701q0 42 28 70t67 28q42 0 70 -29t28 -72q0 -42 -28 -69t-69 -27q-20 0 -37.5 7.5t-30.5 21t-20.5 31.5t-7.5 39zM713 1701q0 42 28 70t68 28q21 0 39 -8t31.5 -21.5t21 -32
t7.5 -39.5t-8 -38.5t-21 -30t-31 -20t-37 -7.5q-21 0 -38.5 7.5t-31 21t-21 31.5t-7.5 39z" />
    <glyph glyph-name="Igrave" unicode="&#xcc;" horiz-adv-x="606" 
d="M376 0h-146v1465h146v-1465zM262 1602l-273 316h176l208 -316h-111z" />
    <glyph glyph-name="Iacute" unicode="&#xcd;" horiz-adv-x="606" 
d="M376 0h-146v1465h146v-1465zM230 1602l208 316h176l-273 -316h-111z" />
    <glyph glyph-name="Icircumflex" unicode="&#xce;" horiz-adv-x="606" 
d="M376 0h-146v1465h146v-1465zM3 1602l227 316h151l227 -316h-114l-191 218l-191 -218h-109z" />
    <glyph glyph-name="Idieresis" unicode="&#xcf;" horiz-adv-x="606" 
d="M376 0h-146v1465h146v-1465zM27 1701q0 42 28 70t67 28q42 0 70 -29t28 -72q0 -42 -28 -69t-69 -27q-20 0 -37.5 7.5t-30.5 21t-20.5 31.5t-7.5 39zM390 1701q0 42 28 70t68 28q21 0 39 -8t31.5 -21.5t21 -32t7.5 -39.5t-8 -38.5t-21 -30t-31 -20t-37 -7.5
q-21 0 -38.5 7.5t-31 21t-21 31.5t-7.5 39z" />
    <glyph glyph-name="Ntilde" unicode="&#xd1;" horiz-adv-x="1667" 
d="M220 0v1465h213l779 -1054l97 -159h20l-15 190v1023h133v-1465h-111l-886 1201l-92 163h-20l15 -196v-1168h-133zM994 1602q-40 0 -71 12t-56.5 29.5t-46.5 38.5t-41.5 38.5t-42 29.5t-46.5 12q-22 0 -42 -10t-35.5 -30t-24.5 -50t-9 -70h-110q0 81 24 133t60 82.5t77 42
t74 11.5q39 0 69.5 -12t55.5 -29.5t46.5 -38.5t42 -38.5t42 -29.5t47.5 -12q46 0 79.5 40.5t33.5 119.5h110q0 -81 -24 -133t-59.5 -82.5t-77 -42t-75.5 -11.5z" />
    <glyph glyph-name="Ograve" unicode="&#xd2;" horiz-adv-x="1766" 
d="M882 114q124 0 229 48t181 132t118.5 198t42.5 246q0 137 -45.5 250t-123.5 193.5t-182 125t-221 44.5q-125 0 -229.5 -49.5t-179.5 -135t-117 -200.5t-42 -245q0 -136 45 -248t122 -191.5t181 -123.5t221 -44zM862 -20q-93 0 -181 23.5t-166 67t-143.5 107t-112.5 143.5
t-73 175.5t-26 204.5q0 113 28 214.5t78.5 188.5t120 157.5t152.5 120t177 76.5t193 27q89 0 175.5 -22.5t164 -65.5t143 -105.5t113 -142.5t74.5 -177t27 -208q0 -112 -27 -213.5t-76.5 -188.5t-118 -157.5t-151 -120.5t-177 -77t-194.5 -27zM908 1602l-273 316h176
l208 -316h-111z" />
    <glyph glyph-name="Oacute" unicode="&#xd3;" horiz-adv-x="1766" 
d="M882 114q124 0 229 48t181 132t118.5 198t42.5 246q0 137 -45.5 250t-123.5 193.5t-182 125t-221 44.5q-125 0 -229.5 -49.5t-179.5 -135t-117 -200.5t-42 -245q0 -136 45 -248t122 -191.5t181 -123.5t221 -44zM862 -20q-93 0 -181 23.5t-166 67t-143.5 107t-112.5 143.5
t-73 175.5t-26 204.5q0 113 28 214.5t78.5 188.5t120 157.5t152.5 120t177 76.5t193 27q89 0 175.5 -22.5t164 -65.5t143 -105.5t113 -142.5t74.5 -177t27 -208q0 -112 -27 -213.5t-76.5 -188.5t-118 -157.5t-151 -120.5t-177 -77t-194.5 -27zM810 1602l208 316h176
l-273 -316h-111z" />
    <glyph glyph-name="Ocircumflex" unicode="&#xd4;" horiz-adv-x="1766" 
d="M882 114q124 0 229 48t181 132t118.5 198t42.5 246q0 137 -45.5 250t-123.5 193.5t-182 125t-221 44.5q-125 0 -229.5 -49.5t-179.5 -135t-117 -200.5t-42 -245q0 -136 45 -248t122 -191.5t181 -123.5t221 -44zM862 -20q-93 0 -181 23.5t-166 67t-143.5 107t-112.5 143.5
t-73 175.5t-26 204.5q0 113 28 214.5t78.5 188.5t120 157.5t152.5 120t177 76.5t193 27q89 0 175.5 -22.5t164 -65.5t143 -105.5t113 -142.5t74.5 -177t27 -208q0 -112 -27 -213.5t-76.5 -188.5t-118 -157.5t-151 -120.5t-177 -77t-194.5 -27zM570 1602l227 316h151
l227 -316h-114l-191 218l-191 -218h-109z" />
    <glyph glyph-name="Otilde" unicode="&#xd5;" horiz-adv-x="1766" 
d="M882 114q124 0 229 48t181 132t118.5 198t42.5 246q0 137 -45.5 250t-123.5 193.5t-182 125t-221 44.5q-125 0 -229.5 -49.5t-179.5 -135t-117 -200.5t-42 -245q0 -136 45 -248t122 -191.5t181 -123.5t221 -44zM862 -20q-93 0 -181 23.5t-166 67t-143.5 107t-112.5 143.5
t-73 175.5t-26 204.5q0 113 28 214.5t78.5 188.5t120 157.5t152.5 120t177 76.5t193 27q89 0 175.5 -22.5t164 -65.5t143 -105.5t113 -142.5t74.5 -177t27 -208q0 -112 -27 -213.5t-76.5 -188.5t-118 -157.5t-151 -120.5t-177 -77t-194.5 -27zM1035 1602q-40 0 -71 12
t-56.5 29.5t-46.5 38.5t-41.5 38.5t-42 29.5t-46.5 12q-22 0 -42 -10t-35.5 -30t-24.5 -50t-9 -70h-110q0 81 24 133t60 82.5t77 42t74 11.5q39 0 69.5 -12t55.5 -29.5t46.5 -38.5t42 -38.5t42 -29.5t47.5 -12q46 0 79.5 40.5t33.5 119.5h110q0 -81 -24 -133t-59.5 -82.5
t-77 -42t-75.5 -11.5z" />
    <glyph glyph-name="Odieresis" unicode="&#xd6;" horiz-adv-x="1766" 
d="M882 114q124 0 229 48t181 132t118.5 198t42.5 246q0 137 -45.5 250t-123.5 193.5t-182 125t-221 44.5q-125 0 -229.5 -49.5t-179.5 -135t-117 -200.5t-42 -245q0 -136 45 -248t122 -191.5t181 -123.5t221 -44zM862 -20q-93 0 -181 23.5t-166 67t-143.5 107t-112.5 143.5
t-73 175.5t-26 204.5q0 113 28 214.5t78.5 188.5t120 157.5t152.5 120t177 76.5t193 27q89 0 175.5 -22.5t164 -65.5t143 -105.5t113 -142.5t74.5 -177t27 -208q0 -112 -27 -213.5t-76.5 -188.5t-118 -157.5t-151 -120.5t-177 -77t-194.5 -27zM599 1701q0 42 28 70t67 28
q42 0 70 -29t28 -72q0 -42 -28 -69t-69 -27q-20 0 -37.5 7.5t-30.5 21t-20.5 31.5t-7.5 39zM962 1701q0 42 28 70t68 28q21 0 39 -8t31.5 -21.5t21 -32t7.5 -39.5t-8 -38.5t-21 -30t-31 -20t-37 -7.5q-21 0 -38.5 7.5t-31 21t-21 31.5t-7.5 39z" />
    <glyph glyph-name="Ugrave" unicode="&#xd9;" horiz-adv-x="1550" 
d="M366 1465v-903q0 -117 37 -201.5t97 -139.5t136 -81t153 -26q79 0 152.5 27t130.5 80.5t91 133.5t34 187v923h133v-917q0 -54 -13.5 -117.5t-42.5 -126.5t-74 -121.5t-107.5 -103.5t-143.5 -72t-182 -27q-118 0 -218.5 39.5t-173.5 114t-114 182t-41 244.5v905h146z
M767 1602l-273 316h176l208 -316h-111z" />
    <glyph glyph-name="Uacute" unicode="&#xda;" horiz-adv-x="1550" 
d="M366 1465v-903q0 -117 37 -201.5t97 -139.5t136 -81t153 -26q79 0 152.5 27t130.5 80.5t91 133.5t34 187v923h133v-917q0 -54 -13.5 -117.5t-42.5 -126.5t-74 -121.5t-107.5 -103.5t-143.5 -72t-182 -27q-118 0 -218.5 39.5t-173.5 114t-114 182t-41 244.5v905h146z
M620 1602l208 316h176l-273 -316h-111z" />
    <glyph glyph-name="Ucircumflex" unicode="&#xdb;" horiz-adv-x="1550" 
d="M366 1465v-903q0 -117 37 -201.5t97 -139.5t136 -81t153 -26q79 0 152.5 27t130.5 80.5t91 133.5t34 187v923h133v-917q0 -54 -13.5 -117.5t-42.5 -126.5t-74 -121.5t-107.5 -103.5t-143.5 -72t-182 -27q-118 0 -218.5 39.5t-173.5 114t-114 182t-41 244.5v905h146z
M471 1602l227 316h151l227 -316h-114l-191 218l-191 -218h-109z" />
    <glyph glyph-name="Udieresis" unicode="&#xdc;" horiz-adv-x="1550" 
d="M366 1465v-903q0 -117 37 -201.5t97 -139.5t136 -81t153 -26q79 0 152.5 27t130.5 80.5t91 133.5t34 187v923h133v-917q0 -54 -13.5 -117.5t-42.5 -126.5t-74 -121.5t-107.5 -103.5t-143.5 -72t-182 -27q-118 0 -218.5 39.5t-173.5 114t-114 182t-41 244.5v905h146z
M500 1701q0 42 28 70t67 28q42 0 70 -29t28 -72q0 -42 -28 -69t-69 -27q-20 0 -37.5 7.5t-30.5 21t-20.5 31.5t-7.5 39zM863 1701q0 42 28 70t68 28q21 0 39 -8t31.5 -21.5t21 -32t7.5 -39.5t-8 -38.5t-21 -30t-31 -20t-37 -7.5q-21 0 -38.5 7.5t-31 21t-21 31.5t-7.5 39z
" />
    <glyph glyph-name="Yacute" unicode="&#xdd;" horiz-adv-x="1310" 
d="M721 0h-146v626l-495 839h168l332 -590l65 -137h20l62 128l353 599h150l-509 -835v-630zM529 1602l208 316h176l-273 -316h-111z" />
    <glyph glyph-name="Amacron" unicode="&#x100;" 
d="M1360 0h-172l-150 420h-633l-150 -420h-155l549 1465h162zM453 554h537l-213 600l-46 164h-20l-44 -164zM461 1707h514v-105h-514v105z" />
    <glyph glyph-name="Abreve" unicode="&#x102;" 
d="M1360 0h-172l-150 420h-633l-150 -420h-155l549 1465h162zM453 554h537l-213 600l-46 164h-20l-44 -164zM713 1717q37 0 70.5 15t58 41.5t39 63.5t14.5 81h120q0 -67 -22.5 -124.5t-63 -100t-98.5 -67t-128 -24.5t-124.5 24t-91.5 66.5t-56 100.5t-19 125h120
q0 -44 14 -81t38.5 -63.5t57.5 -41.5t71 -15z" />
    <glyph glyph-name="Cacute" unicode="&#x106;" horiz-adv-x="1444" 
d="M1316 131q-58 -49 -124.5 -78.5t-131 -45.5t-121 -21.5t-93.5 -5.5q-140 0 -265 53t-218.5 149t-148 230t-54.5 296q0 116 28.5 218.5t80 189t123.5 155t158 116t184 73t202 25.5q34 0 77.5 -3t93 -11t102.5 -21.5t106 -34.5l-28 -138l-20 -10q-51 24 -103 40.5
t-100.5 26t-91 13.5t-75.5 4q-84 0 -160 -22.5t-141 -63t-117 -97.5t-89 -126t-57 -148t-20 -164q0 -75 16 -149.5t48.5 -143t81 -127.5t113.5 -102t146 -68t179 -25q33 0 79.5 4t101.5 16t115.5 34.5t122.5 59.5v-98zM695 1602l208 316h176l-273 -316h-111z" />
    <glyph glyph-name="Ccaron" unicode="&#x10c;" horiz-adv-x="1444" 
d="M1316 131q-58 -49 -124.5 -78.5t-131 -45.5t-121 -21.5t-93.5 -5.5q-140 0 -265 53t-218.5 149t-148 230t-54.5 296q0 116 28.5 218.5t80 189t123.5 155t158 116t184 73t202 25.5q34 0 77.5 -3t93 -11t102.5 -21.5t106 -34.5l-28 -138l-20 -10q-51 24 -103 40.5
t-100.5 26t-91 13.5t-75.5 4q-84 0 -160 -22.5t-141 -63t-117 -97.5t-89 -126t-57 -148t-20 -164q0 -75 16 -149.5t48.5 -143t81 -127.5t113.5 -102t146 -68t179 -25q33 0 79.5 4t101.5 16t115.5 34.5t122.5 59.5v-98zM1199 1918l-224 -316h-151l-223 316h111l190 -205
l191 205h106z" />
    <glyph glyph-name="Dcaron" unicode="&#x10e;" horiz-adv-x="1637" 
d="M230 1465h469q194 0 340 -55.5t243.5 -150t146 -219.5t48.5 -263q0 -92 -22 -185.5t-66 -180t-111 -161.5t-157.5 -130.5t-204 -87.5t-251.5 -32h-435v1465zM376 134h320q159 0 277 49t196 133t116.5 195t38.5 235q0 134 -44 242t-128 184.5t-206.5 117.5t-279.5 41h-290
v-1197zM1035 1918l-224 -316h-151l-223 316h111l190 -205l191 205h106z" />
    <glyph glyph-name="Emacron" unicode="&#x112;" horiz-adv-x="1211" 
d="M230 0v1465h829l-27 -134h-656v-500h589l-29 -134h-560v-563h702l-27 -134h-821zM378 1707h514v-105h-514v105z" />
    <glyph glyph-name="Edotaccent" unicode="&#x116;" horiz-adv-x="1211" 
d="M230 0v1465h829l-27 -134h-656v-500h589l-29 -134h-560v-563h702l-27 -134h-821zM553 1700q0 42 28.5 71t70.5 29t71 -29t29 -71t-29 -70.5t-71 -28.5t-70.5 28.5t-28.5 70.5z" />
    <glyph glyph-name="Ecaron" unicode="&#x11a;" horiz-adv-x="1211" 
d="M230 0v1465h829l-27 -134h-656v-500h589l-29 -134h-560v-563h702l-27 -134h-821zM927 1918l-224 -316h-151l-223 316h111l190 -205l191 205h106z" />
    <glyph glyph-name="Gbreve" unicode="&#x11e;" horiz-adv-x="1585" 
d="M1363 73q-68 -27 -133.5 -44.5t-125 -28.5t-112.5 -15.5t-96 -4.5q-159 0 -294 53t-233.5 148.5t-153.5 229.5t-55 296q0 115 28.5 218t80 189t124 155t160.5 117t188.5 73.5t208.5 25.5q37 0 83 -3.5t95.5 -11.5t101.5 -21t102 -32l-26 -139l-20 -11q-58 26 -111.5 42.5
t-100.5 25.5t-86.5 12.5t-70.5 3.5q-137 0 -248.5 -49.5t-190.5 -134.5t-122 -198t-43 -240q0 -121 40 -232.5t117 -196.5t190.5 -135.5t260.5 -50.5q69 0 146 12.5t165 39.5v505h131v-598zM864 1717q37 0 70.5 15t58 41.5t39 63.5t14.5 81h120q0 -67 -22.5 -124.5t-63 -100
t-98.5 -67t-128 -24.5t-124.5 24t-91.5 66.5t-56 100.5t-19 125h120q0 -44 14 -81t38.5 -63.5t57.5 -41.5t71 -15z" />
    <glyph glyph-name="commaaccent" horiz-adv-x="607" 
d="M200 -463q19 12 39.5 32t37.5 42t29 43.5t14 36.5q-8 7 -20 16t-26.5 16.5t-29 13.5t-27.5 9q-5 11 -7 24.5t-2 21.5q0 13 5 30.5t16 33.5t29 27t44 11t45.5 -11t33 -29t20 -41t6.5 -46q0 -47 -22 -90t-51 -77t-57.5 -56t-41.5 -28z" />
    <glyph glyph-name="Gcommaaccent" unicode="&#x122;" horiz-adv-x="1585" 
d="M1363 73q-68 -27 -133.5 -44.5t-125 -28.5t-112.5 -15.5t-96 -4.5q-159 0 -294 53t-233.5 148.5t-153.5 229.5t-55 296q0 115 28.5 218t80 189t124 155t160.5 117t188.5 73.5t208.5 25.5q37 0 83 -3.5t95.5 -11.5t101.5 -21t102 -32l-26 -139l-20 -11q-58 26 -111.5 42.5
t-100.5 25.5t-86.5 12.5t-70.5 3.5q-137 0 -248.5 -49.5t-190.5 -134.5t-122 -198t-43 -240q0 -121 40 -232.5t117 -196.5t190.5 -135.5t260.5 -50.5q69 0 146 12.5t165 39.5v505h131v-598zM793 -463q19 12 39.5 32t37.5 42t29 43.5t14 36.5q-8 7 -20 16t-26.5 16.5
t-29 13.5t-27.5 9q-5 11 -7 24.5t-2 21.5q0 13 5 30.5t16 33.5t29 27t44 11t45.5 -11t33 -29t20 -41t6.5 -46q0 -47 -22 -90t-51 -77t-57.5 -56t-41.5 -28z" />
    <glyph glyph-name="Imacron" unicode="&#x12a;" horiz-adv-x="606" 
d="M376 0h-146v1465h146v-1465zM49 1707h514v-105h-514v105z" />
    <glyph glyph-name="Idotaccent" unicode="&#x130;" horiz-adv-x="606" 
d="M376 0h-146v1465h146v-1465zM203 1700q0 42 28.5 71t70.5 29t71 -29t29 -71t-29 -70.5t-71 -28.5t-70.5 28.5t-28.5 70.5z" />
    <glyph glyph-name="Lacute" unicode="&#x139;" horiz-adv-x="1079" 
d="M230 0v1465h146v-1331h625l-27 -134h-744zM216 1602l208 316h176l-273 -316h-111z" />
    <glyph glyph-name="Nacute" unicode="&#x143;" horiz-adv-x="1667" 
d="M220 0v1465h213l779 -1054l97 -159h20l-15 190v1023h133v-1465h-111l-886 1201l-92 163h-20l15 -196v-1168h-133zM754 1602l208 316h176l-273 -316h-111z" />
    <glyph glyph-name="Ncaron" unicode="&#x147;" horiz-adv-x="1667" 
d="M220 0v1465h213l779 -1054l97 -159h20l-15 190v1023h133v-1465h-111l-886 1201l-92 163h-20l15 -196v-1168h-133zM1145 1918l-224 -316h-151l-223 316h111l190 -205l191 205h106z" />
    <glyph glyph-name="Omacron" unicode="&#x14c;" horiz-adv-x="1766" 
d="M882 114q124 0 229 48t181 132t118.5 198t42.5 246q0 137 -45.5 250t-123.5 193.5t-182 125t-221 44.5q-125 0 -229.5 -49.5t-179.5 -135t-117 -200.5t-42 -245q0 -136 45 -248t122 -191.5t181 -123.5t221 -44zM862 -20q-93 0 -181 23.5t-166 67t-143.5 107t-112.5 143.5
t-73 175.5t-26 204.5q0 113 28 214.5t78.5 188.5t120 157.5t152.5 120t177 76.5t193 27q89 0 175.5 -22.5t164 -65.5t143 -105.5t113 -142.5t74.5 -177t27 -208q0 -112 -27 -213.5t-76.5 -188.5t-118 -157.5t-151 -120.5t-177 -77t-194.5 -27zM649 1707h514v-105h-514v105z
" />
    <glyph glyph-name="Ohungarumlaut" unicode="&#x150;" horiz-adv-x="1766" 
d="M882 114q124 0 229 48t181 132t118.5 198t42.5 246q0 137 -45.5 250t-123.5 193.5t-182 125t-221 44.5q-125 0 -229.5 -49.5t-179.5 -135t-117 -200.5t-42 -245q0 -136 45 -248t122 -191.5t181 -123.5t221 -44zM862 -20q-93 0 -181 23.5t-166 67t-143.5 107t-112.5 143.5
t-73 175.5t-26 204.5q0 113 28 214.5t78.5 188.5t120 157.5t152.5 120t177 76.5t193 27q89 0 175.5 -22.5t164 -65.5t143 -105.5t113 -142.5t74.5 -177t27 -208q0 -112 -27 -213.5t-76.5 -188.5t-118 -157.5t-151 -120.5t-177 -77t-194.5 -27zM952 1602l163 316h170
l-229 -316h-104zM624 1602l163 316h170l-229 -316h-104z" />
    <glyph glyph-name="Racute" unicode="&#x154;" horiz-adv-x="1286" 
d="M376 598v-598h-146v1465h380q97 0 181 -29.5t146 -81.5t98 -123.5t36 -156.5q0 -74 -26 -139t-67 -118.5t-90.5 -95.5t-96.5 -71l418 -650h-181l-366 598h-286zM376 732h350q46 25 82 61.5t60.5 79t37 89.5t12.5 92q0 59 -21 109.5t-64.5 88t-109 58.5t-154.5 21h-193
v-599zM447 1602l208 316h176l-273 -316h-111z" />
    <glyph glyph-name="Rcaron" unicode="&#x158;" horiz-adv-x="1286" 
d="M376 598v-598h-146v1465h380q97 0 181 -29.5t146 -81.5t98 -123.5t36 -156.5q0 -74 -26 -139t-67 -118.5t-90.5 -95.5t-96.5 -71l418 -650h-181l-366 598h-286zM376 732h350q46 25 82 61.5t60.5 79t37 89.5t12.5 92q0 59 -21 109.5t-64.5 88t-109 58.5t-154.5 21h-193
v-599zM907 1918l-224 -316h-151l-223 316h111l190 -205l191 205h106z" />
    <glyph glyph-name="Sacute" unicode="&#x15a;" horiz-adv-x="1229" 
d="M588 114q74 0 136 20t106.5 55.5t69.5 85t25 108.5q0 67 -31 114t-82 82t-116.5 62l-133.5 54.5t-133.5 59t-116.5 76t-82 106t-31 147.5q0 91 35 165t97.5 126.5t147.5 81t184 28.5q63 0 157 -14t205 -49l-25 -138l-21 -10q-56 23 -109 38t-99 23.5t-83.5 12t-64.5 3.5
q-68 0 -121 -17.5t-89.5 -49.5t-55.5 -76t-19 -96q0 -70 31.5 -119.5t83 -86.5t117 -65.5l134 -56.5t134 -59t117 -73.5t83 -100t31.5 -137.5q0 -86 -37.5 -164.5t-105.5 -138.5t-163.5 -95.5t-210.5 -35.5q-99 0 -200 26.5t-207 74.5l25 139l19 10q48 -28 99 -49.5
t102.5 -36.5t101.5 -22.5t96 -7.5zM494 1602l208 316h176l-273 -316h-111z" />
    <glyph glyph-name="Scaron" unicode="&#x160;" horiz-adv-x="1229" 
d="M588 114q74 0 136 20t106.5 55.5t69.5 85t25 108.5q0 67 -31 114t-82 82t-116.5 62l-133.5 54.5t-133.5 59t-116.5 76t-82 106t-31 147.5q0 91 35 165t97.5 126.5t147.5 81t184 28.5q63 0 157 -14t205 -49l-25 -138l-21 -10q-56 23 -109 38t-99 23.5t-83.5 12t-64.5 3.5
q-68 0 -121 -17.5t-89.5 -49.5t-55.5 -76t-19 -96q0 -70 31.5 -119.5t83 -86.5t117 -65.5l134 -56.5t134 -59t117 -73.5t83 -100t31.5 -137.5q0 -86 -37.5 -164.5t-105.5 -138.5t-163.5 -95.5t-210.5 -35.5q-99 0 -200 26.5t-207 74.5l25 139l19 10q48 -28 99 -49.5
t102.5 -36.5t101.5 -22.5t96 -7.5zM939 1918l-224 -316h-151l-223 316h111l190 -205l191 205h106z" />
    <glyph glyph-name="Tcaron" unicode="&#x164;" horiz-adv-x="1274" 
d="M703 0h-146v1331h-507l27 134h1147l-27 -134h-494v-1331zM927 1918l-224 -316h-151l-223 316h111l190 -205l191 205h106z" />
    <glyph glyph-name="Umacron" unicode="&#x16a;" horiz-adv-x="1550" 
d="M366 1465v-903q0 -117 37 -201.5t97 -139.5t136 -81t153 -26q79 0 152.5 27t130.5 80.5t91 133.5t34 187v923h133v-917q0 -54 -13.5 -117.5t-42.5 -126.5t-74 -121.5t-107.5 -103.5t-143.5 -72t-182 -27q-118 0 -218.5 39.5t-173.5 114t-114 182t-41 244.5v905h146z
M527 1707h514v-105h-514v105z" />
    <glyph glyph-name="Uring" unicode="&#x16e;" horiz-adv-x="1550" 
d="M366 1465v-903q0 -117 37 -201.5t97 -139.5t136 -81t153 -26q79 0 152.5 27t130.5 80.5t91 133.5t34 187v923h133v-917q0 -54 -13.5 -117.5t-42.5 -126.5t-74 -121.5t-107.5 -103.5t-143.5 -72t-182 -27q-118 0 -218.5 39.5t-173.5 114t-114 182t-41 244.5v905h146z
M644 1711q0 -33 12 -60.5t31.5 -47t45 -30t51.5 -10.5q27 0 52.5 10.5t45.5 30t32 47t12 60.5t-12 60t-32 46.5t-45.5 30.5t-52.5 11q-26 0 -51.5 -11t-45 -30.5t-31.5 -46.5t-12 -60zM531 1713q0 49 21 93t57 77.5t84.5 53.5t102.5 20t98.5 -20t76.5 -53.5t49.5 -78.5
t17.5 -95q0 -49 -21 -93.5t-57 -78t-84.5 -53.5t-102.5 -20t-98.5 20t-76.5 54t-49.5 79t-17.5 95z" />
    <glyph glyph-name="Uhungarumlaut" unicode="&#x170;" horiz-adv-x="1550" 
d="M366 1465v-903q0 -117 37 -201.5t97 -139.5t136 -81t153 -26q79 0 152.5 27t130.5 80.5t91 133.5t34 187v923h133v-917q0 -54 -13.5 -117.5t-42.5 -126.5t-74 -121.5t-107.5 -103.5t-143.5 -72t-182 -27q-118 0 -218.5 39.5t-173.5 114t-114 182t-41 244.5v905h146z
M826 1602l163 316h170l-229 -316h-104zM498 1602l163 316h170l-229 -316h-104z" />
    <glyph glyph-name="Ydieresis" unicode="&#x178;" horiz-adv-x="1222" 
d="M650 643v-643h-143v644l-483 821h163l304 -565l91 -195h20l97 193l312 567h155zM306 1792q0 45 28.5 74t69.5 29q44 0 73.5 -30t29.5 -75q0 -21 -8 -39.5t-22 -32t-32.5 -21.5t-39.5 -8t-39 8t-31.5 22t-21 33t-7.5 40zM683 1792q0 45 28.5 74t70.5 29q21 0 40 -8
t33 -22.5t22 -33.5t8 -41q0 -21 -8 -39.5t-22 -32t-32.5 -21.5t-38.5 -8q-43 0 -72 30t-29 73z" />
    <glyph glyph-name="Zacute" unicode="&#x179;" horiz-adv-x="1310" 
d="M956 1319v19l-186 -7h-620l27 134h965v-83l-744 -1118l-91 -118v-20l186 8h712l-27 -134h-1063v73l751 1128zM518 1602l208 316h176l-273 -316h-111z" />
    <glyph glyph-name="Zdotaccent" unicode="&#x17b;" horiz-adv-x="1310" 
d="M956 1319v19l-186 -7h-620l27 134h965v-83l-744 -1118l-91 -118v-20l186 8h712l-27 -134h-1063v73l751 1128zM546 1700q0 42 28.5 71t70.5 29t71 -29t29 -71t-29 -70.5t-71 -28.5t-70.5 28.5t-28.5 70.5z" />
    <glyph glyph-name="Zcaron" unicode="&#x17d;" horiz-adv-x="1310" 
d="M956 1319v19l-186 -7h-620l27 134h965v-83l-744 -1118l-91 -118v-20l186 8h712l-27 -134h-1063v73l751 1128zM927 1918l-224 -316h-151l-223 316h111l190 -205l191 205h106z" />
    <glyph glyph-name="rotatedcommaaccent" horiz-adv-x="607" 
d="M407 1523q-19 -12 -39.5 -32t-38 -42t-29 -43.5t-13.5 -36.5q7 -8 19.5 -16.5t26.5 -16.5t29 -14t28 -9q5 -10 7 -23.5t2 -21.5q0 -13 -5 -30.5t-16 -33.5t-29 -27t-44 -11t-46 11t-33 29t-19.5 41t-6.5 46q0 47 22 90t51 77t57.5 56t41.5 28z" />
    <glyph glyph-name="highcommaaccent" horiz-adv-x="607" 
d="M200 1245q19 12 39.5 32t37.5 42t29 43.5t14 36.5q-8 7 -20 16t-26.5 16.5t-29 13.5t-27.5 9q-5 11 -7 24.5t-2 21.5q0 13 5 30.5t16 33.5t29 27t44 11t45.5 -11t33 -29t20 -41t6.5 -46q0 -47 -22 -90t-51 -77t-57.5 -56t-41.5 -28z" />
    <glyph glyph-name="dotlessi" unicode="&#x131;" horiz-adv-x="511" 
d="M184 1060h143v-1060h-143v1060z" />
    <glyph glyph-name="thorn" unicode="&#xfe;" horiz-adv-x="1270" 
d="M327 164q84 -35 149 -44t103 -9q99 0 177 30.5t133 86.5t84 133.5t29 172.5q0 83 -22.5 157.5t-65 131t-103 89.5t-136.5 33q-91 0 -177 -47.5t-171 -135.5v-598zM327 -536h-143v2138h143v-722q31 29 72 64t92 65t110.5 50.5t127.5 20.5q97 0 175 -43.5t133 -116
t85 -166.5t30 -194q0 -127 -46.5 -233.5t-127 -183.5t-189.5 -120t-235 -43q-67 0 -124 10.5t-103 21.5v-548z" />
    <glyph glyph-name="uni02C9" unicode="&#x2c9;" horiz-adv-x="914" 
d="M200 1345h514v-105h-514v105z" />
    <glyph glyph-name="aogonek" unicode="&#x105;" horiz-adv-x="1146" 
d="M764 159l-55 -50.5t-78 -59t-97 -49t-111 -20.5q-54 0 -106 20t-93.5 58t-67 94.5t-25.5 129.5q0 64 24.5 127t84.5 112.5t162 80t258 30.5h108v107q0 48 -16.5 86.5t-47 66t-72.5 42.5t-93 15q-36 0 -77.5 -7.5t-82 -21t-77.5 -32t-64 -40.5l-18 10l-32 117
q57 33 109.5 53.5t100 32t88.5 15.5t76 4q94 0 160.5 -23t108.5 -65t61 -101t19 -131v-534q0 -11 2 -29.5t9.5 -36.5t22 -31.5t39.5 -13.5q16 0 42 6t51 17v-92q-27 -18 -51.5 -32.5t-49.5 -22.5q-78 -50 -118.5 -104t-40.5 -111q0 -49 29 -77t79 -28q19 0 42.5 4t46 10.5
t42.5 14.5t32 16v-75q-42 -36 -92 -57.5t-102 -21.5q-42 0 -78.5 14.5t-63.5 40t-42 60t-15 73.5q0 71 45.5 132t114.5 112q-23 12 -39 31t-27 41.5t-17 46.5t-8 46zM768 518h-89q-126 0 -204 -18t-121 -47.5t-58 -67t-15 -77.5q0 -43 12.5 -78.5t36.5 -61t58.5 -39.5
t77.5 -14q31 0 64 8.5t69.5 28t78.5 52.5t90 82v232z" />
    </font>
</defs>
</svg>
